G04 #@! TF.GenerationSoftware,KiCad,Pcbnew,5.0.2-bee76a0~70~ubuntu18.04.1*
G04 #@! TF.CreationDate,2020-01-02T20:25:09+01:00*
G04 #@! TF.ProjectId,roboy_sno,726f626f-795f-4736-9e6f-2e6b69636164,rev?*
G04 #@! TF.SameCoordinates,Original*
G04 #@! TF.FileFunction,Paste,Top*
G04 #@! TF.FilePolarity,Positive*
%FSLAX46Y46*%
G04 Gerber Fmt 4.6, Leading zero omitted, Abs format (unit mm)*
G04 Created by KiCad (PCBNEW 5.0.2-bee76a0~70~ubuntu18.04.1) date Do 02 Jan 2020 20:25:09 CET*
%MOMM*%
%LPD*%
G01*
G04 APERTURE LIST*
%ADD10C,0.100000*%
%ADD11C,0.590000*%
%ADD12R,0.630000X0.450000*%
%ADD13R,0.660000X0.730000*%
%ADD14R,1.000000X0.700000*%
%ADD15R,1.485000X0.900000*%
%ADD16R,4.000000X4.000000*%
%ADD17R,0.700000X1.000000*%
G04 APERTURE END LIST*
D10*
G04 #@! TO.C,U2*
G36*
X124134940Y-132945000D02*
X126665000Y-132945000D01*
X126665000Y-135475720D01*
X124134940Y-135475720D01*
X124134940Y-132945000D01*
G37*
G04 #@! TD*
G04 #@! TO.C,C1*
G36*
X118586958Y-124020710D02*
X118601276Y-124022834D01*
X118615317Y-124026351D01*
X118628946Y-124031228D01*
X118642031Y-124037417D01*
X118654447Y-124044858D01*
X118666073Y-124053481D01*
X118676798Y-124063202D01*
X118686519Y-124073927D01*
X118695142Y-124085553D01*
X118702583Y-124097969D01*
X118708772Y-124111054D01*
X118713649Y-124124683D01*
X118717166Y-124138724D01*
X118719290Y-124153042D01*
X118720000Y-124167500D01*
X118720000Y-124462500D01*
X118719290Y-124476958D01*
X118717166Y-124491276D01*
X118713649Y-124505317D01*
X118708772Y-124518946D01*
X118702583Y-124532031D01*
X118695142Y-124544447D01*
X118686519Y-124556073D01*
X118676798Y-124566798D01*
X118666073Y-124576519D01*
X118654447Y-124585142D01*
X118642031Y-124592583D01*
X118628946Y-124598772D01*
X118615317Y-124603649D01*
X118601276Y-124607166D01*
X118586958Y-124609290D01*
X118572500Y-124610000D01*
X118227500Y-124610000D01*
X118213042Y-124609290D01*
X118198724Y-124607166D01*
X118184683Y-124603649D01*
X118171054Y-124598772D01*
X118157969Y-124592583D01*
X118145553Y-124585142D01*
X118133927Y-124576519D01*
X118123202Y-124566798D01*
X118113481Y-124556073D01*
X118104858Y-124544447D01*
X118097417Y-124532031D01*
X118091228Y-124518946D01*
X118086351Y-124505317D01*
X118082834Y-124491276D01*
X118080710Y-124476958D01*
X118080000Y-124462500D01*
X118080000Y-124167500D01*
X118080710Y-124153042D01*
X118082834Y-124138724D01*
X118086351Y-124124683D01*
X118091228Y-124111054D01*
X118097417Y-124097969D01*
X118104858Y-124085553D01*
X118113481Y-124073927D01*
X118123202Y-124063202D01*
X118133927Y-124053481D01*
X118145553Y-124044858D01*
X118157969Y-124037417D01*
X118171054Y-124031228D01*
X118184683Y-124026351D01*
X118198724Y-124022834D01*
X118213042Y-124020710D01*
X118227500Y-124020000D01*
X118572500Y-124020000D01*
X118586958Y-124020710D01*
X118586958Y-124020710D01*
G37*
D11*
X118400000Y-124315000D03*
D10*
G36*
X118586958Y-124990710D02*
X118601276Y-124992834D01*
X118615317Y-124996351D01*
X118628946Y-125001228D01*
X118642031Y-125007417D01*
X118654447Y-125014858D01*
X118666073Y-125023481D01*
X118676798Y-125033202D01*
X118686519Y-125043927D01*
X118695142Y-125055553D01*
X118702583Y-125067969D01*
X118708772Y-125081054D01*
X118713649Y-125094683D01*
X118717166Y-125108724D01*
X118719290Y-125123042D01*
X118720000Y-125137500D01*
X118720000Y-125432500D01*
X118719290Y-125446958D01*
X118717166Y-125461276D01*
X118713649Y-125475317D01*
X118708772Y-125488946D01*
X118702583Y-125502031D01*
X118695142Y-125514447D01*
X118686519Y-125526073D01*
X118676798Y-125536798D01*
X118666073Y-125546519D01*
X118654447Y-125555142D01*
X118642031Y-125562583D01*
X118628946Y-125568772D01*
X118615317Y-125573649D01*
X118601276Y-125577166D01*
X118586958Y-125579290D01*
X118572500Y-125580000D01*
X118227500Y-125580000D01*
X118213042Y-125579290D01*
X118198724Y-125577166D01*
X118184683Y-125573649D01*
X118171054Y-125568772D01*
X118157969Y-125562583D01*
X118145553Y-125555142D01*
X118133927Y-125546519D01*
X118123202Y-125536798D01*
X118113481Y-125526073D01*
X118104858Y-125514447D01*
X118097417Y-125502031D01*
X118091228Y-125488946D01*
X118086351Y-125475317D01*
X118082834Y-125461276D01*
X118080710Y-125446958D01*
X118080000Y-125432500D01*
X118080000Y-125137500D01*
X118080710Y-125123042D01*
X118082834Y-125108724D01*
X118086351Y-125094683D01*
X118091228Y-125081054D01*
X118097417Y-125067969D01*
X118104858Y-125055553D01*
X118113481Y-125043927D01*
X118123202Y-125033202D01*
X118133927Y-125023481D01*
X118145553Y-125014858D01*
X118157969Y-125007417D01*
X118171054Y-125001228D01*
X118184683Y-124996351D01*
X118198724Y-124992834D01*
X118213042Y-124990710D01*
X118227500Y-124990000D01*
X118572500Y-124990000D01*
X118586958Y-124990710D01*
X118586958Y-124990710D01*
G37*
D11*
X118400000Y-125285000D03*
G04 #@! TD*
D10*
G04 #@! TO.C,C2*
G36*
X131146958Y-122410710D02*
X131161276Y-122412834D01*
X131175317Y-122416351D01*
X131188946Y-122421228D01*
X131202031Y-122427417D01*
X131214447Y-122434858D01*
X131226073Y-122443481D01*
X131236798Y-122453202D01*
X131246519Y-122463927D01*
X131255142Y-122475553D01*
X131262583Y-122487969D01*
X131268772Y-122501054D01*
X131273649Y-122514683D01*
X131277166Y-122528724D01*
X131279290Y-122543042D01*
X131280000Y-122557500D01*
X131280000Y-122852500D01*
X131279290Y-122866958D01*
X131277166Y-122881276D01*
X131273649Y-122895317D01*
X131268772Y-122908946D01*
X131262583Y-122922031D01*
X131255142Y-122934447D01*
X131246519Y-122946073D01*
X131236798Y-122956798D01*
X131226073Y-122966519D01*
X131214447Y-122975142D01*
X131202031Y-122982583D01*
X131188946Y-122988772D01*
X131175317Y-122993649D01*
X131161276Y-122997166D01*
X131146958Y-122999290D01*
X131132500Y-123000000D01*
X130787500Y-123000000D01*
X130773042Y-122999290D01*
X130758724Y-122997166D01*
X130744683Y-122993649D01*
X130731054Y-122988772D01*
X130717969Y-122982583D01*
X130705553Y-122975142D01*
X130693927Y-122966519D01*
X130683202Y-122956798D01*
X130673481Y-122946073D01*
X130664858Y-122934447D01*
X130657417Y-122922031D01*
X130651228Y-122908946D01*
X130646351Y-122895317D01*
X130642834Y-122881276D01*
X130640710Y-122866958D01*
X130640000Y-122852500D01*
X130640000Y-122557500D01*
X130640710Y-122543042D01*
X130642834Y-122528724D01*
X130646351Y-122514683D01*
X130651228Y-122501054D01*
X130657417Y-122487969D01*
X130664858Y-122475553D01*
X130673481Y-122463927D01*
X130683202Y-122453202D01*
X130693927Y-122443481D01*
X130705553Y-122434858D01*
X130717969Y-122427417D01*
X130731054Y-122421228D01*
X130744683Y-122416351D01*
X130758724Y-122412834D01*
X130773042Y-122410710D01*
X130787500Y-122410000D01*
X131132500Y-122410000D01*
X131146958Y-122410710D01*
X131146958Y-122410710D01*
G37*
D11*
X130960000Y-122705000D03*
D10*
G36*
X131146958Y-121440710D02*
X131161276Y-121442834D01*
X131175317Y-121446351D01*
X131188946Y-121451228D01*
X131202031Y-121457417D01*
X131214447Y-121464858D01*
X131226073Y-121473481D01*
X131236798Y-121483202D01*
X131246519Y-121493927D01*
X131255142Y-121505553D01*
X131262583Y-121517969D01*
X131268772Y-121531054D01*
X131273649Y-121544683D01*
X131277166Y-121558724D01*
X131279290Y-121573042D01*
X131280000Y-121587500D01*
X131280000Y-121882500D01*
X131279290Y-121896958D01*
X131277166Y-121911276D01*
X131273649Y-121925317D01*
X131268772Y-121938946D01*
X131262583Y-121952031D01*
X131255142Y-121964447D01*
X131246519Y-121976073D01*
X131236798Y-121986798D01*
X131226073Y-121996519D01*
X131214447Y-122005142D01*
X131202031Y-122012583D01*
X131188946Y-122018772D01*
X131175317Y-122023649D01*
X131161276Y-122027166D01*
X131146958Y-122029290D01*
X131132500Y-122030000D01*
X130787500Y-122030000D01*
X130773042Y-122029290D01*
X130758724Y-122027166D01*
X130744683Y-122023649D01*
X130731054Y-122018772D01*
X130717969Y-122012583D01*
X130705553Y-122005142D01*
X130693927Y-121996519D01*
X130683202Y-121986798D01*
X130673481Y-121976073D01*
X130664858Y-121964447D01*
X130657417Y-121952031D01*
X130651228Y-121938946D01*
X130646351Y-121925317D01*
X130642834Y-121911276D01*
X130640710Y-121896958D01*
X130640000Y-121882500D01*
X130640000Y-121587500D01*
X130640710Y-121573042D01*
X130642834Y-121558724D01*
X130646351Y-121544683D01*
X130651228Y-121531054D01*
X130657417Y-121517969D01*
X130664858Y-121505553D01*
X130673481Y-121493927D01*
X130683202Y-121483202D01*
X130693927Y-121473481D01*
X130705553Y-121464858D01*
X130717969Y-121457417D01*
X130731054Y-121451228D01*
X130744683Y-121446351D01*
X130758724Y-121442834D01*
X130773042Y-121440710D01*
X130787500Y-121440000D01*
X131132500Y-121440000D01*
X131146958Y-121440710D01*
X131146958Y-121440710D01*
G37*
D11*
X130960000Y-121735000D03*
G04 #@! TD*
D10*
G04 #@! TO.C,C3*
G36*
X131146958Y-123680710D02*
X131161276Y-123682834D01*
X131175317Y-123686351D01*
X131188946Y-123691228D01*
X131202031Y-123697417D01*
X131214447Y-123704858D01*
X131226073Y-123713481D01*
X131236798Y-123723202D01*
X131246519Y-123733927D01*
X131255142Y-123745553D01*
X131262583Y-123757969D01*
X131268772Y-123771054D01*
X131273649Y-123784683D01*
X131277166Y-123798724D01*
X131279290Y-123813042D01*
X131280000Y-123827500D01*
X131280000Y-124122500D01*
X131279290Y-124136958D01*
X131277166Y-124151276D01*
X131273649Y-124165317D01*
X131268772Y-124178946D01*
X131262583Y-124192031D01*
X131255142Y-124204447D01*
X131246519Y-124216073D01*
X131236798Y-124226798D01*
X131226073Y-124236519D01*
X131214447Y-124245142D01*
X131202031Y-124252583D01*
X131188946Y-124258772D01*
X131175317Y-124263649D01*
X131161276Y-124267166D01*
X131146958Y-124269290D01*
X131132500Y-124270000D01*
X130787500Y-124270000D01*
X130773042Y-124269290D01*
X130758724Y-124267166D01*
X130744683Y-124263649D01*
X130731054Y-124258772D01*
X130717969Y-124252583D01*
X130705553Y-124245142D01*
X130693927Y-124236519D01*
X130683202Y-124226798D01*
X130673481Y-124216073D01*
X130664858Y-124204447D01*
X130657417Y-124192031D01*
X130651228Y-124178946D01*
X130646351Y-124165317D01*
X130642834Y-124151276D01*
X130640710Y-124136958D01*
X130640000Y-124122500D01*
X130640000Y-123827500D01*
X130640710Y-123813042D01*
X130642834Y-123798724D01*
X130646351Y-123784683D01*
X130651228Y-123771054D01*
X130657417Y-123757969D01*
X130664858Y-123745553D01*
X130673481Y-123733927D01*
X130683202Y-123723202D01*
X130693927Y-123713481D01*
X130705553Y-123704858D01*
X130717969Y-123697417D01*
X130731054Y-123691228D01*
X130744683Y-123686351D01*
X130758724Y-123682834D01*
X130773042Y-123680710D01*
X130787500Y-123680000D01*
X131132500Y-123680000D01*
X131146958Y-123680710D01*
X131146958Y-123680710D01*
G37*
D11*
X130960000Y-123975000D03*
D10*
G36*
X131146958Y-124650710D02*
X131161276Y-124652834D01*
X131175317Y-124656351D01*
X131188946Y-124661228D01*
X131202031Y-124667417D01*
X131214447Y-124674858D01*
X131226073Y-124683481D01*
X131236798Y-124693202D01*
X131246519Y-124703927D01*
X131255142Y-124715553D01*
X131262583Y-124727969D01*
X131268772Y-124741054D01*
X131273649Y-124754683D01*
X131277166Y-124768724D01*
X131279290Y-124783042D01*
X131280000Y-124797500D01*
X131280000Y-125092500D01*
X131279290Y-125106958D01*
X131277166Y-125121276D01*
X131273649Y-125135317D01*
X131268772Y-125148946D01*
X131262583Y-125162031D01*
X131255142Y-125174447D01*
X131246519Y-125186073D01*
X131236798Y-125196798D01*
X131226073Y-125206519D01*
X131214447Y-125215142D01*
X131202031Y-125222583D01*
X131188946Y-125228772D01*
X131175317Y-125233649D01*
X131161276Y-125237166D01*
X131146958Y-125239290D01*
X131132500Y-125240000D01*
X130787500Y-125240000D01*
X130773042Y-125239290D01*
X130758724Y-125237166D01*
X130744683Y-125233649D01*
X130731054Y-125228772D01*
X130717969Y-125222583D01*
X130705553Y-125215142D01*
X130693927Y-125206519D01*
X130683202Y-125196798D01*
X130673481Y-125186073D01*
X130664858Y-125174447D01*
X130657417Y-125162031D01*
X130651228Y-125148946D01*
X130646351Y-125135317D01*
X130642834Y-125121276D01*
X130640710Y-125106958D01*
X130640000Y-125092500D01*
X130640000Y-124797500D01*
X130640710Y-124783042D01*
X130642834Y-124768724D01*
X130646351Y-124754683D01*
X130651228Y-124741054D01*
X130657417Y-124727969D01*
X130664858Y-124715553D01*
X130673481Y-124703927D01*
X130683202Y-124693202D01*
X130693927Y-124683481D01*
X130705553Y-124674858D01*
X130717969Y-124667417D01*
X130731054Y-124661228D01*
X130744683Y-124656351D01*
X130758724Y-124652834D01*
X130773042Y-124650710D01*
X130787500Y-124650000D01*
X131132500Y-124650000D01*
X131146958Y-124650710D01*
X131146958Y-124650710D01*
G37*
D11*
X130960000Y-124945000D03*
G04 #@! TD*
D10*
G04 #@! TO.C,C4*
G36*
X115586958Y-124020710D02*
X115601276Y-124022834D01*
X115615317Y-124026351D01*
X115628946Y-124031228D01*
X115642031Y-124037417D01*
X115654447Y-124044858D01*
X115666073Y-124053481D01*
X115676798Y-124063202D01*
X115686519Y-124073927D01*
X115695142Y-124085553D01*
X115702583Y-124097969D01*
X115708772Y-124111054D01*
X115713649Y-124124683D01*
X115717166Y-124138724D01*
X115719290Y-124153042D01*
X115720000Y-124167500D01*
X115720000Y-124462500D01*
X115719290Y-124476958D01*
X115717166Y-124491276D01*
X115713649Y-124505317D01*
X115708772Y-124518946D01*
X115702583Y-124532031D01*
X115695142Y-124544447D01*
X115686519Y-124556073D01*
X115676798Y-124566798D01*
X115666073Y-124576519D01*
X115654447Y-124585142D01*
X115642031Y-124592583D01*
X115628946Y-124598772D01*
X115615317Y-124603649D01*
X115601276Y-124607166D01*
X115586958Y-124609290D01*
X115572500Y-124610000D01*
X115227500Y-124610000D01*
X115213042Y-124609290D01*
X115198724Y-124607166D01*
X115184683Y-124603649D01*
X115171054Y-124598772D01*
X115157969Y-124592583D01*
X115145553Y-124585142D01*
X115133927Y-124576519D01*
X115123202Y-124566798D01*
X115113481Y-124556073D01*
X115104858Y-124544447D01*
X115097417Y-124532031D01*
X115091228Y-124518946D01*
X115086351Y-124505317D01*
X115082834Y-124491276D01*
X115080710Y-124476958D01*
X115080000Y-124462500D01*
X115080000Y-124167500D01*
X115080710Y-124153042D01*
X115082834Y-124138724D01*
X115086351Y-124124683D01*
X115091228Y-124111054D01*
X115097417Y-124097969D01*
X115104858Y-124085553D01*
X115113481Y-124073927D01*
X115123202Y-124063202D01*
X115133927Y-124053481D01*
X115145553Y-124044858D01*
X115157969Y-124037417D01*
X115171054Y-124031228D01*
X115184683Y-124026351D01*
X115198724Y-124022834D01*
X115213042Y-124020710D01*
X115227500Y-124020000D01*
X115572500Y-124020000D01*
X115586958Y-124020710D01*
X115586958Y-124020710D01*
G37*
D11*
X115400000Y-124315000D03*
D10*
G36*
X115586958Y-124990710D02*
X115601276Y-124992834D01*
X115615317Y-124996351D01*
X115628946Y-125001228D01*
X115642031Y-125007417D01*
X115654447Y-125014858D01*
X115666073Y-125023481D01*
X115676798Y-125033202D01*
X115686519Y-125043927D01*
X115695142Y-125055553D01*
X115702583Y-125067969D01*
X115708772Y-125081054D01*
X115713649Y-125094683D01*
X115717166Y-125108724D01*
X115719290Y-125123042D01*
X115720000Y-125137500D01*
X115720000Y-125432500D01*
X115719290Y-125446958D01*
X115717166Y-125461276D01*
X115713649Y-125475317D01*
X115708772Y-125488946D01*
X115702583Y-125502031D01*
X115695142Y-125514447D01*
X115686519Y-125526073D01*
X115676798Y-125536798D01*
X115666073Y-125546519D01*
X115654447Y-125555142D01*
X115642031Y-125562583D01*
X115628946Y-125568772D01*
X115615317Y-125573649D01*
X115601276Y-125577166D01*
X115586958Y-125579290D01*
X115572500Y-125580000D01*
X115227500Y-125580000D01*
X115213042Y-125579290D01*
X115198724Y-125577166D01*
X115184683Y-125573649D01*
X115171054Y-125568772D01*
X115157969Y-125562583D01*
X115145553Y-125555142D01*
X115133927Y-125546519D01*
X115123202Y-125536798D01*
X115113481Y-125526073D01*
X115104858Y-125514447D01*
X115097417Y-125502031D01*
X115091228Y-125488946D01*
X115086351Y-125475317D01*
X115082834Y-125461276D01*
X115080710Y-125446958D01*
X115080000Y-125432500D01*
X115080000Y-125137500D01*
X115080710Y-125123042D01*
X115082834Y-125108724D01*
X115086351Y-125094683D01*
X115091228Y-125081054D01*
X115097417Y-125067969D01*
X115104858Y-125055553D01*
X115113481Y-125043927D01*
X115123202Y-125033202D01*
X115133927Y-125023481D01*
X115145553Y-125014858D01*
X115157969Y-125007417D01*
X115171054Y-125001228D01*
X115184683Y-124996351D01*
X115198724Y-124992834D01*
X115213042Y-124990710D01*
X115227500Y-124990000D01*
X115572500Y-124990000D01*
X115586958Y-124990710D01*
X115586958Y-124990710D01*
G37*
D11*
X115400000Y-125285000D03*
G04 #@! TD*
D10*
G04 #@! TO.C,C5*
G36*
X114086958Y-124020710D02*
X114101276Y-124022834D01*
X114115317Y-124026351D01*
X114128946Y-124031228D01*
X114142031Y-124037417D01*
X114154447Y-124044858D01*
X114166073Y-124053481D01*
X114176798Y-124063202D01*
X114186519Y-124073927D01*
X114195142Y-124085553D01*
X114202583Y-124097969D01*
X114208772Y-124111054D01*
X114213649Y-124124683D01*
X114217166Y-124138724D01*
X114219290Y-124153042D01*
X114220000Y-124167500D01*
X114220000Y-124462500D01*
X114219290Y-124476958D01*
X114217166Y-124491276D01*
X114213649Y-124505317D01*
X114208772Y-124518946D01*
X114202583Y-124532031D01*
X114195142Y-124544447D01*
X114186519Y-124556073D01*
X114176798Y-124566798D01*
X114166073Y-124576519D01*
X114154447Y-124585142D01*
X114142031Y-124592583D01*
X114128946Y-124598772D01*
X114115317Y-124603649D01*
X114101276Y-124607166D01*
X114086958Y-124609290D01*
X114072500Y-124610000D01*
X113727500Y-124610000D01*
X113713042Y-124609290D01*
X113698724Y-124607166D01*
X113684683Y-124603649D01*
X113671054Y-124598772D01*
X113657969Y-124592583D01*
X113645553Y-124585142D01*
X113633927Y-124576519D01*
X113623202Y-124566798D01*
X113613481Y-124556073D01*
X113604858Y-124544447D01*
X113597417Y-124532031D01*
X113591228Y-124518946D01*
X113586351Y-124505317D01*
X113582834Y-124491276D01*
X113580710Y-124476958D01*
X113580000Y-124462500D01*
X113580000Y-124167500D01*
X113580710Y-124153042D01*
X113582834Y-124138724D01*
X113586351Y-124124683D01*
X113591228Y-124111054D01*
X113597417Y-124097969D01*
X113604858Y-124085553D01*
X113613481Y-124073927D01*
X113623202Y-124063202D01*
X113633927Y-124053481D01*
X113645553Y-124044858D01*
X113657969Y-124037417D01*
X113671054Y-124031228D01*
X113684683Y-124026351D01*
X113698724Y-124022834D01*
X113713042Y-124020710D01*
X113727500Y-124020000D01*
X114072500Y-124020000D01*
X114086958Y-124020710D01*
X114086958Y-124020710D01*
G37*
D11*
X113900000Y-124315000D03*
D10*
G36*
X114086958Y-124990710D02*
X114101276Y-124992834D01*
X114115317Y-124996351D01*
X114128946Y-125001228D01*
X114142031Y-125007417D01*
X114154447Y-125014858D01*
X114166073Y-125023481D01*
X114176798Y-125033202D01*
X114186519Y-125043927D01*
X114195142Y-125055553D01*
X114202583Y-125067969D01*
X114208772Y-125081054D01*
X114213649Y-125094683D01*
X114217166Y-125108724D01*
X114219290Y-125123042D01*
X114220000Y-125137500D01*
X114220000Y-125432500D01*
X114219290Y-125446958D01*
X114217166Y-125461276D01*
X114213649Y-125475317D01*
X114208772Y-125488946D01*
X114202583Y-125502031D01*
X114195142Y-125514447D01*
X114186519Y-125526073D01*
X114176798Y-125536798D01*
X114166073Y-125546519D01*
X114154447Y-125555142D01*
X114142031Y-125562583D01*
X114128946Y-125568772D01*
X114115317Y-125573649D01*
X114101276Y-125577166D01*
X114086958Y-125579290D01*
X114072500Y-125580000D01*
X113727500Y-125580000D01*
X113713042Y-125579290D01*
X113698724Y-125577166D01*
X113684683Y-125573649D01*
X113671054Y-125568772D01*
X113657969Y-125562583D01*
X113645553Y-125555142D01*
X113633927Y-125546519D01*
X113623202Y-125536798D01*
X113613481Y-125526073D01*
X113604858Y-125514447D01*
X113597417Y-125502031D01*
X113591228Y-125488946D01*
X113586351Y-125475317D01*
X113582834Y-125461276D01*
X113580710Y-125446958D01*
X113580000Y-125432500D01*
X113580000Y-125137500D01*
X113580710Y-125123042D01*
X113582834Y-125108724D01*
X113586351Y-125094683D01*
X113591228Y-125081054D01*
X113597417Y-125067969D01*
X113604858Y-125055553D01*
X113613481Y-125043927D01*
X113623202Y-125033202D01*
X113633927Y-125023481D01*
X113645553Y-125014858D01*
X113657969Y-125007417D01*
X113671054Y-125001228D01*
X113684683Y-124996351D01*
X113698724Y-124992834D01*
X113713042Y-124990710D01*
X113727500Y-124990000D01*
X114072500Y-124990000D01*
X114086958Y-124990710D01*
X114086958Y-124990710D01*
G37*
D11*
X113900000Y-125285000D03*
G04 #@! TD*
D10*
G04 #@! TO.C,R10*
G36*
X117086958Y-124020710D02*
X117101276Y-124022834D01*
X117115317Y-124026351D01*
X117128946Y-124031228D01*
X117142031Y-124037417D01*
X117154447Y-124044858D01*
X117166073Y-124053481D01*
X117176798Y-124063202D01*
X117186519Y-124073927D01*
X117195142Y-124085553D01*
X117202583Y-124097969D01*
X117208772Y-124111054D01*
X117213649Y-124124683D01*
X117217166Y-124138724D01*
X117219290Y-124153042D01*
X117220000Y-124167500D01*
X117220000Y-124462500D01*
X117219290Y-124476958D01*
X117217166Y-124491276D01*
X117213649Y-124505317D01*
X117208772Y-124518946D01*
X117202583Y-124532031D01*
X117195142Y-124544447D01*
X117186519Y-124556073D01*
X117176798Y-124566798D01*
X117166073Y-124576519D01*
X117154447Y-124585142D01*
X117142031Y-124592583D01*
X117128946Y-124598772D01*
X117115317Y-124603649D01*
X117101276Y-124607166D01*
X117086958Y-124609290D01*
X117072500Y-124610000D01*
X116727500Y-124610000D01*
X116713042Y-124609290D01*
X116698724Y-124607166D01*
X116684683Y-124603649D01*
X116671054Y-124598772D01*
X116657969Y-124592583D01*
X116645553Y-124585142D01*
X116633927Y-124576519D01*
X116623202Y-124566798D01*
X116613481Y-124556073D01*
X116604858Y-124544447D01*
X116597417Y-124532031D01*
X116591228Y-124518946D01*
X116586351Y-124505317D01*
X116582834Y-124491276D01*
X116580710Y-124476958D01*
X116580000Y-124462500D01*
X116580000Y-124167500D01*
X116580710Y-124153042D01*
X116582834Y-124138724D01*
X116586351Y-124124683D01*
X116591228Y-124111054D01*
X116597417Y-124097969D01*
X116604858Y-124085553D01*
X116613481Y-124073927D01*
X116623202Y-124063202D01*
X116633927Y-124053481D01*
X116645553Y-124044858D01*
X116657969Y-124037417D01*
X116671054Y-124031228D01*
X116684683Y-124026351D01*
X116698724Y-124022834D01*
X116713042Y-124020710D01*
X116727500Y-124020000D01*
X117072500Y-124020000D01*
X117086958Y-124020710D01*
X117086958Y-124020710D01*
G37*
D11*
X116900000Y-124315000D03*
D10*
G36*
X117086958Y-124990710D02*
X117101276Y-124992834D01*
X117115317Y-124996351D01*
X117128946Y-125001228D01*
X117142031Y-125007417D01*
X117154447Y-125014858D01*
X117166073Y-125023481D01*
X117176798Y-125033202D01*
X117186519Y-125043927D01*
X117195142Y-125055553D01*
X117202583Y-125067969D01*
X117208772Y-125081054D01*
X117213649Y-125094683D01*
X117217166Y-125108724D01*
X117219290Y-125123042D01*
X117220000Y-125137500D01*
X117220000Y-125432500D01*
X117219290Y-125446958D01*
X117217166Y-125461276D01*
X117213649Y-125475317D01*
X117208772Y-125488946D01*
X117202583Y-125502031D01*
X117195142Y-125514447D01*
X117186519Y-125526073D01*
X117176798Y-125536798D01*
X117166073Y-125546519D01*
X117154447Y-125555142D01*
X117142031Y-125562583D01*
X117128946Y-125568772D01*
X117115317Y-125573649D01*
X117101276Y-125577166D01*
X117086958Y-125579290D01*
X117072500Y-125580000D01*
X116727500Y-125580000D01*
X116713042Y-125579290D01*
X116698724Y-125577166D01*
X116684683Y-125573649D01*
X116671054Y-125568772D01*
X116657969Y-125562583D01*
X116645553Y-125555142D01*
X116633927Y-125546519D01*
X116623202Y-125536798D01*
X116613481Y-125526073D01*
X116604858Y-125514447D01*
X116597417Y-125502031D01*
X116591228Y-125488946D01*
X116586351Y-125475317D01*
X116582834Y-125461276D01*
X116580710Y-125446958D01*
X116580000Y-125432500D01*
X116580000Y-125137500D01*
X116580710Y-125123042D01*
X116582834Y-125108724D01*
X116586351Y-125094683D01*
X116591228Y-125081054D01*
X116597417Y-125067969D01*
X116604858Y-125055553D01*
X116613481Y-125043927D01*
X116623202Y-125033202D01*
X116633927Y-125023481D01*
X116645553Y-125014858D01*
X116657969Y-125007417D01*
X116671054Y-125001228D01*
X116684683Y-124996351D01*
X116698724Y-124992834D01*
X116713042Y-124990710D01*
X116727500Y-124990000D01*
X117072500Y-124990000D01*
X117086958Y-124990710D01*
X117086958Y-124990710D01*
G37*
D11*
X116900000Y-125285000D03*
G04 #@! TD*
D12*
G04 #@! TO.C,U1*
X132200000Y-122000000D03*
X132200000Y-122950000D03*
X132200000Y-123900000D03*
X134880000Y-123900000D03*
X134880000Y-122950000D03*
X134880000Y-122000000D03*
D13*
X133115000Y-123816000D03*
X133965000Y-123816000D03*
X133965000Y-122950000D03*
X133115000Y-122950000D03*
X133965000Y-122084000D03*
X133115000Y-122084000D03*
G04 #@! TD*
D14*
G04 #@! TO.C,SW2*
X118550000Y-120725000D03*
X114050000Y-120725000D03*
X114050000Y-122875000D03*
X118550000Y-122875000D03*
G04 #@! TD*
D10*
G04 #@! TO.C,R1*
G36*
X112226958Y-130270710D02*
X112241276Y-130272834D01*
X112255317Y-130276351D01*
X112268946Y-130281228D01*
X112282031Y-130287417D01*
X112294447Y-130294858D01*
X112306073Y-130303481D01*
X112316798Y-130313202D01*
X112326519Y-130323927D01*
X112335142Y-130335553D01*
X112342583Y-130347969D01*
X112348772Y-130361054D01*
X112353649Y-130374683D01*
X112357166Y-130388724D01*
X112359290Y-130403042D01*
X112360000Y-130417500D01*
X112360000Y-130762500D01*
X112359290Y-130776958D01*
X112357166Y-130791276D01*
X112353649Y-130805317D01*
X112348772Y-130818946D01*
X112342583Y-130832031D01*
X112335142Y-130844447D01*
X112326519Y-130856073D01*
X112316798Y-130866798D01*
X112306073Y-130876519D01*
X112294447Y-130885142D01*
X112282031Y-130892583D01*
X112268946Y-130898772D01*
X112255317Y-130903649D01*
X112241276Y-130907166D01*
X112226958Y-130909290D01*
X112212500Y-130910000D01*
X111917500Y-130910000D01*
X111903042Y-130909290D01*
X111888724Y-130907166D01*
X111874683Y-130903649D01*
X111861054Y-130898772D01*
X111847969Y-130892583D01*
X111835553Y-130885142D01*
X111823927Y-130876519D01*
X111813202Y-130866798D01*
X111803481Y-130856073D01*
X111794858Y-130844447D01*
X111787417Y-130832031D01*
X111781228Y-130818946D01*
X111776351Y-130805317D01*
X111772834Y-130791276D01*
X111770710Y-130776958D01*
X111770000Y-130762500D01*
X111770000Y-130417500D01*
X111770710Y-130403042D01*
X111772834Y-130388724D01*
X111776351Y-130374683D01*
X111781228Y-130361054D01*
X111787417Y-130347969D01*
X111794858Y-130335553D01*
X111803481Y-130323927D01*
X111813202Y-130313202D01*
X111823927Y-130303481D01*
X111835553Y-130294858D01*
X111847969Y-130287417D01*
X111861054Y-130281228D01*
X111874683Y-130276351D01*
X111888724Y-130272834D01*
X111903042Y-130270710D01*
X111917500Y-130270000D01*
X112212500Y-130270000D01*
X112226958Y-130270710D01*
X112226958Y-130270710D01*
G37*
D11*
X112065000Y-130590000D03*
D10*
G36*
X113196958Y-130270710D02*
X113211276Y-130272834D01*
X113225317Y-130276351D01*
X113238946Y-130281228D01*
X113252031Y-130287417D01*
X113264447Y-130294858D01*
X113276073Y-130303481D01*
X113286798Y-130313202D01*
X113296519Y-130323927D01*
X113305142Y-130335553D01*
X113312583Y-130347969D01*
X113318772Y-130361054D01*
X113323649Y-130374683D01*
X113327166Y-130388724D01*
X113329290Y-130403042D01*
X113330000Y-130417500D01*
X113330000Y-130762500D01*
X113329290Y-130776958D01*
X113327166Y-130791276D01*
X113323649Y-130805317D01*
X113318772Y-130818946D01*
X113312583Y-130832031D01*
X113305142Y-130844447D01*
X113296519Y-130856073D01*
X113286798Y-130866798D01*
X113276073Y-130876519D01*
X113264447Y-130885142D01*
X113252031Y-130892583D01*
X113238946Y-130898772D01*
X113225317Y-130903649D01*
X113211276Y-130907166D01*
X113196958Y-130909290D01*
X113182500Y-130910000D01*
X112887500Y-130910000D01*
X112873042Y-130909290D01*
X112858724Y-130907166D01*
X112844683Y-130903649D01*
X112831054Y-130898772D01*
X112817969Y-130892583D01*
X112805553Y-130885142D01*
X112793927Y-130876519D01*
X112783202Y-130866798D01*
X112773481Y-130856073D01*
X112764858Y-130844447D01*
X112757417Y-130832031D01*
X112751228Y-130818946D01*
X112746351Y-130805317D01*
X112742834Y-130791276D01*
X112740710Y-130776958D01*
X112740000Y-130762500D01*
X112740000Y-130417500D01*
X112740710Y-130403042D01*
X112742834Y-130388724D01*
X112746351Y-130374683D01*
X112751228Y-130361054D01*
X112757417Y-130347969D01*
X112764858Y-130335553D01*
X112773481Y-130323927D01*
X112783202Y-130313202D01*
X112793927Y-130303481D01*
X112805553Y-130294858D01*
X112817969Y-130287417D01*
X112831054Y-130281228D01*
X112844683Y-130276351D01*
X112858724Y-130272834D01*
X112873042Y-130270710D01*
X112887500Y-130270000D01*
X113182500Y-130270000D01*
X113196958Y-130270710D01*
X113196958Y-130270710D01*
G37*
D11*
X113035000Y-130590000D03*
G04 #@! TD*
D10*
G04 #@! TO.C,R2*
G36*
X112216958Y-131800710D02*
X112231276Y-131802834D01*
X112245317Y-131806351D01*
X112258946Y-131811228D01*
X112272031Y-131817417D01*
X112284447Y-131824858D01*
X112296073Y-131833481D01*
X112306798Y-131843202D01*
X112316519Y-131853927D01*
X112325142Y-131865553D01*
X112332583Y-131877969D01*
X112338772Y-131891054D01*
X112343649Y-131904683D01*
X112347166Y-131918724D01*
X112349290Y-131933042D01*
X112350000Y-131947500D01*
X112350000Y-132292500D01*
X112349290Y-132306958D01*
X112347166Y-132321276D01*
X112343649Y-132335317D01*
X112338772Y-132348946D01*
X112332583Y-132362031D01*
X112325142Y-132374447D01*
X112316519Y-132386073D01*
X112306798Y-132396798D01*
X112296073Y-132406519D01*
X112284447Y-132415142D01*
X112272031Y-132422583D01*
X112258946Y-132428772D01*
X112245317Y-132433649D01*
X112231276Y-132437166D01*
X112216958Y-132439290D01*
X112202500Y-132440000D01*
X111907500Y-132440000D01*
X111893042Y-132439290D01*
X111878724Y-132437166D01*
X111864683Y-132433649D01*
X111851054Y-132428772D01*
X111837969Y-132422583D01*
X111825553Y-132415142D01*
X111813927Y-132406519D01*
X111803202Y-132396798D01*
X111793481Y-132386073D01*
X111784858Y-132374447D01*
X111777417Y-132362031D01*
X111771228Y-132348946D01*
X111766351Y-132335317D01*
X111762834Y-132321276D01*
X111760710Y-132306958D01*
X111760000Y-132292500D01*
X111760000Y-131947500D01*
X111760710Y-131933042D01*
X111762834Y-131918724D01*
X111766351Y-131904683D01*
X111771228Y-131891054D01*
X111777417Y-131877969D01*
X111784858Y-131865553D01*
X111793481Y-131853927D01*
X111803202Y-131843202D01*
X111813927Y-131833481D01*
X111825553Y-131824858D01*
X111837969Y-131817417D01*
X111851054Y-131811228D01*
X111864683Y-131806351D01*
X111878724Y-131802834D01*
X111893042Y-131800710D01*
X111907500Y-131800000D01*
X112202500Y-131800000D01*
X112216958Y-131800710D01*
X112216958Y-131800710D01*
G37*
D11*
X112055000Y-132120000D03*
D10*
G36*
X113186958Y-131800710D02*
X113201276Y-131802834D01*
X113215317Y-131806351D01*
X113228946Y-131811228D01*
X113242031Y-131817417D01*
X113254447Y-131824858D01*
X113266073Y-131833481D01*
X113276798Y-131843202D01*
X113286519Y-131853927D01*
X113295142Y-131865553D01*
X113302583Y-131877969D01*
X113308772Y-131891054D01*
X113313649Y-131904683D01*
X113317166Y-131918724D01*
X113319290Y-131933042D01*
X113320000Y-131947500D01*
X113320000Y-132292500D01*
X113319290Y-132306958D01*
X113317166Y-132321276D01*
X113313649Y-132335317D01*
X113308772Y-132348946D01*
X113302583Y-132362031D01*
X113295142Y-132374447D01*
X113286519Y-132386073D01*
X113276798Y-132396798D01*
X113266073Y-132406519D01*
X113254447Y-132415142D01*
X113242031Y-132422583D01*
X113228946Y-132428772D01*
X113215317Y-132433649D01*
X113201276Y-132437166D01*
X113186958Y-132439290D01*
X113172500Y-132440000D01*
X112877500Y-132440000D01*
X112863042Y-132439290D01*
X112848724Y-132437166D01*
X112834683Y-132433649D01*
X112821054Y-132428772D01*
X112807969Y-132422583D01*
X112795553Y-132415142D01*
X112783927Y-132406519D01*
X112773202Y-132396798D01*
X112763481Y-132386073D01*
X112754858Y-132374447D01*
X112747417Y-132362031D01*
X112741228Y-132348946D01*
X112736351Y-132335317D01*
X112732834Y-132321276D01*
X112730710Y-132306958D01*
X112730000Y-132292500D01*
X112730000Y-131947500D01*
X112730710Y-131933042D01*
X112732834Y-131918724D01*
X112736351Y-131904683D01*
X112741228Y-131891054D01*
X112747417Y-131877969D01*
X112754858Y-131865553D01*
X112763481Y-131853927D01*
X112773202Y-131843202D01*
X112783927Y-131833481D01*
X112795553Y-131824858D01*
X112807969Y-131817417D01*
X112821054Y-131811228D01*
X112834683Y-131806351D01*
X112848724Y-131802834D01*
X112863042Y-131800710D01*
X112877500Y-131800000D01*
X113172500Y-131800000D01*
X113186958Y-131800710D01*
X113186958Y-131800710D01*
G37*
D11*
X113025000Y-132120000D03*
G04 #@! TD*
D10*
G04 #@! TO.C,R3*
G36*
X113216958Y-136540710D02*
X113231276Y-136542834D01*
X113245317Y-136546351D01*
X113258946Y-136551228D01*
X113272031Y-136557417D01*
X113284447Y-136564858D01*
X113296073Y-136573481D01*
X113306798Y-136583202D01*
X113316519Y-136593927D01*
X113325142Y-136605553D01*
X113332583Y-136617969D01*
X113338772Y-136631054D01*
X113343649Y-136644683D01*
X113347166Y-136658724D01*
X113349290Y-136673042D01*
X113350000Y-136687500D01*
X113350000Y-137032500D01*
X113349290Y-137046958D01*
X113347166Y-137061276D01*
X113343649Y-137075317D01*
X113338772Y-137088946D01*
X113332583Y-137102031D01*
X113325142Y-137114447D01*
X113316519Y-137126073D01*
X113306798Y-137136798D01*
X113296073Y-137146519D01*
X113284447Y-137155142D01*
X113272031Y-137162583D01*
X113258946Y-137168772D01*
X113245317Y-137173649D01*
X113231276Y-137177166D01*
X113216958Y-137179290D01*
X113202500Y-137180000D01*
X112907500Y-137180000D01*
X112893042Y-137179290D01*
X112878724Y-137177166D01*
X112864683Y-137173649D01*
X112851054Y-137168772D01*
X112837969Y-137162583D01*
X112825553Y-137155142D01*
X112813927Y-137146519D01*
X112803202Y-137136798D01*
X112793481Y-137126073D01*
X112784858Y-137114447D01*
X112777417Y-137102031D01*
X112771228Y-137088946D01*
X112766351Y-137075317D01*
X112762834Y-137061276D01*
X112760710Y-137046958D01*
X112760000Y-137032500D01*
X112760000Y-136687500D01*
X112760710Y-136673042D01*
X112762834Y-136658724D01*
X112766351Y-136644683D01*
X112771228Y-136631054D01*
X112777417Y-136617969D01*
X112784858Y-136605553D01*
X112793481Y-136593927D01*
X112803202Y-136583202D01*
X112813927Y-136573481D01*
X112825553Y-136564858D01*
X112837969Y-136557417D01*
X112851054Y-136551228D01*
X112864683Y-136546351D01*
X112878724Y-136542834D01*
X112893042Y-136540710D01*
X112907500Y-136540000D01*
X113202500Y-136540000D01*
X113216958Y-136540710D01*
X113216958Y-136540710D01*
G37*
D11*
X113055000Y-136860000D03*
D10*
G36*
X112246958Y-136540710D02*
X112261276Y-136542834D01*
X112275317Y-136546351D01*
X112288946Y-136551228D01*
X112302031Y-136557417D01*
X112314447Y-136564858D01*
X112326073Y-136573481D01*
X112336798Y-136583202D01*
X112346519Y-136593927D01*
X112355142Y-136605553D01*
X112362583Y-136617969D01*
X112368772Y-136631054D01*
X112373649Y-136644683D01*
X112377166Y-136658724D01*
X112379290Y-136673042D01*
X112380000Y-136687500D01*
X112380000Y-137032500D01*
X112379290Y-137046958D01*
X112377166Y-137061276D01*
X112373649Y-137075317D01*
X112368772Y-137088946D01*
X112362583Y-137102031D01*
X112355142Y-137114447D01*
X112346519Y-137126073D01*
X112336798Y-137136798D01*
X112326073Y-137146519D01*
X112314447Y-137155142D01*
X112302031Y-137162583D01*
X112288946Y-137168772D01*
X112275317Y-137173649D01*
X112261276Y-137177166D01*
X112246958Y-137179290D01*
X112232500Y-137180000D01*
X111937500Y-137180000D01*
X111923042Y-137179290D01*
X111908724Y-137177166D01*
X111894683Y-137173649D01*
X111881054Y-137168772D01*
X111867969Y-137162583D01*
X111855553Y-137155142D01*
X111843927Y-137146519D01*
X111833202Y-137136798D01*
X111823481Y-137126073D01*
X111814858Y-137114447D01*
X111807417Y-137102031D01*
X111801228Y-137088946D01*
X111796351Y-137075317D01*
X111792834Y-137061276D01*
X111790710Y-137046958D01*
X111790000Y-137032500D01*
X111790000Y-136687500D01*
X111790710Y-136673042D01*
X111792834Y-136658724D01*
X111796351Y-136644683D01*
X111801228Y-136631054D01*
X111807417Y-136617969D01*
X111814858Y-136605553D01*
X111823481Y-136593927D01*
X111833202Y-136583202D01*
X111843927Y-136573481D01*
X111855553Y-136564858D01*
X111867969Y-136557417D01*
X111881054Y-136551228D01*
X111894683Y-136546351D01*
X111908724Y-136542834D01*
X111923042Y-136540710D01*
X111937500Y-136540000D01*
X112232500Y-136540000D01*
X112246958Y-136540710D01*
X112246958Y-136540710D01*
G37*
D11*
X112085000Y-136860000D03*
G04 #@! TD*
D15*
G04 #@! TO.C,U2*
X115407500Y-127610000D03*
X115407500Y-129110000D03*
X115407500Y-130610000D03*
X115407500Y-132110000D03*
X115407500Y-133610000D03*
X115407500Y-135110000D03*
X115407500Y-136610000D03*
X115407500Y-138110000D03*
X115407500Y-139610000D03*
X133192500Y-139610000D03*
X133192500Y-138110000D03*
X133192500Y-136610000D03*
X133192500Y-135110000D03*
X133192500Y-133610000D03*
X133192500Y-132110000D03*
X133192500Y-130610000D03*
X133192500Y-129110000D03*
X133192500Y-127610000D03*
D16*
X125400000Y-134210000D03*
G04 #@! TD*
D10*
G04 #@! TO.C,D1*
G36*
X129486958Y-121490710D02*
X129501276Y-121492834D01*
X129515317Y-121496351D01*
X129528946Y-121501228D01*
X129542031Y-121507417D01*
X129554447Y-121514858D01*
X129566073Y-121523481D01*
X129576798Y-121533202D01*
X129586519Y-121543927D01*
X129595142Y-121555553D01*
X129602583Y-121567969D01*
X129608772Y-121581054D01*
X129613649Y-121594683D01*
X129617166Y-121608724D01*
X129619290Y-121623042D01*
X129620000Y-121637500D01*
X129620000Y-121932500D01*
X129619290Y-121946958D01*
X129617166Y-121961276D01*
X129613649Y-121975317D01*
X129608772Y-121988946D01*
X129602583Y-122002031D01*
X129595142Y-122014447D01*
X129586519Y-122026073D01*
X129576798Y-122036798D01*
X129566073Y-122046519D01*
X129554447Y-122055142D01*
X129542031Y-122062583D01*
X129528946Y-122068772D01*
X129515317Y-122073649D01*
X129501276Y-122077166D01*
X129486958Y-122079290D01*
X129472500Y-122080000D01*
X129127500Y-122080000D01*
X129113042Y-122079290D01*
X129098724Y-122077166D01*
X129084683Y-122073649D01*
X129071054Y-122068772D01*
X129057969Y-122062583D01*
X129045553Y-122055142D01*
X129033927Y-122046519D01*
X129023202Y-122036798D01*
X129013481Y-122026073D01*
X129004858Y-122014447D01*
X128997417Y-122002031D01*
X128991228Y-121988946D01*
X128986351Y-121975317D01*
X128982834Y-121961276D01*
X128980710Y-121946958D01*
X128980000Y-121932500D01*
X128980000Y-121637500D01*
X128980710Y-121623042D01*
X128982834Y-121608724D01*
X128986351Y-121594683D01*
X128991228Y-121581054D01*
X128997417Y-121567969D01*
X129004858Y-121555553D01*
X129013481Y-121543927D01*
X129023202Y-121533202D01*
X129033927Y-121523481D01*
X129045553Y-121514858D01*
X129057969Y-121507417D01*
X129071054Y-121501228D01*
X129084683Y-121496351D01*
X129098724Y-121492834D01*
X129113042Y-121490710D01*
X129127500Y-121490000D01*
X129472500Y-121490000D01*
X129486958Y-121490710D01*
X129486958Y-121490710D01*
G37*
D11*
X129300000Y-121785000D03*
D10*
G36*
X129486958Y-120520710D02*
X129501276Y-120522834D01*
X129515317Y-120526351D01*
X129528946Y-120531228D01*
X129542031Y-120537417D01*
X129554447Y-120544858D01*
X129566073Y-120553481D01*
X129576798Y-120563202D01*
X129586519Y-120573927D01*
X129595142Y-120585553D01*
X129602583Y-120597969D01*
X129608772Y-120611054D01*
X129613649Y-120624683D01*
X129617166Y-120638724D01*
X129619290Y-120653042D01*
X129620000Y-120667500D01*
X129620000Y-120962500D01*
X129619290Y-120976958D01*
X129617166Y-120991276D01*
X129613649Y-121005317D01*
X129608772Y-121018946D01*
X129602583Y-121032031D01*
X129595142Y-121044447D01*
X129586519Y-121056073D01*
X129576798Y-121066798D01*
X129566073Y-121076519D01*
X129554447Y-121085142D01*
X129542031Y-121092583D01*
X129528946Y-121098772D01*
X129515317Y-121103649D01*
X129501276Y-121107166D01*
X129486958Y-121109290D01*
X129472500Y-121110000D01*
X129127500Y-121110000D01*
X129113042Y-121109290D01*
X129098724Y-121107166D01*
X129084683Y-121103649D01*
X129071054Y-121098772D01*
X129057969Y-121092583D01*
X129045553Y-121085142D01*
X129033927Y-121076519D01*
X129023202Y-121066798D01*
X129013481Y-121056073D01*
X129004858Y-121044447D01*
X128997417Y-121032031D01*
X128991228Y-121018946D01*
X128986351Y-121005317D01*
X128982834Y-120991276D01*
X128980710Y-120976958D01*
X128980000Y-120962500D01*
X128980000Y-120667500D01*
X128980710Y-120653042D01*
X128982834Y-120638724D01*
X128986351Y-120624683D01*
X128991228Y-120611054D01*
X128997417Y-120597969D01*
X129004858Y-120585553D01*
X129013481Y-120573927D01*
X129023202Y-120563202D01*
X129033927Y-120553481D01*
X129045553Y-120544858D01*
X129057969Y-120537417D01*
X129071054Y-120531228D01*
X129084683Y-120526351D01*
X129098724Y-120522834D01*
X129113042Y-120520710D01*
X129127500Y-120520000D01*
X129472500Y-120520000D01*
X129486958Y-120520710D01*
X129486958Y-120520710D01*
G37*
D11*
X129300000Y-120815000D03*
G04 #@! TD*
D10*
G04 #@! TO.C,R4*
G36*
X129486958Y-123790710D02*
X129501276Y-123792834D01*
X129515317Y-123796351D01*
X129528946Y-123801228D01*
X129542031Y-123807417D01*
X129554447Y-123814858D01*
X129566073Y-123823481D01*
X129576798Y-123833202D01*
X129586519Y-123843927D01*
X129595142Y-123855553D01*
X129602583Y-123867969D01*
X129608772Y-123881054D01*
X129613649Y-123894683D01*
X129617166Y-123908724D01*
X129619290Y-123923042D01*
X129620000Y-123937500D01*
X129620000Y-124232500D01*
X129619290Y-124246958D01*
X129617166Y-124261276D01*
X129613649Y-124275317D01*
X129608772Y-124288946D01*
X129602583Y-124302031D01*
X129595142Y-124314447D01*
X129586519Y-124326073D01*
X129576798Y-124336798D01*
X129566073Y-124346519D01*
X129554447Y-124355142D01*
X129542031Y-124362583D01*
X129528946Y-124368772D01*
X129515317Y-124373649D01*
X129501276Y-124377166D01*
X129486958Y-124379290D01*
X129472500Y-124380000D01*
X129127500Y-124380000D01*
X129113042Y-124379290D01*
X129098724Y-124377166D01*
X129084683Y-124373649D01*
X129071054Y-124368772D01*
X129057969Y-124362583D01*
X129045553Y-124355142D01*
X129033927Y-124346519D01*
X129023202Y-124336798D01*
X129013481Y-124326073D01*
X129004858Y-124314447D01*
X128997417Y-124302031D01*
X128991228Y-124288946D01*
X128986351Y-124275317D01*
X128982834Y-124261276D01*
X128980710Y-124246958D01*
X128980000Y-124232500D01*
X128980000Y-123937500D01*
X128980710Y-123923042D01*
X128982834Y-123908724D01*
X128986351Y-123894683D01*
X128991228Y-123881054D01*
X128997417Y-123867969D01*
X129004858Y-123855553D01*
X129013481Y-123843927D01*
X129023202Y-123833202D01*
X129033927Y-123823481D01*
X129045553Y-123814858D01*
X129057969Y-123807417D01*
X129071054Y-123801228D01*
X129084683Y-123796351D01*
X129098724Y-123792834D01*
X129113042Y-123790710D01*
X129127500Y-123790000D01*
X129472500Y-123790000D01*
X129486958Y-123790710D01*
X129486958Y-123790710D01*
G37*
D11*
X129300000Y-124085000D03*
D10*
G36*
X129486958Y-122820710D02*
X129501276Y-122822834D01*
X129515317Y-122826351D01*
X129528946Y-122831228D01*
X129542031Y-122837417D01*
X129554447Y-122844858D01*
X129566073Y-122853481D01*
X129576798Y-122863202D01*
X129586519Y-122873927D01*
X129595142Y-122885553D01*
X129602583Y-122897969D01*
X129608772Y-122911054D01*
X129613649Y-122924683D01*
X129617166Y-122938724D01*
X129619290Y-122953042D01*
X129620000Y-122967500D01*
X129620000Y-123262500D01*
X129619290Y-123276958D01*
X129617166Y-123291276D01*
X129613649Y-123305317D01*
X129608772Y-123318946D01*
X129602583Y-123332031D01*
X129595142Y-123344447D01*
X129586519Y-123356073D01*
X129576798Y-123366798D01*
X129566073Y-123376519D01*
X129554447Y-123385142D01*
X129542031Y-123392583D01*
X129528946Y-123398772D01*
X129515317Y-123403649D01*
X129501276Y-123407166D01*
X129486958Y-123409290D01*
X129472500Y-123410000D01*
X129127500Y-123410000D01*
X129113042Y-123409290D01*
X129098724Y-123407166D01*
X129084683Y-123403649D01*
X129071054Y-123398772D01*
X129057969Y-123392583D01*
X129045553Y-123385142D01*
X129033927Y-123376519D01*
X129023202Y-123366798D01*
X129013481Y-123356073D01*
X129004858Y-123344447D01*
X128997417Y-123332031D01*
X128991228Y-123318946D01*
X128986351Y-123305317D01*
X128982834Y-123291276D01*
X128980710Y-123276958D01*
X128980000Y-123262500D01*
X128980000Y-122967500D01*
X128980710Y-122953042D01*
X128982834Y-122938724D01*
X128986351Y-122924683D01*
X128991228Y-122911054D01*
X128997417Y-122897969D01*
X129004858Y-122885553D01*
X129013481Y-122873927D01*
X129023202Y-122863202D01*
X129033927Y-122853481D01*
X129045553Y-122844858D01*
X129057969Y-122837417D01*
X129071054Y-122831228D01*
X129084683Y-122826351D01*
X129098724Y-122822834D01*
X129113042Y-122820710D01*
X129127500Y-122820000D01*
X129472500Y-122820000D01*
X129486958Y-122820710D01*
X129486958Y-122820710D01*
G37*
D11*
X129300000Y-123115000D03*
G04 #@! TD*
D10*
G04 #@! TO.C,R5*
G36*
X112246958Y-134910710D02*
X112261276Y-134912834D01*
X112275317Y-134916351D01*
X112288946Y-134921228D01*
X112302031Y-134927417D01*
X112314447Y-134934858D01*
X112326073Y-134943481D01*
X112336798Y-134953202D01*
X112346519Y-134963927D01*
X112355142Y-134975553D01*
X112362583Y-134987969D01*
X112368772Y-135001054D01*
X112373649Y-135014683D01*
X112377166Y-135028724D01*
X112379290Y-135043042D01*
X112380000Y-135057500D01*
X112380000Y-135402500D01*
X112379290Y-135416958D01*
X112377166Y-135431276D01*
X112373649Y-135445317D01*
X112368772Y-135458946D01*
X112362583Y-135472031D01*
X112355142Y-135484447D01*
X112346519Y-135496073D01*
X112336798Y-135506798D01*
X112326073Y-135516519D01*
X112314447Y-135525142D01*
X112302031Y-135532583D01*
X112288946Y-135538772D01*
X112275317Y-135543649D01*
X112261276Y-135547166D01*
X112246958Y-135549290D01*
X112232500Y-135550000D01*
X111937500Y-135550000D01*
X111923042Y-135549290D01*
X111908724Y-135547166D01*
X111894683Y-135543649D01*
X111881054Y-135538772D01*
X111867969Y-135532583D01*
X111855553Y-135525142D01*
X111843927Y-135516519D01*
X111833202Y-135506798D01*
X111823481Y-135496073D01*
X111814858Y-135484447D01*
X111807417Y-135472031D01*
X111801228Y-135458946D01*
X111796351Y-135445317D01*
X111792834Y-135431276D01*
X111790710Y-135416958D01*
X111790000Y-135402500D01*
X111790000Y-135057500D01*
X111790710Y-135043042D01*
X111792834Y-135028724D01*
X111796351Y-135014683D01*
X111801228Y-135001054D01*
X111807417Y-134987969D01*
X111814858Y-134975553D01*
X111823481Y-134963927D01*
X111833202Y-134953202D01*
X111843927Y-134943481D01*
X111855553Y-134934858D01*
X111867969Y-134927417D01*
X111881054Y-134921228D01*
X111894683Y-134916351D01*
X111908724Y-134912834D01*
X111923042Y-134910710D01*
X111937500Y-134910000D01*
X112232500Y-134910000D01*
X112246958Y-134910710D01*
X112246958Y-134910710D01*
G37*
D11*
X112085000Y-135230000D03*
D10*
G36*
X113216958Y-134910710D02*
X113231276Y-134912834D01*
X113245317Y-134916351D01*
X113258946Y-134921228D01*
X113272031Y-134927417D01*
X113284447Y-134934858D01*
X113296073Y-134943481D01*
X113306798Y-134953202D01*
X113316519Y-134963927D01*
X113325142Y-134975553D01*
X113332583Y-134987969D01*
X113338772Y-135001054D01*
X113343649Y-135014683D01*
X113347166Y-135028724D01*
X113349290Y-135043042D01*
X113350000Y-135057500D01*
X113350000Y-135402500D01*
X113349290Y-135416958D01*
X113347166Y-135431276D01*
X113343649Y-135445317D01*
X113338772Y-135458946D01*
X113332583Y-135472031D01*
X113325142Y-135484447D01*
X113316519Y-135496073D01*
X113306798Y-135506798D01*
X113296073Y-135516519D01*
X113284447Y-135525142D01*
X113272031Y-135532583D01*
X113258946Y-135538772D01*
X113245317Y-135543649D01*
X113231276Y-135547166D01*
X113216958Y-135549290D01*
X113202500Y-135550000D01*
X112907500Y-135550000D01*
X112893042Y-135549290D01*
X112878724Y-135547166D01*
X112864683Y-135543649D01*
X112851054Y-135538772D01*
X112837969Y-135532583D01*
X112825553Y-135525142D01*
X112813927Y-135516519D01*
X112803202Y-135506798D01*
X112793481Y-135496073D01*
X112784858Y-135484447D01*
X112777417Y-135472031D01*
X112771228Y-135458946D01*
X112766351Y-135445317D01*
X112762834Y-135431276D01*
X112760710Y-135416958D01*
X112760000Y-135402500D01*
X112760000Y-135057500D01*
X112760710Y-135043042D01*
X112762834Y-135028724D01*
X112766351Y-135014683D01*
X112771228Y-135001054D01*
X112777417Y-134987969D01*
X112784858Y-134975553D01*
X112793481Y-134963927D01*
X112803202Y-134953202D01*
X112813927Y-134943481D01*
X112825553Y-134934858D01*
X112837969Y-134927417D01*
X112851054Y-134921228D01*
X112864683Y-134916351D01*
X112878724Y-134912834D01*
X112893042Y-134910710D01*
X112907500Y-134910000D01*
X113202500Y-134910000D01*
X113216958Y-134910710D01*
X113216958Y-134910710D01*
G37*
D11*
X113055000Y-135230000D03*
G04 #@! TD*
D10*
G04 #@! TO.C,R6*
G36*
X112236958Y-133410710D02*
X112251276Y-133412834D01*
X112265317Y-133416351D01*
X112278946Y-133421228D01*
X112292031Y-133427417D01*
X112304447Y-133434858D01*
X112316073Y-133443481D01*
X112326798Y-133453202D01*
X112336519Y-133463927D01*
X112345142Y-133475553D01*
X112352583Y-133487969D01*
X112358772Y-133501054D01*
X112363649Y-133514683D01*
X112367166Y-133528724D01*
X112369290Y-133543042D01*
X112370000Y-133557500D01*
X112370000Y-133902500D01*
X112369290Y-133916958D01*
X112367166Y-133931276D01*
X112363649Y-133945317D01*
X112358772Y-133958946D01*
X112352583Y-133972031D01*
X112345142Y-133984447D01*
X112336519Y-133996073D01*
X112326798Y-134006798D01*
X112316073Y-134016519D01*
X112304447Y-134025142D01*
X112292031Y-134032583D01*
X112278946Y-134038772D01*
X112265317Y-134043649D01*
X112251276Y-134047166D01*
X112236958Y-134049290D01*
X112222500Y-134050000D01*
X111927500Y-134050000D01*
X111913042Y-134049290D01*
X111898724Y-134047166D01*
X111884683Y-134043649D01*
X111871054Y-134038772D01*
X111857969Y-134032583D01*
X111845553Y-134025142D01*
X111833927Y-134016519D01*
X111823202Y-134006798D01*
X111813481Y-133996073D01*
X111804858Y-133984447D01*
X111797417Y-133972031D01*
X111791228Y-133958946D01*
X111786351Y-133945317D01*
X111782834Y-133931276D01*
X111780710Y-133916958D01*
X111780000Y-133902500D01*
X111780000Y-133557500D01*
X111780710Y-133543042D01*
X111782834Y-133528724D01*
X111786351Y-133514683D01*
X111791228Y-133501054D01*
X111797417Y-133487969D01*
X111804858Y-133475553D01*
X111813481Y-133463927D01*
X111823202Y-133453202D01*
X111833927Y-133443481D01*
X111845553Y-133434858D01*
X111857969Y-133427417D01*
X111871054Y-133421228D01*
X111884683Y-133416351D01*
X111898724Y-133412834D01*
X111913042Y-133410710D01*
X111927500Y-133410000D01*
X112222500Y-133410000D01*
X112236958Y-133410710D01*
X112236958Y-133410710D01*
G37*
D11*
X112075000Y-133730000D03*
D10*
G36*
X113206958Y-133410710D02*
X113221276Y-133412834D01*
X113235317Y-133416351D01*
X113248946Y-133421228D01*
X113262031Y-133427417D01*
X113274447Y-133434858D01*
X113286073Y-133443481D01*
X113296798Y-133453202D01*
X113306519Y-133463927D01*
X113315142Y-133475553D01*
X113322583Y-133487969D01*
X113328772Y-133501054D01*
X113333649Y-133514683D01*
X113337166Y-133528724D01*
X113339290Y-133543042D01*
X113340000Y-133557500D01*
X113340000Y-133902500D01*
X113339290Y-133916958D01*
X113337166Y-133931276D01*
X113333649Y-133945317D01*
X113328772Y-133958946D01*
X113322583Y-133972031D01*
X113315142Y-133984447D01*
X113306519Y-133996073D01*
X113296798Y-134006798D01*
X113286073Y-134016519D01*
X113274447Y-134025142D01*
X113262031Y-134032583D01*
X113248946Y-134038772D01*
X113235317Y-134043649D01*
X113221276Y-134047166D01*
X113206958Y-134049290D01*
X113192500Y-134050000D01*
X112897500Y-134050000D01*
X112883042Y-134049290D01*
X112868724Y-134047166D01*
X112854683Y-134043649D01*
X112841054Y-134038772D01*
X112827969Y-134032583D01*
X112815553Y-134025142D01*
X112803927Y-134016519D01*
X112793202Y-134006798D01*
X112783481Y-133996073D01*
X112774858Y-133984447D01*
X112767417Y-133972031D01*
X112761228Y-133958946D01*
X112756351Y-133945317D01*
X112752834Y-133931276D01*
X112750710Y-133916958D01*
X112750000Y-133902500D01*
X112750000Y-133557500D01*
X112750710Y-133543042D01*
X112752834Y-133528724D01*
X112756351Y-133514683D01*
X112761228Y-133501054D01*
X112767417Y-133487969D01*
X112774858Y-133475553D01*
X112783481Y-133463927D01*
X112793202Y-133453202D01*
X112803927Y-133443481D01*
X112815553Y-133434858D01*
X112827969Y-133427417D01*
X112841054Y-133421228D01*
X112854683Y-133416351D01*
X112868724Y-133412834D01*
X112883042Y-133410710D01*
X112897500Y-133410000D01*
X113192500Y-133410000D01*
X113206958Y-133410710D01*
X113206958Y-133410710D01*
G37*
D11*
X113045000Y-133730000D03*
G04 #@! TD*
D17*
G04 #@! TO.C,SW1*
X109035000Y-128240000D03*
X109035000Y-132740000D03*
X106885000Y-132740000D03*
X106885000Y-128240000D03*
G04 #@! TD*
M02*
