G04 #@! TF.GenerationSoftware,KiCad,Pcbnew,5.0.2-bee76a0~70~ubuntu18.04.1*
G04 #@! TF.CreationDate,2020-01-02T20:25:09+01:00*
G04 #@! TF.ProjectId,roboy_sno,726f626f-795f-4736-9e6f-2e6b69636164,rev?*
G04 #@! TF.SameCoordinates,Original*
G04 #@! TF.FileFunction,Soldermask,Bot*
G04 #@! TF.FilePolarity,Negative*
%FSLAX46Y46*%
G04 Gerber Fmt 4.6, Leading zero omitted, Abs format (unit mm)*
G04 Created by KiCad (PCBNEW 5.0.2-bee76a0~70~ubuntu18.04.1) date Do 02 Jan 2020 20:25:09 CET*
%MOMM*%
%LPD*%
G01*
G04 APERTURE LIST*
%ADD10C,0.010000*%
%ADD11C,0.100000*%
G04 APERTURE END LIST*
D10*
G04 #@! TO.C,H5*
G36*
X131273490Y-125139041D02*
X131260413Y-125142432D01*
X131249109Y-125149561D01*
X131246765Y-125151484D01*
X131227465Y-125173321D01*
X131217538Y-125197798D01*
X131217231Y-125223707D01*
X131226716Y-125249704D01*
X131241145Y-125268798D01*
X131259620Y-125280264D01*
X131284133Y-125285149D01*
X131294929Y-125285499D01*
X131312328Y-125284886D01*
X131324002Y-125281873D01*
X131334363Y-125274697D01*
X131343254Y-125266198D01*
X131359879Y-125243308D01*
X131367221Y-125218373D01*
X131365325Y-125193145D01*
X131354238Y-125169375D01*
X131340298Y-125153890D01*
X131328444Y-125144693D01*
X131317127Y-125139972D01*
X131302027Y-125138308D01*
X131292490Y-125138179D01*
X131273490Y-125139041D01*
X131273490Y-125139041D01*
G37*
X131273490Y-125139041D02*
X131260413Y-125142432D01*
X131249109Y-125149561D01*
X131246765Y-125151484D01*
X131227465Y-125173321D01*
X131217538Y-125197798D01*
X131217231Y-125223707D01*
X131226716Y-125249704D01*
X131241145Y-125268798D01*
X131259620Y-125280264D01*
X131284133Y-125285149D01*
X131294929Y-125285499D01*
X131312328Y-125284886D01*
X131324002Y-125281873D01*
X131334363Y-125274697D01*
X131343254Y-125266198D01*
X131359879Y-125243308D01*
X131367221Y-125218373D01*
X131365325Y-125193145D01*
X131354238Y-125169375D01*
X131340298Y-125153890D01*
X131328444Y-125144693D01*
X131317127Y-125139972D01*
X131302027Y-125138308D01*
X131292490Y-125138179D01*
X131273490Y-125139041D01*
G36*
X132712691Y-125417865D02*
X132697603Y-125429272D01*
X132695368Y-125431549D01*
X132679160Y-125452015D01*
X132665854Y-125475127D01*
X132655762Y-125499287D01*
X132649196Y-125522899D01*
X132646466Y-125544365D01*
X132647883Y-125562089D01*
X132653760Y-125574474D01*
X132664407Y-125579922D01*
X132666417Y-125580042D01*
X132673838Y-125577629D01*
X132685339Y-125571641D01*
X132687060Y-125570610D01*
X132704058Y-125555847D01*
X132719790Y-125534340D01*
X132733240Y-125508622D01*
X132743393Y-125481228D01*
X132749236Y-125454693D01*
X132749752Y-125431552D01*
X132747154Y-125420534D01*
X132739735Y-125413013D01*
X132727491Y-125412284D01*
X132712691Y-125417865D01*
X132712691Y-125417865D01*
G37*
X132712691Y-125417865D02*
X132697603Y-125429272D01*
X132695368Y-125431549D01*
X132679160Y-125452015D01*
X132665854Y-125475127D01*
X132655762Y-125499287D01*
X132649196Y-125522899D01*
X132646466Y-125544365D01*
X132647883Y-125562089D01*
X132653760Y-125574474D01*
X132664407Y-125579922D01*
X132666417Y-125580042D01*
X132673838Y-125577629D01*
X132685339Y-125571641D01*
X132687060Y-125570610D01*
X132704058Y-125555847D01*
X132719790Y-125534340D01*
X132733240Y-125508622D01*
X132743393Y-125481228D01*
X132749236Y-125454693D01*
X132749752Y-125431552D01*
X132747154Y-125420534D01*
X132739735Y-125413013D01*
X132727491Y-125412284D01*
X132712691Y-125417865D01*
G36*
X132125746Y-121735597D02*
X132076854Y-121736973D01*
X132035366Y-121739166D01*
X132032909Y-121739343D01*
X131866427Y-121756556D01*
X131702301Y-121783558D01*
X131540894Y-121820175D01*
X131382568Y-121866236D01*
X131227687Y-121921567D01*
X131076612Y-121985995D01*
X130929706Y-122059349D01*
X130787333Y-122141454D01*
X130649853Y-122232138D01*
X130517631Y-122331229D01*
X130391029Y-122438553D01*
X130270409Y-122553938D01*
X130225669Y-122600445D01*
X130114769Y-122725741D01*
X130012305Y-122856619D01*
X129918391Y-122992833D01*
X129833143Y-123134136D01*
X129756672Y-123280283D01*
X129689093Y-123431030D01*
X129630520Y-123586129D01*
X129581067Y-123745335D01*
X129540847Y-123908404D01*
X129509973Y-124075088D01*
X129496130Y-124175519D01*
X129493469Y-124203553D01*
X129491101Y-124240097D01*
X129489050Y-124283504D01*
X129487339Y-124332127D01*
X129485989Y-124384318D01*
X129485026Y-124438432D01*
X129484470Y-124492820D01*
X129484347Y-124545837D01*
X129484678Y-124595836D01*
X129485486Y-124641168D01*
X129486795Y-124680189D01*
X129488628Y-124711250D01*
X129488636Y-124711348D01*
X129506732Y-124875677D01*
X129534634Y-125037886D01*
X129572133Y-125197575D01*
X129619020Y-125354344D01*
X129675089Y-125507792D01*
X129740131Y-125657519D01*
X129813937Y-125803125D01*
X129896299Y-125944210D01*
X129987010Y-126080372D01*
X130085862Y-126211212D01*
X130192645Y-126336330D01*
X130307152Y-126455324D01*
X130429175Y-126567795D01*
X130473330Y-126605304D01*
X130604818Y-126708103D01*
X130741601Y-126802309D01*
X130883337Y-126887783D01*
X131029682Y-126964383D01*
X131180294Y-127031969D01*
X131334829Y-127090401D01*
X131492944Y-127139538D01*
X131654296Y-127179239D01*
X131818542Y-127209364D01*
X131985339Y-127229773D01*
X132000937Y-127231169D01*
X132032552Y-127233360D01*
X132071884Y-127235222D01*
X132116820Y-127236730D01*
X132165248Y-127237855D01*
X132215055Y-127238573D01*
X132264128Y-127238856D01*
X132310355Y-127238679D01*
X132351623Y-127238015D01*
X132385819Y-127236838D01*
X132398463Y-127236126D01*
X132568095Y-127219981D01*
X132734779Y-127194247D01*
X132898249Y-127159038D01*
X133058241Y-127114468D01*
X133214490Y-127060651D01*
X133366730Y-126997702D01*
X133514696Y-126925735D01*
X133658124Y-126844864D01*
X133796749Y-126755204D01*
X133930305Y-126656868D01*
X134058527Y-126549970D01*
X134119888Y-126493975D01*
X134238278Y-126375806D01*
X134348678Y-126251510D01*
X134450916Y-126121449D01*
X134544819Y-125985987D01*
X134630214Y-125845485D01*
X134706928Y-125700308D01*
X134774787Y-125550819D01*
X134833620Y-125397380D01*
X134883253Y-125240355D01*
X134923513Y-125080107D01*
X134954227Y-124916999D01*
X134975222Y-124751393D01*
X134980673Y-124687107D01*
X134982922Y-124646182D01*
X134984351Y-124597723D01*
X134984999Y-124543680D01*
X134984903Y-124486004D01*
X134984312Y-124442219D01*
X133301291Y-124442219D01*
X133301070Y-124502806D01*
X133300357Y-124555194D01*
X133299003Y-124601337D01*
X133296861Y-124643188D01*
X133293781Y-124682702D01*
X133289616Y-124721834D01*
X133284218Y-124762537D01*
X133277438Y-124806766D01*
X133270474Y-124848619D01*
X133245836Y-124973706D01*
X133213985Y-125103723D01*
X133175513Y-125237094D01*
X133131011Y-125372245D01*
X133081072Y-125507599D01*
X133026288Y-125641583D01*
X132967250Y-125772622D01*
X132904552Y-125899140D01*
X132838784Y-126019562D01*
X132815019Y-126060199D01*
X132789307Y-126102089D01*
X132764765Y-126139009D01*
X132739699Y-126173102D01*
X132712418Y-126206516D01*
X132681230Y-126241394D01*
X132644443Y-126279883D01*
X132630920Y-126293607D01*
X132562618Y-126360002D01*
X132497125Y-126418278D01*
X132432977Y-126469533D01*
X132368712Y-126514866D01*
X132302865Y-126555375D01*
X132233974Y-126592159D01*
X132231532Y-126593371D01*
X132164292Y-126624570D01*
X132096634Y-126651530D01*
X132027339Y-126674513D01*
X131955185Y-126693780D01*
X131878949Y-126709592D01*
X131797411Y-126722210D01*
X131709350Y-126731894D01*
X131613543Y-126738907D01*
X131532856Y-126742682D01*
X131518689Y-126742004D01*
X131497983Y-126739544D01*
X131474115Y-126735744D01*
X131460811Y-126733234D01*
X131355031Y-126706908D01*
X131250930Y-126670663D01*
X131148417Y-126624459D01*
X131047398Y-126568255D01*
X130968442Y-126516654D01*
X130932209Y-126490382D01*
X130891301Y-126458987D01*
X130847152Y-126423703D01*
X130801193Y-126385765D01*
X130754858Y-126346406D01*
X130709580Y-126306860D01*
X130666792Y-126268362D01*
X130627927Y-126232146D01*
X130594417Y-126199445D01*
X130567800Y-126171608D01*
X130518079Y-126114510D01*
X130469131Y-126053772D01*
X130421815Y-125990711D01*
X130376989Y-125926641D01*
X130335511Y-125862878D01*
X130298241Y-125800739D01*
X130266037Y-125741539D01*
X130239758Y-125686593D01*
X130221610Y-125641099D01*
X130209991Y-125604622D01*
X130203488Y-125574859D01*
X130201866Y-125549885D01*
X130204891Y-125527777D01*
X130206928Y-125520594D01*
X130215258Y-125487122D01*
X130221983Y-125443789D01*
X130227112Y-125390521D01*
X130228600Y-125368419D01*
X130230243Y-125345224D01*
X130232066Y-125325766D01*
X130233830Y-125312293D01*
X130235109Y-125307218D01*
X130241172Y-125303030D01*
X130253696Y-125296755D01*
X130265944Y-125291433D01*
X130301966Y-125273744D01*
X130332107Y-125252050D01*
X130357102Y-125225272D01*
X130377685Y-125192335D01*
X130394590Y-125152160D01*
X130408551Y-125103672D01*
X130415426Y-125072139D01*
X130424048Y-125017923D01*
X130430285Y-124955238D01*
X130434154Y-124885486D01*
X130435669Y-124810070D01*
X130434847Y-124730392D01*
X130431703Y-124647856D01*
X130426253Y-124563863D01*
X130418513Y-124479817D01*
X130408499Y-124397120D01*
X130407766Y-124391796D01*
X130399474Y-124340560D01*
X130388306Y-124286462D01*
X130373858Y-124227820D01*
X130355721Y-124162951D01*
X130339650Y-124109833D01*
X130329156Y-124074535D01*
X130322408Y-124048162D01*
X130319301Y-124030237D01*
X130319527Y-124020933D01*
X130320165Y-124013756D01*
X130320884Y-123997278D01*
X130321667Y-123972361D01*
X130322495Y-123939865D01*
X130323350Y-123900647D01*
X130324214Y-123855570D01*
X130325070Y-123805492D01*
X130325899Y-123751274D01*
X130326683Y-123693775D01*
X130327133Y-123657359D01*
X130328058Y-123582805D01*
X130328979Y-123517375D01*
X130329948Y-123460033D01*
X130331014Y-123409741D01*
X130332229Y-123365464D01*
X130333643Y-123326167D01*
X130335306Y-123290811D01*
X130337271Y-123258361D01*
X130339587Y-123227782D01*
X130342304Y-123198036D01*
X130345475Y-123168087D01*
X130349148Y-123136900D01*
X130353376Y-123103437D01*
X130354742Y-123092934D01*
X130363707Y-123030472D01*
X130374520Y-122965121D01*
X130386494Y-122900711D01*
X130398941Y-122841070D01*
X130403956Y-122819159D01*
X130409963Y-122793679D01*
X130415298Y-122771017D01*
X130419438Y-122753404D01*
X130421857Y-122743074D01*
X130422058Y-122742212D01*
X130427643Y-122732535D01*
X130440387Y-122718079D01*
X130459098Y-122699851D01*
X130482584Y-122678859D01*
X130509652Y-122656109D01*
X130539110Y-122632610D01*
X130569766Y-122609369D01*
X130600428Y-122587393D01*
X130624257Y-122571337D01*
X130717494Y-122516500D01*
X130816791Y-122469604D01*
X130922272Y-122430604D01*
X131034058Y-122399454D01*
X131152272Y-122376112D01*
X131162737Y-122374468D01*
X131207360Y-122368933D01*
X131259611Y-122364672D01*
X131317034Y-122361728D01*
X131377173Y-122360147D01*
X131437570Y-122359975D01*
X131495768Y-122361255D01*
X131549311Y-122364033D01*
X131581837Y-122366803D01*
X131718852Y-122384815D01*
X131850268Y-122410187D01*
X131975783Y-122442802D01*
X132095092Y-122482546D01*
X132207895Y-122529301D01*
X132313887Y-122582953D01*
X132412766Y-122643386D01*
X132504229Y-122710483D01*
X132524850Y-122727404D01*
X132558039Y-122756423D01*
X132590431Y-122787367D01*
X132623522Y-122821809D01*
X132658808Y-122861317D01*
X132697785Y-122907463D01*
X132706640Y-122918219D01*
X132810251Y-123050671D01*
X132903778Y-123183126D01*
X132987299Y-123315736D01*
X133060889Y-123448655D01*
X133124624Y-123582037D01*
X133178580Y-123716037D01*
X133222833Y-123850806D01*
X133257460Y-123986500D01*
X133272818Y-124063759D01*
X133280295Y-124106903D01*
X133286370Y-124145500D01*
X133291182Y-124181391D01*
X133294870Y-124216416D01*
X133297572Y-124252416D01*
X133299427Y-124291230D01*
X133300572Y-124334701D01*
X133301148Y-124384668D01*
X133301291Y-124442219D01*
X134984312Y-124442219D01*
X134984101Y-124426643D01*
X134982631Y-124367550D01*
X134980533Y-124310674D01*
X134977843Y-124257966D01*
X134974601Y-124211376D01*
X134970843Y-124172854D01*
X134970575Y-124170619D01*
X134945101Y-124001087D01*
X134910429Y-123835865D01*
X134866528Y-123674877D01*
X134813365Y-123518051D01*
X134750908Y-123365313D01*
X134679127Y-123216589D01*
X134597988Y-123071805D01*
X134507460Y-122930887D01*
X134407511Y-122793761D01*
X134340000Y-122709657D01*
X134314903Y-122680673D01*
X134283697Y-122646503D01*
X134247903Y-122608667D01*
X134209041Y-122568686D01*
X134168634Y-122528082D01*
X134128202Y-122488377D01*
X134089267Y-122451090D01*
X134053349Y-122417744D01*
X134021971Y-122389859D01*
X134010359Y-122380016D01*
X133894031Y-122287702D01*
X133777022Y-122204014D01*
X133657171Y-122127525D01*
X133532321Y-122056809D01*
X133479217Y-122029169D01*
X133333956Y-121960456D01*
X133186704Y-121901015D01*
X133036612Y-121850589D01*
X132882833Y-121808923D01*
X132724517Y-121775762D01*
X132560815Y-121750850D01*
X132549397Y-121749441D01*
X132511483Y-121745650D01*
X132465370Y-121742372D01*
X132413009Y-121739644D01*
X132356351Y-121737505D01*
X132297345Y-121735993D01*
X132237942Y-121735145D01*
X132180092Y-121735001D01*
X132125746Y-121735597D01*
X132125746Y-121735597D01*
G37*
X132125746Y-121735597D02*
X132076854Y-121736973D01*
X132035366Y-121739166D01*
X132032909Y-121739343D01*
X131866427Y-121756556D01*
X131702301Y-121783558D01*
X131540894Y-121820175D01*
X131382568Y-121866236D01*
X131227687Y-121921567D01*
X131076612Y-121985995D01*
X130929706Y-122059349D01*
X130787333Y-122141454D01*
X130649853Y-122232138D01*
X130517631Y-122331229D01*
X130391029Y-122438553D01*
X130270409Y-122553938D01*
X130225669Y-122600445D01*
X130114769Y-122725741D01*
X130012305Y-122856619D01*
X129918391Y-122992833D01*
X129833143Y-123134136D01*
X129756672Y-123280283D01*
X129689093Y-123431030D01*
X129630520Y-123586129D01*
X129581067Y-123745335D01*
X129540847Y-123908404D01*
X129509973Y-124075088D01*
X129496130Y-124175519D01*
X129493469Y-124203553D01*
X129491101Y-124240097D01*
X129489050Y-124283504D01*
X129487339Y-124332127D01*
X129485989Y-124384318D01*
X129485026Y-124438432D01*
X129484470Y-124492820D01*
X129484347Y-124545837D01*
X129484678Y-124595836D01*
X129485486Y-124641168D01*
X129486795Y-124680189D01*
X129488628Y-124711250D01*
X129488636Y-124711348D01*
X129506732Y-124875677D01*
X129534634Y-125037886D01*
X129572133Y-125197575D01*
X129619020Y-125354344D01*
X129675089Y-125507792D01*
X129740131Y-125657519D01*
X129813937Y-125803125D01*
X129896299Y-125944210D01*
X129987010Y-126080372D01*
X130085862Y-126211212D01*
X130192645Y-126336330D01*
X130307152Y-126455324D01*
X130429175Y-126567795D01*
X130473330Y-126605304D01*
X130604818Y-126708103D01*
X130741601Y-126802309D01*
X130883337Y-126887783D01*
X131029682Y-126964383D01*
X131180294Y-127031969D01*
X131334829Y-127090401D01*
X131492944Y-127139538D01*
X131654296Y-127179239D01*
X131818542Y-127209364D01*
X131985339Y-127229773D01*
X132000937Y-127231169D01*
X132032552Y-127233360D01*
X132071884Y-127235222D01*
X132116820Y-127236730D01*
X132165248Y-127237855D01*
X132215055Y-127238573D01*
X132264128Y-127238856D01*
X132310355Y-127238679D01*
X132351623Y-127238015D01*
X132385819Y-127236838D01*
X132398463Y-127236126D01*
X132568095Y-127219981D01*
X132734779Y-127194247D01*
X132898249Y-127159038D01*
X133058241Y-127114468D01*
X133214490Y-127060651D01*
X133366730Y-126997702D01*
X133514696Y-126925735D01*
X133658124Y-126844864D01*
X133796749Y-126755204D01*
X133930305Y-126656868D01*
X134058527Y-126549970D01*
X134119888Y-126493975D01*
X134238278Y-126375806D01*
X134348678Y-126251510D01*
X134450916Y-126121449D01*
X134544819Y-125985987D01*
X134630214Y-125845485D01*
X134706928Y-125700308D01*
X134774787Y-125550819D01*
X134833620Y-125397380D01*
X134883253Y-125240355D01*
X134923513Y-125080107D01*
X134954227Y-124916999D01*
X134975222Y-124751393D01*
X134980673Y-124687107D01*
X134982922Y-124646182D01*
X134984351Y-124597723D01*
X134984999Y-124543680D01*
X134984903Y-124486004D01*
X134984312Y-124442219D01*
X133301291Y-124442219D01*
X133301070Y-124502806D01*
X133300357Y-124555194D01*
X133299003Y-124601337D01*
X133296861Y-124643188D01*
X133293781Y-124682702D01*
X133289616Y-124721834D01*
X133284218Y-124762537D01*
X133277438Y-124806766D01*
X133270474Y-124848619D01*
X133245836Y-124973706D01*
X133213985Y-125103723D01*
X133175513Y-125237094D01*
X133131011Y-125372245D01*
X133081072Y-125507599D01*
X133026288Y-125641583D01*
X132967250Y-125772622D01*
X132904552Y-125899140D01*
X132838784Y-126019562D01*
X132815019Y-126060199D01*
X132789307Y-126102089D01*
X132764765Y-126139009D01*
X132739699Y-126173102D01*
X132712418Y-126206516D01*
X132681230Y-126241394D01*
X132644443Y-126279883D01*
X132630920Y-126293607D01*
X132562618Y-126360002D01*
X132497125Y-126418278D01*
X132432977Y-126469533D01*
X132368712Y-126514866D01*
X132302865Y-126555375D01*
X132233974Y-126592159D01*
X132231532Y-126593371D01*
X132164292Y-126624570D01*
X132096634Y-126651530D01*
X132027339Y-126674513D01*
X131955185Y-126693780D01*
X131878949Y-126709592D01*
X131797411Y-126722210D01*
X131709350Y-126731894D01*
X131613543Y-126738907D01*
X131532856Y-126742682D01*
X131518689Y-126742004D01*
X131497983Y-126739544D01*
X131474115Y-126735744D01*
X131460811Y-126733234D01*
X131355031Y-126706908D01*
X131250930Y-126670663D01*
X131148417Y-126624459D01*
X131047398Y-126568255D01*
X130968442Y-126516654D01*
X130932209Y-126490382D01*
X130891301Y-126458987D01*
X130847152Y-126423703D01*
X130801193Y-126385765D01*
X130754858Y-126346406D01*
X130709580Y-126306860D01*
X130666792Y-126268362D01*
X130627927Y-126232146D01*
X130594417Y-126199445D01*
X130567800Y-126171608D01*
X130518079Y-126114510D01*
X130469131Y-126053772D01*
X130421815Y-125990711D01*
X130376989Y-125926641D01*
X130335511Y-125862878D01*
X130298241Y-125800739D01*
X130266037Y-125741539D01*
X130239758Y-125686593D01*
X130221610Y-125641099D01*
X130209991Y-125604622D01*
X130203488Y-125574859D01*
X130201866Y-125549885D01*
X130204891Y-125527777D01*
X130206928Y-125520594D01*
X130215258Y-125487122D01*
X130221983Y-125443789D01*
X130227112Y-125390521D01*
X130228600Y-125368419D01*
X130230243Y-125345224D01*
X130232066Y-125325766D01*
X130233830Y-125312293D01*
X130235109Y-125307218D01*
X130241172Y-125303030D01*
X130253696Y-125296755D01*
X130265944Y-125291433D01*
X130301966Y-125273744D01*
X130332107Y-125252050D01*
X130357102Y-125225272D01*
X130377685Y-125192335D01*
X130394590Y-125152160D01*
X130408551Y-125103672D01*
X130415426Y-125072139D01*
X130424048Y-125017923D01*
X130430285Y-124955238D01*
X130434154Y-124885486D01*
X130435669Y-124810070D01*
X130434847Y-124730392D01*
X130431703Y-124647856D01*
X130426253Y-124563863D01*
X130418513Y-124479817D01*
X130408499Y-124397120D01*
X130407766Y-124391796D01*
X130399474Y-124340560D01*
X130388306Y-124286462D01*
X130373858Y-124227820D01*
X130355721Y-124162951D01*
X130339650Y-124109833D01*
X130329156Y-124074535D01*
X130322408Y-124048162D01*
X130319301Y-124030237D01*
X130319527Y-124020933D01*
X130320165Y-124013756D01*
X130320884Y-123997278D01*
X130321667Y-123972361D01*
X130322495Y-123939865D01*
X130323350Y-123900647D01*
X130324214Y-123855570D01*
X130325070Y-123805492D01*
X130325899Y-123751274D01*
X130326683Y-123693775D01*
X130327133Y-123657359D01*
X130328058Y-123582805D01*
X130328979Y-123517375D01*
X130329948Y-123460033D01*
X130331014Y-123409741D01*
X130332229Y-123365464D01*
X130333643Y-123326167D01*
X130335306Y-123290811D01*
X130337271Y-123258361D01*
X130339587Y-123227782D01*
X130342304Y-123198036D01*
X130345475Y-123168087D01*
X130349148Y-123136900D01*
X130353376Y-123103437D01*
X130354742Y-123092934D01*
X130363707Y-123030472D01*
X130374520Y-122965121D01*
X130386494Y-122900711D01*
X130398941Y-122841070D01*
X130403956Y-122819159D01*
X130409963Y-122793679D01*
X130415298Y-122771017D01*
X130419438Y-122753404D01*
X130421857Y-122743074D01*
X130422058Y-122742212D01*
X130427643Y-122732535D01*
X130440387Y-122718079D01*
X130459098Y-122699851D01*
X130482584Y-122678859D01*
X130509652Y-122656109D01*
X130539110Y-122632610D01*
X130569766Y-122609369D01*
X130600428Y-122587393D01*
X130624257Y-122571337D01*
X130717494Y-122516500D01*
X130816791Y-122469604D01*
X130922272Y-122430604D01*
X131034058Y-122399454D01*
X131152272Y-122376112D01*
X131162737Y-122374468D01*
X131207360Y-122368933D01*
X131259611Y-122364672D01*
X131317034Y-122361728D01*
X131377173Y-122360147D01*
X131437570Y-122359975D01*
X131495768Y-122361255D01*
X131549311Y-122364033D01*
X131581837Y-122366803D01*
X131718852Y-122384815D01*
X131850268Y-122410187D01*
X131975783Y-122442802D01*
X132095092Y-122482546D01*
X132207895Y-122529301D01*
X132313887Y-122582953D01*
X132412766Y-122643386D01*
X132504229Y-122710483D01*
X132524850Y-122727404D01*
X132558039Y-122756423D01*
X132590431Y-122787367D01*
X132623522Y-122821809D01*
X132658808Y-122861317D01*
X132697785Y-122907463D01*
X132706640Y-122918219D01*
X132810251Y-123050671D01*
X132903778Y-123183126D01*
X132987299Y-123315736D01*
X133060889Y-123448655D01*
X133124624Y-123582037D01*
X133178580Y-123716037D01*
X133222833Y-123850806D01*
X133257460Y-123986500D01*
X133272818Y-124063759D01*
X133280295Y-124106903D01*
X133286370Y-124145500D01*
X133291182Y-124181391D01*
X133294870Y-124216416D01*
X133297572Y-124252416D01*
X133299427Y-124291230D01*
X133300572Y-124334701D01*
X133301148Y-124384668D01*
X133301291Y-124442219D01*
X134984312Y-124442219D01*
X134984101Y-124426643D01*
X134982631Y-124367550D01*
X134980533Y-124310674D01*
X134977843Y-124257966D01*
X134974601Y-124211376D01*
X134970843Y-124172854D01*
X134970575Y-124170619D01*
X134945101Y-124001087D01*
X134910429Y-123835865D01*
X134866528Y-123674877D01*
X134813365Y-123518051D01*
X134750908Y-123365313D01*
X134679127Y-123216589D01*
X134597988Y-123071805D01*
X134507460Y-122930887D01*
X134407511Y-122793761D01*
X134340000Y-122709657D01*
X134314903Y-122680673D01*
X134283697Y-122646503D01*
X134247903Y-122608667D01*
X134209041Y-122568686D01*
X134168634Y-122528082D01*
X134128202Y-122488377D01*
X134089267Y-122451090D01*
X134053349Y-122417744D01*
X134021971Y-122389859D01*
X134010359Y-122380016D01*
X133894031Y-122287702D01*
X133777022Y-122204014D01*
X133657171Y-122127525D01*
X133532321Y-122056809D01*
X133479217Y-122029169D01*
X133333956Y-121960456D01*
X133186704Y-121901015D01*
X133036612Y-121850589D01*
X132882833Y-121808923D01*
X132724517Y-121775762D01*
X132560815Y-121750850D01*
X132549397Y-121749441D01*
X132511483Y-121745650D01*
X132465370Y-121742372D01*
X132413009Y-121739644D01*
X132356351Y-121737505D01*
X132297345Y-121735993D01*
X132237942Y-121735145D01*
X132180092Y-121735001D01*
X132125746Y-121735597D01*
D11*
G36*
X138851904Y-136122979D02*
X139200054Y-136192230D01*
X139636826Y-136373147D01*
X140029911Y-136635798D01*
X140364202Y-136970089D01*
X140626853Y-137363174D01*
X140807770Y-137799946D01*
X140900000Y-138263621D01*
X140900000Y-138736379D01*
X140807770Y-139200054D01*
X140626853Y-139636826D01*
X140364202Y-140029911D01*
X140029911Y-140364202D01*
X139636826Y-140626853D01*
X139200054Y-140807770D01*
X138851904Y-140877021D01*
X138736381Y-140900000D01*
X138263619Y-140900000D01*
X138148096Y-140877021D01*
X137799946Y-140807770D01*
X137363174Y-140626853D01*
X136970089Y-140364202D01*
X136635798Y-140029911D01*
X136373147Y-139636826D01*
X136192230Y-139200054D01*
X136100000Y-138736379D01*
X136100000Y-138263621D01*
X136192230Y-137799946D01*
X136373147Y-137363174D01*
X136635798Y-136970089D01*
X136970089Y-136635798D01*
X137363174Y-136373147D01*
X137799946Y-136192230D01*
X138148096Y-136122979D01*
X138263619Y-136100000D01*
X138736381Y-136100000D01*
X138851904Y-136122979D01*
X138851904Y-136122979D01*
G37*
G36*
X108851904Y-136122979D02*
X109200054Y-136192230D01*
X109636826Y-136373147D01*
X110029911Y-136635798D01*
X110364202Y-136970089D01*
X110626853Y-137363174D01*
X110807770Y-137799946D01*
X110900000Y-138263621D01*
X110900000Y-138736379D01*
X110807770Y-139200054D01*
X110626853Y-139636826D01*
X110364202Y-140029911D01*
X110029911Y-140364202D01*
X109636826Y-140626853D01*
X109200054Y-140807770D01*
X108851904Y-140877021D01*
X108736381Y-140900000D01*
X108263619Y-140900000D01*
X108148096Y-140877021D01*
X107799946Y-140807770D01*
X107363174Y-140626853D01*
X106970089Y-140364202D01*
X106635798Y-140029911D01*
X106373147Y-139636826D01*
X106192230Y-139200054D01*
X106100000Y-138736379D01*
X106100000Y-138263621D01*
X106192230Y-137799946D01*
X106373147Y-137363174D01*
X106635798Y-136970089D01*
X106970089Y-136635798D01*
X107363174Y-136373147D01*
X107799946Y-136192230D01*
X108148096Y-136122979D01*
X108263619Y-136100000D01*
X108736381Y-136100000D01*
X108851904Y-136122979D01*
X108851904Y-136122979D01*
G37*
G36*
X139340857Y-131597272D02*
X139541042Y-131680191D01*
X139721213Y-131800578D01*
X139874422Y-131953787D01*
X139994809Y-132133958D01*
X140077728Y-132334143D01*
X140120000Y-132546658D01*
X140120000Y-132763342D01*
X140077728Y-132975857D01*
X139994809Y-133176042D01*
X139874422Y-133356213D01*
X139721213Y-133509422D01*
X139541042Y-133629809D01*
X139340857Y-133712728D01*
X139128342Y-133755000D01*
X138911658Y-133755000D01*
X138699143Y-133712728D01*
X138498958Y-133629809D01*
X138318787Y-133509422D01*
X138165578Y-133356213D01*
X138045191Y-133176042D01*
X137962272Y-132975857D01*
X137920000Y-132763342D01*
X137920000Y-132546658D01*
X137962272Y-132334143D01*
X138045191Y-132133958D01*
X138165578Y-131953787D01*
X138318787Y-131800578D01*
X138498958Y-131680191D01*
X138699143Y-131597272D01*
X138911658Y-131555000D01*
X139128342Y-131555000D01*
X139340857Y-131597272D01*
X139340857Y-131597272D01*
G37*
G36*
X108580000Y-133750000D02*
X107480000Y-133750000D01*
X107480000Y-131350000D01*
X108580000Y-131350000D01*
X108580000Y-133750000D01*
X108580000Y-133750000D01*
G37*
G36*
X107180000Y-133750000D02*
X106080000Y-133750000D01*
X106080000Y-131350000D01*
X107180000Y-131350000D01*
X107180000Y-133750000D01*
X107180000Y-133750000D01*
G37*
G36*
X109980000Y-133750000D02*
X108880000Y-133750000D01*
X108880000Y-131350000D01*
X109980000Y-131350000D01*
X109980000Y-133750000D01*
X109980000Y-133750000D01*
G37*
G36*
X136800857Y-130327272D02*
X137001042Y-130410191D01*
X137181213Y-130530578D01*
X137334422Y-130683787D01*
X137454809Y-130863958D01*
X137537728Y-131064143D01*
X137580000Y-131276658D01*
X137580000Y-131493342D01*
X137537728Y-131705857D01*
X137454809Y-131906042D01*
X137334422Y-132086213D01*
X137181213Y-132239422D01*
X137001042Y-132359809D01*
X136800857Y-132442728D01*
X136588342Y-132485000D01*
X136371658Y-132485000D01*
X136159143Y-132442728D01*
X135958958Y-132359809D01*
X135778787Y-132239422D01*
X135625578Y-132086213D01*
X135505191Y-131906042D01*
X135422272Y-131705857D01*
X135380000Y-131493342D01*
X135380000Y-131276658D01*
X135422272Y-131064143D01*
X135505191Y-130863958D01*
X135625578Y-130683787D01*
X135778787Y-130530578D01*
X135958958Y-130410191D01*
X136159143Y-130327272D01*
X136371658Y-130285000D01*
X136588342Y-130285000D01*
X136800857Y-130327272D01*
X136800857Y-130327272D01*
G37*
G36*
X139340857Y-129057272D02*
X139541042Y-129140191D01*
X139721213Y-129260578D01*
X139874422Y-129413787D01*
X139994809Y-129593958D01*
X140077728Y-129794143D01*
X140120000Y-130006658D01*
X140120000Y-130223342D01*
X140077728Y-130435857D01*
X139994809Y-130636042D01*
X139874422Y-130816213D01*
X139721213Y-130969422D01*
X139541042Y-131089809D01*
X139340857Y-131172728D01*
X139128342Y-131215000D01*
X138911658Y-131215000D01*
X138699143Y-131172728D01*
X138498958Y-131089809D01*
X138318787Y-130969422D01*
X138165578Y-130816213D01*
X138045191Y-130636042D01*
X137962272Y-130435857D01*
X137920000Y-130223342D01*
X137920000Y-130006658D01*
X137962272Y-129794143D01*
X138045191Y-129593958D01*
X138165578Y-129413787D01*
X138318787Y-129260578D01*
X138498958Y-129140191D01*
X138699143Y-129057272D01*
X138911658Y-129015000D01*
X139128342Y-129015000D01*
X139340857Y-129057272D01*
X139340857Y-129057272D01*
G37*
G36*
X138557117Y-126531459D02*
X138730018Y-126603077D01*
X138885625Y-126707050D01*
X139017950Y-126839375D01*
X139121923Y-126994982D01*
X139193541Y-127167883D01*
X139230050Y-127351427D01*
X139230050Y-127538573D01*
X139193541Y-127722117D01*
X139121923Y-127895018D01*
X139017950Y-128050625D01*
X138885625Y-128182950D01*
X138730018Y-128286923D01*
X138557117Y-128358541D01*
X138373573Y-128395050D01*
X138186427Y-128395050D01*
X138002883Y-128358541D01*
X137829982Y-128286923D01*
X137774446Y-128249815D01*
X137752835Y-128238264D01*
X137729386Y-128231151D01*
X137705000Y-128228749D01*
X137680614Y-128231151D01*
X137657164Y-128238264D01*
X137635554Y-128249815D01*
X137616612Y-128265361D01*
X137601066Y-128284303D01*
X137589515Y-128305914D01*
X137582402Y-128329363D01*
X137580000Y-128353749D01*
X137580000Y-129945000D01*
X135380000Y-129945000D01*
X135380000Y-127745000D01*
X137218698Y-127745000D01*
X137243084Y-127742598D01*
X137266533Y-127735485D01*
X137288144Y-127723934D01*
X137307086Y-127708388D01*
X137322632Y-127689446D01*
X137334183Y-127667835D01*
X137341296Y-127644386D01*
X137343698Y-127620000D01*
X137341296Y-127595614D01*
X137329950Y-127538573D01*
X137329950Y-127351427D01*
X137366459Y-127167883D01*
X137438077Y-126994982D01*
X137542050Y-126839375D01*
X137674375Y-126707050D01*
X137829982Y-126603077D01*
X138002883Y-126531459D01*
X138186427Y-126494950D01*
X138373573Y-126494950D01*
X138557117Y-126531459D01*
X138557117Y-126531459D01*
G37*
G36*
X108580000Y-129650000D02*
X107480000Y-129650000D01*
X107480000Y-127250000D01*
X108580000Y-127250000D01*
X108580000Y-129650000D01*
X108580000Y-129650000D01*
G37*
G36*
X109980000Y-129650000D02*
X108880000Y-129650000D01*
X108880000Y-127250000D01*
X109980000Y-127250000D01*
X109980000Y-129650000D01*
X109980000Y-129650000D01*
G37*
G36*
X107180000Y-129650000D02*
X106080000Y-129650000D01*
X106080000Y-127250000D01*
X107180000Y-127250000D01*
X107180000Y-129650000D01*
X107180000Y-129650000D01*
G37*
G36*
X124855857Y-123312272D02*
X125056042Y-123395191D01*
X125056045Y-123395193D01*
X125225926Y-123508704D01*
X125236213Y-123515578D01*
X125389422Y-123668787D01*
X125509809Y-123848958D01*
X125592728Y-124049143D01*
X125635000Y-124261658D01*
X125635000Y-124478342D01*
X125592728Y-124690857D01*
X125509809Y-124891042D01*
X125389422Y-125071213D01*
X125236213Y-125224422D01*
X125056042Y-125344809D01*
X124855857Y-125427728D01*
X124643342Y-125470000D01*
X124426658Y-125470000D01*
X124214143Y-125427728D01*
X124013958Y-125344809D01*
X123833787Y-125224422D01*
X123680578Y-125071213D01*
X123560191Y-124891042D01*
X123477272Y-124690857D01*
X123435000Y-124478342D01*
X123435000Y-124261658D01*
X123477272Y-124049143D01*
X123560191Y-123848958D01*
X123680578Y-123668787D01*
X123833787Y-123515578D01*
X123844075Y-123508704D01*
X124013955Y-123395193D01*
X124013958Y-123395191D01*
X124214143Y-123312272D01*
X124426658Y-123270000D01*
X124643342Y-123270000D01*
X124855857Y-123312272D01*
X124855857Y-123312272D01*
G37*
G36*
X120872117Y-121656459D02*
X121045018Y-121728077D01*
X121200625Y-121832050D01*
X121332950Y-121964375D01*
X121436923Y-122119982D01*
X121508541Y-122292883D01*
X121545050Y-122476427D01*
X121545050Y-122663573D01*
X121508541Y-122847117D01*
X121436923Y-123020018D01*
X121399815Y-123075554D01*
X121388264Y-123097165D01*
X121381151Y-123120614D01*
X121378749Y-123145000D01*
X121381151Y-123169386D01*
X121388264Y-123192836D01*
X121399815Y-123214446D01*
X121415361Y-123233388D01*
X121434303Y-123248934D01*
X121455914Y-123260485D01*
X121479363Y-123267598D01*
X121503749Y-123270000D01*
X123095000Y-123270000D01*
X123095000Y-125470000D01*
X120895000Y-125470000D01*
X120895000Y-123631302D01*
X120892598Y-123606916D01*
X120885485Y-123583467D01*
X120873934Y-123561856D01*
X120858388Y-123542914D01*
X120839446Y-123527368D01*
X120817835Y-123515817D01*
X120794386Y-123508704D01*
X120770000Y-123506302D01*
X120745614Y-123508704D01*
X120688573Y-123520050D01*
X120501427Y-123520050D01*
X120317883Y-123483541D01*
X120144982Y-123411923D01*
X119989375Y-123307950D01*
X119857050Y-123175625D01*
X119753077Y-123020018D01*
X119681459Y-122847117D01*
X119644950Y-122663573D01*
X119644950Y-122476427D01*
X119681459Y-122292883D01*
X119753077Y-122119982D01*
X119857050Y-121964375D01*
X119989375Y-121832050D01*
X120144982Y-121728077D01*
X120317883Y-121656459D01*
X120501427Y-121619950D01*
X120688573Y-121619950D01*
X120872117Y-121656459D01*
X120872117Y-121656459D01*
G37*
G36*
X108851904Y-120122979D02*
X109200054Y-120192230D01*
X109636826Y-120373147D01*
X110029911Y-120635798D01*
X110364202Y-120970089D01*
X110626853Y-121363174D01*
X110807770Y-121799946D01*
X110900000Y-122263621D01*
X110900000Y-122736379D01*
X110807770Y-123200054D01*
X110626853Y-123636826D01*
X110364202Y-124029911D01*
X110029911Y-124364202D01*
X109636826Y-124626853D01*
X109200054Y-124807770D01*
X108851904Y-124877021D01*
X108736381Y-124900000D01*
X108263619Y-124900000D01*
X108148096Y-124877021D01*
X107799946Y-124807770D01*
X107363174Y-124626853D01*
X106970089Y-124364202D01*
X106635798Y-124029911D01*
X106373147Y-123636826D01*
X106192230Y-123200054D01*
X106100000Y-122736379D01*
X106100000Y-122263621D01*
X106192230Y-121799946D01*
X106373147Y-121363174D01*
X106635798Y-120970089D01*
X106970089Y-120635798D01*
X107363174Y-120373147D01*
X107799946Y-120192230D01*
X108148096Y-120122979D01*
X108263619Y-120100000D01*
X108736381Y-120100000D01*
X108851904Y-120122979D01*
X108851904Y-120122979D01*
G37*
G36*
X138851904Y-120122979D02*
X139200054Y-120192230D01*
X139636826Y-120373147D01*
X140029911Y-120635798D01*
X140364202Y-120970089D01*
X140626853Y-121363174D01*
X140807770Y-121799946D01*
X140900000Y-122263621D01*
X140900000Y-122736379D01*
X140807770Y-123200054D01*
X140626853Y-123636826D01*
X140364202Y-124029911D01*
X140029911Y-124364202D01*
X139636826Y-124626853D01*
X139200054Y-124807770D01*
X138851904Y-124877021D01*
X138736381Y-124900000D01*
X138263619Y-124900000D01*
X138148096Y-124877021D01*
X137799946Y-124807770D01*
X137363174Y-124626853D01*
X136970089Y-124364202D01*
X136635798Y-124029911D01*
X136373147Y-123636826D01*
X136192230Y-123200054D01*
X136100000Y-122736379D01*
X136100000Y-122263621D01*
X136192230Y-121799946D01*
X136373147Y-121363174D01*
X136635798Y-120970089D01*
X136970089Y-120635798D01*
X137363174Y-120373147D01*
X137799946Y-120192230D01*
X138148096Y-120122979D01*
X138263619Y-120100000D01*
X138736381Y-120100000D01*
X138851904Y-120122979D01*
X138851904Y-120122979D01*
G37*
G36*
X126125857Y-120772272D02*
X126326042Y-120855191D01*
X126326045Y-120855193D01*
X126497999Y-120970089D01*
X126506213Y-120975578D01*
X126659422Y-121128787D01*
X126779809Y-121308958D01*
X126862728Y-121509143D01*
X126905000Y-121721658D01*
X126905000Y-121938342D01*
X126862728Y-122150857D01*
X126779809Y-122351042D01*
X126779807Y-122351045D01*
X126696029Y-122476428D01*
X126659422Y-122531213D01*
X126506213Y-122684422D01*
X126506210Y-122684424D01*
X126506209Y-122684425D01*
X126326045Y-122804807D01*
X126326042Y-122804809D01*
X126125857Y-122887728D01*
X125913342Y-122930000D01*
X125696658Y-122930000D01*
X125484143Y-122887728D01*
X125283958Y-122804809D01*
X125283955Y-122804807D01*
X125103791Y-122684425D01*
X125103790Y-122684424D01*
X125103787Y-122684422D01*
X124950578Y-122531213D01*
X124913972Y-122476428D01*
X124830193Y-122351045D01*
X124830191Y-122351042D01*
X124747272Y-122150857D01*
X124705000Y-121938342D01*
X124705000Y-121721658D01*
X124747272Y-121509143D01*
X124830191Y-121308958D01*
X124950578Y-121128787D01*
X125103787Y-120975578D01*
X125112002Y-120970089D01*
X125283955Y-120855193D01*
X125283958Y-120855191D01*
X125484143Y-120772272D01*
X125696658Y-120730000D01*
X125913342Y-120730000D01*
X126125857Y-120772272D01*
X126125857Y-120772272D01*
G37*
G36*
X123585857Y-120772272D02*
X123786042Y-120855191D01*
X123786045Y-120855193D01*
X123957999Y-120970089D01*
X123966213Y-120975578D01*
X124119422Y-121128787D01*
X124239809Y-121308958D01*
X124322728Y-121509143D01*
X124365000Y-121721658D01*
X124365000Y-121938342D01*
X124322728Y-122150857D01*
X124239809Y-122351042D01*
X124239807Y-122351045D01*
X124156029Y-122476428D01*
X124119422Y-122531213D01*
X123966213Y-122684422D01*
X123966210Y-122684424D01*
X123966209Y-122684425D01*
X123786045Y-122804807D01*
X123786042Y-122804809D01*
X123585857Y-122887728D01*
X123373342Y-122930000D01*
X123156658Y-122930000D01*
X122944143Y-122887728D01*
X122743958Y-122804809D01*
X122743955Y-122804807D01*
X122563791Y-122684425D01*
X122563790Y-122684424D01*
X122563787Y-122684422D01*
X122410578Y-122531213D01*
X122373972Y-122476428D01*
X122290193Y-122351045D01*
X122290191Y-122351042D01*
X122207272Y-122150857D01*
X122165000Y-121938342D01*
X122165000Y-121721658D01*
X122207272Y-121509143D01*
X122290191Y-121308958D01*
X122410578Y-121128787D01*
X122563787Y-120975578D01*
X122572002Y-120970089D01*
X122743955Y-120855193D01*
X122743958Y-120855191D01*
X122944143Y-120772272D01*
X123156658Y-120730000D01*
X123373342Y-120730000D01*
X123585857Y-120772272D01*
X123585857Y-120772272D01*
G37*
M02*
