G04 #@! TF.GenerationSoftware,KiCad,Pcbnew,5.0.2-bee76a0~70~ubuntu18.04.1*
G04 #@! TF.CreationDate,2020-01-02T20:25:09+01:00*
G04 #@! TF.ProjectId,roboy_sno,726f626f-795f-4736-9e6f-2e6b69636164,rev?*
G04 #@! TF.SameCoordinates,Original*
G04 #@! TF.FileFunction,Soldermask,Top*
G04 #@! TF.FilePolarity,Negative*
%FSLAX46Y46*%
G04 Gerber Fmt 4.6, Leading zero omitted, Abs format (unit mm)*
G04 Created by KiCad (PCBNEW 5.0.2-bee76a0~70~ubuntu18.04.1) date Do 02 Jan 2020 20:25:09 CET*
%MOMM*%
%LPD*%
G01*
G04 APERTURE LIST*
%ADD10C,0.100000*%
G04 APERTURE END LIST*
D10*
G36*
X138851904Y-136122979D02*
X139200054Y-136192230D01*
X139636826Y-136373147D01*
X140029911Y-136635798D01*
X140364202Y-136970089D01*
X140626853Y-137363174D01*
X140807770Y-137799946D01*
X140900000Y-138263621D01*
X140900000Y-138736379D01*
X140807770Y-139200054D01*
X140626853Y-139636826D01*
X140364202Y-140029911D01*
X140029911Y-140364202D01*
X139636826Y-140626853D01*
X139200054Y-140807770D01*
X138851904Y-140877021D01*
X138736381Y-140900000D01*
X138263619Y-140900000D01*
X138148096Y-140877021D01*
X137799946Y-140807770D01*
X137363174Y-140626853D01*
X136970089Y-140364202D01*
X136635798Y-140029911D01*
X136373147Y-139636826D01*
X136192230Y-139200054D01*
X136100000Y-138736379D01*
X136100000Y-138263621D01*
X136192230Y-137799946D01*
X136373147Y-137363174D01*
X136635798Y-136970089D01*
X136970089Y-136635798D01*
X137363174Y-136373147D01*
X137799946Y-136192230D01*
X138148096Y-136122979D01*
X138263619Y-136100000D01*
X138736381Y-136100000D01*
X138851904Y-136122979D01*
X138851904Y-136122979D01*
G37*
G36*
X108851904Y-136122979D02*
X109200054Y-136192230D01*
X109636826Y-136373147D01*
X110029911Y-136635798D01*
X110364202Y-136970089D01*
X110626853Y-137363174D01*
X110807770Y-137799946D01*
X110900000Y-138263621D01*
X110900000Y-138736379D01*
X110807770Y-139200054D01*
X110626853Y-139636826D01*
X110364202Y-140029911D01*
X110029911Y-140364202D01*
X109636826Y-140626853D01*
X109200054Y-140807770D01*
X108851904Y-140877021D01*
X108736381Y-140900000D01*
X108263619Y-140900000D01*
X108148096Y-140877021D01*
X107799946Y-140807770D01*
X107363174Y-140626853D01*
X106970089Y-140364202D01*
X106635798Y-140029911D01*
X106373147Y-139636826D01*
X106192230Y-139200054D01*
X106100000Y-138736379D01*
X106100000Y-138263621D01*
X106192230Y-137799946D01*
X106373147Y-137363174D01*
X106635798Y-136970089D01*
X106970089Y-136635798D01*
X107363174Y-136373147D01*
X107799946Y-136192230D01*
X108148096Y-136122979D01*
X108263619Y-136100000D01*
X108736381Y-136100000D01*
X108851904Y-136122979D01*
X108851904Y-136122979D01*
G37*
G36*
X134135000Y-140260000D02*
X132250000Y-140260000D01*
X132250000Y-126960000D01*
X134135000Y-126960000D01*
X134135000Y-140260000D01*
X134135000Y-140260000D01*
G37*
G36*
X116350000Y-140260000D02*
X114465000Y-140260000D01*
X114465000Y-126960000D01*
X116350000Y-126960000D01*
X116350000Y-140260000D01*
X116350000Y-140260000D01*
G37*
G36*
X112430974Y-136344148D02*
X112465568Y-136354642D01*
X112505128Y-136375787D01*
X112511069Y-136379757D01*
X112533708Y-136389136D01*
X112557741Y-136393917D01*
X112582245Y-136393919D01*
X112606279Y-136389140D01*
X112628918Y-136379763D01*
X112634858Y-136375795D01*
X112674432Y-136354642D01*
X112709026Y-136344148D01*
X112751141Y-136340000D01*
X113358859Y-136340000D01*
X113400974Y-136344148D01*
X113435568Y-136354642D01*
X113467441Y-136371678D01*
X113495387Y-136394613D01*
X113518322Y-136422559D01*
X113535358Y-136454432D01*
X113545852Y-136489026D01*
X113550000Y-136531141D01*
X113550000Y-137188859D01*
X113545852Y-137230974D01*
X113535358Y-137265568D01*
X113518322Y-137297441D01*
X113495387Y-137325387D01*
X113467441Y-137348322D01*
X113435568Y-137365358D01*
X113400974Y-137375852D01*
X113358859Y-137380000D01*
X112751141Y-137380000D01*
X112709026Y-137375852D01*
X112674432Y-137365358D01*
X112634872Y-137344213D01*
X112628931Y-137340243D01*
X112606292Y-137330864D01*
X112582259Y-137326083D01*
X112557755Y-137326081D01*
X112533721Y-137330860D01*
X112511082Y-137340237D01*
X112505142Y-137344205D01*
X112465568Y-137365358D01*
X112430974Y-137375852D01*
X112388859Y-137380000D01*
X111781141Y-137380000D01*
X111739026Y-137375852D01*
X111704432Y-137365358D01*
X111672559Y-137348322D01*
X111644613Y-137325387D01*
X111621678Y-137297441D01*
X111604642Y-137265568D01*
X111594148Y-137230974D01*
X111590000Y-137188859D01*
X111590000Y-136531141D01*
X111594148Y-136489026D01*
X111604642Y-136454432D01*
X111621678Y-136422559D01*
X111644613Y-136394613D01*
X111672559Y-136371678D01*
X111704432Y-136354642D01*
X111739026Y-136344148D01*
X111781141Y-136340000D01*
X112388859Y-136340000D01*
X112430974Y-136344148D01*
X112430974Y-136344148D01*
G37*
G36*
X127600000Y-136410000D02*
X123200000Y-136410000D01*
X123200000Y-132010000D01*
X127600000Y-132010000D01*
X127600000Y-136410000D01*
X127600000Y-136410000D01*
G37*
G36*
X112430974Y-134714148D02*
X112465568Y-134724642D01*
X112505128Y-134745787D01*
X112511069Y-134749757D01*
X112533708Y-134759136D01*
X112557741Y-134763917D01*
X112582245Y-134763919D01*
X112606279Y-134759140D01*
X112628918Y-134749763D01*
X112634858Y-134745795D01*
X112674432Y-134724642D01*
X112709026Y-134714148D01*
X112751141Y-134710000D01*
X113358859Y-134710000D01*
X113400974Y-134714148D01*
X113435568Y-134724642D01*
X113467441Y-134741678D01*
X113495387Y-134764613D01*
X113518322Y-134792559D01*
X113535358Y-134824432D01*
X113545852Y-134859026D01*
X113550000Y-134901141D01*
X113550000Y-135558859D01*
X113545852Y-135600974D01*
X113535358Y-135635568D01*
X113518322Y-135667441D01*
X113495387Y-135695387D01*
X113467441Y-135718322D01*
X113435568Y-135735358D01*
X113400974Y-135745852D01*
X113358859Y-135750000D01*
X112751141Y-135750000D01*
X112709026Y-135745852D01*
X112674432Y-135735358D01*
X112634872Y-135714213D01*
X112628931Y-135710243D01*
X112606292Y-135700864D01*
X112582259Y-135696083D01*
X112557755Y-135696081D01*
X112533721Y-135700860D01*
X112511082Y-135710237D01*
X112505142Y-135714205D01*
X112465568Y-135735358D01*
X112430974Y-135745852D01*
X112388859Y-135750000D01*
X111781141Y-135750000D01*
X111739026Y-135745852D01*
X111704432Y-135735358D01*
X111672559Y-135718322D01*
X111644613Y-135695387D01*
X111621678Y-135667441D01*
X111604642Y-135635568D01*
X111594148Y-135600974D01*
X111590000Y-135558859D01*
X111590000Y-134901141D01*
X111594148Y-134859026D01*
X111604642Y-134824432D01*
X111621678Y-134792559D01*
X111644613Y-134764613D01*
X111672559Y-134741678D01*
X111704432Y-134724642D01*
X111739026Y-134714148D01*
X111781141Y-134710000D01*
X112388859Y-134710000D01*
X112430974Y-134714148D01*
X112430974Y-134714148D01*
G37*
G36*
X112420974Y-133214148D02*
X112455568Y-133224642D01*
X112495128Y-133245787D01*
X112501069Y-133249757D01*
X112523708Y-133259136D01*
X112547741Y-133263917D01*
X112572245Y-133263919D01*
X112596279Y-133259140D01*
X112618918Y-133249763D01*
X112624858Y-133245795D01*
X112664432Y-133224642D01*
X112699026Y-133214148D01*
X112741141Y-133210000D01*
X113348859Y-133210000D01*
X113390974Y-133214148D01*
X113425568Y-133224642D01*
X113457441Y-133241678D01*
X113485387Y-133264613D01*
X113508322Y-133292559D01*
X113525358Y-133324432D01*
X113535852Y-133359026D01*
X113540000Y-133401141D01*
X113540000Y-134058859D01*
X113535852Y-134100974D01*
X113525358Y-134135568D01*
X113508322Y-134167441D01*
X113485387Y-134195387D01*
X113457441Y-134218322D01*
X113425568Y-134235358D01*
X113390974Y-134245852D01*
X113348859Y-134250000D01*
X112741141Y-134250000D01*
X112699026Y-134245852D01*
X112664432Y-134235358D01*
X112624872Y-134214213D01*
X112618931Y-134210243D01*
X112596292Y-134200864D01*
X112572259Y-134196083D01*
X112547755Y-134196081D01*
X112523721Y-134200860D01*
X112501082Y-134210237D01*
X112495142Y-134214205D01*
X112455568Y-134235358D01*
X112420974Y-134245852D01*
X112378859Y-134250000D01*
X111771141Y-134250000D01*
X111729026Y-134245852D01*
X111694432Y-134235358D01*
X111662559Y-134218322D01*
X111634613Y-134195387D01*
X111611678Y-134167441D01*
X111594642Y-134135568D01*
X111584148Y-134100974D01*
X111580000Y-134058859D01*
X111580000Y-133401141D01*
X111584148Y-133359026D01*
X111594642Y-133324432D01*
X111611678Y-133292559D01*
X111634613Y-133264613D01*
X111662559Y-133241678D01*
X111694432Y-133224642D01*
X111729026Y-133214148D01*
X111771141Y-133210000D01*
X112378859Y-133210000D01*
X112420974Y-133214148D01*
X112420974Y-133214148D01*
G37*
G36*
X139340857Y-131597272D02*
X139541042Y-131680191D01*
X139541045Y-131680193D01*
X139719174Y-131799215D01*
X139721213Y-131800578D01*
X139874422Y-131953787D01*
X139994809Y-132133958D01*
X140077728Y-132334143D01*
X140120000Y-132546658D01*
X140120000Y-132763342D01*
X140077728Y-132975857D01*
X139994809Y-133176042D01*
X139994807Y-133176045D01*
X139895658Y-133324432D01*
X139874422Y-133356213D01*
X139721213Y-133509422D01*
X139541042Y-133629809D01*
X139340857Y-133712728D01*
X139128342Y-133755000D01*
X138911658Y-133755000D01*
X138699143Y-133712728D01*
X138498958Y-133629809D01*
X138318787Y-133509422D01*
X138165578Y-133356213D01*
X138144343Y-133324432D01*
X138045193Y-133176045D01*
X138045191Y-133176042D01*
X137962272Y-132975857D01*
X137920000Y-132763342D01*
X137920000Y-132546658D01*
X137962272Y-132334143D01*
X138045191Y-132133958D01*
X138165578Y-131953787D01*
X138318787Y-131800578D01*
X138320827Y-131799215D01*
X138498955Y-131680193D01*
X138498958Y-131680191D01*
X138699143Y-131597272D01*
X138911658Y-131555000D01*
X139128342Y-131555000D01*
X139340857Y-131597272D01*
X139340857Y-131597272D01*
G37*
G36*
X107435000Y-133440000D02*
X106335000Y-133440000D01*
X106335000Y-132040000D01*
X107435000Y-132040000D01*
X107435000Y-133440000D01*
X107435000Y-133440000D01*
G37*
G36*
X109585000Y-133440000D02*
X108485000Y-133440000D01*
X108485000Y-132040000D01*
X109585000Y-132040000D01*
X109585000Y-133440000D01*
X109585000Y-133440000D01*
G37*
G36*
X112400974Y-131604148D02*
X112435568Y-131614642D01*
X112475128Y-131635787D01*
X112481069Y-131639757D01*
X112503708Y-131649136D01*
X112527741Y-131653917D01*
X112552245Y-131653919D01*
X112576279Y-131649140D01*
X112598918Y-131639763D01*
X112604858Y-131635795D01*
X112644432Y-131614642D01*
X112679026Y-131604148D01*
X112721141Y-131600000D01*
X113328859Y-131600000D01*
X113370974Y-131604148D01*
X113405568Y-131614642D01*
X113437441Y-131631678D01*
X113465387Y-131654613D01*
X113488322Y-131682559D01*
X113505358Y-131714432D01*
X113515852Y-131749026D01*
X113520000Y-131791141D01*
X113520000Y-132448859D01*
X113515852Y-132490974D01*
X113505358Y-132525568D01*
X113488322Y-132557441D01*
X113465387Y-132585387D01*
X113437441Y-132608322D01*
X113405568Y-132625358D01*
X113370974Y-132635852D01*
X113328859Y-132640000D01*
X112721141Y-132640000D01*
X112679026Y-132635852D01*
X112644432Y-132625358D01*
X112604872Y-132604213D01*
X112598931Y-132600243D01*
X112576292Y-132590864D01*
X112552259Y-132586083D01*
X112527755Y-132586081D01*
X112503721Y-132590860D01*
X112481082Y-132600237D01*
X112475142Y-132604205D01*
X112435568Y-132625358D01*
X112400974Y-132635852D01*
X112358859Y-132640000D01*
X111751141Y-132640000D01*
X111709026Y-132635852D01*
X111674432Y-132625358D01*
X111642559Y-132608322D01*
X111614613Y-132585387D01*
X111591678Y-132557441D01*
X111574642Y-132525568D01*
X111564148Y-132490974D01*
X111560000Y-132448859D01*
X111560000Y-131791141D01*
X111564148Y-131749026D01*
X111574642Y-131714432D01*
X111591678Y-131682559D01*
X111614613Y-131654613D01*
X111642559Y-131631678D01*
X111674432Y-131614642D01*
X111709026Y-131604148D01*
X111751141Y-131600000D01*
X112358859Y-131600000D01*
X112400974Y-131604148D01*
X112400974Y-131604148D01*
G37*
G36*
X136800857Y-130327272D02*
X137001042Y-130410191D01*
X137181213Y-130530578D01*
X137334422Y-130683787D01*
X137454809Y-130863958D01*
X137537728Y-131064143D01*
X137580000Y-131276658D01*
X137580000Y-131493342D01*
X137537728Y-131705857D01*
X137454809Y-131906042D01*
X137334422Y-132086213D01*
X137181213Y-132239422D01*
X137001042Y-132359809D01*
X136800857Y-132442728D01*
X136588342Y-132485000D01*
X136371658Y-132485000D01*
X136159143Y-132442728D01*
X135958958Y-132359809D01*
X135778787Y-132239422D01*
X135625578Y-132086213D01*
X135505191Y-131906042D01*
X135422272Y-131705857D01*
X135380000Y-131493342D01*
X135380000Y-131276658D01*
X135422272Y-131064143D01*
X135505191Y-130863958D01*
X135625578Y-130683787D01*
X135778787Y-130530578D01*
X135958958Y-130410191D01*
X136159143Y-130327272D01*
X136371658Y-130285000D01*
X136588342Y-130285000D01*
X136800857Y-130327272D01*
X136800857Y-130327272D01*
G37*
G36*
X139340857Y-129057272D02*
X139541042Y-129140191D01*
X139721213Y-129260578D01*
X139874422Y-129413787D01*
X139994809Y-129593958D01*
X140077728Y-129794143D01*
X140120000Y-130006658D01*
X140120000Y-130223342D01*
X140077728Y-130435857D01*
X139994809Y-130636042D01*
X139874422Y-130816213D01*
X139721213Y-130969422D01*
X139721210Y-130969424D01*
X139721209Y-130969425D01*
X139564395Y-131074205D01*
X139541042Y-131089809D01*
X139340857Y-131172728D01*
X139128342Y-131215000D01*
X138911658Y-131215000D01*
X138699143Y-131172728D01*
X138498958Y-131089809D01*
X138475605Y-131074205D01*
X138318791Y-130969425D01*
X138318790Y-130969424D01*
X138318787Y-130969422D01*
X138165578Y-130816213D01*
X138045191Y-130636042D01*
X137962272Y-130435857D01*
X137920000Y-130223342D01*
X137920000Y-130006658D01*
X137962272Y-129794143D01*
X138045191Y-129593958D01*
X138165578Y-129413787D01*
X138318787Y-129260578D01*
X138498958Y-129140191D01*
X138699143Y-129057272D01*
X138911658Y-129015000D01*
X139128342Y-129015000D01*
X139340857Y-129057272D01*
X139340857Y-129057272D01*
G37*
G36*
X112410974Y-130074148D02*
X112445568Y-130084642D01*
X112485128Y-130105787D01*
X112491069Y-130109757D01*
X112513708Y-130119136D01*
X112537741Y-130123917D01*
X112562245Y-130123919D01*
X112586279Y-130119140D01*
X112608918Y-130109763D01*
X112614858Y-130105795D01*
X112654432Y-130084642D01*
X112689026Y-130074148D01*
X112731141Y-130070000D01*
X113338859Y-130070000D01*
X113380974Y-130074148D01*
X113415568Y-130084642D01*
X113447441Y-130101678D01*
X113475387Y-130124613D01*
X113498322Y-130152559D01*
X113515358Y-130184432D01*
X113525852Y-130219026D01*
X113530000Y-130261141D01*
X113530000Y-130918859D01*
X113525852Y-130960974D01*
X113515358Y-130995568D01*
X113498322Y-131027441D01*
X113475387Y-131055387D01*
X113447441Y-131078322D01*
X113415568Y-131095358D01*
X113380974Y-131105852D01*
X113338859Y-131110000D01*
X112731141Y-131110000D01*
X112689026Y-131105852D01*
X112654432Y-131095358D01*
X112614872Y-131074213D01*
X112608931Y-131070243D01*
X112586292Y-131060864D01*
X112562259Y-131056083D01*
X112537755Y-131056081D01*
X112513721Y-131060860D01*
X112491082Y-131070237D01*
X112485142Y-131074205D01*
X112445568Y-131095358D01*
X112410974Y-131105852D01*
X112368859Y-131110000D01*
X111761141Y-131110000D01*
X111719026Y-131105852D01*
X111684432Y-131095358D01*
X111652559Y-131078322D01*
X111624613Y-131055387D01*
X111601678Y-131027441D01*
X111584642Y-130995568D01*
X111574148Y-130960974D01*
X111570000Y-130918859D01*
X111570000Y-130261141D01*
X111574148Y-130219026D01*
X111584642Y-130184432D01*
X111601678Y-130152559D01*
X111624613Y-130124613D01*
X111652559Y-130101678D01*
X111684432Y-130084642D01*
X111719026Y-130074148D01*
X111761141Y-130070000D01*
X112368859Y-130070000D01*
X112410974Y-130074148D01*
X112410974Y-130074148D01*
G37*
G36*
X138557117Y-126531459D02*
X138730018Y-126603077D01*
X138885625Y-126707050D01*
X139017950Y-126839375D01*
X139121923Y-126994982D01*
X139193541Y-127167883D01*
X139230050Y-127351427D01*
X139230050Y-127538573D01*
X139193541Y-127722117D01*
X139121923Y-127895018D01*
X139017950Y-128050625D01*
X138885625Y-128182950D01*
X138730018Y-128286923D01*
X138557117Y-128358541D01*
X138373573Y-128395050D01*
X138186427Y-128395050D01*
X138002883Y-128358541D01*
X137829982Y-128286923D01*
X137774446Y-128249815D01*
X137752835Y-128238264D01*
X137729386Y-128231151D01*
X137705000Y-128228749D01*
X137680614Y-128231151D01*
X137657164Y-128238264D01*
X137635554Y-128249815D01*
X137616612Y-128265361D01*
X137601066Y-128284303D01*
X137589515Y-128305914D01*
X137582402Y-128329363D01*
X137580000Y-128353749D01*
X137580000Y-129945000D01*
X135380000Y-129945000D01*
X135380000Y-127745000D01*
X137218698Y-127745000D01*
X137243084Y-127742598D01*
X137266533Y-127735485D01*
X137288144Y-127723934D01*
X137307086Y-127708388D01*
X137322632Y-127689446D01*
X137334183Y-127667835D01*
X137341296Y-127644386D01*
X137343698Y-127620000D01*
X137341296Y-127595614D01*
X137329950Y-127538573D01*
X137329950Y-127351427D01*
X137366459Y-127167883D01*
X137438077Y-126994982D01*
X137542050Y-126839375D01*
X137674375Y-126707050D01*
X137829982Y-126603077D01*
X138002883Y-126531459D01*
X138186427Y-126494950D01*
X138373573Y-126494950D01*
X138557117Y-126531459D01*
X138557117Y-126531459D01*
G37*
G36*
X107435000Y-128940000D02*
X106335000Y-128940000D01*
X106335000Y-127540000D01*
X107435000Y-127540000D01*
X107435000Y-128940000D01*
X107435000Y-128940000D01*
G37*
G36*
X109585000Y-128940000D02*
X108485000Y-128940000D01*
X108485000Y-127540000D01*
X109585000Y-127540000D01*
X109585000Y-128940000D01*
X109585000Y-128940000D01*
G37*
G36*
X115770974Y-123824148D02*
X115805568Y-123834642D01*
X115837441Y-123851678D01*
X115865387Y-123874613D01*
X115888322Y-123902559D01*
X115905358Y-123934432D01*
X115915852Y-123969026D01*
X115920000Y-124011141D01*
X115920000Y-124618859D01*
X115915852Y-124660974D01*
X115905358Y-124695568D01*
X115884213Y-124735128D01*
X115880243Y-124741069D01*
X115870864Y-124763708D01*
X115866083Y-124787741D01*
X115866081Y-124812245D01*
X115870860Y-124836279D01*
X115880237Y-124858918D01*
X115884205Y-124864858D01*
X115905358Y-124904432D01*
X115915852Y-124939026D01*
X115920000Y-124981141D01*
X115920000Y-125588859D01*
X115915852Y-125630974D01*
X115905358Y-125665568D01*
X115888322Y-125697441D01*
X115865387Y-125725387D01*
X115837441Y-125748322D01*
X115805568Y-125765358D01*
X115770974Y-125775852D01*
X115728859Y-125780000D01*
X115071141Y-125780000D01*
X115029026Y-125775852D01*
X114994432Y-125765358D01*
X114962559Y-125748322D01*
X114934613Y-125725387D01*
X114911678Y-125697441D01*
X114894642Y-125665568D01*
X114884148Y-125630974D01*
X114880000Y-125588859D01*
X114880000Y-124981141D01*
X114884148Y-124939026D01*
X114894642Y-124904432D01*
X114915787Y-124864872D01*
X114919757Y-124858931D01*
X114929136Y-124836292D01*
X114933917Y-124812259D01*
X114933919Y-124787755D01*
X114929140Y-124763721D01*
X114919763Y-124741082D01*
X114915795Y-124735142D01*
X114894642Y-124695568D01*
X114884148Y-124660974D01*
X114880000Y-124618859D01*
X114880000Y-124011141D01*
X114884148Y-123969026D01*
X114894642Y-123934432D01*
X114911678Y-123902559D01*
X114934613Y-123874613D01*
X114962559Y-123851678D01*
X114994432Y-123834642D01*
X115029026Y-123824148D01*
X115071141Y-123820000D01*
X115728859Y-123820000D01*
X115770974Y-123824148D01*
X115770974Y-123824148D01*
G37*
G36*
X114270974Y-123824148D02*
X114305568Y-123834642D01*
X114337441Y-123851678D01*
X114365387Y-123874613D01*
X114388322Y-123902559D01*
X114405358Y-123934432D01*
X114415852Y-123969026D01*
X114420000Y-124011141D01*
X114420000Y-124618859D01*
X114415852Y-124660974D01*
X114405358Y-124695568D01*
X114384213Y-124735128D01*
X114380243Y-124741069D01*
X114370864Y-124763708D01*
X114366083Y-124787741D01*
X114366081Y-124812245D01*
X114370860Y-124836279D01*
X114380237Y-124858918D01*
X114384205Y-124864858D01*
X114405358Y-124904432D01*
X114415852Y-124939026D01*
X114420000Y-124981141D01*
X114420000Y-125588859D01*
X114415852Y-125630974D01*
X114405358Y-125665568D01*
X114388322Y-125697441D01*
X114365387Y-125725387D01*
X114337441Y-125748322D01*
X114305568Y-125765358D01*
X114270974Y-125775852D01*
X114228859Y-125780000D01*
X113571141Y-125780000D01*
X113529026Y-125775852D01*
X113494432Y-125765358D01*
X113462559Y-125748322D01*
X113434613Y-125725387D01*
X113411678Y-125697441D01*
X113394642Y-125665568D01*
X113384148Y-125630974D01*
X113380000Y-125588859D01*
X113380000Y-124981141D01*
X113384148Y-124939026D01*
X113394642Y-124904432D01*
X113415787Y-124864872D01*
X113419757Y-124858931D01*
X113429136Y-124836292D01*
X113433917Y-124812259D01*
X113433919Y-124787755D01*
X113429140Y-124763721D01*
X113419763Y-124741082D01*
X113415795Y-124735142D01*
X113394642Y-124695568D01*
X113384148Y-124660974D01*
X113380000Y-124618859D01*
X113380000Y-124011141D01*
X113384148Y-123969026D01*
X113394642Y-123934432D01*
X113411678Y-123902559D01*
X113434613Y-123874613D01*
X113462559Y-123851678D01*
X113494432Y-123834642D01*
X113529026Y-123824148D01*
X113571141Y-123820000D01*
X114228859Y-123820000D01*
X114270974Y-123824148D01*
X114270974Y-123824148D01*
G37*
G36*
X117270974Y-123824148D02*
X117305568Y-123834642D01*
X117337441Y-123851678D01*
X117365387Y-123874613D01*
X117388322Y-123902559D01*
X117405358Y-123934432D01*
X117415852Y-123969026D01*
X117420000Y-124011141D01*
X117420000Y-124618859D01*
X117415852Y-124660974D01*
X117405358Y-124695568D01*
X117384213Y-124735128D01*
X117380243Y-124741069D01*
X117370864Y-124763708D01*
X117366083Y-124787741D01*
X117366081Y-124812245D01*
X117370860Y-124836279D01*
X117380237Y-124858918D01*
X117384205Y-124864858D01*
X117405358Y-124904432D01*
X117415852Y-124939026D01*
X117420000Y-124981141D01*
X117420000Y-125588859D01*
X117415852Y-125630974D01*
X117405358Y-125665568D01*
X117388322Y-125697441D01*
X117365387Y-125725387D01*
X117337441Y-125748322D01*
X117305568Y-125765358D01*
X117270974Y-125775852D01*
X117228859Y-125780000D01*
X116571141Y-125780000D01*
X116529026Y-125775852D01*
X116494432Y-125765358D01*
X116462559Y-125748322D01*
X116434613Y-125725387D01*
X116411678Y-125697441D01*
X116394642Y-125665568D01*
X116384148Y-125630974D01*
X116380000Y-125588859D01*
X116380000Y-124981141D01*
X116384148Y-124939026D01*
X116394642Y-124904432D01*
X116415787Y-124864872D01*
X116419757Y-124858931D01*
X116429136Y-124836292D01*
X116433917Y-124812259D01*
X116433919Y-124787755D01*
X116429140Y-124763721D01*
X116419763Y-124741082D01*
X116415795Y-124735142D01*
X116394642Y-124695568D01*
X116384148Y-124660974D01*
X116380000Y-124618859D01*
X116380000Y-124011141D01*
X116384148Y-123969026D01*
X116394642Y-123934432D01*
X116411678Y-123902559D01*
X116434613Y-123874613D01*
X116462559Y-123851678D01*
X116494432Y-123834642D01*
X116529026Y-123824148D01*
X116571141Y-123820000D01*
X117228859Y-123820000D01*
X117270974Y-123824148D01*
X117270974Y-123824148D01*
G37*
G36*
X118770974Y-123824148D02*
X118805568Y-123834642D01*
X118837441Y-123851678D01*
X118865387Y-123874613D01*
X118888322Y-123902559D01*
X118905358Y-123934432D01*
X118915852Y-123969026D01*
X118920000Y-124011141D01*
X118920000Y-124618859D01*
X118915852Y-124660974D01*
X118905358Y-124695568D01*
X118884213Y-124735128D01*
X118880243Y-124741069D01*
X118870864Y-124763708D01*
X118866083Y-124787741D01*
X118866081Y-124812245D01*
X118870860Y-124836279D01*
X118880237Y-124858918D01*
X118884205Y-124864858D01*
X118905358Y-124904432D01*
X118915852Y-124939026D01*
X118920000Y-124981141D01*
X118920000Y-125588859D01*
X118915852Y-125630974D01*
X118905358Y-125665568D01*
X118888322Y-125697441D01*
X118865387Y-125725387D01*
X118837441Y-125748322D01*
X118805568Y-125765358D01*
X118770974Y-125775852D01*
X118728859Y-125780000D01*
X118071141Y-125780000D01*
X118029026Y-125775852D01*
X117994432Y-125765358D01*
X117962559Y-125748322D01*
X117934613Y-125725387D01*
X117911678Y-125697441D01*
X117894642Y-125665568D01*
X117884148Y-125630974D01*
X117880000Y-125588859D01*
X117880000Y-124981141D01*
X117884148Y-124939026D01*
X117894642Y-124904432D01*
X117915787Y-124864872D01*
X117919757Y-124858931D01*
X117929136Y-124836292D01*
X117933917Y-124812259D01*
X117933919Y-124787755D01*
X117929140Y-124763721D01*
X117919763Y-124741082D01*
X117915795Y-124735142D01*
X117894642Y-124695568D01*
X117884148Y-124660974D01*
X117880000Y-124618859D01*
X117880000Y-124011141D01*
X117884148Y-123969026D01*
X117894642Y-123934432D01*
X117911678Y-123902559D01*
X117934613Y-123874613D01*
X117962559Y-123851678D01*
X117994432Y-123834642D01*
X118029026Y-123824148D01*
X118071141Y-123820000D01*
X118728859Y-123820000D01*
X118770974Y-123824148D01*
X118770974Y-123824148D01*
G37*
G36*
X124855857Y-123312272D02*
X125056042Y-123395191D01*
X125056045Y-123395193D01*
X125230377Y-123511678D01*
X125236213Y-123515578D01*
X125389422Y-123668787D01*
X125389424Y-123668790D01*
X125389425Y-123668791D01*
X125438867Y-123742786D01*
X125509809Y-123848958D01*
X125592728Y-124049143D01*
X125635000Y-124261658D01*
X125635000Y-124478342D01*
X125592728Y-124690857D01*
X125509809Y-124891042D01*
X125509807Y-124891045D01*
X125411949Y-125037500D01*
X125389422Y-125071213D01*
X125236213Y-125224422D01*
X125236210Y-125224424D01*
X125236209Y-125224425D01*
X125084838Y-125325568D01*
X125056042Y-125344809D01*
X124855857Y-125427728D01*
X124643342Y-125470000D01*
X124426658Y-125470000D01*
X124214143Y-125427728D01*
X124013958Y-125344809D01*
X123985162Y-125325568D01*
X123833791Y-125224425D01*
X123833790Y-125224424D01*
X123833787Y-125224422D01*
X123680578Y-125071213D01*
X123658052Y-125037500D01*
X123560193Y-124891045D01*
X123560191Y-124891042D01*
X123477272Y-124690857D01*
X123435000Y-124478342D01*
X123435000Y-124261658D01*
X123477272Y-124049143D01*
X123560191Y-123848958D01*
X123631133Y-123742786D01*
X123680575Y-123668791D01*
X123680576Y-123668790D01*
X123680578Y-123668787D01*
X123833787Y-123515578D01*
X123839624Y-123511678D01*
X124013955Y-123395193D01*
X124013958Y-123395191D01*
X124214143Y-123312272D01*
X124426658Y-123270000D01*
X124643342Y-123270000D01*
X124855857Y-123312272D01*
X124855857Y-123312272D01*
G37*
G36*
X120872117Y-121656459D02*
X121045018Y-121728077D01*
X121200625Y-121832050D01*
X121332950Y-121964375D01*
X121436923Y-122119982D01*
X121508541Y-122292883D01*
X121545050Y-122476427D01*
X121545050Y-122663573D01*
X121508541Y-122847117D01*
X121436923Y-123020018D01*
X121399815Y-123075554D01*
X121388264Y-123097165D01*
X121381151Y-123120614D01*
X121378749Y-123145000D01*
X121381151Y-123169386D01*
X121388264Y-123192836D01*
X121399815Y-123214446D01*
X121415361Y-123233388D01*
X121434303Y-123248934D01*
X121455914Y-123260485D01*
X121479363Y-123267598D01*
X121503749Y-123270000D01*
X123095000Y-123270000D01*
X123095000Y-125470000D01*
X120895000Y-125470000D01*
X120895000Y-123631302D01*
X120892598Y-123606916D01*
X120885485Y-123583467D01*
X120873934Y-123561856D01*
X120858388Y-123542914D01*
X120839446Y-123527368D01*
X120817835Y-123515817D01*
X120794386Y-123508704D01*
X120770000Y-123506302D01*
X120745614Y-123508704D01*
X120688573Y-123520050D01*
X120501427Y-123520050D01*
X120317883Y-123483541D01*
X120144982Y-123411923D01*
X119989375Y-123307950D01*
X119857050Y-123175625D01*
X119753077Y-123020018D01*
X119681459Y-122847117D01*
X119644950Y-122663573D01*
X119644950Y-122476427D01*
X119681459Y-122292883D01*
X119753077Y-122119982D01*
X119857050Y-121964375D01*
X119989375Y-121832050D01*
X120144982Y-121728077D01*
X120317883Y-121656459D01*
X120501427Y-121619950D01*
X120688573Y-121619950D01*
X120872117Y-121656459D01*
X120872117Y-121656459D01*
G37*
G36*
X131330974Y-121244148D02*
X131365568Y-121254642D01*
X131397441Y-121271678D01*
X131425387Y-121294613D01*
X131448322Y-121322559D01*
X131465358Y-121354432D01*
X131475852Y-121389026D01*
X131480000Y-121431141D01*
X131480000Y-121450000D01*
X131482402Y-121474386D01*
X131489515Y-121497835D01*
X131501066Y-121519446D01*
X131516612Y-121538388D01*
X131535554Y-121553934D01*
X131557165Y-121565485D01*
X131580614Y-121572598D01*
X131605000Y-121575000D01*
X132365000Y-121575000D01*
X132389386Y-121572598D01*
X132412835Y-121565485D01*
X132434446Y-121553934D01*
X132453388Y-121538388D01*
X132468934Y-121519446D01*
X132480485Y-121497835D01*
X132487598Y-121474386D01*
X132490000Y-121450000D01*
X134590000Y-121450000D01*
X134592402Y-121474386D01*
X134599515Y-121497835D01*
X134611066Y-121519446D01*
X134626612Y-121538388D01*
X134645554Y-121553934D01*
X134667165Y-121565485D01*
X134690614Y-121572598D01*
X134715000Y-121575000D01*
X135395000Y-121575000D01*
X135395000Y-124325000D01*
X134715000Y-124325000D01*
X134690614Y-124327402D01*
X134667165Y-124334515D01*
X134645554Y-124346066D01*
X134626612Y-124361612D01*
X134611066Y-124380554D01*
X134599515Y-124402165D01*
X134592402Y-124425614D01*
X134590000Y-124450000D01*
X132490000Y-124450000D01*
X132487598Y-124425614D01*
X132480485Y-124402165D01*
X132468934Y-124380554D01*
X132453388Y-124361612D01*
X132434446Y-124346066D01*
X132412835Y-124334515D01*
X132389386Y-124327402D01*
X132365000Y-124325000D01*
X131597322Y-124325000D01*
X131584386Y-124321076D01*
X131560000Y-124318674D01*
X131535614Y-124321076D01*
X131512165Y-124328189D01*
X131490554Y-124339740D01*
X131471612Y-124355286D01*
X131456066Y-124374228D01*
X131449759Y-124384751D01*
X131444210Y-124395132D01*
X131440243Y-124401069D01*
X131430864Y-124423708D01*
X131426083Y-124447741D01*
X131426081Y-124472245D01*
X131430860Y-124496279D01*
X131440237Y-124518918D01*
X131444205Y-124524858D01*
X131465358Y-124564432D01*
X131475852Y-124599026D01*
X131480000Y-124641141D01*
X131480000Y-125248859D01*
X131475852Y-125290974D01*
X131465358Y-125325568D01*
X131448322Y-125357441D01*
X131425387Y-125385387D01*
X131397441Y-125408322D01*
X131365568Y-125425358D01*
X131330974Y-125435852D01*
X131288859Y-125440000D01*
X130631141Y-125440000D01*
X130589026Y-125435852D01*
X130554432Y-125425358D01*
X130522559Y-125408322D01*
X130494613Y-125385387D01*
X130471678Y-125357441D01*
X130454642Y-125325568D01*
X130444148Y-125290974D01*
X130440000Y-125248859D01*
X130440000Y-124641141D01*
X130444148Y-124599026D01*
X130454642Y-124564432D01*
X130475787Y-124524872D01*
X130479757Y-124518931D01*
X130489136Y-124496292D01*
X130493917Y-124472259D01*
X130493919Y-124447755D01*
X130489140Y-124423721D01*
X130479763Y-124401082D01*
X130475795Y-124395142D01*
X130454642Y-124355568D01*
X130444148Y-124320974D01*
X130440000Y-124278859D01*
X130440000Y-123671141D01*
X130444148Y-123629026D01*
X130454642Y-123594432D01*
X130471678Y-123562559D01*
X130494613Y-123534613D01*
X130522559Y-123511678D01*
X130554432Y-123494642D01*
X130589026Y-123484148D01*
X130631141Y-123480000D01*
X131288859Y-123480000D01*
X131330974Y-123484148D01*
X131365568Y-123494642D01*
X131397441Y-123511678D01*
X131425387Y-123534613D01*
X131448320Y-123562557D01*
X131449759Y-123565249D01*
X131463373Y-123585624D01*
X131480700Y-123602951D01*
X131501074Y-123616565D01*
X131523713Y-123625943D01*
X131547746Y-123630724D01*
X131572251Y-123630724D01*
X131596284Y-123625944D01*
X131618923Y-123616567D01*
X131639298Y-123602953D01*
X131656625Y-123585626D01*
X131670239Y-123565252D01*
X131679617Y-123542613D01*
X131684398Y-123518580D01*
X131685000Y-123506326D01*
X131685000Y-123173674D01*
X131682598Y-123149288D01*
X131675485Y-123125839D01*
X131663934Y-123104228D01*
X131648388Y-123085286D01*
X131629446Y-123069740D01*
X131607835Y-123058189D01*
X131584386Y-123051076D01*
X131560000Y-123048674D01*
X131535614Y-123051076D01*
X131512165Y-123058189D01*
X131490554Y-123069740D01*
X131471612Y-123085286D01*
X131456066Y-123104228D01*
X131449759Y-123114751D01*
X131448320Y-123117443D01*
X131425387Y-123145387D01*
X131397441Y-123168322D01*
X131365568Y-123185358D01*
X131330974Y-123195852D01*
X131288859Y-123200000D01*
X130631141Y-123200000D01*
X130589026Y-123195852D01*
X130554432Y-123185358D01*
X130522559Y-123168322D01*
X130494613Y-123145387D01*
X130471678Y-123117441D01*
X130454642Y-123085568D01*
X130444148Y-123050974D01*
X130440000Y-123008859D01*
X130440000Y-122401141D01*
X130444148Y-122359026D01*
X130454642Y-122324432D01*
X130475787Y-122284872D01*
X130479757Y-122278931D01*
X130489136Y-122256292D01*
X130493917Y-122232259D01*
X130493917Y-122232245D01*
X131426081Y-122232245D01*
X131430860Y-122256279D01*
X131440237Y-122278918D01*
X131444203Y-122284854D01*
X131449759Y-122295249D01*
X131463373Y-122315624D01*
X131480700Y-122332951D01*
X131501074Y-122346565D01*
X131523713Y-122355943D01*
X131547746Y-122360724D01*
X131572251Y-122360724D01*
X131596284Y-122355944D01*
X131618923Y-122346567D01*
X131639298Y-122332953D01*
X131656625Y-122315626D01*
X131670239Y-122295252D01*
X131679617Y-122272613D01*
X131684398Y-122248580D01*
X131685000Y-122236326D01*
X131685000Y-122203674D01*
X131682598Y-122179288D01*
X131675485Y-122155839D01*
X131663934Y-122134228D01*
X131648388Y-122115286D01*
X131629446Y-122099740D01*
X131607835Y-122088189D01*
X131584386Y-122081076D01*
X131560000Y-122078674D01*
X131535614Y-122081076D01*
X131512165Y-122088189D01*
X131490554Y-122099740D01*
X131471612Y-122115286D01*
X131456066Y-122134228D01*
X131449759Y-122144751D01*
X131444210Y-122155132D01*
X131440243Y-122161069D01*
X131430864Y-122183708D01*
X131426083Y-122207741D01*
X131426081Y-122232245D01*
X130493917Y-122232245D01*
X130493919Y-122207755D01*
X130489140Y-122183721D01*
X130479763Y-122161082D01*
X130475795Y-122155142D01*
X130454642Y-122115568D01*
X130444148Y-122080974D01*
X130440000Y-122038859D01*
X130440000Y-121431141D01*
X130444148Y-121389026D01*
X130454642Y-121354432D01*
X130471678Y-121322559D01*
X130494613Y-121294613D01*
X130522559Y-121271678D01*
X130554432Y-121254642D01*
X130589026Y-121244148D01*
X130631141Y-121240000D01*
X131288859Y-121240000D01*
X131330974Y-121244148D01*
X131330974Y-121244148D01*
G37*
G36*
X108851904Y-120122979D02*
X109200054Y-120192230D01*
X109636826Y-120373147D01*
X110029911Y-120635798D01*
X110364202Y-120970089D01*
X110626853Y-121363174D01*
X110807770Y-121799946D01*
X110870551Y-122115568D01*
X110900000Y-122263619D01*
X110900000Y-122736381D01*
X110886389Y-122804807D01*
X110807770Y-123200054D01*
X110626853Y-123636826D01*
X110364202Y-124029911D01*
X110029911Y-124364202D01*
X109636826Y-124626853D01*
X109200054Y-124807770D01*
X108851904Y-124877021D01*
X108736381Y-124900000D01*
X108263619Y-124900000D01*
X108148096Y-124877021D01*
X107799946Y-124807770D01*
X107363174Y-124626853D01*
X106970089Y-124364202D01*
X106635798Y-124029911D01*
X106373147Y-123636826D01*
X106192230Y-123200054D01*
X106113611Y-122804807D01*
X106100000Y-122736381D01*
X106100000Y-122263619D01*
X106129449Y-122115568D01*
X106192230Y-121799946D01*
X106373147Y-121363174D01*
X106635798Y-120970089D01*
X106970089Y-120635798D01*
X107363174Y-120373147D01*
X107799946Y-120192230D01*
X108148096Y-120122979D01*
X108263619Y-120100000D01*
X108736381Y-120100000D01*
X108851904Y-120122979D01*
X108851904Y-120122979D01*
G37*
G36*
X138851904Y-120122979D02*
X139200054Y-120192230D01*
X139636826Y-120373147D01*
X140029911Y-120635798D01*
X140364202Y-120970089D01*
X140626853Y-121363174D01*
X140807770Y-121799946D01*
X140870551Y-122115568D01*
X140900000Y-122263619D01*
X140900000Y-122736381D01*
X140886389Y-122804807D01*
X140807770Y-123200054D01*
X140626853Y-123636826D01*
X140364202Y-124029911D01*
X140029911Y-124364202D01*
X139636826Y-124626853D01*
X139200054Y-124807770D01*
X138851904Y-124877021D01*
X138736381Y-124900000D01*
X138263619Y-124900000D01*
X138148096Y-124877021D01*
X137799946Y-124807770D01*
X137363174Y-124626853D01*
X136970089Y-124364202D01*
X136635798Y-124029911D01*
X136373147Y-123636826D01*
X136192230Y-123200054D01*
X136113611Y-122804807D01*
X136100000Y-122736381D01*
X136100000Y-122263619D01*
X136129449Y-122115568D01*
X136192230Y-121799946D01*
X136373147Y-121363174D01*
X136635798Y-120970089D01*
X136970089Y-120635798D01*
X137363174Y-120373147D01*
X137799946Y-120192230D01*
X138148096Y-120122979D01*
X138263619Y-120100000D01*
X138736381Y-120100000D01*
X138851904Y-120122979D01*
X138851904Y-120122979D01*
G37*
G36*
X129670974Y-122624148D02*
X129705568Y-122634642D01*
X129737441Y-122651678D01*
X129765387Y-122674613D01*
X129788322Y-122702559D01*
X129805358Y-122734432D01*
X129815852Y-122769026D01*
X129820000Y-122811141D01*
X129820000Y-123418859D01*
X129815852Y-123460974D01*
X129805358Y-123495568D01*
X129784213Y-123535128D01*
X129780243Y-123541069D01*
X129770864Y-123563708D01*
X129766083Y-123587741D01*
X129766081Y-123612245D01*
X129770860Y-123636279D01*
X129780237Y-123658918D01*
X129784205Y-123664858D01*
X129805358Y-123704432D01*
X129815852Y-123739026D01*
X129820000Y-123781141D01*
X129820000Y-124388859D01*
X129815852Y-124430974D01*
X129805358Y-124465568D01*
X129788322Y-124497441D01*
X129765387Y-124525387D01*
X129737441Y-124548322D01*
X129705568Y-124565358D01*
X129670974Y-124575852D01*
X129628859Y-124580000D01*
X128971141Y-124580000D01*
X128929026Y-124575852D01*
X128894432Y-124565358D01*
X128862559Y-124548322D01*
X128834613Y-124525387D01*
X128811678Y-124497441D01*
X128794642Y-124465568D01*
X128784148Y-124430974D01*
X128780000Y-124388859D01*
X128780000Y-123781141D01*
X128784148Y-123739026D01*
X128794642Y-123704432D01*
X128815787Y-123664872D01*
X128819757Y-123658931D01*
X128829136Y-123636292D01*
X128833917Y-123612259D01*
X128833919Y-123587755D01*
X128829140Y-123563721D01*
X128819763Y-123541082D01*
X128815795Y-123535142D01*
X128794642Y-123495568D01*
X128784148Y-123460974D01*
X128780000Y-123418859D01*
X128780000Y-122811141D01*
X128784148Y-122769026D01*
X128794642Y-122734432D01*
X128811678Y-122702559D01*
X128834613Y-122674613D01*
X128862559Y-122651678D01*
X128894432Y-122634642D01*
X128929026Y-122624148D01*
X128971141Y-122620000D01*
X129628859Y-122620000D01*
X129670974Y-122624148D01*
X129670974Y-122624148D01*
G37*
G36*
X119250000Y-123425000D02*
X117850000Y-123425000D01*
X117850000Y-122325000D01*
X119250000Y-122325000D01*
X119250000Y-123425000D01*
X119250000Y-123425000D01*
G37*
G36*
X114750000Y-123425000D02*
X113350000Y-123425000D01*
X113350000Y-122325000D01*
X114750000Y-122325000D01*
X114750000Y-123425000D01*
X114750000Y-123425000D01*
G37*
G36*
X126125857Y-120772272D02*
X126326042Y-120855191D01*
X126326045Y-120855193D01*
X126497999Y-120970089D01*
X126506213Y-120975578D01*
X126659422Y-121128787D01*
X126659424Y-121128790D01*
X126659425Y-121128791D01*
X126777327Y-121305244D01*
X126779809Y-121308958D01*
X126862728Y-121509143D01*
X126905000Y-121721658D01*
X126905000Y-121938342D01*
X126862728Y-122150857D01*
X126779809Y-122351042D01*
X126779807Y-122351045D01*
X126663574Y-122525000D01*
X126659422Y-122531213D01*
X126506213Y-122684422D01*
X126506210Y-122684424D01*
X126506209Y-122684425D01*
X126379595Y-122769026D01*
X126326042Y-122804809D01*
X126125857Y-122887728D01*
X125913342Y-122930000D01*
X125696658Y-122930000D01*
X125484143Y-122887728D01*
X125283958Y-122804809D01*
X125230405Y-122769026D01*
X125103791Y-122684425D01*
X125103790Y-122684424D01*
X125103787Y-122684422D01*
X124950578Y-122531213D01*
X124946427Y-122525000D01*
X124830193Y-122351045D01*
X124830191Y-122351042D01*
X124747272Y-122150857D01*
X124705000Y-121938342D01*
X124705000Y-121721658D01*
X124747272Y-121509143D01*
X124830191Y-121308958D01*
X124832673Y-121305244D01*
X124950575Y-121128791D01*
X124950576Y-121128790D01*
X124950578Y-121128787D01*
X125103787Y-120975578D01*
X125112002Y-120970089D01*
X125283955Y-120855193D01*
X125283958Y-120855191D01*
X125484143Y-120772272D01*
X125696658Y-120730000D01*
X125913342Y-120730000D01*
X126125857Y-120772272D01*
X126125857Y-120772272D01*
G37*
G36*
X123585857Y-120772272D02*
X123786042Y-120855191D01*
X123786045Y-120855193D01*
X123957999Y-120970089D01*
X123966213Y-120975578D01*
X124119422Y-121128787D01*
X124119424Y-121128790D01*
X124119425Y-121128791D01*
X124237327Y-121305244D01*
X124239809Y-121308958D01*
X124322728Y-121509143D01*
X124365000Y-121721658D01*
X124365000Y-121938342D01*
X124322728Y-122150857D01*
X124239809Y-122351042D01*
X124239807Y-122351045D01*
X124123574Y-122525000D01*
X124119422Y-122531213D01*
X123966213Y-122684422D01*
X123966210Y-122684424D01*
X123966209Y-122684425D01*
X123839595Y-122769026D01*
X123786042Y-122804809D01*
X123585857Y-122887728D01*
X123373342Y-122930000D01*
X123156658Y-122930000D01*
X122944143Y-122887728D01*
X122743958Y-122804809D01*
X122690405Y-122769026D01*
X122563791Y-122684425D01*
X122563790Y-122684424D01*
X122563787Y-122684422D01*
X122410578Y-122531213D01*
X122406427Y-122525000D01*
X122290193Y-122351045D01*
X122290191Y-122351042D01*
X122207272Y-122150857D01*
X122165000Y-121938342D01*
X122165000Y-121721658D01*
X122207272Y-121509143D01*
X122290191Y-121308958D01*
X122292673Y-121305244D01*
X122410575Y-121128791D01*
X122410576Y-121128790D01*
X122410578Y-121128787D01*
X122563787Y-120975578D01*
X122572002Y-120970089D01*
X122743955Y-120855193D01*
X122743958Y-120855191D01*
X122944143Y-120772272D01*
X123156658Y-120730000D01*
X123373342Y-120730000D01*
X123585857Y-120772272D01*
X123585857Y-120772272D01*
G37*
G36*
X129670974Y-120324148D02*
X129705568Y-120334642D01*
X129737441Y-120351678D01*
X129765387Y-120374613D01*
X129788322Y-120402559D01*
X129805358Y-120434432D01*
X129815852Y-120469026D01*
X129820000Y-120511141D01*
X129820000Y-121118859D01*
X129815852Y-121160974D01*
X129805358Y-121195568D01*
X129784213Y-121235128D01*
X129780243Y-121241069D01*
X129770864Y-121263708D01*
X129766083Y-121287741D01*
X129766081Y-121312245D01*
X129770860Y-121336279D01*
X129780237Y-121358918D01*
X129784205Y-121364858D01*
X129805358Y-121404432D01*
X129815852Y-121439026D01*
X129820000Y-121481141D01*
X129820000Y-122088859D01*
X129815852Y-122130974D01*
X129805358Y-122165568D01*
X129788322Y-122197441D01*
X129765387Y-122225387D01*
X129737441Y-122248322D01*
X129705568Y-122265358D01*
X129670974Y-122275852D01*
X129628859Y-122280000D01*
X128971141Y-122280000D01*
X128929026Y-122275852D01*
X128894432Y-122265358D01*
X128862559Y-122248322D01*
X128834613Y-122225387D01*
X128811678Y-122197441D01*
X128794642Y-122165568D01*
X128784148Y-122130974D01*
X128780000Y-122088859D01*
X128780000Y-121481141D01*
X128784148Y-121439026D01*
X128794642Y-121404432D01*
X128815787Y-121364872D01*
X128819757Y-121358931D01*
X128829136Y-121336292D01*
X128833917Y-121312259D01*
X128833919Y-121287755D01*
X128829140Y-121263721D01*
X128819763Y-121241082D01*
X128815795Y-121235142D01*
X128794642Y-121195568D01*
X128784148Y-121160974D01*
X128780000Y-121118859D01*
X128780000Y-120511141D01*
X128784148Y-120469026D01*
X128794642Y-120434432D01*
X128811678Y-120402559D01*
X128834613Y-120374613D01*
X128862559Y-120351678D01*
X128894432Y-120334642D01*
X128929026Y-120324148D01*
X128971141Y-120320000D01*
X129628859Y-120320000D01*
X129670974Y-120324148D01*
X129670974Y-120324148D01*
G37*
G36*
X114750000Y-121275000D02*
X113350000Y-121275000D01*
X113350000Y-120175000D01*
X114750000Y-120175000D01*
X114750000Y-121275000D01*
X114750000Y-121275000D01*
G37*
G36*
X119250000Y-121275000D02*
X117850000Y-121275000D01*
X117850000Y-120175000D01*
X119250000Y-120175000D01*
X119250000Y-121275000D01*
X119250000Y-121275000D01*
G37*
M02*
