M48
;DRILL file {KiCad 5.0.2-bee76a0~70~ubuntu18.04.1} date Fr 17 Jan 2020 11:17:43 CET
;FORMAT={-:-/ absolute / inch / decimal}
FMAT,2
INCH,TZ
T1C0.0394
T2C0.0472
T3C0.0669
%
G90
G05
T1
X0.2402Y-0.9134
X0.2402Y-1.0134
X0.2402Y-1.1134
X0.2402Y-1.2134
X0.2402Y-1.3134
T2
X0.9581Y-0.6693
X0.9581Y-0.8071
X2.2573Y-0.6693
X0.9581Y-0.1969
X0.9581Y-0.3346
X2.2573Y-0.1969
X0.9581Y-1.1417
X0.9581Y-1.2795
X2.2573Y-1.1417
T3
X1.1116Y-0.9035
X1.1589Y-0.5728
X2.0565Y-0.5728
X2.1037Y-0.9035
X1.1116Y-0.4311
X1.1589Y-0.1004
X2.0565Y-0.1004
X2.1037Y-0.4311
X1.1116Y-1.376
X1.1589Y-1.0453
X2.0565Y-1.0453
X2.1037Y-1.376
T0
M30
