G04 #@! TF.GenerationSoftware,KiCad,Pcbnew,5.0.2-bee76a0~70~ubuntu18.04.1*
G04 #@! TF.CreationDate,2020-01-17T11:17:40+01:00*
G04 #@! TF.ProjectId,tcut1350_test,74637574-3133-4353-905f-746573742e6b,rev?*
G04 #@! TF.SameCoordinates,Original*
G04 #@! TF.FileFunction,Copper,L1,Top*
G04 #@! TF.FilePolarity,Positive*
%FSLAX46Y46*%
G04 Gerber Fmt 4.6, Leading zero omitted, Abs format (unit mm)*
G04 Created by KiCad (PCBNEW 5.0.2-bee76a0~70~ubuntu18.04.1) date Fr 17 Jan 2020 11:17:40 CET*
%MOMM*%
%LPD*%
G01*
G04 APERTURE LIST*
G04 #@! TA.AperFunction,SMDPad,CuDef*
%ADD10R,2.000000X0.700000*%
G04 #@! TD*
G04 #@! TA.AperFunction,ComponentPad*
%ADD11R,1.700000X1.700000*%
G04 #@! TD*
G04 #@! TA.AperFunction,ComponentPad*
%ADD12O,1.700000X1.700000*%
G04 #@! TD*
G04 #@! TA.AperFunction,ComponentPad*
%ADD13R,1.750000X1.750000*%
G04 #@! TD*
G04 #@! TA.AperFunction,ComponentPad*
%ADD14C,1.750000*%
G04 #@! TD*
G04 #@! TA.AperFunction,ComponentPad*
%ADD15C,2.700000*%
G04 #@! TD*
G04 #@! TA.AperFunction,Conductor*
%ADD16C,0.500000*%
G04 #@! TD*
G04 APERTURE END LIST*
D10*
G04 #@! TO.P,J1,5*
G04 #@! TO.N,Net-(J1-Pad5)*
X12950000Y-24000000D03*
G04 #@! TO.P,J1,6*
G04 #@! TO.N,GND*
X12950000Y-25400000D03*
G04 #@! TO.P,J1,4*
G04 #@! TO.N,Net-(J1-Pad4)*
X12950000Y-22600000D03*
G04 #@! TO.P,J1,3*
G04 #@! TO.N,+3V3*
X17050000Y-22600000D03*
G04 #@! TO.P,J1,2*
G04 #@! TO.N,Net-(J1-Pad2)*
X17050000Y-24000000D03*
G04 #@! TO.P,J1,1*
G04 #@! TO.N,Net-(J1-Pad1)*
X17050000Y-25400000D03*
G04 #@! TD*
D11*
G04 #@! TO.P,J2,1*
G04 #@! TO.N,+3V3*
X6100000Y-23200000D03*
D12*
G04 #@! TO.P,J2,2*
G04 #@! TO.N,GND*
X6100000Y-25740000D03*
G04 #@! TO.P,J2,3*
G04 #@! TO.N,Net-(J1-Pad4)*
X6100000Y-28280000D03*
G04 #@! TO.P,J2,4*
G04 #@! TO.N,Net-(J1-Pad2)*
X6100000Y-30820000D03*
G04 #@! TO.P,J2,5*
G04 #@! TO.N,Net-(J1-Pad1)*
X6100000Y-33360000D03*
G04 #@! TD*
D13*
G04 #@! TO.P,RV1,1*
G04 #@! TO.N,Net-(RV1-Pad1)*
X24335001Y-17000000D03*
D14*
G04 #@! TO.P,RV1,2*
G04 #@! TO.N,Net-(J1-Pad2)*
X24335001Y-20500000D03*
G04 #@! TO.P,RV1,3*
G04 #@! TO.N,GND*
X57335001Y-17000000D03*
D15*
G04 #@! TO.P,RV1,MP*
G04 #@! TO.N,N/C*
X29435001Y-14550000D03*
X52235001Y-14550000D03*
X28235001Y-22950000D03*
X53435001Y-22950000D03*
G04 #@! TD*
G04 #@! TO.P,RV2,MP*
G04 #@! TO.N,N/C*
X53435001Y-10950000D03*
X28235001Y-10950000D03*
X52235001Y-2550000D03*
X29435001Y-2550000D03*
D14*
G04 #@! TO.P,RV2,3*
G04 #@! TO.N,GND*
X57335001Y-5000000D03*
G04 #@! TO.P,RV2,2*
G04 #@! TO.N,Net-(J1-Pad4)*
X24335001Y-8500000D03*
D13*
G04 #@! TO.P,RV2,1*
G04 #@! TO.N,Net-(RV2-Pad1)*
X24335001Y-5000000D03*
G04 #@! TD*
G04 #@! TO.P,RV3,1*
G04 #@! TO.N,Net-(RV3-Pad1)*
X24335001Y-29000000D03*
D14*
G04 #@! TO.P,RV3,2*
G04 #@! TO.N,Net-(J1-Pad1)*
X24335001Y-32500000D03*
G04 #@! TO.P,RV3,3*
G04 #@! TO.N,GND*
X57335001Y-29000000D03*
D15*
G04 #@! TO.P,RV3,MP*
G04 #@! TO.N,N/C*
X29435001Y-26550000D03*
X52235001Y-26550000D03*
X28235001Y-34950000D03*
X53435001Y-34950000D03*
G04 #@! TD*
D16*
G04 #@! TO.N,GND*
X57335001Y-6237436D02*
X57335001Y-29000000D01*
X57335001Y-5000000D02*
X57335001Y-6237436D01*
X6760000Y-25740000D02*
X6100000Y-25740000D01*
X13800000Y-25400000D02*
X14800000Y-24400000D01*
X13450000Y-25400000D02*
X13800000Y-25400000D01*
X14800000Y-21700000D02*
X14500000Y-21400000D01*
X14800000Y-24400000D02*
X14800000Y-21700000D01*
X11100000Y-21400000D02*
X6760000Y-25740000D01*
X14500000Y-21400000D02*
X11100000Y-21400000D01*
X4600000Y-18700000D02*
X55635001Y-18700000D01*
X55635001Y-18700000D02*
X57335001Y-17000000D01*
X3300000Y-20000000D02*
X4600000Y-18700000D01*
X3300000Y-24800000D02*
X3300000Y-20000000D01*
X6100000Y-25740000D02*
X4240000Y-25740000D01*
X4240000Y-25740000D02*
X3300000Y-24800000D01*
G04 #@! TO.N,Net-(J1-Pad4)*
X11780000Y-22600000D02*
X6100000Y-28280000D01*
X13450000Y-22600000D02*
X11780000Y-22600000D01*
X6100000Y-28280000D02*
X3580000Y-28280000D01*
X3580000Y-28280000D02*
X1700000Y-26400000D01*
X1700000Y-26400000D02*
X1700000Y-18300000D01*
X11500000Y-8500000D02*
X24335001Y-8500000D01*
X1700000Y-18300000D02*
X11500000Y-8500000D01*
G04 #@! TO.N,+3V3*
X7450000Y-23200000D02*
X10150000Y-20500000D01*
X6100000Y-23200000D02*
X7450000Y-23200000D01*
X10150000Y-20500000D02*
X15500000Y-20500000D01*
X16550000Y-21550000D02*
X16550000Y-22600000D01*
X15500000Y-20500000D02*
X16550000Y-21550000D01*
G04 #@! TO.N,Net-(J1-Pad2)*
X16550000Y-24000000D02*
X20835001Y-24000000D01*
X21800000Y-23035001D02*
X24335001Y-20500000D01*
X20835001Y-24000000D02*
X21800000Y-23035001D01*
X11780000Y-30820000D02*
X6100000Y-30820000D01*
X15400000Y-27200000D02*
X11780000Y-30820000D01*
X15400000Y-24889998D02*
X15400000Y-27200000D01*
X16550000Y-24000000D02*
X16289998Y-24000000D01*
X16289998Y-24000000D02*
X15400000Y-24889998D01*
G04 #@! TO.N,Net-(J1-Pad1)*
X23460002Y-31625001D02*
X20125001Y-31625001D01*
X24335001Y-32500000D02*
X23460002Y-31625001D01*
X16550000Y-28050000D02*
X16550000Y-25400000D01*
X20125001Y-31625001D02*
X16550000Y-28050000D01*
X11240000Y-33360000D02*
X16550000Y-28050000D01*
X6100000Y-33360000D02*
X11240000Y-33360000D01*
G04 #@! TD*
M02*
