G04 #@! TF.GenerationSoftware,KiCad,Pcbnew,5.1.5-52549c5~84~ubuntu18.04.1*
G04 #@! TF.CreationDate,2019-11-22T10:47:09+01:00*
G04 #@! TF.ProjectId,roboy_sno,726f626f-795f-4736-9e6f-2e6b69636164,rev?*
G04 #@! TF.SameCoordinates,Original*
G04 #@! TF.FileFunction,Paste,Top*
G04 #@! TF.FilePolarity,Positive*
%FSLAX46Y46*%
G04 Gerber Fmt 4.6, Leading zero omitted, Abs format (unit mm)*
G04 Created by KiCad (PCBNEW 5.1.5-52549c5~84~ubuntu18.04.1) date 2019-11-22 10:47:09*
%MOMM*%
%LPD*%
G04 APERTURE LIST*
%ADD10R,1.000000X1.000000*%
%ADD11O,0.900000X2.500000*%
%ADD12O,2.500000X0.900000*%
%ADD13R,6.000000X6.000000*%
%ADD14C,0.100000*%
%ADD15R,0.630000X0.450000*%
%ADD16R,0.660000X0.730000*%
%ADD17R,1.000000X0.700000*%
%ADD18R,3.000000X1.000000*%
G04 APERTURE END LIST*
D10*
X83175000Y-127350000D03*
X81425000Y-127350000D03*
X83175000Y-130850000D03*
X81425000Y-130850000D03*
D11*
X138346000Y-139556000D03*
X137076000Y-139556000D03*
X135806000Y-139556000D03*
X134536000Y-139556000D03*
X133266000Y-139556000D03*
X131996000Y-139556000D03*
X130726000Y-139556000D03*
X129456000Y-139556000D03*
X128186000Y-139556000D03*
X126916000Y-139556000D03*
X125646000Y-139556000D03*
X124376000Y-139556000D03*
X123106000Y-139556000D03*
X121836000Y-139556000D03*
D12*
X120346000Y-136271000D03*
X120346000Y-135001000D03*
X120346000Y-133731000D03*
X120346000Y-132461000D03*
X120346000Y-131191000D03*
X120346000Y-129921000D03*
X120346000Y-128651000D03*
X120346000Y-127381000D03*
X120346000Y-126111000D03*
X120346000Y-124841000D03*
D11*
X121836000Y-121556000D03*
X123106000Y-121556000D03*
X124376000Y-121556000D03*
X125646000Y-121556000D03*
X126916000Y-121556000D03*
X128186000Y-121556000D03*
X129456000Y-121556000D03*
X130726000Y-121556000D03*
X131996000Y-121556000D03*
X133266000Y-121556000D03*
X134536000Y-121556000D03*
X135806000Y-121556000D03*
X137076000Y-121556000D03*
X138346000Y-121556000D03*
D13*
X130646000Y-130256000D03*
D14*
G36*
X118186958Y-120820710D02*
G01*
X118201276Y-120822834D01*
X118215317Y-120826351D01*
X118228946Y-120831228D01*
X118242031Y-120837417D01*
X118254447Y-120844858D01*
X118266073Y-120853481D01*
X118276798Y-120863202D01*
X118286519Y-120873927D01*
X118295142Y-120885553D01*
X118302583Y-120897969D01*
X118308772Y-120911054D01*
X118313649Y-120924683D01*
X118317166Y-120938724D01*
X118319290Y-120953042D01*
X118320000Y-120967500D01*
X118320000Y-121262500D01*
X118319290Y-121276958D01*
X118317166Y-121291276D01*
X118313649Y-121305317D01*
X118308772Y-121318946D01*
X118302583Y-121332031D01*
X118295142Y-121344447D01*
X118286519Y-121356073D01*
X118276798Y-121366798D01*
X118266073Y-121376519D01*
X118254447Y-121385142D01*
X118242031Y-121392583D01*
X118228946Y-121398772D01*
X118215317Y-121403649D01*
X118201276Y-121407166D01*
X118186958Y-121409290D01*
X118172500Y-121410000D01*
X117827500Y-121410000D01*
X117813042Y-121409290D01*
X117798724Y-121407166D01*
X117784683Y-121403649D01*
X117771054Y-121398772D01*
X117757969Y-121392583D01*
X117745553Y-121385142D01*
X117733927Y-121376519D01*
X117723202Y-121366798D01*
X117713481Y-121356073D01*
X117704858Y-121344447D01*
X117697417Y-121332031D01*
X117691228Y-121318946D01*
X117686351Y-121305317D01*
X117682834Y-121291276D01*
X117680710Y-121276958D01*
X117680000Y-121262500D01*
X117680000Y-120967500D01*
X117680710Y-120953042D01*
X117682834Y-120938724D01*
X117686351Y-120924683D01*
X117691228Y-120911054D01*
X117697417Y-120897969D01*
X117704858Y-120885553D01*
X117713481Y-120873927D01*
X117723202Y-120863202D01*
X117733927Y-120853481D01*
X117745553Y-120844858D01*
X117757969Y-120837417D01*
X117771054Y-120831228D01*
X117784683Y-120826351D01*
X117798724Y-120822834D01*
X117813042Y-120820710D01*
X117827500Y-120820000D01*
X118172500Y-120820000D01*
X118186958Y-120820710D01*
G37*
G36*
X118186958Y-121790710D02*
G01*
X118201276Y-121792834D01*
X118215317Y-121796351D01*
X118228946Y-121801228D01*
X118242031Y-121807417D01*
X118254447Y-121814858D01*
X118266073Y-121823481D01*
X118276798Y-121833202D01*
X118286519Y-121843927D01*
X118295142Y-121855553D01*
X118302583Y-121867969D01*
X118308772Y-121881054D01*
X118313649Y-121894683D01*
X118317166Y-121908724D01*
X118319290Y-121923042D01*
X118320000Y-121937500D01*
X118320000Y-122232500D01*
X118319290Y-122246958D01*
X118317166Y-122261276D01*
X118313649Y-122275317D01*
X118308772Y-122288946D01*
X118302583Y-122302031D01*
X118295142Y-122314447D01*
X118286519Y-122326073D01*
X118276798Y-122336798D01*
X118266073Y-122346519D01*
X118254447Y-122355142D01*
X118242031Y-122362583D01*
X118228946Y-122368772D01*
X118215317Y-122373649D01*
X118201276Y-122377166D01*
X118186958Y-122379290D01*
X118172500Y-122380000D01*
X117827500Y-122380000D01*
X117813042Y-122379290D01*
X117798724Y-122377166D01*
X117784683Y-122373649D01*
X117771054Y-122368772D01*
X117757969Y-122362583D01*
X117745553Y-122355142D01*
X117733927Y-122346519D01*
X117723202Y-122336798D01*
X117713481Y-122326073D01*
X117704858Y-122314447D01*
X117697417Y-122302031D01*
X117691228Y-122288946D01*
X117686351Y-122275317D01*
X117682834Y-122261276D01*
X117680710Y-122246958D01*
X117680000Y-122232500D01*
X117680000Y-121937500D01*
X117680710Y-121923042D01*
X117682834Y-121908724D01*
X117686351Y-121894683D01*
X117691228Y-121881054D01*
X117697417Y-121867969D01*
X117704858Y-121855553D01*
X117713481Y-121843927D01*
X117723202Y-121833202D01*
X117733927Y-121823481D01*
X117745553Y-121814858D01*
X117757969Y-121807417D01*
X117771054Y-121801228D01*
X117784683Y-121796351D01*
X117798724Y-121792834D01*
X117813042Y-121790710D01*
X117827500Y-121790000D01*
X118172500Y-121790000D01*
X118186958Y-121790710D01*
G37*
G36*
X92786958Y-132390710D02*
G01*
X92801276Y-132392834D01*
X92815317Y-132396351D01*
X92828946Y-132401228D01*
X92842031Y-132407417D01*
X92854447Y-132414858D01*
X92866073Y-132423481D01*
X92876798Y-132433202D01*
X92886519Y-132443927D01*
X92895142Y-132455553D01*
X92902583Y-132467969D01*
X92908772Y-132481054D01*
X92913649Y-132494683D01*
X92917166Y-132508724D01*
X92919290Y-132523042D01*
X92920000Y-132537500D01*
X92920000Y-132832500D01*
X92919290Y-132846958D01*
X92917166Y-132861276D01*
X92913649Y-132875317D01*
X92908772Y-132888946D01*
X92902583Y-132902031D01*
X92895142Y-132914447D01*
X92886519Y-132926073D01*
X92876798Y-132936798D01*
X92866073Y-132946519D01*
X92854447Y-132955142D01*
X92842031Y-132962583D01*
X92828946Y-132968772D01*
X92815317Y-132973649D01*
X92801276Y-132977166D01*
X92786958Y-132979290D01*
X92772500Y-132980000D01*
X92427500Y-132980000D01*
X92413042Y-132979290D01*
X92398724Y-132977166D01*
X92384683Y-132973649D01*
X92371054Y-132968772D01*
X92357969Y-132962583D01*
X92345553Y-132955142D01*
X92333927Y-132946519D01*
X92323202Y-132936798D01*
X92313481Y-132926073D01*
X92304858Y-132914447D01*
X92297417Y-132902031D01*
X92291228Y-132888946D01*
X92286351Y-132875317D01*
X92282834Y-132861276D01*
X92280710Y-132846958D01*
X92280000Y-132832500D01*
X92280000Y-132537500D01*
X92280710Y-132523042D01*
X92282834Y-132508724D01*
X92286351Y-132494683D01*
X92291228Y-132481054D01*
X92297417Y-132467969D01*
X92304858Y-132455553D01*
X92313481Y-132443927D01*
X92323202Y-132433202D01*
X92333927Y-132423481D01*
X92345553Y-132414858D01*
X92357969Y-132407417D01*
X92371054Y-132401228D01*
X92384683Y-132396351D01*
X92398724Y-132392834D01*
X92413042Y-132390710D01*
X92427500Y-132390000D01*
X92772500Y-132390000D01*
X92786958Y-132390710D01*
G37*
G36*
X92786958Y-131420710D02*
G01*
X92801276Y-131422834D01*
X92815317Y-131426351D01*
X92828946Y-131431228D01*
X92842031Y-131437417D01*
X92854447Y-131444858D01*
X92866073Y-131453481D01*
X92876798Y-131463202D01*
X92886519Y-131473927D01*
X92895142Y-131485553D01*
X92902583Y-131497969D01*
X92908772Y-131511054D01*
X92913649Y-131524683D01*
X92917166Y-131538724D01*
X92919290Y-131553042D01*
X92920000Y-131567500D01*
X92920000Y-131862500D01*
X92919290Y-131876958D01*
X92917166Y-131891276D01*
X92913649Y-131905317D01*
X92908772Y-131918946D01*
X92902583Y-131932031D01*
X92895142Y-131944447D01*
X92886519Y-131956073D01*
X92876798Y-131966798D01*
X92866073Y-131976519D01*
X92854447Y-131985142D01*
X92842031Y-131992583D01*
X92828946Y-131998772D01*
X92815317Y-132003649D01*
X92801276Y-132007166D01*
X92786958Y-132009290D01*
X92772500Y-132010000D01*
X92427500Y-132010000D01*
X92413042Y-132009290D01*
X92398724Y-132007166D01*
X92384683Y-132003649D01*
X92371054Y-131998772D01*
X92357969Y-131992583D01*
X92345553Y-131985142D01*
X92333927Y-131976519D01*
X92323202Y-131966798D01*
X92313481Y-131956073D01*
X92304858Y-131944447D01*
X92297417Y-131932031D01*
X92291228Y-131918946D01*
X92286351Y-131905317D01*
X92282834Y-131891276D01*
X92280710Y-131876958D01*
X92280000Y-131862500D01*
X92280000Y-131567500D01*
X92280710Y-131553042D01*
X92282834Y-131538724D01*
X92286351Y-131524683D01*
X92291228Y-131511054D01*
X92297417Y-131497969D01*
X92304858Y-131485553D01*
X92313481Y-131473927D01*
X92323202Y-131463202D01*
X92333927Y-131453481D01*
X92345553Y-131444858D01*
X92357969Y-131437417D01*
X92371054Y-131431228D01*
X92384683Y-131426351D01*
X92398724Y-131422834D01*
X92413042Y-131420710D01*
X92427500Y-131420000D01*
X92772500Y-131420000D01*
X92786958Y-131420710D01*
G37*
G36*
X87286958Y-133090710D02*
G01*
X87301276Y-133092834D01*
X87315317Y-133096351D01*
X87328946Y-133101228D01*
X87342031Y-133107417D01*
X87354447Y-133114858D01*
X87366073Y-133123481D01*
X87376798Y-133133202D01*
X87386519Y-133143927D01*
X87395142Y-133155553D01*
X87402583Y-133167969D01*
X87408772Y-133181054D01*
X87413649Y-133194683D01*
X87417166Y-133208724D01*
X87419290Y-133223042D01*
X87420000Y-133237500D01*
X87420000Y-133532500D01*
X87419290Y-133546958D01*
X87417166Y-133561276D01*
X87413649Y-133575317D01*
X87408772Y-133588946D01*
X87402583Y-133602031D01*
X87395142Y-133614447D01*
X87386519Y-133626073D01*
X87376798Y-133636798D01*
X87366073Y-133646519D01*
X87354447Y-133655142D01*
X87342031Y-133662583D01*
X87328946Y-133668772D01*
X87315317Y-133673649D01*
X87301276Y-133677166D01*
X87286958Y-133679290D01*
X87272500Y-133680000D01*
X86927500Y-133680000D01*
X86913042Y-133679290D01*
X86898724Y-133677166D01*
X86884683Y-133673649D01*
X86871054Y-133668772D01*
X86857969Y-133662583D01*
X86845553Y-133655142D01*
X86833927Y-133646519D01*
X86823202Y-133636798D01*
X86813481Y-133626073D01*
X86804858Y-133614447D01*
X86797417Y-133602031D01*
X86791228Y-133588946D01*
X86786351Y-133575317D01*
X86782834Y-133561276D01*
X86780710Y-133546958D01*
X86780000Y-133532500D01*
X86780000Y-133237500D01*
X86780710Y-133223042D01*
X86782834Y-133208724D01*
X86786351Y-133194683D01*
X86791228Y-133181054D01*
X86797417Y-133167969D01*
X86804858Y-133155553D01*
X86813481Y-133143927D01*
X86823202Y-133133202D01*
X86833927Y-133123481D01*
X86845553Y-133114858D01*
X86857969Y-133107417D01*
X86871054Y-133101228D01*
X86884683Y-133096351D01*
X86898724Y-133092834D01*
X86913042Y-133090710D01*
X86927500Y-133090000D01*
X87272500Y-133090000D01*
X87286958Y-133090710D01*
G37*
G36*
X87286958Y-132120710D02*
G01*
X87301276Y-132122834D01*
X87315317Y-132126351D01*
X87328946Y-132131228D01*
X87342031Y-132137417D01*
X87354447Y-132144858D01*
X87366073Y-132153481D01*
X87376798Y-132163202D01*
X87386519Y-132173927D01*
X87395142Y-132185553D01*
X87402583Y-132197969D01*
X87408772Y-132211054D01*
X87413649Y-132224683D01*
X87417166Y-132238724D01*
X87419290Y-132253042D01*
X87420000Y-132267500D01*
X87420000Y-132562500D01*
X87419290Y-132576958D01*
X87417166Y-132591276D01*
X87413649Y-132605317D01*
X87408772Y-132618946D01*
X87402583Y-132632031D01*
X87395142Y-132644447D01*
X87386519Y-132656073D01*
X87376798Y-132666798D01*
X87366073Y-132676519D01*
X87354447Y-132685142D01*
X87342031Y-132692583D01*
X87328946Y-132698772D01*
X87315317Y-132703649D01*
X87301276Y-132707166D01*
X87286958Y-132709290D01*
X87272500Y-132710000D01*
X86927500Y-132710000D01*
X86913042Y-132709290D01*
X86898724Y-132707166D01*
X86884683Y-132703649D01*
X86871054Y-132698772D01*
X86857969Y-132692583D01*
X86845553Y-132685142D01*
X86833927Y-132676519D01*
X86823202Y-132666798D01*
X86813481Y-132656073D01*
X86804858Y-132644447D01*
X86797417Y-132632031D01*
X86791228Y-132618946D01*
X86786351Y-132605317D01*
X86782834Y-132591276D01*
X86780710Y-132576958D01*
X86780000Y-132562500D01*
X86780000Y-132267500D01*
X86780710Y-132253042D01*
X86782834Y-132238724D01*
X86786351Y-132224683D01*
X86791228Y-132211054D01*
X86797417Y-132197969D01*
X86804858Y-132185553D01*
X86813481Y-132173927D01*
X86823202Y-132163202D01*
X86833927Y-132153481D01*
X86845553Y-132144858D01*
X86857969Y-132137417D01*
X86871054Y-132131228D01*
X86884683Y-132126351D01*
X86898724Y-132122834D01*
X86913042Y-132120710D01*
X86927500Y-132120000D01*
X87272500Y-132120000D01*
X87286958Y-132120710D01*
G37*
G36*
X115086958Y-120820710D02*
G01*
X115101276Y-120822834D01*
X115115317Y-120826351D01*
X115128946Y-120831228D01*
X115142031Y-120837417D01*
X115154447Y-120844858D01*
X115166073Y-120853481D01*
X115176798Y-120863202D01*
X115186519Y-120873927D01*
X115195142Y-120885553D01*
X115202583Y-120897969D01*
X115208772Y-120911054D01*
X115213649Y-120924683D01*
X115217166Y-120938724D01*
X115219290Y-120953042D01*
X115220000Y-120967500D01*
X115220000Y-121262500D01*
X115219290Y-121276958D01*
X115217166Y-121291276D01*
X115213649Y-121305317D01*
X115208772Y-121318946D01*
X115202583Y-121332031D01*
X115195142Y-121344447D01*
X115186519Y-121356073D01*
X115176798Y-121366798D01*
X115166073Y-121376519D01*
X115154447Y-121385142D01*
X115142031Y-121392583D01*
X115128946Y-121398772D01*
X115115317Y-121403649D01*
X115101276Y-121407166D01*
X115086958Y-121409290D01*
X115072500Y-121410000D01*
X114727500Y-121410000D01*
X114713042Y-121409290D01*
X114698724Y-121407166D01*
X114684683Y-121403649D01*
X114671054Y-121398772D01*
X114657969Y-121392583D01*
X114645553Y-121385142D01*
X114633927Y-121376519D01*
X114623202Y-121366798D01*
X114613481Y-121356073D01*
X114604858Y-121344447D01*
X114597417Y-121332031D01*
X114591228Y-121318946D01*
X114586351Y-121305317D01*
X114582834Y-121291276D01*
X114580710Y-121276958D01*
X114580000Y-121262500D01*
X114580000Y-120967500D01*
X114580710Y-120953042D01*
X114582834Y-120938724D01*
X114586351Y-120924683D01*
X114591228Y-120911054D01*
X114597417Y-120897969D01*
X114604858Y-120885553D01*
X114613481Y-120873927D01*
X114623202Y-120863202D01*
X114633927Y-120853481D01*
X114645553Y-120844858D01*
X114657969Y-120837417D01*
X114671054Y-120831228D01*
X114684683Y-120826351D01*
X114698724Y-120822834D01*
X114713042Y-120820710D01*
X114727500Y-120820000D01*
X115072500Y-120820000D01*
X115086958Y-120820710D01*
G37*
G36*
X115086958Y-121790710D02*
G01*
X115101276Y-121792834D01*
X115115317Y-121796351D01*
X115128946Y-121801228D01*
X115142031Y-121807417D01*
X115154447Y-121814858D01*
X115166073Y-121823481D01*
X115176798Y-121833202D01*
X115186519Y-121843927D01*
X115195142Y-121855553D01*
X115202583Y-121867969D01*
X115208772Y-121881054D01*
X115213649Y-121894683D01*
X115217166Y-121908724D01*
X115219290Y-121923042D01*
X115220000Y-121937500D01*
X115220000Y-122232500D01*
X115219290Y-122246958D01*
X115217166Y-122261276D01*
X115213649Y-122275317D01*
X115208772Y-122288946D01*
X115202583Y-122302031D01*
X115195142Y-122314447D01*
X115186519Y-122326073D01*
X115176798Y-122336798D01*
X115166073Y-122346519D01*
X115154447Y-122355142D01*
X115142031Y-122362583D01*
X115128946Y-122368772D01*
X115115317Y-122373649D01*
X115101276Y-122377166D01*
X115086958Y-122379290D01*
X115072500Y-122380000D01*
X114727500Y-122380000D01*
X114713042Y-122379290D01*
X114698724Y-122377166D01*
X114684683Y-122373649D01*
X114671054Y-122368772D01*
X114657969Y-122362583D01*
X114645553Y-122355142D01*
X114633927Y-122346519D01*
X114623202Y-122336798D01*
X114613481Y-122326073D01*
X114604858Y-122314447D01*
X114597417Y-122302031D01*
X114591228Y-122288946D01*
X114586351Y-122275317D01*
X114582834Y-122261276D01*
X114580710Y-122246958D01*
X114580000Y-122232500D01*
X114580000Y-121937500D01*
X114580710Y-121923042D01*
X114582834Y-121908724D01*
X114586351Y-121894683D01*
X114591228Y-121881054D01*
X114597417Y-121867969D01*
X114604858Y-121855553D01*
X114613481Y-121843927D01*
X114623202Y-121833202D01*
X114633927Y-121823481D01*
X114645553Y-121814858D01*
X114657969Y-121807417D01*
X114671054Y-121801228D01*
X114684683Y-121796351D01*
X114698724Y-121792834D01*
X114713042Y-121790710D01*
X114727500Y-121790000D01*
X115072500Y-121790000D01*
X115086958Y-121790710D01*
G37*
G36*
X116686958Y-120820710D02*
G01*
X116701276Y-120822834D01*
X116715317Y-120826351D01*
X116728946Y-120831228D01*
X116742031Y-120837417D01*
X116754447Y-120844858D01*
X116766073Y-120853481D01*
X116776798Y-120863202D01*
X116786519Y-120873927D01*
X116795142Y-120885553D01*
X116802583Y-120897969D01*
X116808772Y-120911054D01*
X116813649Y-120924683D01*
X116817166Y-120938724D01*
X116819290Y-120953042D01*
X116820000Y-120967500D01*
X116820000Y-121262500D01*
X116819290Y-121276958D01*
X116817166Y-121291276D01*
X116813649Y-121305317D01*
X116808772Y-121318946D01*
X116802583Y-121332031D01*
X116795142Y-121344447D01*
X116786519Y-121356073D01*
X116776798Y-121366798D01*
X116766073Y-121376519D01*
X116754447Y-121385142D01*
X116742031Y-121392583D01*
X116728946Y-121398772D01*
X116715317Y-121403649D01*
X116701276Y-121407166D01*
X116686958Y-121409290D01*
X116672500Y-121410000D01*
X116327500Y-121410000D01*
X116313042Y-121409290D01*
X116298724Y-121407166D01*
X116284683Y-121403649D01*
X116271054Y-121398772D01*
X116257969Y-121392583D01*
X116245553Y-121385142D01*
X116233927Y-121376519D01*
X116223202Y-121366798D01*
X116213481Y-121356073D01*
X116204858Y-121344447D01*
X116197417Y-121332031D01*
X116191228Y-121318946D01*
X116186351Y-121305317D01*
X116182834Y-121291276D01*
X116180710Y-121276958D01*
X116180000Y-121262500D01*
X116180000Y-120967500D01*
X116180710Y-120953042D01*
X116182834Y-120938724D01*
X116186351Y-120924683D01*
X116191228Y-120911054D01*
X116197417Y-120897969D01*
X116204858Y-120885553D01*
X116213481Y-120873927D01*
X116223202Y-120863202D01*
X116233927Y-120853481D01*
X116245553Y-120844858D01*
X116257969Y-120837417D01*
X116271054Y-120831228D01*
X116284683Y-120826351D01*
X116298724Y-120822834D01*
X116313042Y-120820710D01*
X116327500Y-120820000D01*
X116672500Y-120820000D01*
X116686958Y-120820710D01*
G37*
G36*
X116686958Y-121790710D02*
G01*
X116701276Y-121792834D01*
X116715317Y-121796351D01*
X116728946Y-121801228D01*
X116742031Y-121807417D01*
X116754447Y-121814858D01*
X116766073Y-121823481D01*
X116776798Y-121833202D01*
X116786519Y-121843927D01*
X116795142Y-121855553D01*
X116802583Y-121867969D01*
X116808772Y-121881054D01*
X116813649Y-121894683D01*
X116817166Y-121908724D01*
X116819290Y-121923042D01*
X116820000Y-121937500D01*
X116820000Y-122232500D01*
X116819290Y-122246958D01*
X116817166Y-122261276D01*
X116813649Y-122275317D01*
X116808772Y-122288946D01*
X116802583Y-122302031D01*
X116795142Y-122314447D01*
X116786519Y-122326073D01*
X116776798Y-122336798D01*
X116766073Y-122346519D01*
X116754447Y-122355142D01*
X116742031Y-122362583D01*
X116728946Y-122368772D01*
X116715317Y-122373649D01*
X116701276Y-122377166D01*
X116686958Y-122379290D01*
X116672500Y-122380000D01*
X116327500Y-122380000D01*
X116313042Y-122379290D01*
X116298724Y-122377166D01*
X116284683Y-122373649D01*
X116271054Y-122368772D01*
X116257969Y-122362583D01*
X116245553Y-122355142D01*
X116233927Y-122346519D01*
X116223202Y-122336798D01*
X116213481Y-122326073D01*
X116204858Y-122314447D01*
X116197417Y-122302031D01*
X116191228Y-122288946D01*
X116186351Y-122275317D01*
X116182834Y-122261276D01*
X116180710Y-122246958D01*
X116180000Y-122232500D01*
X116180000Y-121937500D01*
X116180710Y-121923042D01*
X116182834Y-121908724D01*
X116186351Y-121894683D01*
X116191228Y-121881054D01*
X116197417Y-121867969D01*
X116204858Y-121855553D01*
X116213481Y-121843927D01*
X116223202Y-121833202D01*
X116233927Y-121823481D01*
X116245553Y-121814858D01*
X116257969Y-121807417D01*
X116271054Y-121801228D01*
X116284683Y-121796351D01*
X116298724Y-121792834D01*
X116313042Y-121790710D01*
X116327500Y-121790000D01*
X116672500Y-121790000D01*
X116686958Y-121790710D01*
G37*
G36*
X85586958Y-127420710D02*
G01*
X85601276Y-127422834D01*
X85615317Y-127426351D01*
X85628946Y-127431228D01*
X85642031Y-127437417D01*
X85654447Y-127444858D01*
X85666073Y-127453481D01*
X85676798Y-127463202D01*
X85686519Y-127473927D01*
X85695142Y-127485553D01*
X85702583Y-127497969D01*
X85708772Y-127511054D01*
X85713649Y-127524683D01*
X85717166Y-127538724D01*
X85719290Y-127553042D01*
X85720000Y-127567500D01*
X85720000Y-127862500D01*
X85719290Y-127876958D01*
X85717166Y-127891276D01*
X85713649Y-127905317D01*
X85708772Y-127918946D01*
X85702583Y-127932031D01*
X85695142Y-127944447D01*
X85686519Y-127956073D01*
X85676798Y-127966798D01*
X85666073Y-127976519D01*
X85654447Y-127985142D01*
X85642031Y-127992583D01*
X85628946Y-127998772D01*
X85615317Y-128003649D01*
X85601276Y-128007166D01*
X85586958Y-128009290D01*
X85572500Y-128010000D01*
X85227500Y-128010000D01*
X85213042Y-128009290D01*
X85198724Y-128007166D01*
X85184683Y-128003649D01*
X85171054Y-127998772D01*
X85157969Y-127992583D01*
X85145553Y-127985142D01*
X85133927Y-127976519D01*
X85123202Y-127966798D01*
X85113481Y-127956073D01*
X85104858Y-127944447D01*
X85097417Y-127932031D01*
X85091228Y-127918946D01*
X85086351Y-127905317D01*
X85082834Y-127891276D01*
X85080710Y-127876958D01*
X85080000Y-127862500D01*
X85080000Y-127567500D01*
X85080710Y-127553042D01*
X85082834Y-127538724D01*
X85086351Y-127524683D01*
X85091228Y-127511054D01*
X85097417Y-127497969D01*
X85104858Y-127485553D01*
X85113481Y-127473927D01*
X85123202Y-127463202D01*
X85133927Y-127453481D01*
X85145553Y-127444858D01*
X85157969Y-127437417D01*
X85171054Y-127431228D01*
X85184683Y-127426351D01*
X85198724Y-127422834D01*
X85213042Y-127420710D01*
X85227500Y-127420000D01*
X85572500Y-127420000D01*
X85586958Y-127420710D01*
G37*
G36*
X85586958Y-128390710D02*
G01*
X85601276Y-128392834D01*
X85615317Y-128396351D01*
X85628946Y-128401228D01*
X85642031Y-128407417D01*
X85654447Y-128414858D01*
X85666073Y-128423481D01*
X85676798Y-128433202D01*
X85686519Y-128443927D01*
X85695142Y-128455553D01*
X85702583Y-128467969D01*
X85708772Y-128481054D01*
X85713649Y-128494683D01*
X85717166Y-128508724D01*
X85719290Y-128523042D01*
X85720000Y-128537500D01*
X85720000Y-128832500D01*
X85719290Y-128846958D01*
X85717166Y-128861276D01*
X85713649Y-128875317D01*
X85708772Y-128888946D01*
X85702583Y-128902031D01*
X85695142Y-128914447D01*
X85686519Y-128926073D01*
X85676798Y-128936798D01*
X85666073Y-128946519D01*
X85654447Y-128955142D01*
X85642031Y-128962583D01*
X85628946Y-128968772D01*
X85615317Y-128973649D01*
X85601276Y-128977166D01*
X85586958Y-128979290D01*
X85572500Y-128980000D01*
X85227500Y-128980000D01*
X85213042Y-128979290D01*
X85198724Y-128977166D01*
X85184683Y-128973649D01*
X85171054Y-128968772D01*
X85157969Y-128962583D01*
X85145553Y-128955142D01*
X85133927Y-128946519D01*
X85123202Y-128936798D01*
X85113481Y-128926073D01*
X85104858Y-128914447D01*
X85097417Y-128902031D01*
X85091228Y-128888946D01*
X85086351Y-128875317D01*
X85082834Y-128861276D01*
X85080710Y-128846958D01*
X85080000Y-128832500D01*
X85080000Y-128537500D01*
X85080710Y-128523042D01*
X85082834Y-128508724D01*
X85086351Y-128494683D01*
X85091228Y-128481054D01*
X85097417Y-128467969D01*
X85104858Y-128455553D01*
X85113481Y-128443927D01*
X85123202Y-128433202D01*
X85133927Y-128423481D01*
X85145553Y-128414858D01*
X85157969Y-128407417D01*
X85171054Y-128401228D01*
X85184683Y-128396351D01*
X85198724Y-128392834D01*
X85213042Y-128390710D01*
X85227500Y-128390000D01*
X85572500Y-128390000D01*
X85586958Y-128390710D01*
G37*
G36*
X113486958Y-120820710D02*
G01*
X113501276Y-120822834D01*
X113515317Y-120826351D01*
X113528946Y-120831228D01*
X113542031Y-120837417D01*
X113554447Y-120844858D01*
X113566073Y-120853481D01*
X113576798Y-120863202D01*
X113586519Y-120873927D01*
X113595142Y-120885553D01*
X113602583Y-120897969D01*
X113608772Y-120911054D01*
X113613649Y-120924683D01*
X113617166Y-120938724D01*
X113619290Y-120953042D01*
X113620000Y-120967500D01*
X113620000Y-121262500D01*
X113619290Y-121276958D01*
X113617166Y-121291276D01*
X113613649Y-121305317D01*
X113608772Y-121318946D01*
X113602583Y-121332031D01*
X113595142Y-121344447D01*
X113586519Y-121356073D01*
X113576798Y-121366798D01*
X113566073Y-121376519D01*
X113554447Y-121385142D01*
X113542031Y-121392583D01*
X113528946Y-121398772D01*
X113515317Y-121403649D01*
X113501276Y-121407166D01*
X113486958Y-121409290D01*
X113472500Y-121410000D01*
X113127500Y-121410000D01*
X113113042Y-121409290D01*
X113098724Y-121407166D01*
X113084683Y-121403649D01*
X113071054Y-121398772D01*
X113057969Y-121392583D01*
X113045553Y-121385142D01*
X113033927Y-121376519D01*
X113023202Y-121366798D01*
X113013481Y-121356073D01*
X113004858Y-121344447D01*
X112997417Y-121332031D01*
X112991228Y-121318946D01*
X112986351Y-121305317D01*
X112982834Y-121291276D01*
X112980710Y-121276958D01*
X112980000Y-121262500D01*
X112980000Y-120967500D01*
X112980710Y-120953042D01*
X112982834Y-120938724D01*
X112986351Y-120924683D01*
X112991228Y-120911054D01*
X112997417Y-120897969D01*
X113004858Y-120885553D01*
X113013481Y-120873927D01*
X113023202Y-120863202D01*
X113033927Y-120853481D01*
X113045553Y-120844858D01*
X113057969Y-120837417D01*
X113071054Y-120831228D01*
X113084683Y-120826351D01*
X113098724Y-120822834D01*
X113113042Y-120820710D01*
X113127500Y-120820000D01*
X113472500Y-120820000D01*
X113486958Y-120820710D01*
G37*
G36*
X113486958Y-121790710D02*
G01*
X113501276Y-121792834D01*
X113515317Y-121796351D01*
X113528946Y-121801228D01*
X113542031Y-121807417D01*
X113554447Y-121814858D01*
X113566073Y-121823481D01*
X113576798Y-121833202D01*
X113586519Y-121843927D01*
X113595142Y-121855553D01*
X113602583Y-121867969D01*
X113608772Y-121881054D01*
X113613649Y-121894683D01*
X113617166Y-121908724D01*
X113619290Y-121923042D01*
X113620000Y-121937500D01*
X113620000Y-122232500D01*
X113619290Y-122246958D01*
X113617166Y-122261276D01*
X113613649Y-122275317D01*
X113608772Y-122288946D01*
X113602583Y-122302031D01*
X113595142Y-122314447D01*
X113586519Y-122326073D01*
X113576798Y-122336798D01*
X113566073Y-122346519D01*
X113554447Y-122355142D01*
X113542031Y-122362583D01*
X113528946Y-122368772D01*
X113515317Y-122373649D01*
X113501276Y-122377166D01*
X113486958Y-122379290D01*
X113472500Y-122380000D01*
X113127500Y-122380000D01*
X113113042Y-122379290D01*
X113098724Y-122377166D01*
X113084683Y-122373649D01*
X113071054Y-122368772D01*
X113057969Y-122362583D01*
X113045553Y-122355142D01*
X113033927Y-122346519D01*
X113023202Y-122336798D01*
X113013481Y-122326073D01*
X113004858Y-122314447D01*
X112997417Y-122302031D01*
X112991228Y-122288946D01*
X112986351Y-122275317D01*
X112982834Y-122261276D01*
X112980710Y-122246958D01*
X112980000Y-122232500D01*
X112980000Y-121937500D01*
X112980710Y-121923042D01*
X112982834Y-121908724D01*
X112986351Y-121894683D01*
X112991228Y-121881054D01*
X112997417Y-121867969D01*
X113004858Y-121855553D01*
X113013481Y-121843927D01*
X113023202Y-121833202D01*
X113033927Y-121823481D01*
X113045553Y-121814858D01*
X113057969Y-121807417D01*
X113071054Y-121801228D01*
X113084683Y-121796351D01*
X113098724Y-121792834D01*
X113113042Y-121790710D01*
X113127500Y-121790000D01*
X113472500Y-121790000D01*
X113486958Y-121790710D01*
G37*
D15*
X91262000Y-131603400D03*
X91262000Y-130653400D03*
X91262000Y-129703400D03*
X88582000Y-129703400D03*
X88582000Y-130653400D03*
X88582000Y-131603400D03*
D16*
X90347000Y-129787400D03*
X89497000Y-129787400D03*
X89497000Y-130653400D03*
X90347000Y-130653400D03*
X89497000Y-131519400D03*
X90347000Y-131519400D03*
D17*
X105350000Y-140575000D03*
X100850000Y-140575000D03*
X100850000Y-138425000D03*
X105350000Y-138425000D03*
X98750000Y-138425000D03*
X94250000Y-138425000D03*
X94250000Y-140575000D03*
X98750000Y-140575000D03*
X92150000Y-138425000D03*
X87650000Y-138425000D03*
X87650000Y-140575000D03*
X92150000Y-140575000D03*
X85550000Y-140575000D03*
X81050000Y-140575000D03*
X81050000Y-138425000D03*
X85550000Y-138425000D03*
D18*
X114650000Y-132340000D03*
X107150000Y-127260000D03*
X107150000Y-129800000D03*
X107150000Y-132340000D03*
X114650000Y-127260000D03*
X114650000Y-129800000D03*
D14*
G36*
X94886958Y-127420710D02*
G01*
X94901276Y-127422834D01*
X94915317Y-127426351D01*
X94928946Y-127431228D01*
X94942031Y-127437417D01*
X94954447Y-127444858D01*
X94966073Y-127453481D01*
X94976798Y-127463202D01*
X94986519Y-127473927D01*
X94995142Y-127485553D01*
X95002583Y-127497969D01*
X95008772Y-127511054D01*
X95013649Y-127524683D01*
X95017166Y-127538724D01*
X95019290Y-127553042D01*
X95020000Y-127567500D01*
X95020000Y-127862500D01*
X95019290Y-127876958D01*
X95017166Y-127891276D01*
X95013649Y-127905317D01*
X95008772Y-127918946D01*
X95002583Y-127932031D01*
X94995142Y-127944447D01*
X94986519Y-127956073D01*
X94976798Y-127966798D01*
X94966073Y-127976519D01*
X94954447Y-127985142D01*
X94942031Y-127992583D01*
X94928946Y-127998772D01*
X94915317Y-128003649D01*
X94901276Y-128007166D01*
X94886958Y-128009290D01*
X94872500Y-128010000D01*
X94527500Y-128010000D01*
X94513042Y-128009290D01*
X94498724Y-128007166D01*
X94484683Y-128003649D01*
X94471054Y-127998772D01*
X94457969Y-127992583D01*
X94445553Y-127985142D01*
X94433927Y-127976519D01*
X94423202Y-127966798D01*
X94413481Y-127956073D01*
X94404858Y-127944447D01*
X94397417Y-127932031D01*
X94391228Y-127918946D01*
X94386351Y-127905317D01*
X94382834Y-127891276D01*
X94380710Y-127876958D01*
X94380000Y-127862500D01*
X94380000Y-127567500D01*
X94380710Y-127553042D01*
X94382834Y-127538724D01*
X94386351Y-127524683D01*
X94391228Y-127511054D01*
X94397417Y-127497969D01*
X94404858Y-127485553D01*
X94413481Y-127473927D01*
X94423202Y-127463202D01*
X94433927Y-127453481D01*
X94445553Y-127444858D01*
X94457969Y-127437417D01*
X94471054Y-127431228D01*
X94484683Y-127426351D01*
X94498724Y-127422834D01*
X94513042Y-127420710D01*
X94527500Y-127420000D01*
X94872500Y-127420000D01*
X94886958Y-127420710D01*
G37*
G36*
X94886958Y-128390710D02*
G01*
X94901276Y-128392834D01*
X94915317Y-128396351D01*
X94928946Y-128401228D01*
X94942031Y-128407417D01*
X94954447Y-128414858D01*
X94966073Y-128423481D01*
X94976798Y-128433202D01*
X94986519Y-128443927D01*
X94995142Y-128455553D01*
X95002583Y-128467969D01*
X95008772Y-128481054D01*
X95013649Y-128494683D01*
X95017166Y-128508724D01*
X95019290Y-128523042D01*
X95020000Y-128537500D01*
X95020000Y-128832500D01*
X95019290Y-128846958D01*
X95017166Y-128861276D01*
X95013649Y-128875317D01*
X95008772Y-128888946D01*
X95002583Y-128902031D01*
X94995142Y-128914447D01*
X94986519Y-128926073D01*
X94976798Y-128936798D01*
X94966073Y-128946519D01*
X94954447Y-128955142D01*
X94942031Y-128962583D01*
X94928946Y-128968772D01*
X94915317Y-128973649D01*
X94901276Y-128977166D01*
X94886958Y-128979290D01*
X94872500Y-128980000D01*
X94527500Y-128980000D01*
X94513042Y-128979290D01*
X94498724Y-128977166D01*
X94484683Y-128973649D01*
X94471054Y-128968772D01*
X94457969Y-128962583D01*
X94445553Y-128955142D01*
X94433927Y-128946519D01*
X94423202Y-128936798D01*
X94413481Y-128926073D01*
X94404858Y-128914447D01*
X94397417Y-128902031D01*
X94391228Y-128888946D01*
X94386351Y-128875317D01*
X94382834Y-128861276D01*
X94380710Y-128846958D01*
X94380000Y-128832500D01*
X94380000Y-128537500D01*
X94380710Y-128523042D01*
X94382834Y-128508724D01*
X94386351Y-128494683D01*
X94391228Y-128481054D01*
X94397417Y-128467969D01*
X94404858Y-128455553D01*
X94413481Y-128443927D01*
X94423202Y-128433202D01*
X94433927Y-128423481D01*
X94445553Y-128414858D01*
X94457969Y-128407417D01*
X94471054Y-128401228D01*
X94484683Y-128396351D01*
X94498724Y-128392834D01*
X94513042Y-128390710D01*
X94527500Y-128390000D01*
X94872500Y-128390000D01*
X94886958Y-128390710D01*
G37*
G36*
X97191958Y-125980710D02*
G01*
X97206276Y-125982834D01*
X97220317Y-125986351D01*
X97233946Y-125991228D01*
X97247031Y-125997417D01*
X97259447Y-126004858D01*
X97271073Y-126013481D01*
X97281798Y-126023202D01*
X97291519Y-126033927D01*
X97300142Y-126045553D01*
X97307583Y-126057969D01*
X97313772Y-126071054D01*
X97318649Y-126084683D01*
X97322166Y-126098724D01*
X97324290Y-126113042D01*
X97325000Y-126127500D01*
X97325000Y-126472500D01*
X97324290Y-126486958D01*
X97322166Y-126501276D01*
X97318649Y-126515317D01*
X97313772Y-126528946D01*
X97307583Y-126542031D01*
X97300142Y-126554447D01*
X97291519Y-126566073D01*
X97281798Y-126576798D01*
X97271073Y-126586519D01*
X97259447Y-126595142D01*
X97247031Y-126602583D01*
X97233946Y-126608772D01*
X97220317Y-126613649D01*
X97206276Y-126617166D01*
X97191958Y-126619290D01*
X97177500Y-126620000D01*
X96882500Y-126620000D01*
X96868042Y-126619290D01*
X96853724Y-126617166D01*
X96839683Y-126613649D01*
X96826054Y-126608772D01*
X96812969Y-126602583D01*
X96800553Y-126595142D01*
X96788927Y-126586519D01*
X96778202Y-126576798D01*
X96768481Y-126566073D01*
X96759858Y-126554447D01*
X96752417Y-126542031D01*
X96746228Y-126528946D01*
X96741351Y-126515317D01*
X96737834Y-126501276D01*
X96735710Y-126486958D01*
X96735000Y-126472500D01*
X96735000Y-126127500D01*
X96735710Y-126113042D01*
X96737834Y-126098724D01*
X96741351Y-126084683D01*
X96746228Y-126071054D01*
X96752417Y-126057969D01*
X96759858Y-126045553D01*
X96768481Y-126033927D01*
X96778202Y-126023202D01*
X96788927Y-126013481D01*
X96800553Y-126004858D01*
X96812969Y-125997417D01*
X96826054Y-125991228D01*
X96839683Y-125986351D01*
X96853724Y-125982834D01*
X96868042Y-125980710D01*
X96882500Y-125980000D01*
X97177500Y-125980000D01*
X97191958Y-125980710D01*
G37*
G36*
X98161958Y-125980710D02*
G01*
X98176276Y-125982834D01*
X98190317Y-125986351D01*
X98203946Y-125991228D01*
X98217031Y-125997417D01*
X98229447Y-126004858D01*
X98241073Y-126013481D01*
X98251798Y-126023202D01*
X98261519Y-126033927D01*
X98270142Y-126045553D01*
X98277583Y-126057969D01*
X98283772Y-126071054D01*
X98288649Y-126084683D01*
X98292166Y-126098724D01*
X98294290Y-126113042D01*
X98295000Y-126127500D01*
X98295000Y-126472500D01*
X98294290Y-126486958D01*
X98292166Y-126501276D01*
X98288649Y-126515317D01*
X98283772Y-126528946D01*
X98277583Y-126542031D01*
X98270142Y-126554447D01*
X98261519Y-126566073D01*
X98251798Y-126576798D01*
X98241073Y-126586519D01*
X98229447Y-126595142D01*
X98217031Y-126602583D01*
X98203946Y-126608772D01*
X98190317Y-126613649D01*
X98176276Y-126617166D01*
X98161958Y-126619290D01*
X98147500Y-126620000D01*
X97852500Y-126620000D01*
X97838042Y-126619290D01*
X97823724Y-126617166D01*
X97809683Y-126613649D01*
X97796054Y-126608772D01*
X97782969Y-126602583D01*
X97770553Y-126595142D01*
X97758927Y-126586519D01*
X97748202Y-126576798D01*
X97738481Y-126566073D01*
X97729858Y-126554447D01*
X97722417Y-126542031D01*
X97716228Y-126528946D01*
X97711351Y-126515317D01*
X97707834Y-126501276D01*
X97705710Y-126486958D01*
X97705000Y-126472500D01*
X97705000Y-126127500D01*
X97705710Y-126113042D01*
X97707834Y-126098724D01*
X97711351Y-126084683D01*
X97716228Y-126071054D01*
X97722417Y-126057969D01*
X97729858Y-126045553D01*
X97738481Y-126033927D01*
X97748202Y-126023202D01*
X97758927Y-126013481D01*
X97770553Y-126004858D01*
X97782969Y-125997417D01*
X97796054Y-125991228D01*
X97809683Y-125986351D01*
X97823724Y-125982834D01*
X97838042Y-125980710D01*
X97852500Y-125980000D01*
X98147500Y-125980000D01*
X98161958Y-125980710D01*
G37*
G36*
X101186958Y-129220710D02*
G01*
X101201276Y-129222834D01*
X101215317Y-129226351D01*
X101228946Y-129231228D01*
X101242031Y-129237417D01*
X101254447Y-129244858D01*
X101266073Y-129253481D01*
X101276798Y-129263202D01*
X101286519Y-129273927D01*
X101295142Y-129285553D01*
X101302583Y-129297969D01*
X101308772Y-129311054D01*
X101313649Y-129324683D01*
X101317166Y-129338724D01*
X101319290Y-129353042D01*
X101320000Y-129367500D01*
X101320000Y-129662500D01*
X101319290Y-129676958D01*
X101317166Y-129691276D01*
X101313649Y-129705317D01*
X101308772Y-129718946D01*
X101302583Y-129732031D01*
X101295142Y-129744447D01*
X101286519Y-129756073D01*
X101276798Y-129766798D01*
X101266073Y-129776519D01*
X101254447Y-129785142D01*
X101242031Y-129792583D01*
X101228946Y-129798772D01*
X101215317Y-129803649D01*
X101201276Y-129807166D01*
X101186958Y-129809290D01*
X101172500Y-129810000D01*
X100827500Y-129810000D01*
X100813042Y-129809290D01*
X100798724Y-129807166D01*
X100784683Y-129803649D01*
X100771054Y-129798772D01*
X100757969Y-129792583D01*
X100745553Y-129785142D01*
X100733927Y-129776519D01*
X100723202Y-129766798D01*
X100713481Y-129756073D01*
X100704858Y-129744447D01*
X100697417Y-129732031D01*
X100691228Y-129718946D01*
X100686351Y-129705317D01*
X100682834Y-129691276D01*
X100680710Y-129676958D01*
X100680000Y-129662500D01*
X100680000Y-129367500D01*
X100680710Y-129353042D01*
X100682834Y-129338724D01*
X100686351Y-129324683D01*
X100691228Y-129311054D01*
X100697417Y-129297969D01*
X100704858Y-129285553D01*
X100713481Y-129273927D01*
X100723202Y-129263202D01*
X100733927Y-129253481D01*
X100745553Y-129244858D01*
X100757969Y-129237417D01*
X100771054Y-129231228D01*
X100784683Y-129226351D01*
X100798724Y-129222834D01*
X100813042Y-129220710D01*
X100827500Y-129220000D01*
X101172500Y-129220000D01*
X101186958Y-129220710D01*
G37*
G36*
X101186958Y-130190710D02*
G01*
X101201276Y-130192834D01*
X101215317Y-130196351D01*
X101228946Y-130201228D01*
X101242031Y-130207417D01*
X101254447Y-130214858D01*
X101266073Y-130223481D01*
X101276798Y-130233202D01*
X101286519Y-130243927D01*
X101295142Y-130255553D01*
X101302583Y-130267969D01*
X101308772Y-130281054D01*
X101313649Y-130294683D01*
X101317166Y-130308724D01*
X101319290Y-130323042D01*
X101320000Y-130337500D01*
X101320000Y-130632500D01*
X101319290Y-130646958D01*
X101317166Y-130661276D01*
X101313649Y-130675317D01*
X101308772Y-130688946D01*
X101302583Y-130702031D01*
X101295142Y-130714447D01*
X101286519Y-130726073D01*
X101276798Y-130736798D01*
X101266073Y-130746519D01*
X101254447Y-130755142D01*
X101242031Y-130762583D01*
X101228946Y-130768772D01*
X101215317Y-130773649D01*
X101201276Y-130777166D01*
X101186958Y-130779290D01*
X101172500Y-130780000D01*
X100827500Y-130780000D01*
X100813042Y-130779290D01*
X100798724Y-130777166D01*
X100784683Y-130773649D01*
X100771054Y-130768772D01*
X100757969Y-130762583D01*
X100745553Y-130755142D01*
X100733927Y-130746519D01*
X100723202Y-130736798D01*
X100713481Y-130726073D01*
X100704858Y-130714447D01*
X100697417Y-130702031D01*
X100691228Y-130688946D01*
X100686351Y-130675317D01*
X100682834Y-130661276D01*
X100680710Y-130646958D01*
X100680000Y-130632500D01*
X100680000Y-130337500D01*
X100680710Y-130323042D01*
X100682834Y-130308724D01*
X100686351Y-130294683D01*
X100691228Y-130281054D01*
X100697417Y-130267969D01*
X100704858Y-130255553D01*
X100713481Y-130243927D01*
X100723202Y-130233202D01*
X100733927Y-130223481D01*
X100745553Y-130214858D01*
X100757969Y-130207417D01*
X100771054Y-130201228D01*
X100784683Y-130196351D01*
X100798724Y-130192834D01*
X100813042Y-130190710D01*
X100827500Y-130190000D01*
X101172500Y-130190000D01*
X101186958Y-130190710D01*
G37*
M02*
