G04 #@! TF.GenerationSoftware,KiCad,Pcbnew,5.1.5-52549c5~84~ubuntu18.04.1*
G04 #@! TF.CreationDate,2019-11-22T10:47:09+01:00*
G04 #@! TF.ProjectId,roboy_sno,726f626f-795f-4736-9e6f-2e6b69636164,rev?*
G04 #@! TF.SameCoordinates,Original*
G04 #@! TF.FileFunction,Copper,L1,Top*
G04 #@! TF.FilePolarity,Positive*
%FSLAX46Y46*%
G04 Gerber Fmt 4.6, Leading zero omitted, Abs format (unit mm)*
G04 Created by KiCad (PCBNEW 5.1.5-52549c5~84~ubuntu18.04.1) date 2019-11-22 10:47:09*
%MOMM*%
%LPD*%
G04 APERTURE LIST*
%ADD10R,1.000000X1.000000*%
%ADD11O,0.900000X2.500000*%
%ADD12O,2.500000X0.900000*%
%ADD13R,6.000000X6.000000*%
%ADD14O,1.700000X1.700000*%
%ADD15R,1.700000X1.700000*%
%ADD16C,0.100000*%
%ADD17R,0.630000X0.450000*%
%ADD18R,1.700000X2.600000*%
%ADD19R,1.000000X0.700000*%
%ADD20R,3.000000X1.000000*%
%ADD21C,4.400000*%
%ADD22C,0.301000*%
%ADD23C,0.300000*%
%ADD24C,0.152400*%
%ADD25C,0.254000*%
G04 APERTURE END LIST*
D10*
X83175000Y-127350000D03*
X81425000Y-127350000D03*
X83175000Y-130850000D03*
X81425000Y-130850000D03*
D11*
X138346000Y-139556000D03*
X137076000Y-139556000D03*
X135806000Y-139556000D03*
X134536000Y-139556000D03*
X133266000Y-139556000D03*
X131996000Y-139556000D03*
X130726000Y-139556000D03*
X129456000Y-139556000D03*
X128186000Y-139556000D03*
X126916000Y-139556000D03*
X125646000Y-139556000D03*
X124376000Y-139556000D03*
X123106000Y-139556000D03*
X121836000Y-139556000D03*
D12*
X120346000Y-136271000D03*
X120346000Y-135001000D03*
X120346000Y-133731000D03*
X120346000Y-132461000D03*
X120346000Y-131191000D03*
X120346000Y-129921000D03*
X120346000Y-128651000D03*
X120346000Y-127381000D03*
X120346000Y-126111000D03*
X120346000Y-124841000D03*
D11*
X121836000Y-121556000D03*
X123106000Y-121556000D03*
X124376000Y-121556000D03*
X125646000Y-121556000D03*
X126916000Y-121556000D03*
X128186000Y-121556000D03*
X129456000Y-121556000D03*
X130726000Y-121556000D03*
X131996000Y-121556000D03*
X133266000Y-121556000D03*
X134536000Y-121556000D03*
X135806000Y-121556000D03*
X137076000Y-121556000D03*
X138346000Y-121556000D03*
D13*
X130646000Y-130256000D03*
D14*
X90700000Y-121860000D03*
D15*
X90700000Y-124400000D03*
G04 #@! TA.AperFunction,SMDPad,CuDef*
D16*
G36*
X118186958Y-120820710D02*
G01*
X118201276Y-120822834D01*
X118215317Y-120826351D01*
X118228946Y-120831228D01*
X118242031Y-120837417D01*
X118254447Y-120844858D01*
X118266073Y-120853481D01*
X118276798Y-120863202D01*
X118286519Y-120873927D01*
X118295142Y-120885553D01*
X118302583Y-120897969D01*
X118308772Y-120911054D01*
X118313649Y-120924683D01*
X118317166Y-120938724D01*
X118319290Y-120953042D01*
X118320000Y-120967500D01*
X118320000Y-121262500D01*
X118319290Y-121276958D01*
X118317166Y-121291276D01*
X118313649Y-121305317D01*
X118308772Y-121318946D01*
X118302583Y-121332031D01*
X118295142Y-121344447D01*
X118286519Y-121356073D01*
X118276798Y-121366798D01*
X118266073Y-121376519D01*
X118254447Y-121385142D01*
X118242031Y-121392583D01*
X118228946Y-121398772D01*
X118215317Y-121403649D01*
X118201276Y-121407166D01*
X118186958Y-121409290D01*
X118172500Y-121410000D01*
X117827500Y-121410000D01*
X117813042Y-121409290D01*
X117798724Y-121407166D01*
X117784683Y-121403649D01*
X117771054Y-121398772D01*
X117757969Y-121392583D01*
X117745553Y-121385142D01*
X117733927Y-121376519D01*
X117723202Y-121366798D01*
X117713481Y-121356073D01*
X117704858Y-121344447D01*
X117697417Y-121332031D01*
X117691228Y-121318946D01*
X117686351Y-121305317D01*
X117682834Y-121291276D01*
X117680710Y-121276958D01*
X117680000Y-121262500D01*
X117680000Y-120967500D01*
X117680710Y-120953042D01*
X117682834Y-120938724D01*
X117686351Y-120924683D01*
X117691228Y-120911054D01*
X117697417Y-120897969D01*
X117704858Y-120885553D01*
X117713481Y-120873927D01*
X117723202Y-120863202D01*
X117733927Y-120853481D01*
X117745553Y-120844858D01*
X117757969Y-120837417D01*
X117771054Y-120831228D01*
X117784683Y-120826351D01*
X117798724Y-120822834D01*
X117813042Y-120820710D01*
X117827500Y-120820000D01*
X118172500Y-120820000D01*
X118186958Y-120820710D01*
G37*
G04 #@! TD.AperFunction*
G04 #@! TA.AperFunction,SMDPad,CuDef*
G36*
X118186958Y-121790710D02*
G01*
X118201276Y-121792834D01*
X118215317Y-121796351D01*
X118228946Y-121801228D01*
X118242031Y-121807417D01*
X118254447Y-121814858D01*
X118266073Y-121823481D01*
X118276798Y-121833202D01*
X118286519Y-121843927D01*
X118295142Y-121855553D01*
X118302583Y-121867969D01*
X118308772Y-121881054D01*
X118313649Y-121894683D01*
X118317166Y-121908724D01*
X118319290Y-121923042D01*
X118320000Y-121937500D01*
X118320000Y-122232500D01*
X118319290Y-122246958D01*
X118317166Y-122261276D01*
X118313649Y-122275317D01*
X118308772Y-122288946D01*
X118302583Y-122302031D01*
X118295142Y-122314447D01*
X118286519Y-122326073D01*
X118276798Y-122336798D01*
X118266073Y-122346519D01*
X118254447Y-122355142D01*
X118242031Y-122362583D01*
X118228946Y-122368772D01*
X118215317Y-122373649D01*
X118201276Y-122377166D01*
X118186958Y-122379290D01*
X118172500Y-122380000D01*
X117827500Y-122380000D01*
X117813042Y-122379290D01*
X117798724Y-122377166D01*
X117784683Y-122373649D01*
X117771054Y-122368772D01*
X117757969Y-122362583D01*
X117745553Y-122355142D01*
X117733927Y-122346519D01*
X117723202Y-122336798D01*
X117713481Y-122326073D01*
X117704858Y-122314447D01*
X117697417Y-122302031D01*
X117691228Y-122288946D01*
X117686351Y-122275317D01*
X117682834Y-122261276D01*
X117680710Y-122246958D01*
X117680000Y-122232500D01*
X117680000Y-121937500D01*
X117680710Y-121923042D01*
X117682834Y-121908724D01*
X117686351Y-121894683D01*
X117691228Y-121881054D01*
X117697417Y-121867969D01*
X117704858Y-121855553D01*
X117713481Y-121843927D01*
X117723202Y-121833202D01*
X117733927Y-121823481D01*
X117745553Y-121814858D01*
X117757969Y-121807417D01*
X117771054Y-121801228D01*
X117784683Y-121796351D01*
X117798724Y-121792834D01*
X117813042Y-121790710D01*
X117827500Y-121790000D01*
X118172500Y-121790000D01*
X118186958Y-121790710D01*
G37*
G04 #@! TD.AperFunction*
G04 #@! TA.AperFunction,SMDPad,CuDef*
G36*
X92786958Y-132390710D02*
G01*
X92801276Y-132392834D01*
X92815317Y-132396351D01*
X92828946Y-132401228D01*
X92842031Y-132407417D01*
X92854447Y-132414858D01*
X92866073Y-132423481D01*
X92876798Y-132433202D01*
X92886519Y-132443927D01*
X92895142Y-132455553D01*
X92902583Y-132467969D01*
X92908772Y-132481054D01*
X92913649Y-132494683D01*
X92917166Y-132508724D01*
X92919290Y-132523042D01*
X92920000Y-132537500D01*
X92920000Y-132832500D01*
X92919290Y-132846958D01*
X92917166Y-132861276D01*
X92913649Y-132875317D01*
X92908772Y-132888946D01*
X92902583Y-132902031D01*
X92895142Y-132914447D01*
X92886519Y-132926073D01*
X92876798Y-132936798D01*
X92866073Y-132946519D01*
X92854447Y-132955142D01*
X92842031Y-132962583D01*
X92828946Y-132968772D01*
X92815317Y-132973649D01*
X92801276Y-132977166D01*
X92786958Y-132979290D01*
X92772500Y-132980000D01*
X92427500Y-132980000D01*
X92413042Y-132979290D01*
X92398724Y-132977166D01*
X92384683Y-132973649D01*
X92371054Y-132968772D01*
X92357969Y-132962583D01*
X92345553Y-132955142D01*
X92333927Y-132946519D01*
X92323202Y-132936798D01*
X92313481Y-132926073D01*
X92304858Y-132914447D01*
X92297417Y-132902031D01*
X92291228Y-132888946D01*
X92286351Y-132875317D01*
X92282834Y-132861276D01*
X92280710Y-132846958D01*
X92280000Y-132832500D01*
X92280000Y-132537500D01*
X92280710Y-132523042D01*
X92282834Y-132508724D01*
X92286351Y-132494683D01*
X92291228Y-132481054D01*
X92297417Y-132467969D01*
X92304858Y-132455553D01*
X92313481Y-132443927D01*
X92323202Y-132433202D01*
X92333927Y-132423481D01*
X92345553Y-132414858D01*
X92357969Y-132407417D01*
X92371054Y-132401228D01*
X92384683Y-132396351D01*
X92398724Y-132392834D01*
X92413042Y-132390710D01*
X92427500Y-132390000D01*
X92772500Y-132390000D01*
X92786958Y-132390710D01*
G37*
G04 #@! TD.AperFunction*
G04 #@! TA.AperFunction,SMDPad,CuDef*
G36*
X92786958Y-131420710D02*
G01*
X92801276Y-131422834D01*
X92815317Y-131426351D01*
X92828946Y-131431228D01*
X92842031Y-131437417D01*
X92854447Y-131444858D01*
X92866073Y-131453481D01*
X92876798Y-131463202D01*
X92886519Y-131473927D01*
X92895142Y-131485553D01*
X92902583Y-131497969D01*
X92908772Y-131511054D01*
X92913649Y-131524683D01*
X92917166Y-131538724D01*
X92919290Y-131553042D01*
X92920000Y-131567500D01*
X92920000Y-131862500D01*
X92919290Y-131876958D01*
X92917166Y-131891276D01*
X92913649Y-131905317D01*
X92908772Y-131918946D01*
X92902583Y-131932031D01*
X92895142Y-131944447D01*
X92886519Y-131956073D01*
X92876798Y-131966798D01*
X92866073Y-131976519D01*
X92854447Y-131985142D01*
X92842031Y-131992583D01*
X92828946Y-131998772D01*
X92815317Y-132003649D01*
X92801276Y-132007166D01*
X92786958Y-132009290D01*
X92772500Y-132010000D01*
X92427500Y-132010000D01*
X92413042Y-132009290D01*
X92398724Y-132007166D01*
X92384683Y-132003649D01*
X92371054Y-131998772D01*
X92357969Y-131992583D01*
X92345553Y-131985142D01*
X92333927Y-131976519D01*
X92323202Y-131966798D01*
X92313481Y-131956073D01*
X92304858Y-131944447D01*
X92297417Y-131932031D01*
X92291228Y-131918946D01*
X92286351Y-131905317D01*
X92282834Y-131891276D01*
X92280710Y-131876958D01*
X92280000Y-131862500D01*
X92280000Y-131567500D01*
X92280710Y-131553042D01*
X92282834Y-131538724D01*
X92286351Y-131524683D01*
X92291228Y-131511054D01*
X92297417Y-131497969D01*
X92304858Y-131485553D01*
X92313481Y-131473927D01*
X92323202Y-131463202D01*
X92333927Y-131453481D01*
X92345553Y-131444858D01*
X92357969Y-131437417D01*
X92371054Y-131431228D01*
X92384683Y-131426351D01*
X92398724Y-131422834D01*
X92413042Y-131420710D01*
X92427500Y-131420000D01*
X92772500Y-131420000D01*
X92786958Y-131420710D01*
G37*
G04 #@! TD.AperFunction*
G04 #@! TA.AperFunction,SMDPad,CuDef*
G36*
X87286958Y-133090710D02*
G01*
X87301276Y-133092834D01*
X87315317Y-133096351D01*
X87328946Y-133101228D01*
X87342031Y-133107417D01*
X87354447Y-133114858D01*
X87366073Y-133123481D01*
X87376798Y-133133202D01*
X87386519Y-133143927D01*
X87395142Y-133155553D01*
X87402583Y-133167969D01*
X87408772Y-133181054D01*
X87413649Y-133194683D01*
X87417166Y-133208724D01*
X87419290Y-133223042D01*
X87420000Y-133237500D01*
X87420000Y-133532500D01*
X87419290Y-133546958D01*
X87417166Y-133561276D01*
X87413649Y-133575317D01*
X87408772Y-133588946D01*
X87402583Y-133602031D01*
X87395142Y-133614447D01*
X87386519Y-133626073D01*
X87376798Y-133636798D01*
X87366073Y-133646519D01*
X87354447Y-133655142D01*
X87342031Y-133662583D01*
X87328946Y-133668772D01*
X87315317Y-133673649D01*
X87301276Y-133677166D01*
X87286958Y-133679290D01*
X87272500Y-133680000D01*
X86927500Y-133680000D01*
X86913042Y-133679290D01*
X86898724Y-133677166D01*
X86884683Y-133673649D01*
X86871054Y-133668772D01*
X86857969Y-133662583D01*
X86845553Y-133655142D01*
X86833927Y-133646519D01*
X86823202Y-133636798D01*
X86813481Y-133626073D01*
X86804858Y-133614447D01*
X86797417Y-133602031D01*
X86791228Y-133588946D01*
X86786351Y-133575317D01*
X86782834Y-133561276D01*
X86780710Y-133546958D01*
X86780000Y-133532500D01*
X86780000Y-133237500D01*
X86780710Y-133223042D01*
X86782834Y-133208724D01*
X86786351Y-133194683D01*
X86791228Y-133181054D01*
X86797417Y-133167969D01*
X86804858Y-133155553D01*
X86813481Y-133143927D01*
X86823202Y-133133202D01*
X86833927Y-133123481D01*
X86845553Y-133114858D01*
X86857969Y-133107417D01*
X86871054Y-133101228D01*
X86884683Y-133096351D01*
X86898724Y-133092834D01*
X86913042Y-133090710D01*
X86927500Y-133090000D01*
X87272500Y-133090000D01*
X87286958Y-133090710D01*
G37*
G04 #@! TD.AperFunction*
G04 #@! TA.AperFunction,SMDPad,CuDef*
G36*
X87286958Y-132120710D02*
G01*
X87301276Y-132122834D01*
X87315317Y-132126351D01*
X87328946Y-132131228D01*
X87342031Y-132137417D01*
X87354447Y-132144858D01*
X87366073Y-132153481D01*
X87376798Y-132163202D01*
X87386519Y-132173927D01*
X87395142Y-132185553D01*
X87402583Y-132197969D01*
X87408772Y-132211054D01*
X87413649Y-132224683D01*
X87417166Y-132238724D01*
X87419290Y-132253042D01*
X87420000Y-132267500D01*
X87420000Y-132562500D01*
X87419290Y-132576958D01*
X87417166Y-132591276D01*
X87413649Y-132605317D01*
X87408772Y-132618946D01*
X87402583Y-132632031D01*
X87395142Y-132644447D01*
X87386519Y-132656073D01*
X87376798Y-132666798D01*
X87366073Y-132676519D01*
X87354447Y-132685142D01*
X87342031Y-132692583D01*
X87328946Y-132698772D01*
X87315317Y-132703649D01*
X87301276Y-132707166D01*
X87286958Y-132709290D01*
X87272500Y-132710000D01*
X86927500Y-132710000D01*
X86913042Y-132709290D01*
X86898724Y-132707166D01*
X86884683Y-132703649D01*
X86871054Y-132698772D01*
X86857969Y-132692583D01*
X86845553Y-132685142D01*
X86833927Y-132676519D01*
X86823202Y-132666798D01*
X86813481Y-132656073D01*
X86804858Y-132644447D01*
X86797417Y-132632031D01*
X86791228Y-132618946D01*
X86786351Y-132605317D01*
X86782834Y-132591276D01*
X86780710Y-132576958D01*
X86780000Y-132562500D01*
X86780000Y-132267500D01*
X86780710Y-132253042D01*
X86782834Y-132238724D01*
X86786351Y-132224683D01*
X86791228Y-132211054D01*
X86797417Y-132197969D01*
X86804858Y-132185553D01*
X86813481Y-132173927D01*
X86823202Y-132163202D01*
X86833927Y-132153481D01*
X86845553Y-132144858D01*
X86857969Y-132137417D01*
X86871054Y-132131228D01*
X86884683Y-132126351D01*
X86898724Y-132122834D01*
X86913042Y-132120710D01*
X86927500Y-132120000D01*
X87272500Y-132120000D01*
X87286958Y-132120710D01*
G37*
G04 #@! TD.AperFunction*
G04 #@! TA.AperFunction,SMDPad,CuDef*
G36*
X115086958Y-120820710D02*
G01*
X115101276Y-120822834D01*
X115115317Y-120826351D01*
X115128946Y-120831228D01*
X115142031Y-120837417D01*
X115154447Y-120844858D01*
X115166073Y-120853481D01*
X115176798Y-120863202D01*
X115186519Y-120873927D01*
X115195142Y-120885553D01*
X115202583Y-120897969D01*
X115208772Y-120911054D01*
X115213649Y-120924683D01*
X115217166Y-120938724D01*
X115219290Y-120953042D01*
X115220000Y-120967500D01*
X115220000Y-121262500D01*
X115219290Y-121276958D01*
X115217166Y-121291276D01*
X115213649Y-121305317D01*
X115208772Y-121318946D01*
X115202583Y-121332031D01*
X115195142Y-121344447D01*
X115186519Y-121356073D01*
X115176798Y-121366798D01*
X115166073Y-121376519D01*
X115154447Y-121385142D01*
X115142031Y-121392583D01*
X115128946Y-121398772D01*
X115115317Y-121403649D01*
X115101276Y-121407166D01*
X115086958Y-121409290D01*
X115072500Y-121410000D01*
X114727500Y-121410000D01*
X114713042Y-121409290D01*
X114698724Y-121407166D01*
X114684683Y-121403649D01*
X114671054Y-121398772D01*
X114657969Y-121392583D01*
X114645553Y-121385142D01*
X114633927Y-121376519D01*
X114623202Y-121366798D01*
X114613481Y-121356073D01*
X114604858Y-121344447D01*
X114597417Y-121332031D01*
X114591228Y-121318946D01*
X114586351Y-121305317D01*
X114582834Y-121291276D01*
X114580710Y-121276958D01*
X114580000Y-121262500D01*
X114580000Y-120967500D01*
X114580710Y-120953042D01*
X114582834Y-120938724D01*
X114586351Y-120924683D01*
X114591228Y-120911054D01*
X114597417Y-120897969D01*
X114604858Y-120885553D01*
X114613481Y-120873927D01*
X114623202Y-120863202D01*
X114633927Y-120853481D01*
X114645553Y-120844858D01*
X114657969Y-120837417D01*
X114671054Y-120831228D01*
X114684683Y-120826351D01*
X114698724Y-120822834D01*
X114713042Y-120820710D01*
X114727500Y-120820000D01*
X115072500Y-120820000D01*
X115086958Y-120820710D01*
G37*
G04 #@! TD.AperFunction*
G04 #@! TA.AperFunction,SMDPad,CuDef*
G36*
X115086958Y-121790710D02*
G01*
X115101276Y-121792834D01*
X115115317Y-121796351D01*
X115128946Y-121801228D01*
X115142031Y-121807417D01*
X115154447Y-121814858D01*
X115166073Y-121823481D01*
X115176798Y-121833202D01*
X115186519Y-121843927D01*
X115195142Y-121855553D01*
X115202583Y-121867969D01*
X115208772Y-121881054D01*
X115213649Y-121894683D01*
X115217166Y-121908724D01*
X115219290Y-121923042D01*
X115220000Y-121937500D01*
X115220000Y-122232500D01*
X115219290Y-122246958D01*
X115217166Y-122261276D01*
X115213649Y-122275317D01*
X115208772Y-122288946D01*
X115202583Y-122302031D01*
X115195142Y-122314447D01*
X115186519Y-122326073D01*
X115176798Y-122336798D01*
X115166073Y-122346519D01*
X115154447Y-122355142D01*
X115142031Y-122362583D01*
X115128946Y-122368772D01*
X115115317Y-122373649D01*
X115101276Y-122377166D01*
X115086958Y-122379290D01*
X115072500Y-122380000D01*
X114727500Y-122380000D01*
X114713042Y-122379290D01*
X114698724Y-122377166D01*
X114684683Y-122373649D01*
X114671054Y-122368772D01*
X114657969Y-122362583D01*
X114645553Y-122355142D01*
X114633927Y-122346519D01*
X114623202Y-122336798D01*
X114613481Y-122326073D01*
X114604858Y-122314447D01*
X114597417Y-122302031D01*
X114591228Y-122288946D01*
X114586351Y-122275317D01*
X114582834Y-122261276D01*
X114580710Y-122246958D01*
X114580000Y-122232500D01*
X114580000Y-121937500D01*
X114580710Y-121923042D01*
X114582834Y-121908724D01*
X114586351Y-121894683D01*
X114591228Y-121881054D01*
X114597417Y-121867969D01*
X114604858Y-121855553D01*
X114613481Y-121843927D01*
X114623202Y-121833202D01*
X114633927Y-121823481D01*
X114645553Y-121814858D01*
X114657969Y-121807417D01*
X114671054Y-121801228D01*
X114684683Y-121796351D01*
X114698724Y-121792834D01*
X114713042Y-121790710D01*
X114727500Y-121790000D01*
X115072500Y-121790000D01*
X115086958Y-121790710D01*
G37*
G04 #@! TD.AperFunction*
G04 #@! TA.AperFunction,SMDPad,CuDef*
G36*
X116686958Y-120820710D02*
G01*
X116701276Y-120822834D01*
X116715317Y-120826351D01*
X116728946Y-120831228D01*
X116742031Y-120837417D01*
X116754447Y-120844858D01*
X116766073Y-120853481D01*
X116776798Y-120863202D01*
X116786519Y-120873927D01*
X116795142Y-120885553D01*
X116802583Y-120897969D01*
X116808772Y-120911054D01*
X116813649Y-120924683D01*
X116817166Y-120938724D01*
X116819290Y-120953042D01*
X116820000Y-120967500D01*
X116820000Y-121262500D01*
X116819290Y-121276958D01*
X116817166Y-121291276D01*
X116813649Y-121305317D01*
X116808772Y-121318946D01*
X116802583Y-121332031D01*
X116795142Y-121344447D01*
X116786519Y-121356073D01*
X116776798Y-121366798D01*
X116766073Y-121376519D01*
X116754447Y-121385142D01*
X116742031Y-121392583D01*
X116728946Y-121398772D01*
X116715317Y-121403649D01*
X116701276Y-121407166D01*
X116686958Y-121409290D01*
X116672500Y-121410000D01*
X116327500Y-121410000D01*
X116313042Y-121409290D01*
X116298724Y-121407166D01*
X116284683Y-121403649D01*
X116271054Y-121398772D01*
X116257969Y-121392583D01*
X116245553Y-121385142D01*
X116233927Y-121376519D01*
X116223202Y-121366798D01*
X116213481Y-121356073D01*
X116204858Y-121344447D01*
X116197417Y-121332031D01*
X116191228Y-121318946D01*
X116186351Y-121305317D01*
X116182834Y-121291276D01*
X116180710Y-121276958D01*
X116180000Y-121262500D01*
X116180000Y-120967500D01*
X116180710Y-120953042D01*
X116182834Y-120938724D01*
X116186351Y-120924683D01*
X116191228Y-120911054D01*
X116197417Y-120897969D01*
X116204858Y-120885553D01*
X116213481Y-120873927D01*
X116223202Y-120863202D01*
X116233927Y-120853481D01*
X116245553Y-120844858D01*
X116257969Y-120837417D01*
X116271054Y-120831228D01*
X116284683Y-120826351D01*
X116298724Y-120822834D01*
X116313042Y-120820710D01*
X116327500Y-120820000D01*
X116672500Y-120820000D01*
X116686958Y-120820710D01*
G37*
G04 #@! TD.AperFunction*
G04 #@! TA.AperFunction,SMDPad,CuDef*
G36*
X116686958Y-121790710D02*
G01*
X116701276Y-121792834D01*
X116715317Y-121796351D01*
X116728946Y-121801228D01*
X116742031Y-121807417D01*
X116754447Y-121814858D01*
X116766073Y-121823481D01*
X116776798Y-121833202D01*
X116786519Y-121843927D01*
X116795142Y-121855553D01*
X116802583Y-121867969D01*
X116808772Y-121881054D01*
X116813649Y-121894683D01*
X116817166Y-121908724D01*
X116819290Y-121923042D01*
X116820000Y-121937500D01*
X116820000Y-122232500D01*
X116819290Y-122246958D01*
X116817166Y-122261276D01*
X116813649Y-122275317D01*
X116808772Y-122288946D01*
X116802583Y-122302031D01*
X116795142Y-122314447D01*
X116786519Y-122326073D01*
X116776798Y-122336798D01*
X116766073Y-122346519D01*
X116754447Y-122355142D01*
X116742031Y-122362583D01*
X116728946Y-122368772D01*
X116715317Y-122373649D01*
X116701276Y-122377166D01*
X116686958Y-122379290D01*
X116672500Y-122380000D01*
X116327500Y-122380000D01*
X116313042Y-122379290D01*
X116298724Y-122377166D01*
X116284683Y-122373649D01*
X116271054Y-122368772D01*
X116257969Y-122362583D01*
X116245553Y-122355142D01*
X116233927Y-122346519D01*
X116223202Y-122336798D01*
X116213481Y-122326073D01*
X116204858Y-122314447D01*
X116197417Y-122302031D01*
X116191228Y-122288946D01*
X116186351Y-122275317D01*
X116182834Y-122261276D01*
X116180710Y-122246958D01*
X116180000Y-122232500D01*
X116180000Y-121937500D01*
X116180710Y-121923042D01*
X116182834Y-121908724D01*
X116186351Y-121894683D01*
X116191228Y-121881054D01*
X116197417Y-121867969D01*
X116204858Y-121855553D01*
X116213481Y-121843927D01*
X116223202Y-121833202D01*
X116233927Y-121823481D01*
X116245553Y-121814858D01*
X116257969Y-121807417D01*
X116271054Y-121801228D01*
X116284683Y-121796351D01*
X116298724Y-121792834D01*
X116313042Y-121790710D01*
X116327500Y-121790000D01*
X116672500Y-121790000D01*
X116686958Y-121790710D01*
G37*
G04 #@! TD.AperFunction*
G04 #@! TA.AperFunction,SMDPad,CuDef*
G36*
X85586958Y-127420710D02*
G01*
X85601276Y-127422834D01*
X85615317Y-127426351D01*
X85628946Y-127431228D01*
X85642031Y-127437417D01*
X85654447Y-127444858D01*
X85666073Y-127453481D01*
X85676798Y-127463202D01*
X85686519Y-127473927D01*
X85695142Y-127485553D01*
X85702583Y-127497969D01*
X85708772Y-127511054D01*
X85713649Y-127524683D01*
X85717166Y-127538724D01*
X85719290Y-127553042D01*
X85720000Y-127567500D01*
X85720000Y-127862500D01*
X85719290Y-127876958D01*
X85717166Y-127891276D01*
X85713649Y-127905317D01*
X85708772Y-127918946D01*
X85702583Y-127932031D01*
X85695142Y-127944447D01*
X85686519Y-127956073D01*
X85676798Y-127966798D01*
X85666073Y-127976519D01*
X85654447Y-127985142D01*
X85642031Y-127992583D01*
X85628946Y-127998772D01*
X85615317Y-128003649D01*
X85601276Y-128007166D01*
X85586958Y-128009290D01*
X85572500Y-128010000D01*
X85227500Y-128010000D01*
X85213042Y-128009290D01*
X85198724Y-128007166D01*
X85184683Y-128003649D01*
X85171054Y-127998772D01*
X85157969Y-127992583D01*
X85145553Y-127985142D01*
X85133927Y-127976519D01*
X85123202Y-127966798D01*
X85113481Y-127956073D01*
X85104858Y-127944447D01*
X85097417Y-127932031D01*
X85091228Y-127918946D01*
X85086351Y-127905317D01*
X85082834Y-127891276D01*
X85080710Y-127876958D01*
X85080000Y-127862500D01*
X85080000Y-127567500D01*
X85080710Y-127553042D01*
X85082834Y-127538724D01*
X85086351Y-127524683D01*
X85091228Y-127511054D01*
X85097417Y-127497969D01*
X85104858Y-127485553D01*
X85113481Y-127473927D01*
X85123202Y-127463202D01*
X85133927Y-127453481D01*
X85145553Y-127444858D01*
X85157969Y-127437417D01*
X85171054Y-127431228D01*
X85184683Y-127426351D01*
X85198724Y-127422834D01*
X85213042Y-127420710D01*
X85227500Y-127420000D01*
X85572500Y-127420000D01*
X85586958Y-127420710D01*
G37*
G04 #@! TD.AperFunction*
G04 #@! TA.AperFunction,SMDPad,CuDef*
G36*
X85586958Y-128390710D02*
G01*
X85601276Y-128392834D01*
X85615317Y-128396351D01*
X85628946Y-128401228D01*
X85642031Y-128407417D01*
X85654447Y-128414858D01*
X85666073Y-128423481D01*
X85676798Y-128433202D01*
X85686519Y-128443927D01*
X85695142Y-128455553D01*
X85702583Y-128467969D01*
X85708772Y-128481054D01*
X85713649Y-128494683D01*
X85717166Y-128508724D01*
X85719290Y-128523042D01*
X85720000Y-128537500D01*
X85720000Y-128832500D01*
X85719290Y-128846958D01*
X85717166Y-128861276D01*
X85713649Y-128875317D01*
X85708772Y-128888946D01*
X85702583Y-128902031D01*
X85695142Y-128914447D01*
X85686519Y-128926073D01*
X85676798Y-128936798D01*
X85666073Y-128946519D01*
X85654447Y-128955142D01*
X85642031Y-128962583D01*
X85628946Y-128968772D01*
X85615317Y-128973649D01*
X85601276Y-128977166D01*
X85586958Y-128979290D01*
X85572500Y-128980000D01*
X85227500Y-128980000D01*
X85213042Y-128979290D01*
X85198724Y-128977166D01*
X85184683Y-128973649D01*
X85171054Y-128968772D01*
X85157969Y-128962583D01*
X85145553Y-128955142D01*
X85133927Y-128946519D01*
X85123202Y-128936798D01*
X85113481Y-128926073D01*
X85104858Y-128914447D01*
X85097417Y-128902031D01*
X85091228Y-128888946D01*
X85086351Y-128875317D01*
X85082834Y-128861276D01*
X85080710Y-128846958D01*
X85080000Y-128832500D01*
X85080000Y-128537500D01*
X85080710Y-128523042D01*
X85082834Y-128508724D01*
X85086351Y-128494683D01*
X85091228Y-128481054D01*
X85097417Y-128467969D01*
X85104858Y-128455553D01*
X85113481Y-128443927D01*
X85123202Y-128433202D01*
X85133927Y-128423481D01*
X85145553Y-128414858D01*
X85157969Y-128407417D01*
X85171054Y-128401228D01*
X85184683Y-128396351D01*
X85198724Y-128392834D01*
X85213042Y-128390710D01*
X85227500Y-128390000D01*
X85572500Y-128390000D01*
X85586958Y-128390710D01*
G37*
G04 #@! TD.AperFunction*
D15*
X103750000Y-121750000D03*
D14*
X101210000Y-121750000D03*
X98670000Y-121750000D03*
X96130000Y-121750000D03*
G04 #@! TA.AperFunction,SMDPad,CuDef*
D16*
G36*
X113486958Y-120820710D02*
G01*
X113501276Y-120822834D01*
X113515317Y-120826351D01*
X113528946Y-120831228D01*
X113542031Y-120837417D01*
X113554447Y-120844858D01*
X113566073Y-120853481D01*
X113576798Y-120863202D01*
X113586519Y-120873927D01*
X113595142Y-120885553D01*
X113602583Y-120897969D01*
X113608772Y-120911054D01*
X113613649Y-120924683D01*
X113617166Y-120938724D01*
X113619290Y-120953042D01*
X113620000Y-120967500D01*
X113620000Y-121262500D01*
X113619290Y-121276958D01*
X113617166Y-121291276D01*
X113613649Y-121305317D01*
X113608772Y-121318946D01*
X113602583Y-121332031D01*
X113595142Y-121344447D01*
X113586519Y-121356073D01*
X113576798Y-121366798D01*
X113566073Y-121376519D01*
X113554447Y-121385142D01*
X113542031Y-121392583D01*
X113528946Y-121398772D01*
X113515317Y-121403649D01*
X113501276Y-121407166D01*
X113486958Y-121409290D01*
X113472500Y-121410000D01*
X113127500Y-121410000D01*
X113113042Y-121409290D01*
X113098724Y-121407166D01*
X113084683Y-121403649D01*
X113071054Y-121398772D01*
X113057969Y-121392583D01*
X113045553Y-121385142D01*
X113033927Y-121376519D01*
X113023202Y-121366798D01*
X113013481Y-121356073D01*
X113004858Y-121344447D01*
X112997417Y-121332031D01*
X112991228Y-121318946D01*
X112986351Y-121305317D01*
X112982834Y-121291276D01*
X112980710Y-121276958D01*
X112980000Y-121262500D01*
X112980000Y-120967500D01*
X112980710Y-120953042D01*
X112982834Y-120938724D01*
X112986351Y-120924683D01*
X112991228Y-120911054D01*
X112997417Y-120897969D01*
X113004858Y-120885553D01*
X113013481Y-120873927D01*
X113023202Y-120863202D01*
X113033927Y-120853481D01*
X113045553Y-120844858D01*
X113057969Y-120837417D01*
X113071054Y-120831228D01*
X113084683Y-120826351D01*
X113098724Y-120822834D01*
X113113042Y-120820710D01*
X113127500Y-120820000D01*
X113472500Y-120820000D01*
X113486958Y-120820710D01*
G37*
G04 #@! TD.AperFunction*
G04 #@! TA.AperFunction,SMDPad,CuDef*
G36*
X113486958Y-121790710D02*
G01*
X113501276Y-121792834D01*
X113515317Y-121796351D01*
X113528946Y-121801228D01*
X113542031Y-121807417D01*
X113554447Y-121814858D01*
X113566073Y-121823481D01*
X113576798Y-121833202D01*
X113586519Y-121843927D01*
X113595142Y-121855553D01*
X113602583Y-121867969D01*
X113608772Y-121881054D01*
X113613649Y-121894683D01*
X113617166Y-121908724D01*
X113619290Y-121923042D01*
X113620000Y-121937500D01*
X113620000Y-122232500D01*
X113619290Y-122246958D01*
X113617166Y-122261276D01*
X113613649Y-122275317D01*
X113608772Y-122288946D01*
X113602583Y-122302031D01*
X113595142Y-122314447D01*
X113586519Y-122326073D01*
X113576798Y-122336798D01*
X113566073Y-122346519D01*
X113554447Y-122355142D01*
X113542031Y-122362583D01*
X113528946Y-122368772D01*
X113515317Y-122373649D01*
X113501276Y-122377166D01*
X113486958Y-122379290D01*
X113472500Y-122380000D01*
X113127500Y-122380000D01*
X113113042Y-122379290D01*
X113098724Y-122377166D01*
X113084683Y-122373649D01*
X113071054Y-122368772D01*
X113057969Y-122362583D01*
X113045553Y-122355142D01*
X113033927Y-122346519D01*
X113023202Y-122336798D01*
X113013481Y-122326073D01*
X113004858Y-122314447D01*
X112997417Y-122302031D01*
X112991228Y-122288946D01*
X112986351Y-122275317D01*
X112982834Y-122261276D01*
X112980710Y-122246958D01*
X112980000Y-122232500D01*
X112980000Y-121937500D01*
X112980710Y-121923042D01*
X112982834Y-121908724D01*
X112986351Y-121894683D01*
X112991228Y-121881054D01*
X112997417Y-121867969D01*
X113004858Y-121855553D01*
X113013481Y-121843927D01*
X113023202Y-121833202D01*
X113033927Y-121823481D01*
X113045553Y-121814858D01*
X113057969Y-121807417D01*
X113071054Y-121801228D01*
X113084683Y-121796351D01*
X113098724Y-121792834D01*
X113113042Y-121790710D01*
X113127500Y-121790000D01*
X113472500Y-121790000D01*
X113486958Y-121790710D01*
G37*
G04 #@! TD.AperFunction*
D17*
X91262000Y-131603400D03*
X91262000Y-130653400D03*
X91262000Y-129703400D03*
X88582000Y-129703400D03*
X88582000Y-130653400D03*
X88582000Y-131603400D03*
D18*
X89922000Y-130653400D03*
D15*
X108900000Y-139500000D03*
D14*
X111440000Y-139500000D03*
X113980000Y-139500000D03*
X116520000Y-139500000D03*
D19*
X105350000Y-140575000D03*
X100850000Y-140575000D03*
X100850000Y-138425000D03*
X105350000Y-138425000D03*
X98750000Y-138425000D03*
X94250000Y-138425000D03*
X94250000Y-140575000D03*
X98750000Y-140575000D03*
X92150000Y-138425000D03*
X87650000Y-138425000D03*
X87650000Y-140575000D03*
X92150000Y-140575000D03*
X85550000Y-140575000D03*
X81050000Y-140575000D03*
X81050000Y-138425000D03*
X85550000Y-138425000D03*
D20*
X114650000Y-132340000D03*
X107150000Y-127260000D03*
X107150000Y-129800000D03*
X107150000Y-132340000D03*
X114650000Y-127260000D03*
X114650000Y-129800000D03*
G04 #@! TA.AperFunction,SMDPad,CuDef*
D16*
G36*
X94886958Y-127420710D02*
G01*
X94901276Y-127422834D01*
X94915317Y-127426351D01*
X94928946Y-127431228D01*
X94942031Y-127437417D01*
X94954447Y-127444858D01*
X94966073Y-127453481D01*
X94976798Y-127463202D01*
X94986519Y-127473927D01*
X94995142Y-127485553D01*
X95002583Y-127497969D01*
X95008772Y-127511054D01*
X95013649Y-127524683D01*
X95017166Y-127538724D01*
X95019290Y-127553042D01*
X95020000Y-127567500D01*
X95020000Y-127862500D01*
X95019290Y-127876958D01*
X95017166Y-127891276D01*
X95013649Y-127905317D01*
X95008772Y-127918946D01*
X95002583Y-127932031D01*
X94995142Y-127944447D01*
X94986519Y-127956073D01*
X94976798Y-127966798D01*
X94966073Y-127976519D01*
X94954447Y-127985142D01*
X94942031Y-127992583D01*
X94928946Y-127998772D01*
X94915317Y-128003649D01*
X94901276Y-128007166D01*
X94886958Y-128009290D01*
X94872500Y-128010000D01*
X94527500Y-128010000D01*
X94513042Y-128009290D01*
X94498724Y-128007166D01*
X94484683Y-128003649D01*
X94471054Y-127998772D01*
X94457969Y-127992583D01*
X94445553Y-127985142D01*
X94433927Y-127976519D01*
X94423202Y-127966798D01*
X94413481Y-127956073D01*
X94404858Y-127944447D01*
X94397417Y-127932031D01*
X94391228Y-127918946D01*
X94386351Y-127905317D01*
X94382834Y-127891276D01*
X94380710Y-127876958D01*
X94380000Y-127862500D01*
X94380000Y-127567500D01*
X94380710Y-127553042D01*
X94382834Y-127538724D01*
X94386351Y-127524683D01*
X94391228Y-127511054D01*
X94397417Y-127497969D01*
X94404858Y-127485553D01*
X94413481Y-127473927D01*
X94423202Y-127463202D01*
X94433927Y-127453481D01*
X94445553Y-127444858D01*
X94457969Y-127437417D01*
X94471054Y-127431228D01*
X94484683Y-127426351D01*
X94498724Y-127422834D01*
X94513042Y-127420710D01*
X94527500Y-127420000D01*
X94872500Y-127420000D01*
X94886958Y-127420710D01*
G37*
G04 #@! TD.AperFunction*
G04 #@! TA.AperFunction,SMDPad,CuDef*
G36*
X94886958Y-128390710D02*
G01*
X94901276Y-128392834D01*
X94915317Y-128396351D01*
X94928946Y-128401228D01*
X94942031Y-128407417D01*
X94954447Y-128414858D01*
X94966073Y-128423481D01*
X94976798Y-128433202D01*
X94986519Y-128443927D01*
X94995142Y-128455553D01*
X95002583Y-128467969D01*
X95008772Y-128481054D01*
X95013649Y-128494683D01*
X95017166Y-128508724D01*
X95019290Y-128523042D01*
X95020000Y-128537500D01*
X95020000Y-128832500D01*
X95019290Y-128846958D01*
X95017166Y-128861276D01*
X95013649Y-128875317D01*
X95008772Y-128888946D01*
X95002583Y-128902031D01*
X94995142Y-128914447D01*
X94986519Y-128926073D01*
X94976798Y-128936798D01*
X94966073Y-128946519D01*
X94954447Y-128955142D01*
X94942031Y-128962583D01*
X94928946Y-128968772D01*
X94915317Y-128973649D01*
X94901276Y-128977166D01*
X94886958Y-128979290D01*
X94872500Y-128980000D01*
X94527500Y-128980000D01*
X94513042Y-128979290D01*
X94498724Y-128977166D01*
X94484683Y-128973649D01*
X94471054Y-128968772D01*
X94457969Y-128962583D01*
X94445553Y-128955142D01*
X94433927Y-128946519D01*
X94423202Y-128936798D01*
X94413481Y-128926073D01*
X94404858Y-128914447D01*
X94397417Y-128902031D01*
X94391228Y-128888946D01*
X94386351Y-128875317D01*
X94382834Y-128861276D01*
X94380710Y-128846958D01*
X94380000Y-128832500D01*
X94380000Y-128537500D01*
X94380710Y-128523042D01*
X94382834Y-128508724D01*
X94386351Y-128494683D01*
X94391228Y-128481054D01*
X94397417Y-128467969D01*
X94404858Y-128455553D01*
X94413481Y-128443927D01*
X94423202Y-128433202D01*
X94433927Y-128423481D01*
X94445553Y-128414858D01*
X94457969Y-128407417D01*
X94471054Y-128401228D01*
X94484683Y-128396351D01*
X94498724Y-128392834D01*
X94513042Y-128390710D01*
X94527500Y-128390000D01*
X94872500Y-128390000D01*
X94886958Y-128390710D01*
G37*
G04 #@! TD.AperFunction*
G04 #@! TA.AperFunction,SMDPad,CuDef*
G36*
X97191958Y-125980710D02*
G01*
X97206276Y-125982834D01*
X97220317Y-125986351D01*
X97233946Y-125991228D01*
X97247031Y-125997417D01*
X97259447Y-126004858D01*
X97271073Y-126013481D01*
X97281798Y-126023202D01*
X97291519Y-126033927D01*
X97300142Y-126045553D01*
X97307583Y-126057969D01*
X97313772Y-126071054D01*
X97318649Y-126084683D01*
X97322166Y-126098724D01*
X97324290Y-126113042D01*
X97325000Y-126127500D01*
X97325000Y-126472500D01*
X97324290Y-126486958D01*
X97322166Y-126501276D01*
X97318649Y-126515317D01*
X97313772Y-126528946D01*
X97307583Y-126542031D01*
X97300142Y-126554447D01*
X97291519Y-126566073D01*
X97281798Y-126576798D01*
X97271073Y-126586519D01*
X97259447Y-126595142D01*
X97247031Y-126602583D01*
X97233946Y-126608772D01*
X97220317Y-126613649D01*
X97206276Y-126617166D01*
X97191958Y-126619290D01*
X97177500Y-126620000D01*
X96882500Y-126620000D01*
X96868042Y-126619290D01*
X96853724Y-126617166D01*
X96839683Y-126613649D01*
X96826054Y-126608772D01*
X96812969Y-126602583D01*
X96800553Y-126595142D01*
X96788927Y-126586519D01*
X96778202Y-126576798D01*
X96768481Y-126566073D01*
X96759858Y-126554447D01*
X96752417Y-126542031D01*
X96746228Y-126528946D01*
X96741351Y-126515317D01*
X96737834Y-126501276D01*
X96735710Y-126486958D01*
X96735000Y-126472500D01*
X96735000Y-126127500D01*
X96735710Y-126113042D01*
X96737834Y-126098724D01*
X96741351Y-126084683D01*
X96746228Y-126071054D01*
X96752417Y-126057969D01*
X96759858Y-126045553D01*
X96768481Y-126033927D01*
X96778202Y-126023202D01*
X96788927Y-126013481D01*
X96800553Y-126004858D01*
X96812969Y-125997417D01*
X96826054Y-125991228D01*
X96839683Y-125986351D01*
X96853724Y-125982834D01*
X96868042Y-125980710D01*
X96882500Y-125980000D01*
X97177500Y-125980000D01*
X97191958Y-125980710D01*
G37*
G04 #@! TD.AperFunction*
G04 #@! TA.AperFunction,SMDPad,CuDef*
G36*
X98161958Y-125980710D02*
G01*
X98176276Y-125982834D01*
X98190317Y-125986351D01*
X98203946Y-125991228D01*
X98217031Y-125997417D01*
X98229447Y-126004858D01*
X98241073Y-126013481D01*
X98251798Y-126023202D01*
X98261519Y-126033927D01*
X98270142Y-126045553D01*
X98277583Y-126057969D01*
X98283772Y-126071054D01*
X98288649Y-126084683D01*
X98292166Y-126098724D01*
X98294290Y-126113042D01*
X98295000Y-126127500D01*
X98295000Y-126472500D01*
X98294290Y-126486958D01*
X98292166Y-126501276D01*
X98288649Y-126515317D01*
X98283772Y-126528946D01*
X98277583Y-126542031D01*
X98270142Y-126554447D01*
X98261519Y-126566073D01*
X98251798Y-126576798D01*
X98241073Y-126586519D01*
X98229447Y-126595142D01*
X98217031Y-126602583D01*
X98203946Y-126608772D01*
X98190317Y-126613649D01*
X98176276Y-126617166D01*
X98161958Y-126619290D01*
X98147500Y-126620000D01*
X97852500Y-126620000D01*
X97838042Y-126619290D01*
X97823724Y-126617166D01*
X97809683Y-126613649D01*
X97796054Y-126608772D01*
X97782969Y-126602583D01*
X97770553Y-126595142D01*
X97758927Y-126586519D01*
X97748202Y-126576798D01*
X97738481Y-126566073D01*
X97729858Y-126554447D01*
X97722417Y-126542031D01*
X97716228Y-126528946D01*
X97711351Y-126515317D01*
X97707834Y-126501276D01*
X97705710Y-126486958D01*
X97705000Y-126472500D01*
X97705000Y-126127500D01*
X97705710Y-126113042D01*
X97707834Y-126098724D01*
X97711351Y-126084683D01*
X97716228Y-126071054D01*
X97722417Y-126057969D01*
X97729858Y-126045553D01*
X97738481Y-126033927D01*
X97748202Y-126023202D01*
X97758927Y-126013481D01*
X97770553Y-126004858D01*
X97782969Y-125997417D01*
X97796054Y-125991228D01*
X97809683Y-125986351D01*
X97823724Y-125982834D01*
X97838042Y-125980710D01*
X97852500Y-125980000D01*
X98147500Y-125980000D01*
X98161958Y-125980710D01*
G37*
G04 #@! TD.AperFunction*
G04 #@! TA.AperFunction,SMDPad,CuDef*
G36*
X101186958Y-129220710D02*
G01*
X101201276Y-129222834D01*
X101215317Y-129226351D01*
X101228946Y-129231228D01*
X101242031Y-129237417D01*
X101254447Y-129244858D01*
X101266073Y-129253481D01*
X101276798Y-129263202D01*
X101286519Y-129273927D01*
X101295142Y-129285553D01*
X101302583Y-129297969D01*
X101308772Y-129311054D01*
X101313649Y-129324683D01*
X101317166Y-129338724D01*
X101319290Y-129353042D01*
X101320000Y-129367500D01*
X101320000Y-129662500D01*
X101319290Y-129676958D01*
X101317166Y-129691276D01*
X101313649Y-129705317D01*
X101308772Y-129718946D01*
X101302583Y-129732031D01*
X101295142Y-129744447D01*
X101286519Y-129756073D01*
X101276798Y-129766798D01*
X101266073Y-129776519D01*
X101254447Y-129785142D01*
X101242031Y-129792583D01*
X101228946Y-129798772D01*
X101215317Y-129803649D01*
X101201276Y-129807166D01*
X101186958Y-129809290D01*
X101172500Y-129810000D01*
X100827500Y-129810000D01*
X100813042Y-129809290D01*
X100798724Y-129807166D01*
X100784683Y-129803649D01*
X100771054Y-129798772D01*
X100757969Y-129792583D01*
X100745553Y-129785142D01*
X100733927Y-129776519D01*
X100723202Y-129766798D01*
X100713481Y-129756073D01*
X100704858Y-129744447D01*
X100697417Y-129732031D01*
X100691228Y-129718946D01*
X100686351Y-129705317D01*
X100682834Y-129691276D01*
X100680710Y-129676958D01*
X100680000Y-129662500D01*
X100680000Y-129367500D01*
X100680710Y-129353042D01*
X100682834Y-129338724D01*
X100686351Y-129324683D01*
X100691228Y-129311054D01*
X100697417Y-129297969D01*
X100704858Y-129285553D01*
X100713481Y-129273927D01*
X100723202Y-129263202D01*
X100733927Y-129253481D01*
X100745553Y-129244858D01*
X100757969Y-129237417D01*
X100771054Y-129231228D01*
X100784683Y-129226351D01*
X100798724Y-129222834D01*
X100813042Y-129220710D01*
X100827500Y-129220000D01*
X101172500Y-129220000D01*
X101186958Y-129220710D01*
G37*
G04 #@! TD.AperFunction*
G04 #@! TA.AperFunction,SMDPad,CuDef*
G36*
X101186958Y-130190710D02*
G01*
X101201276Y-130192834D01*
X101215317Y-130196351D01*
X101228946Y-130201228D01*
X101242031Y-130207417D01*
X101254447Y-130214858D01*
X101266073Y-130223481D01*
X101276798Y-130233202D01*
X101286519Y-130243927D01*
X101295142Y-130255553D01*
X101302583Y-130267969D01*
X101308772Y-130281054D01*
X101313649Y-130294683D01*
X101317166Y-130308724D01*
X101319290Y-130323042D01*
X101320000Y-130337500D01*
X101320000Y-130632500D01*
X101319290Y-130646958D01*
X101317166Y-130661276D01*
X101313649Y-130675317D01*
X101308772Y-130688946D01*
X101302583Y-130702031D01*
X101295142Y-130714447D01*
X101286519Y-130726073D01*
X101276798Y-130736798D01*
X101266073Y-130746519D01*
X101254447Y-130755142D01*
X101242031Y-130762583D01*
X101228946Y-130768772D01*
X101215317Y-130773649D01*
X101201276Y-130777166D01*
X101186958Y-130779290D01*
X101172500Y-130780000D01*
X100827500Y-130780000D01*
X100813042Y-130779290D01*
X100798724Y-130777166D01*
X100784683Y-130773649D01*
X100771054Y-130768772D01*
X100757969Y-130762583D01*
X100745553Y-130755142D01*
X100733927Y-130746519D01*
X100723202Y-130736798D01*
X100713481Y-130726073D01*
X100704858Y-130714447D01*
X100697417Y-130702031D01*
X100691228Y-130688946D01*
X100686351Y-130675317D01*
X100682834Y-130661276D01*
X100680710Y-130646958D01*
X100680000Y-130632500D01*
X100680000Y-130337500D01*
X100680710Y-130323042D01*
X100682834Y-130308724D01*
X100686351Y-130294683D01*
X100691228Y-130281054D01*
X100697417Y-130267969D01*
X100704858Y-130255553D01*
X100713481Y-130243927D01*
X100723202Y-130233202D01*
X100733927Y-130223481D01*
X100745553Y-130214858D01*
X100757969Y-130207417D01*
X100771054Y-130201228D01*
X100784683Y-130196351D01*
X100798724Y-130192834D01*
X100813042Y-130190710D01*
X100827500Y-130190000D01*
X101172500Y-130190000D01*
X101186958Y-130190710D01*
G37*
G04 #@! TD.AperFunction*
D21*
X83300000Y-135000000D03*
X108800000Y-122400000D03*
D22*
X95900000Y-140600000D03*
X119000000Y-121900000D03*
X120700000Y-123800000D03*
X116900000Y-129900000D03*
X110600000Y-135800000D03*
X110700000Y-129500000D03*
X95400000Y-132500000D03*
X92100000Y-129600000D03*
X134600000Y-135800000D03*
X133300000Y-136700000D03*
X123200000Y-133400000D03*
X117000000Y-132900000D03*
X124400000Y-131300000D03*
X117000000Y-126400000D03*
X123657013Y-132706343D03*
X116800000Y-127600000D03*
X118400000Y-131300000D03*
X124000000Y-131900000D03*
X109400000Y-132100000D03*
X103100000Y-138500000D03*
X103100000Y-135600000D03*
X103300000Y-132600000D03*
X103300000Y-127400000D03*
X121600000Y-123500000D03*
X119900000Y-121800000D03*
X125400000Y-130300000D03*
X125000000Y-130800000D03*
X135800000Y-135100000D03*
X92200000Y-136600000D03*
X137100000Y-134400000D03*
X85700000Y-136600000D03*
X119300000Y-120200000D03*
X137000000Y-123900000D03*
X100400000Y-128600000D03*
X107400000Y-135700000D03*
X100200000Y-131700000D03*
X97900000Y-127300000D03*
X117900000Y-125700000D03*
X99000000Y-125800000D03*
X95700000Y-128700000D03*
X115300000Y-125753300D03*
X104200000Y-125753300D03*
D23*
X94250000Y-140575000D02*
X95875000Y-140575000D01*
X95875000Y-140575000D02*
X95900000Y-140600000D01*
X118000000Y-122085000D02*
X118815000Y-122085000D01*
X118815000Y-122085000D02*
X119000000Y-121900000D01*
X120346000Y-124841000D02*
X120346000Y-124154000D01*
X120346000Y-124154000D02*
X120700000Y-123800000D01*
X116450000Y-129800000D02*
X116550000Y-129900000D01*
X114650000Y-129800000D02*
X116450000Y-129800000D01*
X116550000Y-129900000D02*
X116900000Y-129900000D01*
X110600000Y-135800000D02*
X110600000Y-129600000D01*
X110600000Y-129600000D02*
X110700000Y-129500000D01*
X92785000Y-132500000D02*
X92600000Y-132685000D01*
X95400000Y-132500000D02*
X92785000Y-132500000D01*
X91262000Y-129703400D02*
X91996600Y-129703400D01*
X91996600Y-129703400D02*
X92100000Y-129600000D01*
D24*
X120346000Y-136271000D02*
X108727838Y-136271000D01*
X108727838Y-136271000D02*
X108710137Y-136253299D01*
X89405464Y-136205464D02*
X88305464Y-136205464D01*
X108710137Y-136253299D02*
X89405464Y-136205464D01*
X83175000Y-131075000D02*
X83175000Y-130850000D01*
X88305464Y-136205464D02*
X83175000Y-131075000D01*
X134536000Y-139556000D02*
X134536000Y-135864000D01*
X134536000Y-135864000D02*
X134600000Y-135800000D01*
X133266000Y-139556000D02*
X133266000Y-136734000D01*
X133266000Y-136734000D02*
X133300000Y-136700000D01*
X123106000Y-139556000D02*
X123106000Y-133494000D01*
X123106000Y-133494000D02*
X123200000Y-133400000D01*
X114650000Y-132340000D02*
X116440000Y-132340000D01*
X116440000Y-132340000D02*
X117000000Y-132900000D01*
X108802400Y-127260000D02*
X109962400Y-126100000D01*
X107150000Y-127260000D02*
X108802400Y-127260000D01*
X109962400Y-126100000D02*
X116700000Y-126100000D01*
X116700000Y-126100000D02*
X117000000Y-126400000D01*
X124400000Y-131300000D02*
X124400000Y-132400000D01*
X126900000Y-134900000D02*
X126900000Y-135300000D01*
X124400000Y-132400000D02*
X126900000Y-134900000D01*
X126916000Y-139556000D02*
X126900000Y-135300000D01*
X114650000Y-127260000D02*
X116460000Y-127260000D01*
X116460000Y-127260000D02*
X116800000Y-127600000D01*
X123657013Y-132706343D02*
X123657013Y-133157013D01*
X124376000Y-133876000D02*
X124376000Y-139556000D01*
X123657013Y-133157013D02*
X124376000Y-133876000D01*
X116950499Y-127750499D02*
X116800000Y-127600000D01*
X118249501Y-131149501D02*
X118249501Y-129049501D01*
X118249501Y-129049501D02*
X116950499Y-127750499D01*
X118400000Y-131300000D02*
X118249501Y-131149501D01*
X109160000Y-132340000D02*
X107150000Y-132340000D01*
X109400000Y-132100000D02*
X109160000Y-132340000D01*
X125646000Y-134146000D02*
X125646000Y-139556000D01*
X124000000Y-131900000D02*
X124000000Y-132500000D01*
X124000000Y-132500000D02*
X125646000Y-134146000D01*
X103125000Y-138475000D02*
X103100000Y-138500000D01*
X103125000Y-138425000D02*
X103125000Y-138475000D01*
X103125000Y-138425000D02*
X105350000Y-138425000D01*
X100850000Y-138425000D02*
X103125000Y-138425000D01*
X103100000Y-135600000D02*
X103300000Y-135400000D01*
X103300000Y-135400000D02*
X103300000Y-132600000D01*
X113300000Y-122380000D02*
X114020000Y-123100000D01*
X113300000Y-122085000D02*
X113300000Y-122380000D01*
X118700000Y-123100000D02*
X119900000Y-121900000D01*
X118335000Y-121100000D02*
X119600000Y-121100000D01*
X118320000Y-121115000D02*
X118335000Y-121100000D01*
X118000000Y-121115000D02*
X118320000Y-121115000D01*
X119900000Y-121400000D02*
X119600000Y-121100000D01*
X135264400Y-123500000D02*
X121600000Y-123500000D01*
X135806000Y-121556000D02*
X135806000Y-122958400D01*
X135806000Y-122958400D02*
X135264400Y-123500000D01*
X119900000Y-121900000D02*
X119900000Y-121800000D01*
X119900000Y-121800000D02*
X119900000Y-121400000D01*
X114020000Y-123100000D02*
X114100000Y-123100000D01*
X114100000Y-123100000D02*
X118700000Y-123100000D01*
X114000000Y-123100000D02*
X114100000Y-123100000D01*
X111300000Y-125800000D02*
X114000000Y-123100000D01*
X103300000Y-127400000D02*
X104900000Y-125800000D01*
X104900000Y-125800000D02*
X111300000Y-125800000D01*
X131996000Y-139556000D02*
X131996000Y-138153600D01*
X125550499Y-130450499D02*
X125550499Y-131750499D01*
X125400000Y-130300000D02*
X125550499Y-130450499D01*
X125550499Y-131750499D02*
X128200000Y-134400000D01*
X131996000Y-138153600D02*
X128200000Y-134400000D01*
X129456000Y-136556000D02*
X129456000Y-139556000D01*
X125000000Y-130800000D02*
X125000000Y-132100000D01*
X125000000Y-132100000D02*
X129456000Y-136556000D01*
X121233600Y-139556000D02*
X119177600Y-137500000D01*
X121836000Y-139556000D02*
X121233600Y-139556000D01*
X98750000Y-137922600D02*
X98750000Y-138425000D01*
X99172600Y-137500000D02*
X98750000Y-137922600D01*
X119177600Y-137500000D02*
X99172600Y-137500000D01*
X94250000Y-138425000D02*
X98750000Y-138425000D01*
X135806000Y-139556000D02*
X135806000Y-135106000D01*
X135806000Y-135106000D02*
X135800000Y-135100000D01*
X92200000Y-138375000D02*
X92150000Y-138425000D01*
X92200000Y-136600000D02*
X92200000Y-138375000D01*
X87650000Y-138425000D02*
X92150000Y-138425000D01*
X137076000Y-139556000D02*
X137076000Y-134424000D01*
X137076000Y-134424000D02*
X137100000Y-134400000D01*
X85700000Y-138275000D02*
X85550000Y-138425000D01*
X85700000Y-136600000D02*
X85700000Y-138275000D01*
X81050000Y-138425000D02*
X85550000Y-138425000D01*
D23*
X91262000Y-130653400D02*
X91262000Y-131603400D01*
X92488400Y-131603400D02*
X92600000Y-131715000D01*
X91262000Y-131603400D02*
X92488400Y-131603400D01*
X113300000Y-121115000D02*
X116500000Y-121115000D01*
X92600000Y-131715000D02*
X92600000Y-127400000D01*
X92600000Y-127400000D02*
X96000000Y-124000000D01*
X96000000Y-124000000D02*
X104800000Y-124000000D01*
X117735000Y-120200000D02*
X119300000Y-120200000D01*
X116500000Y-121115000D02*
X116820000Y-121115000D01*
X116820000Y-121115000D02*
X117735000Y-120200000D01*
X137000000Y-121632000D02*
X137076000Y-121556000D01*
X137000000Y-123900000D02*
X137000000Y-121632000D01*
X104800000Y-124000000D02*
X104900000Y-124000000D01*
X112900000Y-121100000D02*
X113300000Y-121115000D01*
X104800000Y-124000000D02*
X105800000Y-124000000D01*
X107100000Y-125300000D02*
X110600000Y-125300000D01*
X112000000Y-123900000D02*
X112000000Y-122000000D01*
X105800000Y-124000000D02*
X107100000Y-125300000D01*
X110600000Y-125300000D02*
X112000000Y-123900000D01*
X112000000Y-122000000D02*
X112900000Y-121100000D01*
X85400000Y-128980000D02*
X85400000Y-128685000D01*
X87100000Y-132120000D02*
X85400000Y-130420000D01*
X85400000Y-130420000D02*
X85400000Y-128980000D01*
X87100000Y-132415000D02*
X87100000Y-132120000D01*
X85035000Y-129050000D02*
X85400000Y-128685000D01*
X87770400Y-132415000D02*
X88582000Y-131603400D01*
X87100000Y-132415000D02*
X87770400Y-132415000D01*
X101000000Y-129515000D02*
X101000000Y-129200000D01*
X101000000Y-129200000D02*
X100400000Y-128600000D01*
X88582000Y-130653400D02*
X88500000Y-131200000D01*
X88500000Y-131200000D02*
X88582000Y-131603400D01*
X107400000Y-135595000D02*
X107400000Y-135700000D01*
X101000000Y-129515000D02*
X101320000Y-129515000D01*
X101320000Y-129515000D02*
X107400000Y-135595000D01*
X87964599Y-130664599D02*
X88500000Y-131200000D01*
X87200000Y-129900000D02*
X87964599Y-130664599D01*
X87964599Y-124635401D02*
X87200000Y-125400000D01*
X87964599Y-124595401D02*
X87964599Y-124635401D01*
X87200000Y-125400000D02*
X87200000Y-129900000D01*
X90700000Y-121860000D02*
X87964599Y-124595401D01*
X85080000Y-128685000D02*
X85400000Y-128685000D01*
X83710000Y-128685000D02*
X85080000Y-128685000D01*
X83175000Y-128150000D02*
X83710000Y-128685000D01*
X83175000Y-127350000D02*
X83175000Y-128150000D01*
D24*
X101000000Y-130485000D02*
X101000000Y-130900000D01*
X101000000Y-130900000D02*
X100200000Y-131700000D01*
X98000000Y-126300000D02*
X98000000Y-127200000D01*
X98000000Y-127200000D02*
X97900000Y-127300000D01*
X120346000Y-126111000D02*
X118311000Y-126111000D01*
X118311000Y-126111000D02*
X117900000Y-125700000D01*
X98500000Y-125800000D02*
X98000000Y-126300000D01*
X99000000Y-125800000D02*
X98500000Y-125800000D01*
X94700000Y-128685000D02*
X95685000Y-128685000D01*
X95685000Y-128685000D02*
X95700000Y-128700000D01*
X121233600Y-121556000D02*
X119189600Y-123600000D01*
X121836000Y-121556000D02*
X121233600Y-121556000D01*
X119189600Y-123600000D02*
X119189600Y-123610400D01*
X119189600Y-123610400D02*
X117000000Y-125800000D01*
X117000000Y-125800000D02*
X115346700Y-125800000D01*
X115346700Y-125800000D02*
X115300000Y-125753300D01*
X104200000Y-125753300D02*
X103846700Y-125753300D01*
X103846700Y-125753300D02*
X101600000Y-128000000D01*
X96400000Y-128000000D02*
X95700000Y-128700000D01*
X101600000Y-128000000D02*
X96400000Y-128000000D01*
D25*
G36*
X139498000Y-140768000D02*
G01*
X139352351Y-140768000D01*
X139385376Y-140692233D01*
X139431000Y-140483000D01*
X139431000Y-139683000D01*
X138473000Y-139683000D01*
X138473000Y-139703000D01*
X138219000Y-139703000D01*
X138219000Y-139683000D01*
X138199000Y-139683000D01*
X138199000Y-139429000D01*
X138219000Y-139429000D01*
X138219000Y-137838498D01*
X138473000Y-137838498D01*
X138473000Y-139429000D01*
X139431000Y-139429000D01*
X139431000Y-138629000D01*
X139385376Y-138419767D01*
X139299809Y-138223455D01*
X139177587Y-138047609D01*
X139023408Y-137898986D01*
X138843197Y-137783298D01*
X138640001Y-137711592D01*
X138473000Y-137838498D01*
X138219000Y-137838498D01*
X138051999Y-137711592D01*
X137848803Y-137783298D01*
X137787200Y-137822845D01*
X137787200Y-134785395D01*
X137796101Y-134772074D01*
X137855314Y-134629122D01*
X137885500Y-134477365D01*
X137885500Y-134322635D01*
X137855314Y-134170878D01*
X137796101Y-134027926D01*
X137710138Y-133899273D01*
X137600727Y-133789862D01*
X137472074Y-133703899D01*
X137329122Y-133644686D01*
X137177365Y-133614500D01*
X137022635Y-133614500D01*
X136870878Y-133644686D01*
X136727926Y-133703899D01*
X136599273Y-133789862D01*
X136489862Y-133899273D01*
X136403899Y-134027926D01*
X136344686Y-134170878D01*
X136314500Y-134322635D01*
X136314500Y-134477365D01*
X136321023Y-134510158D01*
X136300727Y-134489862D01*
X136172074Y-134403899D01*
X136029122Y-134344686D01*
X135877365Y-134314500D01*
X135722635Y-134314500D01*
X135570878Y-134344686D01*
X135427926Y-134403899D01*
X135299273Y-134489862D01*
X135189862Y-134599273D01*
X135103899Y-134727926D01*
X135044686Y-134870878D01*
X135014500Y-135022635D01*
X135014500Y-135132247D01*
X134972074Y-135103899D01*
X134829122Y-135044686D01*
X134677365Y-135014500D01*
X134522635Y-135014500D01*
X134370878Y-135044686D01*
X134227926Y-135103899D01*
X134099273Y-135189862D01*
X133989862Y-135299273D01*
X133903899Y-135427926D01*
X133844686Y-135570878D01*
X133814500Y-135722635D01*
X133814500Y-135877365D01*
X133824801Y-135929152D01*
X133824801Y-136113936D01*
X133800727Y-136089862D01*
X133672074Y-136003899D01*
X133529122Y-135944686D01*
X133377365Y-135914500D01*
X133222635Y-135914500D01*
X133070878Y-135944686D01*
X132927926Y-136003899D01*
X132799273Y-136089862D01*
X132689862Y-136199273D01*
X132603899Y-136327926D01*
X132544686Y-136470878D01*
X132514500Y-136622635D01*
X132514500Y-136777365D01*
X132544686Y-136929122D01*
X132554801Y-136953541D01*
X132554801Y-137713287D01*
X132544416Y-137700777D01*
X132501327Y-137648273D01*
X132472652Y-137624740D01*
X128701539Y-133895750D01*
X128698670Y-133892881D01*
X130360250Y-133891000D01*
X130519000Y-133732250D01*
X130519000Y-130383000D01*
X130773000Y-130383000D01*
X130773000Y-133732250D01*
X130931750Y-133891000D01*
X133646000Y-133894072D01*
X133770482Y-133881812D01*
X133890180Y-133845502D01*
X134000494Y-133786537D01*
X134097185Y-133707185D01*
X134176537Y-133610494D01*
X134235502Y-133500180D01*
X134271812Y-133380482D01*
X134284072Y-133256000D01*
X134281000Y-130541750D01*
X134122250Y-130383000D01*
X130773000Y-130383000D01*
X130519000Y-130383000D01*
X127169750Y-130383000D01*
X127011000Y-130541750D01*
X127009119Y-132203332D01*
X126261699Y-131455912D01*
X126261699Y-130485427D01*
X126265139Y-130450499D01*
X126261699Y-130415570D01*
X126261699Y-130415563D01*
X126251408Y-130311079D01*
X126210741Y-130177018D01*
X126156088Y-130074770D01*
X126155314Y-130070878D01*
X126096101Y-129927926D01*
X126010138Y-129799273D01*
X125900727Y-129689862D01*
X125772074Y-129603899D01*
X125629122Y-129544686D01*
X125477365Y-129514500D01*
X125322635Y-129514500D01*
X125170878Y-129544686D01*
X125027926Y-129603899D01*
X124899273Y-129689862D01*
X124789862Y-129799273D01*
X124703899Y-129927926D01*
X124644686Y-130070878D01*
X124639033Y-130099298D01*
X124627926Y-130103899D01*
X124499273Y-130189862D01*
X124389862Y-130299273D01*
X124303899Y-130427926D01*
X124263136Y-130526335D01*
X124170878Y-130544686D01*
X124027926Y-130603899D01*
X123899273Y-130689862D01*
X123789862Y-130799273D01*
X123703899Y-130927926D01*
X123644686Y-131070878D01*
X123616740Y-131211373D01*
X123499273Y-131289862D01*
X123389862Y-131399273D01*
X123303899Y-131527926D01*
X123244686Y-131670878D01*
X123214500Y-131822635D01*
X123214500Y-131977365D01*
X123228536Y-132047929D01*
X123156286Y-132096205D01*
X123046875Y-132205616D01*
X122960912Y-132334269D01*
X122901699Y-132477221D01*
X122871513Y-132628978D01*
X122871513Y-132685845D01*
X122827926Y-132703899D01*
X122699273Y-132789862D01*
X122589862Y-132899273D01*
X122503899Y-133027926D01*
X122444686Y-133170878D01*
X122414500Y-133322635D01*
X122414500Y-133323567D01*
X122405092Y-133354581D01*
X122391360Y-133494000D01*
X122394801Y-133528936D01*
X122394800Y-137824417D01*
X122253219Y-137748741D01*
X122048696Y-137686700D01*
X121836000Y-137665751D01*
X121623303Y-137686700D01*
X121418780Y-137748741D01*
X121230290Y-137849491D01*
X121065078Y-137985078D01*
X120929491Y-138150290D01*
X120896117Y-138212729D01*
X120039387Y-137356000D01*
X121199294Y-137356000D01*
X121358697Y-137340300D01*
X121563220Y-137278259D01*
X121751710Y-137177509D01*
X121916922Y-137041922D01*
X122052509Y-136876710D01*
X122153259Y-136688220D01*
X122215300Y-136483697D01*
X122236249Y-136271000D01*
X122215300Y-136058303D01*
X122153259Y-135853780D01*
X122052509Y-135665290D01*
X122028471Y-135636000D01*
X122052509Y-135606710D01*
X122153259Y-135418220D01*
X122215300Y-135213697D01*
X122236249Y-135001000D01*
X122215300Y-134788303D01*
X122153259Y-134583780D01*
X122052509Y-134395290D01*
X122028471Y-134366000D01*
X122052509Y-134336710D01*
X122153259Y-134148220D01*
X122215300Y-133943697D01*
X122236249Y-133731000D01*
X122215300Y-133518303D01*
X122153259Y-133313780D01*
X122052509Y-133125290D01*
X122028471Y-133096000D01*
X122052509Y-133066710D01*
X122153259Y-132878220D01*
X122215300Y-132673697D01*
X122236249Y-132461000D01*
X122215300Y-132248303D01*
X122153259Y-132043780D01*
X122052509Y-131855290D01*
X122028471Y-131826000D01*
X122052509Y-131796710D01*
X122153259Y-131608220D01*
X122215300Y-131403697D01*
X122236249Y-131191000D01*
X122215300Y-130978303D01*
X122153259Y-130773780D01*
X122052509Y-130585290D01*
X122028471Y-130556000D01*
X122052509Y-130526710D01*
X122153259Y-130338220D01*
X122215300Y-130133697D01*
X122236249Y-129921000D01*
X122215300Y-129708303D01*
X122153259Y-129503780D01*
X122052509Y-129315290D01*
X122028471Y-129286000D01*
X122052509Y-129256710D01*
X122153259Y-129068220D01*
X122215300Y-128863697D01*
X122236249Y-128651000D01*
X122215300Y-128438303D01*
X122153259Y-128233780D01*
X122052509Y-128045290D01*
X122028471Y-128016000D01*
X122052509Y-127986710D01*
X122153259Y-127798220D01*
X122215300Y-127593697D01*
X122236249Y-127381000D01*
X122223938Y-127256000D01*
X127007928Y-127256000D01*
X127011000Y-129970250D01*
X127169750Y-130129000D01*
X130519000Y-130129000D01*
X130519000Y-126779750D01*
X130773000Y-126779750D01*
X130773000Y-130129000D01*
X134122250Y-130129000D01*
X134281000Y-129970250D01*
X134284072Y-127256000D01*
X134271812Y-127131518D01*
X134235502Y-127011820D01*
X134176537Y-126901506D01*
X134097185Y-126804815D01*
X134000494Y-126725463D01*
X133890180Y-126666498D01*
X133770482Y-126630188D01*
X133646000Y-126617928D01*
X130931750Y-126621000D01*
X130773000Y-126779750D01*
X130519000Y-126779750D01*
X130360250Y-126621000D01*
X127646000Y-126617928D01*
X127521518Y-126630188D01*
X127401820Y-126666498D01*
X127291506Y-126725463D01*
X127194815Y-126804815D01*
X127115463Y-126901506D01*
X127056498Y-127011820D01*
X127020188Y-127131518D01*
X127007928Y-127256000D01*
X122223938Y-127256000D01*
X122215300Y-127168303D01*
X122153259Y-126963780D01*
X122052509Y-126775290D01*
X122028471Y-126746000D01*
X122052509Y-126716710D01*
X122153259Y-126528220D01*
X122215300Y-126323697D01*
X122236249Y-126111000D01*
X122215300Y-125898303D01*
X122153259Y-125693780D01*
X122052509Y-125505290D01*
X122029463Y-125477208D01*
X122118702Y-125338197D01*
X122190408Y-125135001D01*
X122063502Y-124968000D01*
X120473000Y-124968000D01*
X120473000Y-124988000D01*
X120219000Y-124988000D01*
X120219000Y-124968000D01*
X120199000Y-124968000D01*
X120199000Y-124714000D01*
X120219000Y-124714000D01*
X120219000Y-123756000D01*
X120039387Y-123756000D01*
X120896117Y-122899271D01*
X120929492Y-122961710D01*
X120976604Y-123019115D01*
X120903899Y-123127926D01*
X120844686Y-123270878D01*
X120814500Y-123422635D01*
X120814500Y-123577365D01*
X120844686Y-123729122D01*
X120855819Y-123756000D01*
X120473000Y-123756000D01*
X120473000Y-124714000D01*
X122063502Y-124714000D01*
X122190408Y-124546999D01*
X122118702Y-124343803D01*
X122033576Y-124211200D01*
X135229474Y-124211200D01*
X135264400Y-124214640D01*
X135299326Y-124211200D01*
X135299336Y-124211200D01*
X135403820Y-124200909D01*
X135537881Y-124160242D01*
X135661433Y-124094202D01*
X135769727Y-124005327D01*
X135792001Y-123978186D01*
X136215000Y-123555188D01*
X136215000Y-123820121D01*
X136214500Y-123822635D01*
X136214500Y-123977365D01*
X136223062Y-124020407D01*
X136226359Y-124053886D01*
X136236124Y-124086076D01*
X136244686Y-124129122D01*
X136261482Y-124169670D01*
X136271246Y-124201859D01*
X136287104Y-124231528D01*
X136303899Y-124272074D01*
X136328278Y-124308560D01*
X136344138Y-124338232D01*
X136365482Y-124364239D01*
X136389862Y-124400727D01*
X136420895Y-124431760D01*
X136442236Y-124457764D01*
X136468241Y-124479106D01*
X136499273Y-124510138D01*
X136535757Y-124534516D01*
X136561767Y-124555862D01*
X136591444Y-124571724D01*
X136627926Y-124596101D01*
X136668468Y-124612894D01*
X136698140Y-124628754D01*
X136730333Y-124638520D01*
X136770878Y-124655314D01*
X136813921Y-124663876D01*
X136846113Y-124673641D01*
X136879594Y-124676939D01*
X136922635Y-124685500D01*
X136966516Y-124685500D01*
X137000000Y-124688798D01*
X137033484Y-124685500D01*
X137077365Y-124685500D01*
X137120407Y-124676939D01*
X137153886Y-124673641D01*
X137186076Y-124663876D01*
X137229122Y-124655314D01*
X137269670Y-124638518D01*
X137301859Y-124628754D01*
X137331528Y-124612896D01*
X137372074Y-124596101D01*
X137408560Y-124571722D01*
X137438232Y-124555862D01*
X137464239Y-124534518D01*
X137500727Y-124510138D01*
X137531760Y-124479105D01*
X137557764Y-124457764D01*
X137579106Y-124431759D01*
X137610138Y-124400727D01*
X137634516Y-124364243D01*
X137655862Y-124338233D01*
X137671724Y-124308556D01*
X137696101Y-124272074D01*
X137712894Y-124231532D01*
X137728754Y-124201860D01*
X137738520Y-124169667D01*
X137755314Y-124129122D01*
X137763876Y-124086079D01*
X137773641Y-124053887D01*
X137776939Y-124020406D01*
X137785500Y-123977365D01*
X137785500Y-123822635D01*
X137785000Y-123820121D01*
X137785000Y-123287743D01*
X137848803Y-123328702D01*
X138051999Y-123400408D01*
X138219000Y-123273502D01*
X138219000Y-121683000D01*
X138473000Y-121683000D01*
X138473000Y-123273502D01*
X138640001Y-123400408D01*
X138843197Y-123328702D01*
X139023408Y-123213014D01*
X139177587Y-123064391D01*
X139299809Y-122888545D01*
X139385376Y-122692233D01*
X139431000Y-122483000D01*
X139431000Y-121683000D01*
X138473000Y-121683000D01*
X138219000Y-121683000D01*
X138199000Y-121683000D01*
X138199000Y-121429000D01*
X138219000Y-121429000D01*
X138219000Y-121409000D01*
X138473000Y-121409000D01*
X138473000Y-121429000D01*
X139431000Y-121429000D01*
X139431000Y-120629000D01*
X139385376Y-120419767D01*
X139352351Y-120344000D01*
X139498001Y-120344000D01*
X139498000Y-140768000D01*
G37*
X139498000Y-140768000D02*
X139352351Y-140768000D01*
X139385376Y-140692233D01*
X139431000Y-140483000D01*
X139431000Y-139683000D01*
X138473000Y-139683000D01*
X138473000Y-139703000D01*
X138219000Y-139703000D01*
X138219000Y-139683000D01*
X138199000Y-139683000D01*
X138199000Y-139429000D01*
X138219000Y-139429000D01*
X138219000Y-137838498D01*
X138473000Y-137838498D01*
X138473000Y-139429000D01*
X139431000Y-139429000D01*
X139431000Y-138629000D01*
X139385376Y-138419767D01*
X139299809Y-138223455D01*
X139177587Y-138047609D01*
X139023408Y-137898986D01*
X138843197Y-137783298D01*
X138640001Y-137711592D01*
X138473000Y-137838498D01*
X138219000Y-137838498D01*
X138051999Y-137711592D01*
X137848803Y-137783298D01*
X137787200Y-137822845D01*
X137787200Y-134785395D01*
X137796101Y-134772074D01*
X137855314Y-134629122D01*
X137885500Y-134477365D01*
X137885500Y-134322635D01*
X137855314Y-134170878D01*
X137796101Y-134027926D01*
X137710138Y-133899273D01*
X137600727Y-133789862D01*
X137472074Y-133703899D01*
X137329122Y-133644686D01*
X137177365Y-133614500D01*
X137022635Y-133614500D01*
X136870878Y-133644686D01*
X136727926Y-133703899D01*
X136599273Y-133789862D01*
X136489862Y-133899273D01*
X136403899Y-134027926D01*
X136344686Y-134170878D01*
X136314500Y-134322635D01*
X136314500Y-134477365D01*
X136321023Y-134510158D01*
X136300727Y-134489862D01*
X136172074Y-134403899D01*
X136029122Y-134344686D01*
X135877365Y-134314500D01*
X135722635Y-134314500D01*
X135570878Y-134344686D01*
X135427926Y-134403899D01*
X135299273Y-134489862D01*
X135189862Y-134599273D01*
X135103899Y-134727926D01*
X135044686Y-134870878D01*
X135014500Y-135022635D01*
X135014500Y-135132247D01*
X134972074Y-135103899D01*
X134829122Y-135044686D01*
X134677365Y-135014500D01*
X134522635Y-135014500D01*
X134370878Y-135044686D01*
X134227926Y-135103899D01*
X134099273Y-135189862D01*
X133989862Y-135299273D01*
X133903899Y-135427926D01*
X133844686Y-135570878D01*
X133814500Y-135722635D01*
X133814500Y-135877365D01*
X133824801Y-135929152D01*
X133824801Y-136113936D01*
X133800727Y-136089862D01*
X133672074Y-136003899D01*
X133529122Y-135944686D01*
X133377365Y-135914500D01*
X133222635Y-135914500D01*
X133070878Y-135944686D01*
X132927926Y-136003899D01*
X132799273Y-136089862D01*
X132689862Y-136199273D01*
X132603899Y-136327926D01*
X132544686Y-136470878D01*
X132514500Y-136622635D01*
X132514500Y-136777365D01*
X132544686Y-136929122D01*
X132554801Y-136953541D01*
X132554801Y-137713287D01*
X132544416Y-137700777D01*
X132501327Y-137648273D01*
X132472652Y-137624740D01*
X128701539Y-133895750D01*
X128698670Y-133892881D01*
X130360250Y-133891000D01*
X130519000Y-133732250D01*
X130519000Y-130383000D01*
X130773000Y-130383000D01*
X130773000Y-133732250D01*
X130931750Y-133891000D01*
X133646000Y-133894072D01*
X133770482Y-133881812D01*
X133890180Y-133845502D01*
X134000494Y-133786537D01*
X134097185Y-133707185D01*
X134176537Y-133610494D01*
X134235502Y-133500180D01*
X134271812Y-133380482D01*
X134284072Y-133256000D01*
X134281000Y-130541750D01*
X134122250Y-130383000D01*
X130773000Y-130383000D01*
X130519000Y-130383000D01*
X127169750Y-130383000D01*
X127011000Y-130541750D01*
X127009119Y-132203332D01*
X126261699Y-131455912D01*
X126261699Y-130485427D01*
X126265139Y-130450499D01*
X126261699Y-130415570D01*
X126261699Y-130415563D01*
X126251408Y-130311079D01*
X126210741Y-130177018D01*
X126156088Y-130074770D01*
X126155314Y-130070878D01*
X126096101Y-129927926D01*
X126010138Y-129799273D01*
X125900727Y-129689862D01*
X125772074Y-129603899D01*
X125629122Y-129544686D01*
X125477365Y-129514500D01*
X125322635Y-129514500D01*
X125170878Y-129544686D01*
X125027926Y-129603899D01*
X124899273Y-129689862D01*
X124789862Y-129799273D01*
X124703899Y-129927926D01*
X124644686Y-130070878D01*
X124639033Y-130099298D01*
X124627926Y-130103899D01*
X124499273Y-130189862D01*
X124389862Y-130299273D01*
X124303899Y-130427926D01*
X124263136Y-130526335D01*
X124170878Y-130544686D01*
X124027926Y-130603899D01*
X123899273Y-130689862D01*
X123789862Y-130799273D01*
X123703899Y-130927926D01*
X123644686Y-131070878D01*
X123616740Y-131211373D01*
X123499273Y-131289862D01*
X123389862Y-131399273D01*
X123303899Y-131527926D01*
X123244686Y-131670878D01*
X123214500Y-131822635D01*
X123214500Y-131977365D01*
X123228536Y-132047929D01*
X123156286Y-132096205D01*
X123046875Y-132205616D01*
X122960912Y-132334269D01*
X122901699Y-132477221D01*
X122871513Y-132628978D01*
X122871513Y-132685845D01*
X122827926Y-132703899D01*
X122699273Y-132789862D01*
X122589862Y-132899273D01*
X122503899Y-133027926D01*
X122444686Y-133170878D01*
X122414500Y-133322635D01*
X122414500Y-133323567D01*
X122405092Y-133354581D01*
X122391360Y-133494000D01*
X122394801Y-133528936D01*
X122394800Y-137824417D01*
X122253219Y-137748741D01*
X122048696Y-137686700D01*
X121836000Y-137665751D01*
X121623303Y-137686700D01*
X121418780Y-137748741D01*
X121230290Y-137849491D01*
X121065078Y-137985078D01*
X120929491Y-138150290D01*
X120896117Y-138212729D01*
X120039387Y-137356000D01*
X121199294Y-137356000D01*
X121358697Y-137340300D01*
X121563220Y-137278259D01*
X121751710Y-137177509D01*
X121916922Y-137041922D01*
X122052509Y-136876710D01*
X122153259Y-136688220D01*
X122215300Y-136483697D01*
X122236249Y-136271000D01*
X122215300Y-136058303D01*
X122153259Y-135853780D01*
X122052509Y-135665290D01*
X122028471Y-135636000D01*
X122052509Y-135606710D01*
X122153259Y-135418220D01*
X122215300Y-135213697D01*
X122236249Y-135001000D01*
X122215300Y-134788303D01*
X122153259Y-134583780D01*
X122052509Y-134395290D01*
X122028471Y-134366000D01*
X122052509Y-134336710D01*
X122153259Y-134148220D01*
X122215300Y-133943697D01*
X122236249Y-133731000D01*
X122215300Y-133518303D01*
X122153259Y-133313780D01*
X122052509Y-133125290D01*
X122028471Y-133096000D01*
X122052509Y-133066710D01*
X122153259Y-132878220D01*
X122215300Y-132673697D01*
X122236249Y-132461000D01*
X122215300Y-132248303D01*
X122153259Y-132043780D01*
X122052509Y-131855290D01*
X122028471Y-131826000D01*
X122052509Y-131796710D01*
X122153259Y-131608220D01*
X122215300Y-131403697D01*
X122236249Y-131191000D01*
X122215300Y-130978303D01*
X122153259Y-130773780D01*
X122052509Y-130585290D01*
X122028471Y-130556000D01*
X122052509Y-130526710D01*
X122153259Y-130338220D01*
X122215300Y-130133697D01*
X122236249Y-129921000D01*
X122215300Y-129708303D01*
X122153259Y-129503780D01*
X122052509Y-129315290D01*
X122028471Y-129286000D01*
X122052509Y-129256710D01*
X122153259Y-129068220D01*
X122215300Y-128863697D01*
X122236249Y-128651000D01*
X122215300Y-128438303D01*
X122153259Y-128233780D01*
X122052509Y-128045290D01*
X122028471Y-128016000D01*
X122052509Y-127986710D01*
X122153259Y-127798220D01*
X122215300Y-127593697D01*
X122236249Y-127381000D01*
X122223938Y-127256000D01*
X127007928Y-127256000D01*
X127011000Y-129970250D01*
X127169750Y-130129000D01*
X130519000Y-130129000D01*
X130519000Y-126779750D01*
X130773000Y-126779750D01*
X130773000Y-130129000D01*
X134122250Y-130129000D01*
X134281000Y-129970250D01*
X134284072Y-127256000D01*
X134271812Y-127131518D01*
X134235502Y-127011820D01*
X134176537Y-126901506D01*
X134097185Y-126804815D01*
X134000494Y-126725463D01*
X133890180Y-126666498D01*
X133770482Y-126630188D01*
X133646000Y-126617928D01*
X130931750Y-126621000D01*
X130773000Y-126779750D01*
X130519000Y-126779750D01*
X130360250Y-126621000D01*
X127646000Y-126617928D01*
X127521518Y-126630188D01*
X127401820Y-126666498D01*
X127291506Y-126725463D01*
X127194815Y-126804815D01*
X127115463Y-126901506D01*
X127056498Y-127011820D01*
X127020188Y-127131518D01*
X127007928Y-127256000D01*
X122223938Y-127256000D01*
X122215300Y-127168303D01*
X122153259Y-126963780D01*
X122052509Y-126775290D01*
X122028471Y-126746000D01*
X122052509Y-126716710D01*
X122153259Y-126528220D01*
X122215300Y-126323697D01*
X122236249Y-126111000D01*
X122215300Y-125898303D01*
X122153259Y-125693780D01*
X122052509Y-125505290D01*
X122029463Y-125477208D01*
X122118702Y-125338197D01*
X122190408Y-125135001D01*
X122063502Y-124968000D01*
X120473000Y-124968000D01*
X120473000Y-124988000D01*
X120219000Y-124988000D01*
X120219000Y-124968000D01*
X120199000Y-124968000D01*
X120199000Y-124714000D01*
X120219000Y-124714000D01*
X120219000Y-123756000D01*
X120039387Y-123756000D01*
X120896117Y-122899271D01*
X120929492Y-122961710D01*
X120976604Y-123019115D01*
X120903899Y-123127926D01*
X120844686Y-123270878D01*
X120814500Y-123422635D01*
X120814500Y-123577365D01*
X120844686Y-123729122D01*
X120855819Y-123756000D01*
X120473000Y-123756000D01*
X120473000Y-124714000D01*
X122063502Y-124714000D01*
X122190408Y-124546999D01*
X122118702Y-124343803D01*
X122033576Y-124211200D01*
X135229474Y-124211200D01*
X135264400Y-124214640D01*
X135299326Y-124211200D01*
X135299336Y-124211200D01*
X135403820Y-124200909D01*
X135537881Y-124160242D01*
X135661433Y-124094202D01*
X135769727Y-124005327D01*
X135792001Y-123978186D01*
X136215000Y-123555188D01*
X136215000Y-123820121D01*
X136214500Y-123822635D01*
X136214500Y-123977365D01*
X136223062Y-124020407D01*
X136226359Y-124053886D01*
X136236124Y-124086076D01*
X136244686Y-124129122D01*
X136261482Y-124169670D01*
X136271246Y-124201859D01*
X136287104Y-124231528D01*
X136303899Y-124272074D01*
X136328278Y-124308560D01*
X136344138Y-124338232D01*
X136365482Y-124364239D01*
X136389862Y-124400727D01*
X136420895Y-124431760D01*
X136442236Y-124457764D01*
X136468241Y-124479106D01*
X136499273Y-124510138D01*
X136535757Y-124534516D01*
X136561767Y-124555862D01*
X136591444Y-124571724D01*
X136627926Y-124596101D01*
X136668468Y-124612894D01*
X136698140Y-124628754D01*
X136730333Y-124638520D01*
X136770878Y-124655314D01*
X136813921Y-124663876D01*
X136846113Y-124673641D01*
X136879594Y-124676939D01*
X136922635Y-124685500D01*
X136966516Y-124685500D01*
X137000000Y-124688798D01*
X137033484Y-124685500D01*
X137077365Y-124685500D01*
X137120407Y-124676939D01*
X137153886Y-124673641D01*
X137186076Y-124663876D01*
X137229122Y-124655314D01*
X137269670Y-124638518D01*
X137301859Y-124628754D01*
X137331528Y-124612896D01*
X137372074Y-124596101D01*
X137408560Y-124571722D01*
X137438232Y-124555862D01*
X137464239Y-124534518D01*
X137500727Y-124510138D01*
X137531760Y-124479105D01*
X137557764Y-124457764D01*
X137579106Y-124431759D01*
X137610138Y-124400727D01*
X137634516Y-124364243D01*
X137655862Y-124338233D01*
X137671724Y-124308556D01*
X137696101Y-124272074D01*
X137712894Y-124231532D01*
X137728754Y-124201860D01*
X137738520Y-124169667D01*
X137755314Y-124129122D01*
X137763876Y-124086079D01*
X137773641Y-124053887D01*
X137776939Y-124020406D01*
X137785500Y-123977365D01*
X137785500Y-123822635D01*
X137785000Y-123820121D01*
X137785000Y-123287743D01*
X137848803Y-123328702D01*
X138051999Y-123400408D01*
X138219000Y-123273502D01*
X138219000Y-121683000D01*
X138473000Y-121683000D01*
X138473000Y-123273502D01*
X138640001Y-123400408D01*
X138843197Y-123328702D01*
X139023408Y-123213014D01*
X139177587Y-123064391D01*
X139299809Y-122888545D01*
X139385376Y-122692233D01*
X139431000Y-122483000D01*
X139431000Y-121683000D01*
X138473000Y-121683000D01*
X138219000Y-121683000D01*
X138199000Y-121683000D01*
X138199000Y-121429000D01*
X138219000Y-121429000D01*
X138219000Y-121409000D01*
X138473000Y-121409000D01*
X138473000Y-121429000D01*
X139431000Y-121429000D01*
X139431000Y-120629000D01*
X139385376Y-120419767D01*
X139352351Y-120344000D01*
X139498001Y-120344000D01*
X139498000Y-140768000D01*
G36*
X107519463Y-138295506D02*
G01*
X107460498Y-138405820D01*
X107424188Y-138525518D01*
X107411928Y-138650000D01*
X107411928Y-140350000D01*
X107424188Y-140474482D01*
X107460498Y-140594180D01*
X107519463Y-140704494D01*
X107571581Y-140768000D01*
X106392250Y-140768000D01*
X106326250Y-140702000D01*
X105477000Y-140702000D01*
X105477000Y-140722000D01*
X105223000Y-140722000D01*
X105223000Y-140702000D01*
X104373750Y-140702000D01*
X104307750Y-140768000D01*
X101892250Y-140768000D01*
X101826250Y-140702000D01*
X100977000Y-140702000D01*
X100977000Y-140722000D01*
X100723000Y-140722000D01*
X100723000Y-140702000D01*
X99873750Y-140702000D01*
X99807750Y-140768000D01*
X99792250Y-140768000D01*
X99726250Y-140702000D01*
X98877000Y-140702000D01*
X98877000Y-140722000D01*
X98623000Y-140722000D01*
X98623000Y-140702000D01*
X97773750Y-140702000D01*
X97707750Y-140768000D01*
X95292250Y-140768000D01*
X95226250Y-140702000D01*
X94377000Y-140702000D01*
X94377000Y-140722000D01*
X94123000Y-140722000D01*
X94123000Y-140702000D01*
X93273750Y-140702000D01*
X93207750Y-140768000D01*
X93192250Y-140768000D01*
X93126250Y-140702000D01*
X92277000Y-140702000D01*
X92277000Y-140722000D01*
X92023000Y-140722000D01*
X92023000Y-140702000D01*
X91173750Y-140702000D01*
X91107750Y-140768000D01*
X88692250Y-140768000D01*
X88626250Y-140702000D01*
X87777000Y-140702000D01*
X87777000Y-140722000D01*
X87523000Y-140722000D01*
X87523000Y-140702000D01*
X86673750Y-140702000D01*
X86607750Y-140768000D01*
X86592250Y-140768000D01*
X86526250Y-140702000D01*
X85677000Y-140702000D01*
X85677000Y-140722000D01*
X85423000Y-140722000D01*
X85423000Y-140702000D01*
X84573750Y-140702000D01*
X84507750Y-140768000D01*
X82092250Y-140768000D01*
X82026250Y-140702000D01*
X81177000Y-140702000D01*
X81177000Y-140722000D01*
X80923000Y-140722000D01*
X80923000Y-140702000D01*
X80903000Y-140702000D01*
X80903000Y-140448000D01*
X80923000Y-140448000D01*
X80923000Y-139748750D01*
X81177000Y-139748750D01*
X81177000Y-140448000D01*
X82026250Y-140448000D01*
X82185000Y-140289250D01*
X82188072Y-140225000D01*
X84411928Y-140225000D01*
X84415000Y-140289250D01*
X84573750Y-140448000D01*
X85423000Y-140448000D01*
X85423000Y-139748750D01*
X85677000Y-139748750D01*
X85677000Y-140448000D01*
X86526250Y-140448000D01*
X86600000Y-140374250D01*
X86673750Y-140448000D01*
X87523000Y-140448000D01*
X87523000Y-139748750D01*
X87777000Y-139748750D01*
X87777000Y-140448000D01*
X88626250Y-140448000D01*
X88785000Y-140289250D01*
X88788072Y-140225000D01*
X91011928Y-140225000D01*
X91015000Y-140289250D01*
X91173750Y-140448000D01*
X92023000Y-140448000D01*
X92023000Y-139748750D01*
X92277000Y-139748750D01*
X92277000Y-140448000D01*
X93126250Y-140448000D01*
X93200000Y-140374250D01*
X93273750Y-140448000D01*
X94123000Y-140448000D01*
X94123000Y-139748750D01*
X94377000Y-139748750D01*
X94377000Y-140448000D01*
X95226250Y-140448000D01*
X95385000Y-140289250D01*
X95388072Y-140225000D01*
X97611928Y-140225000D01*
X97615000Y-140289250D01*
X97773750Y-140448000D01*
X98623000Y-140448000D01*
X98623000Y-139748750D01*
X98877000Y-139748750D01*
X98877000Y-140448000D01*
X99726250Y-140448000D01*
X99800000Y-140374250D01*
X99873750Y-140448000D01*
X100723000Y-140448000D01*
X100723000Y-139748750D01*
X100977000Y-139748750D01*
X100977000Y-140448000D01*
X101826250Y-140448000D01*
X101985000Y-140289250D01*
X101988072Y-140225000D01*
X104211928Y-140225000D01*
X104215000Y-140289250D01*
X104373750Y-140448000D01*
X105223000Y-140448000D01*
X105223000Y-139748750D01*
X105477000Y-139748750D01*
X105477000Y-140448000D01*
X106326250Y-140448000D01*
X106485000Y-140289250D01*
X106488072Y-140225000D01*
X106475812Y-140100518D01*
X106439502Y-139980820D01*
X106380537Y-139870506D01*
X106301185Y-139773815D01*
X106204494Y-139694463D01*
X106094180Y-139635498D01*
X105974482Y-139599188D01*
X105850000Y-139586928D01*
X105635750Y-139590000D01*
X105477000Y-139748750D01*
X105223000Y-139748750D01*
X105064250Y-139590000D01*
X104850000Y-139586928D01*
X104725518Y-139599188D01*
X104605820Y-139635498D01*
X104495506Y-139694463D01*
X104398815Y-139773815D01*
X104319463Y-139870506D01*
X104260498Y-139980820D01*
X104224188Y-140100518D01*
X104211928Y-140225000D01*
X101988072Y-140225000D01*
X101975812Y-140100518D01*
X101939502Y-139980820D01*
X101880537Y-139870506D01*
X101801185Y-139773815D01*
X101704494Y-139694463D01*
X101594180Y-139635498D01*
X101474482Y-139599188D01*
X101350000Y-139586928D01*
X101135750Y-139590000D01*
X100977000Y-139748750D01*
X100723000Y-139748750D01*
X100564250Y-139590000D01*
X100350000Y-139586928D01*
X100225518Y-139599188D01*
X100105820Y-139635498D01*
X99995506Y-139694463D01*
X99898815Y-139773815D01*
X99819463Y-139870506D01*
X99800000Y-139906918D01*
X99780537Y-139870506D01*
X99701185Y-139773815D01*
X99604494Y-139694463D01*
X99494180Y-139635498D01*
X99374482Y-139599188D01*
X99250000Y-139586928D01*
X99035750Y-139590000D01*
X98877000Y-139748750D01*
X98623000Y-139748750D01*
X98464250Y-139590000D01*
X98250000Y-139586928D01*
X98125518Y-139599188D01*
X98005820Y-139635498D01*
X97895506Y-139694463D01*
X97798815Y-139773815D01*
X97719463Y-139870506D01*
X97660498Y-139980820D01*
X97624188Y-140100518D01*
X97611928Y-140225000D01*
X95388072Y-140225000D01*
X95375812Y-140100518D01*
X95339502Y-139980820D01*
X95280537Y-139870506D01*
X95201185Y-139773815D01*
X95104494Y-139694463D01*
X94994180Y-139635498D01*
X94874482Y-139599188D01*
X94750000Y-139586928D01*
X94535750Y-139590000D01*
X94377000Y-139748750D01*
X94123000Y-139748750D01*
X93964250Y-139590000D01*
X93750000Y-139586928D01*
X93625518Y-139599188D01*
X93505820Y-139635498D01*
X93395506Y-139694463D01*
X93298815Y-139773815D01*
X93219463Y-139870506D01*
X93200000Y-139906918D01*
X93180537Y-139870506D01*
X93101185Y-139773815D01*
X93004494Y-139694463D01*
X92894180Y-139635498D01*
X92774482Y-139599188D01*
X92650000Y-139586928D01*
X92435750Y-139590000D01*
X92277000Y-139748750D01*
X92023000Y-139748750D01*
X91864250Y-139590000D01*
X91650000Y-139586928D01*
X91525518Y-139599188D01*
X91405820Y-139635498D01*
X91295506Y-139694463D01*
X91198815Y-139773815D01*
X91119463Y-139870506D01*
X91060498Y-139980820D01*
X91024188Y-140100518D01*
X91011928Y-140225000D01*
X88788072Y-140225000D01*
X88775812Y-140100518D01*
X88739502Y-139980820D01*
X88680537Y-139870506D01*
X88601185Y-139773815D01*
X88504494Y-139694463D01*
X88394180Y-139635498D01*
X88274482Y-139599188D01*
X88150000Y-139586928D01*
X87935750Y-139590000D01*
X87777000Y-139748750D01*
X87523000Y-139748750D01*
X87364250Y-139590000D01*
X87150000Y-139586928D01*
X87025518Y-139599188D01*
X86905820Y-139635498D01*
X86795506Y-139694463D01*
X86698815Y-139773815D01*
X86619463Y-139870506D01*
X86600000Y-139906918D01*
X86580537Y-139870506D01*
X86501185Y-139773815D01*
X86404494Y-139694463D01*
X86294180Y-139635498D01*
X86174482Y-139599188D01*
X86050000Y-139586928D01*
X85835750Y-139590000D01*
X85677000Y-139748750D01*
X85423000Y-139748750D01*
X85264250Y-139590000D01*
X85050000Y-139586928D01*
X84925518Y-139599188D01*
X84805820Y-139635498D01*
X84695506Y-139694463D01*
X84598815Y-139773815D01*
X84519463Y-139870506D01*
X84460498Y-139980820D01*
X84424188Y-140100518D01*
X84411928Y-140225000D01*
X82188072Y-140225000D01*
X82175812Y-140100518D01*
X82139502Y-139980820D01*
X82080537Y-139870506D01*
X82001185Y-139773815D01*
X81904494Y-139694463D01*
X81794180Y-139635498D01*
X81674482Y-139599188D01*
X81550000Y-139586928D01*
X81335750Y-139590000D01*
X81177000Y-139748750D01*
X80923000Y-139748750D01*
X80764250Y-139590000D01*
X80720000Y-139589366D01*
X80720000Y-139413072D01*
X81550000Y-139413072D01*
X81674482Y-139400812D01*
X81794180Y-139364502D01*
X81904494Y-139305537D01*
X82001185Y-139226185D01*
X82075034Y-139136200D01*
X84524966Y-139136200D01*
X84598815Y-139226185D01*
X84695506Y-139305537D01*
X84805820Y-139364502D01*
X84925518Y-139400812D01*
X85050000Y-139413072D01*
X86050000Y-139413072D01*
X86174482Y-139400812D01*
X86294180Y-139364502D01*
X86404494Y-139305537D01*
X86501185Y-139226185D01*
X86580537Y-139129494D01*
X86600000Y-139093082D01*
X86619463Y-139129494D01*
X86698815Y-139226185D01*
X86795506Y-139305537D01*
X86905820Y-139364502D01*
X87025518Y-139400812D01*
X87150000Y-139413072D01*
X88150000Y-139413072D01*
X88274482Y-139400812D01*
X88394180Y-139364502D01*
X88504494Y-139305537D01*
X88601185Y-139226185D01*
X88675034Y-139136200D01*
X91124966Y-139136200D01*
X91198815Y-139226185D01*
X91295506Y-139305537D01*
X91405820Y-139364502D01*
X91525518Y-139400812D01*
X91650000Y-139413072D01*
X92650000Y-139413072D01*
X92774482Y-139400812D01*
X92894180Y-139364502D01*
X93004494Y-139305537D01*
X93101185Y-139226185D01*
X93180537Y-139129494D01*
X93200000Y-139093082D01*
X93219463Y-139129494D01*
X93298815Y-139226185D01*
X93395506Y-139305537D01*
X93505820Y-139364502D01*
X93625518Y-139400812D01*
X93750000Y-139413072D01*
X94750000Y-139413072D01*
X94874482Y-139400812D01*
X94994180Y-139364502D01*
X95104494Y-139305537D01*
X95201185Y-139226185D01*
X95275034Y-139136200D01*
X97724966Y-139136200D01*
X97798815Y-139226185D01*
X97895506Y-139305537D01*
X98005820Y-139364502D01*
X98125518Y-139400812D01*
X98250000Y-139413072D01*
X99250000Y-139413072D01*
X99374482Y-139400812D01*
X99494180Y-139364502D01*
X99604494Y-139305537D01*
X99701185Y-139226185D01*
X99780537Y-139129494D01*
X99800000Y-139093082D01*
X99819463Y-139129494D01*
X99898815Y-139226185D01*
X99995506Y-139305537D01*
X100105820Y-139364502D01*
X100225518Y-139400812D01*
X100350000Y-139413072D01*
X101350000Y-139413072D01*
X101474482Y-139400812D01*
X101594180Y-139364502D01*
X101704494Y-139305537D01*
X101801185Y-139226185D01*
X101875034Y-139136200D01*
X102638278Y-139136200D01*
X102727926Y-139196101D01*
X102870878Y-139255314D01*
X103022635Y-139285500D01*
X103177365Y-139285500D01*
X103329122Y-139255314D01*
X103472074Y-139196101D01*
X103561722Y-139136200D01*
X104324966Y-139136200D01*
X104398815Y-139226185D01*
X104495506Y-139305537D01*
X104605820Y-139364502D01*
X104725518Y-139400812D01*
X104850000Y-139413072D01*
X105850000Y-139413072D01*
X105974482Y-139400812D01*
X106094180Y-139364502D01*
X106204494Y-139305537D01*
X106301185Y-139226185D01*
X106380537Y-139129494D01*
X106439502Y-139019180D01*
X106475812Y-138899482D01*
X106488072Y-138775000D01*
X106488072Y-138211200D01*
X107588651Y-138211200D01*
X107519463Y-138295506D01*
G37*
X107519463Y-138295506D02*
X107460498Y-138405820D01*
X107424188Y-138525518D01*
X107411928Y-138650000D01*
X107411928Y-140350000D01*
X107424188Y-140474482D01*
X107460498Y-140594180D01*
X107519463Y-140704494D01*
X107571581Y-140768000D01*
X106392250Y-140768000D01*
X106326250Y-140702000D01*
X105477000Y-140702000D01*
X105477000Y-140722000D01*
X105223000Y-140722000D01*
X105223000Y-140702000D01*
X104373750Y-140702000D01*
X104307750Y-140768000D01*
X101892250Y-140768000D01*
X101826250Y-140702000D01*
X100977000Y-140702000D01*
X100977000Y-140722000D01*
X100723000Y-140722000D01*
X100723000Y-140702000D01*
X99873750Y-140702000D01*
X99807750Y-140768000D01*
X99792250Y-140768000D01*
X99726250Y-140702000D01*
X98877000Y-140702000D01*
X98877000Y-140722000D01*
X98623000Y-140722000D01*
X98623000Y-140702000D01*
X97773750Y-140702000D01*
X97707750Y-140768000D01*
X95292250Y-140768000D01*
X95226250Y-140702000D01*
X94377000Y-140702000D01*
X94377000Y-140722000D01*
X94123000Y-140722000D01*
X94123000Y-140702000D01*
X93273750Y-140702000D01*
X93207750Y-140768000D01*
X93192250Y-140768000D01*
X93126250Y-140702000D01*
X92277000Y-140702000D01*
X92277000Y-140722000D01*
X92023000Y-140722000D01*
X92023000Y-140702000D01*
X91173750Y-140702000D01*
X91107750Y-140768000D01*
X88692250Y-140768000D01*
X88626250Y-140702000D01*
X87777000Y-140702000D01*
X87777000Y-140722000D01*
X87523000Y-140722000D01*
X87523000Y-140702000D01*
X86673750Y-140702000D01*
X86607750Y-140768000D01*
X86592250Y-140768000D01*
X86526250Y-140702000D01*
X85677000Y-140702000D01*
X85677000Y-140722000D01*
X85423000Y-140722000D01*
X85423000Y-140702000D01*
X84573750Y-140702000D01*
X84507750Y-140768000D01*
X82092250Y-140768000D01*
X82026250Y-140702000D01*
X81177000Y-140702000D01*
X81177000Y-140722000D01*
X80923000Y-140722000D01*
X80923000Y-140702000D01*
X80903000Y-140702000D01*
X80903000Y-140448000D01*
X80923000Y-140448000D01*
X80923000Y-139748750D01*
X81177000Y-139748750D01*
X81177000Y-140448000D01*
X82026250Y-140448000D01*
X82185000Y-140289250D01*
X82188072Y-140225000D01*
X84411928Y-140225000D01*
X84415000Y-140289250D01*
X84573750Y-140448000D01*
X85423000Y-140448000D01*
X85423000Y-139748750D01*
X85677000Y-139748750D01*
X85677000Y-140448000D01*
X86526250Y-140448000D01*
X86600000Y-140374250D01*
X86673750Y-140448000D01*
X87523000Y-140448000D01*
X87523000Y-139748750D01*
X87777000Y-139748750D01*
X87777000Y-140448000D01*
X88626250Y-140448000D01*
X88785000Y-140289250D01*
X88788072Y-140225000D01*
X91011928Y-140225000D01*
X91015000Y-140289250D01*
X91173750Y-140448000D01*
X92023000Y-140448000D01*
X92023000Y-139748750D01*
X92277000Y-139748750D01*
X92277000Y-140448000D01*
X93126250Y-140448000D01*
X93200000Y-140374250D01*
X93273750Y-140448000D01*
X94123000Y-140448000D01*
X94123000Y-139748750D01*
X94377000Y-139748750D01*
X94377000Y-140448000D01*
X95226250Y-140448000D01*
X95385000Y-140289250D01*
X95388072Y-140225000D01*
X97611928Y-140225000D01*
X97615000Y-140289250D01*
X97773750Y-140448000D01*
X98623000Y-140448000D01*
X98623000Y-139748750D01*
X98877000Y-139748750D01*
X98877000Y-140448000D01*
X99726250Y-140448000D01*
X99800000Y-140374250D01*
X99873750Y-140448000D01*
X100723000Y-140448000D01*
X100723000Y-139748750D01*
X100977000Y-139748750D01*
X100977000Y-140448000D01*
X101826250Y-140448000D01*
X101985000Y-140289250D01*
X101988072Y-140225000D01*
X104211928Y-140225000D01*
X104215000Y-140289250D01*
X104373750Y-140448000D01*
X105223000Y-140448000D01*
X105223000Y-139748750D01*
X105477000Y-139748750D01*
X105477000Y-140448000D01*
X106326250Y-140448000D01*
X106485000Y-140289250D01*
X106488072Y-140225000D01*
X106475812Y-140100518D01*
X106439502Y-139980820D01*
X106380537Y-139870506D01*
X106301185Y-139773815D01*
X106204494Y-139694463D01*
X106094180Y-139635498D01*
X105974482Y-139599188D01*
X105850000Y-139586928D01*
X105635750Y-139590000D01*
X105477000Y-139748750D01*
X105223000Y-139748750D01*
X105064250Y-139590000D01*
X104850000Y-139586928D01*
X104725518Y-139599188D01*
X104605820Y-139635498D01*
X104495506Y-139694463D01*
X104398815Y-139773815D01*
X104319463Y-139870506D01*
X104260498Y-139980820D01*
X104224188Y-140100518D01*
X104211928Y-140225000D01*
X101988072Y-140225000D01*
X101975812Y-140100518D01*
X101939502Y-139980820D01*
X101880537Y-139870506D01*
X101801185Y-139773815D01*
X101704494Y-139694463D01*
X101594180Y-139635498D01*
X101474482Y-139599188D01*
X101350000Y-139586928D01*
X101135750Y-139590000D01*
X100977000Y-139748750D01*
X100723000Y-139748750D01*
X100564250Y-139590000D01*
X100350000Y-139586928D01*
X100225518Y-139599188D01*
X100105820Y-139635498D01*
X99995506Y-139694463D01*
X99898815Y-139773815D01*
X99819463Y-139870506D01*
X99800000Y-139906918D01*
X99780537Y-139870506D01*
X99701185Y-139773815D01*
X99604494Y-139694463D01*
X99494180Y-139635498D01*
X99374482Y-139599188D01*
X99250000Y-139586928D01*
X99035750Y-139590000D01*
X98877000Y-139748750D01*
X98623000Y-139748750D01*
X98464250Y-139590000D01*
X98250000Y-139586928D01*
X98125518Y-139599188D01*
X98005820Y-139635498D01*
X97895506Y-139694463D01*
X97798815Y-139773815D01*
X97719463Y-139870506D01*
X97660498Y-139980820D01*
X97624188Y-140100518D01*
X97611928Y-140225000D01*
X95388072Y-140225000D01*
X95375812Y-140100518D01*
X95339502Y-139980820D01*
X95280537Y-139870506D01*
X95201185Y-139773815D01*
X95104494Y-139694463D01*
X94994180Y-139635498D01*
X94874482Y-139599188D01*
X94750000Y-139586928D01*
X94535750Y-139590000D01*
X94377000Y-139748750D01*
X94123000Y-139748750D01*
X93964250Y-139590000D01*
X93750000Y-139586928D01*
X93625518Y-139599188D01*
X93505820Y-139635498D01*
X93395506Y-139694463D01*
X93298815Y-139773815D01*
X93219463Y-139870506D01*
X93200000Y-139906918D01*
X93180537Y-139870506D01*
X93101185Y-139773815D01*
X93004494Y-139694463D01*
X92894180Y-139635498D01*
X92774482Y-139599188D01*
X92650000Y-139586928D01*
X92435750Y-139590000D01*
X92277000Y-139748750D01*
X92023000Y-139748750D01*
X91864250Y-139590000D01*
X91650000Y-139586928D01*
X91525518Y-139599188D01*
X91405820Y-139635498D01*
X91295506Y-139694463D01*
X91198815Y-139773815D01*
X91119463Y-139870506D01*
X91060498Y-139980820D01*
X91024188Y-140100518D01*
X91011928Y-140225000D01*
X88788072Y-140225000D01*
X88775812Y-140100518D01*
X88739502Y-139980820D01*
X88680537Y-139870506D01*
X88601185Y-139773815D01*
X88504494Y-139694463D01*
X88394180Y-139635498D01*
X88274482Y-139599188D01*
X88150000Y-139586928D01*
X87935750Y-139590000D01*
X87777000Y-139748750D01*
X87523000Y-139748750D01*
X87364250Y-139590000D01*
X87150000Y-139586928D01*
X87025518Y-139599188D01*
X86905820Y-139635498D01*
X86795506Y-139694463D01*
X86698815Y-139773815D01*
X86619463Y-139870506D01*
X86600000Y-139906918D01*
X86580537Y-139870506D01*
X86501185Y-139773815D01*
X86404494Y-139694463D01*
X86294180Y-139635498D01*
X86174482Y-139599188D01*
X86050000Y-139586928D01*
X85835750Y-139590000D01*
X85677000Y-139748750D01*
X85423000Y-139748750D01*
X85264250Y-139590000D01*
X85050000Y-139586928D01*
X84925518Y-139599188D01*
X84805820Y-139635498D01*
X84695506Y-139694463D01*
X84598815Y-139773815D01*
X84519463Y-139870506D01*
X84460498Y-139980820D01*
X84424188Y-140100518D01*
X84411928Y-140225000D01*
X82188072Y-140225000D01*
X82175812Y-140100518D01*
X82139502Y-139980820D01*
X82080537Y-139870506D01*
X82001185Y-139773815D01*
X81904494Y-139694463D01*
X81794180Y-139635498D01*
X81674482Y-139599188D01*
X81550000Y-139586928D01*
X81335750Y-139590000D01*
X81177000Y-139748750D01*
X80923000Y-139748750D01*
X80764250Y-139590000D01*
X80720000Y-139589366D01*
X80720000Y-139413072D01*
X81550000Y-139413072D01*
X81674482Y-139400812D01*
X81794180Y-139364502D01*
X81904494Y-139305537D01*
X82001185Y-139226185D01*
X82075034Y-139136200D01*
X84524966Y-139136200D01*
X84598815Y-139226185D01*
X84695506Y-139305537D01*
X84805820Y-139364502D01*
X84925518Y-139400812D01*
X85050000Y-139413072D01*
X86050000Y-139413072D01*
X86174482Y-139400812D01*
X86294180Y-139364502D01*
X86404494Y-139305537D01*
X86501185Y-139226185D01*
X86580537Y-139129494D01*
X86600000Y-139093082D01*
X86619463Y-139129494D01*
X86698815Y-139226185D01*
X86795506Y-139305537D01*
X86905820Y-139364502D01*
X87025518Y-139400812D01*
X87150000Y-139413072D01*
X88150000Y-139413072D01*
X88274482Y-139400812D01*
X88394180Y-139364502D01*
X88504494Y-139305537D01*
X88601185Y-139226185D01*
X88675034Y-139136200D01*
X91124966Y-139136200D01*
X91198815Y-139226185D01*
X91295506Y-139305537D01*
X91405820Y-139364502D01*
X91525518Y-139400812D01*
X91650000Y-139413072D01*
X92650000Y-139413072D01*
X92774482Y-139400812D01*
X92894180Y-139364502D01*
X93004494Y-139305537D01*
X93101185Y-139226185D01*
X93180537Y-139129494D01*
X93200000Y-139093082D01*
X93219463Y-139129494D01*
X93298815Y-139226185D01*
X93395506Y-139305537D01*
X93505820Y-139364502D01*
X93625518Y-139400812D01*
X93750000Y-139413072D01*
X94750000Y-139413072D01*
X94874482Y-139400812D01*
X94994180Y-139364502D01*
X95104494Y-139305537D01*
X95201185Y-139226185D01*
X95275034Y-139136200D01*
X97724966Y-139136200D01*
X97798815Y-139226185D01*
X97895506Y-139305537D01*
X98005820Y-139364502D01*
X98125518Y-139400812D01*
X98250000Y-139413072D01*
X99250000Y-139413072D01*
X99374482Y-139400812D01*
X99494180Y-139364502D01*
X99604494Y-139305537D01*
X99701185Y-139226185D01*
X99780537Y-139129494D01*
X99800000Y-139093082D01*
X99819463Y-139129494D01*
X99898815Y-139226185D01*
X99995506Y-139305537D01*
X100105820Y-139364502D01*
X100225518Y-139400812D01*
X100350000Y-139413072D01*
X101350000Y-139413072D01*
X101474482Y-139400812D01*
X101594180Y-139364502D01*
X101704494Y-139305537D01*
X101801185Y-139226185D01*
X101875034Y-139136200D01*
X102638278Y-139136200D01*
X102727926Y-139196101D01*
X102870878Y-139255314D01*
X103022635Y-139285500D01*
X103177365Y-139285500D01*
X103329122Y-139255314D01*
X103472074Y-139196101D01*
X103561722Y-139136200D01*
X104324966Y-139136200D01*
X104398815Y-139226185D01*
X104495506Y-139305537D01*
X104605820Y-139364502D01*
X104725518Y-139400812D01*
X104850000Y-139413072D01*
X105850000Y-139413072D01*
X105974482Y-139400812D01*
X106094180Y-139364502D01*
X106204494Y-139305537D01*
X106301185Y-139226185D01*
X106380537Y-139129494D01*
X106439502Y-139019180D01*
X106475812Y-138899482D01*
X106488072Y-138775000D01*
X106488072Y-138211200D01*
X107588651Y-138211200D01*
X107519463Y-138295506D01*
G36*
X111567000Y-139373000D02*
G01*
X111587000Y-139373000D01*
X111587000Y-139627000D01*
X111567000Y-139627000D01*
X111567000Y-139647000D01*
X111313000Y-139647000D01*
X111313000Y-139627000D01*
X111293000Y-139627000D01*
X111293000Y-139373000D01*
X111313000Y-139373000D01*
X111313000Y-139353000D01*
X111567000Y-139353000D01*
X111567000Y-139373000D01*
G37*
X111567000Y-139373000D02*
X111587000Y-139373000D01*
X111587000Y-139627000D01*
X111567000Y-139627000D01*
X111567000Y-139647000D01*
X111313000Y-139647000D01*
X111313000Y-139627000D01*
X111293000Y-139627000D01*
X111293000Y-139373000D01*
X111313000Y-139373000D01*
X111313000Y-139353000D01*
X111567000Y-139353000D01*
X111567000Y-139373000D01*
G36*
X82320506Y-128380537D02*
G01*
X82430820Y-128439502D01*
X82443681Y-128443403D01*
X82446246Y-128451859D01*
X82465602Y-128488072D01*
X82519139Y-128588233D01*
X82558187Y-128635812D01*
X82592655Y-128677812D01*
X82592659Y-128677816D01*
X82617237Y-128707764D01*
X82647185Y-128732342D01*
X83127657Y-129212815D01*
X83152236Y-129242764D01*
X83182184Y-129267342D01*
X83182187Y-129267345D01*
X83199874Y-129281860D01*
X83271767Y-129340862D01*
X83408140Y-129413754D01*
X83516198Y-129446533D01*
X83556112Y-129458641D01*
X83570490Y-129460057D01*
X83671439Y-129470000D01*
X83671446Y-129470000D01*
X83709999Y-129473797D01*
X83748552Y-129470000D01*
X84369394Y-129470000D01*
X84379139Y-129488232D01*
X84477236Y-129607764D01*
X84596768Y-129705861D01*
X84615000Y-129715606D01*
X84615000Y-130381447D01*
X84611203Y-130420000D01*
X84615000Y-130458553D01*
X84615000Y-130458560D01*
X84626359Y-130573886D01*
X84671246Y-130721859D01*
X84744138Y-130858232D01*
X84842236Y-130977764D01*
X84872190Y-131002347D01*
X86141928Y-132272086D01*
X86141928Y-132562500D01*
X86157023Y-132715757D01*
X86194312Y-132838684D01*
X86190498Y-132845820D01*
X86154188Y-132965518D01*
X86146757Y-133040969D01*
X84313072Y-131207285D01*
X84313072Y-130350000D01*
X84300812Y-130225518D01*
X84264502Y-130105820D01*
X84205537Y-129995506D01*
X84126185Y-129898815D01*
X84029494Y-129819463D01*
X83919180Y-129760498D01*
X83799482Y-129724188D01*
X83675000Y-129711928D01*
X82675000Y-129711928D01*
X82550518Y-129724188D01*
X82430820Y-129760498D01*
X82320506Y-129819463D01*
X82300000Y-129836292D01*
X82279494Y-129819463D01*
X82169180Y-129760498D01*
X82049482Y-129724188D01*
X81925000Y-129711928D01*
X81710750Y-129715000D01*
X81552000Y-129873750D01*
X81552000Y-130723000D01*
X81572000Y-130723000D01*
X81572000Y-130977000D01*
X81552000Y-130977000D01*
X81552000Y-131826250D01*
X81710750Y-131985000D01*
X81925000Y-131988072D01*
X82049482Y-131975812D01*
X82169180Y-131939502D01*
X82279494Y-131880537D01*
X82300000Y-131863708D01*
X82320506Y-131880537D01*
X82430820Y-131939502D01*
X82550518Y-131975812D01*
X82675000Y-131988072D01*
X83082285Y-131988072D01*
X83249232Y-132155019D01*
X82729368Y-132209019D01*
X82195839Y-132373972D01*
X81729976Y-132622982D01*
X81489830Y-133010225D01*
X83300000Y-134820395D01*
X83314143Y-134806253D01*
X83493748Y-134985858D01*
X83479605Y-135000000D01*
X83493748Y-135014143D01*
X83314143Y-135193748D01*
X83300000Y-135179605D01*
X81489830Y-136989775D01*
X81729976Y-137377018D01*
X82223877Y-137637641D01*
X82479839Y-137713800D01*
X82075034Y-137713800D01*
X82001185Y-137623815D01*
X81904494Y-137544463D01*
X81794180Y-137485498D01*
X81674482Y-137449188D01*
X81550000Y-137436928D01*
X80720000Y-137436928D01*
X80720000Y-136190273D01*
X80922982Y-136570024D01*
X81310225Y-136810170D01*
X83120395Y-135000000D01*
X81310225Y-133189830D01*
X80922982Y-133429976D01*
X80720000Y-133814643D01*
X80720000Y-131951387D01*
X80800518Y-131975812D01*
X80925000Y-131988072D01*
X81139250Y-131985000D01*
X81298000Y-131826250D01*
X81298000Y-130977000D01*
X81278000Y-130977000D01*
X81278000Y-130723000D01*
X81298000Y-130723000D01*
X81298000Y-129873750D01*
X81139250Y-129715000D01*
X80925000Y-129711928D01*
X80800518Y-129724188D01*
X80720000Y-129748613D01*
X80720000Y-128451387D01*
X80800518Y-128475812D01*
X80925000Y-128488072D01*
X81925000Y-128488072D01*
X82049482Y-128475812D01*
X82169180Y-128439502D01*
X82279494Y-128380537D01*
X82300000Y-128363708D01*
X82320506Y-128380537D01*
G37*
X82320506Y-128380537D02*
X82430820Y-128439502D01*
X82443681Y-128443403D01*
X82446246Y-128451859D01*
X82465602Y-128488072D01*
X82519139Y-128588233D01*
X82558187Y-128635812D01*
X82592655Y-128677812D01*
X82592659Y-128677816D01*
X82617237Y-128707764D01*
X82647185Y-128732342D01*
X83127657Y-129212815D01*
X83152236Y-129242764D01*
X83182184Y-129267342D01*
X83182187Y-129267345D01*
X83199874Y-129281860D01*
X83271767Y-129340862D01*
X83408140Y-129413754D01*
X83516198Y-129446533D01*
X83556112Y-129458641D01*
X83570490Y-129460057D01*
X83671439Y-129470000D01*
X83671446Y-129470000D01*
X83709999Y-129473797D01*
X83748552Y-129470000D01*
X84369394Y-129470000D01*
X84379139Y-129488232D01*
X84477236Y-129607764D01*
X84596768Y-129705861D01*
X84615000Y-129715606D01*
X84615000Y-130381447D01*
X84611203Y-130420000D01*
X84615000Y-130458553D01*
X84615000Y-130458560D01*
X84626359Y-130573886D01*
X84671246Y-130721859D01*
X84744138Y-130858232D01*
X84842236Y-130977764D01*
X84872190Y-131002347D01*
X86141928Y-132272086D01*
X86141928Y-132562500D01*
X86157023Y-132715757D01*
X86194312Y-132838684D01*
X86190498Y-132845820D01*
X86154188Y-132965518D01*
X86146757Y-133040969D01*
X84313072Y-131207285D01*
X84313072Y-130350000D01*
X84300812Y-130225518D01*
X84264502Y-130105820D01*
X84205537Y-129995506D01*
X84126185Y-129898815D01*
X84029494Y-129819463D01*
X83919180Y-129760498D01*
X83799482Y-129724188D01*
X83675000Y-129711928D01*
X82675000Y-129711928D01*
X82550518Y-129724188D01*
X82430820Y-129760498D01*
X82320506Y-129819463D01*
X82300000Y-129836292D01*
X82279494Y-129819463D01*
X82169180Y-129760498D01*
X82049482Y-129724188D01*
X81925000Y-129711928D01*
X81710750Y-129715000D01*
X81552000Y-129873750D01*
X81552000Y-130723000D01*
X81572000Y-130723000D01*
X81572000Y-130977000D01*
X81552000Y-130977000D01*
X81552000Y-131826250D01*
X81710750Y-131985000D01*
X81925000Y-131988072D01*
X82049482Y-131975812D01*
X82169180Y-131939502D01*
X82279494Y-131880537D01*
X82300000Y-131863708D01*
X82320506Y-131880537D01*
X82430820Y-131939502D01*
X82550518Y-131975812D01*
X82675000Y-131988072D01*
X83082285Y-131988072D01*
X83249232Y-132155019D01*
X82729368Y-132209019D01*
X82195839Y-132373972D01*
X81729976Y-132622982D01*
X81489830Y-133010225D01*
X83300000Y-134820395D01*
X83314143Y-134806253D01*
X83493748Y-134985858D01*
X83479605Y-135000000D01*
X83493748Y-135014143D01*
X83314143Y-135193748D01*
X83300000Y-135179605D01*
X81489830Y-136989775D01*
X81729976Y-137377018D01*
X82223877Y-137637641D01*
X82479839Y-137713800D01*
X82075034Y-137713800D01*
X82001185Y-137623815D01*
X81904494Y-137544463D01*
X81794180Y-137485498D01*
X81674482Y-137449188D01*
X81550000Y-137436928D01*
X80720000Y-137436928D01*
X80720000Y-136190273D01*
X80922982Y-136570024D01*
X81310225Y-136810170D01*
X83120395Y-135000000D01*
X81310225Y-133189830D01*
X80922982Y-133429976D01*
X80720000Y-133814643D01*
X80720000Y-131951387D01*
X80800518Y-131975812D01*
X80925000Y-131988072D01*
X81139250Y-131985000D01*
X81298000Y-131826250D01*
X81298000Y-130977000D01*
X81278000Y-130977000D01*
X81278000Y-130723000D01*
X81298000Y-130723000D01*
X81298000Y-129873750D01*
X81139250Y-129715000D01*
X80925000Y-129711928D01*
X80800518Y-129724188D01*
X80720000Y-129748613D01*
X80720000Y-128451387D01*
X80800518Y-128475812D01*
X80925000Y-128488072D01*
X81925000Y-128488072D01*
X82049482Y-128475812D01*
X82169180Y-128439502D01*
X82279494Y-128380537D01*
X82300000Y-128363708D01*
X82320506Y-128380537D01*
G36*
X105011928Y-126760000D02*
G01*
X105011928Y-127760000D01*
X105024188Y-127884482D01*
X105060498Y-128004180D01*
X105119463Y-128114494D01*
X105198815Y-128211185D01*
X105295506Y-128290537D01*
X105405820Y-128349502D01*
X105525518Y-128385812D01*
X105650000Y-128398072D01*
X108650000Y-128398072D01*
X108774482Y-128385812D01*
X108894180Y-128349502D01*
X109004494Y-128290537D01*
X109101185Y-128211185D01*
X109180537Y-128114494D01*
X109239502Y-128004180D01*
X109275812Y-127884482D01*
X109285773Y-127783344D01*
X109307727Y-127765327D01*
X109330001Y-127738186D01*
X110256989Y-126811200D01*
X112511928Y-126811200D01*
X112511928Y-127760000D01*
X112524188Y-127884482D01*
X112560498Y-128004180D01*
X112619463Y-128114494D01*
X112698815Y-128211185D01*
X112795506Y-128290537D01*
X112905820Y-128349502D01*
X113025518Y-128385812D01*
X113150000Y-128398072D01*
X116150000Y-128398072D01*
X116274482Y-128385812D01*
X116394180Y-128349502D01*
X116465200Y-128311540D01*
X116534429Y-128340216D01*
X117538302Y-129344091D01*
X117538301Y-131114575D01*
X117534861Y-131149501D01*
X117538301Y-131184427D01*
X117538301Y-131184436D01*
X117548592Y-131288920D01*
X117589259Y-131422981D01*
X117643912Y-131525229D01*
X117644686Y-131529122D01*
X117703899Y-131672074D01*
X117789862Y-131800727D01*
X117899273Y-131910138D01*
X118027926Y-131996101D01*
X118170878Y-132055314D01*
X118322635Y-132085500D01*
X118477365Y-132085500D01*
X118529214Y-132075187D01*
X118476700Y-132248303D01*
X118455751Y-132461000D01*
X118476700Y-132673697D01*
X118538741Y-132878220D01*
X118639491Y-133066710D01*
X118663529Y-133096000D01*
X118639491Y-133125290D01*
X118538741Y-133313780D01*
X118476700Y-133518303D01*
X118455751Y-133731000D01*
X118476700Y-133943697D01*
X118538741Y-134148220D01*
X118639491Y-134336710D01*
X118663529Y-134366000D01*
X118639491Y-134395290D01*
X118538741Y-134583780D01*
X118476700Y-134788303D01*
X118455751Y-135001000D01*
X118476700Y-135213697D01*
X118538741Y-135418220D01*
X118614417Y-135559800D01*
X108874367Y-135559800D01*
X108851293Y-135552738D01*
X108850404Y-135552648D01*
X108849556Y-135552391D01*
X108780986Y-135545637D01*
X108746834Y-135542188D01*
X108745944Y-135542186D01*
X108710137Y-135538659D01*
X108676087Y-135542013D01*
X108183459Y-135540792D01*
X108173641Y-135441113D01*
X108173128Y-135439420D01*
X108162070Y-135402968D01*
X108128754Y-135293140D01*
X108055862Y-135156767D01*
X107996341Y-135084241D01*
X107982345Y-135067187D01*
X107982342Y-135067184D01*
X107957764Y-135037236D01*
X107927817Y-135012659D01*
X106393230Y-133478072D01*
X108650000Y-133478072D01*
X108774482Y-133465812D01*
X108894180Y-133429502D01*
X109004494Y-133370537D01*
X109101185Y-133291185D01*
X109180537Y-133194494D01*
X109239502Y-133084180D01*
X109251187Y-133045660D01*
X109299420Y-133040909D01*
X109433481Y-133000242D01*
X109557033Y-132934202D01*
X109665327Y-132845327D01*
X109671556Y-132837737D01*
X109772074Y-132796101D01*
X109900727Y-132710138D01*
X110010138Y-132600727D01*
X110096101Y-132472074D01*
X110155314Y-132329122D01*
X110185500Y-132177365D01*
X110185500Y-132022635D01*
X110155314Y-131870878D01*
X110142524Y-131840000D01*
X112511928Y-131840000D01*
X112511928Y-132840000D01*
X112524188Y-132964482D01*
X112560498Y-133084180D01*
X112619463Y-133194494D01*
X112698815Y-133291185D01*
X112795506Y-133370537D01*
X112905820Y-133429502D01*
X113025518Y-133465812D01*
X113150000Y-133478072D01*
X116150000Y-133478072D01*
X116274482Y-133465812D01*
X116394180Y-133429502D01*
X116410118Y-133420983D01*
X116499273Y-133510138D01*
X116627926Y-133596101D01*
X116770878Y-133655314D01*
X116922635Y-133685500D01*
X117077365Y-133685500D01*
X117229122Y-133655314D01*
X117372074Y-133596101D01*
X117500727Y-133510138D01*
X117610138Y-133400727D01*
X117696101Y-133272074D01*
X117755314Y-133129122D01*
X117785500Y-132977365D01*
X117785500Y-132822635D01*
X117755314Y-132670878D01*
X117696101Y-132527926D01*
X117610138Y-132399273D01*
X117500727Y-132289862D01*
X117372074Y-132203899D01*
X117265573Y-132159784D01*
X116967601Y-131861814D01*
X116945327Y-131834673D01*
X116837033Y-131745798D01*
X116774927Y-131712602D01*
X116739502Y-131595820D01*
X116680537Y-131485506D01*
X116601185Y-131388815D01*
X116504494Y-131309463D01*
X116394180Y-131250498D01*
X116274482Y-131214188D01*
X116150000Y-131201928D01*
X113150000Y-131201928D01*
X113025518Y-131214188D01*
X112905820Y-131250498D01*
X112795506Y-131309463D01*
X112698815Y-131388815D01*
X112619463Y-131485506D01*
X112560498Y-131595820D01*
X112524188Y-131715518D01*
X112511928Y-131840000D01*
X110142524Y-131840000D01*
X110096101Y-131727926D01*
X110010138Y-131599273D01*
X109900727Y-131489862D01*
X109772074Y-131403899D01*
X109629122Y-131344686D01*
X109477365Y-131314500D01*
X109322635Y-131314500D01*
X109170878Y-131344686D01*
X109088827Y-131378673D01*
X109004494Y-131309463D01*
X108894180Y-131250498D01*
X108774482Y-131214188D01*
X108650000Y-131201928D01*
X105650000Y-131201928D01*
X105525518Y-131214188D01*
X105405820Y-131250498D01*
X105295506Y-131309463D01*
X105198815Y-131388815D01*
X105119463Y-131485506D01*
X105060498Y-131595820D01*
X105024188Y-131715518D01*
X105011928Y-131840000D01*
X105011928Y-132096770D01*
X103215158Y-130300000D01*
X105011928Y-130300000D01*
X105024188Y-130424482D01*
X105060498Y-130544180D01*
X105119463Y-130654494D01*
X105198815Y-130751185D01*
X105295506Y-130830537D01*
X105405820Y-130889502D01*
X105525518Y-130925812D01*
X105650000Y-130938072D01*
X106864250Y-130935000D01*
X107023000Y-130776250D01*
X107023000Y-129927000D01*
X107277000Y-129927000D01*
X107277000Y-130776250D01*
X107435750Y-130935000D01*
X108650000Y-130938072D01*
X108774482Y-130925812D01*
X108894180Y-130889502D01*
X109004494Y-130830537D01*
X109101185Y-130751185D01*
X109180537Y-130654494D01*
X109239502Y-130544180D01*
X109275812Y-130424482D01*
X109288072Y-130300000D01*
X112511928Y-130300000D01*
X112524188Y-130424482D01*
X112560498Y-130544180D01*
X112619463Y-130654494D01*
X112698815Y-130751185D01*
X112795506Y-130830537D01*
X112905820Y-130889502D01*
X113025518Y-130925812D01*
X113150000Y-130938072D01*
X114364250Y-130935000D01*
X114523000Y-130776250D01*
X114523000Y-129927000D01*
X114777000Y-129927000D01*
X114777000Y-130776250D01*
X114935750Y-130935000D01*
X116150000Y-130938072D01*
X116274482Y-130925812D01*
X116394180Y-130889502D01*
X116504494Y-130830537D01*
X116601185Y-130751185D01*
X116680537Y-130654494D01*
X116739502Y-130544180D01*
X116775812Y-130424482D01*
X116788072Y-130300000D01*
X116785000Y-130085750D01*
X116626250Y-129927000D01*
X114777000Y-129927000D01*
X114523000Y-129927000D01*
X112673750Y-129927000D01*
X112515000Y-130085750D01*
X112511928Y-130300000D01*
X109288072Y-130300000D01*
X109285000Y-130085750D01*
X109126250Y-129927000D01*
X107277000Y-129927000D01*
X107023000Y-129927000D01*
X105173750Y-129927000D01*
X105015000Y-130085750D01*
X105011928Y-130300000D01*
X103215158Y-130300000D01*
X102215158Y-129300000D01*
X105011928Y-129300000D01*
X105015000Y-129514250D01*
X105173750Y-129673000D01*
X107023000Y-129673000D01*
X107023000Y-128823750D01*
X107277000Y-128823750D01*
X107277000Y-129673000D01*
X109126250Y-129673000D01*
X109285000Y-129514250D01*
X109288072Y-129300000D01*
X112511928Y-129300000D01*
X112515000Y-129514250D01*
X112673750Y-129673000D01*
X114523000Y-129673000D01*
X114523000Y-128823750D01*
X114777000Y-128823750D01*
X114777000Y-129673000D01*
X116626250Y-129673000D01*
X116785000Y-129514250D01*
X116788072Y-129300000D01*
X116775812Y-129175518D01*
X116739502Y-129055820D01*
X116680537Y-128945506D01*
X116601185Y-128848815D01*
X116504494Y-128769463D01*
X116394180Y-128710498D01*
X116274482Y-128674188D01*
X116150000Y-128661928D01*
X114935750Y-128665000D01*
X114777000Y-128823750D01*
X114523000Y-128823750D01*
X114364250Y-128665000D01*
X113150000Y-128661928D01*
X113025518Y-128674188D01*
X112905820Y-128710498D01*
X112795506Y-128769463D01*
X112698815Y-128848815D01*
X112619463Y-128945506D01*
X112560498Y-129055820D01*
X112524188Y-129175518D01*
X112511928Y-129300000D01*
X109288072Y-129300000D01*
X109275812Y-129175518D01*
X109239502Y-129055820D01*
X109180537Y-128945506D01*
X109101185Y-128848815D01*
X109004494Y-128769463D01*
X108894180Y-128710498D01*
X108774482Y-128674188D01*
X108650000Y-128661928D01*
X107435750Y-128665000D01*
X107277000Y-128823750D01*
X107023000Y-128823750D01*
X106864250Y-128665000D01*
X105650000Y-128661928D01*
X105525518Y-128674188D01*
X105405820Y-128710498D01*
X105295506Y-128769463D01*
X105198815Y-128848815D01*
X105119463Y-128945506D01*
X105060498Y-129055820D01*
X105024188Y-129175518D01*
X105011928Y-129300000D01*
X102215158Y-129300000D01*
X101902347Y-128987190D01*
X101877764Y-128957236D01*
X101784027Y-128880307D01*
X101727983Y-128812017D01*
X101633393Y-128734389D01*
X101615900Y-128713074D01*
X101634926Y-128711200D01*
X101634936Y-128711200D01*
X101739420Y-128700909D01*
X101873481Y-128660242D01*
X101997033Y-128594202D01*
X102105327Y-128505327D01*
X102127602Y-128478185D01*
X102697461Y-127908326D01*
X102799273Y-128010138D01*
X102927926Y-128096101D01*
X103070878Y-128155314D01*
X103222635Y-128185500D01*
X103377365Y-128185500D01*
X103529122Y-128155314D01*
X103672074Y-128096101D01*
X103800727Y-128010138D01*
X103910138Y-127900727D01*
X103996101Y-127772074D01*
X104040216Y-127665571D01*
X105019154Y-126686635D01*
X105011928Y-126760000D01*
G37*
X105011928Y-126760000D02*
X105011928Y-127760000D01*
X105024188Y-127884482D01*
X105060498Y-128004180D01*
X105119463Y-128114494D01*
X105198815Y-128211185D01*
X105295506Y-128290537D01*
X105405820Y-128349502D01*
X105525518Y-128385812D01*
X105650000Y-128398072D01*
X108650000Y-128398072D01*
X108774482Y-128385812D01*
X108894180Y-128349502D01*
X109004494Y-128290537D01*
X109101185Y-128211185D01*
X109180537Y-128114494D01*
X109239502Y-128004180D01*
X109275812Y-127884482D01*
X109285773Y-127783344D01*
X109307727Y-127765327D01*
X109330001Y-127738186D01*
X110256989Y-126811200D01*
X112511928Y-126811200D01*
X112511928Y-127760000D01*
X112524188Y-127884482D01*
X112560498Y-128004180D01*
X112619463Y-128114494D01*
X112698815Y-128211185D01*
X112795506Y-128290537D01*
X112905820Y-128349502D01*
X113025518Y-128385812D01*
X113150000Y-128398072D01*
X116150000Y-128398072D01*
X116274482Y-128385812D01*
X116394180Y-128349502D01*
X116465200Y-128311540D01*
X116534429Y-128340216D01*
X117538302Y-129344091D01*
X117538301Y-131114575D01*
X117534861Y-131149501D01*
X117538301Y-131184427D01*
X117538301Y-131184436D01*
X117548592Y-131288920D01*
X117589259Y-131422981D01*
X117643912Y-131525229D01*
X117644686Y-131529122D01*
X117703899Y-131672074D01*
X117789862Y-131800727D01*
X117899273Y-131910138D01*
X118027926Y-131996101D01*
X118170878Y-132055314D01*
X118322635Y-132085500D01*
X118477365Y-132085500D01*
X118529214Y-132075187D01*
X118476700Y-132248303D01*
X118455751Y-132461000D01*
X118476700Y-132673697D01*
X118538741Y-132878220D01*
X118639491Y-133066710D01*
X118663529Y-133096000D01*
X118639491Y-133125290D01*
X118538741Y-133313780D01*
X118476700Y-133518303D01*
X118455751Y-133731000D01*
X118476700Y-133943697D01*
X118538741Y-134148220D01*
X118639491Y-134336710D01*
X118663529Y-134366000D01*
X118639491Y-134395290D01*
X118538741Y-134583780D01*
X118476700Y-134788303D01*
X118455751Y-135001000D01*
X118476700Y-135213697D01*
X118538741Y-135418220D01*
X118614417Y-135559800D01*
X108874367Y-135559800D01*
X108851293Y-135552738D01*
X108850404Y-135552648D01*
X108849556Y-135552391D01*
X108780986Y-135545637D01*
X108746834Y-135542188D01*
X108745944Y-135542186D01*
X108710137Y-135538659D01*
X108676087Y-135542013D01*
X108183459Y-135540792D01*
X108173641Y-135441113D01*
X108173128Y-135439420D01*
X108162070Y-135402968D01*
X108128754Y-135293140D01*
X108055862Y-135156767D01*
X107996341Y-135084241D01*
X107982345Y-135067187D01*
X107982342Y-135067184D01*
X107957764Y-135037236D01*
X107927817Y-135012659D01*
X106393230Y-133478072D01*
X108650000Y-133478072D01*
X108774482Y-133465812D01*
X108894180Y-133429502D01*
X109004494Y-133370537D01*
X109101185Y-133291185D01*
X109180537Y-133194494D01*
X109239502Y-133084180D01*
X109251187Y-133045660D01*
X109299420Y-133040909D01*
X109433481Y-133000242D01*
X109557033Y-132934202D01*
X109665327Y-132845327D01*
X109671556Y-132837737D01*
X109772074Y-132796101D01*
X109900727Y-132710138D01*
X110010138Y-132600727D01*
X110096101Y-132472074D01*
X110155314Y-132329122D01*
X110185500Y-132177365D01*
X110185500Y-132022635D01*
X110155314Y-131870878D01*
X110142524Y-131840000D01*
X112511928Y-131840000D01*
X112511928Y-132840000D01*
X112524188Y-132964482D01*
X112560498Y-133084180D01*
X112619463Y-133194494D01*
X112698815Y-133291185D01*
X112795506Y-133370537D01*
X112905820Y-133429502D01*
X113025518Y-133465812D01*
X113150000Y-133478072D01*
X116150000Y-133478072D01*
X116274482Y-133465812D01*
X116394180Y-133429502D01*
X116410118Y-133420983D01*
X116499273Y-133510138D01*
X116627926Y-133596101D01*
X116770878Y-133655314D01*
X116922635Y-133685500D01*
X117077365Y-133685500D01*
X117229122Y-133655314D01*
X117372074Y-133596101D01*
X117500727Y-133510138D01*
X117610138Y-133400727D01*
X117696101Y-133272074D01*
X117755314Y-133129122D01*
X117785500Y-132977365D01*
X117785500Y-132822635D01*
X117755314Y-132670878D01*
X117696101Y-132527926D01*
X117610138Y-132399273D01*
X117500727Y-132289862D01*
X117372074Y-132203899D01*
X117265573Y-132159784D01*
X116967601Y-131861814D01*
X116945327Y-131834673D01*
X116837033Y-131745798D01*
X116774927Y-131712602D01*
X116739502Y-131595820D01*
X116680537Y-131485506D01*
X116601185Y-131388815D01*
X116504494Y-131309463D01*
X116394180Y-131250498D01*
X116274482Y-131214188D01*
X116150000Y-131201928D01*
X113150000Y-131201928D01*
X113025518Y-131214188D01*
X112905820Y-131250498D01*
X112795506Y-131309463D01*
X112698815Y-131388815D01*
X112619463Y-131485506D01*
X112560498Y-131595820D01*
X112524188Y-131715518D01*
X112511928Y-131840000D01*
X110142524Y-131840000D01*
X110096101Y-131727926D01*
X110010138Y-131599273D01*
X109900727Y-131489862D01*
X109772074Y-131403899D01*
X109629122Y-131344686D01*
X109477365Y-131314500D01*
X109322635Y-131314500D01*
X109170878Y-131344686D01*
X109088827Y-131378673D01*
X109004494Y-131309463D01*
X108894180Y-131250498D01*
X108774482Y-131214188D01*
X108650000Y-131201928D01*
X105650000Y-131201928D01*
X105525518Y-131214188D01*
X105405820Y-131250498D01*
X105295506Y-131309463D01*
X105198815Y-131388815D01*
X105119463Y-131485506D01*
X105060498Y-131595820D01*
X105024188Y-131715518D01*
X105011928Y-131840000D01*
X105011928Y-132096770D01*
X103215158Y-130300000D01*
X105011928Y-130300000D01*
X105024188Y-130424482D01*
X105060498Y-130544180D01*
X105119463Y-130654494D01*
X105198815Y-130751185D01*
X105295506Y-130830537D01*
X105405820Y-130889502D01*
X105525518Y-130925812D01*
X105650000Y-130938072D01*
X106864250Y-130935000D01*
X107023000Y-130776250D01*
X107023000Y-129927000D01*
X107277000Y-129927000D01*
X107277000Y-130776250D01*
X107435750Y-130935000D01*
X108650000Y-130938072D01*
X108774482Y-130925812D01*
X108894180Y-130889502D01*
X109004494Y-130830537D01*
X109101185Y-130751185D01*
X109180537Y-130654494D01*
X109239502Y-130544180D01*
X109275812Y-130424482D01*
X109288072Y-130300000D01*
X112511928Y-130300000D01*
X112524188Y-130424482D01*
X112560498Y-130544180D01*
X112619463Y-130654494D01*
X112698815Y-130751185D01*
X112795506Y-130830537D01*
X112905820Y-130889502D01*
X113025518Y-130925812D01*
X113150000Y-130938072D01*
X114364250Y-130935000D01*
X114523000Y-130776250D01*
X114523000Y-129927000D01*
X114777000Y-129927000D01*
X114777000Y-130776250D01*
X114935750Y-130935000D01*
X116150000Y-130938072D01*
X116274482Y-130925812D01*
X116394180Y-130889502D01*
X116504494Y-130830537D01*
X116601185Y-130751185D01*
X116680537Y-130654494D01*
X116739502Y-130544180D01*
X116775812Y-130424482D01*
X116788072Y-130300000D01*
X116785000Y-130085750D01*
X116626250Y-129927000D01*
X114777000Y-129927000D01*
X114523000Y-129927000D01*
X112673750Y-129927000D01*
X112515000Y-130085750D01*
X112511928Y-130300000D01*
X109288072Y-130300000D01*
X109285000Y-130085750D01*
X109126250Y-129927000D01*
X107277000Y-129927000D01*
X107023000Y-129927000D01*
X105173750Y-129927000D01*
X105015000Y-130085750D01*
X105011928Y-130300000D01*
X103215158Y-130300000D01*
X102215158Y-129300000D01*
X105011928Y-129300000D01*
X105015000Y-129514250D01*
X105173750Y-129673000D01*
X107023000Y-129673000D01*
X107023000Y-128823750D01*
X107277000Y-128823750D01*
X107277000Y-129673000D01*
X109126250Y-129673000D01*
X109285000Y-129514250D01*
X109288072Y-129300000D01*
X112511928Y-129300000D01*
X112515000Y-129514250D01*
X112673750Y-129673000D01*
X114523000Y-129673000D01*
X114523000Y-128823750D01*
X114777000Y-128823750D01*
X114777000Y-129673000D01*
X116626250Y-129673000D01*
X116785000Y-129514250D01*
X116788072Y-129300000D01*
X116775812Y-129175518D01*
X116739502Y-129055820D01*
X116680537Y-128945506D01*
X116601185Y-128848815D01*
X116504494Y-128769463D01*
X116394180Y-128710498D01*
X116274482Y-128674188D01*
X116150000Y-128661928D01*
X114935750Y-128665000D01*
X114777000Y-128823750D01*
X114523000Y-128823750D01*
X114364250Y-128665000D01*
X113150000Y-128661928D01*
X113025518Y-128674188D01*
X112905820Y-128710498D01*
X112795506Y-128769463D01*
X112698815Y-128848815D01*
X112619463Y-128945506D01*
X112560498Y-129055820D01*
X112524188Y-129175518D01*
X112511928Y-129300000D01*
X109288072Y-129300000D01*
X109275812Y-129175518D01*
X109239502Y-129055820D01*
X109180537Y-128945506D01*
X109101185Y-128848815D01*
X109004494Y-128769463D01*
X108894180Y-128710498D01*
X108774482Y-128674188D01*
X108650000Y-128661928D01*
X107435750Y-128665000D01*
X107277000Y-128823750D01*
X107023000Y-128823750D01*
X106864250Y-128665000D01*
X105650000Y-128661928D01*
X105525518Y-128674188D01*
X105405820Y-128710498D01*
X105295506Y-128769463D01*
X105198815Y-128848815D01*
X105119463Y-128945506D01*
X105060498Y-129055820D01*
X105024188Y-129175518D01*
X105011928Y-129300000D01*
X102215158Y-129300000D01*
X101902347Y-128987190D01*
X101877764Y-128957236D01*
X101784027Y-128880307D01*
X101727983Y-128812017D01*
X101633393Y-128734389D01*
X101615900Y-128713074D01*
X101634926Y-128711200D01*
X101634936Y-128711200D01*
X101739420Y-128700909D01*
X101873481Y-128660242D01*
X101997033Y-128594202D01*
X102105327Y-128505327D01*
X102127602Y-128478185D01*
X102697461Y-127908326D01*
X102799273Y-128010138D01*
X102927926Y-128096101D01*
X103070878Y-128155314D01*
X103222635Y-128185500D01*
X103377365Y-128185500D01*
X103529122Y-128155314D01*
X103672074Y-128096101D01*
X103800727Y-128010138D01*
X103910138Y-127900727D01*
X103996101Y-127772074D01*
X104040216Y-127665571D01*
X105019154Y-126686635D01*
X105011928Y-126760000D01*
G36*
X105778643Y-125088800D02*
G01*
X104934928Y-125088800D01*
X104900000Y-125085360D01*
X104865071Y-125088800D01*
X104865064Y-125088800D01*
X104760580Y-125099091D01*
X104674052Y-125125339D01*
X104572074Y-125057199D01*
X104429122Y-124997986D01*
X104277365Y-124967800D01*
X104122635Y-124967800D01*
X103970878Y-124997986D01*
X103867692Y-125040727D01*
X103846700Y-125038660D01*
X103811771Y-125042100D01*
X103811764Y-125042100D01*
X103707280Y-125052391D01*
X103573218Y-125093058D01*
X103449667Y-125159098D01*
X103368509Y-125225702D01*
X103368504Y-125225707D01*
X103341373Y-125247973D01*
X103319107Y-125275104D01*
X101305413Y-127288800D01*
X98705895Y-127288800D01*
X98711200Y-127234936D01*
X98711200Y-127234927D01*
X98714640Y-127200001D01*
X98711200Y-127165075D01*
X98711200Y-127017971D01*
X98800679Y-126908940D01*
X98873274Y-126773125D01*
X98917977Y-126625757D01*
X98921955Y-126585365D01*
X98922635Y-126585500D01*
X99077365Y-126585500D01*
X99229122Y-126555314D01*
X99372074Y-126496101D01*
X99500727Y-126410138D01*
X99610138Y-126300727D01*
X99696101Y-126172074D01*
X99755314Y-126029122D01*
X99785500Y-125877365D01*
X99785500Y-125722635D01*
X99755314Y-125570878D01*
X99696101Y-125427926D01*
X99610138Y-125299273D01*
X99500727Y-125189862D01*
X99372074Y-125103899D01*
X99229122Y-125044686D01*
X99077365Y-125014500D01*
X98922635Y-125014500D01*
X98770878Y-125044686D01*
X98664378Y-125088800D01*
X98534928Y-125088800D01*
X98500000Y-125085360D01*
X98465071Y-125088800D01*
X98465064Y-125088800D01*
X98360580Y-125099091D01*
X98226518Y-125139758D01*
X98123780Y-125194673D01*
X98102967Y-125205798D01*
X97994673Y-125294673D01*
X97972402Y-125321810D01*
X97952284Y-125341928D01*
X97852500Y-125341928D01*
X97699243Y-125357023D01*
X97576316Y-125394312D01*
X97569180Y-125390498D01*
X97449482Y-125354188D01*
X97325000Y-125341928D01*
X97315750Y-125345000D01*
X97157000Y-125503750D01*
X97157000Y-125770237D01*
X97126726Y-125826875D01*
X97082023Y-125974243D01*
X97066928Y-126127500D01*
X97066928Y-126472500D01*
X97082023Y-126625757D01*
X97126726Y-126773125D01*
X97157000Y-126829763D01*
X97157000Y-127041150D01*
X97144686Y-127070878D01*
X97114500Y-127222635D01*
X97114500Y-127288800D01*
X96434917Y-127288800D01*
X96399999Y-127285361D01*
X96365081Y-127288800D01*
X96365064Y-127288800D01*
X96260580Y-127299091D01*
X96126519Y-127339758D01*
X96002967Y-127405798D01*
X96002965Y-127405799D01*
X96002966Y-127405799D01*
X95921808Y-127472403D01*
X95921804Y-127472407D01*
X95894673Y-127494673D01*
X95872407Y-127521804D01*
X95524231Y-127869981D01*
X95496250Y-127842000D01*
X95229763Y-127842000D01*
X95173125Y-127811726D01*
X95025757Y-127767023D01*
X94872500Y-127751928D01*
X94527500Y-127751928D01*
X94374243Y-127767023D01*
X94226875Y-127811726D01*
X94170237Y-127842000D01*
X93903750Y-127842000D01*
X93745000Y-128000750D01*
X93741928Y-128010000D01*
X93754188Y-128134482D01*
X93790498Y-128254180D01*
X93794312Y-128261316D01*
X93757023Y-128384243D01*
X93741928Y-128537500D01*
X93741928Y-128832500D01*
X93757023Y-128985757D01*
X93801726Y-129133125D01*
X93874321Y-129268940D01*
X93972017Y-129387983D01*
X94091060Y-129485679D01*
X94226875Y-129558274D01*
X94374243Y-129602977D01*
X94527500Y-129618072D01*
X94872500Y-129618072D01*
X95025757Y-129602977D01*
X95173125Y-129558274D01*
X95308940Y-129485679D01*
X95387847Y-129420921D01*
X95470878Y-129455314D01*
X95622635Y-129485500D01*
X95777365Y-129485500D01*
X95929122Y-129455314D01*
X96072074Y-129396101D01*
X96200727Y-129310138D01*
X96310138Y-129200727D01*
X96396101Y-129072074D01*
X96440216Y-128965572D01*
X96694588Y-128711200D01*
X99621230Y-128711200D01*
X99623062Y-128720409D01*
X99626359Y-128753886D01*
X99636124Y-128786076D01*
X99644686Y-128829122D01*
X99661482Y-128869670D01*
X99671246Y-128901859D01*
X99687103Y-128931526D01*
X99703899Y-128972074D01*
X99728282Y-129008566D01*
X99744139Y-129038232D01*
X99765478Y-129064234D01*
X99789862Y-129100727D01*
X99899273Y-129210138D01*
X99901406Y-129211563D01*
X100043310Y-129353467D01*
X100041928Y-129367500D01*
X100041928Y-129662500D01*
X100057023Y-129815757D01*
X100101726Y-129963125D01*
X100121436Y-130000000D01*
X100101726Y-130036875D01*
X100057023Y-130184243D01*
X100041928Y-130337500D01*
X100041928Y-130632500D01*
X100057023Y-130785757D01*
X100068994Y-130825219D01*
X99934429Y-130959784D01*
X99827926Y-131003899D01*
X99699273Y-131089862D01*
X99589862Y-131199273D01*
X99503899Y-131327926D01*
X99444686Y-131470878D01*
X99414500Y-131622635D01*
X99414500Y-131777365D01*
X99444686Y-131929122D01*
X99503899Y-132072074D01*
X99589862Y-132200727D01*
X99699273Y-132310138D01*
X99827926Y-132396101D01*
X99970878Y-132455314D01*
X100122635Y-132485500D01*
X100277365Y-132485500D01*
X100429122Y-132455314D01*
X100572074Y-132396101D01*
X100700727Y-132310138D01*
X100810138Y-132200727D01*
X100896101Y-132072074D01*
X100940216Y-131965571D01*
X101478190Y-131427598D01*
X101505327Y-131405327D01*
X101594202Y-131297033D01*
X101596803Y-131292166D01*
X101608940Y-131285679D01*
X101727983Y-131187983D01*
X101797779Y-131102936D01*
X102741989Y-132047146D01*
X102689862Y-132099273D01*
X102603899Y-132227926D01*
X102544686Y-132370878D01*
X102514500Y-132522635D01*
X102514500Y-132677365D01*
X102544686Y-132829122D01*
X102588801Y-132935624D01*
X102588800Y-135000335D01*
X102489862Y-135099273D01*
X102403899Y-135227926D01*
X102344686Y-135370878D01*
X102314500Y-135522635D01*
X102314500Y-135526249D01*
X89441283Y-135494351D01*
X89440400Y-135494264D01*
X89406191Y-135494264D01*
X89372291Y-135494180D01*
X89371416Y-135494264D01*
X88600052Y-135494264D01*
X87423514Y-134317726D01*
X87544482Y-134305812D01*
X87664180Y-134269502D01*
X87774494Y-134210537D01*
X87871185Y-134131185D01*
X87950537Y-134034494D01*
X88009502Y-133924180D01*
X88045812Y-133804482D01*
X88058072Y-133680000D01*
X88055000Y-133670750D01*
X87896250Y-133512000D01*
X87227000Y-133512000D01*
X87227000Y-133532000D01*
X86973000Y-133532000D01*
X86973000Y-133512000D01*
X86953000Y-133512000D01*
X86953000Y-133348072D01*
X87272500Y-133348072D01*
X87425757Y-133332977D01*
X87573125Y-133288274D01*
X87629763Y-133258000D01*
X87896250Y-133258000D01*
X87983602Y-133170648D01*
X88072260Y-133143754D01*
X88208633Y-133070862D01*
X88319347Y-132980000D01*
X91641928Y-132980000D01*
X91654188Y-133104482D01*
X91690498Y-133224180D01*
X91749463Y-133334494D01*
X91828815Y-133431185D01*
X91925506Y-133510537D01*
X92035820Y-133569502D01*
X92155518Y-133605812D01*
X92280000Y-133618072D01*
X92314250Y-133615000D01*
X92473000Y-133456250D01*
X92473000Y-132812000D01*
X92727000Y-132812000D01*
X92727000Y-133456250D01*
X92885750Y-133615000D01*
X92920000Y-133618072D01*
X93044482Y-133605812D01*
X93164180Y-133569502D01*
X93274494Y-133510537D01*
X93371185Y-133431185D01*
X93450537Y-133334494D01*
X93509502Y-133224180D01*
X93545812Y-133104482D01*
X93558072Y-132980000D01*
X93555000Y-132970750D01*
X93396250Y-132812000D01*
X92727000Y-132812000D01*
X92473000Y-132812000D01*
X91803750Y-132812000D01*
X91645000Y-132970750D01*
X91641928Y-132980000D01*
X88319347Y-132980000D01*
X88328164Y-132972764D01*
X88352747Y-132942810D01*
X88778837Y-132516720D01*
X88827820Y-132542902D01*
X88947518Y-132579212D01*
X89072000Y-132591472D01*
X90772000Y-132591472D01*
X90896482Y-132579212D01*
X91016180Y-132542902D01*
X91126494Y-132483937D01*
X91147775Y-132466472D01*
X91577000Y-132466472D01*
X91700098Y-132454348D01*
X91803750Y-132558000D01*
X92070237Y-132558000D01*
X92126875Y-132588274D01*
X92274243Y-132632977D01*
X92427500Y-132648072D01*
X92772500Y-132648072D01*
X92925757Y-132632977D01*
X93073125Y-132588274D01*
X93129763Y-132558000D01*
X93396250Y-132558000D01*
X93555000Y-132399250D01*
X93558072Y-132390000D01*
X93545812Y-132265518D01*
X93509502Y-132145820D01*
X93505688Y-132138684D01*
X93542977Y-132015757D01*
X93558072Y-131862500D01*
X93558072Y-131567500D01*
X93542977Y-131414243D01*
X93498274Y-131266875D01*
X93425679Y-131131060D01*
X93385000Y-131081492D01*
X93385000Y-127725157D01*
X93747584Y-127362573D01*
X93741928Y-127420000D01*
X93745000Y-127429250D01*
X93903750Y-127588000D01*
X94573000Y-127588000D01*
X94573000Y-126943750D01*
X94827000Y-126943750D01*
X94827000Y-127588000D01*
X95496250Y-127588000D01*
X95655000Y-127429250D01*
X95658072Y-127420000D01*
X95645812Y-127295518D01*
X95609502Y-127175820D01*
X95550537Y-127065506D01*
X95471185Y-126968815D01*
X95374494Y-126889463D01*
X95264180Y-126830498D01*
X95144482Y-126794188D01*
X95020000Y-126781928D01*
X94985750Y-126785000D01*
X94827000Y-126943750D01*
X94573000Y-126943750D01*
X94414250Y-126785000D01*
X94380000Y-126781928D01*
X94322574Y-126787584D01*
X94490158Y-126620000D01*
X96096928Y-126620000D01*
X96109188Y-126744482D01*
X96145498Y-126864180D01*
X96204463Y-126974494D01*
X96283815Y-127071185D01*
X96380506Y-127150537D01*
X96490820Y-127209502D01*
X96610518Y-127245812D01*
X96735000Y-127258072D01*
X96744250Y-127255000D01*
X96903000Y-127096250D01*
X96903000Y-126427000D01*
X96258750Y-126427000D01*
X96100000Y-126585750D01*
X96096928Y-126620000D01*
X94490158Y-126620000D01*
X95130158Y-125980000D01*
X96096928Y-125980000D01*
X96100000Y-126014250D01*
X96258750Y-126173000D01*
X96903000Y-126173000D01*
X96903000Y-125503750D01*
X96744250Y-125345000D01*
X96735000Y-125341928D01*
X96610518Y-125354188D01*
X96490820Y-125390498D01*
X96380506Y-125449463D01*
X96283815Y-125528815D01*
X96204463Y-125625506D01*
X96145498Y-125735820D01*
X96109188Y-125855518D01*
X96096928Y-125980000D01*
X95130158Y-125980000D01*
X96325158Y-124785000D01*
X105474843Y-124785000D01*
X105778643Y-125088800D01*
G37*
X105778643Y-125088800D02*
X104934928Y-125088800D01*
X104900000Y-125085360D01*
X104865071Y-125088800D01*
X104865064Y-125088800D01*
X104760580Y-125099091D01*
X104674052Y-125125339D01*
X104572074Y-125057199D01*
X104429122Y-124997986D01*
X104277365Y-124967800D01*
X104122635Y-124967800D01*
X103970878Y-124997986D01*
X103867692Y-125040727D01*
X103846700Y-125038660D01*
X103811771Y-125042100D01*
X103811764Y-125042100D01*
X103707280Y-125052391D01*
X103573218Y-125093058D01*
X103449667Y-125159098D01*
X103368509Y-125225702D01*
X103368504Y-125225707D01*
X103341373Y-125247973D01*
X103319107Y-125275104D01*
X101305413Y-127288800D01*
X98705895Y-127288800D01*
X98711200Y-127234936D01*
X98711200Y-127234927D01*
X98714640Y-127200001D01*
X98711200Y-127165075D01*
X98711200Y-127017971D01*
X98800679Y-126908940D01*
X98873274Y-126773125D01*
X98917977Y-126625757D01*
X98921955Y-126585365D01*
X98922635Y-126585500D01*
X99077365Y-126585500D01*
X99229122Y-126555314D01*
X99372074Y-126496101D01*
X99500727Y-126410138D01*
X99610138Y-126300727D01*
X99696101Y-126172074D01*
X99755314Y-126029122D01*
X99785500Y-125877365D01*
X99785500Y-125722635D01*
X99755314Y-125570878D01*
X99696101Y-125427926D01*
X99610138Y-125299273D01*
X99500727Y-125189862D01*
X99372074Y-125103899D01*
X99229122Y-125044686D01*
X99077365Y-125014500D01*
X98922635Y-125014500D01*
X98770878Y-125044686D01*
X98664378Y-125088800D01*
X98534928Y-125088800D01*
X98500000Y-125085360D01*
X98465071Y-125088800D01*
X98465064Y-125088800D01*
X98360580Y-125099091D01*
X98226518Y-125139758D01*
X98123780Y-125194673D01*
X98102967Y-125205798D01*
X97994673Y-125294673D01*
X97972402Y-125321810D01*
X97952284Y-125341928D01*
X97852500Y-125341928D01*
X97699243Y-125357023D01*
X97576316Y-125394312D01*
X97569180Y-125390498D01*
X97449482Y-125354188D01*
X97325000Y-125341928D01*
X97315750Y-125345000D01*
X97157000Y-125503750D01*
X97157000Y-125770237D01*
X97126726Y-125826875D01*
X97082023Y-125974243D01*
X97066928Y-126127500D01*
X97066928Y-126472500D01*
X97082023Y-126625757D01*
X97126726Y-126773125D01*
X97157000Y-126829763D01*
X97157000Y-127041150D01*
X97144686Y-127070878D01*
X97114500Y-127222635D01*
X97114500Y-127288800D01*
X96434917Y-127288800D01*
X96399999Y-127285361D01*
X96365081Y-127288800D01*
X96365064Y-127288800D01*
X96260580Y-127299091D01*
X96126519Y-127339758D01*
X96002967Y-127405798D01*
X96002965Y-127405799D01*
X96002966Y-127405799D01*
X95921808Y-127472403D01*
X95921804Y-127472407D01*
X95894673Y-127494673D01*
X95872407Y-127521804D01*
X95524231Y-127869981D01*
X95496250Y-127842000D01*
X95229763Y-127842000D01*
X95173125Y-127811726D01*
X95025757Y-127767023D01*
X94872500Y-127751928D01*
X94527500Y-127751928D01*
X94374243Y-127767023D01*
X94226875Y-127811726D01*
X94170237Y-127842000D01*
X93903750Y-127842000D01*
X93745000Y-128000750D01*
X93741928Y-128010000D01*
X93754188Y-128134482D01*
X93790498Y-128254180D01*
X93794312Y-128261316D01*
X93757023Y-128384243D01*
X93741928Y-128537500D01*
X93741928Y-128832500D01*
X93757023Y-128985757D01*
X93801726Y-129133125D01*
X93874321Y-129268940D01*
X93972017Y-129387983D01*
X94091060Y-129485679D01*
X94226875Y-129558274D01*
X94374243Y-129602977D01*
X94527500Y-129618072D01*
X94872500Y-129618072D01*
X95025757Y-129602977D01*
X95173125Y-129558274D01*
X95308940Y-129485679D01*
X95387847Y-129420921D01*
X95470878Y-129455314D01*
X95622635Y-129485500D01*
X95777365Y-129485500D01*
X95929122Y-129455314D01*
X96072074Y-129396101D01*
X96200727Y-129310138D01*
X96310138Y-129200727D01*
X96396101Y-129072074D01*
X96440216Y-128965572D01*
X96694588Y-128711200D01*
X99621230Y-128711200D01*
X99623062Y-128720409D01*
X99626359Y-128753886D01*
X99636124Y-128786076D01*
X99644686Y-128829122D01*
X99661482Y-128869670D01*
X99671246Y-128901859D01*
X99687103Y-128931526D01*
X99703899Y-128972074D01*
X99728282Y-129008566D01*
X99744139Y-129038232D01*
X99765478Y-129064234D01*
X99789862Y-129100727D01*
X99899273Y-129210138D01*
X99901406Y-129211563D01*
X100043310Y-129353467D01*
X100041928Y-129367500D01*
X100041928Y-129662500D01*
X100057023Y-129815757D01*
X100101726Y-129963125D01*
X100121436Y-130000000D01*
X100101726Y-130036875D01*
X100057023Y-130184243D01*
X100041928Y-130337500D01*
X100041928Y-130632500D01*
X100057023Y-130785757D01*
X100068994Y-130825219D01*
X99934429Y-130959784D01*
X99827926Y-131003899D01*
X99699273Y-131089862D01*
X99589862Y-131199273D01*
X99503899Y-131327926D01*
X99444686Y-131470878D01*
X99414500Y-131622635D01*
X99414500Y-131777365D01*
X99444686Y-131929122D01*
X99503899Y-132072074D01*
X99589862Y-132200727D01*
X99699273Y-132310138D01*
X99827926Y-132396101D01*
X99970878Y-132455314D01*
X100122635Y-132485500D01*
X100277365Y-132485500D01*
X100429122Y-132455314D01*
X100572074Y-132396101D01*
X100700727Y-132310138D01*
X100810138Y-132200727D01*
X100896101Y-132072074D01*
X100940216Y-131965571D01*
X101478190Y-131427598D01*
X101505327Y-131405327D01*
X101594202Y-131297033D01*
X101596803Y-131292166D01*
X101608940Y-131285679D01*
X101727983Y-131187983D01*
X101797779Y-131102936D01*
X102741989Y-132047146D01*
X102689862Y-132099273D01*
X102603899Y-132227926D01*
X102544686Y-132370878D01*
X102514500Y-132522635D01*
X102514500Y-132677365D01*
X102544686Y-132829122D01*
X102588801Y-132935624D01*
X102588800Y-135000335D01*
X102489862Y-135099273D01*
X102403899Y-135227926D01*
X102344686Y-135370878D01*
X102314500Y-135522635D01*
X102314500Y-135526249D01*
X89441283Y-135494351D01*
X89440400Y-135494264D01*
X89406191Y-135494264D01*
X89372291Y-135494180D01*
X89371416Y-135494264D01*
X88600052Y-135494264D01*
X87423514Y-134317726D01*
X87544482Y-134305812D01*
X87664180Y-134269502D01*
X87774494Y-134210537D01*
X87871185Y-134131185D01*
X87950537Y-134034494D01*
X88009502Y-133924180D01*
X88045812Y-133804482D01*
X88058072Y-133680000D01*
X88055000Y-133670750D01*
X87896250Y-133512000D01*
X87227000Y-133512000D01*
X87227000Y-133532000D01*
X86973000Y-133532000D01*
X86973000Y-133512000D01*
X86953000Y-133512000D01*
X86953000Y-133348072D01*
X87272500Y-133348072D01*
X87425757Y-133332977D01*
X87573125Y-133288274D01*
X87629763Y-133258000D01*
X87896250Y-133258000D01*
X87983602Y-133170648D01*
X88072260Y-133143754D01*
X88208633Y-133070862D01*
X88319347Y-132980000D01*
X91641928Y-132980000D01*
X91654188Y-133104482D01*
X91690498Y-133224180D01*
X91749463Y-133334494D01*
X91828815Y-133431185D01*
X91925506Y-133510537D01*
X92035820Y-133569502D01*
X92155518Y-133605812D01*
X92280000Y-133618072D01*
X92314250Y-133615000D01*
X92473000Y-133456250D01*
X92473000Y-132812000D01*
X92727000Y-132812000D01*
X92727000Y-133456250D01*
X92885750Y-133615000D01*
X92920000Y-133618072D01*
X93044482Y-133605812D01*
X93164180Y-133569502D01*
X93274494Y-133510537D01*
X93371185Y-133431185D01*
X93450537Y-133334494D01*
X93509502Y-133224180D01*
X93545812Y-133104482D01*
X93558072Y-132980000D01*
X93555000Y-132970750D01*
X93396250Y-132812000D01*
X92727000Y-132812000D01*
X92473000Y-132812000D01*
X91803750Y-132812000D01*
X91645000Y-132970750D01*
X91641928Y-132980000D01*
X88319347Y-132980000D01*
X88328164Y-132972764D01*
X88352747Y-132942810D01*
X88778837Y-132516720D01*
X88827820Y-132542902D01*
X88947518Y-132579212D01*
X89072000Y-132591472D01*
X90772000Y-132591472D01*
X90896482Y-132579212D01*
X91016180Y-132542902D01*
X91126494Y-132483937D01*
X91147775Y-132466472D01*
X91577000Y-132466472D01*
X91700098Y-132454348D01*
X91803750Y-132558000D01*
X92070237Y-132558000D01*
X92126875Y-132588274D01*
X92274243Y-132632977D01*
X92427500Y-132648072D01*
X92772500Y-132648072D01*
X92925757Y-132632977D01*
X93073125Y-132588274D01*
X93129763Y-132558000D01*
X93396250Y-132558000D01*
X93555000Y-132399250D01*
X93558072Y-132390000D01*
X93545812Y-132265518D01*
X93509502Y-132145820D01*
X93505688Y-132138684D01*
X93542977Y-132015757D01*
X93558072Y-131862500D01*
X93558072Y-131567500D01*
X93542977Y-131414243D01*
X93498274Y-131266875D01*
X93425679Y-131131060D01*
X93385000Y-131081492D01*
X93385000Y-127725157D01*
X93747584Y-127362573D01*
X93741928Y-127420000D01*
X93745000Y-127429250D01*
X93903750Y-127588000D01*
X94573000Y-127588000D01*
X94573000Y-126943750D01*
X94827000Y-126943750D01*
X94827000Y-127588000D01*
X95496250Y-127588000D01*
X95655000Y-127429250D01*
X95658072Y-127420000D01*
X95645812Y-127295518D01*
X95609502Y-127175820D01*
X95550537Y-127065506D01*
X95471185Y-126968815D01*
X95374494Y-126889463D01*
X95264180Y-126830498D01*
X95144482Y-126794188D01*
X95020000Y-126781928D01*
X94985750Y-126785000D01*
X94827000Y-126943750D01*
X94573000Y-126943750D01*
X94414250Y-126785000D01*
X94380000Y-126781928D01*
X94322574Y-126787584D01*
X94490158Y-126620000D01*
X96096928Y-126620000D01*
X96109188Y-126744482D01*
X96145498Y-126864180D01*
X96204463Y-126974494D01*
X96283815Y-127071185D01*
X96380506Y-127150537D01*
X96490820Y-127209502D01*
X96610518Y-127245812D01*
X96735000Y-127258072D01*
X96744250Y-127255000D01*
X96903000Y-127096250D01*
X96903000Y-126427000D01*
X96258750Y-126427000D01*
X96100000Y-126585750D01*
X96096928Y-126620000D01*
X94490158Y-126620000D01*
X95130158Y-125980000D01*
X96096928Y-125980000D01*
X96100000Y-126014250D01*
X96258750Y-126173000D01*
X96903000Y-126173000D01*
X96903000Y-125503750D01*
X96744250Y-125345000D01*
X96735000Y-125341928D01*
X96610518Y-125354188D01*
X96490820Y-125390498D01*
X96380506Y-125449463D01*
X96283815Y-125528815D01*
X96204463Y-125625506D01*
X96145498Y-125735820D01*
X96109188Y-125855518D01*
X96096928Y-125980000D01*
X95130158Y-125980000D01*
X96325158Y-124785000D01*
X105474843Y-124785000D01*
X105778643Y-125088800D01*
G36*
X95625901Y-120353175D02*
G01*
X95363080Y-120478359D01*
X95129731Y-120652412D01*
X94934822Y-120868645D01*
X94785843Y-121118748D01*
X94688519Y-121393109D01*
X94809186Y-121623000D01*
X96003000Y-121623000D01*
X96003000Y-121603000D01*
X96257000Y-121603000D01*
X96257000Y-121623000D01*
X96277000Y-121623000D01*
X96277000Y-121877000D01*
X96257000Y-121877000D01*
X96257000Y-121897000D01*
X96003000Y-121897000D01*
X96003000Y-121877000D01*
X94809186Y-121877000D01*
X94688519Y-122106891D01*
X94785843Y-122381252D01*
X94934822Y-122631355D01*
X95129731Y-122847588D01*
X95363080Y-123021641D01*
X95625901Y-123146825D01*
X95773110Y-123191476D01*
X96002998Y-123070156D01*
X96002998Y-123211498D01*
X95999999Y-123211203D01*
X95961446Y-123215000D01*
X95961439Y-123215000D01*
X95860490Y-123224943D01*
X95846112Y-123226359D01*
X95726942Y-123262509D01*
X95698140Y-123271246D01*
X95561767Y-123344138D01*
X95526013Y-123373481D01*
X95472187Y-123417655D01*
X95472184Y-123417658D01*
X95442236Y-123442236D01*
X95417658Y-123472184D01*
X92072185Y-126817658D01*
X92042237Y-126842236D01*
X92017659Y-126872184D01*
X92017655Y-126872188D01*
X91992395Y-126902968D01*
X91944139Y-126961767D01*
X91915878Y-127014640D01*
X91871246Y-127098141D01*
X91826359Y-127246114D01*
X91811203Y-127400000D01*
X91815001Y-127438563D01*
X91815001Y-128887325D01*
X91806312Y-128882957D01*
X91685740Y-128849662D01*
X91560990Y-128840529D01*
X91547750Y-128843400D01*
X91389000Y-129002150D01*
X91389000Y-129199869D01*
X91361502Y-129109220D01*
X91302537Y-128998906D01*
X91223185Y-128902215D01*
X91126494Y-128822863D01*
X91016180Y-128763898D01*
X90896482Y-128727588D01*
X90772000Y-128715328D01*
X89072000Y-128715328D01*
X88947518Y-128727588D01*
X88827820Y-128763898D01*
X88717506Y-128822863D01*
X88696225Y-128840328D01*
X88267000Y-128840328D01*
X88142518Y-128852588D01*
X88022820Y-128888898D01*
X87985000Y-128909114D01*
X87985000Y-125725157D01*
X88492414Y-125217744D01*
X88522363Y-125193165D01*
X88546940Y-125163218D01*
X88546944Y-125163214D01*
X88620460Y-125073634D01*
X88631814Y-125052392D01*
X88647947Y-125022210D01*
X89215000Y-124455157D01*
X89215000Y-124527002D01*
X89373748Y-124527002D01*
X89215000Y-124685750D01*
X89211928Y-125250000D01*
X89224188Y-125374482D01*
X89260498Y-125494180D01*
X89319463Y-125604494D01*
X89398815Y-125701185D01*
X89495506Y-125780537D01*
X89605820Y-125839502D01*
X89725518Y-125875812D01*
X89850000Y-125888072D01*
X90414250Y-125885000D01*
X90573000Y-125726250D01*
X90573000Y-124527000D01*
X90827000Y-124527000D01*
X90827000Y-125726250D01*
X90985750Y-125885000D01*
X91550000Y-125888072D01*
X91674482Y-125875812D01*
X91794180Y-125839502D01*
X91904494Y-125780537D01*
X92001185Y-125701185D01*
X92080537Y-125604494D01*
X92139502Y-125494180D01*
X92175812Y-125374482D01*
X92188072Y-125250000D01*
X92185000Y-124685750D01*
X92026250Y-124527000D01*
X90827000Y-124527000D01*
X90573000Y-124527000D01*
X90553000Y-124527000D01*
X90553000Y-124273000D01*
X90573000Y-124273000D01*
X90573000Y-124253000D01*
X90827000Y-124253000D01*
X90827000Y-124273000D01*
X92026250Y-124273000D01*
X92185000Y-124114250D01*
X92188072Y-123550000D01*
X92175812Y-123425518D01*
X92139502Y-123305820D01*
X92080537Y-123195506D01*
X92001185Y-123098815D01*
X91904494Y-123019463D01*
X91794180Y-122960498D01*
X91721620Y-122938487D01*
X91853475Y-122806632D01*
X92015990Y-122563411D01*
X92127932Y-122293158D01*
X92185000Y-122006260D01*
X92185000Y-121713740D01*
X92127932Y-121426842D01*
X92015990Y-121156589D01*
X91853475Y-120913368D01*
X91646632Y-120706525D01*
X91403411Y-120544010D01*
X91133158Y-120432068D01*
X90846260Y-120375000D01*
X90553740Y-120375000D01*
X90266842Y-120432068D01*
X89996589Y-120544010D01*
X89753368Y-120706525D01*
X89546525Y-120913368D01*
X89384010Y-121156589D01*
X89272068Y-121426842D01*
X89215000Y-121713740D01*
X89215000Y-122006260D01*
X89252924Y-122196918D01*
X87436789Y-124013054D01*
X87406835Y-124037637D01*
X87308737Y-124157169D01*
X87281252Y-124208590D01*
X86672189Y-124817653D01*
X86642236Y-124842236D01*
X86544138Y-124961768D01*
X86471246Y-125098141D01*
X86426359Y-125246114D01*
X86415000Y-125361440D01*
X86415000Y-125361447D01*
X86411203Y-125400000D01*
X86415000Y-125438553D01*
X86415001Y-129861437D01*
X86411203Y-129900000D01*
X86426359Y-130053886D01*
X86471246Y-130201859D01*
X86495248Y-130246764D01*
X86544139Y-130338233D01*
X86564251Y-130362739D01*
X86617655Y-130427812D01*
X86617659Y-130427816D01*
X86642237Y-130457764D01*
X86672185Y-130482342D01*
X87436786Y-131246944D01*
X87436791Y-131246948D01*
X87628928Y-131439085D01*
X87628928Y-131446315D01*
X87582700Y-131492543D01*
X86185000Y-130094843D01*
X86185000Y-129318508D01*
X86225679Y-129268940D01*
X86298274Y-129133125D01*
X86342977Y-128985757D01*
X86358072Y-128832500D01*
X86358072Y-128537500D01*
X86342977Y-128384243D01*
X86305688Y-128261316D01*
X86309502Y-128254180D01*
X86345812Y-128134482D01*
X86358072Y-128010000D01*
X86355000Y-128000750D01*
X86196250Y-127842000D01*
X85929763Y-127842000D01*
X85873125Y-127811726D01*
X85725757Y-127767023D01*
X85572500Y-127751928D01*
X85227500Y-127751928D01*
X85074243Y-127767023D01*
X84926875Y-127811726D01*
X84870237Y-127842000D01*
X84603750Y-127842000D01*
X84545750Y-127900000D01*
X84308148Y-127900000D01*
X84313072Y-127850000D01*
X84313072Y-127420000D01*
X84441928Y-127420000D01*
X84445000Y-127429250D01*
X84603750Y-127588000D01*
X85273000Y-127588000D01*
X85273000Y-126943750D01*
X85527000Y-126943750D01*
X85527000Y-127588000D01*
X86196250Y-127588000D01*
X86355000Y-127429250D01*
X86358072Y-127420000D01*
X86345812Y-127295518D01*
X86309502Y-127175820D01*
X86250537Y-127065506D01*
X86171185Y-126968815D01*
X86074494Y-126889463D01*
X85964180Y-126830498D01*
X85844482Y-126794188D01*
X85720000Y-126781928D01*
X85685750Y-126785000D01*
X85527000Y-126943750D01*
X85273000Y-126943750D01*
X85114250Y-126785000D01*
X85080000Y-126781928D01*
X84955518Y-126794188D01*
X84835820Y-126830498D01*
X84725506Y-126889463D01*
X84628815Y-126968815D01*
X84549463Y-127065506D01*
X84490498Y-127175820D01*
X84454188Y-127295518D01*
X84441928Y-127420000D01*
X84313072Y-127420000D01*
X84313072Y-126850000D01*
X84300812Y-126725518D01*
X84264502Y-126605820D01*
X84205537Y-126495506D01*
X84126185Y-126398815D01*
X84029494Y-126319463D01*
X83919180Y-126260498D01*
X83799482Y-126224188D01*
X83675000Y-126211928D01*
X82675000Y-126211928D01*
X82550518Y-126224188D01*
X82430820Y-126260498D01*
X82320506Y-126319463D01*
X82300000Y-126336292D01*
X82279494Y-126319463D01*
X82169180Y-126260498D01*
X82049482Y-126224188D01*
X81925000Y-126211928D01*
X80925000Y-126211928D01*
X80800518Y-126224188D01*
X80720000Y-126248613D01*
X80720000Y-120344000D01*
X95656150Y-120344000D01*
X95625901Y-120353175D01*
G37*
X95625901Y-120353175D02*
X95363080Y-120478359D01*
X95129731Y-120652412D01*
X94934822Y-120868645D01*
X94785843Y-121118748D01*
X94688519Y-121393109D01*
X94809186Y-121623000D01*
X96003000Y-121623000D01*
X96003000Y-121603000D01*
X96257000Y-121603000D01*
X96257000Y-121623000D01*
X96277000Y-121623000D01*
X96277000Y-121877000D01*
X96257000Y-121877000D01*
X96257000Y-121897000D01*
X96003000Y-121897000D01*
X96003000Y-121877000D01*
X94809186Y-121877000D01*
X94688519Y-122106891D01*
X94785843Y-122381252D01*
X94934822Y-122631355D01*
X95129731Y-122847588D01*
X95363080Y-123021641D01*
X95625901Y-123146825D01*
X95773110Y-123191476D01*
X96002998Y-123070156D01*
X96002998Y-123211498D01*
X95999999Y-123211203D01*
X95961446Y-123215000D01*
X95961439Y-123215000D01*
X95860490Y-123224943D01*
X95846112Y-123226359D01*
X95726942Y-123262509D01*
X95698140Y-123271246D01*
X95561767Y-123344138D01*
X95526013Y-123373481D01*
X95472187Y-123417655D01*
X95472184Y-123417658D01*
X95442236Y-123442236D01*
X95417658Y-123472184D01*
X92072185Y-126817658D01*
X92042237Y-126842236D01*
X92017659Y-126872184D01*
X92017655Y-126872188D01*
X91992395Y-126902968D01*
X91944139Y-126961767D01*
X91915878Y-127014640D01*
X91871246Y-127098141D01*
X91826359Y-127246114D01*
X91811203Y-127400000D01*
X91815001Y-127438563D01*
X91815001Y-128887325D01*
X91806312Y-128882957D01*
X91685740Y-128849662D01*
X91560990Y-128840529D01*
X91547750Y-128843400D01*
X91389000Y-129002150D01*
X91389000Y-129199869D01*
X91361502Y-129109220D01*
X91302537Y-128998906D01*
X91223185Y-128902215D01*
X91126494Y-128822863D01*
X91016180Y-128763898D01*
X90896482Y-128727588D01*
X90772000Y-128715328D01*
X89072000Y-128715328D01*
X88947518Y-128727588D01*
X88827820Y-128763898D01*
X88717506Y-128822863D01*
X88696225Y-128840328D01*
X88267000Y-128840328D01*
X88142518Y-128852588D01*
X88022820Y-128888898D01*
X87985000Y-128909114D01*
X87985000Y-125725157D01*
X88492414Y-125217744D01*
X88522363Y-125193165D01*
X88546940Y-125163218D01*
X88546944Y-125163214D01*
X88620460Y-125073634D01*
X88631814Y-125052392D01*
X88647947Y-125022210D01*
X89215000Y-124455157D01*
X89215000Y-124527002D01*
X89373748Y-124527002D01*
X89215000Y-124685750D01*
X89211928Y-125250000D01*
X89224188Y-125374482D01*
X89260498Y-125494180D01*
X89319463Y-125604494D01*
X89398815Y-125701185D01*
X89495506Y-125780537D01*
X89605820Y-125839502D01*
X89725518Y-125875812D01*
X89850000Y-125888072D01*
X90414250Y-125885000D01*
X90573000Y-125726250D01*
X90573000Y-124527000D01*
X90827000Y-124527000D01*
X90827000Y-125726250D01*
X90985750Y-125885000D01*
X91550000Y-125888072D01*
X91674482Y-125875812D01*
X91794180Y-125839502D01*
X91904494Y-125780537D01*
X92001185Y-125701185D01*
X92080537Y-125604494D01*
X92139502Y-125494180D01*
X92175812Y-125374482D01*
X92188072Y-125250000D01*
X92185000Y-124685750D01*
X92026250Y-124527000D01*
X90827000Y-124527000D01*
X90573000Y-124527000D01*
X90553000Y-124527000D01*
X90553000Y-124273000D01*
X90573000Y-124273000D01*
X90573000Y-124253000D01*
X90827000Y-124253000D01*
X90827000Y-124273000D01*
X92026250Y-124273000D01*
X92185000Y-124114250D01*
X92188072Y-123550000D01*
X92175812Y-123425518D01*
X92139502Y-123305820D01*
X92080537Y-123195506D01*
X92001185Y-123098815D01*
X91904494Y-123019463D01*
X91794180Y-122960498D01*
X91721620Y-122938487D01*
X91853475Y-122806632D01*
X92015990Y-122563411D01*
X92127932Y-122293158D01*
X92185000Y-122006260D01*
X92185000Y-121713740D01*
X92127932Y-121426842D01*
X92015990Y-121156589D01*
X91853475Y-120913368D01*
X91646632Y-120706525D01*
X91403411Y-120544010D01*
X91133158Y-120432068D01*
X90846260Y-120375000D01*
X90553740Y-120375000D01*
X90266842Y-120432068D01*
X89996589Y-120544010D01*
X89753368Y-120706525D01*
X89546525Y-120913368D01*
X89384010Y-121156589D01*
X89272068Y-121426842D01*
X89215000Y-121713740D01*
X89215000Y-122006260D01*
X89252924Y-122196918D01*
X87436789Y-124013054D01*
X87406835Y-124037637D01*
X87308737Y-124157169D01*
X87281252Y-124208590D01*
X86672189Y-124817653D01*
X86642236Y-124842236D01*
X86544138Y-124961768D01*
X86471246Y-125098141D01*
X86426359Y-125246114D01*
X86415000Y-125361440D01*
X86415000Y-125361447D01*
X86411203Y-125400000D01*
X86415000Y-125438553D01*
X86415001Y-129861437D01*
X86411203Y-129900000D01*
X86426359Y-130053886D01*
X86471246Y-130201859D01*
X86495248Y-130246764D01*
X86544139Y-130338233D01*
X86564251Y-130362739D01*
X86617655Y-130427812D01*
X86617659Y-130427816D01*
X86642237Y-130457764D01*
X86672185Y-130482342D01*
X87436786Y-131246944D01*
X87436791Y-131246948D01*
X87628928Y-131439085D01*
X87628928Y-131446315D01*
X87582700Y-131492543D01*
X86185000Y-130094843D01*
X86185000Y-129318508D01*
X86225679Y-129268940D01*
X86298274Y-129133125D01*
X86342977Y-128985757D01*
X86358072Y-128832500D01*
X86358072Y-128537500D01*
X86342977Y-128384243D01*
X86305688Y-128261316D01*
X86309502Y-128254180D01*
X86345812Y-128134482D01*
X86358072Y-128010000D01*
X86355000Y-128000750D01*
X86196250Y-127842000D01*
X85929763Y-127842000D01*
X85873125Y-127811726D01*
X85725757Y-127767023D01*
X85572500Y-127751928D01*
X85227500Y-127751928D01*
X85074243Y-127767023D01*
X84926875Y-127811726D01*
X84870237Y-127842000D01*
X84603750Y-127842000D01*
X84545750Y-127900000D01*
X84308148Y-127900000D01*
X84313072Y-127850000D01*
X84313072Y-127420000D01*
X84441928Y-127420000D01*
X84445000Y-127429250D01*
X84603750Y-127588000D01*
X85273000Y-127588000D01*
X85273000Y-126943750D01*
X85527000Y-126943750D01*
X85527000Y-127588000D01*
X86196250Y-127588000D01*
X86355000Y-127429250D01*
X86358072Y-127420000D01*
X86345812Y-127295518D01*
X86309502Y-127175820D01*
X86250537Y-127065506D01*
X86171185Y-126968815D01*
X86074494Y-126889463D01*
X85964180Y-126830498D01*
X85844482Y-126794188D01*
X85720000Y-126781928D01*
X85685750Y-126785000D01*
X85527000Y-126943750D01*
X85273000Y-126943750D01*
X85114250Y-126785000D01*
X85080000Y-126781928D01*
X84955518Y-126794188D01*
X84835820Y-126830498D01*
X84725506Y-126889463D01*
X84628815Y-126968815D01*
X84549463Y-127065506D01*
X84490498Y-127175820D01*
X84454188Y-127295518D01*
X84441928Y-127420000D01*
X84313072Y-127420000D01*
X84313072Y-126850000D01*
X84300812Y-126725518D01*
X84264502Y-126605820D01*
X84205537Y-126495506D01*
X84126185Y-126398815D01*
X84029494Y-126319463D01*
X83919180Y-126260498D01*
X83799482Y-126224188D01*
X83675000Y-126211928D01*
X82675000Y-126211928D01*
X82550518Y-126224188D01*
X82430820Y-126260498D01*
X82320506Y-126319463D01*
X82300000Y-126336292D01*
X82279494Y-126319463D01*
X82169180Y-126260498D01*
X82049482Y-126224188D01*
X81925000Y-126211928D01*
X80925000Y-126211928D01*
X80800518Y-126224188D01*
X80720000Y-126248613D01*
X80720000Y-120344000D01*
X95656150Y-120344000D01*
X95625901Y-120353175D01*
G36*
X106989830Y-120410225D02*
G01*
X108800000Y-122220395D01*
X110610170Y-120410225D01*
X110569101Y-120344000D01*
X112654896Y-120344000D01*
X112639187Y-120356892D01*
X112625662Y-120360447D01*
X112612337Y-120366939D01*
X112598140Y-120371246D01*
X112542920Y-120400762D01*
X112486653Y-120428177D01*
X112474846Y-120437148D01*
X112461767Y-120444139D01*
X112413355Y-120483870D01*
X112363530Y-120521727D01*
X112328090Y-120561752D01*
X111472185Y-121417658D01*
X111465410Y-121423218D01*
X111426028Y-121295839D01*
X111177018Y-120829976D01*
X110789775Y-120589830D01*
X108979605Y-122400000D01*
X108993748Y-122414143D01*
X108814143Y-122593748D01*
X108800000Y-122579605D01*
X108785858Y-122593748D01*
X108606253Y-122414143D01*
X108620395Y-122400000D01*
X106810225Y-120589830D01*
X106422982Y-120829976D01*
X106162359Y-121323877D01*
X106003099Y-121859133D01*
X105951322Y-122415174D01*
X106009019Y-122970632D01*
X106101981Y-123271311D01*
X106101860Y-123271246D01*
X105953887Y-123226359D01*
X105838561Y-123215000D01*
X105838553Y-123215000D01*
X105800000Y-123211203D01*
X105761447Y-123215000D01*
X104760124Y-123215000D01*
X104844180Y-123189502D01*
X104954494Y-123130537D01*
X105051185Y-123051185D01*
X105130537Y-122954494D01*
X105189502Y-122844180D01*
X105225812Y-122724482D01*
X105238072Y-122600000D01*
X105238072Y-120900000D01*
X105225812Y-120775518D01*
X105189502Y-120655820D01*
X105130537Y-120545506D01*
X105051185Y-120448815D01*
X104954494Y-120369463D01*
X104906857Y-120344000D01*
X107030899Y-120344000D01*
X106989830Y-120410225D01*
G37*
X106989830Y-120410225D02*
X108800000Y-122220395D01*
X110610170Y-120410225D01*
X110569101Y-120344000D01*
X112654896Y-120344000D01*
X112639187Y-120356892D01*
X112625662Y-120360447D01*
X112612337Y-120366939D01*
X112598140Y-120371246D01*
X112542920Y-120400762D01*
X112486653Y-120428177D01*
X112474846Y-120437148D01*
X112461767Y-120444139D01*
X112413355Y-120483870D01*
X112363530Y-120521727D01*
X112328090Y-120561752D01*
X111472185Y-121417658D01*
X111465410Y-121423218D01*
X111426028Y-121295839D01*
X111177018Y-120829976D01*
X110789775Y-120589830D01*
X108979605Y-122400000D01*
X108993748Y-122414143D01*
X108814143Y-122593748D01*
X108800000Y-122579605D01*
X108785858Y-122593748D01*
X108606253Y-122414143D01*
X108620395Y-122400000D01*
X106810225Y-120589830D01*
X106422982Y-120829976D01*
X106162359Y-121323877D01*
X106003099Y-121859133D01*
X105951322Y-122415174D01*
X106009019Y-122970632D01*
X106101981Y-123271311D01*
X106101860Y-123271246D01*
X105953887Y-123226359D01*
X105838561Y-123215000D01*
X105838553Y-123215000D01*
X105800000Y-123211203D01*
X105761447Y-123215000D01*
X104760124Y-123215000D01*
X104844180Y-123189502D01*
X104954494Y-123130537D01*
X105051185Y-123051185D01*
X105130537Y-122954494D01*
X105189502Y-122844180D01*
X105225812Y-122724482D01*
X105238072Y-122600000D01*
X105238072Y-120900000D01*
X105225812Y-120775518D01*
X105189502Y-120655820D01*
X105130537Y-120545506D01*
X105051185Y-120448815D01*
X104954494Y-120369463D01*
X104906857Y-120344000D01*
X107030899Y-120344000D01*
X106989830Y-120410225D01*
G36*
X115703750Y-121958000D02*
G01*
X115970237Y-121958000D01*
X116026875Y-121988274D01*
X116174243Y-122032977D01*
X116327500Y-122048072D01*
X116672500Y-122048072D01*
X116825757Y-122032977D01*
X116973125Y-121988274D01*
X117029763Y-121958000D01*
X117470237Y-121958000D01*
X117526875Y-121988274D01*
X117674243Y-122032977D01*
X117827500Y-122048072D01*
X118147000Y-122048072D01*
X118147000Y-122212000D01*
X118127000Y-122212000D01*
X118127000Y-122232000D01*
X117873000Y-122232000D01*
X117873000Y-122212000D01*
X116627000Y-122212000D01*
X116627000Y-122232000D01*
X116373000Y-122232000D01*
X116373000Y-122212000D01*
X115703750Y-122212000D01*
X115700000Y-122215750D01*
X115696250Y-122212000D01*
X115027000Y-122212000D01*
X115027000Y-122232000D01*
X114773000Y-122232000D01*
X114773000Y-122212000D01*
X114753000Y-122212000D01*
X114753000Y-122048072D01*
X115072500Y-122048072D01*
X115225757Y-122032977D01*
X115373125Y-121988274D01*
X115429763Y-121958000D01*
X115696250Y-121958000D01*
X115700000Y-121954250D01*
X115703750Y-121958000D01*
G37*
X115703750Y-121958000D02*
X115970237Y-121958000D01*
X116026875Y-121988274D01*
X116174243Y-122032977D01*
X116327500Y-122048072D01*
X116672500Y-122048072D01*
X116825757Y-122032977D01*
X116973125Y-121988274D01*
X117029763Y-121958000D01*
X117470237Y-121958000D01*
X117526875Y-121988274D01*
X117674243Y-122032977D01*
X117827500Y-122048072D01*
X118147000Y-122048072D01*
X118147000Y-122212000D01*
X118127000Y-122212000D01*
X118127000Y-122232000D01*
X117873000Y-122232000D01*
X117873000Y-122212000D01*
X116627000Y-122212000D01*
X116627000Y-122232000D01*
X116373000Y-122232000D01*
X116373000Y-122212000D01*
X115703750Y-122212000D01*
X115700000Y-122215750D01*
X115696250Y-122212000D01*
X115027000Y-122212000D01*
X115027000Y-122232000D01*
X114773000Y-122232000D01*
X114773000Y-122212000D01*
X114753000Y-122212000D01*
X114753000Y-122048072D01*
X115072500Y-122048072D01*
X115225757Y-122032977D01*
X115373125Y-121988274D01*
X115429763Y-121958000D01*
X115696250Y-121958000D01*
X115700000Y-121954250D01*
X115703750Y-121958000D01*
G36*
X118836214Y-121957998D02*
G01*
X118796252Y-121957998D01*
X118943050Y-121811200D01*
X118983012Y-121811200D01*
X118836214Y-121957998D01*
G37*
X118836214Y-121957998D02*
X118796252Y-121957998D01*
X118943050Y-121811200D01*
X118983012Y-121811200D01*
X118836214Y-121957998D01*
M02*
