M48
; DRILL file {KiCad 5.1.5-52549c5~84~ubuntu18.04.1} date Fri 22 Nov 2019 10:47:14 AM CET
; FORMAT={-:-/ absolute / inch / decimal}
; #@! TF.CreationDate,2019-11-22T10:47:14+01:00
; #@! TF.GenerationSoftware,Kicad,Pcbnew,5.1.5-52549c5~84~ubuntu18.04.1
; #@! TF.FileFunction,Plated,1,2,PTH
FMAT,2
INCH
T1C0.0118
T2C0.0394
T3C0.0866
%
G90
G05
T1
X3.374Y-5.378
X3.626Y-5.1024
X3.6299Y-5.378
X3.7559Y-5.2165
X3.7677Y-5.0669
X3.7756Y-5.5354
X3.8543Y-5.0118
X3.8976Y-4.9528
X3.9449Y-5.185
X3.9528Y-5.063
X4.0591Y-5.3386
X4.0591Y-5.4528
X4.0669Y-5.0157
X4.0669Y-5.2205
X4.1024Y-4.9509
X4.2283Y-5.3425
X4.3071Y-5.2008
X4.3543Y-5.3465
X4.3583Y-5.0984
X4.5394Y-4.9509
X4.5984Y-5.0236
X4.6024Y-5.1142
X4.6063Y-4.9764
X4.6063Y-5.2323
X4.6417Y-4.9488
X4.6614Y-5.1693
X4.685Y-4.7992
X4.6969Y-4.7323
X4.7205Y-4.7953
X4.752Y-4.874
X4.7874Y-4.8622
X4.8504Y-5.252
X4.8684Y-5.2247
X4.8819Y-5.1929
X4.8976Y-5.1693
X4.9213Y-5.1496
X4.937Y-5.1299
X5.248Y-5.3819
X5.2992Y-5.3465
X5.3465Y-5.3189
X5.3937Y-4.878
X5.3976Y-5.2913
T2
X3.7846Y-4.7933
X3.8846Y-4.7933
X3.9846Y-4.7933
X4.0846Y-4.7933
X3.5709Y-4.7976
X3.5709Y-4.8976
X4.2874Y-5.4921
X4.3874Y-5.4921
X4.4874Y-5.4921
X4.5874Y-5.4921
T3
X4.2835Y-4.8189
X3.2795Y-5.315
T0
M30
