G04 #@! TF.GenerationSoftware,KiCad,Pcbnew,5.1.5-52549c5~84~ubuntu18.04.1*
G04 #@! TF.CreationDate,2019-11-22T10:47:09+01:00*
G04 #@! TF.ProjectId,roboy_sno,726f626f-795f-4736-9e6f-2e6b69636164,rev?*
G04 #@! TF.SameCoordinates,Original*
G04 #@! TF.FileFunction,Legend,Bot*
G04 #@! TF.FilePolarity,Positive*
%FSLAX46Y46*%
G04 Gerber Fmt 4.6, Leading zero omitted, Abs format (unit mm)*
G04 Created by KiCad (PCBNEW 5.1.5-52549c5~84~ubuntu18.04.1) date 2019-11-22 10:47:09*
%MOMM*%
%LPD*%
G04 APERTURE LIST*
%ADD10C,0.250000*%
%ADD11C,0.300000*%
%ADD12C,0.120000*%
G04 APERTURE END LIST*
D10*
X88361904Y-123900000D02*
X88457142Y-123852380D01*
X88600000Y-123852380D01*
X88742857Y-123900000D01*
X88838095Y-123995238D01*
X88885714Y-124090476D01*
X88933333Y-124280952D01*
X88933333Y-124423809D01*
X88885714Y-124614285D01*
X88838095Y-124709523D01*
X88742857Y-124804761D01*
X88600000Y-124852380D01*
X88504761Y-124852380D01*
X88361904Y-124804761D01*
X88314285Y-124757142D01*
X88314285Y-124423809D01*
X88504761Y-124423809D01*
X87885714Y-124852380D02*
X87885714Y-123852380D01*
X87314285Y-124852380D01*
X87314285Y-123852380D01*
X86838095Y-124852380D02*
X86838095Y-123852380D01*
X86600000Y-123852380D01*
X86457142Y-123900000D01*
X86361904Y-123995238D01*
X86314285Y-124090476D01*
X86266666Y-124280952D01*
X86266666Y-124423809D01*
X86314285Y-124614285D01*
X86361904Y-124709523D01*
X86457142Y-124804761D01*
X86600000Y-124852380D01*
X86838095Y-124852380D01*
D11*
X134542857Y-125778571D02*
X134542857Y-124278571D01*
X134042857Y-125350000D01*
X133542857Y-124278571D01*
X133542857Y-125778571D01*
X132971428Y-124278571D02*
X132042857Y-124278571D01*
X132542857Y-124850000D01*
X132328571Y-124850000D01*
X132185714Y-124921428D01*
X132114285Y-124992857D01*
X132042857Y-125135714D01*
X132042857Y-125492857D01*
X132114285Y-125635714D01*
X132185714Y-125707142D01*
X132328571Y-125778571D01*
X132757142Y-125778571D01*
X132900000Y-125707142D01*
X132971428Y-125635714D01*
X131757142Y-125921428D02*
X130614285Y-125921428D01*
X130400000Y-124778571D02*
X130042857Y-125778571D01*
X129685714Y-124778571D01*
X128328571Y-125778571D02*
X129185714Y-125778571D01*
X128757142Y-125778571D02*
X128757142Y-124278571D01*
X128900000Y-124492857D01*
X129042857Y-124635714D01*
X129185714Y-124707142D01*
X127685714Y-125635714D02*
X127614285Y-125707142D01*
X127685714Y-125778571D01*
X127757142Y-125707142D01*
X127685714Y-125635714D01*
X127685714Y-125778571D01*
X126185714Y-125778571D02*
X127042857Y-125778571D01*
X126614285Y-125778571D02*
X126614285Y-124278571D01*
X126757142Y-124492857D01*
X126900000Y-124635714D01*
X127042857Y-124707142D01*
D10*
X88090476Y-121052380D02*
X88566666Y-121052380D01*
X88614285Y-121528571D01*
X88566666Y-121480952D01*
X88471428Y-121433333D01*
X88233333Y-121433333D01*
X88138095Y-121480952D01*
X88090476Y-121528571D01*
X88042857Y-121623809D01*
X88042857Y-121861904D01*
X88090476Y-121957142D01*
X88138095Y-122004761D01*
X88233333Y-122052380D01*
X88471428Y-122052380D01*
X88566666Y-122004761D01*
X88614285Y-121957142D01*
X87757142Y-121052380D02*
X87423809Y-122052380D01*
X87090476Y-121052380D01*
D12*
X94800000Y-123080000D02*
X94800000Y-120420000D01*
X102480000Y-123080000D02*
X94800000Y-123080000D01*
X102480000Y-120420000D02*
X94800000Y-120420000D01*
X102480000Y-123080000D02*
X102480000Y-120420000D01*
X103750000Y-123080000D02*
X105080000Y-123080000D01*
X105080000Y-123080000D02*
X105080000Y-121750000D01*
M02*
