M48
; DRILL file {KiCad 5.1.5-52549c5~84~ubuntu18.04.1} date Tue 17 Mar 2020 11:23:51 AM CET
; FORMAT={-:-/ absolute / inch / decimal}
; #@! TF.CreationDate,2020-03-17T11:23:51+01:00
; #@! TF.GenerationSoftware,Kicad,Pcbnew,5.1.5-52549c5~84~ubuntu18.04.1
; #@! TF.FileFunction,NonPlated,1,2,NPTH
FMAT,2
INCH
T1C0.0177
T2C0.0591
T3C0.1260
%
G90
G05
T1
X7.941Y-3.8543
X7.9772Y-3.8543
X8.0134Y-3.8543
X8.0496Y-3.8543
X8.0858Y-3.8543
X8.122Y-3.8543
X8.8622Y-3.1772
X8.8622Y-3.2134
X8.8622Y-3.2496
X8.8622Y-3.2858
X8.8622Y-3.322
X8.8622Y-3.3582
X1.8228Y-3.1772
X1.8228Y-3.2134
X1.8228Y-3.2496
X1.8228Y-3.2858
X1.8228Y-3.322
X1.8228Y-3.3582
X3.4685Y-2.193
X3.4685Y-2.2292
X3.4685Y-2.2654
X3.4685Y-2.3016
X3.4685Y-2.3378
X3.4685Y-2.374
X1.4961Y-5.748
X1.5276Y-5.748
X1.5591Y-5.748
X1.5906Y-5.748
X1.622Y-5.748
X1.6535Y-5.748
X4.3583Y-4.689
X4.3945Y-4.689
X4.4307Y-4.689
X4.4669Y-4.689
X4.5031Y-4.689
X4.5393Y-4.689
X7.0512Y-3.1772
X7.0512Y-3.2134
X7.0512Y-3.2496
X7.0512Y-3.2858
X7.0512Y-3.322
X7.0512Y-3.3582
X7.941Y-3.7047
X7.9772Y-3.7047
X8.0134Y-3.7047
X8.0496Y-3.7047
X8.0858Y-3.7047
X8.122Y-3.7047
X3.6339Y-2.193
X3.6339Y-2.2292
X3.6339Y-2.2654
X3.6339Y-2.3016
X3.6339Y-2.3378
X3.6339Y-2.374
X9.0551Y-1.811
X9.0866Y-1.811
X9.1181Y-1.811
X9.1496Y-1.811
X9.1811Y-1.811
X9.2126Y-1.811
X7.2165Y-3.1772
X7.2165Y-3.2134
X7.2165Y-3.2496
X7.2165Y-3.2858
X7.2165Y-3.322
X7.2165Y-3.3582
X7.0512Y-4.1615
X7.0512Y-4.1977
X7.0512Y-4.2339
X7.0512Y-4.2701
X7.0512Y-4.3063
X7.0512Y-4.3425
X6.13Y-4.8386
X6.1662Y-4.8386
X6.2024Y-4.8386
X6.2386Y-4.8386
X6.2748Y-4.8386
X6.311Y-4.8386
X2.5473Y-5.6732
X2.5835Y-5.6732
X2.6197Y-5.6732
X2.6559Y-5.6732
X2.6921Y-5.6732
X2.7283Y-5.6732
X2.5473Y-4.8386
X2.5835Y-4.8386
X2.6197Y-4.8386
X2.6559Y-4.8386
X2.6921Y-4.8386
X2.7283Y-4.8386
X7.2165Y-4.1615
X7.2165Y-4.1977
X7.2165Y-4.2339
X7.2165Y-4.2701
X7.2165Y-4.3063
X7.2165Y-4.3425
X3.4685Y-3.1772
X3.4685Y-3.2134
X3.4685Y-3.2496
X3.4685Y-3.2858
X3.4685Y-3.322
X3.4685Y-3.3582
X6.13Y-4.689
X6.1662Y-4.689
X6.2024Y-4.689
X6.2386Y-4.689
X6.2748Y-4.689
X6.311Y-4.689
X7.941Y-4.8386
X7.9772Y-4.8386
X8.0134Y-4.8386
X8.0496Y-4.8386
X8.0858Y-4.8386
X8.122Y-4.8386
X5.2795Y-5.1457
X5.2795Y-5.1819
X5.2795Y-5.2181
X5.2795Y-5.2543
X5.2795Y-5.2905
X5.2795Y-5.3267
X2.5473Y-4.689
X2.5835Y-4.689
X2.6197Y-4.689
X2.6559Y-4.689
X2.6921Y-4.689
X2.7283Y-4.689
X6.1694Y-5.6732
X6.2055Y-5.6732
X6.2417Y-5.6732
X6.2779Y-5.6732
X6.3141Y-5.6732
X6.3503Y-5.6732
X2.5473Y-1.8858
X2.5835Y-1.8858
X2.6197Y-1.8858
X2.6559Y-1.8858
X2.6921Y-1.8858
X2.7283Y-1.8858
X8.8622Y-5.1457
X8.8622Y-5.1819
X8.8622Y-5.2181
X8.8622Y-5.2543
X8.8622Y-5.2905
X8.8622Y-5.3267
X3.6339Y-3.1772
X3.6339Y-3.2134
X3.6339Y-3.2496
X3.6339Y-3.2858
X3.6339Y-3.322
X3.6339Y-3.3582
X9.0551Y-5.748
X9.0866Y-5.748
X9.1181Y-5.748
X9.1496Y-5.748
X9.1811Y-5.748
X9.2126Y-5.748
X7.0512Y-5.1457
X7.0512Y-5.1819
X7.0512Y-5.2181
X7.0512Y-5.2543
X7.0512Y-5.2905
X7.0512Y-5.3267
X1.8228Y-4.1615
X1.8228Y-4.1977
X1.8228Y-4.2339
X1.8228Y-4.2701
X1.8228Y-4.3063
X1.8228Y-4.3425
X7.941Y-4.689
X7.9772Y-4.689
X8.0134Y-4.689
X8.0496Y-4.689
X8.0858Y-4.689
X8.122Y-4.689
X4.3583Y-3.8543
X4.3945Y-3.8543
X4.4307Y-3.8543
X4.4669Y-3.8543
X4.5031Y-3.8543
X4.5393Y-3.8543
X1.8228Y-2.193
X1.8228Y-2.2292
X1.8228Y-2.2654
X1.8228Y-2.3016
X1.8228Y-2.3378
X1.8228Y-2.374
X7.2165Y-5.1457
X7.2165Y-5.1819
X7.2165Y-5.2181
X7.2165Y-5.2543
X7.2165Y-5.2905
X7.2165Y-5.3267
X6.13Y-2.8701
X6.1662Y-2.8701
X6.2024Y-2.8701
X6.2386Y-2.8701
X6.2748Y-2.8701
X6.311Y-2.8701
X5.4055Y-5.1457
X5.4055Y-5.1819
X5.4055Y-5.2181
X5.4055Y-5.2543
X5.4055Y-5.2905
X5.4055Y-5.3267
X5.2795Y-4.1615
X5.2795Y-4.1977
X5.2795Y-4.2339
X5.2795Y-4.2701
X5.2795Y-4.3063
X5.2795Y-4.3425
X1.8228Y-5.1457
X1.8228Y-5.1819
X1.8228Y-5.2181
X1.8228Y-5.2543
X1.8228Y-5.2905
X1.8228Y-5.3267
X4.3583Y-3.7047
X4.3945Y-3.7047
X4.4307Y-3.7047
X4.4669Y-3.7047
X4.5031Y-3.7047
X4.5393Y-3.7047
X3.4685Y-4.1615
X3.4685Y-4.1977
X3.4685Y-4.2339
X3.4685Y-4.2701
X3.4685Y-4.3063
X3.4685Y-4.3425
X5.4055Y-4.1615
X5.4055Y-4.1977
X5.4055Y-4.2339
X5.4055Y-4.2701
X5.4055Y-4.3063
X5.4055Y-4.3425
X5.2795Y-3.1772
X5.2795Y-3.2134
X5.2795Y-3.2496
X5.2795Y-3.2858
X5.2795Y-3.322
X5.2795Y-3.3582
X6.1694Y-1.8858
X6.2055Y-1.8858
X6.2417Y-1.8858
X6.2779Y-1.8858
X6.3141Y-1.8858
X6.3503Y-1.8858
X1.4961Y-1.811
X1.5276Y-1.811
X1.5591Y-1.811
X1.5906Y-1.811
X1.622Y-1.811
X1.6535Y-1.811
X2.5473Y-3.8543
X2.5835Y-3.8543
X2.6197Y-3.8543
X2.6559Y-3.8543
X2.6921Y-3.8543
X2.7283Y-3.8543
X5.4055Y-3.1772
X5.4055Y-3.2134
X5.4055Y-3.2496
X5.4055Y-3.2858
X5.4055Y-3.322
X5.4055Y-3.3582
X3.4685Y-5.1457
X3.4685Y-5.1819
X3.4685Y-5.2181
X3.4685Y-5.2543
X3.4685Y-5.2905
X3.4685Y-5.3267
X7.9804Y-5.6732
X8.0166Y-5.6732
X8.0528Y-5.6732
X8.089Y-5.6732
X8.1252Y-5.6732
X8.1614Y-5.6732
X8.8622Y-4.1615
X8.8622Y-4.1977
X8.8622Y-4.2339
X8.8622Y-4.2701
X8.8622Y-4.3063
X8.8622Y-4.3425
X7.9804Y-1.8858
X8.0166Y-1.8858
X8.0528Y-1.8858
X8.089Y-1.8858
X8.1252Y-1.8858
X8.1614Y-1.8858
X3.6339Y-4.1615
X3.6339Y-4.1977
X3.6339Y-4.2339
X3.6339Y-4.2701
X3.6339Y-4.3063
X3.6339Y-4.3425
X2.5473Y-3.7047
X2.5835Y-3.7047
X2.6197Y-3.7047
X2.6559Y-3.7047
X2.6921Y-3.7047
X2.7283Y-3.7047
X4.3583Y-2.8701
X4.3945Y-2.8701
X4.4307Y-2.8701
X4.4669Y-2.8701
X4.5031Y-2.8701
X4.5393Y-2.8701
X6.13Y-2.7205
X6.1662Y-2.7205
X6.2024Y-2.7205
X6.2386Y-2.7205
X6.2748Y-2.7205
X6.311Y-2.7205
X7.941Y-2.8701
X7.9772Y-2.8701
X8.0134Y-2.8701
X8.0496Y-2.8701
X8.0858Y-2.8701
X8.122Y-2.8701
X7.0512Y-2.193
X7.0512Y-2.2292
X7.0512Y-2.2654
X7.0512Y-2.3016
X7.0512Y-2.3378
X7.0512Y-2.374
X4.3583Y-2.7205
X4.3945Y-2.7205
X4.4307Y-2.7205
X4.4669Y-2.7205
X4.5031Y-2.7205
X4.5393Y-2.7205
X2.5473Y-2.8701
X2.5835Y-2.8701
X2.6197Y-2.8701
X2.6559Y-2.8701
X2.6921Y-2.8701
X2.7283Y-2.8701
X7.941Y-2.7205
X7.9772Y-2.7205
X8.0134Y-2.7205
X8.0496Y-2.7205
X8.0858Y-2.7205
X8.122Y-2.7205
X6.13Y-3.8543
X6.1662Y-3.8543
X6.2024Y-3.8543
X6.2386Y-3.8543
X6.2748Y-3.8543
X6.311Y-3.8543
X3.6339Y-5.1457
X3.6339Y-5.1819
X3.6339Y-5.2181
X3.6339Y-5.2543
X3.6339Y-5.2905
X3.6339Y-5.3267
X8.8622Y-2.193
X8.8622Y-2.2292
X8.8622Y-2.2654
X8.8622Y-2.3016
X8.8622Y-2.3378
X8.8622Y-2.374
X5.2795Y-2.193
X5.2795Y-2.2292
X5.2795Y-2.2654
X5.2795Y-2.3016
X5.2795Y-2.3378
X5.2795Y-2.374
X7.2165Y-2.193
X7.2165Y-2.2292
X7.2165Y-2.2654
X7.2165Y-2.3016
X7.2165Y-2.3378
X7.2165Y-2.374
X4.3583Y-5.6732
X4.3945Y-5.6732
X4.4307Y-5.6732
X4.4669Y-5.6732
X4.5031Y-5.6732
X4.5393Y-5.6732
X2.5473Y-2.7205
X2.5835Y-2.7205
X2.6197Y-2.7205
X2.6559Y-2.7205
X2.6921Y-2.7205
X2.7283Y-2.7205
X4.3583Y-1.8858
X4.3945Y-1.8858
X4.4307Y-1.8858
X4.4669Y-1.8858
X4.5031Y-1.8858
X4.5393Y-1.8858
X6.13Y-3.7047
X6.1662Y-3.7047
X6.2024Y-3.7047
X6.2386Y-3.7047
X6.2748Y-3.7047
X6.311Y-3.7047
X5.4055Y-2.193
X5.4055Y-2.2292
X5.4055Y-2.2654
X5.4055Y-2.3016
X5.4055Y-2.3378
X5.4055Y-2.374
X4.3583Y-4.8386
X4.3945Y-4.8386
X4.4307Y-4.8386
X4.4669Y-4.8386
X4.5031Y-4.8386
X4.5393Y-4.8386
T2
X5.5197Y-3.6575
X3.748Y-5.626
X3.748Y-4.6417
X4.7793Y-3.9594
X1.937Y-4.6417
X7.3307Y-2.6732
X2.9683Y-1.9909
X5.5197Y-2.6732
X4.7793Y-4.9437
X7.3307Y-4.6417
X3.748Y-3.6575
X8.362Y-4.9437
X8.362Y-1.9909
X1.937Y-3.6575
X7.3307Y-3.6575
X6.551Y-4.9437
X3.748Y-2.6732
X6.551Y-1.9909
X8.362Y-3.9594
X5.5197Y-5.626
X4.7793Y-1.9909
X1.937Y-5.626
X6.551Y-3.9594
X2.9683Y-2.9752
X7.3307Y-5.626
X6.551Y-2.9752
X8.362Y-2.9752
X4.7793Y-2.9752
X1.937Y-2.6732
X5.5197Y-4.6417
X2.9683Y-4.9437
X2.9683Y-3.9594
T3
X9.0945Y-1.6929
X1.6142Y-5.8661
X1.6142Y-1.6929
X9.0945Y-5.8661
T0
M30
