M48
;DRILL file {KiCad 5.0.2-bee76a0~70~ubuntu18.04.1} date Thu 05 Mar 2020 03:15:45 PM CET
;FORMAT={-:-/ absolute / inch / decimal}
FMAT,2
INCH,TZ
T1C0.0118
T2C0.0315
T3C0.0394
T4C0.0866
%
G90
G05
T1
X4.1339Y-2.4016
X4.1339Y-2.4252
X4.1339Y-3.3858
X4.1339Y-3.4094
X4.1339Y-4.3701
X4.1339Y-4.3937
X4.1339Y-5.3543
X4.1339Y-5.378
X4.1614Y-2.4016
X4.1614Y-2.4252
X4.1614Y-3.3858
X4.1614Y-3.4094
X4.1614Y-4.3701
X4.1614Y-4.3937
X4.1614Y-5.3543
X4.1614Y-5.378
X4.1929Y-2.4252
X4.1929Y-3.4094
X4.1929Y-4.3937
X4.1929Y-5.378
X4.2205Y-2.4252
X4.2205Y-2.5276
X4.2205Y-3.4094
X4.2205Y-3.5118
X4.2205Y-4.3937
X4.2205Y-4.4961
X4.2205Y-5.378
X4.2205Y-5.4803
X4.2323Y-2.5472
X4.2323Y-3.5315
X4.2323Y-4.5157
X4.2323Y-5.5
X4.2441Y-2.5276
X4.2441Y-3.5118
X4.2441Y-4.4961
X4.2441Y-5.4803
X4.2559Y-2.5472
X4.2559Y-3.5315
X4.2559Y-4.5157
X4.2559Y-5.5
X4.2677Y-2.5276
X4.2677Y-3.5118
X4.2677Y-4.4961
X4.2677Y-5.4803
X4.2795Y-2.5472
X4.2795Y-3.5315
X4.2795Y-4.5157
X4.2795Y-5.5
X4.2907Y-2.437
X4.2907Y-3.4213
X4.2907Y-4.4055
X4.2907Y-5.3898
X4.3375Y-2.7402
X4.3375Y-3.7244
X4.3375Y-4.7087
X4.3375Y-5.6929
X4.3465Y-2.6457
X4.3465Y-3.6299
X4.3465Y-4.6142
X4.3465Y-5.5984
X4.4409Y-2.5433
X4.4409Y-3.5276
X4.4409Y-4.5118
X4.4409Y-5.4961
X4.4488Y-2.7402
X4.4488Y-3.7244
X4.4488Y-4.7087
X4.4488Y-5.6929
X4.5472Y-2.7402
X4.5472Y-3.7244
X4.5472Y-4.7087
X4.5472Y-5.6929
X4.5591Y-2.3307
X4.5591Y-3.315
X4.5591Y-4.2992
X4.5591Y-5.2835
X4.5984Y-2.6654
X4.5984Y-3.6496
X4.5984Y-4.6339
X4.5984Y-5.6181
X4.6017Y-2.4618
X4.6017Y-3.4461
X4.6017Y-4.4303
X4.6017Y-5.4146
X4.6293Y-2.7795
X4.6293Y-3.7638
X4.6293Y-4.748
X4.6293Y-5.7323
X4.6732Y-2.752
X4.6732Y-3.7362
X4.6732Y-4.7205
X4.6732Y-5.7047
X4.6772Y-2.5
X4.6772Y-2.563
X4.6772Y-3.4843
X4.6772Y-3.5472
X4.6772Y-4.4685
X4.6772Y-4.5315
X4.6772Y-5.4528
X4.6772Y-5.5157
X4.6969Y-2.3346
X4.6969Y-3.3189
X4.6969Y-4.3031
X4.6969Y-5.2874
X4.7382Y-2.2018
X4.7382Y-3.186
X4.7382Y-4.1703
X4.7382Y-5.1545
X4.7441Y-2.3425
X4.7441Y-3.3268
X4.7441Y-4.311
X4.7441Y-5.2953
X4.7559Y-2.3622
X4.7559Y-3.3465
X4.7559Y-4.3307
X4.7559Y-5.315
X4.7677Y-2.3425
X4.7677Y-3.3268
X4.7677Y-4.311
X4.7677Y-5.2953
X4.7795Y-2.3622
X4.7795Y-3.3465
X4.7795Y-4.3307
X4.7795Y-5.315
X4.7913Y-2.3425
X4.7913Y-3.3268
X4.7913Y-4.311
X4.7913Y-5.2953
X4.7992Y-2.4567
X4.7992Y-2.874
X4.7992Y-3.4409
X4.7992Y-3.8583
X4.7992Y-4.4252
X4.7992Y-4.8425
X4.7992Y-5.4094
X4.7992Y-5.8268
X4.8031Y-2.3622
X4.8031Y-3.3465
X4.8031Y-4.3307
X4.8031Y-5.315
X4.811Y-2.4764
X4.811Y-2.8937
X4.811Y-3.4606
X4.811Y-3.878
X4.811Y-4.4449
X4.811Y-4.8622
X4.811Y-5.4291
X4.811Y-5.8465
X4.8228Y-2.4567
X4.8228Y-2.874
X4.8228Y-3.4409
X4.8228Y-3.8583
X4.8228Y-4.4252
X4.8228Y-4.8425
X4.8228Y-5.4094
X4.8228Y-5.8268
X4.8307Y-2.2864
X4.8307Y-2.6339
X4.8307Y-3.2707
X4.8307Y-3.6181
X4.8307Y-4.2549
X4.8307Y-4.6024
X4.8307Y-5.2392
X4.8307Y-5.5866
X4.8346Y-2.4764
X4.8346Y-2.8937
X4.8346Y-3.4606
X4.8346Y-3.878
X4.8346Y-4.4449
X4.8346Y-4.8622
X4.8346Y-5.4291
X4.8346Y-5.8465
X4.8465Y-2.4567
X4.8465Y-2.874
X4.8465Y-3.4409
X4.8465Y-3.8583
X4.8465Y-4.4252
X4.8465Y-4.8425
X4.8465Y-5.4094
X4.8465Y-5.8268
X4.8583Y-2.4764
X4.8583Y-2.8937
X4.8583Y-3.4606
X4.8583Y-3.878
X4.8583Y-4.4449
X4.8583Y-4.8622
X4.8583Y-5.4291
X4.8583Y-5.8465
X4.8781Y-2.5671
X4.8781Y-3.5513
X4.8781Y-4.5356
X4.8781Y-5.5199
X5.0827Y-2.2864
X5.0827Y-3.2707
X5.0827Y-4.2549
X5.0827Y-5.2392
X5.3189Y-2.6361
X5.3189Y-3.6204
X5.3189Y-4.6047
X5.3189Y-5.5889
X5.3661Y-2.4803
X5.3661Y-3.4646
X5.3661Y-4.4488
X5.3661Y-5.4331
X5.3701Y-2.6535
X5.3701Y-3.6378
X5.3701Y-4.622
X5.3701Y-5.6063
X5.5Y-2.7165
X5.5Y-3.7008
X5.5Y-4.685
X5.5Y-5.6693
X5.9449Y-2.4016
X5.9449Y-2.4252
X5.9449Y-3.3858
X5.9449Y-3.4094
X5.9449Y-4.3701
X5.9449Y-4.3937
X5.9449Y-5.3543
X5.9449Y-5.378
X5.9724Y-2.4016
X5.9724Y-2.4252
X5.9724Y-3.3858
X5.9724Y-3.4094
X5.9724Y-4.3701
X5.9724Y-4.3937
X5.9724Y-5.3543
X5.9724Y-5.378
X6.0039Y-2.4252
X6.0039Y-3.4094
X6.0039Y-4.3937
X6.0039Y-5.378
X6.0315Y-2.4252
X6.0315Y-2.5276
X6.0315Y-3.4094
X6.0315Y-3.5118
X6.0315Y-4.3937
X6.0315Y-4.4961
X6.0315Y-5.378
X6.0315Y-5.4803
X6.0433Y-2.5472
X6.0433Y-3.5315
X6.0433Y-4.5157
X6.0433Y-5.5
X6.0551Y-2.5276
X6.0551Y-3.5118
X6.0551Y-4.4961
X6.0551Y-5.4803
X6.0669Y-2.5472
X6.0669Y-3.5315
X6.0669Y-4.5157
X6.0669Y-5.5
X6.0787Y-2.5276
X6.0787Y-3.5118
X6.0787Y-4.4961
X6.0787Y-5.4803
X6.0906Y-2.5472
X6.0906Y-3.5315
X6.0906Y-4.5157
X6.0906Y-5.5
X6.1018Y-2.437
X6.1018Y-3.4213
X6.1018Y-4.4055
X6.1018Y-5.3898
X6.1485Y-2.7402
X6.1485Y-3.7244
X6.1485Y-4.7087
X6.1485Y-5.6929
X6.1575Y-2.6457
X6.1575Y-3.6299
X6.1575Y-4.6142
X6.1575Y-5.5984
X6.252Y-2.5433
X6.252Y-3.5276
X6.252Y-4.5118
X6.252Y-5.4961
X6.2598Y-2.7402
X6.2598Y-3.7244
X6.2598Y-4.7087
X6.2598Y-5.6929
X6.3583Y-2.7402
X6.3583Y-3.7244
X6.3583Y-4.7087
X6.3583Y-5.6929
X6.3701Y-2.3307
X6.3701Y-3.315
X6.3701Y-4.2992
X6.3701Y-5.2835
X6.4094Y-2.6654
X6.4094Y-3.6496
X6.4094Y-4.6339
X6.4094Y-5.6181
X6.4128Y-2.4618
X6.4128Y-3.4461
X6.4128Y-4.4303
X6.4128Y-5.4146
X6.4404Y-2.7795
X6.4404Y-3.7638
X6.4404Y-4.748
X6.4404Y-5.7323
X6.4843Y-2.752
X6.4843Y-3.7362
X6.4843Y-4.7205
X6.4843Y-5.7047
X6.4882Y-2.5
X6.4882Y-2.563
X6.4882Y-3.4843
X6.4882Y-3.5472
X6.4882Y-4.4685
X6.4882Y-4.5315
X6.4882Y-5.4528
X6.4882Y-5.5157
X6.5079Y-2.3346
X6.5079Y-3.3189
X6.5079Y-4.3031
X6.5079Y-5.2874
X6.5492Y-2.2018
X6.5492Y-3.186
X6.5492Y-4.1703
X6.5492Y-5.1545
X6.5551Y-2.3425
X6.5551Y-3.3268
X6.5551Y-4.311
X6.5551Y-5.2953
X6.5669Y-2.3622
X6.5669Y-3.3465
X6.5669Y-4.3307
X6.5669Y-5.315
X6.5787Y-2.3425
X6.5787Y-3.3268
X6.5787Y-4.311
X6.5787Y-5.2953
X6.5906Y-2.3622
X6.5906Y-3.3465
X6.5906Y-4.3307
X6.5906Y-5.315
X6.6024Y-2.3425
X6.6024Y-3.3268
X6.6024Y-4.311
X6.6024Y-5.2953
X6.6102Y-2.4567
X6.6102Y-2.874
X6.6102Y-3.4409
X6.6102Y-3.8583
X6.6102Y-4.4252
X6.6102Y-4.8425
X6.6102Y-5.4094
X6.6102Y-5.8268
X6.6142Y-2.3622
X6.6142Y-3.3465
X6.6142Y-4.3307
X6.6142Y-5.315
X6.622Y-2.4764
X6.622Y-2.8937
X6.622Y-3.4606
X6.622Y-3.878
X6.622Y-4.4449
X6.622Y-4.8622
X6.622Y-5.4291
X6.622Y-5.8465
X6.6339Y-2.4567
X6.6339Y-2.874
X6.6339Y-3.4409
X6.6339Y-3.8583
X6.6339Y-4.4252
X6.6339Y-4.8425
X6.6339Y-5.4094
X6.6339Y-5.8268
X6.6417Y-2.2864
X6.6417Y-2.6339
X6.6417Y-3.2707
X6.6417Y-3.6181
X6.6417Y-4.2549
X6.6417Y-4.6024
X6.6417Y-5.2392
X6.6417Y-5.5866
X6.6457Y-2.4764
X6.6457Y-2.8937
X6.6457Y-3.4606
X6.6457Y-3.878
X6.6457Y-4.4449
X6.6457Y-4.8622
X6.6457Y-5.4291
X6.6457Y-5.8465
X6.6575Y-2.4567
X6.6575Y-2.874
X6.6575Y-3.4409
X6.6575Y-3.8583
X6.6575Y-4.4252
X6.6575Y-4.8425
X6.6575Y-5.4094
X6.6575Y-5.8268
X6.6693Y-2.4764
X6.6693Y-2.8937
X6.6693Y-3.4606
X6.6693Y-3.878
X6.6693Y-4.4449
X6.6693Y-4.8622
X6.6693Y-5.4291
X6.6693Y-5.8465
X6.6891Y-2.5671
X6.6891Y-3.5513
X6.6891Y-4.5356
X6.6891Y-5.5199
X6.8937Y-2.2864
X6.8937Y-3.2707
X6.8937Y-4.2549
X6.8937Y-5.2392
X7.1299Y-2.6361
X7.1299Y-3.6204
X7.1299Y-4.6047
X7.1299Y-5.5889
X7.1772Y-2.4803
X7.1772Y-3.4646
X7.1772Y-4.4488
X7.1772Y-5.4331
X7.1811Y-2.6535
X7.1811Y-3.6378
X7.1811Y-4.622
X7.1811Y-5.6063
X7.311Y-2.7165
X7.311Y-3.7008
X7.311Y-4.685
X7.311Y-5.6693
T2
X7.1061Y-2.302
X7.1561Y-2.202
X7.2061Y-2.302
X7.2561Y-2.202
X4.1795Y-2.6083
X4.1795Y-2.7083
X4.1795Y-2.8083
X4.2795Y-2.6583
X4.2795Y-2.7583
X4.2795Y-2.8583
X4.1795Y-4.5768
X4.1795Y-4.6768
X4.1795Y-4.7768
X4.2795Y-4.6268
X4.2795Y-4.7268
X4.2795Y-4.8268
X4.1795Y-5.561
X4.1795Y-5.661
X4.1795Y-5.761
X4.2795Y-5.611
X4.2795Y-5.711
X4.2795Y-5.811
X7.1061Y-4.2705
X7.1561Y-4.1705
X7.2061Y-4.2705
X7.2561Y-4.1705
X5.2951Y-5.2547
X5.3451Y-5.1547
X5.3951Y-5.2547
X5.4451Y-5.1547
X5.2951Y-4.2705
X5.3451Y-4.1705
X5.3951Y-4.2705
X5.4451Y-4.1705
X5.9906Y-3.5925
X5.9906Y-3.6925
X5.9906Y-3.7925
X6.0906Y-3.6425
X6.0906Y-3.7425
X6.0906Y-3.8425
X5.9906Y-5.561
X5.9906Y-5.661
X5.9906Y-5.761
X6.0906Y-5.611
X6.0906Y-5.711
X6.0906Y-5.811
X7.1061Y-5.2547
X7.1561Y-5.1547
X7.2061Y-5.2547
X7.2561Y-5.1547
X7.1061Y-3.2862
X7.1561Y-3.1862
X7.2061Y-3.2862
X7.2561Y-3.1862
X5.2951Y-2.302
X5.3451Y-2.202
X5.3951Y-2.302
X5.4451Y-2.202
X5.9906Y-2.6083
X5.9906Y-2.7083
X5.9906Y-2.8083
X6.0906Y-2.6583
X6.0906Y-2.7583
X6.0906Y-2.8583
X5.2951Y-3.2862
X5.3451Y-3.1862
X5.3951Y-3.2862
X5.4451Y-3.1862
X5.9906Y-4.5768
X5.9906Y-4.6768
X5.9906Y-4.7768
X6.0906Y-4.6268
X6.0906Y-4.7268
X6.0906Y-4.8268
X4.1795Y-3.5925
X4.1795Y-3.6925
X4.1795Y-3.7925
X4.2795Y-3.6425
X4.2795Y-3.7425
X4.2795Y-3.8425
T3
X4.1795Y-3.185
X4.2795Y-3.185
X4.1795Y-5.1535
X4.2795Y-5.1535
X6.437Y-2.2031
X6.437Y-2.3031
X5.9906Y-5.1535
X6.0906Y-5.1535
X6.437Y-5.1559
X6.437Y-5.2559
X4.626Y-4.1717
X4.626Y-4.2717
X4.1795Y-2.2008
X4.2795Y-2.2008
X5.9906Y-4.1693
X6.0906Y-4.1693
X5.9906Y-3.185
X6.0906Y-3.185
X5.9906Y-2.2008
X6.0906Y-2.2008
X4.626Y-2.2031
X4.626Y-2.3031
X4.626Y-3.1874
X4.626Y-3.2874
X6.437Y-4.1717
X6.437Y-4.2717
X4.626Y-5.1559
X4.626Y-5.2559
X4.1795Y-4.1693
X4.2795Y-4.1693
X6.437Y-3.1874
X6.437Y-3.2874
T4
X6.2677Y-5.1811
X4.4567Y-2.2283
X4.4567Y-4.8268
X5.6378Y-5.811
X4.4567Y-2.8583
X6.2677Y-3.8425
X7.4488Y-5.811
X7.4488Y-2.2283
X7.4488Y-3.8425
X4.4567Y-5.811
X4.4567Y-3.8425
X5.6378Y-2.2283
X6.2677Y-4.8268
X7.4488Y-4.1969
X5.6378Y-3.2126
X5.6378Y-4.8268
X6.2677Y-2.2283
X6.2677Y-2.8583
X6.2677Y-5.811
X7.4488Y-2.8583
X5.6378Y-5.1811
X6.2677Y-4.1969
X6.2677Y-3.2126
X4.4567Y-5.1811
X7.4488Y-5.1811
X7.4488Y-4.8268
X7.4488Y-3.2126
X4.4567Y-3.2126
X5.6378Y-3.8425
X5.6378Y-2.8583
X4.4567Y-4.1969
X5.6378Y-4.1969
T0
M30
