M48
;DRILL file {KiCad 5.0.2-bee76a0~70~ubuntu18.04.1} date Thu 12 Mar 2020 04:20:23 PM CET
;FORMAT={-:-/ absolute / inch / decimal}
FMAT,2
INCH,TZ
T1C0.0118
T2C0.0591
T3C0.1260
%
G90
G05
T1
X3.6378Y-4.1791
X3.6378Y-4.1953
X3.6378Y-4.2115
X3.6378Y-4.2277
X3.6378Y-4.2439
X3.6378Y-4.2601
X3.6378Y-4.2762
X3.6378Y-4.2924
X3.6378Y-4.3086
X3.6378Y-4.3248
X3.6378Y-3.1949
X3.6378Y-3.2111
X3.6378Y-3.2273
X3.6378Y-3.2434
X3.6378Y-3.2596
X3.6378Y-3.2758
X3.6378Y-3.292
X3.6378Y-3.3082
X3.6378Y-3.3244
X3.6378Y-3.3406
X7.0866Y-5.1634
X7.0866Y-5.1796
X7.0866Y-5.1958
X7.0866Y-5.2119
X7.0866Y-5.2281
X7.0866Y-5.2443
X7.0866Y-5.2605
X7.0866Y-5.2767
X7.0866Y-5.2929
X7.0866Y-5.3091
X9.0551Y-5.748
X9.0709Y-5.748
X9.0866Y-5.748
X9.1024Y-5.748
X9.1181Y-5.748
X9.1339Y-5.748
X9.1496Y-5.748
X9.1654Y-5.748
X9.1811Y-5.748
X9.1969Y-5.748
X9.2126Y-5.748
X4.376Y-2.7165
X4.3922Y-2.7165
X4.4084Y-2.7165
X4.4245Y-2.7165
X4.4407Y-2.7165
X4.4569Y-2.7165
X4.4731Y-2.7165
X4.4893Y-2.7165
X4.5055Y-2.7165
X4.5217Y-2.7165
X5.4488Y-3.1949
X5.4488Y-3.2111
X5.4488Y-3.2273
X5.4488Y-3.2434
X5.4488Y-3.2596
X5.4488Y-3.2758
X5.4488Y-3.292
X5.4488Y-3.3082
X5.4488Y-3.3244
X5.4488Y-3.3406
X5.2756Y-5.1634
X5.2756Y-5.1796
X5.2756Y-5.1958
X5.2756Y-5.2119
X5.2756Y-5.2281
X5.2756Y-5.2443
X5.2756Y-5.2605
X5.2756Y-5.2767
X5.2756Y-5.2929
X5.2756Y-5.3091
X3.4646Y-2.2106
X3.4646Y-2.2268
X3.4646Y-2.243
X3.4646Y-2.2592
X3.4646Y-2.2754
X3.4646Y-2.2916
X3.4646Y-2.3077
X3.4646Y-2.3239
X3.4646Y-2.3401
X3.4646Y-2.3563
X6.187Y-5.6693
X6.2032Y-5.6693
X6.2194Y-5.6693
X6.2356Y-5.6693
X6.2517Y-5.6693
X6.2679Y-5.6693
X6.2841Y-5.6693
X6.3003Y-5.6693
X6.3165Y-5.6693
X6.3327Y-5.6693
X5.4488Y-2.2106
X5.4488Y-2.2268
X5.4488Y-2.243
X5.4488Y-2.2592
X5.4488Y-2.2754
X5.4488Y-2.2916
X5.4488Y-2.3077
X5.4488Y-2.3239
X5.4488Y-2.3401
X5.4488Y-2.3563
X7.2598Y-4.1791
X7.2598Y-4.1953
X7.2598Y-4.2115
X7.2598Y-4.2277
X7.2598Y-4.2439
X7.2598Y-4.2601
X7.2598Y-4.2762
X7.2598Y-4.2924
X7.2598Y-4.3086
X7.2598Y-4.3248
X5.2756Y-4.1791
X5.2756Y-4.1953
X5.2756Y-4.2115
X5.2756Y-4.2277
X5.2756Y-4.2439
X5.2756Y-4.2601
X5.2756Y-4.2762
X5.2756Y-4.2924
X5.2756Y-4.3086
X5.2756Y-4.3248
X2.565Y-1.8898
X2.5811Y-1.8898
X2.5973Y-1.8898
X2.6135Y-1.8898
X2.6297Y-1.8898
X2.6459Y-1.8898
X2.6621Y-1.8898
X2.6783Y-1.8898
X2.6944Y-1.8898
X2.7106Y-1.8898
X2.565Y-2.874
X2.5811Y-2.874
X2.5973Y-2.874
X2.6135Y-2.874
X2.6297Y-2.874
X2.6459Y-2.874
X2.6621Y-2.874
X2.6783Y-2.874
X2.6944Y-2.874
X2.7106Y-2.874
X3.4646Y-5.1634
X3.4646Y-5.1796
X3.4646Y-5.1958
X3.4646Y-5.2119
X3.4646Y-5.2281
X3.4646Y-5.2443
X3.4646Y-5.2605
X3.4646Y-5.2767
X3.4646Y-5.2929
X3.4646Y-5.3091
X7.2598Y-5.1634
X7.2598Y-5.1796
X7.2598Y-5.1958
X7.2598Y-5.2119
X7.2598Y-5.2281
X7.2598Y-5.2443
X7.2598Y-5.2605
X7.2598Y-5.2767
X7.2598Y-5.2929
X7.2598Y-5.3091
X1.8268Y-3.1949
X1.8268Y-3.2111
X1.8268Y-3.2273
X1.8268Y-3.2434
X1.8268Y-3.2596
X1.8268Y-3.2758
X1.8268Y-3.292
X1.8268Y-3.3082
X1.8268Y-3.3244
X1.8268Y-3.3406
X7.998Y-2.7165
X8.0142Y-2.7165
X8.0304Y-2.7165
X8.0466Y-2.7165
X8.0628Y-2.7165
X8.079Y-2.7165
X8.0951Y-2.7165
X8.1113Y-2.7165
X8.1275Y-2.7165
X8.1437Y-2.7165
X8.8976Y-2.2106
X8.8976Y-2.2268
X8.8976Y-2.243
X8.8976Y-2.2592
X8.8976Y-2.2754
X8.8976Y-2.2916
X8.8976Y-2.3077
X8.8976Y-2.3239
X8.8976Y-2.3401
X8.8976Y-2.3563
X7.0866Y-3.1949
X7.0866Y-3.2111
X7.0866Y-3.2273
X7.0866Y-3.2434
X7.0866Y-3.2596
X7.0866Y-3.2758
X7.0866Y-3.292
X7.0866Y-3.3082
X7.0866Y-3.3244
X7.0866Y-3.3406
X5.4488Y-5.1634
X5.4488Y-5.1796
X5.4488Y-5.1958
X5.4488Y-5.2119
X5.4488Y-5.2281
X5.4488Y-5.2443
X5.4488Y-5.2605
X5.4488Y-5.2767
X5.4488Y-5.2929
X5.4488Y-5.3091
X1.8268Y-2.2106
X1.8268Y-2.2268
X1.8268Y-2.243
X1.8268Y-2.2592
X1.8268Y-2.2754
X1.8268Y-2.2916
X1.8268Y-2.3077
X1.8268Y-2.3239
X1.8268Y-2.3401
X1.8268Y-2.3563
X6.187Y-3.8583
X6.2032Y-3.8583
X6.2194Y-3.8583
X6.2356Y-3.8583
X6.2517Y-3.8583
X6.2679Y-3.8583
X6.2841Y-3.8583
X6.3003Y-3.8583
X6.3165Y-3.8583
X6.3327Y-3.8583
X3.6378Y-5.1634
X3.6378Y-5.1796
X3.6378Y-5.1958
X3.6378Y-5.2119
X3.6378Y-5.2281
X3.6378Y-5.2443
X3.6378Y-5.2605
X3.6378Y-5.2767
X3.6378Y-5.2929
X3.6378Y-5.3091
X7.2598Y-2.2106
X7.2598Y-2.2268
X7.2598Y-2.243
X7.2598Y-2.2592
X7.2598Y-2.2754
X7.2598Y-2.2916
X7.2598Y-2.3077
X7.2598Y-2.3239
X7.2598Y-2.3401
X7.2598Y-2.3563
X1.4961Y-5.748
X1.5118Y-5.748
X1.5276Y-5.748
X1.5433Y-5.748
X1.5591Y-5.748
X1.5748Y-5.748
X1.5906Y-5.748
X1.6063Y-5.748
X1.622Y-5.748
X1.6378Y-5.748
X1.6535Y-5.748
X8.8976Y-5.1634
X8.8976Y-5.1796
X8.8976Y-5.1958
X8.8976Y-5.2119
X8.8976Y-5.2281
X8.8976Y-5.2443
X8.8976Y-5.2605
X8.8976Y-5.2767
X8.8976Y-5.2929
X8.8976Y-5.3091
X7.998Y-5.6693
X8.0142Y-5.6693
X8.0304Y-5.6693
X8.0466Y-5.6693
X8.0628Y-5.6693
X8.079Y-5.6693
X8.0951Y-5.6693
X8.1113Y-5.6693
X8.1275Y-5.6693
X8.1437Y-5.6693
X4.376Y-4.8425
X4.3922Y-4.8425
X4.4084Y-4.8425
X4.4245Y-4.8425
X4.4407Y-4.8425
X4.4569Y-4.8425
X4.4731Y-4.8425
X4.4893Y-4.8425
X4.5055Y-4.8425
X4.5217Y-4.8425
X4.376Y-1.8898
X4.3922Y-1.8898
X4.4084Y-1.8898
X4.4245Y-1.8898
X4.4407Y-1.8898
X4.4569Y-1.8898
X4.4731Y-1.8898
X4.4893Y-1.8898
X4.5055Y-1.8898
X4.5217Y-1.8898
X2.565Y-4.8425
X2.5811Y-4.8425
X2.5973Y-4.8425
X2.6135Y-4.8425
X2.6297Y-4.8425
X2.6459Y-4.8425
X2.6621Y-4.8425
X2.6783Y-4.8425
X2.6944Y-4.8425
X2.7106Y-4.8425
X1.8268Y-5.1634
X1.8268Y-5.1796
X1.8268Y-5.1958
X1.8268Y-5.2119
X1.8268Y-5.2281
X1.8268Y-5.2443
X1.8268Y-5.2605
X1.8268Y-5.2767
X1.8268Y-5.2929
X1.8268Y-5.3091
X9.0551Y-1.811
X9.0709Y-1.811
X9.0866Y-1.811
X9.1024Y-1.811
X9.1181Y-1.811
X9.1339Y-1.811
X9.1496Y-1.811
X9.1654Y-1.811
X9.1811Y-1.811
X9.1969Y-1.811
X9.2126Y-1.811
X5.4488Y-4.1791
X5.4488Y-4.1953
X5.4488Y-4.2115
X5.4488Y-4.2277
X5.4488Y-4.2439
X5.4488Y-4.2601
X5.4488Y-4.2762
X5.4488Y-4.2924
X5.4488Y-4.3086
X5.4488Y-4.3248
X7.998Y-1.8898
X8.0142Y-1.8898
X8.0304Y-1.8898
X8.0466Y-1.8898
X8.0628Y-1.8898
X8.079Y-1.8898
X8.0951Y-1.8898
X8.1113Y-1.8898
X8.1275Y-1.8898
X8.1437Y-1.8898
X6.187Y-2.874
X6.2032Y-2.874
X6.2194Y-2.874
X6.2356Y-2.874
X6.2517Y-2.874
X6.2679Y-2.874
X6.2841Y-2.874
X6.3003Y-2.874
X6.3165Y-2.874
X6.3327Y-2.874
X4.376Y-5.6693
X4.3922Y-5.6693
X4.4084Y-5.6693
X4.4245Y-5.6693
X4.4407Y-5.6693
X4.4569Y-5.6693
X4.4731Y-5.6693
X4.4893Y-5.6693
X4.5055Y-5.6693
X4.5217Y-5.6693
X4.376Y-3.8583
X4.3922Y-3.8583
X4.4084Y-3.8583
X4.4245Y-3.8583
X4.4407Y-3.8583
X4.4569Y-3.8583
X4.4731Y-3.8583
X4.4893Y-3.8583
X4.5055Y-3.8583
X4.5217Y-3.8583
X2.565Y-2.7165
X2.5811Y-2.7165
X2.5973Y-2.7165
X2.6135Y-2.7165
X2.6297Y-2.7165
X2.6459Y-2.7165
X2.6621Y-2.7165
X2.6783Y-2.7165
X2.6944Y-2.7165
X2.7106Y-2.7165
X7.998Y-3.8583
X8.0142Y-3.8583
X8.0304Y-3.8583
X8.0466Y-3.8583
X8.0628Y-3.8583
X8.079Y-3.8583
X8.0951Y-3.8583
X8.1113Y-3.8583
X8.1275Y-3.8583
X8.1437Y-3.8583
X4.376Y-4.685
X4.3922Y-4.685
X4.4084Y-4.685
X4.4245Y-4.685
X4.4407Y-4.685
X4.4569Y-4.685
X4.4731Y-4.685
X4.4893Y-4.685
X4.5055Y-4.685
X4.5217Y-4.685
X7.2598Y-3.1949
X7.2598Y-3.2111
X7.2598Y-3.2273
X7.2598Y-3.2434
X7.2598Y-3.2596
X7.2598Y-3.2758
X7.2598Y-3.292
X7.2598Y-3.3082
X7.2598Y-3.3244
X7.2598Y-3.3406
X5.2756Y-3.1949
X5.2756Y-3.2111
X5.2756Y-3.2273
X5.2756Y-3.2434
X5.2756Y-3.2596
X5.2756Y-3.2758
X5.2756Y-3.292
X5.2756Y-3.3082
X5.2756Y-3.3244
X5.2756Y-3.3406
X6.187Y-4.8425
X6.2032Y-4.8425
X6.2194Y-4.8425
X6.2356Y-4.8425
X6.2517Y-4.8425
X6.2679Y-4.8425
X6.2841Y-4.8425
X6.3003Y-4.8425
X6.3165Y-4.8425
X6.3327Y-4.8425
X8.8976Y-4.1791
X8.8976Y-4.1953
X8.8976Y-4.2115
X8.8976Y-4.2277
X8.8976Y-4.2439
X8.8976Y-4.2601
X8.8976Y-4.2762
X8.8976Y-4.2924
X8.8976Y-4.3086
X8.8976Y-4.3248
X2.565Y-4.685
X2.5811Y-4.685
X2.5973Y-4.685
X2.6135Y-4.685
X2.6297Y-4.685
X2.6459Y-4.685
X2.6621Y-4.685
X2.6783Y-4.685
X2.6944Y-4.685
X2.7106Y-4.685
X6.187Y-2.7165
X6.2032Y-2.7165
X6.2194Y-2.7165
X6.2356Y-2.7165
X6.2517Y-2.7165
X6.2679Y-2.7165
X6.2841Y-2.7165
X6.3003Y-2.7165
X6.3165Y-2.7165
X6.3327Y-2.7165
X3.6378Y-2.2106
X3.6378Y-2.2268
X3.6378Y-2.243
X3.6378Y-2.2592
X3.6378Y-2.2754
X3.6378Y-2.2916
X3.6378Y-2.3077
X3.6378Y-2.3239
X3.6378Y-2.3401
X3.6378Y-2.3563
X1.4961Y-1.811
X1.5118Y-1.811
X1.5276Y-1.811
X1.5433Y-1.811
X1.5591Y-1.811
X1.5748Y-1.811
X1.5906Y-1.811
X1.6063Y-1.811
X1.622Y-1.811
X1.6378Y-1.811
X1.6535Y-1.811
X7.998Y-4.8425
X8.0142Y-4.8425
X8.0304Y-4.8425
X8.0466Y-4.8425
X8.0628Y-4.8425
X8.079Y-4.8425
X8.0951Y-4.8425
X8.1113Y-4.8425
X8.1275Y-4.8425
X8.1437Y-4.8425
X4.376Y-3.7008
X4.3922Y-3.7008
X4.4084Y-3.7008
X4.4245Y-3.7008
X4.4407Y-3.7008
X4.4569Y-3.7008
X4.4731Y-3.7008
X4.4893Y-3.7008
X4.5055Y-3.7008
X4.5217Y-3.7008
X7.0866Y-2.2106
X7.0866Y-2.2268
X7.0866Y-2.243
X7.0866Y-2.2592
X7.0866Y-2.2754
X7.0866Y-2.2916
X7.0866Y-2.3077
X7.0866Y-2.3239
X7.0866Y-2.3401
X7.0866Y-2.3563
X1.8268Y-4.1791
X1.8268Y-4.1953
X1.8268Y-4.2115
X1.8268Y-4.2277
X1.8268Y-4.2439
X1.8268Y-4.2601
X1.8268Y-4.2762
X1.8268Y-4.2924
X1.8268Y-4.3086
X1.8268Y-4.3248
X7.998Y-3.7008
X8.0142Y-3.7008
X8.0304Y-3.7008
X8.0466Y-3.7008
X8.0628Y-3.7008
X8.079Y-3.7008
X8.0951Y-3.7008
X8.1113Y-3.7008
X8.1275Y-3.7008
X8.1437Y-3.7008
X6.187Y-1.8898
X6.2032Y-1.8898
X6.2194Y-1.8898
X6.2356Y-1.8898
X6.2517Y-1.8898
X6.2679Y-1.8898
X6.2841Y-1.8898
X6.3003Y-1.8898
X6.3165Y-1.8898
X6.3327Y-1.8898
X7.998Y-2.874
X8.0142Y-2.874
X8.0304Y-2.874
X8.0466Y-2.874
X8.0628Y-2.874
X8.079Y-2.874
X8.0951Y-2.874
X8.1113Y-2.874
X8.1275Y-2.874
X8.1437Y-2.874
X6.187Y-4.685
X6.2032Y-4.685
X6.2194Y-4.685
X6.2356Y-4.685
X6.2517Y-4.685
X6.2679Y-4.685
X6.2841Y-4.685
X6.3003Y-4.685
X6.3165Y-4.685
X6.3327Y-4.685
X2.565Y-5.6693
X2.5811Y-5.6693
X2.5973Y-5.6693
X2.6135Y-5.6693
X2.6297Y-5.6693
X2.6459Y-5.6693
X2.6621Y-5.6693
X2.6783Y-5.6693
X2.6944Y-5.6693
X2.7106Y-5.6693
X2.565Y-3.8583
X2.5811Y-3.8583
X2.5973Y-3.8583
X2.6135Y-3.8583
X2.6297Y-3.8583
X2.6459Y-3.8583
X2.6621Y-3.8583
X2.6783Y-3.8583
X2.6944Y-3.8583
X2.7106Y-3.8583
X3.4646Y-4.1791
X3.4646Y-4.1953
X3.4646Y-4.2115
X3.4646Y-4.2277
X3.4646Y-4.2439
X3.4646Y-4.2601
X3.4646Y-4.2762
X3.4646Y-4.2924
X3.4646Y-4.3086
X3.4646Y-4.3248
X3.4646Y-3.1949
X3.4646Y-3.2111
X3.4646Y-3.2273
X3.4646Y-3.2434
X3.4646Y-3.2596
X3.4646Y-3.2758
X3.4646Y-3.292
X3.4646Y-3.3082
X3.4646Y-3.3244
X3.4646Y-3.3406
X7.998Y-4.685
X8.0142Y-4.685
X8.0304Y-4.685
X8.0466Y-4.685
X8.0628Y-4.685
X8.079Y-4.685
X8.0951Y-4.685
X8.1113Y-4.685
X8.1275Y-4.685
X8.1437Y-4.685
X4.376Y-2.874
X4.3922Y-2.874
X4.4084Y-2.874
X4.4245Y-2.874
X4.4407Y-2.874
X4.4569Y-2.874
X4.4731Y-2.874
X4.4893Y-2.874
X4.5055Y-2.874
X4.5217Y-2.874
X6.187Y-3.7008
X6.2032Y-3.7008
X6.2194Y-3.7008
X6.2356Y-3.7008
X6.2517Y-3.7008
X6.2679Y-3.7008
X6.2841Y-3.7008
X6.3003Y-3.7008
X6.3165Y-3.7008
X6.3327Y-3.7008
X8.8976Y-3.1949
X8.8976Y-3.2111
X8.8976Y-3.2273
X8.8976Y-3.2434
X8.8976Y-3.2596
X8.8976Y-3.2758
X8.8976Y-3.292
X8.8976Y-3.3082
X8.8976Y-3.3244
X8.8976Y-3.3406
X5.2756Y-2.2106
X5.2756Y-2.2268
X5.2756Y-2.243
X5.2756Y-2.2592
X5.2756Y-2.2754
X5.2756Y-2.2916
X5.2756Y-2.3077
X5.2756Y-2.3239
X5.2756Y-2.3401
X5.2756Y-2.3563
X7.0866Y-4.1791
X7.0866Y-4.1953
X7.0866Y-4.2115
X7.0866Y-4.2277
X7.0866Y-4.2439
X7.0866Y-4.2601
X7.0866Y-4.2762
X7.0866Y-4.2924
X7.0866Y-4.3086
X7.0866Y-4.3248
X2.565Y-3.7008
X2.5811Y-3.7008
X2.5973Y-3.7008
X2.6135Y-3.7008
X2.6297Y-3.7008
X2.6459Y-3.7008
X2.6621Y-3.7008
X2.6783Y-3.7008
X2.6944Y-3.7008
X2.7106Y-3.7008
T2
X4.7793Y-4.9437
X7.3701Y-4.6417
X2.9683Y-1.9909
X2.9683Y-4.9437
X5.5591Y-2.6732
X3.748Y-5.626
X5.5591Y-5.626
X1.937Y-4.6417
X7.3701Y-5.626
X4.7793Y-1.9909
X8.4014Y-3.9594
X8.4014Y-4.9437
X3.748Y-2.6732
X1.937Y-2.6732
X4.7793Y-3.9594
X1.937Y-5.626
X6.5904Y-4.9437
X4.7793Y-2.9752
X8.4014Y-2.9752
X3.748Y-3.6575
X7.3701Y-3.6575
X6.5904Y-1.9909
X2.9683Y-3.9594
X6.5904Y-2.9752
X6.5904Y-3.9594
X3.748Y-4.6417
X7.3701Y-2.6732
X5.5591Y-3.6575
X2.9683Y-2.9752
X1.937Y-3.6575
X8.4014Y-1.9909
X5.5591Y-4.6417
T3
X9.0945Y-5.8661
X9.0945Y-1.6929
X1.6142Y-5.8661
X1.6142Y-1.6929
T0
M30
