G04 #@! TF.GenerationSoftware,KiCad,Pcbnew,5.0.2-bee76a0~70~ubuntu18.04.1*
G04 #@! TF.CreationDate,2020-03-05T15:15:43+01:00*
G04 #@! TF.ProjectId,output.m3_panel,6f757470-7574-42e6-9d33-5f70616e656c,rev?*
G04 #@! TF.SameCoordinates,Original*
G04 #@! TF.FileFunction,Profile,NP*
%FSLAX46Y46*%
G04 Gerber Fmt 4.6, Leading zero omitted, Abs format (unit mm)*
G04 Created by KiCad (PCBNEW 5.0.2-bee76a0~70~ubuntu18.04.1) date Thu 05 Mar 2020 03:15:43 PM CET*
%MOMM*%
%LPD*%
G01*
G04 APERTURE LIST*
%ADD10C,0.150000*%
%ADD11C,0.100000*%
G04 APERTURE END LIST*
D10*
X98000000Y-156000000D02*
X98000000Y-48000000D01*
X198000000Y-156000000D02*
X98000000Y-156000000D01*
X198000000Y-48000000D02*
X198000000Y-156000000D01*
X98000000Y-48000000D02*
X198000000Y-48000000D01*
D11*
X122499995Y-150100000D02*
X104100000Y-150100000D01*
X127499990Y-150100000D02*
X145700000Y-150100000D01*
X122500000Y-154000000D02*
X100000000Y-154000000D01*
X122500000Y-154000000D02*
X122599704Y-153992313D01*
X122499995Y-150100000D02*
X122599699Y-150107687D01*
X122599704Y-153992313D02*
X122698522Y-153976985D01*
X122599699Y-150107687D02*
X122698517Y-150123015D01*
X122698522Y-153976985D02*
X122795869Y-153954107D01*
X122698517Y-150123015D02*
X122795864Y-150145893D01*
X122795869Y-153954107D02*
X122891169Y-153923814D01*
X122795864Y-150145893D02*
X122891164Y-150176186D01*
X122891169Y-153923814D02*
X122983859Y-153886285D01*
X122891164Y-150176186D02*
X122983854Y-150213715D01*
X122983859Y-153886285D02*
X123073390Y-153841742D01*
X122983854Y-150213715D02*
X123073385Y-150258258D01*
X123073390Y-153841742D02*
X123159232Y-153790449D01*
X123073385Y-150258258D02*
X123159227Y-150309551D01*
X123159232Y-153790449D02*
X123240877Y-153732709D01*
X123159227Y-150309551D02*
X123240872Y-150367291D01*
X123240877Y-153732709D02*
X123317842Y-153668864D01*
X123240872Y-150367291D02*
X123317837Y-150431136D01*
X123317842Y-153668864D02*
X123389672Y-153599292D01*
X123317837Y-150431136D02*
X123389667Y-150500708D01*
X123389672Y-153599292D02*
X123455942Y-153524405D01*
X123389667Y-150500708D02*
X123455937Y-150575595D01*
X123455942Y-153524405D02*
X123516260Y-153444646D01*
X123455937Y-150575595D02*
X123516255Y-150655354D01*
X123516260Y-153444646D02*
X123570269Y-153360487D01*
X123516255Y-150655354D02*
X123570264Y-150739513D01*
X123570269Y-153360487D02*
X123617649Y-153272426D01*
X123570264Y-150739513D02*
X123617644Y-150827574D01*
X123617649Y-153272426D02*
X123658120Y-153180984D01*
X123617644Y-150827574D02*
X123658115Y-150919016D01*
X123658120Y-153180984D02*
X123691442Y-153086702D01*
X123658115Y-150919016D02*
X123691437Y-151013298D01*
X123691442Y-153086702D02*
X123717418Y-152990138D01*
X123691437Y-151013298D02*
X123717413Y-151109862D01*
X123717418Y-152990138D02*
X123735895Y-152891863D01*
X123717413Y-151109862D02*
X123735890Y-151208137D01*
X123735895Y-152891863D02*
X123746763Y-152792458D01*
X123735890Y-151208137D02*
X123746758Y-151307542D01*
X123746763Y-152792458D02*
X123749958Y-152692512D01*
X123746758Y-151307542D02*
X123749953Y-151407488D01*
X123749953Y-151407488D02*
X123749958Y-152692512D01*
X127499990Y-150100000D02*
X127400286Y-150107687D01*
X127500088Y-154000000D02*
X127400384Y-153992313D01*
X127400286Y-150107687D02*
X127301468Y-150123015D01*
X127400384Y-153992313D02*
X127301566Y-153976985D01*
X127301468Y-150123015D02*
X127204121Y-150145893D01*
X127301566Y-153976985D02*
X127204219Y-153954107D01*
X127204121Y-150145893D02*
X127108821Y-150176186D01*
X127204219Y-153954107D02*
X127108919Y-153923814D01*
X127108821Y-150176186D02*
X127016131Y-150213715D01*
X127108919Y-153923814D02*
X127016229Y-153886285D01*
X127016131Y-150213715D02*
X126926600Y-150258258D01*
X127016229Y-153886285D02*
X126926698Y-153841742D01*
X126926600Y-150258258D02*
X126840758Y-150309551D01*
X126926698Y-153841742D02*
X126840856Y-153790449D01*
X126840758Y-150309551D02*
X126759113Y-150367291D01*
X126840856Y-153790449D02*
X126759211Y-153732709D01*
X126759113Y-150367291D02*
X126682148Y-150431136D01*
X126759211Y-153732709D02*
X126682246Y-153668864D01*
X126682148Y-150431136D02*
X126610318Y-150500708D01*
X126682246Y-153668864D02*
X126610416Y-153599292D01*
X126610318Y-150500708D02*
X126544048Y-150575595D01*
X126610416Y-153599292D02*
X126544146Y-153524405D01*
X126544048Y-150575595D02*
X126483730Y-150655354D01*
X126544146Y-153524405D02*
X126483828Y-153444646D01*
X126483730Y-150655354D02*
X126429721Y-150739513D01*
X126483828Y-153444646D02*
X126429819Y-153360487D01*
X126429721Y-150739513D02*
X126382341Y-150827574D01*
X126429819Y-153360487D02*
X126382439Y-153272426D01*
X126382341Y-150827574D02*
X126341870Y-150919016D01*
X126382439Y-153272426D02*
X126341968Y-153180984D01*
X126341870Y-150919016D02*
X126308548Y-151013298D01*
X126341968Y-153180984D02*
X126308646Y-153086702D01*
X126308548Y-151013298D02*
X126282572Y-151109862D01*
X126308646Y-153086702D02*
X126282670Y-152990138D01*
X126282572Y-151109862D02*
X126264095Y-151208137D01*
X126282670Y-152990138D02*
X126264193Y-152891863D01*
X126264095Y-151208137D02*
X126253227Y-151307542D01*
X126264193Y-152891863D02*
X126253325Y-152792458D01*
X126253227Y-151307542D02*
X126250032Y-151407488D01*
X126253325Y-152792458D02*
X126250130Y-152692512D01*
X126250032Y-151407488D02*
X126250130Y-152692512D01*
X168499995Y-150100000D02*
X150100000Y-150100000D01*
X173499990Y-150100000D02*
X191700000Y-150100000D01*
X168499952Y-154000000D02*
X127500088Y-154000000D01*
X173500000Y-154000000D02*
X196000000Y-154000000D01*
X168499995Y-150100000D02*
X168599699Y-150107687D01*
X168499952Y-154000000D02*
X168599656Y-153992313D01*
X168599699Y-150107687D02*
X168698517Y-150123015D01*
X168599656Y-153992313D02*
X168698474Y-153976985D01*
X168698517Y-150123015D02*
X168795864Y-150145893D01*
X168698474Y-153976985D02*
X168795821Y-153954107D01*
X168795864Y-150145893D02*
X168891164Y-150176186D01*
X168795821Y-153954107D02*
X168891121Y-153923814D01*
X168891164Y-150176186D02*
X168983854Y-150213715D01*
X168891121Y-153923814D02*
X168983811Y-153886285D01*
X168983854Y-150213715D02*
X169073385Y-150258258D01*
X168983811Y-153886285D02*
X169073342Y-153841742D01*
X169073385Y-150258258D02*
X169159227Y-150309551D01*
X169073342Y-153841742D02*
X169159184Y-153790449D01*
X169159227Y-150309551D02*
X169240872Y-150367291D01*
X169159184Y-153790449D02*
X169240829Y-153732709D01*
X169240872Y-150367291D02*
X169317837Y-150431136D01*
X169240829Y-153732709D02*
X169317794Y-153668864D01*
X169317837Y-150431136D02*
X169389667Y-150500708D01*
X169317794Y-153668864D02*
X169389624Y-153599292D01*
X169389667Y-150500708D02*
X169455937Y-150575595D01*
X169389624Y-153599292D02*
X169455894Y-153524405D01*
X169455937Y-150575595D02*
X169516255Y-150655354D01*
X169455894Y-153524405D02*
X169516212Y-153444646D01*
X169516255Y-150655354D02*
X169570264Y-150739513D01*
X169516212Y-153444646D02*
X169570221Y-153360487D01*
X169570264Y-150739513D02*
X169617644Y-150827574D01*
X169570221Y-153360487D02*
X169617601Y-153272426D01*
X169617644Y-150827574D02*
X169658115Y-150919016D01*
X169617601Y-153272426D02*
X169658072Y-153180984D01*
X169658115Y-150919016D02*
X169691437Y-151013298D01*
X169658072Y-153180984D02*
X169691394Y-153086702D01*
X169691437Y-151013298D02*
X169717413Y-151109862D01*
X169691394Y-153086702D02*
X169717370Y-152990138D01*
X169717413Y-151109862D02*
X169735890Y-151208137D01*
X169717370Y-152990138D02*
X169735847Y-152891863D01*
X169735890Y-151208137D02*
X169746758Y-151307542D01*
X169735847Y-152891863D02*
X169746715Y-152792458D01*
X169746758Y-151307542D02*
X169749953Y-151407488D01*
X169746715Y-152792458D02*
X169749910Y-152692512D01*
X169749953Y-151407488D02*
X169749910Y-152692512D01*
X173499990Y-150100000D02*
X173400286Y-150107687D01*
X173500000Y-154000000D02*
X173400296Y-153992313D01*
X173400286Y-150107687D02*
X173301468Y-150123015D01*
X173400296Y-153992313D02*
X173301478Y-153976985D01*
X173301468Y-150123015D02*
X173204121Y-150145893D01*
X173301478Y-153976985D02*
X173204131Y-153954107D01*
X173204121Y-150145893D02*
X173108821Y-150176186D01*
X173204131Y-153954107D02*
X173108831Y-153923814D01*
X173108821Y-150176186D02*
X173016131Y-150213715D01*
X173108831Y-153923814D02*
X173016141Y-153886285D01*
X173016131Y-150213715D02*
X172926600Y-150258258D01*
X173016141Y-153886285D02*
X172926610Y-153841742D01*
X172926600Y-150258258D02*
X172840758Y-150309551D01*
X172926610Y-153841742D02*
X172840768Y-153790449D01*
X172840758Y-150309551D02*
X172759113Y-150367291D01*
X172840768Y-153790449D02*
X172759123Y-153732709D01*
X172759113Y-150367291D02*
X172682148Y-150431136D01*
X172759123Y-153732709D02*
X172682158Y-153668864D01*
X172682148Y-150431136D02*
X172610318Y-150500708D01*
X172682158Y-153668864D02*
X172610328Y-153599292D01*
X172610318Y-150500708D02*
X172544048Y-150575595D01*
X172610328Y-153599292D02*
X172544058Y-153524405D01*
X172544048Y-150575595D02*
X172483730Y-150655354D01*
X172544058Y-153524405D02*
X172483740Y-153444646D01*
X172483730Y-150655354D02*
X172429721Y-150739513D01*
X172483740Y-153444646D02*
X172429731Y-153360487D01*
X172429721Y-150739513D02*
X172382341Y-150827574D01*
X172429731Y-153360487D02*
X172382351Y-153272426D01*
X172382341Y-150827574D02*
X172341870Y-150919016D01*
X172382351Y-153272426D02*
X172341880Y-153180984D01*
X172341870Y-150919016D02*
X172308548Y-151013298D01*
X172341880Y-153180984D02*
X172308558Y-153086702D01*
X172308548Y-151013298D02*
X172282572Y-151109862D01*
X172308558Y-153086702D02*
X172282582Y-152990138D01*
X172282572Y-151109862D02*
X172264095Y-151208137D01*
X172282582Y-152990138D02*
X172264105Y-152891863D01*
X172264095Y-151208137D02*
X172253227Y-151307542D01*
X172264105Y-152891863D02*
X172253237Y-152792458D01*
X172253227Y-151307542D02*
X172250032Y-151407488D01*
X172253237Y-152792458D02*
X172250042Y-152692512D01*
X172250032Y-151407488D02*
X172250042Y-152692512D01*
X191700000Y-141499998D02*
X191700000Y-150100000D01*
X191700000Y-136500002D02*
X191700000Y-129100000D01*
X196000000Y-141500013D02*
X196000000Y-154000000D01*
X191700000Y-141499998D02*
X191707687Y-141400294D01*
X196000000Y-141500013D02*
X195992313Y-141400309D01*
X191707687Y-141400294D02*
X191723015Y-141301476D01*
X195992313Y-141400309D02*
X195976985Y-141301491D01*
X191723015Y-141301476D02*
X191745893Y-141204129D01*
X195976985Y-141301491D02*
X195954107Y-141204144D01*
X191745893Y-141204129D02*
X191776186Y-141108829D01*
X195954107Y-141204144D02*
X195923814Y-141108844D01*
X191776186Y-141108829D02*
X191813715Y-141016139D01*
X195923814Y-141108844D02*
X195886285Y-141016154D01*
X191813715Y-141016139D02*
X191858258Y-140926608D01*
X195886285Y-141016154D02*
X195841742Y-140926623D01*
X191858258Y-140926608D02*
X191909551Y-140840766D01*
X195841742Y-140926623D02*
X195790449Y-140840781D01*
X191909551Y-140840766D02*
X191967291Y-140759121D01*
X195790449Y-140840781D02*
X195732709Y-140759136D01*
X191967291Y-140759121D02*
X192031136Y-140682156D01*
X195732709Y-140759136D02*
X195668864Y-140682171D01*
X192031136Y-140682156D02*
X192100708Y-140610326D01*
X195668864Y-140682171D02*
X195599292Y-140610341D01*
X192100708Y-140610326D02*
X192175595Y-140544056D01*
X195599292Y-140610341D02*
X195524405Y-140544071D01*
X192175595Y-140544056D02*
X192255354Y-140483738D01*
X195524405Y-140544071D02*
X195444646Y-140483753D01*
X192255354Y-140483738D02*
X192339513Y-140429729D01*
X195444646Y-140483753D02*
X195360487Y-140429744D01*
X192339513Y-140429729D02*
X192427574Y-140382349D01*
X195360487Y-140429744D02*
X195272426Y-140382364D01*
X192427574Y-140382349D02*
X192519016Y-140341878D01*
X195272426Y-140382364D02*
X195180984Y-140341893D01*
X192519016Y-140341878D02*
X192613298Y-140308556D01*
X195180984Y-140341893D02*
X195086702Y-140308571D01*
X192613298Y-140308556D02*
X192709862Y-140282580D01*
X195086702Y-140308571D02*
X194990138Y-140282595D01*
X192709862Y-140282580D02*
X192808137Y-140264103D01*
X194990138Y-140282595D02*
X194891863Y-140264118D01*
X192808137Y-140264103D02*
X192907542Y-140253235D01*
X194891863Y-140264118D02*
X194792458Y-140253250D01*
X192907542Y-140253235D02*
X193007488Y-140250040D01*
X194792458Y-140253250D02*
X194692512Y-140250055D01*
X193007488Y-140250040D02*
X194692512Y-140250055D01*
X191700000Y-136500002D02*
X191707687Y-136599706D01*
X196000000Y-136499990D02*
X195992313Y-136599694D01*
X191707687Y-136599706D02*
X191723015Y-136698524D01*
X195992313Y-136599694D02*
X195976985Y-136698512D01*
X191723015Y-136698524D02*
X191745893Y-136795871D01*
X195976985Y-136698512D02*
X195954107Y-136795859D01*
X191745893Y-136795871D02*
X191776186Y-136891171D01*
X195954107Y-136795859D02*
X195923814Y-136891159D01*
X191776186Y-136891171D02*
X191813715Y-136983861D01*
X195923814Y-136891159D02*
X195886285Y-136983849D01*
X191813715Y-136983861D02*
X191858258Y-137073392D01*
X195886285Y-136983849D02*
X195841742Y-137073380D01*
X191858258Y-137073392D02*
X191909551Y-137159234D01*
X195841742Y-137073380D02*
X195790449Y-137159222D01*
X191909551Y-137159234D02*
X191967291Y-137240879D01*
X195790449Y-137159222D02*
X195732709Y-137240867D01*
X191967291Y-137240879D02*
X192031136Y-137317844D01*
X195732709Y-137240867D02*
X195668864Y-137317832D01*
X192031136Y-137317844D02*
X192100708Y-137389674D01*
X195668864Y-137317832D02*
X195599292Y-137389662D01*
X192100708Y-137389674D02*
X192175595Y-137455944D01*
X195599292Y-137389662D02*
X195524405Y-137455932D01*
X192175595Y-137455944D02*
X192255354Y-137516262D01*
X195524405Y-137455932D02*
X195444646Y-137516250D01*
X192255354Y-137516262D02*
X192339513Y-137570271D01*
X195444646Y-137516250D02*
X195360487Y-137570259D01*
X192339513Y-137570271D02*
X192427574Y-137617651D01*
X195360487Y-137570259D02*
X195272426Y-137617639D01*
X192427574Y-137617651D02*
X192519016Y-137658122D01*
X195272426Y-137617639D02*
X195180984Y-137658110D01*
X192519016Y-137658122D02*
X192613298Y-137691444D01*
X195180984Y-137658110D02*
X195086702Y-137691432D01*
X192613298Y-137691444D02*
X192709862Y-137717420D01*
X195086702Y-137691432D02*
X194990138Y-137717408D01*
X192709862Y-137717420D02*
X192808137Y-137735897D01*
X194990138Y-137717408D02*
X194891863Y-137735885D01*
X192808137Y-137735897D02*
X192907542Y-137746765D01*
X194891863Y-137735885D02*
X194792458Y-137746753D01*
X192907542Y-137746765D02*
X193007488Y-137749960D01*
X194792458Y-137746753D02*
X194692512Y-137749948D01*
X193007488Y-137749960D02*
X194692512Y-137749948D01*
X191700000Y-116499998D02*
X191700000Y-125100000D01*
X191700000Y-111500002D02*
X191700000Y-104100000D01*
X196000000Y-116499975D02*
X196000000Y-136499990D01*
X196000000Y-116499975D02*
X195992313Y-116400271D01*
X191700000Y-116499998D02*
X191707687Y-116400294D01*
X195992313Y-116400271D02*
X195976985Y-116301453D01*
X191707687Y-116400294D02*
X191723015Y-116301476D01*
X195976985Y-116301453D02*
X195954107Y-116204106D01*
X191723015Y-116301476D02*
X191745893Y-116204129D01*
X195954107Y-116204106D02*
X195923814Y-116108806D01*
X191745893Y-116204129D02*
X191776186Y-116108829D01*
X195923814Y-116108806D02*
X195886285Y-116016116D01*
X191776186Y-116108829D02*
X191813715Y-116016139D01*
X195886285Y-116016116D02*
X195841742Y-115926585D01*
X191813715Y-116016139D02*
X191858258Y-115926608D01*
X195841742Y-115926585D02*
X195790449Y-115840743D01*
X191858258Y-115926608D02*
X191909551Y-115840766D01*
X195790449Y-115840743D02*
X195732709Y-115759098D01*
X191909551Y-115840766D02*
X191967291Y-115759121D01*
X195732709Y-115759098D02*
X195668864Y-115682133D01*
X191967291Y-115759121D02*
X192031136Y-115682156D01*
X195668864Y-115682133D02*
X195599292Y-115610303D01*
X192031136Y-115682156D02*
X192100708Y-115610326D01*
X195599292Y-115610303D02*
X195524405Y-115544033D01*
X192100708Y-115610326D02*
X192175595Y-115544056D01*
X195524405Y-115544033D02*
X195444646Y-115483715D01*
X192175595Y-115544056D02*
X192255354Y-115483738D01*
X195444646Y-115483715D02*
X195360487Y-115429706D01*
X192255354Y-115483738D02*
X192339513Y-115429729D01*
X195360487Y-115429706D02*
X195272426Y-115382326D01*
X192339513Y-115429729D02*
X192427574Y-115382349D01*
X195272426Y-115382326D02*
X195180984Y-115341855D01*
X192427574Y-115382349D02*
X192519016Y-115341878D01*
X195180984Y-115341855D02*
X195086702Y-115308533D01*
X192519016Y-115341878D02*
X192613298Y-115308556D01*
X195086702Y-115308533D02*
X194990138Y-115282557D01*
X192613298Y-115308556D02*
X192709862Y-115282580D01*
X194990138Y-115282557D02*
X194891863Y-115264080D01*
X192709862Y-115282580D02*
X192808137Y-115264103D01*
X194891863Y-115264080D02*
X194792458Y-115253212D01*
X192808137Y-115264103D02*
X192907542Y-115253235D01*
X194792458Y-115253212D02*
X194692512Y-115250017D01*
X192907542Y-115253235D02*
X193007488Y-115250040D01*
X193007488Y-115250040D02*
X194692512Y-115250017D01*
X196000000Y-111500000D02*
X195992313Y-111599704D01*
X191700000Y-111500002D02*
X191707687Y-111599706D01*
X195992313Y-111599704D02*
X195976985Y-111698522D01*
X191707687Y-111599706D02*
X191723015Y-111698524D01*
X195976985Y-111698522D02*
X195954107Y-111795869D01*
X191723015Y-111698524D02*
X191745893Y-111795871D01*
X195954107Y-111795869D02*
X195923814Y-111891169D01*
X191745893Y-111795871D02*
X191776186Y-111891171D01*
X195923814Y-111891169D02*
X195886285Y-111983859D01*
X191776186Y-111891171D02*
X191813715Y-111983861D01*
X195886285Y-111983859D02*
X195841742Y-112073390D01*
X191813715Y-111983861D02*
X191858258Y-112073392D01*
X191858258Y-112073392D02*
X191909551Y-112159234D01*
X195841742Y-112073390D02*
X195790449Y-112159232D01*
X191909551Y-112159234D02*
X191967291Y-112240879D01*
X195790449Y-112159232D02*
X195732709Y-112240877D01*
X191967291Y-112240879D02*
X192031136Y-112317844D01*
X195732709Y-112240877D02*
X195668864Y-112317842D01*
X192031136Y-112317844D02*
X192100708Y-112389674D01*
X195668864Y-112317842D02*
X195599292Y-112389672D01*
X192100708Y-112389674D02*
X192175595Y-112455944D01*
X195599292Y-112389672D02*
X195524405Y-112455942D01*
X192175595Y-112455944D02*
X192255354Y-112516262D01*
X195524405Y-112455942D02*
X195444646Y-112516260D01*
X192255354Y-112516262D02*
X192339513Y-112570271D01*
X195444646Y-112516260D02*
X195360487Y-112570269D01*
X192339513Y-112570271D02*
X192427574Y-112617651D01*
X195360487Y-112570269D02*
X195272426Y-112617649D01*
X192427574Y-112617651D02*
X192519016Y-112658122D01*
X195272426Y-112617649D02*
X195180984Y-112658120D01*
X192519016Y-112658122D02*
X192613298Y-112691444D01*
X195180984Y-112658120D02*
X195086702Y-112691442D01*
X192613298Y-112691444D02*
X192709862Y-112717420D01*
X195086702Y-112691442D02*
X194990138Y-112717418D01*
X192709862Y-112717420D02*
X192808137Y-112735897D01*
X194990138Y-112717418D02*
X194891863Y-112735895D01*
X192808137Y-112735897D02*
X192907542Y-112746765D01*
X194891863Y-112735895D02*
X194792458Y-112746763D01*
X192907542Y-112746765D02*
X193007488Y-112749960D01*
X194792458Y-112746763D02*
X194692512Y-112749958D01*
X193007488Y-112749960D02*
X194692512Y-112749958D01*
X191700000Y-91499998D02*
X191700000Y-100100000D01*
X191700000Y-86500002D02*
X191700000Y-79100000D01*
X196000000Y-91499975D02*
X196000000Y-111500000D01*
X196000000Y-91499975D02*
X195992313Y-91400271D01*
X191700000Y-91499998D02*
X191707687Y-91400294D01*
X195992313Y-91400271D02*
X195976985Y-91301453D01*
X191707687Y-91400294D02*
X191723015Y-91301476D01*
X195976985Y-91301453D02*
X195954107Y-91204106D01*
X191723015Y-91301476D02*
X191745893Y-91204129D01*
X195954107Y-91204106D02*
X195923814Y-91108806D01*
X191745893Y-91204129D02*
X191776186Y-91108829D01*
X195923814Y-91108806D02*
X195886285Y-91016116D01*
X191776186Y-91108829D02*
X191813715Y-91016139D01*
X195886285Y-91016116D02*
X195841742Y-90926585D01*
X191813715Y-91016139D02*
X191858258Y-90926608D01*
X195841742Y-90926585D02*
X195790449Y-90840743D01*
X191858258Y-90926608D02*
X191909551Y-90840766D01*
X195790449Y-90840743D02*
X195732709Y-90759098D01*
X191909551Y-90840766D02*
X191967291Y-90759121D01*
X195732709Y-90759098D02*
X195668864Y-90682133D01*
X191967291Y-90759121D02*
X192031136Y-90682156D01*
X195668864Y-90682133D02*
X195599292Y-90610303D01*
X192031136Y-90682156D02*
X192100708Y-90610326D01*
X195599292Y-90610303D02*
X195524405Y-90544033D01*
X192100708Y-90610326D02*
X192175595Y-90544056D01*
X195524405Y-90544033D02*
X195444646Y-90483715D01*
X192175595Y-90544056D02*
X192255354Y-90483738D01*
X195444646Y-90483715D02*
X195360487Y-90429706D01*
X192255354Y-90483738D02*
X192339513Y-90429729D01*
X195360487Y-90429706D02*
X195272426Y-90382326D01*
X192339513Y-90429729D02*
X192427574Y-90382349D01*
X195272426Y-90382326D02*
X195180984Y-90341855D01*
X192427574Y-90382349D02*
X192519016Y-90341878D01*
X195180984Y-90341855D02*
X195086702Y-90308533D01*
X192519016Y-90341878D02*
X192613298Y-90308556D01*
X195086702Y-90308533D02*
X194990138Y-90282557D01*
X192613298Y-90308556D02*
X192709862Y-90282580D01*
X194990138Y-90282557D02*
X194891863Y-90264080D01*
X192709862Y-90282580D02*
X192808137Y-90264103D01*
X194891863Y-90264080D02*
X194792458Y-90253212D01*
X192808137Y-90264103D02*
X192907542Y-90253235D01*
X194792458Y-90253212D02*
X194692512Y-90250017D01*
X192907542Y-90253235D02*
X193007488Y-90250040D01*
X193007488Y-90250040D02*
X194692512Y-90250017D01*
X196000000Y-86500002D02*
X195992313Y-86599706D01*
X191700000Y-86500002D02*
X191707687Y-86599706D01*
X195992313Y-86599706D02*
X195976985Y-86698524D01*
X191707687Y-86599706D02*
X191723015Y-86698524D01*
X195976985Y-86698524D02*
X195954107Y-86795871D01*
X191723015Y-86698524D02*
X191745893Y-86795871D01*
X195954107Y-86795871D02*
X195923814Y-86891171D01*
X191745893Y-86795871D02*
X191776186Y-86891171D01*
X195923814Y-86891171D02*
X195886285Y-86983861D01*
X191776186Y-86891171D02*
X191813715Y-86983861D01*
X195886285Y-86983861D02*
X195841742Y-87073392D01*
X191813715Y-86983861D02*
X191858258Y-87073392D01*
X195841742Y-87073392D02*
X195790449Y-87159234D01*
X191858258Y-87073392D02*
X191909551Y-87159234D01*
X195790449Y-87159234D02*
X195732709Y-87240879D01*
X191909551Y-87159234D02*
X191967291Y-87240879D01*
X195732709Y-87240879D02*
X195668864Y-87317844D01*
X191967291Y-87240879D02*
X192031136Y-87317844D01*
X195668864Y-87317844D02*
X195599292Y-87389674D01*
X192031136Y-87317844D02*
X192100708Y-87389674D01*
X195599292Y-87389674D02*
X195524405Y-87455944D01*
X192100708Y-87389674D02*
X192175595Y-87455944D01*
X195524405Y-87455944D02*
X195444646Y-87516262D01*
X192175595Y-87455944D02*
X192255354Y-87516262D01*
X195444646Y-87516262D02*
X195360487Y-87570271D01*
X192255354Y-87516262D02*
X192339513Y-87570271D01*
X195360487Y-87570271D02*
X195272426Y-87617651D01*
X192339513Y-87570271D02*
X192427574Y-87617651D01*
X195272426Y-87617651D02*
X195180984Y-87658122D01*
X192427574Y-87617651D02*
X192519016Y-87658122D01*
X195180984Y-87658122D02*
X195086702Y-87691444D01*
X192519016Y-87658122D02*
X192613298Y-87691444D01*
X195086702Y-87691444D02*
X194990138Y-87717420D01*
X192613298Y-87691444D02*
X192709862Y-87717420D01*
X194990138Y-87717420D02*
X194891863Y-87735897D01*
X192709862Y-87717420D02*
X192808137Y-87735897D01*
X194891863Y-87735897D02*
X194792458Y-87746765D01*
X192808137Y-87735897D02*
X192907542Y-87746765D01*
X194792458Y-87746765D02*
X194692512Y-87749960D01*
X192907542Y-87746765D02*
X193007488Y-87749960D01*
X193007488Y-87749960D02*
X194692512Y-87749960D01*
X191700000Y-66499998D02*
X191700000Y-75100000D01*
X191700000Y-61500002D02*
X191700000Y-54100000D01*
X196000000Y-66499975D02*
X196000000Y-86500002D01*
X196000000Y-61499985D02*
X196000000Y-50000000D01*
X196000000Y-66499975D02*
X195992313Y-66400271D01*
X191700000Y-66499998D02*
X191707687Y-66400294D01*
X195992313Y-66400271D02*
X195976985Y-66301453D01*
X191707687Y-66400294D02*
X191723015Y-66301476D01*
X195976985Y-66301453D02*
X195954107Y-66204106D01*
X191723015Y-66301476D02*
X191745893Y-66204129D01*
X195954107Y-66204106D02*
X195923814Y-66108806D01*
X191745893Y-66204129D02*
X191776186Y-66108829D01*
X195923814Y-66108806D02*
X195886285Y-66016116D01*
X191776186Y-66108829D02*
X191813715Y-66016139D01*
X195886285Y-66016116D02*
X195841742Y-65926585D01*
X191813715Y-66016139D02*
X191858258Y-65926608D01*
X195841742Y-65926585D02*
X195790449Y-65840743D01*
X191858258Y-65926608D02*
X191909551Y-65840766D01*
X195790449Y-65840743D02*
X195732709Y-65759098D01*
X191909551Y-65840766D02*
X191967291Y-65759121D01*
X195732709Y-65759098D02*
X195668864Y-65682133D01*
X191967291Y-65759121D02*
X192031136Y-65682156D01*
X195668864Y-65682133D02*
X195599292Y-65610303D01*
X192031136Y-65682156D02*
X192100708Y-65610326D01*
X195599292Y-65610303D02*
X195524405Y-65544033D01*
X192100708Y-65610326D02*
X192175595Y-65544056D01*
X195524405Y-65544033D02*
X195444646Y-65483715D01*
X192175595Y-65544056D02*
X192255354Y-65483738D01*
X195444646Y-65483715D02*
X195360487Y-65429706D01*
X192255354Y-65483738D02*
X192339513Y-65429729D01*
X195360487Y-65429706D02*
X195272426Y-65382326D01*
X192339513Y-65429729D02*
X192427574Y-65382349D01*
X195272426Y-65382326D02*
X195180984Y-65341855D01*
X192427574Y-65382349D02*
X192519016Y-65341878D01*
X195180984Y-65341855D02*
X195086702Y-65308533D01*
X192519016Y-65341878D02*
X192613298Y-65308556D01*
X195086702Y-65308533D02*
X194990138Y-65282557D01*
X192613298Y-65308556D02*
X192709862Y-65282580D01*
X194990138Y-65282557D02*
X194891863Y-65264080D01*
X192709862Y-65282580D02*
X192808137Y-65264103D01*
X194891863Y-65264080D02*
X194792458Y-65253212D01*
X192808137Y-65264103D02*
X192907542Y-65253235D01*
X194792458Y-65253212D02*
X194692512Y-65250017D01*
X192907542Y-65253235D02*
X193007488Y-65250040D01*
X193007488Y-65250040D02*
X194692512Y-65250017D01*
X191700000Y-61500002D02*
X191707687Y-61599706D01*
X196000000Y-61499985D02*
X195992313Y-61599689D01*
X191707687Y-61599706D02*
X191723015Y-61698524D01*
X195992313Y-61599689D02*
X195976985Y-61698507D01*
X191723015Y-61698524D02*
X191745893Y-61795871D01*
X195976985Y-61698507D02*
X195954107Y-61795854D01*
X191745893Y-61795871D02*
X191776186Y-61891171D01*
X195954107Y-61795854D02*
X195923814Y-61891154D01*
X191776186Y-61891171D02*
X191813715Y-61983861D01*
X195923814Y-61891154D02*
X195886285Y-61983844D01*
X191813715Y-61983861D02*
X191858258Y-62073392D01*
X195886285Y-61983844D02*
X195841742Y-62073375D01*
X191858258Y-62073392D02*
X191909551Y-62159234D01*
X195841742Y-62073375D02*
X195790449Y-62159217D01*
X191909551Y-62159234D02*
X191967291Y-62240879D01*
X195790449Y-62159217D02*
X195732709Y-62240862D01*
X191967291Y-62240879D02*
X192031136Y-62317844D01*
X195732709Y-62240862D02*
X195668864Y-62317827D01*
X192031136Y-62317844D02*
X192100708Y-62389674D01*
X195668864Y-62317827D02*
X195599292Y-62389657D01*
X192100708Y-62389674D02*
X192175595Y-62455944D01*
X195599292Y-62389657D02*
X195524405Y-62455927D01*
X192175595Y-62455944D02*
X192255354Y-62516262D01*
X195524405Y-62455927D02*
X195444646Y-62516245D01*
X192255354Y-62516262D02*
X192339513Y-62570271D01*
X195444646Y-62516245D02*
X195360487Y-62570254D01*
X192339513Y-62570271D02*
X192427574Y-62617651D01*
X195360487Y-62570254D02*
X195272426Y-62617634D01*
X192427574Y-62617651D02*
X192519016Y-62658122D01*
X195272426Y-62617634D02*
X195180984Y-62658105D01*
X192519016Y-62658122D02*
X192613298Y-62691444D01*
X195180984Y-62658105D02*
X195086702Y-62691427D01*
X192613298Y-62691444D02*
X192709862Y-62717420D01*
X195086702Y-62691427D02*
X194990138Y-62717403D01*
X192709862Y-62717420D02*
X192808137Y-62735897D01*
X194990138Y-62717403D02*
X194891863Y-62735880D01*
X192808137Y-62735897D02*
X192907542Y-62746765D01*
X194891863Y-62735880D02*
X194792458Y-62746748D01*
X192907542Y-62746765D02*
X193007488Y-62749960D01*
X194792458Y-62746748D02*
X194692512Y-62749943D01*
X193007488Y-62749960D02*
X194692512Y-62749943D01*
X173499990Y-129100000D02*
X191700000Y-129100000D01*
X168499995Y-129100000D02*
X150100000Y-129100000D01*
X168499995Y-125100000D02*
X150100000Y-125100000D01*
X173499990Y-125100000D02*
X191700000Y-125100000D01*
X173499990Y-125100000D02*
X173400286Y-125107687D01*
X173499990Y-129100000D02*
X173400286Y-129092313D01*
X173400286Y-125107687D02*
X173301468Y-125123015D01*
X173400286Y-129092313D02*
X173301468Y-129076985D01*
X173301468Y-125123015D02*
X173204121Y-125145893D01*
X173301468Y-129076985D02*
X173204121Y-129054107D01*
X173204121Y-125145893D02*
X173108821Y-125176186D01*
X173204121Y-129054107D02*
X173108821Y-129023814D01*
X173108821Y-125176186D02*
X173016131Y-125213715D01*
X173108821Y-129023814D02*
X173016131Y-128986285D01*
X173016131Y-125213715D02*
X172926600Y-125258258D01*
X173016131Y-128986285D02*
X172926600Y-128941742D01*
X172926600Y-125258258D02*
X172840758Y-125309551D01*
X172926600Y-128941742D02*
X172840758Y-128890449D01*
X172840758Y-125309551D02*
X172759113Y-125367291D01*
X172840758Y-128890449D02*
X172759113Y-128832709D01*
X172759113Y-125367291D02*
X172682148Y-125431136D01*
X172759113Y-128832709D02*
X172682148Y-128768864D01*
X172682148Y-125431136D02*
X172610318Y-125500708D01*
X172682148Y-128768864D02*
X172610318Y-128699292D01*
X172610318Y-125500708D02*
X172544048Y-125575595D01*
X172610318Y-128699292D02*
X172544048Y-128624405D01*
X172544048Y-125575595D02*
X172483730Y-125655354D01*
X172544048Y-128624405D02*
X172483730Y-128544646D01*
X172483730Y-125655354D02*
X172429721Y-125739513D01*
X172483730Y-128544646D02*
X172429721Y-128460487D01*
X172429721Y-125739513D02*
X172382341Y-125827574D01*
X172429721Y-128460487D02*
X172382341Y-128372426D01*
X172382341Y-125827574D02*
X172341870Y-125919016D01*
X172382341Y-128372426D02*
X172341870Y-128280984D01*
X172341870Y-125919016D02*
X172308548Y-126013298D01*
X172341870Y-128280984D02*
X172308548Y-128186702D01*
X172308548Y-126013298D02*
X172282572Y-126109862D01*
X172308548Y-128186702D02*
X172282572Y-128090138D01*
X172282572Y-126109862D02*
X172264095Y-126208137D01*
X172282572Y-128090138D02*
X172264095Y-127991863D01*
X172264095Y-126208137D02*
X172253227Y-126307542D01*
X172264095Y-127991863D02*
X172253227Y-127892458D01*
X172253227Y-126307542D02*
X172250032Y-126407488D01*
X172253227Y-127892458D02*
X172250032Y-127792512D01*
X172250032Y-127792512D02*
X172250032Y-126407488D01*
X168499995Y-125100000D02*
X168599699Y-125107687D01*
X168499995Y-129100000D02*
X168599699Y-129092313D01*
X168599699Y-125107687D02*
X168698517Y-125123015D01*
X168599699Y-129092313D02*
X168698517Y-129076985D01*
X168698517Y-125123015D02*
X168795864Y-125145893D01*
X168698517Y-129076985D02*
X168795864Y-129054107D01*
X168795864Y-125145893D02*
X168891164Y-125176186D01*
X168795864Y-129054107D02*
X168891164Y-129023814D01*
X168891164Y-125176186D02*
X168983854Y-125213715D01*
X168891164Y-129023814D02*
X168983854Y-128986285D01*
X168983854Y-125213715D02*
X169073385Y-125258258D01*
X168983854Y-128986285D02*
X169073385Y-128941742D01*
X169073385Y-125258258D02*
X169159227Y-125309551D01*
X169073385Y-128941742D02*
X169159227Y-128890449D01*
X169159227Y-125309551D02*
X169240872Y-125367291D01*
X169159227Y-128890449D02*
X169240872Y-128832709D01*
X169240872Y-125367291D02*
X169317837Y-125431136D01*
X169240872Y-128832709D02*
X169317837Y-128768864D01*
X169317837Y-125431136D02*
X169389667Y-125500708D01*
X169317837Y-128768864D02*
X169389667Y-128699292D01*
X169389667Y-125500708D02*
X169455937Y-125575595D01*
X169389667Y-128699292D02*
X169455937Y-128624405D01*
X169455937Y-125575595D02*
X169516255Y-125655354D01*
X169455937Y-128624405D02*
X169516255Y-128544646D01*
X169516255Y-125655354D02*
X169570264Y-125739513D01*
X169516255Y-128544646D02*
X169570264Y-128460487D01*
X169570264Y-125739513D02*
X169617644Y-125827574D01*
X169570264Y-128460487D02*
X169617644Y-128372426D01*
X169617644Y-125827574D02*
X169658115Y-125919016D01*
X169617644Y-128372426D02*
X169658115Y-128280984D01*
X169658115Y-125919016D02*
X169691437Y-126013298D01*
X169658115Y-128280984D02*
X169691437Y-128186702D01*
X169691437Y-126013298D02*
X169717413Y-126109862D01*
X169691437Y-128186702D02*
X169717413Y-128090138D01*
X169717413Y-126109862D02*
X169735890Y-126208137D01*
X169717413Y-128090138D02*
X169735890Y-127991863D01*
X169735890Y-126208137D02*
X169746758Y-126307542D01*
X169735890Y-127991863D02*
X169746758Y-127892458D01*
X169746758Y-126307542D02*
X169749953Y-126407488D01*
X169746758Y-127892458D02*
X169749953Y-127792512D01*
X169749953Y-127792512D02*
X169749953Y-126407488D01*
X127499990Y-129100000D02*
X145700000Y-129100000D01*
X122499995Y-129100000D02*
X104100000Y-129100000D01*
X122499995Y-125100000D02*
X104100000Y-125100000D01*
X127499990Y-125100000D02*
X145700000Y-125100000D01*
X127499990Y-125100000D02*
X127400286Y-125107687D01*
X127499990Y-129100000D02*
X127400286Y-129092313D01*
X127400286Y-125107687D02*
X127301468Y-125123015D01*
X127400286Y-129092313D02*
X127301468Y-129076985D01*
X127301468Y-125123015D02*
X127204121Y-125145893D01*
X127301468Y-129076985D02*
X127204121Y-129054107D01*
X127204121Y-125145893D02*
X127108821Y-125176186D01*
X127204121Y-129054107D02*
X127108821Y-129023814D01*
X127108821Y-125176186D02*
X127016131Y-125213715D01*
X127108821Y-129023814D02*
X127016131Y-128986285D01*
X127016131Y-125213715D02*
X126926600Y-125258258D01*
X127016131Y-128986285D02*
X126926600Y-128941742D01*
X126926600Y-125258258D02*
X126840758Y-125309551D01*
X126926600Y-128941742D02*
X126840758Y-128890449D01*
X126840758Y-125309551D02*
X126759113Y-125367291D01*
X126840758Y-128890449D02*
X126759113Y-128832709D01*
X126759113Y-125367291D02*
X126682148Y-125431136D01*
X126759113Y-128832709D02*
X126682148Y-128768864D01*
X126682148Y-125431136D02*
X126610318Y-125500708D01*
X126682148Y-128768864D02*
X126610318Y-128699292D01*
X126610318Y-125500708D02*
X126544048Y-125575595D01*
X126610318Y-128699292D02*
X126544048Y-128624405D01*
X126544048Y-125575595D02*
X126483730Y-125655354D01*
X126544048Y-128624405D02*
X126483730Y-128544646D01*
X126483730Y-125655354D02*
X126429721Y-125739513D01*
X126483730Y-128544646D02*
X126429721Y-128460487D01*
X126429721Y-125739513D02*
X126382341Y-125827574D01*
X126429721Y-128460487D02*
X126382341Y-128372426D01*
X126382341Y-125827574D02*
X126341870Y-125919016D01*
X126382341Y-128372426D02*
X126341870Y-128280984D01*
X126341870Y-125919016D02*
X126308548Y-126013298D01*
X126341870Y-128280984D02*
X126308548Y-128186702D01*
X126308548Y-126013298D02*
X126282572Y-126109862D01*
X126308548Y-128186702D02*
X126282572Y-128090138D01*
X126282572Y-126109862D02*
X126264095Y-126208137D01*
X126282572Y-128090138D02*
X126264095Y-127991863D01*
X126264095Y-126208137D02*
X126253227Y-126307542D01*
X126264095Y-127991863D02*
X126253227Y-127892458D01*
X126253227Y-126307542D02*
X126250032Y-126407488D01*
X126253227Y-127892458D02*
X126250032Y-127792512D01*
X126250032Y-127792512D02*
X126250032Y-126407488D01*
X122499995Y-125100000D02*
X122599699Y-125107687D01*
X122499995Y-129100000D02*
X122599699Y-129092313D01*
X122599699Y-125107687D02*
X122698517Y-125123015D01*
X122599699Y-129092313D02*
X122698517Y-129076985D01*
X122698517Y-125123015D02*
X122795864Y-125145893D01*
X122698517Y-129076985D02*
X122795864Y-129054107D01*
X122795864Y-125145893D02*
X122891164Y-125176186D01*
X122795864Y-129054107D02*
X122891164Y-129023814D01*
X122891164Y-125176186D02*
X122983854Y-125213715D01*
X122891164Y-129023814D02*
X122983854Y-128986285D01*
X122983854Y-125213715D02*
X123073385Y-125258258D01*
X122983854Y-128986285D02*
X123073385Y-128941742D01*
X123073385Y-125258258D02*
X123159227Y-125309551D01*
X123073385Y-128941742D02*
X123159227Y-128890449D01*
X123159227Y-125309551D02*
X123240872Y-125367291D01*
X123159227Y-128890449D02*
X123240872Y-128832709D01*
X123240872Y-125367291D02*
X123317837Y-125431136D01*
X123240872Y-128832709D02*
X123317837Y-128768864D01*
X123317837Y-125431136D02*
X123389667Y-125500708D01*
X123317837Y-128768864D02*
X123389667Y-128699292D01*
X123389667Y-125500708D02*
X123455937Y-125575595D01*
X123389667Y-128699292D02*
X123455937Y-128624405D01*
X123455937Y-125575595D02*
X123516255Y-125655354D01*
X123455937Y-128624405D02*
X123516255Y-128544646D01*
X123516255Y-125655354D02*
X123570264Y-125739513D01*
X123516255Y-128544646D02*
X123570264Y-128460487D01*
X123570264Y-125739513D02*
X123617644Y-125827574D01*
X123570264Y-128460487D02*
X123617644Y-128372426D01*
X123617644Y-125827574D02*
X123658115Y-125919016D01*
X123617644Y-128372426D02*
X123658115Y-128280984D01*
X123658115Y-125919016D02*
X123691437Y-126013298D01*
X123658115Y-128280984D02*
X123691437Y-128186702D01*
X123691437Y-126013298D02*
X123717413Y-126109862D01*
X123691437Y-128186702D02*
X123717413Y-128090138D01*
X123717413Y-126109862D02*
X123735890Y-126208137D01*
X123717413Y-128090138D02*
X123735890Y-127991863D01*
X123735890Y-126208137D02*
X123746758Y-126307542D01*
X123735890Y-127991863D02*
X123746758Y-127892458D01*
X123746758Y-126307542D02*
X123749953Y-126407488D01*
X123746758Y-127892458D02*
X123749953Y-127792512D01*
X123749953Y-127792512D02*
X123749953Y-126407488D01*
X173499990Y-104100000D02*
X191700000Y-104100000D01*
X168499995Y-104100000D02*
X150100000Y-104100000D01*
X168499995Y-100100000D02*
X150100000Y-100100000D01*
X173499990Y-100100000D02*
X191700000Y-100100000D01*
X173499990Y-100100000D02*
X173400286Y-100107687D01*
X173499990Y-104100000D02*
X173400286Y-104092313D01*
X173400286Y-100107687D02*
X173301468Y-100123015D01*
X173400286Y-104092313D02*
X173301468Y-104076985D01*
X173301468Y-100123015D02*
X173204121Y-100145893D01*
X173301468Y-104076985D02*
X173204121Y-104054107D01*
X173204121Y-100145893D02*
X173108821Y-100176186D01*
X173204121Y-104054107D02*
X173108821Y-104023814D01*
X173108821Y-100176186D02*
X173016131Y-100213715D01*
X173108821Y-104023814D02*
X173016131Y-103986285D01*
X173016131Y-100213715D02*
X172926600Y-100258258D01*
X173016131Y-103986285D02*
X172926600Y-103941742D01*
X172926600Y-100258258D02*
X172840758Y-100309551D01*
X172926600Y-103941742D02*
X172840758Y-103890449D01*
X172840758Y-100309551D02*
X172759113Y-100367291D01*
X172840758Y-103890449D02*
X172759113Y-103832709D01*
X172759113Y-100367291D02*
X172682148Y-100431136D01*
X172759113Y-103832709D02*
X172682148Y-103768864D01*
X172682148Y-100431136D02*
X172610318Y-100500708D01*
X172682148Y-103768864D02*
X172610318Y-103699292D01*
X172610318Y-100500708D02*
X172544048Y-100575595D01*
X172610318Y-103699292D02*
X172544048Y-103624405D01*
X172544048Y-100575595D02*
X172483730Y-100655354D01*
X172544048Y-103624405D02*
X172483730Y-103544646D01*
X172483730Y-100655354D02*
X172429721Y-100739513D01*
X172483730Y-103544646D02*
X172429721Y-103460487D01*
X172429721Y-100739513D02*
X172382341Y-100827574D01*
X172429721Y-103460487D02*
X172382341Y-103372426D01*
X172382341Y-100827574D02*
X172341870Y-100919016D01*
X172382341Y-103372426D02*
X172341870Y-103280984D01*
X172341870Y-100919016D02*
X172308548Y-101013298D01*
X172341870Y-103280984D02*
X172308548Y-103186702D01*
X172308548Y-101013298D02*
X172282572Y-101109862D01*
X172308548Y-103186702D02*
X172282572Y-103090138D01*
X172282572Y-101109862D02*
X172264095Y-101208137D01*
X172282572Y-103090138D02*
X172264095Y-102991863D01*
X172264095Y-101208137D02*
X172253227Y-101307542D01*
X172264095Y-102991863D02*
X172253227Y-102892458D01*
X172253227Y-101307542D02*
X172250032Y-101407488D01*
X172253227Y-102892458D02*
X172250032Y-102792512D01*
X172250032Y-102792512D02*
X172250032Y-101407488D01*
X168499995Y-100100000D02*
X168599699Y-100107687D01*
X168499995Y-104100000D02*
X168599699Y-104092313D01*
X168599699Y-100107687D02*
X168698517Y-100123015D01*
X168599699Y-104092313D02*
X168698517Y-104076985D01*
X168698517Y-100123015D02*
X168795864Y-100145893D01*
X168698517Y-104076985D02*
X168795864Y-104054107D01*
X168795864Y-100145893D02*
X168891164Y-100176186D01*
X168795864Y-104054107D02*
X168891164Y-104023814D01*
X168891164Y-100176186D02*
X168983854Y-100213715D01*
X168891164Y-104023814D02*
X168983854Y-103986285D01*
X168983854Y-100213715D02*
X169073385Y-100258258D01*
X168983854Y-103986285D02*
X169073385Y-103941742D01*
X169073385Y-100258258D02*
X169159227Y-100309551D01*
X169073385Y-103941742D02*
X169159227Y-103890449D01*
X169159227Y-100309551D02*
X169240872Y-100367291D01*
X169159227Y-103890449D02*
X169240872Y-103832709D01*
X169240872Y-100367291D02*
X169317837Y-100431136D01*
X169240872Y-103832709D02*
X169317837Y-103768864D01*
X169317837Y-100431136D02*
X169389667Y-100500708D01*
X169317837Y-103768864D02*
X169389667Y-103699292D01*
X169389667Y-100500708D02*
X169455937Y-100575595D01*
X169389667Y-103699292D02*
X169455937Y-103624405D01*
X169455937Y-100575595D02*
X169516255Y-100655354D01*
X169455937Y-103624405D02*
X169516255Y-103544646D01*
X169516255Y-100655354D02*
X169570264Y-100739513D01*
X169516255Y-103544646D02*
X169570264Y-103460487D01*
X169570264Y-100739513D02*
X169617644Y-100827574D01*
X169570264Y-103460487D02*
X169617644Y-103372426D01*
X169617644Y-100827574D02*
X169658115Y-100919016D01*
X169617644Y-103372426D02*
X169658115Y-103280984D01*
X169658115Y-100919016D02*
X169691437Y-101013298D01*
X169658115Y-103280984D02*
X169691437Y-103186702D01*
X169691437Y-101013298D02*
X169717413Y-101109862D01*
X169691437Y-103186702D02*
X169717413Y-103090138D01*
X169717413Y-101109862D02*
X169735890Y-101208137D01*
X169717413Y-103090138D02*
X169735890Y-102991863D01*
X169735890Y-101208137D02*
X169746758Y-101307542D01*
X169735890Y-102991863D02*
X169746758Y-102892458D01*
X169746758Y-101307542D02*
X169749953Y-101407488D01*
X169746758Y-102892458D02*
X169749953Y-102792512D01*
X169749953Y-102792512D02*
X169749953Y-101407488D01*
X127499990Y-104100000D02*
X145700000Y-104100000D01*
X122499995Y-104100000D02*
X104100000Y-104100000D01*
X122499995Y-100100000D02*
X104100000Y-100100000D01*
X127499990Y-100100000D02*
X145700000Y-100100000D01*
X127499990Y-100100000D02*
X127400286Y-100107687D01*
X127499990Y-104100000D02*
X127400286Y-104092313D01*
X127400286Y-100107687D02*
X127301468Y-100123015D01*
X127400286Y-104092313D02*
X127301468Y-104076985D01*
X127301468Y-100123015D02*
X127204121Y-100145893D01*
X127301468Y-104076985D02*
X127204121Y-104054107D01*
X127204121Y-100145893D02*
X127108821Y-100176186D01*
X127204121Y-104054107D02*
X127108821Y-104023814D01*
X127108821Y-100176186D02*
X127016131Y-100213715D01*
X127108821Y-104023814D02*
X127016131Y-103986285D01*
X127016131Y-100213715D02*
X126926600Y-100258258D01*
X127016131Y-103986285D02*
X126926600Y-103941742D01*
X126926600Y-100258258D02*
X126840758Y-100309551D01*
X126926600Y-103941742D02*
X126840758Y-103890449D01*
X126840758Y-100309551D02*
X126759113Y-100367291D01*
X126840758Y-103890449D02*
X126759113Y-103832709D01*
X126759113Y-100367291D02*
X126682148Y-100431136D01*
X126759113Y-103832709D02*
X126682148Y-103768864D01*
X126682148Y-100431136D02*
X126610318Y-100500708D01*
X126682148Y-103768864D02*
X126610318Y-103699292D01*
X126610318Y-100500708D02*
X126544048Y-100575595D01*
X126610318Y-103699292D02*
X126544048Y-103624405D01*
X126544048Y-100575595D02*
X126483730Y-100655354D01*
X126544048Y-103624405D02*
X126483730Y-103544646D01*
X126483730Y-100655354D02*
X126429721Y-100739513D01*
X126483730Y-103544646D02*
X126429721Y-103460487D01*
X126429721Y-100739513D02*
X126382341Y-100827574D01*
X126429721Y-103460487D02*
X126382341Y-103372426D01*
X126382341Y-100827574D02*
X126341870Y-100919016D01*
X126382341Y-103372426D02*
X126341870Y-103280984D01*
X126341870Y-100919016D02*
X126308548Y-101013298D01*
X126341870Y-103280984D02*
X126308548Y-103186702D01*
X126308548Y-101013298D02*
X126282572Y-101109862D01*
X126308548Y-103186702D02*
X126282572Y-103090138D01*
X126282572Y-101109862D02*
X126264095Y-101208137D01*
X126282572Y-103090138D02*
X126264095Y-102991863D01*
X126264095Y-101208137D02*
X126253227Y-101307542D01*
X126264095Y-102991863D02*
X126253227Y-102892458D01*
X126253227Y-101307542D02*
X126250032Y-101407488D01*
X126253227Y-102892458D02*
X126250032Y-102792512D01*
X126250032Y-102792512D02*
X126250032Y-101407488D01*
X122499995Y-100100000D02*
X122599699Y-100107687D01*
X122499995Y-104100000D02*
X122599699Y-104092313D01*
X122599699Y-100107687D02*
X122698517Y-100123015D01*
X122599699Y-104092313D02*
X122698517Y-104076985D01*
X122698517Y-100123015D02*
X122795864Y-100145893D01*
X122698517Y-104076985D02*
X122795864Y-104054107D01*
X122795864Y-100145893D02*
X122891164Y-100176186D01*
X122795864Y-104054107D02*
X122891164Y-104023814D01*
X122891164Y-100176186D02*
X122983854Y-100213715D01*
X122891164Y-104023814D02*
X122983854Y-103986285D01*
X122983854Y-100213715D02*
X123073385Y-100258258D01*
X122983854Y-103986285D02*
X123073385Y-103941742D01*
X123073385Y-100258258D02*
X123159227Y-100309551D01*
X123073385Y-103941742D02*
X123159227Y-103890449D01*
X123159227Y-100309551D02*
X123240872Y-100367291D01*
X123159227Y-103890449D02*
X123240872Y-103832709D01*
X123240872Y-100367291D02*
X123317837Y-100431136D01*
X123240872Y-103832709D02*
X123317837Y-103768864D01*
X123317837Y-100431136D02*
X123389667Y-100500708D01*
X123317837Y-103768864D02*
X123389667Y-103699292D01*
X123389667Y-100500708D02*
X123455937Y-100575595D01*
X123389667Y-103699292D02*
X123455937Y-103624405D01*
X123455937Y-100575595D02*
X123516255Y-100655354D01*
X123455937Y-103624405D02*
X123516255Y-103544646D01*
X123516255Y-100655354D02*
X123570264Y-100739513D01*
X123516255Y-103544646D02*
X123570264Y-103460487D01*
X123570264Y-100739513D02*
X123617644Y-100827574D01*
X123570264Y-103460487D02*
X123617644Y-103372426D01*
X123617644Y-100827574D02*
X123658115Y-100919016D01*
X123617644Y-103372426D02*
X123658115Y-103280984D01*
X123658115Y-100919016D02*
X123691437Y-101013298D01*
X123658115Y-103280984D02*
X123691437Y-103186702D01*
X123691437Y-101013298D02*
X123717413Y-101109862D01*
X123691437Y-103186702D02*
X123717413Y-103090138D01*
X123717413Y-101109862D02*
X123735890Y-101208137D01*
X123717413Y-103090138D02*
X123735890Y-102991863D01*
X123735890Y-101208137D02*
X123746758Y-101307542D01*
X123735890Y-102991863D02*
X123746758Y-102892458D01*
X123746758Y-101307542D02*
X123749953Y-101407488D01*
X123746758Y-102892458D02*
X123749953Y-102792512D01*
X123749953Y-102792512D02*
X123749953Y-101407488D01*
X173499990Y-79100000D02*
X191700000Y-79100000D01*
X168499995Y-79100000D02*
X150100000Y-79100000D01*
X168499995Y-75100000D02*
X150100000Y-75100000D01*
X173499990Y-75100000D02*
X191700000Y-75100000D01*
X173499990Y-75100000D02*
X173400286Y-75107687D01*
X173499990Y-79100000D02*
X173400286Y-79092313D01*
X173400286Y-75107687D02*
X173301468Y-75123015D01*
X173400286Y-79092313D02*
X173301468Y-79076985D01*
X173301468Y-75123015D02*
X173204121Y-75145893D01*
X173301468Y-79076985D02*
X173204121Y-79054107D01*
X173204121Y-75145893D02*
X173108821Y-75176186D01*
X173204121Y-79054107D02*
X173108821Y-79023814D01*
X173108821Y-75176186D02*
X173016131Y-75213715D01*
X173108821Y-79023814D02*
X173016131Y-78986285D01*
X173016131Y-75213715D02*
X172926600Y-75258258D01*
X173016131Y-78986285D02*
X172926600Y-78941742D01*
X172926600Y-75258258D02*
X172840758Y-75309551D01*
X172926600Y-78941742D02*
X172840758Y-78890449D01*
X172840758Y-75309551D02*
X172759113Y-75367291D01*
X172840758Y-78890449D02*
X172759113Y-78832709D01*
X172759113Y-75367291D02*
X172682148Y-75431136D01*
X172759113Y-78832709D02*
X172682148Y-78768864D01*
X172682148Y-75431136D02*
X172610318Y-75500708D01*
X172682148Y-78768864D02*
X172610318Y-78699292D01*
X172610318Y-75500708D02*
X172544048Y-75575595D01*
X172610318Y-78699292D02*
X172544048Y-78624405D01*
X172544048Y-75575595D02*
X172483730Y-75655354D01*
X172544048Y-78624405D02*
X172483730Y-78544646D01*
X172483730Y-75655354D02*
X172429721Y-75739513D01*
X172483730Y-78544646D02*
X172429721Y-78460487D01*
X172429721Y-75739513D02*
X172382341Y-75827574D01*
X172429721Y-78460487D02*
X172382341Y-78372426D01*
X172382341Y-75827574D02*
X172341870Y-75919016D01*
X172382341Y-78372426D02*
X172341870Y-78280984D01*
X172341870Y-75919016D02*
X172308548Y-76013298D01*
X172341870Y-78280984D02*
X172308548Y-78186702D01*
X172308548Y-76013298D02*
X172282572Y-76109862D01*
X172308548Y-78186702D02*
X172282572Y-78090138D01*
X172282572Y-76109862D02*
X172264095Y-76208137D01*
X172282572Y-78090138D02*
X172264095Y-77991863D01*
X172264095Y-76208137D02*
X172253227Y-76307542D01*
X172264095Y-77991863D02*
X172253227Y-77892458D01*
X172253227Y-76307542D02*
X172250032Y-76407488D01*
X172253227Y-77892458D02*
X172250032Y-77792512D01*
X172250032Y-77792512D02*
X172250032Y-76407488D01*
X168499995Y-75100000D02*
X168599699Y-75107687D01*
X168499995Y-79100000D02*
X168599699Y-79092313D01*
X168599699Y-75107687D02*
X168698517Y-75123015D01*
X168599699Y-79092313D02*
X168698517Y-79076985D01*
X168698517Y-75123015D02*
X168795864Y-75145893D01*
X168698517Y-79076985D02*
X168795864Y-79054107D01*
X168795864Y-75145893D02*
X168891164Y-75176186D01*
X168795864Y-79054107D02*
X168891164Y-79023814D01*
X168891164Y-75176186D02*
X168983854Y-75213715D01*
X168891164Y-79023814D02*
X168983854Y-78986285D01*
X168983854Y-75213715D02*
X169073385Y-75258258D01*
X168983854Y-78986285D02*
X169073385Y-78941742D01*
X169073385Y-75258258D02*
X169159227Y-75309551D01*
X169073385Y-78941742D02*
X169159227Y-78890449D01*
X169159227Y-75309551D02*
X169240872Y-75367291D01*
X169159227Y-78890449D02*
X169240872Y-78832709D01*
X169240872Y-75367291D02*
X169317837Y-75431136D01*
X169240872Y-78832709D02*
X169317837Y-78768864D01*
X169317837Y-75431136D02*
X169389667Y-75500708D01*
X169317837Y-78768864D02*
X169389667Y-78699292D01*
X169389667Y-75500708D02*
X169455937Y-75575595D01*
X169389667Y-78699292D02*
X169455937Y-78624405D01*
X169455937Y-75575595D02*
X169516255Y-75655354D01*
X169455937Y-78624405D02*
X169516255Y-78544646D01*
X169516255Y-75655354D02*
X169570264Y-75739513D01*
X169516255Y-78544646D02*
X169570264Y-78460487D01*
X169570264Y-75739513D02*
X169617644Y-75827574D01*
X169570264Y-78460487D02*
X169617644Y-78372426D01*
X169617644Y-75827574D02*
X169658115Y-75919016D01*
X169617644Y-78372426D02*
X169658115Y-78280984D01*
X169658115Y-75919016D02*
X169691437Y-76013298D01*
X169658115Y-78280984D02*
X169691437Y-78186702D01*
X169691437Y-76013298D02*
X169717413Y-76109862D01*
X169691437Y-78186702D02*
X169717413Y-78090138D01*
X169717413Y-76109862D02*
X169735890Y-76208137D01*
X169717413Y-78090138D02*
X169735890Y-77991863D01*
X169735890Y-76208137D02*
X169746758Y-76307542D01*
X169735890Y-77991863D02*
X169746758Y-77892458D01*
X169746758Y-76307542D02*
X169749953Y-76407488D01*
X169746758Y-77892458D02*
X169749953Y-77792512D01*
X169749953Y-77792512D02*
X169749953Y-76407488D01*
X127499990Y-79100000D02*
X145700000Y-79100000D01*
X122499995Y-79100000D02*
X104100000Y-79100000D01*
X122499995Y-75100000D02*
X104100000Y-75100000D01*
X127499990Y-75100000D02*
X145700000Y-75100000D01*
X127499990Y-75100000D02*
X127400286Y-75107687D01*
X127499990Y-79100000D02*
X127400286Y-79092313D01*
X127400286Y-75107687D02*
X127301468Y-75123015D01*
X127400286Y-79092313D02*
X127301468Y-79076985D01*
X127301468Y-75123015D02*
X127204121Y-75145893D01*
X127301468Y-79076985D02*
X127204121Y-79054107D01*
X127204121Y-75145893D02*
X127108821Y-75176186D01*
X127204121Y-79054107D02*
X127108821Y-79023814D01*
X127108821Y-75176186D02*
X127016131Y-75213715D01*
X127108821Y-79023814D02*
X127016131Y-78986285D01*
X127016131Y-75213715D02*
X126926600Y-75258258D01*
X127016131Y-78986285D02*
X126926600Y-78941742D01*
X126926600Y-75258258D02*
X126840758Y-75309551D01*
X126926600Y-78941742D02*
X126840758Y-78890449D01*
X126840758Y-75309551D02*
X126759113Y-75367291D01*
X126840758Y-78890449D02*
X126759113Y-78832709D01*
X126759113Y-75367291D02*
X126682148Y-75431136D01*
X126759113Y-78832709D02*
X126682148Y-78768864D01*
X126682148Y-75431136D02*
X126610318Y-75500708D01*
X126682148Y-78768864D02*
X126610318Y-78699292D01*
X126610318Y-75500708D02*
X126544048Y-75575595D01*
X126610318Y-78699292D02*
X126544048Y-78624405D01*
X126544048Y-75575595D02*
X126483730Y-75655354D01*
X126544048Y-78624405D02*
X126483730Y-78544646D01*
X126483730Y-75655354D02*
X126429721Y-75739513D01*
X126483730Y-78544646D02*
X126429721Y-78460487D01*
X126429721Y-75739513D02*
X126382341Y-75827574D01*
X126429721Y-78460487D02*
X126382341Y-78372426D01*
X126382341Y-75827574D02*
X126341870Y-75919016D01*
X126382341Y-78372426D02*
X126341870Y-78280984D01*
X126341870Y-75919016D02*
X126308548Y-76013298D01*
X126341870Y-78280984D02*
X126308548Y-78186702D01*
X126308548Y-76013298D02*
X126282572Y-76109862D01*
X126308548Y-78186702D02*
X126282572Y-78090138D01*
X126282572Y-76109862D02*
X126264095Y-76208137D01*
X126282572Y-78090138D02*
X126264095Y-77991863D01*
X126264095Y-76208137D02*
X126253227Y-76307542D01*
X126264095Y-77991863D02*
X126253227Y-77892458D01*
X126253227Y-76307542D02*
X126250032Y-76407488D01*
X126253227Y-77892458D02*
X126250032Y-77792512D01*
X126250032Y-77792512D02*
X126250032Y-76407488D01*
X122499995Y-75100000D02*
X122599699Y-75107687D01*
X122499995Y-79100000D02*
X122599699Y-79092313D01*
X122599699Y-75107687D02*
X122698517Y-75123015D01*
X122599699Y-79092313D02*
X122698517Y-79076985D01*
X122698517Y-75123015D02*
X122795864Y-75145893D01*
X122698517Y-79076985D02*
X122795864Y-79054107D01*
X122795864Y-75145893D02*
X122891164Y-75176186D01*
X122795864Y-79054107D02*
X122891164Y-79023814D01*
X122891164Y-75176186D02*
X122983854Y-75213715D01*
X122891164Y-79023814D02*
X122983854Y-78986285D01*
X122983854Y-75213715D02*
X123073385Y-75258258D01*
X122983854Y-78986285D02*
X123073385Y-78941742D01*
X123073385Y-75258258D02*
X123159227Y-75309551D01*
X123073385Y-78941742D02*
X123159227Y-78890449D01*
X123159227Y-75309551D02*
X123240872Y-75367291D01*
X123159227Y-78890449D02*
X123240872Y-78832709D01*
X123240872Y-75367291D02*
X123317837Y-75431136D01*
X123240872Y-78832709D02*
X123317837Y-78768864D01*
X123317837Y-75431136D02*
X123389667Y-75500708D01*
X123317837Y-78768864D02*
X123389667Y-78699292D01*
X123389667Y-75500708D02*
X123455937Y-75575595D01*
X123389667Y-78699292D02*
X123455937Y-78624405D01*
X123455937Y-75575595D02*
X123516255Y-75655354D01*
X123455937Y-78624405D02*
X123516255Y-78544646D01*
X123516255Y-75655354D02*
X123570264Y-75739513D01*
X123516255Y-78544646D02*
X123570264Y-78460487D01*
X123570264Y-75739513D02*
X123617644Y-75827574D01*
X123570264Y-78460487D02*
X123617644Y-78372426D01*
X123617644Y-75827574D02*
X123658115Y-75919016D01*
X123617644Y-78372426D02*
X123658115Y-78280984D01*
X123658115Y-75919016D02*
X123691437Y-76013298D01*
X123658115Y-78280984D02*
X123691437Y-78186702D01*
X123691437Y-76013298D02*
X123717413Y-76109862D01*
X123691437Y-78186702D02*
X123717413Y-78090138D01*
X123717413Y-76109862D02*
X123735890Y-76208137D01*
X123717413Y-78090138D02*
X123735890Y-77991863D01*
X123735890Y-76208137D02*
X123746758Y-76307542D01*
X123735890Y-77991863D02*
X123746758Y-77892458D01*
X123746758Y-76307542D02*
X123749953Y-76407488D01*
X123746758Y-77892458D02*
X123749953Y-77792512D01*
X123749953Y-77792512D02*
X123749953Y-76407488D01*
X173499990Y-54100000D02*
X191700000Y-54100000D01*
X168499995Y-54100000D02*
X150100000Y-54100000D01*
X173500000Y-50000000D02*
X196000000Y-50000000D01*
X173499990Y-54100000D02*
X173400286Y-54092313D01*
X173500000Y-50000000D02*
X173400296Y-50007687D01*
X173400286Y-54092313D02*
X173301468Y-54076985D01*
X173400296Y-50007687D02*
X173301478Y-50023015D01*
X173301468Y-54076985D02*
X173204121Y-54054107D01*
X173301478Y-50023015D02*
X173204131Y-50045893D01*
X173204121Y-54054107D02*
X173108821Y-54023814D01*
X173204131Y-50045893D02*
X173108831Y-50076186D01*
X173108821Y-54023814D02*
X173016131Y-53986285D01*
X173108831Y-50076186D02*
X173016141Y-50113715D01*
X173016131Y-53986285D02*
X172926600Y-53941742D01*
X173016141Y-50113715D02*
X172926610Y-50158258D01*
X172926600Y-53941742D02*
X172840758Y-53890449D01*
X172926610Y-50158258D02*
X172840768Y-50209551D01*
X172840758Y-53890449D02*
X172759113Y-53832709D01*
X172840768Y-50209551D02*
X172759123Y-50267291D01*
X172759113Y-53832709D02*
X172682148Y-53768864D01*
X172759123Y-50267291D02*
X172682158Y-50331136D01*
X172682148Y-53768864D02*
X172610318Y-53699292D01*
X172682158Y-50331136D02*
X172610328Y-50400708D01*
X172610318Y-53699292D02*
X172544048Y-53624405D01*
X172610328Y-50400708D02*
X172544058Y-50475595D01*
X172544048Y-53624405D02*
X172483730Y-53544646D01*
X172544058Y-50475595D02*
X172483740Y-50555354D01*
X172483730Y-53544646D02*
X172429721Y-53460487D01*
X172483740Y-50555354D02*
X172429731Y-50639513D01*
X172429721Y-53460487D02*
X172382341Y-53372426D01*
X172429731Y-50639513D02*
X172382351Y-50727574D01*
X172382341Y-53372426D02*
X172341870Y-53280984D01*
X172382351Y-50727574D02*
X172341880Y-50819016D01*
X172341870Y-53280984D02*
X172308548Y-53186702D01*
X172341880Y-50819016D02*
X172308558Y-50913298D01*
X172308548Y-53186702D02*
X172282572Y-53090138D01*
X172308558Y-50913298D02*
X172282582Y-51009862D01*
X172282572Y-53090138D02*
X172264095Y-52991863D01*
X172282582Y-51009862D02*
X172264105Y-51108137D01*
X172264095Y-52991863D02*
X172253227Y-52892458D01*
X172264105Y-51108137D02*
X172253237Y-51207542D01*
X172253227Y-52892458D02*
X172250032Y-52792512D01*
X172253237Y-51207542D02*
X172250042Y-51307488D01*
X172250032Y-52792512D02*
X172250042Y-51307488D01*
X168499995Y-54100000D02*
X168599699Y-54092313D01*
X168499912Y-50000000D02*
X168599616Y-50007687D01*
X168599699Y-54092313D02*
X168698517Y-54076985D01*
X168599616Y-50007687D02*
X168698434Y-50023015D01*
X168698517Y-54076985D02*
X168795864Y-54054107D01*
X168698434Y-50023015D02*
X168795781Y-50045893D01*
X168795864Y-54054107D02*
X168891164Y-54023814D01*
X168795781Y-50045893D02*
X168891081Y-50076186D01*
X168891164Y-54023814D02*
X168983854Y-53986285D01*
X168891081Y-50076186D02*
X168983771Y-50113715D01*
X168983854Y-53986285D02*
X169073385Y-53941742D01*
X168983771Y-50113715D02*
X169073302Y-50158258D01*
X169073385Y-53941742D02*
X169159227Y-53890449D01*
X169073302Y-50158258D02*
X169159144Y-50209551D01*
X169159227Y-53890449D02*
X169240872Y-53832709D01*
X169159144Y-50209551D02*
X169240789Y-50267291D01*
X169240872Y-53832709D02*
X169317837Y-53768864D01*
X169240789Y-50267291D02*
X169317754Y-50331136D01*
X169317837Y-53768864D02*
X169389667Y-53699292D01*
X169317754Y-50331136D02*
X169389584Y-50400708D01*
X169389667Y-53699292D02*
X169455937Y-53624405D01*
X169389584Y-50400708D02*
X169455854Y-50475595D01*
X169455937Y-53624405D02*
X169516255Y-53544646D01*
X169455854Y-50475595D02*
X169516172Y-50555354D01*
X169516255Y-53544646D02*
X169570264Y-53460487D01*
X169516172Y-50555354D02*
X169570181Y-50639513D01*
X169570264Y-53460487D02*
X169617644Y-53372426D01*
X169570181Y-50639513D02*
X169617561Y-50727574D01*
X169617644Y-53372426D02*
X169658115Y-53280984D01*
X169617561Y-50727574D02*
X169658032Y-50819016D01*
X169658115Y-53280984D02*
X169691437Y-53186702D01*
X169658032Y-50819016D02*
X169691354Y-50913298D01*
X169691437Y-53186702D02*
X169717413Y-53090138D01*
X169691354Y-50913298D02*
X169717330Y-51009862D01*
X169717413Y-53090138D02*
X169735890Y-52991863D01*
X169717330Y-51009862D02*
X169735807Y-51108137D01*
X169735890Y-52991863D02*
X169746758Y-52892458D01*
X169735807Y-51108137D02*
X169746675Y-51207542D01*
X169746758Y-52892458D02*
X169749953Y-52792512D01*
X169746675Y-51207542D02*
X169749870Y-51307488D01*
X169749953Y-52792512D02*
X169749870Y-51307488D01*
X145700000Y-141499998D02*
X145700000Y-150100000D01*
X145700000Y-136500002D02*
X145700000Y-129100000D01*
X150100000Y-136500002D02*
X150100000Y-129100000D01*
X150100000Y-141499998D02*
X150100000Y-150100000D01*
X150100000Y-141499998D02*
X150092313Y-141400294D01*
X145700000Y-141499998D02*
X145707687Y-141400294D01*
X150092313Y-141400294D02*
X150076985Y-141301476D01*
X145707687Y-141400294D02*
X145723015Y-141301476D01*
X150076985Y-141301476D02*
X150054107Y-141204129D01*
X145723015Y-141301476D02*
X145745893Y-141204129D01*
X150054107Y-141204129D02*
X150023814Y-141108829D01*
X145745893Y-141204129D02*
X145776186Y-141108829D01*
X150023814Y-141108829D02*
X149986285Y-141016139D01*
X145776186Y-141108829D02*
X145813715Y-141016139D01*
X149986285Y-141016139D02*
X149941742Y-140926608D01*
X145813715Y-141016139D02*
X145858258Y-140926608D01*
X149941742Y-140926608D02*
X149890449Y-140840766D01*
X145858258Y-140926608D02*
X145909551Y-140840766D01*
X149890449Y-140840766D02*
X149832709Y-140759121D01*
X145909551Y-140840766D02*
X145967291Y-140759121D01*
X149832709Y-140759121D02*
X149768864Y-140682156D01*
X145967291Y-140759121D02*
X146031136Y-140682156D01*
X149768864Y-140682156D02*
X149699292Y-140610326D01*
X146031136Y-140682156D02*
X146100708Y-140610326D01*
X149699292Y-140610326D02*
X149624405Y-140544056D01*
X146100708Y-140610326D02*
X146175595Y-140544056D01*
X149624405Y-140544056D02*
X149544646Y-140483738D01*
X146175595Y-140544056D02*
X146255354Y-140483738D01*
X149544646Y-140483738D02*
X149460487Y-140429729D01*
X146255354Y-140483738D02*
X146339513Y-140429729D01*
X149460487Y-140429729D02*
X149372426Y-140382349D01*
X146339513Y-140429729D02*
X146427574Y-140382349D01*
X149372426Y-140382349D02*
X149280984Y-140341878D01*
X146427574Y-140382349D02*
X146519016Y-140341878D01*
X149280984Y-140341878D02*
X149186702Y-140308556D01*
X146519016Y-140341878D02*
X146613298Y-140308556D01*
X149186702Y-140308556D02*
X149090138Y-140282580D01*
X146613298Y-140308556D02*
X146709862Y-140282580D01*
X149090138Y-140282580D02*
X148991863Y-140264103D01*
X146709862Y-140282580D02*
X146808137Y-140264103D01*
X148991863Y-140264103D02*
X148892458Y-140253235D01*
X146808137Y-140264103D02*
X146907542Y-140253235D01*
X148892458Y-140253235D02*
X148792512Y-140250040D01*
X146907542Y-140253235D02*
X147007488Y-140250040D01*
X147007488Y-140250040D02*
X148792512Y-140250040D01*
X150100000Y-136500002D02*
X150092313Y-136599706D01*
X145700000Y-136500002D02*
X145707687Y-136599706D01*
X150092313Y-136599706D02*
X150076985Y-136698524D01*
X145707687Y-136599706D02*
X145723015Y-136698524D01*
X150076985Y-136698524D02*
X150054107Y-136795871D01*
X145723015Y-136698524D02*
X145745893Y-136795871D01*
X150054107Y-136795871D02*
X150023814Y-136891171D01*
X145745893Y-136795871D02*
X145776186Y-136891171D01*
X150023814Y-136891171D02*
X149986285Y-136983861D01*
X145776186Y-136891171D02*
X145813715Y-136983861D01*
X149986285Y-136983861D02*
X149941742Y-137073392D01*
X145813715Y-136983861D02*
X145858258Y-137073392D01*
X149941742Y-137073392D02*
X149890449Y-137159234D01*
X145858258Y-137073392D02*
X145909551Y-137159234D01*
X149890449Y-137159234D02*
X149832709Y-137240879D01*
X145909551Y-137159234D02*
X145967291Y-137240879D01*
X149832709Y-137240879D02*
X149768864Y-137317844D01*
X145967291Y-137240879D02*
X146031136Y-137317844D01*
X149768864Y-137317844D02*
X149699292Y-137389674D01*
X146031136Y-137317844D02*
X146100708Y-137389674D01*
X149699292Y-137389674D02*
X149624405Y-137455944D01*
X146100708Y-137389674D02*
X146175595Y-137455944D01*
X149624405Y-137455944D02*
X149544646Y-137516262D01*
X146175595Y-137455944D02*
X146255354Y-137516262D01*
X149544646Y-137516262D02*
X149460487Y-137570271D01*
X146255354Y-137516262D02*
X146339513Y-137570271D01*
X149460487Y-137570271D02*
X149372426Y-137617651D01*
X146339513Y-137570271D02*
X146427574Y-137617651D01*
X149372426Y-137617651D02*
X149280984Y-137658122D01*
X146427574Y-137617651D02*
X146519016Y-137658122D01*
X149280984Y-137658122D02*
X149186702Y-137691444D01*
X146519016Y-137658122D02*
X146613298Y-137691444D01*
X149186702Y-137691444D02*
X149090138Y-137717420D01*
X146613298Y-137691444D02*
X146709862Y-137717420D01*
X149090138Y-137717420D02*
X148991863Y-137735897D01*
X146709862Y-137717420D02*
X146808137Y-137735897D01*
X148991863Y-137735897D02*
X148892458Y-137746765D01*
X146808137Y-137735897D02*
X146907542Y-137746765D01*
X148892458Y-137746765D02*
X148792512Y-137749960D01*
X146907542Y-137746765D02*
X147007488Y-137749960D01*
X147007488Y-137749960D02*
X148792512Y-137749960D01*
X100000000Y-141500013D02*
X100000000Y-154000000D01*
X104100000Y-136500002D02*
X104100000Y-129100000D01*
X104100000Y-141499998D02*
X104100000Y-150100000D01*
X104100000Y-141499998D02*
X104092313Y-141400294D01*
X100000000Y-141500013D02*
X100007687Y-141400309D01*
X104092313Y-141400294D02*
X104076985Y-141301476D01*
X100007687Y-141400309D02*
X100023015Y-141301491D01*
X104076985Y-141301476D02*
X104054107Y-141204129D01*
X100023015Y-141301491D02*
X100045893Y-141204144D01*
X104054107Y-141204129D02*
X104023814Y-141108829D01*
X100045893Y-141204144D02*
X100076186Y-141108844D01*
X104023814Y-141108829D02*
X103986285Y-141016139D01*
X100076186Y-141108844D02*
X100113715Y-141016154D01*
X103986285Y-141016139D02*
X103941742Y-140926608D01*
X100113715Y-141016154D02*
X100158258Y-140926623D01*
X103941742Y-140926608D02*
X103890449Y-140840766D01*
X100158258Y-140926623D02*
X100209551Y-140840781D01*
X103890449Y-140840766D02*
X103832709Y-140759121D01*
X100209551Y-140840781D02*
X100267291Y-140759136D01*
X103832709Y-140759121D02*
X103768864Y-140682156D01*
X100267291Y-140759136D02*
X100331136Y-140682171D01*
X103768864Y-140682156D02*
X103699292Y-140610326D01*
X100331136Y-140682171D02*
X100400708Y-140610341D01*
X103699292Y-140610326D02*
X103624405Y-140544056D01*
X100400708Y-140610341D02*
X100475595Y-140544071D01*
X103624405Y-140544056D02*
X103544646Y-140483738D01*
X100475595Y-140544071D02*
X100555354Y-140483753D01*
X103544646Y-140483738D02*
X103460487Y-140429729D01*
X100555354Y-140483753D02*
X100639513Y-140429744D01*
X103460487Y-140429729D02*
X103372426Y-140382349D01*
X100639513Y-140429744D02*
X100727574Y-140382364D01*
X103372426Y-140382349D02*
X103280984Y-140341878D01*
X100727574Y-140382364D02*
X100819016Y-140341893D01*
X103280984Y-140341878D02*
X103186702Y-140308556D01*
X100819016Y-140341893D02*
X100913298Y-140308571D01*
X103186702Y-140308556D02*
X103090138Y-140282580D01*
X100913298Y-140308571D02*
X101009862Y-140282595D01*
X103090138Y-140282580D02*
X102991863Y-140264103D01*
X101009862Y-140282595D02*
X101108137Y-140264118D01*
X102991863Y-140264103D02*
X102892458Y-140253235D01*
X101108137Y-140264118D02*
X101207542Y-140253250D01*
X102892458Y-140253235D02*
X102792512Y-140250040D01*
X101207542Y-140253250D02*
X101307488Y-140250055D01*
X101307488Y-140250055D02*
X102792512Y-140250040D01*
X104100000Y-136500002D02*
X104092313Y-136599706D01*
X100000000Y-136499990D02*
X100007687Y-136599694D01*
X104092313Y-136599706D02*
X104076985Y-136698524D01*
X100007687Y-136599694D02*
X100023015Y-136698512D01*
X104076985Y-136698524D02*
X104054107Y-136795871D01*
X100023015Y-136698512D02*
X100045893Y-136795859D01*
X104054107Y-136795871D02*
X104023814Y-136891171D01*
X100045893Y-136795859D02*
X100076186Y-136891159D01*
X104023814Y-136891171D02*
X103986285Y-136983861D01*
X100076186Y-136891159D02*
X100113715Y-136983849D01*
X103986285Y-136983861D02*
X103941742Y-137073392D01*
X100113715Y-136983849D02*
X100158258Y-137073380D01*
X103941742Y-137073392D02*
X103890449Y-137159234D01*
X100158258Y-137073380D02*
X100209551Y-137159222D01*
X103890449Y-137159234D02*
X103832709Y-137240879D01*
X100209551Y-137159222D02*
X100267291Y-137240867D01*
X103832709Y-137240879D02*
X103768864Y-137317844D01*
X100267291Y-137240867D02*
X100331136Y-137317832D01*
X103768864Y-137317844D02*
X103699292Y-137389674D01*
X100331136Y-137317832D02*
X100400708Y-137389662D01*
X103699292Y-137389674D02*
X103624405Y-137455944D01*
X100400708Y-137389662D02*
X100475595Y-137455932D01*
X103624405Y-137455944D02*
X103544646Y-137516262D01*
X100475595Y-137455932D02*
X100555354Y-137516250D01*
X103544646Y-137516262D02*
X103460487Y-137570271D01*
X100555354Y-137516250D02*
X100639513Y-137570259D01*
X103460487Y-137570271D02*
X103372426Y-137617651D01*
X100639513Y-137570259D02*
X100727574Y-137617639D01*
X103372426Y-137617651D02*
X103280984Y-137658122D01*
X100727574Y-137617639D02*
X100819016Y-137658110D01*
X103280984Y-137658122D02*
X103186702Y-137691444D01*
X100819016Y-137658110D02*
X100913298Y-137691432D01*
X103186702Y-137691444D02*
X103090138Y-137717420D01*
X100913298Y-137691432D02*
X101009862Y-137717408D01*
X103090138Y-137717420D02*
X102991863Y-137735897D01*
X101009862Y-137717408D02*
X101108137Y-137735885D01*
X102991863Y-137735897D02*
X102892458Y-137746765D01*
X101108137Y-137735885D02*
X101207542Y-137746753D01*
X102892458Y-137746765D02*
X102792512Y-137749960D01*
X101207542Y-137746753D02*
X101307488Y-137749948D01*
X101307488Y-137749948D02*
X102792512Y-137749960D01*
X145700000Y-116499998D02*
X145700000Y-125100000D01*
X145700000Y-111500002D02*
X145700000Y-104100000D01*
X150100000Y-111500002D02*
X150100000Y-104100000D01*
X150100000Y-116499998D02*
X150100000Y-125100000D01*
X150100000Y-116499998D02*
X150092313Y-116400294D01*
X145700000Y-116499998D02*
X145707687Y-116400294D01*
X150092313Y-116400294D02*
X150076985Y-116301476D01*
X145707687Y-116400294D02*
X145723015Y-116301476D01*
X150076985Y-116301476D02*
X150054107Y-116204129D01*
X145723015Y-116301476D02*
X145745893Y-116204129D01*
X150054107Y-116204129D02*
X150023814Y-116108829D01*
X145745893Y-116204129D02*
X145776186Y-116108829D01*
X150023814Y-116108829D02*
X149986285Y-116016139D01*
X145776186Y-116108829D02*
X145813715Y-116016139D01*
X149986285Y-116016139D02*
X149941742Y-115926608D01*
X145813715Y-116016139D02*
X145858258Y-115926608D01*
X149941742Y-115926608D02*
X149890449Y-115840766D01*
X145858258Y-115926608D02*
X145909551Y-115840766D01*
X149890449Y-115840766D02*
X149832709Y-115759121D01*
X145909551Y-115840766D02*
X145967291Y-115759121D01*
X149832709Y-115759121D02*
X149768864Y-115682156D01*
X145967291Y-115759121D02*
X146031136Y-115682156D01*
X149768864Y-115682156D02*
X149699292Y-115610326D01*
X146031136Y-115682156D02*
X146100708Y-115610326D01*
X149699292Y-115610326D02*
X149624405Y-115544056D01*
X146100708Y-115610326D02*
X146175595Y-115544056D01*
X149624405Y-115544056D02*
X149544646Y-115483738D01*
X146175595Y-115544056D02*
X146255354Y-115483738D01*
X149544646Y-115483738D02*
X149460487Y-115429729D01*
X146255354Y-115483738D02*
X146339513Y-115429729D01*
X149460487Y-115429729D02*
X149372426Y-115382349D01*
X146339513Y-115429729D02*
X146427574Y-115382349D01*
X149372426Y-115382349D02*
X149280984Y-115341878D01*
X146427574Y-115382349D02*
X146519016Y-115341878D01*
X149280984Y-115341878D02*
X149186702Y-115308556D01*
X146519016Y-115341878D02*
X146613298Y-115308556D01*
X149186702Y-115308556D02*
X149090138Y-115282580D01*
X146613298Y-115308556D02*
X146709862Y-115282580D01*
X149090138Y-115282580D02*
X148991863Y-115264103D01*
X146709862Y-115282580D02*
X146808137Y-115264103D01*
X148991863Y-115264103D02*
X148892458Y-115253235D01*
X146808137Y-115264103D02*
X146907542Y-115253235D01*
X148892458Y-115253235D02*
X148792512Y-115250040D01*
X146907542Y-115253235D02*
X147007488Y-115250040D01*
X147007488Y-115250040D02*
X148792512Y-115250040D01*
X150100000Y-111500002D02*
X150092313Y-111599706D01*
X145700000Y-111500002D02*
X145707687Y-111599706D01*
X150092313Y-111599706D02*
X150076985Y-111698524D01*
X145707687Y-111599706D02*
X145723015Y-111698524D01*
X150076985Y-111698524D02*
X150054107Y-111795871D01*
X145723015Y-111698524D02*
X145745893Y-111795871D01*
X150054107Y-111795871D02*
X150023814Y-111891171D01*
X145745893Y-111795871D02*
X145776186Y-111891171D01*
X150023814Y-111891171D02*
X149986285Y-111983861D01*
X145776186Y-111891171D02*
X145813715Y-111983861D01*
X149986285Y-111983861D02*
X149941742Y-112073392D01*
X145813715Y-111983861D02*
X145858258Y-112073392D01*
X149941742Y-112073392D02*
X149890449Y-112159234D01*
X145858258Y-112073392D02*
X145909551Y-112159234D01*
X149890449Y-112159234D02*
X149832709Y-112240879D01*
X145909551Y-112159234D02*
X145967291Y-112240879D01*
X149832709Y-112240879D02*
X149768864Y-112317844D01*
X145967291Y-112240879D02*
X146031136Y-112317844D01*
X149768864Y-112317844D02*
X149699292Y-112389674D01*
X146031136Y-112317844D02*
X146100708Y-112389674D01*
X149699292Y-112389674D02*
X149624405Y-112455944D01*
X146100708Y-112389674D02*
X146175595Y-112455944D01*
X149624405Y-112455944D02*
X149544646Y-112516262D01*
X146175595Y-112455944D02*
X146255354Y-112516262D01*
X149544646Y-112516262D02*
X149460487Y-112570271D01*
X146255354Y-112516262D02*
X146339513Y-112570271D01*
X149460487Y-112570271D02*
X149372426Y-112617651D01*
X146339513Y-112570271D02*
X146427574Y-112617651D01*
X149372426Y-112617651D02*
X149280984Y-112658122D01*
X146427574Y-112617651D02*
X146519016Y-112658122D01*
X149280984Y-112658122D02*
X149186702Y-112691444D01*
X146519016Y-112658122D02*
X146613298Y-112691444D01*
X149186702Y-112691444D02*
X149090138Y-112717420D01*
X146613298Y-112691444D02*
X146709862Y-112717420D01*
X149090138Y-112717420D02*
X148991863Y-112735897D01*
X146709862Y-112717420D02*
X146808137Y-112735897D01*
X148991863Y-112735897D02*
X148892458Y-112746765D01*
X146808137Y-112735897D02*
X146907542Y-112746765D01*
X148892458Y-112746765D02*
X148792512Y-112749960D01*
X146907542Y-112746765D02*
X147007488Y-112749960D01*
X147007488Y-112749960D02*
X148792512Y-112749960D01*
X100000000Y-116499975D02*
X100000000Y-136499990D01*
X104100000Y-111500002D02*
X104100000Y-104100000D01*
X104100000Y-116499998D02*
X104100000Y-125100000D01*
X100000000Y-116499975D02*
X100007687Y-116400271D01*
X104100000Y-116499998D02*
X104092313Y-116400294D01*
X100007687Y-116400271D02*
X100023015Y-116301453D01*
X104092313Y-116400294D02*
X104076985Y-116301476D01*
X100023015Y-116301453D02*
X100045893Y-116204106D01*
X104076985Y-116301476D02*
X104054107Y-116204129D01*
X100045893Y-116204106D02*
X100076186Y-116108806D01*
X104054107Y-116204129D02*
X104023814Y-116108829D01*
X100076186Y-116108806D02*
X100113715Y-116016116D01*
X104023814Y-116108829D02*
X103986285Y-116016139D01*
X100113715Y-116016116D02*
X100158258Y-115926585D01*
X103986285Y-116016139D02*
X103941742Y-115926608D01*
X100158258Y-115926585D02*
X100209551Y-115840743D01*
X103941742Y-115926608D02*
X103890449Y-115840766D01*
X100209551Y-115840743D02*
X100267291Y-115759098D01*
X103890449Y-115840766D02*
X103832709Y-115759121D01*
X100267291Y-115759098D02*
X100331136Y-115682133D01*
X103832709Y-115759121D02*
X103768864Y-115682156D01*
X100331136Y-115682133D02*
X100400708Y-115610303D01*
X103768864Y-115682156D02*
X103699292Y-115610326D01*
X100400708Y-115610303D02*
X100475595Y-115544033D01*
X103699292Y-115610326D02*
X103624405Y-115544056D01*
X100475595Y-115544033D02*
X100555354Y-115483715D01*
X103624405Y-115544056D02*
X103544646Y-115483738D01*
X100555354Y-115483715D02*
X100639513Y-115429706D01*
X103544646Y-115483738D02*
X103460487Y-115429729D01*
X100639513Y-115429706D02*
X100727574Y-115382326D01*
X103460487Y-115429729D02*
X103372426Y-115382349D01*
X100727574Y-115382326D02*
X100819016Y-115341855D01*
X103372426Y-115382349D02*
X103280984Y-115341878D01*
X100819016Y-115341855D02*
X100913298Y-115308533D01*
X103280984Y-115341878D02*
X103186702Y-115308556D01*
X100913298Y-115308533D02*
X101009862Y-115282557D01*
X103186702Y-115308556D02*
X103090138Y-115282580D01*
X101009862Y-115282557D02*
X101108137Y-115264080D01*
X103090138Y-115282580D02*
X102991863Y-115264103D01*
X101108137Y-115264080D02*
X101207542Y-115253212D01*
X102991863Y-115264103D02*
X102892458Y-115253235D01*
X101207542Y-115253212D02*
X101307488Y-115250017D01*
X102892458Y-115253235D02*
X102792512Y-115250040D01*
X101307488Y-115250017D02*
X102792512Y-115250040D01*
X104100000Y-111500002D02*
X104092313Y-111599706D01*
X100000000Y-111500000D02*
X100007687Y-111599704D01*
X104092313Y-111599706D02*
X104076985Y-111698524D01*
X100007687Y-111599704D02*
X100023015Y-111698522D01*
X104076985Y-111698524D02*
X104054107Y-111795871D01*
X100023015Y-111698522D02*
X100045893Y-111795869D01*
X104054107Y-111795871D02*
X104023814Y-111891171D01*
X100045893Y-111795869D02*
X100076186Y-111891169D01*
X104023814Y-111891171D02*
X103986285Y-111983861D01*
X100076186Y-111891169D02*
X100113715Y-111983859D01*
X103986285Y-111983861D02*
X103941742Y-112073392D01*
X100113715Y-111983859D02*
X100158258Y-112073390D01*
X103941742Y-112073392D02*
X103890449Y-112159234D01*
X100158258Y-112073390D02*
X100209551Y-112159232D01*
X103890449Y-112159234D02*
X103832709Y-112240879D01*
X100209551Y-112159232D02*
X100267291Y-112240877D01*
X103832709Y-112240879D02*
X103768864Y-112317844D01*
X100267291Y-112240877D02*
X100331136Y-112317842D01*
X103768864Y-112317844D02*
X103699292Y-112389674D01*
X100331136Y-112317842D02*
X100400708Y-112389672D01*
X103699292Y-112389674D02*
X103624405Y-112455944D01*
X100400708Y-112389672D02*
X100475595Y-112455942D01*
X103624405Y-112455944D02*
X103544646Y-112516262D01*
X100475595Y-112455942D02*
X100555354Y-112516260D01*
X103544646Y-112516262D02*
X103460487Y-112570271D01*
X100555354Y-112516260D02*
X100639513Y-112570269D01*
X103460487Y-112570271D02*
X103372426Y-112617651D01*
X100639513Y-112570269D02*
X100727574Y-112617649D01*
X103372426Y-112617651D02*
X103280984Y-112658122D01*
X100727574Y-112617649D02*
X100819016Y-112658120D01*
X103280984Y-112658122D02*
X103186702Y-112691444D01*
X100819016Y-112658120D02*
X100913298Y-112691442D01*
X103186702Y-112691444D02*
X103090138Y-112717420D01*
X100913298Y-112691442D02*
X101009862Y-112717418D01*
X103090138Y-112717420D02*
X102991863Y-112735897D01*
X101009862Y-112717418D02*
X101108137Y-112735895D01*
X102991863Y-112735897D02*
X102892458Y-112746765D01*
X101108137Y-112735895D02*
X101207542Y-112746763D01*
X102892458Y-112746765D02*
X102792512Y-112749960D01*
X101207542Y-112746763D02*
X101307488Y-112749958D01*
X101307488Y-112749958D02*
X102792512Y-112749960D01*
X145700000Y-91499998D02*
X145700000Y-100100000D01*
X145700000Y-86500002D02*
X145700000Y-79100000D01*
X150100000Y-86500002D02*
X150100000Y-79100000D01*
X150100000Y-91499998D02*
X150100000Y-100100000D01*
X150100000Y-91499998D02*
X150092313Y-91400294D01*
X145700000Y-91499998D02*
X145707687Y-91400294D01*
X150092313Y-91400294D02*
X150076985Y-91301476D01*
X145707687Y-91400294D02*
X145723015Y-91301476D01*
X150076985Y-91301476D02*
X150054107Y-91204129D01*
X145723015Y-91301476D02*
X145745893Y-91204129D01*
X150054107Y-91204129D02*
X150023814Y-91108829D01*
X145745893Y-91204129D02*
X145776186Y-91108829D01*
X150023814Y-91108829D02*
X149986285Y-91016139D01*
X145776186Y-91108829D02*
X145813715Y-91016139D01*
X149986285Y-91016139D02*
X149941742Y-90926608D01*
X145813715Y-91016139D02*
X145858258Y-90926608D01*
X149941742Y-90926608D02*
X149890449Y-90840766D01*
X145858258Y-90926608D02*
X145909551Y-90840766D01*
X149890449Y-90840766D02*
X149832709Y-90759121D01*
X145909551Y-90840766D02*
X145967291Y-90759121D01*
X149832709Y-90759121D02*
X149768864Y-90682156D01*
X145967291Y-90759121D02*
X146031136Y-90682156D01*
X149768864Y-90682156D02*
X149699292Y-90610326D01*
X146031136Y-90682156D02*
X146100708Y-90610326D01*
X149699292Y-90610326D02*
X149624405Y-90544056D01*
X146100708Y-90610326D02*
X146175595Y-90544056D01*
X149624405Y-90544056D02*
X149544646Y-90483738D01*
X146175595Y-90544056D02*
X146255354Y-90483738D01*
X149544646Y-90483738D02*
X149460487Y-90429729D01*
X146255354Y-90483738D02*
X146339513Y-90429729D01*
X149460487Y-90429729D02*
X149372426Y-90382349D01*
X146339513Y-90429729D02*
X146427574Y-90382349D01*
X149372426Y-90382349D02*
X149280984Y-90341878D01*
X146427574Y-90382349D02*
X146519016Y-90341878D01*
X149280984Y-90341878D02*
X149186702Y-90308556D01*
X146519016Y-90341878D02*
X146613298Y-90308556D01*
X149186702Y-90308556D02*
X149090138Y-90282580D01*
X146613298Y-90308556D02*
X146709862Y-90282580D01*
X149090138Y-90282580D02*
X148991863Y-90264103D01*
X146709862Y-90282580D02*
X146808137Y-90264103D01*
X148991863Y-90264103D02*
X148892458Y-90253235D01*
X146808137Y-90264103D02*
X146907542Y-90253235D01*
X148892458Y-90253235D02*
X148792512Y-90250040D01*
X146907542Y-90253235D02*
X147007488Y-90250040D01*
X147007488Y-90250040D02*
X148792512Y-90250040D01*
X150100000Y-86500002D02*
X150092313Y-86599706D01*
X145700000Y-86500002D02*
X145707687Y-86599706D01*
X150092313Y-86599706D02*
X150076985Y-86698524D01*
X145707687Y-86599706D02*
X145723015Y-86698524D01*
X150076985Y-86698524D02*
X150054107Y-86795871D01*
X145723015Y-86698524D02*
X145745893Y-86795871D01*
X150054107Y-86795871D02*
X150023814Y-86891171D01*
X145745893Y-86795871D02*
X145776186Y-86891171D01*
X150023814Y-86891171D02*
X149986285Y-86983861D01*
X145776186Y-86891171D02*
X145813715Y-86983861D01*
X149986285Y-86983861D02*
X149941742Y-87073392D01*
X145813715Y-86983861D02*
X145858258Y-87073392D01*
X149941742Y-87073392D02*
X149890449Y-87159234D01*
X145858258Y-87073392D02*
X145909551Y-87159234D01*
X149890449Y-87159234D02*
X149832709Y-87240879D01*
X145909551Y-87159234D02*
X145967291Y-87240879D01*
X149832709Y-87240879D02*
X149768864Y-87317844D01*
X145967291Y-87240879D02*
X146031136Y-87317844D01*
X149768864Y-87317844D02*
X149699292Y-87389674D01*
X146031136Y-87317844D02*
X146100708Y-87389674D01*
X149699292Y-87389674D02*
X149624405Y-87455944D01*
X146100708Y-87389674D02*
X146175595Y-87455944D01*
X149624405Y-87455944D02*
X149544646Y-87516262D01*
X146175595Y-87455944D02*
X146255354Y-87516262D01*
X149544646Y-87516262D02*
X149460487Y-87570271D01*
X146255354Y-87516262D02*
X146339513Y-87570271D01*
X149460487Y-87570271D02*
X149372426Y-87617651D01*
X146339513Y-87570271D02*
X146427574Y-87617651D01*
X149372426Y-87617651D02*
X149280984Y-87658122D01*
X146427574Y-87617651D02*
X146519016Y-87658122D01*
X149280984Y-87658122D02*
X149186702Y-87691444D01*
X146519016Y-87658122D02*
X146613298Y-87691444D01*
X149186702Y-87691444D02*
X149090138Y-87717420D01*
X146613298Y-87691444D02*
X146709862Y-87717420D01*
X149090138Y-87717420D02*
X148991863Y-87735897D01*
X146709862Y-87717420D02*
X146808137Y-87735897D01*
X148991863Y-87735897D02*
X148892458Y-87746765D01*
X146808137Y-87735897D02*
X146907542Y-87746765D01*
X148892458Y-87746765D02*
X148792512Y-87749960D01*
X146907542Y-87746765D02*
X147007488Y-87749960D01*
X147007488Y-87749960D02*
X148792512Y-87749960D01*
X100000000Y-91499975D02*
X100000000Y-111500000D01*
X104100000Y-86500002D02*
X104100000Y-79100000D01*
X104100000Y-91499998D02*
X104100000Y-100100000D01*
X100000000Y-91499975D02*
X100007687Y-91400271D01*
X104100000Y-91499998D02*
X104092313Y-91400294D01*
X100007687Y-91400271D02*
X100023015Y-91301453D01*
X104092313Y-91400294D02*
X104076985Y-91301476D01*
X100023015Y-91301453D02*
X100045893Y-91204106D01*
X104076985Y-91301476D02*
X104054107Y-91204129D01*
X100045893Y-91204106D02*
X100076186Y-91108806D01*
X104054107Y-91204129D02*
X104023814Y-91108829D01*
X100076186Y-91108806D02*
X100113715Y-91016116D01*
X104023814Y-91108829D02*
X103986285Y-91016139D01*
X100113715Y-91016116D02*
X100158258Y-90926585D01*
X103986285Y-91016139D02*
X103941742Y-90926608D01*
X100158258Y-90926585D02*
X100209551Y-90840743D01*
X103941742Y-90926608D02*
X103890449Y-90840766D01*
X100209551Y-90840743D02*
X100267291Y-90759098D01*
X103890449Y-90840766D02*
X103832709Y-90759121D01*
X100267291Y-90759098D02*
X100331136Y-90682133D01*
X103832709Y-90759121D02*
X103768864Y-90682156D01*
X100331136Y-90682133D02*
X100400708Y-90610303D01*
X103768864Y-90682156D02*
X103699292Y-90610326D01*
X100400708Y-90610303D02*
X100475595Y-90544033D01*
X103699292Y-90610326D02*
X103624405Y-90544056D01*
X100475595Y-90544033D02*
X100555354Y-90483715D01*
X103624405Y-90544056D02*
X103544646Y-90483738D01*
X100555354Y-90483715D02*
X100639513Y-90429706D01*
X103544646Y-90483738D02*
X103460487Y-90429729D01*
X100639513Y-90429706D02*
X100727574Y-90382326D01*
X103460487Y-90429729D02*
X103372426Y-90382349D01*
X100727574Y-90382326D02*
X100819016Y-90341855D01*
X103372426Y-90382349D02*
X103280984Y-90341878D01*
X100819016Y-90341855D02*
X100913298Y-90308533D01*
X103280984Y-90341878D02*
X103186702Y-90308556D01*
X100913298Y-90308533D02*
X101009862Y-90282557D01*
X103186702Y-90308556D02*
X103090138Y-90282580D01*
X101009862Y-90282557D02*
X101108137Y-90264080D01*
X103090138Y-90282580D02*
X102991863Y-90264103D01*
X101108137Y-90264080D02*
X101207542Y-90253212D01*
X102991863Y-90264103D02*
X102892458Y-90253235D01*
X101207542Y-90253212D02*
X101307488Y-90250017D01*
X102892458Y-90253235D02*
X102792512Y-90250040D01*
X101307488Y-90250017D02*
X102792512Y-90250040D01*
X104100000Y-86500002D02*
X104092313Y-86599706D01*
X100000000Y-86500002D02*
X100007687Y-86599706D01*
X104092313Y-86599706D02*
X104076985Y-86698524D01*
X100007687Y-86599706D02*
X100023015Y-86698524D01*
X104076985Y-86698524D02*
X104054107Y-86795871D01*
X100023015Y-86698524D02*
X100045893Y-86795871D01*
X104054107Y-86795871D02*
X104023814Y-86891171D01*
X100045893Y-86795871D02*
X100076186Y-86891171D01*
X104023814Y-86891171D02*
X103986285Y-86983861D01*
X100076186Y-86891171D02*
X100113715Y-86983861D01*
X103986285Y-86983861D02*
X103941742Y-87073392D01*
X100113715Y-86983861D02*
X100158258Y-87073392D01*
X103941742Y-87073392D02*
X103890449Y-87159234D01*
X100158258Y-87073392D02*
X100209551Y-87159234D01*
X103890449Y-87159234D02*
X103832709Y-87240879D01*
X100209551Y-87159234D02*
X100267291Y-87240879D01*
X103832709Y-87240879D02*
X103768864Y-87317844D01*
X100267291Y-87240879D02*
X100331136Y-87317844D01*
X103768864Y-87317844D02*
X103699292Y-87389674D01*
X100331136Y-87317844D02*
X100400708Y-87389674D01*
X103699292Y-87389674D02*
X103624405Y-87455944D01*
X100400708Y-87389674D02*
X100475595Y-87455944D01*
X103624405Y-87455944D02*
X103544646Y-87516262D01*
X100475595Y-87455944D02*
X100555354Y-87516262D01*
X103544646Y-87516262D02*
X103460487Y-87570271D01*
X100555354Y-87516262D02*
X100639513Y-87570271D01*
X103460487Y-87570271D02*
X103372426Y-87617651D01*
X100639513Y-87570271D02*
X100727574Y-87617651D01*
X103372426Y-87617651D02*
X103280984Y-87658122D01*
X100727574Y-87617651D02*
X100819016Y-87658122D01*
X103280984Y-87658122D02*
X103186702Y-87691444D01*
X100819016Y-87658122D02*
X100913298Y-87691444D01*
X103186702Y-87691444D02*
X103090138Y-87717420D01*
X100913298Y-87691444D02*
X101009862Y-87717420D01*
X103090138Y-87717420D02*
X102991863Y-87735897D01*
X101009862Y-87717420D02*
X101108137Y-87735897D01*
X102991863Y-87735897D02*
X102892458Y-87746765D01*
X101108137Y-87735897D02*
X101207542Y-87746765D01*
X102892458Y-87746765D02*
X102792512Y-87749960D01*
X101207542Y-87746765D02*
X101307488Y-87749960D01*
X101307488Y-87749960D02*
X102792512Y-87749960D01*
X145700000Y-66499998D02*
X145700000Y-75100000D01*
X145700000Y-61500002D02*
X145700000Y-54100000D01*
X150100000Y-61500002D02*
X150100000Y-54100000D01*
X150100000Y-66499998D02*
X150100000Y-75100000D01*
X150100000Y-66499998D02*
X150092313Y-66400294D01*
X145700000Y-66499998D02*
X145707687Y-66400294D01*
X150092313Y-66400294D02*
X150076985Y-66301476D01*
X145707687Y-66400294D02*
X145723015Y-66301476D01*
X150076985Y-66301476D02*
X150054107Y-66204129D01*
X145723015Y-66301476D02*
X145745893Y-66204129D01*
X150054107Y-66204129D02*
X150023814Y-66108829D01*
X145745893Y-66204129D02*
X145776186Y-66108829D01*
X150023814Y-66108829D02*
X149986285Y-66016139D01*
X145776186Y-66108829D02*
X145813715Y-66016139D01*
X149986285Y-66016139D02*
X149941742Y-65926608D01*
X145813715Y-66016139D02*
X145858258Y-65926608D01*
X149941742Y-65926608D02*
X149890449Y-65840766D01*
X145858258Y-65926608D02*
X145909551Y-65840766D01*
X149890449Y-65840766D02*
X149832709Y-65759121D01*
X145909551Y-65840766D02*
X145967291Y-65759121D01*
X149832709Y-65759121D02*
X149768864Y-65682156D01*
X145967291Y-65759121D02*
X146031136Y-65682156D01*
X149768864Y-65682156D02*
X149699292Y-65610326D01*
X146031136Y-65682156D02*
X146100708Y-65610326D01*
X149699292Y-65610326D02*
X149624405Y-65544056D01*
X146100708Y-65610326D02*
X146175595Y-65544056D01*
X149624405Y-65544056D02*
X149544646Y-65483738D01*
X146175595Y-65544056D02*
X146255354Y-65483738D01*
X149544646Y-65483738D02*
X149460487Y-65429729D01*
X146255354Y-65483738D02*
X146339513Y-65429729D01*
X149460487Y-65429729D02*
X149372426Y-65382349D01*
X146339513Y-65429729D02*
X146427574Y-65382349D01*
X149372426Y-65382349D02*
X149280984Y-65341878D01*
X146427574Y-65382349D02*
X146519016Y-65341878D01*
X149280984Y-65341878D02*
X149186702Y-65308556D01*
X146519016Y-65341878D02*
X146613298Y-65308556D01*
X149186702Y-65308556D02*
X149090138Y-65282580D01*
X146613298Y-65308556D02*
X146709862Y-65282580D01*
X149090138Y-65282580D02*
X148991863Y-65264103D01*
X146709862Y-65282580D02*
X146808137Y-65264103D01*
X148991863Y-65264103D02*
X148892458Y-65253235D01*
X146808137Y-65264103D02*
X146907542Y-65253235D01*
X148892458Y-65253235D02*
X148792512Y-65250040D01*
X146907542Y-65253235D02*
X147007488Y-65250040D01*
X147007488Y-65250040D02*
X148792512Y-65250040D01*
X150100000Y-61500002D02*
X150092313Y-61599706D01*
X145700000Y-61500002D02*
X145707687Y-61599706D01*
X150092313Y-61599706D02*
X150076985Y-61698524D01*
X145707687Y-61599706D02*
X145723015Y-61698524D01*
X150076985Y-61698524D02*
X150054107Y-61795871D01*
X145723015Y-61698524D02*
X145745893Y-61795871D01*
X150054107Y-61795871D02*
X150023814Y-61891171D01*
X145745893Y-61795871D02*
X145776186Y-61891171D01*
X150023814Y-61891171D02*
X149986285Y-61983861D01*
X145776186Y-61891171D02*
X145813715Y-61983861D01*
X149986285Y-61983861D02*
X149941742Y-62073392D01*
X145813715Y-61983861D02*
X145858258Y-62073392D01*
X149941742Y-62073392D02*
X149890449Y-62159234D01*
X145858258Y-62073392D02*
X145909551Y-62159234D01*
X149890449Y-62159234D02*
X149832709Y-62240879D01*
X145909551Y-62159234D02*
X145967291Y-62240879D01*
X149832709Y-62240879D02*
X149768864Y-62317844D01*
X145967291Y-62240879D02*
X146031136Y-62317844D01*
X149768864Y-62317844D02*
X149699292Y-62389674D01*
X146031136Y-62317844D02*
X146100708Y-62389674D01*
X149699292Y-62389674D02*
X149624405Y-62455944D01*
X146100708Y-62389674D02*
X146175595Y-62455944D01*
X149624405Y-62455944D02*
X149544646Y-62516262D01*
X146175595Y-62455944D02*
X146255354Y-62516262D01*
X149544646Y-62516262D02*
X149460487Y-62570271D01*
X146255354Y-62516262D02*
X146339513Y-62570271D01*
X149460487Y-62570271D02*
X149372426Y-62617651D01*
X146339513Y-62570271D02*
X146427574Y-62617651D01*
X149372426Y-62617651D02*
X149280984Y-62658122D01*
X146427574Y-62617651D02*
X146519016Y-62658122D01*
X149280984Y-62658122D02*
X149186702Y-62691444D01*
X146519016Y-62658122D02*
X146613298Y-62691444D01*
X149186702Y-62691444D02*
X149090138Y-62717420D01*
X146613298Y-62691444D02*
X146709862Y-62717420D01*
X149090138Y-62717420D02*
X148991863Y-62735897D01*
X146709862Y-62717420D02*
X146808137Y-62735897D01*
X148991863Y-62735897D02*
X148892458Y-62746765D01*
X146808137Y-62735897D02*
X146907542Y-62746765D01*
X148892458Y-62746765D02*
X148792512Y-62749960D01*
X146907542Y-62746765D02*
X147007488Y-62749960D01*
X147007488Y-62749960D02*
X148792512Y-62749960D01*
X100000000Y-66499975D02*
X100000000Y-86500002D01*
X100000000Y-61499985D02*
X100000000Y-50000000D01*
X104100000Y-61500002D02*
X104100000Y-54100000D01*
X104100000Y-66499998D02*
X104100000Y-75100000D01*
X100000000Y-66499975D02*
X100007687Y-66400271D01*
X104100000Y-66499998D02*
X104092313Y-66400294D01*
X100007687Y-66400271D02*
X100023015Y-66301453D01*
X104092313Y-66400294D02*
X104076985Y-66301476D01*
X100023015Y-66301453D02*
X100045893Y-66204106D01*
X104076985Y-66301476D02*
X104054107Y-66204129D01*
X100045893Y-66204106D02*
X100076186Y-66108806D01*
X104054107Y-66204129D02*
X104023814Y-66108829D01*
X100076186Y-66108806D02*
X100113715Y-66016116D01*
X104023814Y-66108829D02*
X103986285Y-66016139D01*
X100113715Y-66016116D02*
X100158258Y-65926585D01*
X103986285Y-66016139D02*
X103941742Y-65926608D01*
X100158258Y-65926585D02*
X100209551Y-65840743D01*
X103941742Y-65926608D02*
X103890449Y-65840766D01*
X100209551Y-65840743D02*
X100267291Y-65759098D01*
X103890449Y-65840766D02*
X103832709Y-65759121D01*
X100267291Y-65759098D02*
X100331136Y-65682133D01*
X103832709Y-65759121D02*
X103768864Y-65682156D01*
X100331136Y-65682133D02*
X100400708Y-65610303D01*
X103768864Y-65682156D02*
X103699292Y-65610326D01*
X100400708Y-65610303D02*
X100475595Y-65544033D01*
X103699292Y-65610326D02*
X103624405Y-65544056D01*
X100475595Y-65544033D02*
X100555354Y-65483715D01*
X103624405Y-65544056D02*
X103544646Y-65483738D01*
X100555354Y-65483715D02*
X100639513Y-65429706D01*
X103544646Y-65483738D02*
X103460487Y-65429729D01*
X100639513Y-65429706D02*
X100727574Y-65382326D01*
X103460487Y-65429729D02*
X103372426Y-65382349D01*
X100727574Y-65382326D02*
X100819016Y-65341855D01*
X103372426Y-65382349D02*
X103280984Y-65341878D01*
X100819016Y-65341855D02*
X100913298Y-65308533D01*
X103280984Y-65341878D02*
X103186702Y-65308556D01*
X100913298Y-65308533D02*
X101009862Y-65282557D01*
X103186702Y-65308556D02*
X103090138Y-65282580D01*
X101009862Y-65282557D02*
X101108137Y-65264080D01*
X103090138Y-65282580D02*
X102991863Y-65264103D01*
X101108137Y-65264080D02*
X101207542Y-65253212D01*
X102991863Y-65264103D02*
X102892458Y-65253235D01*
X101207542Y-65253212D02*
X101307488Y-65250017D01*
X102892458Y-65253235D02*
X102792512Y-65250040D01*
X101307488Y-65250017D02*
X102792512Y-65250040D01*
X104100000Y-61500002D02*
X104092313Y-61599706D01*
X100000000Y-61499985D02*
X100007687Y-61599689D01*
X104092313Y-61599706D02*
X104076985Y-61698524D01*
X100007687Y-61599689D02*
X100023015Y-61698507D01*
X104076985Y-61698524D02*
X104054107Y-61795871D01*
X100023015Y-61698507D02*
X100045893Y-61795854D01*
X104054107Y-61795871D02*
X104023814Y-61891171D01*
X100045893Y-61795854D02*
X100076186Y-61891154D01*
X104023814Y-61891171D02*
X103986285Y-61983861D01*
X100076186Y-61891154D02*
X100113715Y-61983844D01*
X103986285Y-61983861D02*
X103941742Y-62073392D01*
X100113715Y-61983844D02*
X100158258Y-62073375D01*
X103941742Y-62073392D02*
X103890449Y-62159234D01*
X100158258Y-62073375D02*
X100209551Y-62159217D01*
X103890449Y-62159234D02*
X103832709Y-62240879D01*
X100209551Y-62159217D02*
X100267291Y-62240862D01*
X103832709Y-62240879D02*
X103768864Y-62317844D01*
X100267291Y-62240862D02*
X100331136Y-62317827D01*
X103768864Y-62317844D02*
X103699292Y-62389674D01*
X100331136Y-62317827D02*
X100400708Y-62389657D01*
X103699292Y-62389674D02*
X103624405Y-62455944D01*
X100400708Y-62389657D02*
X100475595Y-62455927D01*
X103624405Y-62455944D02*
X103544646Y-62516262D01*
X100475595Y-62455927D02*
X100555354Y-62516245D01*
X103544646Y-62516262D02*
X103460487Y-62570271D01*
X100555354Y-62516245D02*
X100639513Y-62570254D01*
X103460487Y-62570271D02*
X103372426Y-62617651D01*
X100639513Y-62570254D02*
X100727574Y-62617634D01*
X103372426Y-62617651D02*
X103280984Y-62658122D01*
X100727574Y-62617634D02*
X100819016Y-62658105D01*
X103280984Y-62658122D02*
X103186702Y-62691444D01*
X100819016Y-62658105D02*
X100913298Y-62691427D01*
X103186702Y-62691444D02*
X103090138Y-62717420D01*
X100913298Y-62691427D02*
X101009862Y-62717403D01*
X103090138Y-62717420D02*
X102991863Y-62735897D01*
X101009862Y-62717403D02*
X101108137Y-62735880D01*
X102991863Y-62735897D02*
X102892458Y-62746765D01*
X101108137Y-62735880D02*
X101207542Y-62746748D01*
X102892458Y-62746765D02*
X102792512Y-62749960D01*
X101207542Y-62746748D02*
X101307488Y-62749943D01*
X101307488Y-62749943D02*
X102792512Y-62749960D01*
X127499990Y-54100000D02*
X145700000Y-54100000D01*
X122499995Y-54100000D02*
X104100000Y-54100000D01*
X127500048Y-50000000D02*
X168499912Y-50000000D01*
X122500000Y-50000000D02*
X100000000Y-50000000D01*
X127499990Y-54100000D02*
X127400286Y-54092313D01*
X127500048Y-50000000D02*
X127400344Y-50007687D01*
X127400286Y-54092313D02*
X127301468Y-54076985D01*
X127400344Y-50007687D02*
X127301526Y-50023015D01*
X127301468Y-54076985D02*
X127204121Y-54054107D01*
X127301526Y-50023015D02*
X127204179Y-50045893D01*
X127204121Y-54054107D02*
X127108821Y-54023814D01*
X127204179Y-50045893D02*
X127108879Y-50076186D01*
X127108821Y-54023814D02*
X127016131Y-53986285D01*
X127108879Y-50076186D02*
X127016189Y-50113715D01*
X127016131Y-53986285D02*
X126926600Y-53941742D01*
X127016189Y-50113715D02*
X126926658Y-50158258D01*
X126926600Y-53941742D02*
X126840758Y-53890449D01*
X126926658Y-50158258D02*
X126840816Y-50209551D01*
X126840758Y-53890449D02*
X126759113Y-53832709D01*
X126840816Y-50209551D02*
X126759171Y-50267291D01*
X126759113Y-53832709D02*
X126682148Y-53768864D01*
X126759171Y-50267291D02*
X126682206Y-50331136D01*
X126682148Y-53768864D02*
X126610318Y-53699292D01*
X126682206Y-50331136D02*
X126610376Y-50400708D01*
X126610318Y-53699292D02*
X126544048Y-53624405D01*
X126610376Y-50400708D02*
X126544106Y-50475595D01*
X126544048Y-53624405D02*
X126483730Y-53544646D01*
X126544106Y-50475595D02*
X126483788Y-50555354D01*
X126483730Y-53544646D02*
X126429721Y-53460487D01*
X126483788Y-50555354D02*
X126429779Y-50639513D01*
X126429721Y-53460487D02*
X126382341Y-53372426D01*
X126429779Y-50639513D02*
X126382399Y-50727574D01*
X126382341Y-53372426D02*
X126341870Y-53280984D01*
X126382399Y-50727574D02*
X126341928Y-50819016D01*
X126341870Y-53280984D02*
X126308548Y-53186702D01*
X126341928Y-50819016D02*
X126308606Y-50913298D01*
X126308548Y-53186702D02*
X126282572Y-53090138D01*
X126308606Y-50913298D02*
X126282630Y-51009862D01*
X126282572Y-53090138D02*
X126264095Y-52991863D01*
X126282630Y-51009862D02*
X126264153Y-51108137D01*
X126264095Y-52991863D02*
X126253227Y-52892458D01*
X126264153Y-51108137D02*
X126253285Y-51207542D01*
X126253227Y-52892458D02*
X126250032Y-52792512D01*
X126253285Y-51207542D02*
X126250090Y-51307488D01*
X126250032Y-52792512D02*
X126250090Y-51307488D01*
X122500000Y-50000000D02*
X122599704Y-50007687D01*
X122499995Y-54100000D02*
X122599699Y-54092313D01*
X122599704Y-50007687D02*
X122698522Y-50023015D01*
X122599699Y-54092313D02*
X122698517Y-54076985D01*
X122698522Y-50023015D02*
X122795869Y-50045893D01*
X122698517Y-54076985D02*
X122795864Y-54054107D01*
X122795869Y-50045893D02*
X122891169Y-50076186D01*
X122795864Y-54054107D02*
X122891164Y-54023814D01*
X122891169Y-50076186D02*
X122983859Y-50113715D01*
X122891164Y-54023814D02*
X122983854Y-53986285D01*
X122983859Y-50113715D02*
X123073390Y-50158258D01*
X122983854Y-53986285D02*
X123073385Y-53941742D01*
X123073390Y-50158258D02*
X123159232Y-50209551D01*
X123073385Y-53941742D02*
X123159227Y-53890449D01*
X123159232Y-50209551D02*
X123240877Y-50267291D01*
X123159227Y-53890449D02*
X123240872Y-53832709D01*
X123240877Y-50267291D02*
X123317842Y-50331136D01*
X123240872Y-53832709D02*
X123317837Y-53768864D01*
X123317842Y-50331136D02*
X123389672Y-50400708D01*
X123317837Y-53768864D02*
X123389667Y-53699292D01*
X123389672Y-50400708D02*
X123455942Y-50475595D01*
X123389667Y-53699292D02*
X123455937Y-53624405D01*
X123455942Y-50475595D02*
X123516260Y-50555354D01*
X123455937Y-53624405D02*
X123516255Y-53544646D01*
X123516260Y-50555354D02*
X123570269Y-50639513D01*
X123516255Y-53544646D02*
X123570264Y-53460487D01*
X123570269Y-50639513D02*
X123617649Y-50727574D01*
X123570264Y-53460487D02*
X123617644Y-53372426D01*
X123617649Y-50727574D02*
X123658120Y-50819016D01*
X123617644Y-53372426D02*
X123658115Y-53280984D01*
X123658120Y-50819016D02*
X123691442Y-50913298D01*
X123658115Y-53280984D02*
X123691437Y-53186702D01*
X123691442Y-50913298D02*
X123717418Y-51009862D01*
X123691437Y-53186702D02*
X123717413Y-53090138D01*
X123717418Y-51009862D02*
X123735895Y-51108137D01*
X123717413Y-53090138D02*
X123735890Y-52991863D01*
X123735895Y-51108137D02*
X123746763Y-51207542D01*
X123735890Y-52991863D02*
X123746758Y-52892458D01*
X123746763Y-51207542D02*
X123749958Y-51307488D01*
X123746758Y-52892458D02*
X123749953Y-52792512D01*
X123749953Y-52792512D02*
X123749958Y-51307488D01*
M02*
