G04 #@! TF.GenerationSoftware,KiCad,Pcbnew,5.0.2-bee76a0~70~ubuntu18.04.1*
G04 #@! TF.CreationDate,2020-03-16T11:30:53+01:00*
G04 #@! TF.ProjectId,output.m3_panel,6f757470-7574-42e6-9d33-5f70616e656c,rev?*
G04 #@! TF.SameCoordinates,Original*
G04 #@! TF.FileFunction,Profile,NP*
%FSLAX46Y46*%
G04 Gerber Fmt 4.6, Leading zero omitted, Abs format (unit mm)*
G04 Created by KiCad (PCBNEW 5.0.2-bee76a0~70~ubuntu18.04.1) date Mon 16 Mar 2020 11:30:53 AM CET*
%MOMM*%
%LPD*%
G01*
G04 APERTURE LIST*
%ADD10C,0.150000*%
%ADD11C,0.100000*%
G04 APERTURE END LIST*
D10*
X38000000Y-152000000D02*
X38000000Y-40000000D01*
X234000000Y-152000000D02*
X38000000Y-152000000D01*
X234000000Y-40000000D02*
X234000000Y-152000000D01*
X38000000Y-40000000D02*
X234000000Y-40000000D01*
D11*
X160999998Y-48000000D02*
X180000000Y-48000000D01*
X156999988Y-48000000D02*
X138400000Y-48000000D01*
X160999998Y-48000000D02*
X160901998Y-47980100D01*
X161000070Y-44000000D02*
X160902070Y-44019900D01*
X160901998Y-47980100D02*
X160809918Y-47941096D01*
X160902070Y-44019900D02*
X160809990Y-44058904D01*
X160809918Y-47941096D02*
X160727441Y-47884548D01*
X160809990Y-44058904D02*
X160727513Y-44115452D01*
X160727441Y-47884548D02*
X160657866Y-47812718D01*
X160727513Y-44115452D02*
X160657938Y-44187282D01*
X160657866Y-47812718D02*
X160603976Y-47728479D01*
X160657938Y-44187282D02*
X160604048Y-44271521D01*
X160603976Y-47728479D02*
X160567927Y-47635201D01*
X160604048Y-44271521D02*
X160567999Y-44364799D01*
X160567927Y-47635201D02*
X160551161Y-47536615D01*
X160567999Y-44364799D02*
X160551233Y-44463385D01*
X160551161Y-47536615D02*
X160551233Y-44463385D01*
X157000002Y-44000000D02*
X157098002Y-44019900D01*
X156999988Y-48000000D02*
X157097988Y-47980100D01*
X157098002Y-44019900D02*
X157190082Y-44058904D01*
X157097988Y-47980100D02*
X157190068Y-47941096D01*
X157190082Y-44058904D02*
X157272559Y-44115452D01*
X157190068Y-47941096D02*
X157272545Y-47884548D01*
X157272559Y-44115452D02*
X157342134Y-44187282D01*
X157272545Y-47884548D02*
X157342120Y-47812718D01*
X157342134Y-44187282D02*
X157396024Y-44271521D01*
X157342120Y-47812718D02*
X157396010Y-47728479D01*
X157396024Y-44271521D02*
X157432073Y-44364799D01*
X157396010Y-47728479D02*
X157432059Y-47635201D01*
X157432073Y-44364799D02*
X157448839Y-44463385D01*
X157432059Y-47635201D02*
X157448825Y-47536615D01*
X157448825Y-47536615D02*
X157448839Y-44463385D01*
X180000000Y-59999998D02*
X180000000Y-69000000D01*
X180000000Y-56000000D02*
X180000000Y-48000000D01*
X184400000Y-56000000D02*
X184400000Y-48000000D01*
X184400000Y-59999998D02*
X184400000Y-69000000D01*
X184400000Y-59999998D02*
X184380100Y-59901998D01*
X180000000Y-59999998D02*
X180019900Y-59901998D01*
X184380100Y-59901998D02*
X184341096Y-59809918D01*
X180019900Y-59901998D02*
X180058904Y-59809918D01*
X184341096Y-59809918D02*
X184284548Y-59727441D01*
X180058904Y-59809918D02*
X180115452Y-59727441D01*
X184284548Y-59727441D02*
X184212718Y-59657866D01*
X180115452Y-59727441D02*
X180187282Y-59657866D01*
X184212718Y-59657866D02*
X184128479Y-59603976D01*
X180187282Y-59657866D02*
X180271521Y-59603976D01*
X184128479Y-59603976D02*
X184035201Y-59567927D01*
X180271521Y-59603976D02*
X180364799Y-59567927D01*
X184035201Y-59567927D02*
X183936615Y-59551161D01*
X180364799Y-59567927D02*
X180463385Y-59551161D01*
X180463385Y-59551161D02*
X183936615Y-59551161D01*
X184400000Y-56000000D02*
X184380100Y-56098000D01*
X180000000Y-56000000D02*
X180019900Y-56098000D01*
X184380100Y-56098000D02*
X184341096Y-56190080D01*
X180019900Y-56098000D02*
X180058904Y-56190080D01*
X184341096Y-56190080D02*
X184284548Y-56272557D01*
X180058904Y-56190080D02*
X180115452Y-56272557D01*
X184284548Y-56272557D02*
X184212718Y-56342132D01*
X180115452Y-56272557D02*
X180187282Y-56342132D01*
X184212718Y-56342132D02*
X184128479Y-56396022D01*
X180187282Y-56342132D02*
X180271521Y-56396022D01*
X184128479Y-56396022D02*
X184035201Y-56432071D01*
X180271521Y-56396022D02*
X180364799Y-56432071D01*
X184035201Y-56432071D02*
X183936615Y-56448837D01*
X180364799Y-56432071D02*
X180463385Y-56448837D01*
X180463385Y-56448837D02*
X183936615Y-56448837D01*
X180000000Y-84999998D02*
X180000000Y-94000000D01*
X180000000Y-81000000D02*
X180000000Y-73000000D01*
X184400000Y-81000000D02*
X184400000Y-73000000D01*
X184400000Y-84999998D02*
X184400000Y-94000000D01*
X184400000Y-84999998D02*
X184380100Y-84901998D01*
X180000000Y-84999998D02*
X180019900Y-84901998D01*
X184380100Y-84901998D02*
X184341096Y-84809918D01*
X180019900Y-84901998D02*
X180058904Y-84809918D01*
X184341096Y-84809918D02*
X184284548Y-84727441D01*
X180058904Y-84809918D02*
X180115452Y-84727441D01*
X184284548Y-84727441D02*
X184212718Y-84657866D01*
X180115452Y-84727441D02*
X180187282Y-84657866D01*
X184212718Y-84657866D02*
X184128479Y-84603976D01*
X180187282Y-84657866D02*
X180271521Y-84603976D01*
X184128479Y-84603976D02*
X184035201Y-84567927D01*
X180271521Y-84603976D02*
X180364799Y-84567927D01*
X184035201Y-84567927D02*
X183936615Y-84551161D01*
X180364799Y-84567927D02*
X180463385Y-84551161D01*
X180463385Y-84551161D02*
X183936615Y-84551161D01*
X184400000Y-81000000D02*
X184380100Y-81098000D01*
X180000000Y-81000000D02*
X180019900Y-81098000D01*
X184380100Y-81098000D02*
X184341096Y-81190080D01*
X180019900Y-81098000D02*
X180058904Y-81190080D01*
X184341096Y-81190080D02*
X184284548Y-81272557D01*
X180058904Y-81190080D02*
X180115452Y-81272557D01*
X184284548Y-81272557D02*
X184212718Y-81342132D01*
X180115452Y-81272557D02*
X180187282Y-81342132D01*
X184212718Y-81342132D02*
X184128479Y-81396022D01*
X180187282Y-81342132D02*
X180271521Y-81396022D01*
X184128479Y-81396022D02*
X184035201Y-81432071D01*
X180271521Y-81396022D02*
X180364799Y-81432071D01*
X184035201Y-81432071D02*
X183936615Y-81448837D01*
X180364799Y-81432071D02*
X180463385Y-81448837D01*
X180463385Y-81448837D02*
X183936615Y-81448837D01*
X180000000Y-109999998D02*
X180000000Y-119000000D01*
X180000000Y-106000000D02*
X180000000Y-98000000D01*
X184400000Y-106000000D02*
X184400000Y-98000000D01*
X184400000Y-109999998D02*
X184400000Y-119000000D01*
X184400000Y-109999998D02*
X184380100Y-109901998D01*
X180000000Y-109999998D02*
X180019900Y-109901998D01*
X184380100Y-109901998D02*
X184341096Y-109809918D01*
X180019900Y-109901998D02*
X180058904Y-109809918D01*
X184341096Y-109809918D02*
X184284548Y-109727441D01*
X180058904Y-109809918D02*
X180115452Y-109727441D01*
X184284548Y-109727441D02*
X184212718Y-109657866D01*
X180115452Y-109727441D02*
X180187282Y-109657866D01*
X184212718Y-109657866D02*
X184128479Y-109603976D01*
X180187282Y-109657866D02*
X180271521Y-109603976D01*
X184128479Y-109603976D02*
X184035201Y-109567927D01*
X180271521Y-109603976D02*
X180364799Y-109567927D01*
X184035201Y-109567927D02*
X183936615Y-109551161D01*
X180364799Y-109567927D02*
X180463385Y-109551161D01*
X180463385Y-109551161D02*
X183936615Y-109551161D01*
X184400000Y-106000000D02*
X184380100Y-106098000D01*
X180000000Y-106000000D02*
X180019900Y-106098000D01*
X184380100Y-106098000D02*
X184341096Y-106190080D01*
X180019900Y-106098000D02*
X180058904Y-106190080D01*
X184341096Y-106190080D02*
X184284548Y-106272557D01*
X180058904Y-106190080D02*
X180115452Y-106272557D01*
X184284548Y-106272557D02*
X184212718Y-106342132D01*
X180115452Y-106272557D02*
X180187282Y-106342132D01*
X184212718Y-106342132D02*
X184128479Y-106396022D01*
X180187282Y-106342132D02*
X180271521Y-106396022D01*
X184128479Y-106396022D02*
X184035201Y-106432071D01*
X180271521Y-106396022D02*
X180364799Y-106432071D01*
X184035201Y-106432071D02*
X183936615Y-106448837D01*
X180364799Y-106432071D02*
X180463385Y-106448837D01*
X180463385Y-106448837D02*
X183936615Y-106448837D01*
X180000000Y-134999998D02*
X180000000Y-144000000D01*
X180000000Y-131000000D02*
X180000000Y-123000000D01*
X184400000Y-131000000D02*
X184400000Y-123000000D01*
X184400000Y-134999998D02*
X184400000Y-144000000D01*
X184400000Y-134999998D02*
X184380100Y-134901998D01*
X180000000Y-134999998D02*
X180019900Y-134901998D01*
X184380100Y-134901998D02*
X184341096Y-134809918D01*
X180019900Y-134901998D02*
X180058904Y-134809918D01*
X184341096Y-134809918D02*
X184284548Y-134727441D01*
X180058904Y-134809918D02*
X180115452Y-134727441D01*
X184284548Y-134727441D02*
X184212718Y-134657866D01*
X180115452Y-134727441D02*
X180187282Y-134657866D01*
X184212718Y-134657866D02*
X184128479Y-134603976D01*
X180187282Y-134657866D02*
X180271521Y-134603976D01*
X184128479Y-134603976D02*
X184035201Y-134567927D01*
X180271521Y-134603976D02*
X180364799Y-134567927D01*
X184035201Y-134567927D02*
X183936615Y-134551161D01*
X180364799Y-134567927D02*
X180463385Y-134551161D01*
X180463385Y-134551161D02*
X183936615Y-134551161D01*
X184400000Y-131000000D02*
X184380100Y-131098000D01*
X180000000Y-131000000D02*
X180019900Y-131098000D01*
X184380100Y-131098000D02*
X184341096Y-131190080D01*
X180019900Y-131098000D02*
X180058904Y-131190080D01*
X184341096Y-131190080D02*
X184284548Y-131272557D01*
X180058904Y-131190080D02*
X180115452Y-131272557D01*
X184284548Y-131272557D02*
X184212718Y-131342132D01*
X180115452Y-131272557D02*
X180187282Y-131342132D01*
X184212718Y-131342132D02*
X184128479Y-131396022D01*
X180187282Y-131342132D02*
X180271521Y-131396022D01*
X184128479Y-131396022D02*
X184035201Y-131432071D01*
X180271521Y-131396022D02*
X180364799Y-131432071D01*
X184035201Y-131432071D02*
X183936615Y-131448837D01*
X180364799Y-131432071D02*
X180463385Y-131448837D01*
X180463385Y-131448837D02*
X183936615Y-131448837D01*
X206999998Y-48000000D02*
X226000000Y-48000000D01*
X202999988Y-48000000D02*
X184400000Y-48000000D01*
X203000028Y-44000000D02*
X161000070Y-44000000D01*
X207000000Y-44000000D02*
X230000000Y-44000000D01*
X206999998Y-48000000D02*
X206901998Y-47980100D01*
X207000000Y-44000000D02*
X206902000Y-44019900D01*
X206901998Y-47980100D02*
X206809918Y-47941096D01*
X206902000Y-44019900D02*
X206809920Y-44058904D01*
X206809918Y-47941096D02*
X206727441Y-47884548D01*
X206809920Y-44058904D02*
X206727443Y-44115452D01*
X206727441Y-47884548D02*
X206657866Y-47812718D01*
X206727443Y-44115452D02*
X206657868Y-44187282D01*
X206657866Y-47812718D02*
X206603976Y-47728479D01*
X206657868Y-44187282D02*
X206603978Y-44271521D01*
X206603976Y-47728479D02*
X206567927Y-47635201D01*
X206603978Y-44271521D02*
X206567929Y-44364799D01*
X206567927Y-47635201D02*
X206551161Y-47536615D01*
X206567929Y-44364799D02*
X206551163Y-44463385D01*
X206551161Y-47536615D02*
X206551163Y-44463385D01*
X203000028Y-44000000D02*
X203098028Y-44019900D01*
X202999988Y-48000000D02*
X203097988Y-47980100D01*
X203098028Y-44019900D02*
X203190108Y-44058904D01*
X203097988Y-47980100D02*
X203190068Y-47941096D01*
X203190108Y-44058904D02*
X203272585Y-44115452D01*
X203190068Y-47941096D02*
X203272545Y-47884548D01*
X203272585Y-44115452D02*
X203342160Y-44187282D01*
X203272545Y-47884548D02*
X203342120Y-47812718D01*
X203342160Y-44187282D02*
X203396050Y-44271521D01*
X203342120Y-47812718D02*
X203396010Y-47728479D01*
X203396050Y-44271521D02*
X203432099Y-44364799D01*
X203396010Y-47728479D02*
X203432059Y-47635201D01*
X203432099Y-44364799D02*
X203448865Y-44463385D01*
X203432059Y-47635201D02*
X203448825Y-47536615D01*
X203448825Y-47536615D02*
X203448865Y-44463385D01*
X160999998Y-73000000D02*
X180000000Y-73000000D01*
X156999988Y-73000000D02*
X138400000Y-73000000D01*
X156999988Y-69000000D02*
X138400000Y-69000000D01*
X160999998Y-69000000D02*
X180000000Y-69000000D01*
X160999998Y-69000000D02*
X160901998Y-69019900D01*
X160999998Y-73000000D02*
X160901998Y-72980100D01*
X160901998Y-69019900D02*
X160809918Y-69058904D01*
X160901998Y-72980100D02*
X160809918Y-72941096D01*
X160809918Y-69058904D02*
X160727441Y-69115452D01*
X160809918Y-72941096D02*
X160727441Y-72884548D01*
X160727441Y-69115452D02*
X160657866Y-69187282D01*
X160727441Y-72884548D02*
X160657866Y-72812718D01*
X160657866Y-69187282D02*
X160603976Y-69271521D01*
X160657866Y-72812718D02*
X160603976Y-72728479D01*
X160603976Y-69271521D02*
X160567927Y-69364799D01*
X160603976Y-72728479D02*
X160567927Y-72635201D01*
X160567927Y-69364799D02*
X160551161Y-69463385D01*
X160567927Y-72635201D02*
X160551161Y-72536615D01*
X160551161Y-72536615D02*
X160551161Y-69463385D01*
X156999988Y-69000000D02*
X157097988Y-69019900D01*
X156999988Y-73000000D02*
X157097988Y-72980100D01*
X157097988Y-69019900D02*
X157190068Y-69058904D01*
X157097988Y-72980100D02*
X157190068Y-72941096D01*
X157190068Y-69058904D02*
X157272545Y-69115452D01*
X157190068Y-72941096D02*
X157272545Y-72884548D01*
X157272545Y-69115452D02*
X157342120Y-69187282D01*
X157272545Y-72884548D02*
X157342120Y-72812718D01*
X157342120Y-69187282D02*
X157396010Y-69271521D01*
X157342120Y-72812718D02*
X157396010Y-72728479D01*
X157396010Y-69271521D02*
X157432059Y-69364799D01*
X157396010Y-72728479D02*
X157432059Y-72635201D01*
X157432059Y-69364799D02*
X157448825Y-69463385D01*
X157432059Y-72635201D02*
X157448825Y-72536615D01*
X157448825Y-72536615D02*
X157448825Y-69463385D01*
X206999998Y-73000000D02*
X226000000Y-73000000D01*
X202999988Y-73000000D02*
X184400000Y-73000000D01*
X202999988Y-69000000D02*
X184400000Y-69000000D01*
X206999998Y-69000000D02*
X226000000Y-69000000D01*
X206999998Y-69000000D02*
X206901998Y-69019900D01*
X206999998Y-73000000D02*
X206901998Y-72980100D01*
X206901998Y-69019900D02*
X206809918Y-69058904D01*
X206901998Y-72980100D02*
X206809918Y-72941096D01*
X206809918Y-69058904D02*
X206727441Y-69115452D01*
X206809918Y-72941096D02*
X206727441Y-72884548D01*
X206727441Y-69115452D02*
X206657866Y-69187282D01*
X206727441Y-72884548D02*
X206657866Y-72812718D01*
X206657866Y-69187282D02*
X206603976Y-69271521D01*
X206657866Y-72812718D02*
X206603976Y-72728479D01*
X206603976Y-69271521D02*
X206567927Y-69364799D01*
X206603976Y-72728479D02*
X206567927Y-72635201D01*
X206567927Y-69364799D02*
X206551161Y-69463385D01*
X206567927Y-72635201D02*
X206551161Y-72536615D01*
X206551161Y-72536615D02*
X206551161Y-69463385D01*
X202999988Y-69000000D02*
X203097988Y-69019900D01*
X202999988Y-73000000D02*
X203097988Y-72980100D01*
X203097988Y-69019900D02*
X203190068Y-69058904D01*
X203097988Y-72980100D02*
X203190068Y-72941096D01*
X203190068Y-69058904D02*
X203272545Y-69115452D01*
X203190068Y-72941096D02*
X203272545Y-72884548D01*
X203272545Y-69115452D02*
X203342120Y-69187282D01*
X203272545Y-72884548D02*
X203342120Y-72812718D01*
X203342120Y-69187282D02*
X203396010Y-69271521D01*
X203342120Y-72812718D02*
X203396010Y-72728479D01*
X203396010Y-69271521D02*
X203432059Y-69364799D01*
X203396010Y-72728479D02*
X203432059Y-72635201D01*
X203432059Y-69364799D02*
X203448825Y-69463385D01*
X203432059Y-72635201D02*
X203448825Y-72536615D01*
X203448825Y-72536615D02*
X203448825Y-69463385D01*
X160999998Y-98000000D02*
X180000000Y-98000000D01*
X156999988Y-98000000D02*
X138400000Y-98000000D01*
X156999988Y-94000000D02*
X138400000Y-94000000D01*
X160999998Y-94000000D02*
X180000000Y-94000000D01*
X160999998Y-94000000D02*
X160901998Y-94019900D01*
X160999998Y-98000000D02*
X160901998Y-97980100D01*
X160901998Y-94019900D02*
X160809918Y-94058904D01*
X160901998Y-97980100D02*
X160809918Y-97941096D01*
X160809918Y-94058904D02*
X160727441Y-94115452D01*
X160809918Y-97941096D02*
X160727441Y-97884548D01*
X160727441Y-94115452D02*
X160657866Y-94187282D01*
X160727441Y-97884548D02*
X160657866Y-97812718D01*
X160657866Y-94187282D02*
X160603976Y-94271521D01*
X160657866Y-97812718D02*
X160603976Y-97728479D01*
X160603976Y-94271521D02*
X160567927Y-94364799D01*
X160603976Y-97728479D02*
X160567927Y-97635201D01*
X160567927Y-94364799D02*
X160551161Y-94463385D01*
X160567927Y-97635201D02*
X160551161Y-97536615D01*
X160551161Y-97536615D02*
X160551161Y-94463385D01*
X156999988Y-94000000D02*
X157097988Y-94019900D01*
X156999988Y-98000000D02*
X157097988Y-97980100D01*
X157097988Y-94019900D02*
X157190068Y-94058904D01*
X157097988Y-97980100D02*
X157190068Y-97941096D01*
X157190068Y-94058904D02*
X157272545Y-94115452D01*
X157190068Y-97941096D02*
X157272545Y-97884548D01*
X157272545Y-94115452D02*
X157342120Y-94187282D01*
X157272545Y-97884548D02*
X157342120Y-97812718D01*
X157342120Y-94187282D02*
X157396010Y-94271521D01*
X157342120Y-97812718D02*
X157396010Y-97728479D01*
X157396010Y-94271521D02*
X157432059Y-94364799D01*
X157396010Y-97728479D02*
X157432059Y-97635201D01*
X157432059Y-94364799D02*
X157448825Y-94463385D01*
X157432059Y-97635201D02*
X157448825Y-97536615D01*
X157448825Y-97536615D02*
X157448825Y-94463385D01*
X206999998Y-98000000D02*
X226000000Y-98000000D01*
X202999988Y-98000000D02*
X184400000Y-98000000D01*
X202999988Y-94000000D02*
X184400000Y-94000000D01*
X206999998Y-94000000D02*
X226000000Y-94000000D01*
X206999998Y-94000000D02*
X206901998Y-94019900D01*
X206999998Y-98000000D02*
X206901998Y-97980100D01*
X206901998Y-94019900D02*
X206809918Y-94058904D01*
X206901998Y-97980100D02*
X206809918Y-97941096D01*
X206809918Y-94058904D02*
X206727441Y-94115452D01*
X206809918Y-97941096D02*
X206727441Y-97884548D01*
X206727441Y-94115452D02*
X206657866Y-94187282D01*
X206727441Y-97884548D02*
X206657866Y-97812718D01*
X206657866Y-94187282D02*
X206603976Y-94271521D01*
X206657866Y-97812718D02*
X206603976Y-97728479D01*
X206603976Y-94271521D02*
X206567927Y-94364799D01*
X206603976Y-97728479D02*
X206567927Y-97635201D01*
X206567927Y-94364799D02*
X206551161Y-94463385D01*
X206567927Y-97635201D02*
X206551161Y-97536615D01*
X206551161Y-97536615D02*
X206551161Y-94463385D01*
X202999988Y-94000000D02*
X203097988Y-94019900D01*
X202999988Y-98000000D02*
X203097988Y-97980100D01*
X203097988Y-94019900D02*
X203190068Y-94058904D01*
X203097988Y-97980100D02*
X203190068Y-97941096D01*
X203190068Y-94058904D02*
X203272545Y-94115452D01*
X203190068Y-97941096D02*
X203272545Y-97884548D01*
X203272545Y-94115452D02*
X203342120Y-94187282D01*
X203272545Y-97884548D02*
X203342120Y-97812718D01*
X203342120Y-94187282D02*
X203396010Y-94271521D01*
X203342120Y-97812718D02*
X203396010Y-97728479D01*
X203396010Y-94271521D02*
X203432059Y-94364799D01*
X203396010Y-97728479D02*
X203432059Y-97635201D01*
X203432059Y-94364799D02*
X203448825Y-94463385D01*
X203432059Y-97635201D02*
X203448825Y-97536615D01*
X203448825Y-97536615D02*
X203448825Y-94463385D01*
X160999998Y-123000000D02*
X180000000Y-123000000D01*
X156999988Y-123000000D02*
X138400000Y-123000000D01*
X156999988Y-119000000D02*
X138400000Y-119000000D01*
X160999998Y-119000000D02*
X180000000Y-119000000D01*
X160999998Y-119000000D02*
X160901998Y-119019900D01*
X160999998Y-123000000D02*
X160901998Y-122980100D01*
X160901998Y-119019900D02*
X160809918Y-119058904D01*
X160901998Y-122980100D02*
X160809918Y-122941096D01*
X160809918Y-119058904D02*
X160727441Y-119115452D01*
X160809918Y-122941096D02*
X160727441Y-122884548D01*
X160727441Y-119115452D02*
X160657866Y-119187282D01*
X160727441Y-122884548D02*
X160657866Y-122812718D01*
X160657866Y-119187282D02*
X160603976Y-119271521D01*
X160657866Y-122812718D02*
X160603976Y-122728479D01*
X160603976Y-119271521D02*
X160567927Y-119364799D01*
X160603976Y-122728479D02*
X160567927Y-122635201D01*
X160567927Y-119364799D02*
X160551161Y-119463385D01*
X160567927Y-122635201D02*
X160551161Y-122536615D01*
X160551161Y-122536615D02*
X160551161Y-119463385D01*
X156999988Y-119000000D02*
X157097988Y-119019900D01*
X156999988Y-123000000D02*
X157097988Y-122980100D01*
X157097988Y-119019900D02*
X157190068Y-119058904D01*
X157097988Y-122980100D02*
X157190068Y-122941096D01*
X157190068Y-119058904D02*
X157272545Y-119115452D01*
X157190068Y-122941096D02*
X157272545Y-122884548D01*
X157272545Y-119115452D02*
X157342120Y-119187282D01*
X157272545Y-122884548D02*
X157342120Y-122812718D01*
X157342120Y-119187282D02*
X157396010Y-119271521D01*
X157342120Y-122812718D02*
X157396010Y-122728479D01*
X157396010Y-119271521D02*
X157432059Y-119364799D01*
X157396010Y-122728479D02*
X157432059Y-122635201D01*
X157432059Y-119364799D02*
X157448825Y-119463385D01*
X157432059Y-122635201D02*
X157448825Y-122536615D01*
X157448825Y-122536615D02*
X157448825Y-119463385D01*
X206999998Y-123000000D02*
X226000000Y-123000000D01*
X202999988Y-123000000D02*
X184400000Y-123000000D01*
X202999988Y-119000000D02*
X184400000Y-119000000D01*
X206999998Y-119000000D02*
X226000000Y-119000000D01*
X206999998Y-119000000D02*
X206901998Y-119019900D01*
X206999998Y-123000000D02*
X206901998Y-122980100D01*
X206901998Y-119019900D02*
X206809918Y-119058904D01*
X206901998Y-122980100D02*
X206809918Y-122941096D01*
X206809918Y-119058904D02*
X206727441Y-119115452D01*
X206809918Y-122941096D02*
X206727441Y-122884548D01*
X206727441Y-119115452D02*
X206657866Y-119187282D01*
X206727441Y-122884548D02*
X206657866Y-122812718D01*
X206657866Y-119187282D02*
X206603976Y-119271521D01*
X206657866Y-122812718D02*
X206603976Y-122728479D01*
X206603976Y-119271521D02*
X206567927Y-119364799D01*
X206603976Y-122728479D02*
X206567927Y-122635201D01*
X206567927Y-119364799D02*
X206551161Y-119463385D01*
X206567927Y-122635201D02*
X206551161Y-122536615D01*
X206551161Y-122536615D02*
X206551161Y-119463385D01*
X202999988Y-119000000D02*
X203097988Y-119019900D01*
X202999988Y-123000000D02*
X203097988Y-122980100D01*
X203097988Y-119019900D02*
X203190068Y-119058904D01*
X203097988Y-122980100D02*
X203190068Y-122941096D01*
X203190068Y-119058904D02*
X203272545Y-119115452D01*
X203190068Y-122941096D02*
X203272545Y-122884548D01*
X203272545Y-119115452D02*
X203342120Y-119187282D01*
X203272545Y-122884548D02*
X203342120Y-122812718D01*
X203342120Y-119187282D02*
X203396010Y-119271521D01*
X203342120Y-122812718D02*
X203396010Y-122728479D01*
X203396010Y-119271521D02*
X203432059Y-119364799D01*
X203396010Y-122728479D02*
X203432059Y-122635201D01*
X203432059Y-119364799D02*
X203448825Y-119463385D01*
X203432059Y-122635201D02*
X203448825Y-122536615D01*
X203448825Y-122536615D02*
X203448825Y-119463385D01*
X226000000Y-59999998D02*
X226000000Y-69000000D01*
X226000000Y-56000000D02*
X226000000Y-48000000D01*
X230000000Y-55999988D02*
X230000000Y-44000000D01*
X230000000Y-59999980D02*
X229980100Y-59901980D01*
X226000000Y-59999998D02*
X226019900Y-59901998D01*
X229980100Y-59901980D02*
X229941096Y-59809900D01*
X226019900Y-59901998D02*
X226058904Y-59809918D01*
X229941096Y-59809900D02*
X229884548Y-59727423D01*
X226058904Y-59809918D02*
X226115452Y-59727441D01*
X229884548Y-59727423D02*
X229812718Y-59657848D01*
X226115452Y-59727441D02*
X226187282Y-59657866D01*
X229812718Y-59657848D02*
X229728479Y-59603958D01*
X226187282Y-59657866D02*
X226271521Y-59603976D01*
X229728479Y-59603958D02*
X229635201Y-59567909D01*
X226271521Y-59603976D02*
X226364799Y-59567927D01*
X229635201Y-59567909D02*
X229536615Y-59551143D01*
X226364799Y-59567927D02*
X226463385Y-59551161D01*
X226463385Y-59551161D02*
X229536615Y-59551143D01*
X226000000Y-56000000D02*
X226019900Y-56098000D01*
X230000000Y-55999988D02*
X229980100Y-56097988D01*
X226019900Y-56098000D02*
X226058904Y-56190080D01*
X229980100Y-56097988D02*
X229941096Y-56190068D01*
X226058904Y-56190080D02*
X226115452Y-56272557D01*
X229941096Y-56190068D02*
X229884548Y-56272545D01*
X226115452Y-56272557D02*
X226187282Y-56342132D01*
X229884548Y-56272545D02*
X229812718Y-56342120D01*
X226187282Y-56342132D02*
X226271521Y-56396022D01*
X229812718Y-56342120D02*
X229728479Y-56396010D01*
X226271521Y-56396022D02*
X226364799Y-56432071D01*
X229728479Y-56396010D02*
X229635201Y-56432059D01*
X226364799Y-56432071D02*
X226463385Y-56448837D01*
X229635201Y-56432059D02*
X229536615Y-56448825D01*
X226463385Y-56448837D02*
X229536615Y-56448825D01*
X226000000Y-84999998D02*
X226000000Y-94000000D01*
X226000000Y-81000000D02*
X226000000Y-73000000D01*
X230000000Y-81000010D02*
X230000000Y-59999980D01*
X226000000Y-84999998D02*
X226019900Y-84901998D01*
X230000000Y-85000050D02*
X229980100Y-84902050D01*
X226019900Y-84901998D02*
X226058904Y-84809918D01*
X229980100Y-84902050D02*
X229941096Y-84809970D01*
X226058904Y-84809918D02*
X226115452Y-84727441D01*
X229941096Y-84809970D02*
X229884548Y-84727493D01*
X226115452Y-84727441D02*
X226187282Y-84657866D01*
X229884548Y-84727493D02*
X229812718Y-84657918D01*
X226187282Y-84657866D02*
X226271521Y-84603976D01*
X229812718Y-84657918D02*
X229728479Y-84604028D01*
X226271521Y-84603976D02*
X226364799Y-84567927D01*
X229728479Y-84604028D02*
X229635201Y-84567979D01*
X226364799Y-84567927D02*
X226463385Y-84551161D01*
X229635201Y-84567979D02*
X229536615Y-84551213D01*
X226463385Y-84551161D02*
X229536615Y-84551213D01*
X230000000Y-81000010D02*
X229980100Y-81098010D01*
X226000000Y-81000000D02*
X226019900Y-81098000D01*
X229980100Y-81098010D02*
X229941096Y-81190090D01*
X226019900Y-81098000D02*
X226058904Y-81190080D01*
X229941096Y-81190090D02*
X229884548Y-81272567D01*
X226058904Y-81190080D02*
X226115452Y-81272557D01*
X229884548Y-81272567D02*
X229812718Y-81342142D01*
X226115452Y-81272557D02*
X226187282Y-81342132D01*
X229812718Y-81342142D02*
X229728479Y-81396032D01*
X226187282Y-81342132D02*
X226271521Y-81396022D01*
X229728479Y-81396032D02*
X229635201Y-81432081D01*
X226271521Y-81396022D02*
X226364799Y-81432071D01*
X229635201Y-81432081D02*
X229536615Y-81448847D01*
X226364799Y-81432071D02*
X226463385Y-81448837D01*
X226463385Y-81448837D02*
X229536615Y-81448847D01*
X226000000Y-109999998D02*
X226000000Y-119000000D01*
X226000000Y-106000000D02*
X226000000Y-98000000D01*
X230000000Y-106000016D02*
X230000000Y-85000050D01*
X226000000Y-109999998D02*
X226019900Y-109901998D01*
X230000000Y-110000000D02*
X229980100Y-109902000D01*
X226019900Y-109901998D02*
X226058904Y-109809918D01*
X229980100Y-109902000D02*
X229941096Y-109809920D01*
X226058904Y-109809918D02*
X226115452Y-109727441D01*
X229941096Y-109809920D02*
X229884548Y-109727443D01*
X226115452Y-109727441D02*
X226187282Y-109657866D01*
X229884548Y-109727443D02*
X229812718Y-109657868D01*
X226187282Y-109657866D02*
X226271521Y-109603976D01*
X229812718Y-109657868D02*
X229728479Y-109603978D01*
X226271521Y-109603976D02*
X226364799Y-109567927D01*
X229728479Y-109603978D02*
X229635201Y-109567929D01*
X226364799Y-109567927D02*
X226463385Y-109551161D01*
X229635201Y-109567929D02*
X229536615Y-109551163D01*
X226463385Y-109551161D02*
X229536615Y-109551163D01*
X230000000Y-106000016D02*
X229980100Y-106098016D01*
X226000000Y-106000000D02*
X226019900Y-106098000D01*
X229980100Y-106098016D02*
X229941096Y-106190096D01*
X226019900Y-106098000D02*
X226058904Y-106190080D01*
X229941096Y-106190096D02*
X229884548Y-106272573D01*
X226058904Y-106190080D02*
X226115452Y-106272557D01*
X229884548Y-106272573D02*
X229812718Y-106342148D01*
X226115452Y-106272557D02*
X226187282Y-106342132D01*
X229812718Y-106342148D02*
X229728479Y-106396038D01*
X226187282Y-106342132D02*
X226271521Y-106396022D01*
X229728479Y-106396038D02*
X229635201Y-106432087D01*
X226271521Y-106396022D02*
X226364799Y-106432071D01*
X229635201Y-106432087D02*
X229536615Y-106448853D01*
X226364799Y-106432071D02*
X226463385Y-106448837D01*
X226463385Y-106448837D02*
X229536615Y-106448853D01*
X226000000Y-134999998D02*
X226000000Y-144000000D01*
X226000000Y-131000000D02*
X226000000Y-123000000D01*
X230000000Y-131000012D02*
X230000000Y-110000000D01*
X230000000Y-135000010D02*
X230000000Y-148000000D01*
X226000000Y-134999998D02*
X226019900Y-134901998D01*
X230000000Y-135000010D02*
X229980100Y-134902010D01*
X226019900Y-134901998D02*
X226058904Y-134809918D01*
X229980100Y-134902010D02*
X229941096Y-134809930D01*
X226058904Y-134809918D02*
X226115452Y-134727441D01*
X229941096Y-134809930D02*
X229884548Y-134727453D01*
X226115452Y-134727441D02*
X226187282Y-134657866D01*
X229884548Y-134727453D02*
X229812718Y-134657878D01*
X226187282Y-134657866D02*
X226271521Y-134603976D01*
X229812718Y-134657878D02*
X229728479Y-134603988D01*
X226271521Y-134603976D02*
X226364799Y-134567927D01*
X229728479Y-134603988D02*
X229635201Y-134567939D01*
X226364799Y-134567927D02*
X226463385Y-134551161D01*
X229635201Y-134567939D02*
X229536615Y-134551173D01*
X226463385Y-134551161D02*
X229536615Y-134551173D01*
X230000000Y-131000012D02*
X229980100Y-131098012D01*
X226000000Y-131000000D02*
X226019900Y-131098000D01*
X229980100Y-131098012D02*
X229941096Y-131190092D01*
X226019900Y-131098000D02*
X226058904Y-131190080D01*
X229941096Y-131190092D02*
X229884548Y-131272569D01*
X226058904Y-131190080D02*
X226115452Y-131272557D01*
X229884548Y-131272569D02*
X229812718Y-131342144D01*
X226115452Y-131272557D02*
X226187282Y-131342132D01*
X229812718Y-131342144D02*
X229728479Y-131396034D01*
X226187282Y-131342132D02*
X226271521Y-131396022D01*
X229728479Y-131396034D02*
X229635201Y-131432083D01*
X226271521Y-131396022D02*
X226364799Y-131432071D01*
X229635201Y-131432083D02*
X229536615Y-131448849D01*
X226364799Y-131432071D02*
X226463385Y-131448837D01*
X226463385Y-131448837D02*
X229536615Y-131448849D01*
X202999988Y-144000000D02*
X184400000Y-144000000D01*
X206999998Y-144000000D02*
X226000000Y-144000000D01*
X207000000Y-148000000D02*
X230000000Y-148000000D01*
X202999990Y-148000000D02*
X203097990Y-147980100D01*
X202999988Y-144000000D02*
X203097988Y-144019900D01*
X203097990Y-147980100D02*
X203190070Y-147941096D01*
X203097988Y-144019900D02*
X203190068Y-144058904D01*
X203190070Y-147941096D02*
X203272547Y-147884548D01*
X203190068Y-144058904D02*
X203272545Y-144115452D01*
X203272547Y-147884548D02*
X203342122Y-147812718D01*
X203272545Y-144115452D02*
X203342120Y-144187282D01*
X203342122Y-147812718D02*
X203396012Y-147728479D01*
X203342120Y-144187282D02*
X203396010Y-144271521D01*
X203396012Y-147728479D02*
X203432061Y-147635201D01*
X203396010Y-144271521D02*
X203432059Y-144364799D01*
X203432061Y-147635201D02*
X203448827Y-147536615D01*
X203432059Y-144364799D02*
X203448825Y-144463385D01*
X203448825Y-144463385D02*
X203448827Y-147536615D01*
X206999998Y-144000000D02*
X206901998Y-144019900D01*
X207000000Y-148000000D02*
X206902000Y-147980100D01*
X206901998Y-144019900D02*
X206809918Y-144058904D01*
X206902000Y-147980100D02*
X206809920Y-147941096D01*
X206809918Y-144058904D02*
X206727441Y-144115452D01*
X206809920Y-147941096D02*
X206727443Y-147884548D01*
X206727441Y-144115452D02*
X206657866Y-144187282D01*
X206727443Y-147884548D02*
X206657868Y-147812718D01*
X206657866Y-144187282D02*
X206603976Y-144271521D01*
X206657868Y-147812718D02*
X206603978Y-147728479D01*
X206603976Y-144271521D02*
X206567927Y-144364799D01*
X206603978Y-147728479D02*
X206567929Y-147635201D01*
X206567927Y-144364799D02*
X206551161Y-144463385D01*
X206567929Y-147635201D02*
X206551163Y-147536615D01*
X206551161Y-144463385D02*
X206551163Y-147536615D01*
X156999988Y-144000000D02*
X138400000Y-144000000D01*
X160999998Y-144000000D02*
X180000000Y-144000000D01*
X160999976Y-148000000D02*
X202999990Y-148000000D01*
X157000002Y-148000000D02*
X157098002Y-147980100D01*
X156999988Y-144000000D02*
X157097988Y-144019900D01*
X157098002Y-147980100D02*
X157190082Y-147941096D01*
X157097988Y-144019900D02*
X157190068Y-144058904D01*
X157190082Y-147941096D02*
X157272559Y-147884548D01*
X157190068Y-144058904D02*
X157272545Y-144115452D01*
X157272559Y-147884548D02*
X157342134Y-147812718D01*
X157272545Y-144115452D02*
X157342120Y-144187282D01*
X157342134Y-147812718D02*
X157396024Y-147728479D01*
X157342120Y-144187282D02*
X157396010Y-144271521D01*
X157396024Y-147728479D02*
X157432073Y-147635201D01*
X157396010Y-144271521D02*
X157432059Y-144364799D01*
X157432073Y-147635201D02*
X157448839Y-147536615D01*
X157432059Y-144364799D02*
X157448825Y-144463385D01*
X157448825Y-144463385D02*
X157448839Y-147536615D01*
X160999976Y-148000000D02*
X160901976Y-147980100D01*
X160999998Y-144000000D02*
X160901998Y-144019900D01*
X160901976Y-147980100D02*
X160809896Y-147941096D01*
X160901998Y-144019900D02*
X160809918Y-144058904D01*
X160809896Y-147941096D02*
X160727419Y-147884548D01*
X160809918Y-144058904D02*
X160727441Y-144115452D01*
X160727419Y-147884548D02*
X160657844Y-147812718D01*
X160727441Y-144115452D02*
X160657866Y-144187282D01*
X160657844Y-147812718D02*
X160603954Y-147728479D01*
X160657866Y-144187282D02*
X160603976Y-144271521D01*
X160603954Y-147728479D02*
X160567905Y-147635201D01*
X160603976Y-144271521D02*
X160567927Y-144364799D01*
X160567905Y-147635201D02*
X160551139Y-147536615D01*
X160567927Y-144364799D02*
X160551161Y-144463385D01*
X160551161Y-144463385D02*
X160551139Y-147536615D01*
X64999988Y-144000000D02*
X46400000Y-144000000D01*
X68999998Y-144000000D02*
X88000000Y-144000000D01*
X65000000Y-148000000D02*
X42000000Y-148000000D01*
X65000000Y-148000000D02*
X65098000Y-147980100D01*
X64999988Y-144000000D02*
X65097988Y-144019900D01*
X65098000Y-147980100D02*
X65190080Y-147941096D01*
X65097988Y-144019900D02*
X65190068Y-144058904D01*
X65190080Y-147941096D02*
X65272557Y-147884548D01*
X65190068Y-144058904D02*
X65272545Y-144115452D01*
X65272557Y-147884548D02*
X65342132Y-147812718D01*
X65272545Y-144115452D02*
X65342120Y-144187282D01*
X65342132Y-147812718D02*
X65396022Y-147728479D01*
X65342120Y-144187282D02*
X65396010Y-144271521D01*
X65396022Y-147728479D02*
X65432071Y-147635201D01*
X65396010Y-144271521D02*
X65432059Y-144364799D01*
X65432071Y-147635201D02*
X65448837Y-147536615D01*
X65432059Y-144364799D02*
X65448825Y-144463385D01*
X65448825Y-144463385D02*
X65448837Y-147536615D01*
X68999980Y-148000000D02*
X68901980Y-147980100D01*
X68999998Y-144000000D02*
X68901998Y-144019900D01*
X68901980Y-147980100D02*
X68809900Y-147941096D01*
X68901998Y-144019900D02*
X68809918Y-144058904D01*
X68809900Y-147941096D02*
X68727423Y-147884548D01*
X68809918Y-144058904D02*
X68727441Y-144115452D01*
X68727423Y-147884548D02*
X68657848Y-147812718D01*
X68727441Y-144115452D02*
X68657866Y-144187282D01*
X68657848Y-147812718D02*
X68603958Y-147728479D01*
X68657866Y-144187282D02*
X68603976Y-144271521D01*
X68603958Y-147728479D02*
X68567909Y-147635201D01*
X68603976Y-144271521D02*
X68567927Y-144364799D01*
X68567909Y-147635201D02*
X68551143Y-147536615D01*
X68567927Y-144364799D02*
X68551161Y-144463385D01*
X68551161Y-144463385D02*
X68551143Y-147536615D01*
X110999988Y-144000000D02*
X92400000Y-144000000D01*
X114999998Y-144000000D02*
X134000000Y-144000000D01*
X111000024Y-148000000D02*
X68999980Y-148000000D01*
X114999976Y-148000000D02*
X157000002Y-148000000D01*
X111000024Y-148000000D02*
X111098024Y-147980100D01*
X110999988Y-144000000D02*
X111097988Y-144019900D01*
X111098024Y-147980100D02*
X111190104Y-147941096D01*
X111097988Y-144019900D02*
X111190068Y-144058904D01*
X111190104Y-147941096D02*
X111272581Y-147884548D01*
X111190068Y-144058904D02*
X111272545Y-144115452D01*
X111272581Y-147884548D02*
X111342156Y-147812718D01*
X111272545Y-144115452D02*
X111342120Y-144187282D01*
X111342156Y-147812718D02*
X111396046Y-147728479D01*
X111342120Y-144187282D02*
X111396010Y-144271521D01*
X111396046Y-147728479D02*
X111432095Y-147635201D01*
X111396010Y-144271521D02*
X111432059Y-144364799D01*
X111432095Y-147635201D02*
X111448861Y-147536615D01*
X111432059Y-144364799D02*
X111448825Y-144463385D01*
X111448825Y-144463385D02*
X111448861Y-147536615D01*
X114999976Y-148000000D02*
X114901976Y-147980100D01*
X114999998Y-144000000D02*
X114901998Y-144019900D01*
X114901976Y-147980100D02*
X114809896Y-147941096D01*
X114901998Y-144019900D02*
X114809918Y-144058904D01*
X114809896Y-147941096D02*
X114727419Y-147884548D01*
X114809918Y-144058904D02*
X114727441Y-144115452D01*
X114727419Y-147884548D02*
X114657844Y-147812718D01*
X114727441Y-144115452D02*
X114657866Y-144187282D01*
X114657844Y-147812718D02*
X114603954Y-147728479D01*
X114657866Y-144187282D02*
X114603976Y-144271521D01*
X114603954Y-147728479D02*
X114567905Y-147635201D01*
X114603976Y-144271521D02*
X114567927Y-144364799D01*
X114567905Y-147635201D02*
X114551139Y-147536615D01*
X114567927Y-144364799D02*
X114551161Y-144463385D01*
X114551161Y-144463385D02*
X114551139Y-147536615D01*
X134000000Y-134999998D02*
X134000000Y-144000000D01*
X134000000Y-131000000D02*
X134000000Y-123000000D01*
X138400000Y-131000000D02*
X138400000Y-123000000D01*
X138400000Y-134999998D02*
X138400000Y-144000000D01*
X138400000Y-134999998D02*
X138380100Y-134901998D01*
X134000000Y-134999998D02*
X134019900Y-134901998D01*
X138380100Y-134901998D02*
X138341096Y-134809918D01*
X134019900Y-134901998D02*
X134058904Y-134809918D01*
X138341096Y-134809918D02*
X138284548Y-134727441D01*
X134058904Y-134809918D02*
X134115452Y-134727441D01*
X138284548Y-134727441D02*
X138212718Y-134657866D01*
X134115452Y-134727441D02*
X134187282Y-134657866D01*
X138212718Y-134657866D02*
X138128479Y-134603976D01*
X134187282Y-134657866D02*
X134271521Y-134603976D01*
X138128479Y-134603976D02*
X138035201Y-134567927D01*
X134271521Y-134603976D02*
X134364799Y-134567927D01*
X138035201Y-134567927D02*
X137936615Y-134551161D01*
X134364799Y-134567927D02*
X134463385Y-134551161D01*
X134463385Y-134551161D02*
X137936615Y-134551161D01*
X138400000Y-131000000D02*
X138380100Y-131098000D01*
X134000000Y-131000000D02*
X134019900Y-131098000D01*
X138380100Y-131098000D02*
X138341096Y-131190080D01*
X134019900Y-131098000D02*
X134058904Y-131190080D01*
X138341096Y-131190080D02*
X138284548Y-131272557D01*
X134058904Y-131190080D02*
X134115452Y-131272557D01*
X138284548Y-131272557D02*
X138212718Y-131342132D01*
X134115452Y-131272557D02*
X134187282Y-131342132D01*
X138212718Y-131342132D02*
X138128479Y-131396022D01*
X134187282Y-131342132D02*
X134271521Y-131396022D01*
X138128479Y-131396022D02*
X138035201Y-131432071D01*
X134271521Y-131396022D02*
X134364799Y-131432071D01*
X138035201Y-131432071D02*
X137936615Y-131448837D01*
X134364799Y-131432071D02*
X134463385Y-131448837D01*
X134463385Y-131448837D02*
X137936615Y-131448837D01*
X134000000Y-109999998D02*
X134000000Y-119000000D01*
X134000000Y-106000000D02*
X134000000Y-98000000D01*
X138400000Y-106000000D02*
X138400000Y-98000000D01*
X138400000Y-109999998D02*
X138400000Y-119000000D01*
X138400000Y-109999998D02*
X138380100Y-109901998D01*
X134000000Y-109999998D02*
X134019900Y-109901998D01*
X138380100Y-109901998D02*
X138341096Y-109809918D01*
X134019900Y-109901998D02*
X134058904Y-109809918D01*
X138341096Y-109809918D02*
X138284548Y-109727441D01*
X134058904Y-109809918D02*
X134115452Y-109727441D01*
X138284548Y-109727441D02*
X138212718Y-109657866D01*
X134115452Y-109727441D02*
X134187282Y-109657866D01*
X138212718Y-109657866D02*
X138128479Y-109603976D01*
X134187282Y-109657866D02*
X134271521Y-109603976D01*
X138128479Y-109603976D02*
X138035201Y-109567927D01*
X134271521Y-109603976D02*
X134364799Y-109567927D01*
X138035201Y-109567927D02*
X137936615Y-109551161D01*
X134364799Y-109567927D02*
X134463385Y-109551161D01*
X134463385Y-109551161D02*
X137936615Y-109551161D01*
X138400000Y-106000000D02*
X138380100Y-106098000D01*
X134000000Y-106000000D02*
X134019900Y-106098000D01*
X138380100Y-106098000D02*
X138341096Y-106190080D01*
X134019900Y-106098000D02*
X134058904Y-106190080D01*
X138341096Y-106190080D02*
X138284548Y-106272557D01*
X134058904Y-106190080D02*
X134115452Y-106272557D01*
X138284548Y-106272557D02*
X138212718Y-106342132D01*
X134115452Y-106272557D02*
X134187282Y-106342132D01*
X138212718Y-106342132D02*
X138128479Y-106396022D01*
X134187282Y-106342132D02*
X134271521Y-106396022D01*
X138128479Y-106396022D02*
X138035201Y-106432071D01*
X134271521Y-106396022D02*
X134364799Y-106432071D01*
X138035201Y-106432071D02*
X137936615Y-106448837D01*
X134364799Y-106432071D02*
X134463385Y-106448837D01*
X134463385Y-106448837D02*
X137936615Y-106448837D01*
X134000000Y-84999998D02*
X134000000Y-94000000D01*
X134000000Y-81000000D02*
X134000000Y-73000000D01*
X138400000Y-81000000D02*
X138400000Y-73000000D01*
X138400000Y-84999998D02*
X138400000Y-94000000D01*
X138400000Y-84999998D02*
X138380100Y-84901998D01*
X134000000Y-84999998D02*
X134019900Y-84901998D01*
X138380100Y-84901998D02*
X138341096Y-84809918D01*
X134019900Y-84901998D02*
X134058904Y-84809918D01*
X138341096Y-84809918D02*
X138284548Y-84727441D01*
X134058904Y-84809918D02*
X134115452Y-84727441D01*
X138284548Y-84727441D02*
X138212718Y-84657866D01*
X134115452Y-84727441D02*
X134187282Y-84657866D01*
X138212718Y-84657866D02*
X138128479Y-84603976D01*
X134187282Y-84657866D02*
X134271521Y-84603976D01*
X138128479Y-84603976D02*
X138035201Y-84567927D01*
X134271521Y-84603976D02*
X134364799Y-84567927D01*
X138035201Y-84567927D02*
X137936615Y-84551161D01*
X134364799Y-84567927D02*
X134463385Y-84551161D01*
X134463385Y-84551161D02*
X137936615Y-84551161D01*
X138400000Y-81000000D02*
X138380100Y-81098000D01*
X134000000Y-81000000D02*
X134019900Y-81098000D01*
X138380100Y-81098000D02*
X138341096Y-81190080D01*
X134019900Y-81098000D02*
X134058904Y-81190080D01*
X138341096Y-81190080D02*
X138284548Y-81272557D01*
X134058904Y-81190080D02*
X134115452Y-81272557D01*
X138284548Y-81272557D02*
X138212718Y-81342132D01*
X134115452Y-81272557D02*
X134187282Y-81342132D01*
X138212718Y-81342132D02*
X138128479Y-81396022D01*
X134187282Y-81342132D02*
X134271521Y-81396022D01*
X138128479Y-81396022D02*
X138035201Y-81432071D01*
X134271521Y-81396022D02*
X134364799Y-81432071D01*
X138035201Y-81432071D02*
X137936615Y-81448837D01*
X134364799Y-81432071D02*
X134463385Y-81448837D01*
X134463385Y-81448837D02*
X137936615Y-81448837D01*
X134000000Y-59999998D02*
X134000000Y-69000000D01*
X134000000Y-56000000D02*
X134000000Y-48000000D01*
X138400000Y-56000000D02*
X138400000Y-48000000D01*
X138400000Y-59999998D02*
X138400000Y-69000000D01*
X138400000Y-59999998D02*
X138380100Y-59901998D01*
X134000000Y-59999998D02*
X134019900Y-59901998D01*
X138380100Y-59901998D02*
X138341096Y-59809918D01*
X134019900Y-59901998D02*
X134058904Y-59809918D01*
X138341096Y-59809918D02*
X138284548Y-59727441D01*
X134058904Y-59809918D02*
X134115452Y-59727441D01*
X138284548Y-59727441D02*
X138212718Y-59657866D01*
X134115452Y-59727441D02*
X134187282Y-59657866D01*
X138212718Y-59657866D02*
X138128479Y-59603976D01*
X134187282Y-59657866D02*
X134271521Y-59603976D01*
X138128479Y-59603976D02*
X138035201Y-59567927D01*
X134271521Y-59603976D02*
X134364799Y-59567927D01*
X138035201Y-59567927D02*
X137936615Y-59551161D01*
X134364799Y-59567927D02*
X134463385Y-59551161D01*
X134463385Y-59551161D02*
X137936615Y-59551161D01*
X138400000Y-56000000D02*
X138380100Y-56098000D01*
X134000000Y-56000000D02*
X134019900Y-56098000D01*
X138380100Y-56098000D02*
X138341096Y-56190080D01*
X134019900Y-56098000D02*
X134058904Y-56190080D01*
X138341096Y-56190080D02*
X138284548Y-56272557D01*
X134058904Y-56190080D02*
X134115452Y-56272557D01*
X138284548Y-56272557D02*
X138212718Y-56342132D01*
X134115452Y-56272557D02*
X134187282Y-56342132D01*
X138212718Y-56342132D02*
X138128479Y-56396022D01*
X134187282Y-56342132D02*
X134271521Y-56396022D01*
X138128479Y-56396022D02*
X138035201Y-56432071D01*
X134271521Y-56396022D02*
X134364799Y-56432071D01*
X138035201Y-56432071D02*
X137936615Y-56448837D01*
X134364799Y-56432071D02*
X134463385Y-56448837D01*
X134463385Y-56448837D02*
X137936615Y-56448837D01*
X114999998Y-123000000D02*
X134000000Y-123000000D01*
X110999988Y-123000000D02*
X92400000Y-123000000D01*
X110999988Y-119000000D02*
X92400000Y-119000000D01*
X114999998Y-119000000D02*
X134000000Y-119000000D01*
X114999998Y-119000000D02*
X114901998Y-119019900D01*
X114999998Y-123000000D02*
X114901998Y-122980100D01*
X114901998Y-119019900D02*
X114809918Y-119058904D01*
X114901998Y-122980100D02*
X114809918Y-122941096D01*
X114809918Y-119058904D02*
X114727441Y-119115452D01*
X114809918Y-122941096D02*
X114727441Y-122884548D01*
X114727441Y-119115452D02*
X114657866Y-119187282D01*
X114727441Y-122884548D02*
X114657866Y-122812718D01*
X114657866Y-119187282D02*
X114603976Y-119271521D01*
X114657866Y-122812718D02*
X114603976Y-122728479D01*
X114603976Y-119271521D02*
X114567927Y-119364799D01*
X114603976Y-122728479D02*
X114567927Y-122635201D01*
X114567927Y-119364799D02*
X114551161Y-119463385D01*
X114567927Y-122635201D02*
X114551161Y-122536615D01*
X114551161Y-122536615D02*
X114551161Y-119463385D01*
X110999988Y-119000000D02*
X111097988Y-119019900D01*
X110999988Y-123000000D02*
X111097988Y-122980100D01*
X111097988Y-119019900D02*
X111190068Y-119058904D01*
X111097988Y-122980100D02*
X111190068Y-122941096D01*
X111190068Y-119058904D02*
X111272545Y-119115452D01*
X111190068Y-122941096D02*
X111272545Y-122884548D01*
X111272545Y-119115452D02*
X111342120Y-119187282D01*
X111272545Y-122884548D02*
X111342120Y-122812718D01*
X111342120Y-119187282D02*
X111396010Y-119271521D01*
X111342120Y-122812718D02*
X111396010Y-122728479D01*
X111396010Y-119271521D02*
X111432059Y-119364799D01*
X111396010Y-122728479D02*
X111432059Y-122635201D01*
X111432059Y-119364799D02*
X111448825Y-119463385D01*
X111432059Y-122635201D02*
X111448825Y-122536615D01*
X111448825Y-122536615D02*
X111448825Y-119463385D01*
X68999998Y-123000000D02*
X88000000Y-123000000D01*
X64999988Y-123000000D02*
X46400000Y-123000000D01*
X64999988Y-119000000D02*
X46400000Y-119000000D01*
X68999998Y-119000000D02*
X88000000Y-119000000D01*
X68999998Y-119000000D02*
X68901998Y-119019900D01*
X68999998Y-123000000D02*
X68901998Y-122980100D01*
X68901998Y-119019900D02*
X68809918Y-119058904D01*
X68901998Y-122980100D02*
X68809918Y-122941096D01*
X68809918Y-119058904D02*
X68727441Y-119115452D01*
X68809918Y-122941096D02*
X68727441Y-122884548D01*
X68727441Y-119115452D02*
X68657866Y-119187282D01*
X68727441Y-122884548D02*
X68657866Y-122812718D01*
X68657866Y-119187282D02*
X68603976Y-119271521D01*
X68657866Y-122812718D02*
X68603976Y-122728479D01*
X68603976Y-119271521D02*
X68567927Y-119364799D01*
X68603976Y-122728479D02*
X68567927Y-122635201D01*
X68567927Y-119364799D02*
X68551161Y-119463385D01*
X68567927Y-122635201D02*
X68551161Y-122536615D01*
X68551161Y-122536615D02*
X68551161Y-119463385D01*
X64999988Y-119000000D02*
X65097988Y-119019900D01*
X64999988Y-123000000D02*
X65097988Y-122980100D01*
X65097988Y-119019900D02*
X65190068Y-119058904D01*
X65097988Y-122980100D02*
X65190068Y-122941096D01*
X65190068Y-119058904D02*
X65272545Y-119115452D01*
X65190068Y-122941096D02*
X65272545Y-122884548D01*
X65272545Y-119115452D02*
X65342120Y-119187282D01*
X65272545Y-122884548D02*
X65342120Y-122812718D01*
X65342120Y-119187282D02*
X65396010Y-119271521D01*
X65342120Y-122812718D02*
X65396010Y-122728479D01*
X65396010Y-119271521D02*
X65432059Y-119364799D01*
X65396010Y-122728479D02*
X65432059Y-122635201D01*
X65432059Y-119364799D02*
X65448825Y-119463385D01*
X65432059Y-122635201D02*
X65448825Y-122536615D01*
X65448825Y-122536615D02*
X65448825Y-119463385D01*
X114999998Y-98000000D02*
X134000000Y-98000000D01*
X110999988Y-98000000D02*
X92400000Y-98000000D01*
X110999988Y-94000000D02*
X92400000Y-94000000D01*
X114999998Y-94000000D02*
X134000000Y-94000000D01*
X114999998Y-94000000D02*
X114901998Y-94019900D01*
X114999998Y-98000000D02*
X114901998Y-97980100D01*
X114901998Y-94019900D02*
X114809918Y-94058904D01*
X114901998Y-97980100D02*
X114809918Y-97941096D01*
X114809918Y-94058904D02*
X114727441Y-94115452D01*
X114809918Y-97941096D02*
X114727441Y-97884548D01*
X114727441Y-94115452D02*
X114657866Y-94187282D01*
X114727441Y-97884548D02*
X114657866Y-97812718D01*
X114657866Y-94187282D02*
X114603976Y-94271521D01*
X114657866Y-97812718D02*
X114603976Y-97728479D01*
X114603976Y-94271521D02*
X114567927Y-94364799D01*
X114603976Y-97728479D02*
X114567927Y-97635201D01*
X114567927Y-94364799D02*
X114551161Y-94463385D01*
X114567927Y-97635201D02*
X114551161Y-97536615D01*
X114551161Y-97536615D02*
X114551161Y-94463385D01*
X110999988Y-94000000D02*
X111097988Y-94019900D01*
X110999988Y-98000000D02*
X111097988Y-97980100D01*
X111097988Y-94019900D02*
X111190068Y-94058904D01*
X111097988Y-97980100D02*
X111190068Y-97941096D01*
X111190068Y-94058904D02*
X111272545Y-94115452D01*
X111190068Y-97941096D02*
X111272545Y-97884548D01*
X111272545Y-94115452D02*
X111342120Y-94187282D01*
X111272545Y-97884548D02*
X111342120Y-97812718D01*
X111342120Y-94187282D02*
X111396010Y-94271521D01*
X111342120Y-97812718D02*
X111396010Y-97728479D01*
X111396010Y-94271521D02*
X111432059Y-94364799D01*
X111396010Y-97728479D02*
X111432059Y-97635201D01*
X111432059Y-94364799D02*
X111448825Y-94463385D01*
X111432059Y-97635201D02*
X111448825Y-97536615D01*
X111448825Y-97536615D02*
X111448825Y-94463385D01*
X68999998Y-98000000D02*
X88000000Y-98000000D01*
X64999988Y-98000000D02*
X46400000Y-98000000D01*
X64999988Y-94000000D02*
X46400000Y-94000000D01*
X68999998Y-94000000D02*
X88000000Y-94000000D01*
X68999998Y-94000000D02*
X68901998Y-94019900D01*
X68999998Y-98000000D02*
X68901998Y-97980100D01*
X68901998Y-94019900D02*
X68809918Y-94058904D01*
X68901998Y-97980100D02*
X68809918Y-97941096D01*
X68809918Y-94058904D02*
X68727441Y-94115452D01*
X68809918Y-97941096D02*
X68727441Y-97884548D01*
X68727441Y-94115452D02*
X68657866Y-94187282D01*
X68727441Y-97884548D02*
X68657866Y-97812718D01*
X68657866Y-94187282D02*
X68603976Y-94271521D01*
X68657866Y-97812718D02*
X68603976Y-97728479D01*
X68603976Y-94271521D02*
X68567927Y-94364799D01*
X68603976Y-97728479D02*
X68567927Y-97635201D01*
X68567927Y-94364799D02*
X68551161Y-94463385D01*
X68567927Y-97635201D02*
X68551161Y-97536615D01*
X68551161Y-97536615D02*
X68551161Y-94463385D01*
X64999988Y-94000000D02*
X65097988Y-94019900D01*
X64999988Y-98000000D02*
X65097988Y-97980100D01*
X65097988Y-94019900D02*
X65190068Y-94058904D01*
X65097988Y-97980100D02*
X65190068Y-97941096D01*
X65190068Y-94058904D02*
X65272545Y-94115452D01*
X65190068Y-97941096D02*
X65272545Y-97884548D01*
X65272545Y-94115452D02*
X65342120Y-94187282D01*
X65272545Y-97884548D02*
X65342120Y-97812718D01*
X65342120Y-94187282D02*
X65396010Y-94271521D01*
X65342120Y-97812718D02*
X65396010Y-97728479D01*
X65396010Y-94271521D02*
X65432059Y-94364799D01*
X65396010Y-97728479D02*
X65432059Y-97635201D01*
X65432059Y-94364799D02*
X65448825Y-94463385D01*
X65432059Y-97635201D02*
X65448825Y-97536615D01*
X65448825Y-97536615D02*
X65448825Y-94463385D01*
X114999998Y-73000000D02*
X134000000Y-73000000D01*
X110999988Y-73000000D02*
X92400000Y-73000000D01*
X110999988Y-69000000D02*
X92400000Y-69000000D01*
X114999998Y-69000000D02*
X134000000Y-69000000D01*
X114999998Y-69000000D02*
X114901998Y-69019900D01*
X114999998Y-73000000D02*
X114901998Y-72980100D01*
X114901998Y-69019900D02*
X114809918Y-69058904D01*
X114901998Y-72980100D02*
X114809918Y-72941096D01*
X114809918Y-69058904D02*
X114727441Y-69115452D01*
X114809918Y-72941096D02*
X114727441Y-72884548D01*
X114727441Y-69115452D02*
X114657866Y-69187282D01*
X114727441Y-72884548D02*
X114657866Y-72812718D01*
X114657866Y-69187282D02*
X114603976Y-69271521D01*
X114657866Y-72812718D02*
X114603976Y-72728479D01*
X114603976Y-69271521D02*
X114567927Y-69364799D01*
X114603976Y-72728479D02*
X114567927Y-72635201D01*
X114567927Y-69364799D02*
X114551161Y-69463385D01*
X114567927Y-72635201D02*
X114551161Y-72536615D01*
X114551161Y-72536615D02*
X114551161Y-69463385D01*
X110999988Y-69000000D02*
X111097988Y-69019900D01*
X110999988Y-73000000D02*
X111097988Y-72980100D01*
X111097988Y-69019900D02*
X111190068Y-69058904D01*
X111097988Y-72980100D02*
X111190068Y-72941096D01*
X111190068Y-69058904D02*
X111272545Y-69115452D01*
X111190068Y-72941096D02*
X111272545Y-72884548D01*
X111272545Y-69115452D02*
X111342120Y-69187282D01*
X111272545Y-72884548D02*
X111342120Y-72812718D01*
X111342120Y-69187282D02*
X111396010Y-69271521D01*
X111342120Y-72812718D02*
X111396010Y-72728479D01*
X111396010Y-69271521D02*
X111432059Y-69364799D01*
X111396010Y-72728479D02*
X111432059Y-72635201D01*
X111432059Y-69364799D02*
X111448825Y-69463385D01*
X111432059Y-72635201D02*
X111448825Y-72536615D01*
X111448825Y-72536615D02*
X111448825Y-69463385D01*
X68999998Y-73000000D02*
X88000000Y-73000000D01*
X64999988Y-73000000D02*
X46400000Y-73000000D01*
X64999988Y-69000000D02*
X46400000Y-69000000D01*
X68999998Y-69000000D02*
X88000000Y-69000000D01*
X68999998Y-69000000D02*
X68901998Y-69019900D01*
X68999998Y-73000000D02*
X68901998Y-72980100D01*
X68901998Y-69019900D02*
X68809918Y-69058904D01*
X68901998Y-72980100D02*
X68809918Y-72941096D01*
X68809918Y-69058904D02*
X68727441Y-69115452D01*
X68809918Y-72941096D02*
X68727441Y-72884548D01*
X68727441Y-69115452D02*
X68657866Y-69187282D01*
X68727441Y-72884548D02*
X68657866Y-72812718D01*
X68657866Y-69187282D02*
X68603976Y-69271521D01*
X68657866Y-72812718D02*
X68603976Y-72728479D01*
X68603976Y-69271521D02*
X68567927Y-69364799D01*
X68603976Y-72728479D02*
X68567927Y-72635201D01*
X68567927Y-69364799D02*
X68551161Y-69463385D01*
X68567927Y-72635201D02*
X68551161Y-72536615D01*
X68551161Y-72536615D02*
X68551161Y-69463385D01*
X64999988Y-69000000D02*
X65097988Y-69019900D01*
X64999988Y-73000000D02*
X65097988Y-72980100D01*
X65097988Y-69019900D02*
X65190068Y-69058904D01*
X65097988Y-72980100D02*
X65190068Y-72941096D01*
X65190068Y-69058904D02*
X65272545Y-69115452D01*
X65190068Y-72941096D02*
X65272545Y-72884548D01*
X65272545Y-69115452D02*
X65342120Y-69187282D01*
X65272545Y-72884548D02*
X65342120Y-72812718D01*
X65342120Y-69187282D02*
X65396010Y-69271521D01*
X65342120Y-72812718D02*
X65396010Y-72728479D01*
X65396010Y-69271521D02*
X65432059Y-69364799D01*
X65396010Y-72728479D02*
X65432059Y-72635201D01*
X65432059Y-69364799D02*
X65448825Y-69463385D01*
X65432059Y-72635201D02*
X65448825Y-72536615D01*
X65448825Y-72536615D02*
X65448825Y-69463385D01*
X114999998Y-48000000D02*
X134000000Y-48000000D01*
X110999988Y-48000000D02*
X92400000Y-48000000D01*
X114999976Y-44000000D02*
X157000002Y-44000000D01*
X114999976Y-44000000D02*
X114901976Y-44019900D01*
X114999998Y-48000000D02*
X114901998Y-47980100D01*
X114901976Y-44019900D02*
X114809896Y-44058904D01*
X114901998Y-47980100D02*
X114809918Y-47941096D01*
X114809896Y-44058904D02*
X114727419Y-44115452D01*
X114809918Y-47941096D02*
X114727441Y-47884548D01*
X114727419Y-44115452D02*
X114657844Y-44187282D01*
X114727441Y-47884548D02*
X114657866Y-47812718D01*
X114657844Y-44187282D02*
X114603954Y-44271521D01*
X114657866Y-47812718D02*
X114603976Y-47728479D01*
X114603954Y-44271521D02*
X114567905Y-44364799D01*
X114603976Y-47728479D02*
X114567927Y-47635201D01*
X114567905Y-44364799D02*
X114551139Y-44463385D01*
X114567927Y-47635201D02*
X114551161Y-47536615D01*
X114551161Y-47536615D02*
X114551139Y-44463385D01*
X110999988Y-48000000D02*
X111097988Y-47980100D01*
X110999930Y-44000000D02*
X111097930Y-44019900D01*
X111097988Y-47980100D02*
X111190068Y-47941096D01*
X111097930Y-44019900D02*
X111190010Y-44058904D01*
X111190068Y-47941096D02*
X111272545Y-47884548D01*
X111190010Y-44058904D02*
X111272487Y-44115452D01*
X111272545Y-47884548D02*
X111342120Y-47812718D01*
X111272487Y-44115452D02*
X111342062Y-44187282D01*
X111342120Y-47812718D02*
X111396010Y-47728479D01*
X111342062Y-44187282D02*
X111395952Y-44271521D01*
X111396010Y-47728479D02*
X111432059Y-47635201D01*
X111395952Y-44271521D02*
X111432001Y-44364799D01*
X111432059Y-47635201D02*
X111448825Y-47536615D01*
X111432001Y-44364799D02*
X111448767Y-44463385D01*
X111448825Y-47536615D02*
X111448767Y-44463385D01*
X88000000Y-134999998D02*
X88000000Y-144000000D01*
X88000000Y-131000000D02*
X88000000Y-123000000D01*
X92400000Y-131000000D02*
X92400000Y-123000000D01*
X92400000Y-134999998D02*
X92400000Y-144000000D01*
X92400000Y-134999998D02*
X92380100Y-134901998D01*
X88000000Y-134999998D02*
X88019900Y-134901998D01*
X92380100Y-134901998D02*
X92341096Y-134809918D01*
X88019900Y-134901998D02*
X88058904Y-134809918D01*
X92341096Y-134809918D02*
X92284548Y-134727441D01*
X88058904Y-134809918D02*
X88115452Y-134727441D01*
X92284548Y-134727441D02*
X92212718Y-134657866D01*
X88115452Y-134727441D02*
X88187282Y-134657866D01*
X92212718Y-134657866D02*
X92128479Y-134603976D01*
X88187282Y-134657866D02*
X88271521Y-134603976D01*
X92128479Y-134603976D02*
X92035201Y-134567927D01*
X88271521Y-134603976D02*
X88364799Y-134567927D01*
X92035201Y-134567927D02*
X91936615Y-134551161D01*
X88364799Y-134567927D02*
X88463385Y-134551161D01*
X88463385Y-134551161D02*
X91936615Y-134551161D01*
X92400000Y-131000000D02*
X92380100Y-131098000D01*
X88000000Y-131000000D02*
X88019900Y-131098000D01*
X92380100Y-131098000D02*
X92341096Y-131190080D01*
X88019900Y-131098000D02*
X88058904Y-131190080D01*
X92341096Y-131190080D02*
X92284548Y-131272557D01*
X88058904Y-131190080D02*
X88115452Y-131272557D01*
X92284548Y-131272557D02*
X92212718Y-131342132D01*
X88115452Y-131272557D02*
X88187282Y-131342132D01*
X92212718Y-131342132D02*
X92128479Y-131396022D01*
X88187282Y-131342132D02*
X88271521Y-131396022D01*
X92128479Y-131396022D02*
X92035201Y-131432071D01*
X88271521Y-131396022D02*
X88364799Y-131432071D01*
X92035201Y-131432071D02*
X91936615Y-131448837D01*
X88364799Y-131432071D02*
X88463385Y-131448837D01*
X88463385Y-131448837D02*
X91936615Y-131448837D01*
X42000000Y-135000010D02*
X42000000Y-148000000D01*
X46400000Y-131000000D02*
X46400000Y-123000000D01*
X46400000Y-134999998D02*
X46400000Y-144000000D01*
X46400000Y-134999998D02*
X46380100Y-134901998D01*
X42000000Y-135000010D02*
X42019900Y-134902010D01*
X46380100Y-134901998D02*
X46341096Y-134809918D01*
X42019900Y-134902010D02*
X42058904Y-134809930D01*
X46341096Y-134809918D02*
X46284548Y-134727441D01*
X42058904Y-134809930D02*
X42115452Y-134727453D01*
X46284548Y-134727441D02*
X46212718Y-134657866D01*
X42115452Y-134727453D02*
X42187282Y-134657878D01*
X46212718Y-134657866D02*
X46128479Y-134603976D01*
X42187282Y-134657878D02*
X42271521Y-134603988D01*
X46128479Y-134603976D02*
X46035201Y-134567927D01*
X42271521Y-134603988D02*
X42364799Y-134567939D01*
X46035201Y-134567927D02*
X45936615Y-134551161D01*
X42364799Y-134567939D02*
X42463385Y-134551173D01*
X42463385Y-134551173D02*
X45936615Y-134551161D01*
X46400000Y-131000000D02*
X46380100Y-131098000D01*
X42000000Y-130999992D02*
X42019900Y-131097992D01*
X46380100Y-131098000D02*
X46341096Y-131190080D01*
X42019900Y-131097992D02*
X42058904Y-131190072D01*
X46341096Y-131190080D02*
X46284548Y-131272557D01*
X42058904Y-131190072D02*
X42115452Y-131272549D01*
X46284548Y-131272557D02*
X46212718Y-131342132D01*
X42115452Y-131272549D02*
X42187282Y-131342124D01*
X46212718Y-131342132D02*
X46128479Y-131396022D01*
X42187282Y-131342124D02*
X42271521Y-131396014D01*
X46128479Y-131396022D02*
X46035201Y-131432071D01*
X42271521Y-131396014D02*
X42364799Y-131432063D01*
X46035201Y-131432071D02*
X45936615Y-131448837D01*
X42364799Y-131432063D02*
X42463385Y-131448829D01*
X42463385Y-131448829D02*
X45936615Y-131448837D01*
X88000000Y-109999998D02*
X88000000Y-119000000D01*
X88000000Y-106000000D02*
X88000000Y-98000000D01*
X92400000Y-106000000D02*
X92400000Y-98000000D01*
X92400000Y-109999998D02*
X92400000Y-119000000D01*
X92400000Y-109999998D02*
X92380100Y-109901998D01*
X88000000Y-109999998D02*
X88019900Y-109901998D01*
X92380100Y-109901998D02*
X92341096Y-109809918D01*
X88019900Y-109901998D02*
X88058904Y-109809918D01*
X92341096Y-109809918D02*
X92284548Y-109727441D01*
X88058904Y-109809918D02*
X88115452Y-109727441D01*
X92284548Y-109727441D02*
X92212718Y-109657866D01*
X88115452Y-109727441D02*
X88187282Y-109657866D01*
X92212718Y-109657866D02*
X92128479Y-109603976D01*
X88187282Y-109657866D02*
X88271521Y-109603976D01*
X92128479Y-109603976D02*
X92035201Y-109567927D01*
X88271521Y-109603976D02*
X88364799Y-109567927D01*
X92035201Y-109567927D02*
X91936615Y-109551161D01*
X88364799Y-109567927D02*
X88463385Y-109551161D01*
X88463385Y-109551161D02*
X91936615Y-109551161D01*
X92400000Y-106000000D02*
X92380100Y-106098000D01*
X88000000Y-106000000D02*
X88019900Y-106098000D01*
X92380100Y-106098000D02*
X92341096Y-106190080D01*
X88019900Y-106098000D02*
X88058904Y-106190080D01*
X92341096Y-106190080D02*
X92284548Y-106272557D01*
X88058904Y-106190080D02*
X88115452Y-106272557D01*
X92284548Y-106272557D02*
X92212718Y-106342132D01*
X88115452Y-106272557D02*
X88187282Y-106342132D01*
X92212718Y-106342132D02*
X92128479Y-106396022D01*
X88187282Y-106342132D02*
X88271521Y-106396022D01*
X92128479Y-106396022D02*
X92035201Y-106432071D01*
X88271521Y-106396022D02*
X88364799Y-106432071D01*
X92035201Y-106432071D02*
X91936615Y-106448837D01*
X88364799Y-106432071D02*
X88463385Y-106448837D01*
X88463385Y-106448837D02*
X91936615Y-106448837D01*
X42000000Y-109999988D02*
X42000000Y-130999992D01*
X46400000Y-106000000D02*
X46400000Y-98000000D01*
X46400000Y-109999998D02*
X46400000Y-119000000D01*
X42000000Y-109999988D02*
X42019900Y-109901988D01*
X46400000Y-109999998D02*
X46380100Y-109901998D01*
X42019900Y-109901988D02*
X42058904Y-109809908D01*
X46380100Y-109901998D02*
X46341096Y-109809918D01*
X42058904Y-109809908D02*
X42115452Y-109727431D01*
X46341096Y-109809918D02*
X46284548Y-109727441D01*
X42115452Y-109727431D02*
X42187282Y-109657856D01*
X46284548Y-109727441D02*
X46212718Y-109657866D01*
X42187282Y-109657856D02*
X42271521Y-109603966D01*
X46212718Y-109657866D02*
X46128479Y-109603976D01*
X42271521Y-109603966D02*
X42364799Y-109567917D01*
X46128479Y-109603976D02*
X46035201Y-109567927D01*
X42364799Y-109567917D02*
X42463385Y-109551151D01*
X46035201Y-109567927D02*
X45936615Y-109551161D01*
X42463385Y-109551151D02*
X45936615Y-109551161D01*
X46400000Y-106000000D02*
X46380100Y-106098000D01*
X42000000Y-106000000D02*
X42019900Y-106098000D01*
X46380100Y-106098000D02*
X46341096Y-106190080D01*
X42019900Y-106098000D02*
X42058904Y-106190080D01*
X46341096Y-106190080D02*
X46284548Y-106272557D01*
X42058904Y-106190080D02*
X42115452Y-106272557D01*
X46284548Y-106272557D02*
X46212718Y-106342132D01*
X42115452Y-106272557D02*
X42187282Y-106342132D01*
X46212718Y-106342132D02*
X46128479Y-106396022D01*
X42187282Y-106342132D02*
X42271521Y-106396022D01*
X46128479Y-106396022D02*
X46035201Y-106432071D01*
X42271521Y-106396022D02*
X42364799Y-106432071D01*
X46035201Y-106432071D02*
X45936615Y-106448837D01*
X42364799Y-106432071D02*
X42463385Y-106448837D01*
X42463385Y-106448837D02*
X45936615Y-106448837D01*
X88000000Y-84999998D02*
X88000000Y-94000000D01*
X88000000Y-81000000D02*
X88000000Y-73000000D01*
X92400000Y-81000000D02*
X92400000Y-73000000D01*
X92400000Y-84999998D02*
X92400000Y-94000000D01*
X92400000Y-84999998D02*
X92380100Y-84901998D01*
X88000000Y-84999998D02*
X88019900Y-84901998D01*
X92380100Y-84901998D02*
X92341096Y-84809918D01*
X88019900Y-84901998D02*
X88058904Y-84809918D01*
X92341096Y-84809918D02*
X92284548Y-84727441D01*
X88058904Y-84809918D02*
X88115452Y-84727441D01*
X92284548Y-84727441D02*
X92212718Y-84657866D01*
X88115452Y-84727441D02*
X88187282Y-84657866D01*
X92212718Y-84657866D02*
X92128479Y-84603976D01*
X88187282Y-84657866D02*
X88271521Y-84603976D01*
X92128479Y-84603976D02*
X92035201Y-84567927D01*
X88271521Y-84603976D02*
X88364799Y-84567927D01*
X92035201Y-84567927D02*
X91936615Y-84551161D01*
X88364799Y-84567927D02*
X88463385Y-84551161D01*
X88463385Y-84551161D02*
X91936615Y-84551161D01*
X92400000Y-81000000D02*
X92380100Y-81098000D01*
X88000000Y-81000000D02*
X88019900Y-81098000D01*
X92380100Y-81098000D02*
X92341096Y-81190080D01*
X88019900Y-81098000D02*
X88058904Y-81190080D01*
X92341096Y-81190080D02*
X92284548Y-81272557D01*
X88058904Y-81190080D02*
X88115452Y-81272557D01*
X92284548Y-81272557D02*
X92212718Y-81342132D01*
X88115452Y-81272557D02*
X88187282Y-81342132D01*
X92212718Y-81342132D02*
X92128479Y-81396022D01*
X88187282Y-81342132D02*
X88271521Y-81396022D01*
X92128479Y-81396022D02*
X92035201Y-81432071D01*
X88271521Y-81396022D02*
X88364799Y-81432071D01*
X92035201Y-81432071D02*
X91936615Y-81448837D01*
X88364799Y-81432071D02*
X88463385Y-81448837D01*
X88463385Y-81448837D02*
X91936615Y-81448837D01*
X42000000Y-84999988D02*
X42000000Y-106000000D01*
X46400000Y-81000000D02*
X46400000Y-73000000D01*
X46400000Y-84999998D02*
X46400000Y-94000000D01*
X42000000Y-84999988D02*
X42019900Y-84901988D01*
X46400000Y-84999998D02*
X46380100Y-84901998D01*
X42019900Y-84901988D02*
X42058904Y-84809908D01*
X46380100Y-84901998D02*
X46341096Y-84809918D01*
X42058904Y-84809908D02*
X42115452Y-84727431D01*
X46341096Y-84809918D02*
X46284548Y-84727441D01*
X42115452Y-84727431D02*
X42187282Y-84657856D01*
X46284548Y-84727441D02*
X46212718Y-84657866D01*
X42187282Y-84657856D02*
X42271521Y-84603966D01*
X46212718Y-84657866D02*
X46128479Y-84603976D01*
X42271521Y-84603966D02*
X42364799Y-84567917D01*
X46128479Y-84603976D02*
X46035201Y-84567927D01*
X42364799Y-84567917D02*
X42463385Y-84551151D01*
X46035201Y-84567927D02*
X45936615Y-84551161D01*
X42463385Y-84551151D02*
X45936615Y-84551161D01*
X46400000Y-81000000D02*
X46380100Y-81098000D01*
X42000000Y-81000002D02*
X42019900Y-81098002D01*
X46380100Y-81098000D02*
X46341096Y-81190080D01*
X42019900Y-81098002D02*
X42058904Y-81190082D01*
X46341096Y-81190080D02*
X46284548Y-81272557D01*
X42058904Y-81190082D02*
X42115452Y-81272559D01*
X46284548Y-81272557D02*
X46212718Y-81342132D01*
X42115452Y-81272559D02*
X42187282Y-81342134D01*
X46212718Y-81342132D02*
X46128479Y-81396022D01*
X42187282Y-81342134D02*
X42271521Y-81396024D01*
X42271521Y-81396024D02*
X42364799Y-81432073D01*
X46128479Y-81396022D02*
X46035201Y-81432071D01*
X42364799Y-81432073D02*
X42463385Y-81448839D01*
X46035201Y-81432071D02*
X45936615Y-81448837D01*
X42463385Y-81448839D02*
X45936615Y-81448837D01*
X88000000Y-59999998D02*
X88000000Y-69000000D01*
X88000000Y-56000000D02*
X88000000Y-48000000D01*
X92400000Y-56000000D02*
X92400000Y-48000000D01*
X92400000Y-59999998D02*
X92400000Y-69000000D01*
X92400000Y-59999998D02*
X92380100Y-59901998D01*
X88000000Y-59999998D02*
X88019900Y-59901998D01*
X92380100Y-59901998D02*
X92341096Y-59809918D01*
X88019900Y-59901998D02*
X88058904Y-59809918D01*
X92341096Y-59809918D02*
X92284548Y-59727441D01*
X88058904Y-59809918D02*
X88115452Y-59727441D01*
X92284548Y-59727441D02*
X92212718Y-59657866D01*
X88115452Y-59727441D02*
X88187282Y-59657866D01*
X92212718Y-59657866D02*
X92128479Y-59603976D01*
X88187282Y-59657866D02*
X88271521Y-59603976D01*
X92128479Y-59603976D02*
X92035201Y-59567927D01*
X88271521Y-59603976D02*
X88364799Y-59567927D01*
X92035201Y-59567927D02*
X91936615Y-59551161D01*
X88364799Y-59567927D02*
X88463385Y-59551161D01*
X88463385Y-59551161D02*
X91936615Y-59551161D01*
X92400000Y-56000000D02*
X92380100Y-56098000D01*
X88000000Y-56000000D02*
X88019900Y-56098000D01*
X92380100Y-56098000D02*
X92341096Y-56190080D01*
X88019900Y-56098000D02*
X88058904Y-56190080D01*
X92341096Y-56190080D02*
X92284548Y-56272557D01*
X88058904Y-56190080D02*
X88115452Y-56272557D01*
X92284548Y-56272557D02*
X92212718Y-56342132D01*
X88115452Y-56272557D02*
X88187282Y-56342132D01*
X92212718Y-56342132D02*
X92128479Y-56396022D01*
X88187282Y-56342132D02*
X88271521Y-56396022D01*
X92128479Y-56396022D02*
X92035201Y-56432071D01*
X88271521Y-56396022D02*
X88364799Y-56432071D01*
X92035201Y-56432071D02*
X91936615Y-56448837D01*
X88364799Y-56432071D02*
X88463385Y-56448837D01*
X88463385Y-56448837D02*
X91936615Y-56448837D01*
X42000000Y-59999988D02*
X42000000Y-81000002D01*
X42000000Y-55999988D02*
X42000000Y-44000000D01*
X46400000Y-56000000D02*
X46400000Y-48000000D01*
X46400000Y-59999998D02*
X46400000Y-69000000D01*
X42000000Y-59999988D02*
X42019900Y-59901988D01*
X46400000Y-59999998D02*
X46380100Y-59901998D01*
X42019900Y-59901988D02*
X42058904Y-59809908D01*
X46380100Y-59901998D02*
X46341096Y-59809918D01*
X42058904Y-59809908D02*
X42115452Y-59727431D01*
X46341096Y-59809918D02*
X46284548Y-59727441D01*
X42115452Y-59727431D02*
X42187282Y-59657856D01*
X46284548Y-59727441D02*
X46212718Y-59657866D01*
X42187282Y-59657856D02*
X42271521Y-59603966D01*
X46212718Y-59657866D02*
X46128479Y-59603976D01*
X42271521Y-59603966D02*
X42364799Y-59567917D01*
X46128479Y-59603976D02*
X46035201Y-59567927D01*
X42364799Y-59567917D02*
X42463385Y-59551151D01*
X46035201Y-59567927D02*
X45936615Y-59551161D01*
X42463385Y-59551151D02*
X45936615Y-59551161D01*
X46400000Y-56000000D02*
X46380100Y-56098000D01*
X42000000Y-55999988D02*
X42019900Y-56097988D01*
X46380100Y-56098000D02*
X46341096Y-56190080D01*
X42019900Y-56097988D02*
X42058904Y-56190068D01*
X46341096Y-56190080D02*
X46284548Y-56272557D01*
X42058904Y-56190068D02*
X42115452Y-56272545D01*
X46284548Y-56272557D02*
X46212718Y-56342132D01*
X42115452Y-56272545D02*
X42187282Y-56342120D01*
X46212718Y-56342132D02*
X46128479Y-56396022D01*
X42187282Y-56342120D02*
X42271521Y-56396010D01*
X46128479Y-56396022D02*
X46035201Y-56432071D01*
X42271521Y-56396010D02*
X42364799Y-56432059D01*
X46035201Y-56432071D02*
X45936615Y-56448837D01*
X42364799Y-56432059D02*
X42463385Y-56448825D01*
X42463385Y-56448825D02*
X45936615Y-56448837D01*
X68999998Y-48000000D02*
X88000000Y-48000000D01*
X64999988Y-48000000D02*
X46400000Y-48000000D01*
X68999972Y-44000000D02*
X110999930Y-44000000D01*
X65000000Y-44000000D02*
X42000000Y-44000000D01*
X68999972Y-44000000D02*
X68901972Y-44019900D01*
X68999998Y-48000000D02*
X68901998Y-47980100D01*
X68901972Y-44019900D02*
X68809892Y-44058904D01*
X68901998Y-47980100D02*
X68809918Y-47941096D01*
X68809892Y-44058904D02*
X68727415Y-44115452D01*
X68809918Y-47941096D02*
X68727441Y-47884548D01*
X68727415Y-44115452D02*
X68657840Y-44187282D01*
X68727441Y-47884548D02*
X68657866Y-47812718D01*
X68657840Y-44187282D02*
X68603950Y-44271521D01*
X68657866Y-47812718D02*
X68603976Y-47728479D01*
X68603950Y-44271521D02*
X68567901Y-44364799D01*
X68603976Y-47728479D02*
X68567927Y-47635201D01*
X68567901Y-44364799D02*
X68551135Y-44463385D01*
X68567927Y-47635201D02*
X68551161Y-47536615D01*
X68551161Y-47536615D02*
X68551135Y-44463385D01*
X65000000Y-44000000D02*
X65098000Y-44019900D01*
X64999988Y-48000000D02*
X65097988Y-47980100D01*
X65098000Y-44019900D02*
X65190080Y-44058904D01*
X65097988Y-47980100D02*
X65190068Y-47941096D01*
X65190080Y-44058904D02*
X65272557Y-44115452D01*
X65190068Y-47941096D02*
X65272545Y-47884548D01*
X65272557Y-44115452D02*
X65342132Y-44187282D01*
X65272545Y-47884548D02*
X65342120Y-47812718D01*
X65342132Y-44187282D02*
X65396022Y-44271521D01*
X65342120Y-47812718D02*
X65396010Y-47728479D01*
X65396022Y-44271521D02*
X65432071Y-44364799D01*
X65396010Y-47728479D02*
X65432059Y-47635201D01*
X65432071Y-44364799D02*
X65448837Y-44463385D01*
X65432059Y-47635201D02*
X65448825Y-47536615D01*
X65448825Y-47536615D02*
X65448837Y-44463385D01*
M02*
