M48
;DRILL file {KiCad 5.0.2-bee76a0~70~ubuntu18.04.1} date Mon 16 Mar 2020 11:30:55 AM CET
;FORMAT={-:-/ absolute / inch / decimal}
FMAT,2
INCH,TZ
T1C0.0177
T2C0.0591
T3C0.1260
%
G90
G05
T1
X7.0866Y-2.2136
X7.0866Y-2.2485
X7.0866Y-2.2835
X7.0866Y-2.3184
X7.0866Y-2.3533
X6.19Y-3.7008
X6.2249Y-3.7008
X6.2598Y-3.7008
X6.2948Y-3.7008
X6.3297Y-3.7008
X2.5679Y-3.7008
X2.6029Y-3.7008
X2.6378Y-3.7008
X2.6727Y-3.7008
X2.7077Y-3.7008
X3.4646Y-5.1663
X3.4646Y-5.2013
X3.4646Y-5.2362
X3.4646Y-5.2712
X3.4646Y-5.3061
X4.3789Y-4.685
X4.4139Y-4.685
X4.4488Y-4.685
X4.4838Y-4.685
X4.5187Y-4.685
X5.4488Y-4.1821
X5.4488Y-4.217
X5.4488Y-4.252
X5.4488Y-4.2869
X5.4488Y-4.3219
X2.5679Y-2.7165
X2.6029Y-2.7165
X2.6378Y-2.7165
X2.6727Y-2.7165
X2.7077Y-2.7165
X8.001Y-3.8583
X8.0359Y-3.8583
X8.0709Y-3.8583
X8.1058Y-3.8583
X8.1407Y-3.8583
X5.2756Y-5.1663
X5.2756Y-5.2013
X5.2756Y-5.2362
X5.2756Y-5.2712
X5.2756Y-5.3061
X4.3789Y-2.874
X4.4139Y-2.874
X4.4488Y-2.874
X4.4838Y-2.874
X4.5187Y-2.874
X2.5679Y-4.8425
X2.6029Y-4.8425
X2.6378Y-4.8425
X2.6727Y-4.8425
X2.7077Y-4.8425
X4.3789Y-1.8898
X4.4139Y-1.8898
X4.4488Y-1.8898
X4.4838Y-1.8898
X4.5187Y-1.8898
X8.001Y-2.7165
X8.0359Y-2.7165
X8.0709Y-2.7165
X8.1058Y-2.7165
X8.1407Y-2.7165
X3.6378Y-2.2136
X3.6378Y-2.2485
X3.6378Y-2.2835
X3.6378Y-2.3184
X3.6378Y-2.3533
X7.2598Y-2.2136
X7.2598Y-2.2485
X7.2598Y-2.2835
X7.2598Y-2.3184
X7.2598Y-2.3533
X8.8976Y-3.1978
X8.8976Y-3.2328
X8.8976Y-3.2677
X8.8976Y-3.3027
X8.8976Y-3.3376
X3.6378Y-3.1978
X3.6378Y-3.2328
X3.6378Y-3.2677
X3.6378Y-3.3027
X3.6378Y-3.3376
X6.19Y-3.8583
X6.2249Y-3.8583
X6.2598Y-3.8583
X6.2948Y-3.8583
X6.3297Y-3.8583
X8.001Y-4.685
X8.0359Y-4.685
X8.0709Y-4.685
X8.1058Y-4.685
X8.1407Y-4.685
X5.4488Y-3.1978
X5.4488Y-3.2328
X5.4488Y-3.2677
X5.4488Y-3.3027
X5.4488Y-3.3376
X1.8268Y-5.1663
X1.8268Y-5.2013
X1.8268Y-5.2362
X1.8268Y-5.2712
X1.8268Y-5.3061
X7.0866Y-5.1663
X7.0866Y-5.2013
X7.0866Y-5.2362
X7.0866Y-5.2712
X7.0866Y-5.3061
X8.8976Y-2.2136
X8.8976Y-2.2485
X8.8976Y-2.2835
X8.8976Y-2.3184
X8.8976Y-2.3533
X4.3789Y-3.8583
X4.4139Y-3.8583
X4.4488Y-3.8583
X4.4838Y-3.8583
X4.5187Y-3.8583
X5.2756Y-2.2136
X5.2756Y-2.2485
X5.2756Y-2.2835
X5.2756Y-2.3184
X5.2756Y-2.3533
X1.8268Y-2.2136
X1.8268Y-2.2485
X1.8268Y-2.2835
X1.8268Y-2.3184
X1.8268Y-2.3533
X3.6378Y-5.1663
X3.6378Y-5.2013
X3.6378Y-5.2362
X3.6378Y-5.2712
X3.6378Y-5.3061
X4.3789Y-5.6693
X4.4139Y-5.6693
X4.4488Y-5.6693
X4.4838Y-5.6693
X4.5187Y-5.6693
X8.001Y-3.7008
X8.0359Y-3.7008
X8.0709Y-3.7008
X8.1058Y-3.7008
X8.1407Y-3.7008
X2.5679Y-1.8898
X2.6029Y-1.8898
X2.6378Y-1.8898
X2.6727Y-1.8898
X2.7077Y-1.8898
X5.4488Y-5.1663
X5.4488Y-5.2013
X5.4488Y-5.2362
X5.4488Y-5.2712
X5.4488Y-5.3061
X4.3789Y-2.7165
X4.4139Y-2.7165
X4.4488Y-2.7165
X4.4838Y-2.7165
X4.5187Y-2.7165
X7.2598Y-4.1821
X7.2598Y-4.217
X7.2598Y-4.252
X7.2598Y-4.2869
X7.2598Y-4.3219
X2.5679Y-4.685
X2.6029Y-4.685
X2.6378Y-4.685
X2.6727Y-4.685
X2.7077Y-4.685
X7.0866Y-3.1978
X7.0866Y-3.2328
X7.0866Y-3.2677
X7.0866Y-3.3027
X7.0866Y-3.3376
X6.19Y-4.8425
X6.2249Y-4.8425
X6.2598Y-4.8425
X6.2948Y-4.8425
X6.3297Y-4.8425
X2.5679Y-5.6693
X2.6029Y-5.6693
X2.6378Y-5.6693
X2.6727Y-5.6693
X2.7077Y-5.6693
X9.0551Y-5.748
X9.0866Y-5.748
X9.1181Y-5.748
X9.1496Y-5.748
X9.1811Y-5.748
X9.2126Y-5.748
X9.0551Y-1.811
X9.0866Y-1.811
X9.1181Y-1.811
X9.1496Y-1.811
X9.1811Y-1.811
X9.2126Y-1.811
X5.2756Y-4.1821
X5.2756Y-4.217
X5.2756Y-4.252
X5.2756Y-4.2869
X5.2756Y-4.3219
X2.5679Y-2.874
X2.6029Y-2.874
X2.6378Y-2.874
X2.6727Y-2.874
X2.7077Y-2.874
X1.4961Y-1.811
X1.5276Y-1.811
X1.5591Y-1.811
X1.5906Y-1.811
X1.622Y-1.811
X1.6535Y-1.811
X6.19Y-1.8898
X6.2249Y-1.8898
X6.2598Y-1.8898
X6.2948Y-1.8898
X6.3297Y-1.8898
X1.8268Y-3.1978
X1.8268Y-3.2328
X1.8268Y-3.2677
X1.8268Y-3.3027
X1.8268Y-3.3376
X3.4646Y-4.1821
X3.4646Y-4.217
X3.4646Y-4.252
X3.4646Y-4.2869
X3.4646Y-4.3219
X6.19Y-5.6693
X6.2249Y-5.6693
X6.2598Y-5.6693
X6.2948Y-5.6693
X6.3297Y-5.6693
X7.2598Y-5.1663
X7.2598Y-5.2013
X7.2598Y-5.2362
X7.2598Y-5.2712
X7.2598Y-5.3061
X4.3789Y-3.7008
X4.4139Y-3.7008
X4.4488Y-3.7008
X4.4838Y-3.7008
X4.5187Y-3.7008
X6.19Y-2.874
X6.2249Y-2.874
X6.2598Y-2.874
X6.2948Y-2.874
X6.3297Y-2.874
X5.4488Y-2.2136
X5.4488Y-2.2485
X5.4488Y-2.2835
X5.4488Y-2.3184
X5.4488Y-2.3533
X8.001Y-1.8898
X8.0359Y-1.8898
X8.0709Y-1.8898
X8.1058Y-1.8898
X8.1407Y-1.8898
X8.001Y-5.6693
X8.0359Y-5.6693
X8.0709Y-5.6693
X8.1058Y-5.6693
X8.1407Y-5.6693
X2.5679Y-3.8583
X2.6029Y-3.8583
X2.6378Y-3.8583
X2.6727Y-3.8583
X2.7077Y-3.8583
X4.3789Y-4.8425
X4.4139Y-4.8425
X4.4488Y-4.8425
X4.4838Y-4.8425
X4.5187Y-4.8425
X6.19Y-2.7165
X6.2249Y-2.7165
X6.2598Y-2.7165
X6.2948Y-2.7165
X6.3297Y-2.7165
X8.8976Y-5.1663
X8.8976Y-5.2013
X8.8976Y-5.2362
X8.8976Y-5.2712
X8.8976Y-5.3061
X1.8268Y-4.1821
X1.8268Y-4.217
X1.8268Y-4.252
X1.8268Y-4.2869
X1.8268Y-4.3219
X7.2598Y-3.1978
X7.2598Y-3.2328
X7.2598Y-3.2677
X7.2598Y-3.3027
X7.2598Y-3.3376
X8.001Y-2.874
X8.0359Y-2.874
X8.0709Y-2.874
X8.1058Y-2.874
X8.1407Y-2.874
X6.19Y-4.685
X6.2249Y-4.685
X6.2598Y-4.685
X6.2948Y-4.685
X6.3297Y-4.685
X3.4646Y-2.2136
X3.4646Y-2.2485
X3.4646Y-2.2835
X3.4646Y-2.3184
X3.4646Y-2.3533
X8.8976Y-4.1821
X8.8976Y-4.217
X8.8976Y-4.252
X8.8976Y-4.2869
X8.8976Y-4.3219
X3.4646Y-3.1978
X3.4646Y-3.2328
X3.4646Y-3.2677
X3.4646Y-3.3027
X3.4646Y-3.3376
X7.0866Y-4.1821
X7.0866Y-4.217
X7.0866Y-4.252
X7.0866Y-4.2869
X7.0866Y-4.3219
X8.001Y-4.8425
X8.0359Y-4.8425
X8.0709Y-4.8425
X8.1058Y-4.8425
X8.1407Y-4.8425
X3.6378Y-4.1821
X3.6378Y-4.217
X3.6378Y-4.252
X3.6378Y-4.2869
X3.6378Y-4.3219
X5.2756Y-3.1978
X5.2756Y-3.2328
X5.2756Y-3.2677
X5.2756Y-3.3027
X5.2756Y-3.3376
X1.4961Y-5.748
X1.5276Y-5.748
X1.5591Y-5.748
X1.5906Y-5.748
X1.622Y-5.748
X1.6535Y-5.748
T2
X8.4014Y-4.9437
X1.937Y-3.6575
X7.3701Y-4.6417
X2.9683Y-1.9909
X3.748Y-5.626
X2.9683Y-3.9594
X5.5591Y-4.6417
X1.937Y-4.6417
X8.4014Y-3.9594
X4.7793Y-1.9909
X6.5904Y-2.9752
X3.748Y-2.6732
X8.4014Y-2.9752
X5.5591Y-5.626
X4.7793Y-4.9437
X7.3701Y-2.6732
X6.5904Y-4.9437
X2.9683Y-4.9437
X5.5591Y-3.6575
X1.937Y-2.6732
X1.937Y-5.626
X6.5904Y-1.9909
X4.7793Y-2.9752
X3.748Y-3.6575
X5.5591Y-2.6732
X8.4014Y-1.9909
X7.3701Y-5.626
X6.5904Y-3.9594
X4.7793Y-3.9594
X3.748Y-4.6417
X7.3701Y-3.6575
X2.9683Y-2.9752
T3
X1.6142Y-1.6929
X9.0945Y-5.8661
X9.0945Y-1.6929
X1.6142Y-5.8661
T0
M30
