M48
; DRILL file {KiCad 5.1.5-52549c5~84~ubuntu18.04.1} date Tue 17 Mar 2020 11:23:51 AM CET
; FORMAT={-:-/ absolute / inch / decimal}
; #@! TF.CreationDate,2020-03-17T11:23:51+01:00
; #@! TF.GenerationSoftware,Kicad,Pcbnew,5.1.5-52549c5~84~ubuntu18.04.1
; #@! TF.FileFunction,Plated,1,2,PTH
FMAT,2
INCH
T1C0.0118
T2C0.0315
T3C0.0394
T4C0.0866
%
G90
G05
T1
X1.8622Y-2.1614
X1.8622Y-2.185
X1.8622Y-3.1457
X1.8622Y-3.1693
X1.8622Y-4.1299
X1.8622Y-4.1535
X1.8622Y-5.1142
X1.8622Y-5.1378
X1.8898Y-2.1614
X1.8898Y-2.185
X1.8898Y-3.1457
X1.8898Y-3.1693
X1.8898Y-4.1299
X1.8898Y-4.1535
X1.8898Y-5.1142
X1.8898Y-5.1378
X1.9213Y-2.185
X1.9213Y-3.1693
X1.9213Y-4.1535
X1.9213Y-5.1378
X1.9488Y-2.185
X1.9488Y-2.2874
X1.9488Y-3.1693
X1.9488Y-3.2717
X1.9488Y-4.1535
X1.9488Y-4.2559
X1.9488Y-5.1378
X1.9488Y-5.2402
X1.9606Y-2.3071
X1.9606Y-3.2913
X1.9606Y-4.2756
X1.9606Y-5.2598
X1.9724Y-2.2874
X1.9724Y-3.2717
X1.9724Y-4.2559
X1.9724Y-5.2402
X1.9843Y-2.3071
X1.9843Y-3.2913
X1.9843Y-4.2756
X1.9843Y-5.2598
X1.9961Y-2.2874
X1.9961Y-3.2717
X1.9961Y-4.2559
X1.9961Y-5.2402
X2.0079Y-2.3071
X2.0079Y-3.2913
X2.0079Y-4.2756
X2.0079Y-5.2598
X2.0191Y-2.1969
X2.0191Y-3.1811
X2.0191Y-4.1654
X2.0191Y-5.1496
X2.0658Y-2.5
X2.0658Y-3.4843
X2.0658Y-4.4685
X2.0658Y-5.4528
X2.0748Y-2.4055
X2.0748Y-3.3898
X2.0748Y-4.374
X2.0748Y-5.3583
X2.1693Y-2.3031
X2.1693Y-3.2874
X2.1693Y-4.2717
X2.1693Y-5.2559
X2.1772Y-2.5
X2.1772Y-3.4843
X2.1772Y-4.4685
X2.1772Y-5.4528
X2.2551Y-2.439
X2.2551Y-3.4232
X2.2551Y-4.4075
X2.2551Y-5.3917
X2.2756Y-2.5
X2.2756Y-3.4843
X2.2756Y-4.4685
X2.2756Y-5.4528
X2.2874Y-2.0906
X2.2874Y-3.0748
X2.2874Y-4.0591
X2.2874Y-5.0433
X2.3268Y-2.4252
X2.3268Y-3.4094
X2.3268Y-4.3937
X2.3268Y-5.378
X2.3301Y-2.2217
X2.3301Y-3.2059
X2.3301Y-4.1902
X2.3301Y-5.1744
X2.3577Y-2.5394
X2.3577Y-3.5236
X2.3577Y-4.5079
X2.3577Y-5.4921
X2.4016Y-2.5118
X2.4016Y-3.4961
X2.4016Y-4.4803
X2.4016Y-5.4646
X2.4055Y-2.2598
X2.4055Y-2.3228
X2.4055Y-3.2441
X2.4055Y-3.3071
X2.4055Y-4.2283
X2.4055Y-4.2913
X2.4055Y-5.2126
X2.4055Y-5.2756
X2.4252Y-2.0945
X2.4252Y-3.0787
X2.4252Y-4.063
X2.4252Y-5.0472
X2.4665Y-1.9616
X2.4665Y-2.9459
X2.4665Y-3.9301
X2.4665Y-4.9144
X2.4724Y-2.1024
X2.4724Y-3.0866
X2.4724Y-4.0709
X2.4724Y-5.0551
X2.4843Y-2.122
X2.4843Y-3.1063
X2.4843Y-4.0906
X2.4843Y-5.0748
X2.4961Y-2.1024
X2.4961Y-3.0866
X2.4961Y-4.0709
X2.4961Y-5.0551
X2.5079Y-2.122
X2.5079Y-3.1063
X2.5079Y-4.0906
X2.5079Y-5.0748
X2.5197Y-2.1024
X2.5197Y-3.0866
X2.5197Y-4.0709
X2.5197Y-5.0551
X2.5276Y-2.2165
X2.5276Y-2.6339
X2.5276Y-3.2008
X2.5276Y-3.6181
X2.5276Y-4.185
X2.5276Y-4.6024
X2.5276Y-5.1693
X2.5276Y-5.5866
X2.5315Y-2.122
X2.5315Y-3.1063
X2.5315Y-4.0906
X2.5315Y-5.0748
X2.5394Y-2.2362
X2.5394Y-2.6535
X2.5394Y-3.2205
X2.5394Y-3.6378
X2.5394Y-4.2047
X2.5394Y-4.622
X2.5394Y-5.189
X2.5394Y-5.6063
X2.5512Y-2.2165
X2.5512Y-2.6339
X2.5512Y-3.2008
X2.5512Y-3.6181
X2.5512Y-4.185
X2.5512Y-4.6024
X2.5512Y-5.1693
X2.5512Y-5.5866
X2.5591Y-2.0463
X2.5591Y-2.3937
X2.5591Y-3.0305
X2.5591Y-3.378
X2.5591Y-4.0148
X2.5591Y-4.3622
X2.5591Y-4.999
X2.5591Y-5.3465
X2.563Y-2.2362
X2.563Y-2.6535
X2.563Y-3.2205
X2.563Y-3.6378
X2.563Y-4.2047
X2.563Y-4.622
X2.563Y-5.189
X2.563Y-5.6063
X2.5748Y-2.2165
X2.5748Y-2.6339
X2.5748Y-3.2008
X2.5748Y-3.6181
X2.5748Y-4.185
X2.5748Y-4.6024
X2.5748Y-5.1693
X2.5748Y-5.5866
X2.5866Y-2.2362
X2.5866Y-2.6535
X2.5866Y-3.2205
X2.5866Y-3.6378
X2.5866Y-4.2047
X2.5866Y-4.622
X2.5866Y-5.189
X2.5866Y-5.6063
X2.6065Y-2.3269
X2.6065Y-3.3112
X2.6065Y-4.2954
X2.6065Y-5.2797
X2.811Y-2.0463
X2.811Y-3.0305
X2.811Y-4.0148
X2.811Y-4.999
X3.0472Y-2.396
X3.0472Y-3.3802
X3.0472Y-4.3645
X3.0472Y-5.3487
X3.0945Y-2.2402
X3.0945Y-3.2244
X3.0945Y-4.2087
X3.0945Y-5.1929
X3.0984Y-2.4134
X3.0984Y-3.3976
X3.0984Y-4.3819
X3.0984Y-5.3661
X3.2283Y-2.4764
X3.2283Y-3.4606
X3.2283Y-4.4449
X3.2283Y-5.4291
X3.6732Y-2.1614
X3.6732Y-2.185
X3.6732Y-3.1457
X3.6732Y-3.1693
X3.6732Y-4.1299
X3.6732Y-4.1535
X3.6732Y-5.1142
X3.6732Y-5.1378
X3.7008Y-2.1614
X3.7008Y-2.185
X3.7008Y-3.1457
X3.7008Y-3.1693
X3.7008Y-4.1299
X3.7008Y-4.1535
X3.7008Y-5.1142
X3.7008Y-5.1378
X3.7323Y-2.185
X3.7323Y-3.1693
X3.7323Y-4.1535
X3.7323Y-5.1378
X3.7598Y-2.185
X3.7598Y-2.2874
X3.7598Y-3.1693
X3.7598Y-3.2717
X3.7598Y-4.1535
X3.7598Y-4.2559
X3.7598Y-5.1378
X3.7598Y-5.2402
X3.7717Y-2.3071
X3.7717Y-3.2913
X3.7717Y-4.2756
X3.7717Y-5.2598
X3.7835Y-2.2874
X3.7835Y-3.2717
X3.7835Y-4.2559
X3.7835Y-5.2402
X3.7953Y-2.3071
X3.7953Y-3.2913
X3.7953Y-4.2756
X3.7953Y-5.2598
X3.8071Y-2.2874
X3.8071Y-3.2717
X3.8071Y-4.2559
X3.8071Y-5.2402
X3.8189Y-2.3071
X3.8189Y-3.2913
X3.8189Y-4.2756
X3.8189Y-5.2598
X3.8301Y-2.1969
X3.8301Y-3.1811
X3.8301Y-4.1654
X3.8301Y-5.1496
X3.8768Y-2.5
X3.8768Y-3.4843
X3.8768Y-4.4685
X3.8768Y-5.4528
X3.8858Y-2.4055
X3.8858Y-3.3898
X3.8858Y-4.374
X3.8858Y-5.3583
X3.9803Y-2.3031
X3.9803Y-3.2874
X3.9803Y-4.2717
X3.9803Y-5.2559
X3.9882Y-2.5
X3.9882Y-3.4843
X3.9882Y-4.4685
X3.9882Y-5.4528
X4.0661Y-2.439
X4.0661Y-3.4232
X4.0661Y-4.4075
X4.0661Y-5.3917
X4.0866Y-2.5
X4.0866Y-3.4843
X4.0866Y-4.4685
X4.0866Y-5.4528
X4.0984Y-2.0906
X4.0984Y-3.0748
X4.0984Y-4.0591
X4.0984Y-5.0433
X4.1378Y-2.4252
X4.1378Y-3.4094
X4.1378Y-4.3937
X4.1378Y-5.378
X4.1411Y-2.2217
X4.1411Y-3.2059
X4.1411Y-4.1902
X4.1411Y-5.1744
X4.1687Y-2.5394
X4.1687Y-3.5236
X4.1687Y-4.5079
X4.1687Y-5.4921
X4.2126Y-2.5118
X4.2126Y-3.4961
X4.2126Y-4.4803
X4.2126Y-5.4646
X4.2165Y-2.2598
X4.2165Y-2.3228
X4.2165Y-3.2441
X4.2165Y-3.3071
X4.2165Y-4.2283
X4.2165Y-4.2913
X4.2165Y-5.2126
X4.2165Y-5.2756
X4.2362Y-2.0945
X4.2362Y-3.0787
X4.2362Y-4.063
X4.2362Y-5.0472
X4.2776Y-1.9616
X4.2776Y-2.9459
X4.2776Y-3.9301
X4.2776Y-4.9144
X4.2835Y-2.1024
X4.2835Y-3.0866
X4.2835Y-4.0709
X4.2835Y-5.0551
X4.2953Y-2.122
X4.2953Y-3.1063
X4.2953Y-4.0906
X4.2953Y-5.0748
X4.3071Y-2.1024
X4.3071Y-3.0866
X4.3071Y-4.0709
X4.3071Y-5.0551
X4.3189Y-2.122
X4.3189Y-3.1063
X4.3189Y-4.0906
X4.3189Y-5.0748
X4.3307Y-2.1024
X4.3307Y-3.0866
X4.3307Y-4.0709
X4.3307Y-5.0551
X4.3386Y-2.2165
X4.3386Y-2.6339
X4.3386Y-3.2008
X4.3386Y-3.6181
X4.3386Y-4.185
X4.3386Y-4.6024
X4.3386Y-5.1693
X4.3386Y-5.5866
X4.3425Y-2.122
X4.3425Y-3.1063
X4.3425Y-4.0906
X4.3425Y-5.0748
X4.3504Y-2.2362
X4.3504Y-2.6535
X4.3504Y-3.2205
X4.3504Y-3.6378
X4.3504Y-4.2047
X4.3504Y-4.622
X4.3504Y-5.189
X4.3504Y-5.6063
X4.3622Y-2.2165
X4.3622Y-2.6339
X4.3622Y-3.2008
X4.3622Y-3.6181
X4.3622Y-4.185
X4.3622Y-4.6024
X4.3622Y-5.1693
X4.3622Y-5.5866
X4.3701Y-2.0463
X4.3701Y-2.3937
X4.3701Y-3.0305
X4.3701Y-3.378
X4.3701Y-4.0148
X4.3701Y-4.3622
X4.3701Y-4.999
X4.3701Y-5.3465
X4.374Y-2.2362
X4.374Y-2.6535
X4.374Y-3.2205
X4.374Y-3.6378
X4.374Y-4.2047
X4.374Y-4.622
X4.374Y-5.189
X4.374Y-5.6063
X4.3858Y-2.2165
X4.3858Y-2.6339
X4.3858Y-3.2008
X4.3858Y-3.6181
X4.3858Y-4.185
X4.3858Y-4.6024
X4.3858Y-5.1693
X4.3858Y-5.5866
X4.3976Y-2.2362
X4.3976Y-2.6535
X4.3976Y-3.2205
X4.3976Y-3.6378
X4.3976Y-4.2047
X4.3976Y-4.622
X4.3976Y-5.189
X4.3976Y-5.6063
X4.4175Y-2.3269
X4.4175Y-3.3112
X4.4175Y-4.2954
X4.4175Y-5.2797
X4.622Y-2.0463
X4.622Y-3.0305
X4.622Y-4.0148
X4.622Y-4.999
X4.8583Y-2.396
X4.8583Y-3.3802
X4.8583Y-4.3645
X4.8583Y-5.3487
X4.9055Y-2.2402
X4.9055Y-3.2244
X4.9055Y-4.2087
X4.9055Y-5.1929
X4.9094Y-2.4134
X4.9094Y-3.3976
X4.9094Y-4.3819
X4.9094Y-5.3661
X5.0394Y-2.4764
X5.0394Y-3.4606
X5.0394Y-4.4449
X5.0394Y-5.4291
X5.4449Y-2.1614
X5.4449Y-2.185
X5.4449Y-3.1457
X5.4449Y-3.1693
X5.4449Y-4.1299
X5.4449Y-4.1535
X5.4449Y-5.1142
X5.4449Y-5.1378
X5.4724Y-2.1614
X5.4724Y-2.185
X5.4724Y-3.1457
X5.4724Y-3.1693
X5.4724Y-4.1299
X5.4724Y-4.1535
X5.4724Y-5.1142
X5.4724Y-5.1378
X5.5039Y-2.185
X5.5039Y-3.1693
X5.5039Y-4.1535
X5.5039Y-5.1378
X5.5315Y-2.185
X5.5315Y-2.2874
X5.5315Y-3.1693
X5.5315Y-3.2717
X5.5315Y-4.1535
X5.5315Y-4.2559
X5.5315Y-5.1378
X5.5315Y-5.2402
X5.5433Y-2.3071
X5.5433Y-3.2913
X5.5433Y-4.2756
X5.5433Y-5.2598
X5.5551Y-2.2874
X5.5551Y-3.2717
X5.5551Y-4.2559
X5.5551Y-5.2402
X5.5669Y-2.3071
X5.5669Y-3.2913
X5.5669Y-4.2756
X5.5669Y-5.2598
X5.5787Y-2.2874
X5.5787Y-3.2717
X5.5787Y-4.2559
X5.5787Y-5.2402
X5.5906Y-2.3071
X5.5906Y-3.2913
X5.5906Y-4.2756
X5.5906Y-5.2598
X5.6018Y-2.1969
X5.6018Y-3.1811
X5.6018Y-4.1654
X5.6018Y-5.1496
X5.6485Y-2.5
X5.6485Y-3.4843
X5.6485Y-4.4685
X5.6485Y-5.4528
X5.6575Y-2.4055
X5.6575Y-3.3898
X5.6575Y-4.374
X5.6575Y-5.3583
X5.752Y-2.3031
X5.752Y-3.2874
X5.752Y-4.2717
X5.752Y-5.2559
X5.7598Y-2.5
X5.7598Y-3.4843
X5.7598Y-4.4685
X5.7598Y-5.4528
X5.8378Y-2.439
X5.8378Y-3.4232
X5.8378Y-4.4075
X5.8378Y-5.3917
X5.8583Y-2.5
X5.8583Y-3.4843
X5.8583Y-4.4685
X5.8583Y-5.4528
X5.8701Y-2.0906
X5.8701Y-3.0748
X5.8701Y-4.0591
X5.8701Y-5.0433
X5.9094Y-2.4252
X5.9094Y-3.4094
X5.9094Y-4.3937
X5.9094Y-5.378
X5.9128Y-2.2217
X5.9128Y-3.2059
X5.9128Y-4.1902
X5.9128Y-5.1744
X5.9404Y-2.5394
X5.9404Y-3.5236
X5.9404Y-4.5079
X5.9404Y-5.4921
X5.9843Y-2.5118
X5.9843Y-3.4961
X5.9843Y-4.4803
X5.9843Y-5.4646
X5.9882Y-2.2598
X5.9882Y-2.3228
X5.9882Y-3.2441
X5.9882Y-3.3071
X5.9882Y-4.2283
X5.9882Y-4.2913
X5.9882Y-5.2126
X5.9882Y-5.2756
X6.0079Y-2.0945
X6.0079Y-3.0787
X6.0079Y-4.063
X6.0079Y-5.0472
X6.0492Y-1.9616
X6.0492Y-2.9459
X6.0492Y-3.9301
X6.0492Y-4.9144
X6.0551Y-2.1024
X6.0551Y-3.0866
X6.0551Y-4.0709
X6.0551Y-5.0551
X6.0669Y-2.122
X6.0669Y-3.1063
X6.0669Y-4.0906
X6.0669Y-5.0748
X6.0787Y-2.1024
X6.0787Y-3.0866
X6.0787Y-4.0709
X6.0787Y-5.0551
X6.0906Y-2.122
X6.0906Y-3.1063
X6.0906Y-4.0906
X6.0906Y-5.0748
X6.1024Y-2.1024
X6.1024Y-3.0866
X6.1024Y-4.0709
X6.1024Y-5.0551
X6.1102Y-2.2165
X6.1102Y-2.6339
X6.1102Y-3.2008
X6.1102Y-3.6181
X6.1102Y-4.185
X6.1102Y-4.6024
X6.1102Y-5.1693
X6.1102Y-5.5866
X6.1142Y-2.122
X6.1142Y-3.1063
X6.1142Y-4.0906
X6.1142Y-5.0748
X6.122Y-2.2362
X6.122Y-2.6535
X6.122Y-3.2205
X6.122Y-3.6378
X6.122Y-4.2047
X6.122Y-4.622
X6.122Y-5.189
X6.122Y-5.6063
X6.1339Y-2.2165
X6.1339Y-2.6339
X6.1339Y-3.2008
X6.1339Y-3.6181
X6.1339Y-4.185
X6.1339Y-4.6024
X6.1339Y-5.1693
X6.1339Y-5.5866
X6.1417Y-2.0463
X6.1417Y-2.3937
X6.1417Y-3.0305
X6.1417Y-3.378
X6.1417Y-4.0148
X6.1417Y-4.3622
X6.1417Y-4.999
X6.1417Y-5.3465
X6.1457Y-2.2362
X6.1457Y-2.6535
X6.1457Y-3.2205
X6.1457Y-3.6378
X6.1457Y-4.2047
X6.1457Y-4.622
X6.1457Y-5.189
X6.1457Y-5.6063
X6.1575Y-2.2165
X6.1575Y-2.6339
X6.1575Y-3.2008
X6.1575Y-3.6181
X6.1575Y-4.185
X6.1575Y-4.6024
X6.1575Y-5.1693
X6.1575Y-5.5866
X6.1693Y-2.2362
X6.1693Y-2.6535
X6.1693Y-3.2205
X6.1693Y-3.6378
X6.1693Y-4.2047
X6.1693Y-4.622
X6.1693Y-5.189
X6.1693Y-5.6063
X6.1891Y-2.3269
X6.1891Y-3.3112
X6.1891Y-4.2954
X6.1891Y-5.2797
X6.3937Y-2.0463
X6.3937Y-3.0305
X6.3937Y-4.0148
X6.3937Y-4.999
X6.6299Y-2.396
X6.6299Y-3.3802
X6.6299Y-4.3645
X6.6299Y-5.3487
X6.6772Y-2.2402
X6.6772Y-3.2244
X6.6772Y-4.2087
X6.6772Y-5.1929
X6.6811Y-2.4134
X6.6811Y-3.3976
X6.6811Y-4.3819
X6.6811Y-5.3661
X6.811Y-2.4764
X6.811Y-3.4606
X6.811Y-4.4449
X6.811Y-5.4291
X7.2559Y-2.1614
X7.2559Y-2.185
X7.2559Y-3.1457
X7.2559Y-3.1693
X7.2559Y-4.1299
X7.2559Y-4.1535
X7.2559Y-5.1142
X7.2559Y-5.1378
X7.2835Y-2.1614
X7.2835Y-2.185
X7.2835Y-3.1457
X7.2835Y-3.1693
X7.2835Y-4.1299
X7.2835Y-4.1535
X7.2835Y-5.1142
X7.2835Y-5.1378
X7.315Y-2.185
X7.315Y-3.1693
X7.315Y-4.1535
X7.315Y-5.1378
X7.3425Y-2.185
X7.3425Y-2.2874
X7.3425Y-3.1693
X7.3425Y-3.2717
X7.3425Y-4.1535
X7.3425Y-4.2559
X7.3425Y-5.1378
X7.3425Y-5.2402
X7.3543Y-2.3071
X7.3543Y-3.2913
X7.3543Y-4.2756
X7.3543Y-5.2598
X7.3661Y-2.2874
X7.3661Y-3.2717
X7.3661Y-4.2559
X7.3661Y-5.2402
X7.378Y-2.3071
X7.378Y-3.2913
X7.378Y-4.2756
X7.378Y-5.2598
X7.3898Y-2.2874
X7.3898Y-3.2717
X7.3898Y-4.2559
X7.3898Y-5.2402
X7.4016Y-2.3071
X7.4016Y-3.2913
X7.4016Y-4.2756
X7.4016Y-5.2598
X7.4128Y-2.1969
X7.4128Y-3.1811
X7.4128Y-4.1654
X7.4128Y-5.1496
X7.4595Y-2.5
X7.4595Y-3.4843
X7.4595Y-4.4685
X7.4595Y-5.4528
X7.4685Y-2.4055
X7.4685Y-3.3898
X7.4685Y-4.374
X7.4685Y-5.3583
X7.563Y-2.3031
X7.563Y-3.2874
X7.563Y-4.2717
X7.563Y-5.2559
X7.5709Y-2.5
X7.5709Y-3.4843
X7.5709Y-4.4685
X7.5709Y-5.4528
X7.6488Y-2.439
X7.6488Y-3.4232
X7.6488Y-4.4075
X7.6488Y-5.3917
X7.6693Y-2.5
X7.6693Y-3.4843
X7.6693Y-4.4685
X7.6693Y-5.4528
X7.6811Y-2.0906
X7.6811Y-3.0748
X7.6811Y-4.0591
X7.6811Y-5.0433
X7.7205Y-2.4252
X7.7205Y-3.4094
X7.7205Y-4.3937
X7.7205Y-5.378
X7.7238Y-2.2217
X7.7238Y-3.2059
X7.7238Y-4.1902
X7.7238Y-5.1744
X7.7514Y-2.5394
X7.7514Y-3.5236
X7.7514Y-4.5079
X7.7514Y-5.4921
X7.7953Y-2.5118
X7.7953Y-3.4961
X7.7953Y-4.4803
X7.7953Y-5.4646
X7.7992Y-2.2598
X7.7992Y-2.3228
X7.7992Y-3.2441
X7.7992Y-3.3071
X7.7992Y-4.2283
X7.7992Y-4.2913
X7.7992Y-5.2126
X7.7992Y-5.2756
X7.8189Y-2.0945
X7.8189Y-3.0787
X7.8189Y-4.063
X7.8189Y-5.0472
X7.8602Y-1.9616
X7.8602Y-2.9459
X7.8602Y-3.9301
X7.8602Y-4.9144
X7.8661Y-2.1024
X7.8661Y-3.0866
X7.8661Y-4.0709
X7.8661Y-5.0551
X7.878Y-2.122
X7.878Y-3.1063
X7.878Y-4.0906
X7.878Y-5.0748
X7.8898Y-2.1024
X7.8898Y-3.0866
X7.8898Y-4.0709
X7.8898Y-5.0551
X7.9016Y-2.122
X7.9016Y-3.1063
X7.9016Y-4.0906
X7.9016Y-5.0748
X7.9134Y-2.1024
X7.9134Y-3.0866
X7.9134Y-4.0709
X7.9134Y-5.0551
X7.9213Y-2.2165
X7.9213Y-2.6339
X7.9213Y-3.2008
X7.9213Y-3.6181
X7.9213Y-4.185
X7.9213Y-4.6024
X7.9213Y-5.1693
X7.9213Y-5.5866
X7.9252Y-2.122
X7.9252Y-3.1063
X7.9252Y-4.0906
X7.9252Y-5.0748
X7.9331Y-2.2362
X7.9331Y-2.6535
X7.9331Y-3.2205
X7.9331Y-3.6378
X7.9331Y-4.2047
X7.9331Y-4.622
X7.9331Y-5.189
X7.9331Y-5.6063
X7.9449Y-2.2165
X7.9449Y-2.6339
X7.9449Y-3.2008
X7.9449Y-3.6181
X7.9449Y-4.185
X7.9449Y-4.6024
X7.9449Y-5.1693
X7.9449Y-5.5866
X7.9528Y-2.0463
X7.9528Y-2.3937
X7.9528Y-3.0305
X7.9528Y-3.378
X7.9528Y-4.0148
X7.9528Y-4.3622
X7.9528Y-4.999
X7.9528Y-5.3465
X7.9567Y-2.2362
X7.9567Y-2.6535
X7.9567Y-3.2205
X7.9567Y-3.6378
X7.9567Y-4.2047
X7.9567Y-4.622
X7.9567Y-5.189
X7.9567Y-5.6063
X7.9685Y-2.2165
X7.9685Y-2.6339
X7.9685Y-3.2008
X7.9685Y-3.6181
X7.9685Y-4.185
X7.9685Y-4.6024
X7.9685Y-5.1693
X7.9685Y-5.5866
X7.9803Y-2.2362
X7.9803Y-2.6535
X7.9803Y-3.2205
X7.9803Y-3.6378
X7.9803Y-4.2047
X7.9803Y-4.622
X7.9803Y-5.189
X7.9803Y-5.6063
X8.0002Y-2.3269
X8.0002Y-3.3112
X8.0002Y-4.2954
X8.0002Y-5.2797
X8.2047Y-2.0463
X8.2047Y-3.0305
X8.2047Y-4.0148
X8.2047Y-4.999
X8.4409Y-2.396
X8.4409Y-3.3802
X8.4409Y-4.3645
X8.4409Y-5.3487
X8.4882Y-2.2402
X8.4882Y-3.2244
X8.4882Y-4.2087
X8.4882Y-5.1929
X8.4921Y-2.4134
X8.4921Y-3.3976
X8.4921Y-4.3819
X8.4921Y-5.3661
X8.622Y-2.4764
X8.622Y-3.4606
X8.622Y-4.4449
X8.622Y-5.4291
T2
X1.9079Y-2.3681
X1.9079Y-2.4681
X1.9079Y-2.5681
X2.0079Y-2.4181
X2.0079Y-2.5181
X2.0079Y-2.6181
X5.4906Y-4.3366
X5.4906Y-4.4366
X5.4906Y-4.5366
X5.5906Y-4.3866
X5.5906Y-4.4866
X5.5906Y-4.5866
X3.0234Y-5.0146
X3.0734Y-4.9146
X3.1234Y-5.0146
X3.1734Y-4.9146
X3.0234Y-4.0303
X3.0734Y-3.9303
X3.1234Y-4.0303
X3.1734Y-3.9303
X5.4906Y-3.3524
X5.4906Y-3.4524
X5.4906Y-3.5524
X5.5906Y-3.4024
X5.5906Y-3.5024
X5.5906Y-3.6024
X3.7189Y-5.3209
X3.7189Y-5.4209
X3.7189Y-5.5209
X3.8189Y-5.3709
X3.8189Y-5.4709
X3.8189Y-5.5709
X3.7189Y-4.3366
X3.7189Y-4.4366
X3.7189Y-4.5366
X3.8189Y-4.3866
X3.8189Y-4.4866
X3.8189Y-4.5866
X4.8344Y-4.0303
X4.8844Y-3.9303
X4.9344Y-4.0303
X4.9844Y-3.9303
X1.9079Y-4.3366
X1.9079Y-4.4366
X1.9079Y-4.5366
X2.0079Y-4.3866
X2.0079Y-4.4866
X2.0079Y-4.5866
X7.3016Y-2.3681
X7.3016Y-2.4681
X7.3016Y-2.5681
X7.4016Y-2.4181
X7.4016Y-2.5181
X7.4016Y-2.6181
X3.0234Y-2.0618
X3.0734Y-1.9618
X3.1234Y-2.0618
X3.1734Y-1.9618
X5.4906Y-2.3681
X5.4906Y-2.4681
X5.4906Y-2.5681
X5.5906Y-2.4181
X5.5906Y-2.5181
X5.5906Y-2.6181
X4.8344Y-5.0146
X4.8844Y-4.9146
X4.9344Y-5.0146
X4.9844Y-4.9146
X7.3016Y-4.3366
X7.3016Y-4.4366
X7.3016Y-4.5366
X7.4016Y-4.3866
X7.4016Y-4.4866
X7.4016Y-4.5866
X3.7189Y-3.3524
X3.7189Y-3.4524
X3.7189Y-3.5524
X3.8189Y-3.4024
X3.8189Y-3.5024
X3.8189Y-3.6024
X8.4171Y-5.0146
X8.4671Y-4.9146
X8.5171Y-5.0146
X8.5671Y-4.9146
X8.4171Y-2.0618
X8.4671Y-1.9618
X8.5171Y-2.0618
X8.5671Y-1.9618
X1.9079Y-3.3524
X1.9079Y-3.4524
X1.9079Y-3.5524
X2.0079Y-3.4024
X2.0079Y-3.5024
X2.0079Y-3.6024
X7.3016Y-3.3524
X7.3016Y-3.4524
X7.3016Y-3.5524
X7.4016Y-3.4024
X7.4016Y-3.5024
X7.4016Y-3.6024
X6.6061Y-5.0146
X6.6561Y-4.9146
X6.7061Y-5.0146
X6.7561Y-4.9146
X3.7189Y-2.3681
X3.7189Y-2.4681
X3.7189Y-2.5681
X3.8189Y-2.4181
X3.8189Y-2.5181
X3.8189Y-2.6181
X6.6061Y-2.0618
X6.6561Y-1.9618
X6.7061Y-2.0618
X6.7561Y-1.9618
X8.4171Y-4.0303
X8.4671Y-3.9303
X8.5171Y-4.0303
X8.5671Y-3.9303
X5.4906Y-5.3209
X5.4906Y-5.4209
X5.4906Y-5.5209
X5.5906Y-5.3709
X5.5906Y-5.4709
X5.5906Y-5.5709
X4.8344Y-2.0618
X4.8844Y-1.9618
X4.9344Y-2.0618
X4.9844Y-1.9618
X1.9079Y-5.3209
X1.9079Y-5.4209
X1.9079Y-5.5209
X2.0079Y-5.3709
X2.0079Y-5.4709
X2.0079Y-5.5709
X6.6061Y-4.0303
X6.6561Y-3.9303
X6.7061Y-4.0303
X6.7561Y-3.9303
X3.0234Y-3.0461
X3.0734Y-2.9461
X3.1234Y-3.0461
X3.1734Y-2.9461
X7.3016Y-5.3209
X7.3016Y-5.4209
X7.3016Y-5.5209
X7.4016Y-5.3709
X7.4016Y-5.4709
X7.4016Y-5.5709
X6.6061Y-3.0461
X6.6561Y-2.9461
X6.7061Y-3.0461
X6.7561Y-2.9461
X8.4171Y-3.0461
X8.4671Y-2.9461
X8.5171Y-3.0461
X8.5671Y-2.9461
X4.8344Y-3.0461
X4.8844Y-2.9461
X4.9344Y-3.0461
X4.9844Y-2.9461
T3
X5.4906Y-4.9134
X5.5906Y-4.9134
X3.7189Y-2.9449
X3.8189Y-2.9449
X1.9079Y-2.9449
X2.0079Y-2.9449
X7.748Y-3.9315
X7.748Y-4.0315
X7.3016Y-3.9291
X7.4016Y-3.9291
X3.7189Y-3.9291
X3.8189Y-3.9291
X1.9079Y-3.9291
X2.0079Y-3.9291
X1.9079Y-4.9134
X2.0079Y-4.9134
X5.937Y-3.9315
X5.937Y-4.0315
X3.7189Y-4.9134
X3.8189Y-4.9134
X2.3543Y-4.9157
X2.3543Y-5.0157
X4.1654Y-3.9315
X4.1654Y-4.0315
X5.937Y-1.963
X5.937Y-2.063
X7.3016Y-2.9449
X7.4016Y-2.9449
X4.1654Y-4.9157
X4.1654Y-5.0157
X2.3543Y-3.9315
X2.3543Y-4.0315
X4.1654Y-2.9472
X4.1654Y-3.0472
X2.3543Y-2.9472
X2.3543Y-3.0472
X5.4906Y-2.9449
X5.5906Y-2.9449
X4.1654Y-1.963
X4.1654Y-2.063
X7.748Y-1.963
X7.748Y-2.063
X7.748Y-2.9472
X7.748Y-3.0472
X2.3543Y-1.963
X2.3543Y-2.063
X1.9079Y-1.9606
X2.0079Y-1.9606
X5.4906Y-1.9606
X5.5906Y-1.9606
X5.937Y-2.9472
X5.937Y-3.0472
X7.748Y-4.9157
X7.748Y-5.0157
X7.3016Y-1.9606
X7.4016Y-1.9606
X7.3016Y-4.9134
X7.4016Y-4.9134
X5.4906Y-3.9291
X5.5906Y-3.9291
X5.937Y-4.9157
X5.937Y-5.0157
X3.7189Y-1.9606
X3.8189Y-1.9606
T4
X7.5787Y-5.5709
X8.7598Y-4.5866
X5.1772Y-5.5709
X5.1772Y-3.6024
X7.5787Y-1.9882
X5.7677Y-3.9567
X3.9961Y-5.5709
X7.5787Y-4.9409
X8.7598Y-2.6181
X5.1772Y-2.9724
X7.5787Y-2.6181
X2.185Y-2.9724
X6.9488Y-2.6181
X3.9961Y-2.6181
X2.185Y-2.6181
X5.7677Y-4.5866
X3.3661Y-5.5709
X3.3661Y-4.9409
X6.9488Y-5.5709
X3.3661Y-3.6024
X3.9961Y-3.9567
X8.7598Y-3.6024
X2.185Y-4.5866
X3.3661Y-2.9724
X3.3661Y-1.9882
X3.3661Y-2.6181
X3.9961Y-1.9882
X8.7598Y-3.9567
X8.7598Y-1.9882
X6.9488Y-2.9724
X7.5787Y-4.5866
X5.1772Y-4.5866
X3.9961Y-4.9409
X5.7677Y-2.9724
X7.5787Y-3.9567
X5.1772Y-3.9567
X5.7677Y-3.6024
X5.1772Y-2.6181
X2.185Y-3.9567
X3.9961Y-3.6024
X5.1772Y-1.9882
X8.7598Y-2.9724
X8.7598Y-5.5709
X6.9488Y-1.9882
X2.185Y-5.5709
X5.7677Y-1.9882
X5.7677Y-5.5709
X6.9488Y-4.5866
X3.3661Y-4.5866
X7.5787Y-2.9724
X5.7677Y-4.9409
X3.3661Y-3.9567
X2.185Y-1.9882
X7.5787Y-3.6024
X5.1772Y-4.9409
X3.9961Y-2.9724
X6.9488Y-3.6024
X2.185Y-3.6024
X5.7677Y-2.6181
X6.9488Y-3.9567
X8.7598Y-4.9409
X2.185Y-4.9409
X3.9961Y-4.5866
X6.9488Y-4.9409
T0
M30
