M48
;DRILL file {KiCad 5.0.2-bee76a0~70~ubuntu18.04.1} date Thu 05 Mar 2020 03:15:45 PM CET
;FORMAT={-:-/ absolute / inch / decimal}
FMAT,2
INCH,TZ
T1C0.0118
T2C0.0591
%
G90
G05
T1
X6.6398Y-5.9094
X6.6552Y-5.9094
X6.6706Y-5.9094
X6.686Y-5.9094
X6.7014Y-5.9094
X6.7169Y-5.9094
X6.7323Y-5.9094
X6.7477Y-5.9094
X6.7631Y-5.9094
X6.7785Y-5.9094
X6.794Y-5.9094
X6.8094Y-5.9094
X6.8248Y-5.9094
X6.6398Y-2.1299
X6.6552Y-2.1299
X6.6706Y-2.1299
X6.686Y-2.1299
X6.7014Y-2.1299
X6.7169Y-2.1299
X6.7323Y-2.1299
X6.7477Y-2.1299
X6.7631Y-2.1299
X6.7785Y-2.1299
X6.794Y-2.1299
X6.8094Y-2.1299
X6.8248Y-2.1299
X6.6398Y-5.0827
X6.6552Y-5.0827
X6.6706Y-5.0827
X6.686Y-5.0827
X6.7014Y-5.0827
X6.7169Y-5.0827
X6.7323Y-5.0827
X6.7477Y-5.0827
X6.7631Y-5.0827
X6.7785Y-5.0827
X6.794Y-5.0827
X6.8094Y-5.0827
X6.8248Y-5.0827
X4.8287Y-3.1142
X4.8442Y-3.1142
X4.8596Y-3.1142
X4.875Y-3.1142
X4.8904Y-3.1142
X4.9058Y-3.1142
X4.9213Y-3.1142
X4.9367Y-3.1142
X4.9521Y-3.1142
X4.9675Y-3.1142
X4.9829Y-3.1142
X4.9984Y-3.1142
X5.0138Y-3.1142
X4.8287Y-2.9567
X4.8442Y-2.9567
X4.8596Y-2.9567
X4.875Y-2.9567
X4.8904Y-2.9567
X4.9058Y-2.9567
X4.9213Y-2.9567
X4.9367Y-2.9567
X4.9521Y-2.9567
X4.9675Y-2.9567
X4.9829Y-2.9567
X4.9984Y-2.9567
X5.0138Y-2.9567
X6.6398Y-2.9567
X6.6552Y-2.9567
X6.6706Y-2.9567
X6.686Y-2.9567
X6.7014Y-2.9567
X6.7169Y-2.9567
X6.7323Y-2.9567
X6.7477Y-2.9567
X6.7631Y-2.9567
X6.7785Y-2.9567
X6.794Y-2.9567
X6.8094Y-2.9567
X6.8248Y-2.9567
X3.8583Y-5.9843
X3.874Y-5.9843
X3.8898Y-5.9843
X3.9055Y-5.9843
X3.9213Y-5.9843
X3.937Y-5.9843
X5.9094Y-4.3957
X5.9094Y-4.4111
X5.9094Y-4.4265
X5.9094Y-4.4419
X5.9094Y-4.4573
X5.9094Y-4.4728
X5.9094Y-4.4882
X5.9094Y-4.5036
X5.9094Y-4.519
X5.9094Y-4.5344
X5.9094Y-4.5499
X5.9094Y-4.5653
X5.9094Y-4.5807
X4.8287Y-5.9094
X4.8442Y-5.9094
X4.8596Y-5.9094
X4.875Y-5.9094
X4.8904Y-5.9094
X4.9058Y-5.9094
X4.9213Y-5.9094
X4.9367Y-5.9094
X4.9521Y-5.9094
X4.9675Y-5.9094
X4.9829Y-5.9094
X4.9984Y-5.9094
X5.0138Y-5.9094
X4.8287Y-2.1299
X4.8442Y-2.1299
X4.8596Y-2.1299
X4.875Y-2.1299
X4.8904Y-2.1299
X4.9058Y-2.1299
X4.9213Y-2.1299
X4.9367Y-2.1299
X4.9521Y-2.1299
X4.9675Y-2.1299
X4.9829Y-2.1299
X4.9984Y-2.1299
X5.0138Y-2.1299
X5.9094Y-3.4114
X5.9094Y-3.4268
X5.9094Y-3.4423
X5.9094Y-3.4577
X5.9094Y-3.4731
X5.9094Y-3.4885
X5.9094Y-3.5039
X5.9094Y-3.5194
X5.9094Y-3.5348
X5.9094Y-3.5502
X5.9094Y-3.5656
X5.9094Y-3.581
X5.9094Y-3.5965
X5.7362Y-2.4272
X5.7362Y-2.4426
X5.7362Y-2.458
X5.7362Y-2.4734
X5.7362Y-2.4888
X5.7362Y-2.5043
X5.7362Y-2.5197
X5.7362Y-2.5351
X5.7362Y-2.5505
X5.7362Y-2.5659
X5.7362Y-2.5814
X5.7362Y-2.5968
X5.7362Y-2.6122
X5.9094Y-2.4272
X5.9094Y-2.4426
X5.9094Y-2.458
X5.9094Y-2.4734
X5.9094Y-2.4888
X5.9094Y-2.5043
X5.9094Y-2.5197
X5.9094Y-2.5351
X5.9094Y-2.5505
X5.9094Y-2.5659
X5.9094Y-2.5814
X5.9094Y-2.5968
X5.9094Y-2.6122
X4.0984Y-2.4272
X4.0984Y-2.4426
X4.0984Y-2.458
X4.0984Y-2.4734
X4.0984Y-2.4888
X4.0984Y-2.5043
X4.0984Y-2.5197
X4.0984Y-2.5351
X4.0984Y-2.5505
X4.0984Y-2.5659
X4.0984Y-2.5814
X4.0984Y-2.5968
X4.0984Y-2.6122
X6.6398Y-4.0984
X6.6552Y-4.0984
X6.6706Y-4.0984
X6.686Y-4.0984
X6.7014Y-4.0984
X6.7169Y-4.0984
X6.7323Y-4.0984
X6.7477Y-4.0984
X6.7631Y-4.0984
X6.7785Y-4.0984
X6.794Y-4.0984
X6.8094Y-4.0984
X6.8248Y-4.0984
X4.0984Y-4.3957
X4.0984Y-4.4111
X4.0984Y-4.4265
X4.0984Y-4.4419
X4.0984Y-4.4573
X4.0984Y-4.4728
X4.0984Y-4.4882
X4.0984Y-4.5036
X4.0984Y-4.519
X4.0984Y-4.5344
X4.0984Y-4.5499
X4.0984Y-4.5653
X4.0984Y-4.5807
X7.7165Y-2.0472
X7.7323Y-2.0472
X7.748Y-2.0472
X7.7638Y-2.0472
X7.7795Y-2.0472
X7.7953Y-2.0472
X4.8287Y-5.0827
X4.8442Y-5.0827
X4.8596Y-5.0827
X4.875Y-5.0827
X4.8904Y-5.0827
X4.9058Y-5.0827
X4.9213Y-5.0827
X4.9367Y-5.0827
X4.9521Y-5.0827
X4.9675Y-5.0827
X4.9829Y-5.0827
X4.9984Y-5.0827
X5.0138Y-5.0827
X6.6398Y-4.9252
X6.6552Y-4.9252
X6.6706Y-4.9252
X6.686Y-4.9252
X6.7014Y-4.9252
X6.7169Y-4.9252
X6.7323Y-4.9252
X6.7477Y-4.9252
X6.7631Y-4.9252
X6.7785Y-4.9252
X6.794Y-4.9252
X6.8094Y-4.9252
X6.8248Y-4.9252
X6.6398Y-3.1142
X6.6552Y-3.1142
X6.6706Y-3.1142
X6.686Y-3.1142
X6.7014Y-3.1142
X6.7169Y-3.1142
X6.7323Y-3.1142
X6.7477Y-3.1142
X6.7631Y-3.1142
X6.7785Y-3.1142
X6.794Y-3.1142
X6.8094Y-3.1142
X6.8248Y-3.1142
X4.8287Y-3.9409
X4.8442Y-3.9409
X4.8596Y-3.9409
X4.875Y-3.9409
X4.8904Y-3.9409
X4.9058Y-3.9409
X4.9213Y-3.9409
X4.9367Y-3.9409
X4.9521Y-3.9409
X4.9675Y-3.9409
X4.9829Y-3.9409
X4.9984Y-3.9409
X5.0138Y-3.9409
X7.7165Y-5.9843
X7.7323Y-5.9843
X7.748Y-5.9843
X7.7638Y-5.9843
X7.7795Y-5.9843
X7.7953Y-5.9843
X3.8583Y-2.0472
X3.874Y-2.0472
X3.8898Y-2.0472
X3.9055Y-2.0472
X3.9213Y-2.0472
X3.937Y-2.0472
X4.0984Y-5.3799
X4.0984Y-5.3953
X4.0984Y-5.4108
X4.0984Y-5.4262
X4.0984Y-5.4416
X4.0984Y-5.457
X4.0984Y-5.4724
X4.0984Y-5.4879
X4.0984Y-5.5033
X4.0984Y-5.5187
X4.0984Y-5.5341
X4.0984Y-5.5495
X4.0984Y-5.565
X7.5472Y-2.4272
X7.5472Y-2.4426
X7.5472Y-2.458
X7.5472Y-2.4734
X7.5472Y-2.4888
X7.5472Y-2.5043
X7.5472Y-2.5197
X7.5472Y-2.5351
X7.5472Y-2.5505
X7.5472Y-2.5659
X7.5472Y-2.5814
X7.5472Y-2.5968
X7.5472Y-2.6122
X5.9094Y-5.3799
X5.9094Y-5.3953
X5.9094Y-5.4108
X5.9094Y-5.4262
X5.9094Y-5.4416
X5.9094Y-5.457
X5.9094Y-5.4724
X5.9094Y-5.4879
X5.9094Y-5.5033
X5.9094Y-5.5187
X5.9094Y-5.5341
X5.9094Y-5.5495
X5.9094Y-5.565
X7.5472Y-3.4114
X7.5472Y-3.4268
X7.5472Y-3.4423
X7.5472Y-3.4577
X7.5472Y-3.4731
X7.5472Y-3.4885
X7.5472Y-3.5039
X7.5472Y-3.5194
X7.5472Y-3.5348
X7.5472Y-3.5502
X7.5472Y-3.5656
X7.5472Y-3.581
X7.5472Y-3.5965
X7.5472Y-4.3957
X7.5472Y-4.4111
X7.5472Y-4.4265
X7.5472Y-4.4419
X7.5472Y-4.4573
X7.5472Y-4.4728
X7.5472Y-4.4882
X7.5472Y-4.5036
X7.5472Y-4.519
X7.5472Y-4.5344
X7.5472Y-4.5499
X7.5472Y-4.5653
X7.5472Y-4.5807
X7.5472Y-5.3799
X7.5472Y-5.3953
X7.5472Y-5.4108
X7.5472Y-5.4262
X7.5472Y-5.4416
X7.5472Y-5.457
X7.5472Y-5.4724
X7.5472Y-5.4879
X7.5472Y-5.5033
X7.5472Y-5.5187
X7.5472Y-5.5341
X7.5472Y-5.5495
X7.5472Y-5.565
X4.8287Y-4.9252
X4.8442Y-4.9252
X4.8596Y-4.9252
X4.875Y-4.9252
X4.8904Y-4.9252
X4.9058Y-4.9252
X4.9213Y-4.9252
X4.9367Y-4.9252
X4.9521Y-4.9252
X4.9675Y-4.9252
X4.9829Y-4.9252
X4.9984Y-4.9252
X5.0138Y-4.9252
X5.7362Y-3.4114
X5.7362Y-3.4268
X5.7362Y-3.4423
X5.7362Y-3.4577
X5.7362Y-3.4731
X5.7362Y-3.4885
X5.7362Y-3.5039
X5.7362Y-3.5194
X5.7362Y-3.5348
X5.7362Y-3.5502
X5.7362Y-3.5656
X5.7362Y-3.581
X5.7362Y-3.5965
X4.8287Y-4.0984
X4.8442Y-4.0984
X4.8596Y-4.0984
X4.875Y-4.0984
X4.8904Y-4.0984
X4.9058Y-4.0984
X4.9213Y-4.0984
X4.9367Y-4.0984
X4.9521Y-4.0984
X4.9675Y-4.0984
X4.9829Y-4.0984
X4.9984Y-4.0984
X5.0138Y-4.0984
X5.7362Y-4.3957
X5.7362Y-4.4111
X5.7362Y-4.4265
X5.7362Y-4.4419
X5.7362Y-4.4573
X5.7362Y-4.4728
X5.7362Y-4.4882
X5.7362Y-4.5036
X5.7362Y-4.519
X5.7362Y-4.5344
X5.7362Y-4.5499
X5.7362Y-4.5653
X5.7362Y-4.5807
X6.6398Y-3.9409
X6.6552Y-3.9409
X6.6706Y-3.9409
X6.686Y-3.9409
X6.7014Y-3.9409
X6.7169Y-3.9409
X6.7323Y-3.9409
X6.7477Y-3.9409
X6.7631Y-3.9409
X6.7785Y-3.9409
X6.794Y-3.9409
X6.8094Y-3.9409
X6.8248Y-3.9409
X4.0984Y-3.4114
X4.0984Y-3.4268
X4.0984Y-3.4423
X4.0984Y-3.4577
X4.0984Y-3.4731
X4.0984Y-3.4885
X4.0984Y-3.5039
X4.0984Y-3.5194
X4.0984Y-3.5348
X4.0984Y-3.5502
X4.0984Y-3.5656
X4.0984Y-3.581
X4.0984Y-3.5965
X5.7362Y-5.3799
X5.7362Y-5.3953
X5.7362Y-5.4108
X5.7362Y-5.4262
X5.7362Y-5.4416
X5.7362Y-5.457
X5.7362Y-5.4724
X5.7362Y-5.4879
X5.7362Y-5.5033
X5.7362Y-5.5187
X5.7362Y-5.5341
X5.7362Y-5.5495
X5.7362Y-5.565
T2
X6.0197Y-4.8819
X4.2087Y-5.8661
X6.0197Y-5.8661
X7.051Y-2.2311
X4.2087Y-4.8819
X6.0197Y-3.8976
X7.051Y-3.2154
X5.24Y-2.2311
X6.0197Y-2.9134
X5.24Y-3.2154
X4.2087Y-3.8976
X4.2087Y-2.9134
X7.051Y-4.1996
X5.24Y-5.1839
X5.24Y-4.1996
X7.051Y-5.1839
T0
M30
