G04 #@! TF.GenerationSoftware,KiCad,Pcbnew,5.0.2-bee76a0~70~ubuntu18.04.1*
G04 #@! TF.CreationDate,2020-03-05T15:15:43+01:00*
G04 #@! TF.ProjectId,output.m3_panel,6f757470-7574-42e6-9d33-5f70616e656c,rev?*
G04 #@! TF.SameCoordinates,Original*
G04 #@! TF.FileFunction,Legend,Bot*
G04 #@! TF.FilePolarity,Positive*
%FSLAX46Y46*%
G04 Gerber Fmt 4.6, Leading zero omitted, Abs format (unit mm)*
G04 Created by KiCad (PCBNEW 5.0.2-bee76a0~70~ubuntu18.04.1) date Thu 05 Mar 2020 03:15:43 PM CET*
%MOMM*%
%LPD*%
G01*
G04 APERTURE LIST*
%ADD10C,0.200000*%
%ADD11C,0.150000*%
%ADD12C,0.250000*%
G04 APERTURE END LIST*
D10*
X182191904Y-137005238D02*
X181391904Y-137005238D01*
X181391904Y-137386190D01*
X181430000Y-137481428D01*
X181468095Y-137529047D01*
X181544285Y-137576666D01*
X181658571Y-137576666D01*
X181734761Y-137529047D01*
X181772857Y-137481428D01*
X181810952Y-137386190D01*
X181810952Y-137005238D01*
X181391904Y-137910000D02*
X182191904Y-138148095D01*
X181620476Y-138338571D01*
X182191904Y-138529047D01*
X181391904Y-138767142D01*
X182191904Y-139148095D02*
X181391904Y-139148095D01*
X181963333Y-139481428D01*
X181391904Y-139814761D01*
X182191904Y-139814761D01*
X136191904Y-137005238D02*
X135391904Y-137005238D01*
X135391904Y-137386190D01*
X135430000Y-137481428D01*
X135468095Y-137529047D01*
X135544285Y-137576666D01*
X135658571Y-137576666D01*
X135734761Y-137529047D01*
X135772857Y-137481428D01*
X135810952Y-137386190D01*
X135810952Y-137005238D01*
X135391904Y-137910000D02*
X136191904Y-138148095D01*
X135620476Y-138338571D01*
X136191904Y-138529047D01*
X135391904Y-138767142D01*
X136191904Y-139148095D02*
X135391904Y-139148095D01*
X135963333Y-139481428D01*
X135391904Y-139814761D01*
X136191904Y-139814761D01*
X182191904Y-112005238D02*
X181391904Y-112005238D01*
X181391904Y-112386190D01*
X181430000Y-112481428D01*
X181468095Y-112529047D01*
X181544285Y-112576666D01*
X181658571Y-112576666D01*
X181734761Y-112529047D01*
X181772857Y-112481428D01*
X181810952Y-112386190D01*
X181810952Y-112005238D01*
X181391904Y-112910000D02*
X182191904Y-113148095D01*
X181620476Y-113338571D01*
X182191904Y-113529047D01*
X181391904Y-113767142D01*
X182191904Y-114148095D02*
X181391904Y-114148095D01*
X181963333Y-114481428D01*
X181391904Y-114814761D01*
X182191904Y-114814761D01*
X136191904Y-112005238D02*
X135391904Y-112005238D01*
X135391904Y-112386190D01*
X135430000Y-112481428D01*
X135468095Y-112529047D01*
X135544285Y-112576666D01*
X135658571Y-112576666D01*
X135734761Y-112529047D01*
X135772857Y-112481428D01*
X135810952Y-112386190D01*
X135810952Y-112005238D01*
X135391904Y-112910000D02*
X136191904Y-113148095D01*
X135620476Y-113338571D01*
X136191904Y-113529047D01*
X135391904Y-113767142D01*
X136191904Y-114148095D02*
X135391904Y-114148095D01*
X135963333Y-114481428D01*
X135391904Y-114814761D01*
X136191904Y-114814761D01*
X182191904Y-87005238D02*
X181391904Y-87005238D01*
X181391904Y-87386190D01*
X181430000Y-87481428D01*
X181468095Y-87529047D01*
X181544285Y-87576666D01*
X181658571Y-87576666D01*
X181734761Y-87529047D01*
X181772857Y-87481428D01*
X181810952Y-87386190D01*
X181810952Y-87005238D01*
X181391904Y-87910000D02*
X182191904Y-88148095D01*
X181620476Y-88338571D01*
X182191904Y-88529047D01*
X181391904Y-88767142D01*
X182191904Y-89148095D02*
X181391904Y-89148095D01*
X181963333Y-89481428D01*
X181391904Y-89814761D01*
X182191904Y-89814761D01*
X136191904Y-87005238D02*
X135391904Y-87005238D01*
X135391904Y-87386190D01*
X135430000Y-87481428D01*
X135468095Y-87529047D01*
X135544285Y-87576666D01*
X135658571Y-87576666D01*
X135734761Y-87529047D01*
X135772857Y-87481428D01*
X135810952Y-87386190D01*
X135810952Y-87005238D01*
X135391904Y-87910000D02*
X136191904Y-88148095D01*
X135620476Y-88338571D01*
X136191904Y-88529047D01*
X135391904Y-88767142D01*
X136191904Y-89148095D02*
X135391904Y-89148095D01*
X135963333Y-89481428D01*
X135391904Y-89814761D01*
X136191904Y-89814761D01*
X182191904Y-62005238D02*
X181391904Y-62005238D01*
X181391904Y-62386190D01*
X181430000Y-62481428D01*
X181468095Y-62529047D01*
X181544285Y-62576666D01*
X181658571Y-62576666D01*
X181734761Y-62529047D01*
X181772857Y-62481428D01*
X181810952Y-62386190D01*
X181810952Y-62005238D01*
X181391904Y-62910000D02*
X182191904Y-63148095D01*
X181620476Y-63338571D01*
X182191904Y-63529047D01*
X181391904Y-63767142D01*
X182191904Y-64148095D02*
X181391904Y-64148095D01*
X181963333Y-64481428D01*
X181391904Y-64814761D01*
X182191904Y-64814761D01*
X180500000Y-134940000D02*
X180530000Y-136520000D01*
X134500000Y-134940000D02*
X134530000Y-136520000D01*
X180500000Y-109940000D02*
X180530000Y-111520000D01*
X134500000Y-109940000D02*
X134530000Y-111520000D01*
X180500000Y-84940000D02*
X180530000Y-86520000D01*
X134500000Y-84940000D02*
X134530000Y-86520000D01*
X180500000Y-59940000D02*
X180530000Y-61520000D01*
D11*
G36*
X150300000Y-138900000D02*
X156500000Y-138900000D01*
X156500000Y-143800000D01*
X153600000Y-143800000D01*
X153200000Y-142500000D01*
X150300000Y-142400000D01*
X150300000Y-138900000D01*
G37*
X150300000Y-138900000D02*
X156500000Y-138900000D01*
X156500000Y-143800000D01*
X153600000Y-143800000D01*
X153200000Y-142500000D01*
X150300000Y-142400000D01*
X150300000Y-138900000D01*
G36*
X104300000Y-138900000D02*
X110500000Y-138900000D01*
X110500000Y-143800000D01*
X107600000Y-143800000D01*
X107200000Y-142500000D01*
X104300000Y-142400000D01*
X104300000Y-138900000D01*
G37*
X104300000Y-138900000D02*
X110500000Y-138900000D01*
X110500000Y-143800000D01*
X107600000Y-143800000D01*
X107200000Y-142500000D01*
X104300000Y-142400000D01*
X104300000Y-138900000D01*
G36*
X150300000Y-113900000D02*
X156500000Y-113900000D01*
X156500000Y-118800000D01*
X153600000Y-118800000D01*
X153200000Y-117500000D01*
X150300000Y-117400000D01*
X150300000Y-113900000D01*
G37*
X150300000Y-113900000D02*
X156500000Y-113900000D01*
X156500000Y-118800000D01*
X153600000Y-118800000D01*
X153200000Y-117500000D01*
X150300000Y-117400000D01*
X150300000Y-113900000D01*
G36*
X104300000Y-113900000D02*
X110500000Y-113900000D01*
X110500000Y-118800000D01*
X107600000Y-118800000D01*
X107200000Y-117500000D01*
X104300000Y-117400000D01*
X104300000Y-113900000D01*
G37*
X104300000Y-113900000D02*
X110500000Y-113900000D01*
X110500000Y-118800000D01*
X107600000Y-118800000D01*
X107200000Y-117500000D01*
X104300000Y-117400000D01*
X104300000Y-113900000D01*
G36*
X150300000Y-88900000D02*
X156500000Y-88900000D01*
X156500000Y-93800000D01*
X153600000Y-93800000D01*
X153200000Y-92500000D01*
X150300000Y-92400000D01*
X150300000Y-88900000D01*
G37*
X150300000Y-88900000D02*
X156500000Y-88900000D01*
X156500000Y-93800000D01*
X153600000Y-93800000D01*
X153200000Y-92500000D01*
X150300000Y-92400000D01*
X150300000Y-88900000D01*
G36*
X104300000Y-88900000D02*
X110500000Y-88900000D01*
X110500000Y-93800000D01*
X107600000Y-93800000D01*
X107200000Y-92500000D01*
X104300000Y-92400000D01*
X104300000Y-88900000D01*
G37*
X104300000Y-88900000D02*
X110500000Y-88900000D01*
X110500000Y-93800000D01*
X107600000Y-93800000D01*
X107200000Y-92500000D01*
X104300000Y-92400000D01*
X104300000Y-88900000D01*
G36*
X150300000Y-63900000D02*
X156500000Y-63900000D01*
X156500000Y-68800000D01*
X153600000Y-68800000D01*
X153200000Y-67500000D01*
X150300000Y-67400000D01*
X150300000Y-63900000D01*
G37*
X150300000Y-63900000D02*
X156500000Y-63900000D01*
X156500000Y-68800000D01*
X153600000Y-68800000D01*
X153200000Y-67500000D01*
X150300000Y-67400000D01*
X150300000Y-63900000D01*
D10*
X180823809Y-136969523D02*
X180861904Y-137112380D01*
X180861904Y-137350476D01*
X180823809Y-137445714D01*
X180785714Y-137493333D01*
X180709523Y-137540952D01*
X180633333Y-137540952D01*
X180557142Y-137493333D01*
X180519047Y-137445714D01*
X180480952Y-137350476D01*
X180442857Y-137160000D01*
X180404761Y-137064761D01*
X180366666Y-137017142D01*
X180290476Y-136969523D01*
X180214285Y-136969523D01*
X180138095Y-137017142D01*
X180100000Y-137064761D01*
X180061904Y-137160000D01*
X180061904Y-137398095D01*
X180100000Y-137540952D01*
X180442857Y-137969523D02*
X180442857Y-138302857D01*
X180861904Y-138445714D02*
X180861904Y-137969523D01*
X180061904Y-137969523D01*
X180061904Y-138445714D01*
X180861904Y-138874285D02*
X180061904Y-138874285D01*
X180861904Y-139445714D01*
X180061904Y-139445714D01*
X180823809Y-139874285D02*
X180861904Y-140017142D01*
X180861904Y-140255238D01*
X180823809Y-140350476D01*
X180785714Y-140398095D01*
X180709523Y-140445714D01*
X180633333Y-140445714D01*
X180557142Y-140398095D01*
X180519047Y-140350476D01*
X180480952Y-140255238D01*
X180442857Y-140064761D01*
X180404761Y-139969523D01*
X180366666Y-139921904D01*
X180290476Y-139874285D01*
X180214285Y-139874285D01*
X180138095Y-139921904D01*
X180100000Y-139969523D01*
X180061904Y-140064761D01*
X180061904Y-140302857D01*
X180100000Y-140445714D01*
X180442857Y-140874285D02*
X180442857Y-141207619D01*
X180861904Y-141350476D02*
X180861904Y-140874285D01*
X180061904Y-140874285D01*
X180061904Y-141350476D01*
X134823809Y-136969523D02*
X134861904Y-137112380D01*
X134861904Y-137350476D01*
X134823809Y-137445714D01*
X134785714Y-137493333D01*
X134709523Y-137540952D01*
X134633333Y-137540952D01*
X134557142Y-137493333D01*
X134519047Y-137445714D01*
X134480952Y-137350476D01*
X134442857Y-137160000D01*
X134404761Y-137064761D01*
X134366666Y-137017142D01*
X134290476Y-136969523D01*
X134214285Y-136969523D01*
X134138095Y-137017142D01*
X134100000Y-137064761D01*
X134061904Y-137160000D01*
X134061904Y-137398095D01*
X134100000Y-137540952D01*
X134442857Y-137969523D02*
X134442857Y-138302857D01*
X134861904Y-138445714D02*
X134861904Y-137969523D01*
X134061904Y-137969523D01*
X134061904Y-138445714D01*
X134861904Y-138874285D02*
X134061904Y-138874285D01*
X134861904Y-139445714D01*
X134061904Y-139445714D01*
X134823809Y-139874285D02*
X134861904Y-140017142D01*
X134861904Y-140255238D01*
X134823809Y-140350476D01*
X134785714Y-140398095D01*
X134709523Y-140445714D01*
X134633333Y-140445714D01*
X134557142Y-140398095D01*
X134519047Y-140350476D01*
X134480952Y-140255238D01*
X134442857Y-140064761D01*
X134404761Y-139969523D01*
X134366666Y-139921904D01*
X134290476Y-139874285D01*
X134214285Y-139874285D01*
X134138095Y-139921904D01*
X134100000Y-139969523D01*
X134061904Y-140064761D01*
X134061904Y-140302857D01*
X134100000Y-140445714D01*
X134442857Y-140874285D02*
X134442857Y-141207619D01*
X134861904Y-141350476D02*
X134861904Y-140874285D01*
X134061904Y-140874285D01*
X134061904Y-141350476D01*
X180823809Y-111969523D02*
X180861904Y-112112380D01*
X180861904Y-112350476D01*
X180823809Y-112445714D01*
X180785714Y-112493333D01*
X180709523Y-112540952D01*
X180633333Y-112540952D01*
X180557142Y-112493333D01*
X180519047Y-112445714D01*
X180480952Y-112350476D01*
X180442857Y-112160000D01*
X180404761Y-112064761D01*
X180366666Y-112017142D01*
X180290476Y-111969523D01*
X180214285Y-111969523D01*
X180138095Y-112017142D01*
X180100000Y-112064761D01*
X180061904Y-112160000D01*
X180061904Y-112398095D01*
X180100000Y-112540952D01*
X180442857Y-112969523D02*
X180442857Y-113302857D01*
X180861904Y-113445714D02*
X180861904Y-112969523D01*
X180061904Y-112969523D01*
X180061904Y-113445714D01*
X180861904Y-113874285D02*
X180061904Y-113874285D01*
X180861904Y-114445714D01*
X180061904Y-114445714D01*
X180823809Y-114874285D02*
X180861904Y-115017142D01*
X180861904Y-115255238D01*
X180823809Y-115350476D01*
X180785714Y-115398095D01*
X180709523Y-115445714D01*
X180633333Y-115445714D01*
X180557142Y-115398095D01*
X180519047Y-115350476D01*
X180480952Y-115255238D01*
X180442857Y-115064761D01*
X180404761Y-114969523D01*
X180366666Y-114921904D01*
X180290476Y-114874285D01*
X180214285Y-114874285D01*
X180138095Y-114921904D01*
X180100000Y-114969523D01*
X180061904Y-115064761D01*
X180061904Y-115302857D01*
X180100000Y-115445714D01*
X180442857Y-115874285D02*
X180442857Y-116207619D01*
X180861904Y-116350476D02*
X180861904Y-115874285D01*
X180061904Y-115874285D01*
X180061904Y-116350476D01*
X134823809Y-111969523D02*
X134861904Y-112112380D01*
X134861904Y-112350476D01*
X134823809Y-112445714D01*
X134785714Y-112493333D01*
X134709523Y-112540952D01*
X134633333Y-112540952D01*
X134557142Y-112493333D01*
X134519047Y-112445714D01*
X134480952Y-112350476D01*
X134442857Y-112160000D01*
X134404761Y-112064761D01*
X134366666Y-112017142D01*
X134290476Y-111969523D01*
X134214285Y-111969523D01*
X134138095Y-112017142D01*
X134100000Y-112064761D01*
X134061904Y-112160000D01*
X134061904Y-112398095D01*
X134100000Y-112540952D01*
X134442857Y-112969523D02*
X134442857Y-113302857D01*
X134861904Y-113445714D02*
X134861904Y-112969523D01*
X134061904Y-112969523D01*
X134061904Y-113445714D01*
X134861904Y-113874285D02*
X134061904Y-113874285D01*
X134861904Y-114445714D01*
X134061904Y-114445714D01*
X134823809Y-114874285D02*
X134861904Y-115017142D01*
X134861904Y-115255238D01*
X134823809Y-115350476D01*
X134785714Y-115398095D01*
X134709523Y-115445714D01*
X134633333Y-115445714D01*
X134557142Y-115398095D01*
X134519047Y-115350476D01*
X134480952Y-115255238D01*
X134442857Y-115064761D01*
X134404761Y-114969523D01*
X134366666Y-114921904D01*
X134290476Y-114874285D01*
X134214285Y-114874285D01*
X134138095Y-114921904D01*
X134100000Y-114969523D01*
X134061904Y-115064761D01*
X134061904Y-115302857D01*
X134100000Y-115445714D01*
X134442857Y-115874285D02*
X134442857Y-116207619D01*
X134861904Y-116350476D02*
X134861904Y-115874285D01*
X134061904Y-115874285D01*
X134061904Y-116350476D01*
X180823809Y-86969523D02*
X180861904Y-87112380D01*
X180861904Y-87350476D01*
X180823809Y-87445714D01*
X180785714Y-87493333D01*
X180709523Y-87540952D01*
X180633333Y-87540952D01*
X180557142Y-87493333D01*
X180519047Y-87445714D01*
X180480952Y-87350476D01*
X180442857Y-87160000D01*
X180404761Y-87064761D01*
X180366666Y-87017142D01*
X180290476Y-86969523D01*
X180214285Y-86969523D01*
X180138095Y-87017142D01*
X180100000Y-87064761D01*
X180061904Y-87160000D01*
X180061904Y-87398095D01*
X180100000Y-87540952D01*
X180442857Y-87969523D02*
X180442857Y-88302857D01*
X180861904Y-88445714D02*
X180861904Y-87969523D01*
X180061904Y-87969523D01*
X180061904Y-88445714D01*
X180861904Y-88874285D02*
X180061904Y-88874285D01*
X180861904Y-89445714D01*
X180061904Y-89445714D01*
X180823809Y-89874285D02*
X180861904Y-90017142D01*
X180861904Y-90255238D01*
X180823809Y-90350476D01*
X180785714Y-90398095D01*
X180709523Y-90445714D01*
X180633333Y-90445714D01*
X180557142Y-90398095D01*
X180519047Y-90350476D01*
X180480952Y-90255238D01*
X180442857Y-90064761D01*
X180404761Y-89969523D01*
X180366666Y-89921904D01*
X180290476Y-89874285D01*
X180214285Y-89874285D01*
X180138095Y-89921904D01*
X180100000Y-89969523D01*
X180061904Y-90064761D01*
X180061904Y-90302857D01*
X180100000Y-90445714D01*
X180442857Y-90874285D02*
X180442857Y-91207619D01*
X180861904Y-91350476D02*
X180861904Y-90874285D01*
X180061904Y-90874285D01*
X180061904Y-91350476D01*
X134823809Y-86969523D02*
X134861904Y-87112380D01*
X134861904Y-87350476D01*
X134823809Y-87445714D01*
X134785714Y-87493333D01*
X134709523Y-87540952D01*
X134633333Y-87540952D01*
X134557142Y-87493333D01*
X134519047Y-87445714D01*
X134480952Y-87350476D01*
X134442857Y-87160000D01*
X134404761Y-87064761D01*
X134366666Y-87017142D01*
X134290476Y-86969523D01*
X134214285Y-86969523D01*
X134138095Y-87017142D01*
X134100000Y-87064761D01*
X134061904Y-87160000D01*
X134061904Y-87398095D01*
X134100000Y-87540952D01*
X134442857Y-87969523D02*
X134442857Y-88302857D01*
X134861904Y-88445714D02*
X134861904Y-87969523D01*
X134061904Y-87969523D01*
X134061904Y-88445714D01*
X134861904Y-88874285D02*
X134061904Y-88874285D01*
X134861904Y-89445714D01*
X134061904Y-89445714D01*
X134823809Y-89874285D02*
X134861904Y-90017142D01*
X134861904Y-90255238D01*
X134823809Y-90350476D01*
X134785714Y-90398095D01*
X134709523Y-90445714D01*
X134633333Y-90445714D01*
X134557142Y-90398095D01*
X134519047Y-90350476D01*
X134480952Y-90255238D01*
X134442857Y-90064761D01*
X134404761Y-89969523D01*
X134366666Y-89921904D01*
X134290476Y-89874285D01*
X134214285Y-89874285D01*
X134138095Y-89921904D01*
X134100000Y-89969523D01*
X134061904Y-90064761D01*
X134061904Y-90302857D01*
X134100000Y-90445714D01*
X134442857Y-90874285D02*
X134442857Y-91207619D01*
X134861904Y-91350476D02*
X134861904Y-90874285D01*
X134061904Y-90874285D01*
X134061904Y-91350476D01*
X180823809Y-61969523D02*
X180861904Y-62112380D01*
X180861904Y-62350476D01*
X180823809Y-62445714D01*
X180785714Y-62493333D01*
X180709523Y-62540952D01*
X180633333Y-62540952D01*
X180557142Y-62493333D01*
X180519047Y-62445714D01*
X180480952Y-62350476D01*
X180442857Y-62160000D01*
X180404761Y-62064761D01*
X180366666Y-62017142D01*
X180290476Y-61969523D01*
X180214285Y-61969523D01*
X180138095Y-62017142D01*
X180100000Y-62064761D01*
X180061904Y-62160000D01*
X180061904Y-62398095D01*
X180100000Y-62540952D01*
X180442857Y-62969523D02*
X180442857Y-63302857D01*
X180861904Y-63445714D02*
X180861904Y-62969523D01*
X180061904Y-62969523D01*
X180061904Y-63445714D01*
X180861904Y-63874285D02*
X180061904Y-63874285D01*
X180861904Y-64445714D01*
X180061904Y-64445714D01*
X180823809Y-64874285D02*
X180861904Y-65017142D01*
X180861904Y-65255238D01*
X180823809Y-65350476D01*
X180785714Y-65398095D01*
X180709523Y-65445714D01*
X180633333Y-65445714D01*
X180557142Y-65398095D01*
X180519047Y-65350476D01*
X180480952Y-65255238D01*
X180442857Y-65064761D01*
X180404761Y-64969523D01*
X180366666Y-64921904D01*
X180290476Y-64874285D01*
X180214285Y-64874285D01*
X180138095Y-64921904D01*
X180100000Y-64969523D01*
X180061904Y-65064761D01*
X180061904Y-65302857D01*
X180100000Y-65445714D01*
X180442857Y-65874285D02*
X180442857Y-66207619D01*
X180861904Y-66350476D02*
X180861904Y-65874285D01*
X180061904Y-65874285D01*
X180061904Y-66350476D01*
X165438095Y-133938095D02*
X166009523Y-133938095D01*
X165723809Y-133138095D02*
X165723809Y-133938095D01*
X166247619Y-133938095D02*
X166914285Y-133138095D01*
X166914285Y-133938095D02*
X166247619Y-133138095D01*
X119438095Y-133938095D02*
X120009523Y-133938095D01*
X119723809Y-133138095D02*
X119723809Y-133938095D01*
X120247619Y-133938095D02*
X120914285Y-133138095D01*
X120914285Y-133938095D02*
X120247619Y-133138095D01*
X165438095Y-108938095D02*
X166009523Y-108938095D01*
X165723809Y-108138095D02*
X165723809Y-108938095D01*
X166247619Y-108938095D02*
X166914285Y-108138095D01*
X166914285Y-108938095D02*
X166247619Y-108138095D01*
X119438095Y-108938095D02*
X120009523Y-108938095D01*
X119723809Y-108138095D02*
X119723809Y-108938095D01*
X120247619Y-108938095D02*
X120914285Y-108138095D01*
X120914285Y-108938095D02*
X120247619Y-108138095D01*
X165438095Y-83938095D02*
X166009523Y-83938095D01*
X165723809Y-83138095D02*
X165723809Y-83938095D01*
X166247619Y-83938095D02*
X166914285Y-83138095D01*
X166914285Y-83938095D02*
X166247619Y-83138095D01*
X119438095Y-83938095D02*
X120009523Y-83938095D01*
X119723809Y-83138095D02*
X119723809Y-83938095D01*
X120247619Y-83938095D02*
X120914285Y-83138095D01*
X120914285Y-83938095D02*
X120247619Y-83138095D01*
X165438095Y-58938095D02*
X166009523Y-58938095D01*
X165723809Y-58138095D02*
X165723809Y-58938095D01*
X166247619Y-58938095D02*
X166914285Y-58138095D01*
X166914285Y-58938095D02*
X166247619Y-58138095D01*
X151861904Y-133109523D02*
X151861904Y-132633333D01*
X152242857Y-132585714D01*
X152204761Y-132633333D01*
X152166666Y-132728571D01*
X152166666Y-132966666D01*
X152204761Y-133061904D01*
X152242857Y-133109523D01*
X152319047Y-133157142D01*
X152509523Y-133157142D01*
X152585714Y-133109523D01*
X152623809Y-133061904D01*
X152661904Y-132966666D01*
X152661904Y-132728571D01*
X152623809Y-132633333D01*
X152585714Y-132585714D01*
X151861904Y-133442857D02*
X152661904Y-133776190D01*
X151861904Y-134109523D01*
X105861904Y-133109523D02*
X105861904Y-132633333D01*
X106242857Y-132585714D01*
X106204761Y-132633333D01*
X106166666Y-132728571D01*
X106166666Y-132966666D01*
X106204761Y-133061904D01*
X106242857Y-133109523D01*
X106319047Y-133157142D01*
X106509523Y-133157142D01*
X106585714Y-133109523D01*
X106623809Y-133061904D01*
X106661904Y-132966666D01*
X106661904Y-132728571D01*
X106623809Y-132633333D01*
X106585714Y-132585714D01*
X105861904Y-133442857D02*
X106661904Y-133776190D01*
X105861904Y-134109523D01*
X151861904Y-108109523D02*
X151861904Y-107633333D01*
X152242857Y-107585714D01*
X152204761Y-107633333D01*
X152166666Y-107728571D01*
X152166666Y-107966666D01*
X152204761Y-108061904D01*
X152242857Y-108109523D01*
X152319047Y-108157142D01*
X152509523Y-108157142D01*
X152585714Y-108109523D01*
X152623809Y-108061904D01*
X152661904Y-107966666D01*
X152661904Y-107728571D01*
X152623809Y-107633333D01*
X152585714Y-107585714D01*
X151861904Y-108442857D02*
X152661904Y-108776190D01*
X151861904Y-109109523D01*
X105861904Y-108109523D02*
X105861904Y-107633333D01*
X106242857Y-107585714D01*
X106204761Y-107633333D01*
X106166666Y-107728571D01*
X106166666Y-107966666D01*
X106204761Y-108061904D01*
X106242857Y-108109523D01*
X106319047Y-108157142D01*
X106509523Y-108157142D01*
X106585714Y-108109523D01*
X106623809Y-108061904D01*
X106661904Y-107966666D01*
X106661904Y-107728571D01*
X106623809Y-107633333D01*
X106585714Y-107585714D01*
X105861904Y-108442857D02*
X106661904Y-108776190D01*
X105861904Y-109109523D01*
X151861904Y-83109523D02*
X151861904Y-82633333D01*
X152242857Y-82585714D01*
X152204761Y-82633333D01*
X152166666Y-82728571D01*
X152166666Y-82966666D01*
X152204761Y-83061904D01*
X152242857Y-83109523D01*
X152319047Y-83157142D01*
X152509523Y-83157142D01*
X152585714Y-83109523D01*
X152623809Y-83061904D01*
X152661904Y-82966666D01*
X152661904Y-82728571D01*
X152623809Y-82633333D01*
X152585714Y-82585714D01*
X151861904Y-83442857D02*
X152661904Y-83776190D01*
X151861904Y-84109523D01*
X105861904Y-83109523D02*
X105861904Y-82633333D01*
X106242857Y-82585714D01*
X106204761Y-82633333D01*
X106166666Y-82728571D01*
X106166666Y-82966666D01*
X106204761Y-83061904D01*
X106242857Y-83109523D01*
X106319047Y-83157142D01*
X106509523Y-83157142D01*
X106585714Y-83109523D01*
X106623809Y-83061904D01*
X106661904Y-82966666D01*
X106661904Y-82728571D01*
X106623809Y-82633333D01*
X106585714Y-82585714D01*
X105861904Y-83442857D02*
X106661904Y-83776190D01*
X105861904Y-84109523D01*
X151861904Y-58109523D02*
X151861904Y-57633333D01*
X152242857Y-57585714D01*
X152204761Y-57633333D01*
X152166666Y-57728571D01*
X152166666Y-57966666D01*
X152204761Y-58061904D01*
X152242857Y-58109523D01*
X152319047Y-58157142D01*
X152509523Y-58157142D01*
X152585714Y-58109523D01*
X152623809Y-58061904D01*
X152661904Y-57966666D01*
X152661904Y-57728571D01*
X152623809Y-57633333D01*
X152585714Y-57585714D01*
X151861904Y-58442857D02*
X152661904Y-58776190D01*
X151861904Y-59109523D01*
X154500000Y-133138095D02*
X154461904Y-133042857D01*
X154461904Y-132900000D01*
X154500000Y-132757142D01*
X154576190Y-132661904D01*
X154652380Y-132614285D01*
X154804761Y-132566666D01*
X154919047Y-132566666D01*
X155071428Y-132614285D01*
X155147619Y-132661904D01*
X155223809Y-132757142D01*
X155261904Y-132900000D01*
X155261904Y-132995238D01*
X155223809Y-133138095D01*
X155185714Y-133185714D01*
X154919047Y-133185714D01*
X154919047Y-132995238D01*
X155261904Y-133614285D02*
X154461904Y-133614285D01*
X155261904Y-134185714D01*
X154461904Y-134185714D01*
X155261904Y-134661904D02*
X154461904Y-134661904D01*
X154461904Y-134900000D01*
X154500000Y-135042857D01*
X154576190Y-135138095D01*
X154652380Y-135185714D01*
X154804761Y-135233333D01*
X154919047Y-135233333D01*
X155071428Y-135185714D01*
X155147619Y-135138095D01*
X155223809Y-135042857D01*
X155261904Y-134900000D01*
X155261904Y-134661904D01*
X108500000Y-133138095D02*
X108461904Y-133042857D01*
X108461904Y-132900000D01*
X108500000Y-132757142D01*
X108576190Y-132661904D01*
X108652380Y-132614285D01*
X108804761Y-132566666D01*
X108919047Y-132566666D01*
X109071428Y-132614285D01*
X109147619Y-132661904D01*
X109223809Y-132757142D01*
X109261904Y-132900000D01*
X109261904Y-132995238D01*
X109223809Y-133138095D01*
X109185714Y-133185714D01*
X108919047Y-133185714D01*
X108919047Y-132995238D01*
X109261904Y-133614285D02*
X108461904Y-133614285D01*
X109261904Y-134185714D01*
X108461904Y-134185714D01*
X109261904Y-134661904D02*
X108461904Y-134661904D01*
X108461904Y-134900000D01*
X108500000Y-135042857D01*
X108576190Y-135138095D01*
X108652380Y-135185714D01*
X108804761Y-135233333D01*
X108919047Y-135233333D01*
X109071428Y-135185714D01*
X109147619Y-135138095D01*
X109223809Y-135042857D01*
X109261904Y-134900000D01*
X109261904Y-134661904D01*
X154500000Y-108138095D02*
X154461904Y-108042857D01*
X154461904Y-107900000D01*
X154500000Y-107757142D01*
X154576190Y-107661904D01*
X154652380Y-107614285D01*
X154804761Y-107566666D01*
X154919047Y-107566666D01*
X155071428Y-107614285D01*
X155147619Y-107661904D01*
X155223809Y-107757142D01*
X155261904Y-107900000D01*
X155261904Y-107995238D01*
X155223809Y-108138095D01*
X155185714Y-108185714D01*
X154919047Y-108185714D01*
X154919047Y-107995238D01*
X155261904Y-108614285D02*
X154461904Y-108614285D01*
X155261904Y-109185714D01*
X154461904Y-109185714D01*
X155261904Y-109661904D02*
X154461904Y-109661904D01*
X154461904Y-109900000D01*
X154500000Y-110042857D01*
X154576190Y-110138095D01*
X154652380Y-110185714D01*
X154804761Y-110233333D01*
X154919047Y-110233333D01*
X155071428Y-110185714D01*
X155147619Y-110138095D01*
X155223809Y-110042857D01*
X155261904Y-109900000D01*
X155261904Y-109661904D01*
X108500000Y-108138095D02*
X108461904Y-108042857D01*
X108461904Y-107900000D01*
X108500000Y-107757142D01*
X108576190Y-107661904D01*
X108652380Y-107614285D01*
X108804761Y-107566666D01*
X108919047Y-107566666D01*
X109071428Y-107614285D01*
X109147619Y-107661904D01*
X109223809Y-107757142D01*
X109261904Y-107900000D01*
X109261904Y-107995238D01*
X109223809Y-108138095D01*
X109185714Y-108185714D01*
X108919047Y-108185714D01*
X108919047Y-107995238D01*
X109261904Y-108614285D02*
X108461904Y-108614285D01*
X109261904Y-109185714D01*
X108461904Y-109185714D01*
X109261904Y-109661904D02*
X108461904Y-109661904D01*
X108461904Y-109900000D01*
X108500000Y-110042857D01*
X108576190Y-110138095D01*
X108652380Y-110185714D01*
X108804761Y-110233333D01*
X108919047Y-110233333D01*
X109071428Y-110185714D01*
X109147619Y-110138095D01*
X109223809Y-110042857D01*
X109261904Y-109900000D01*
X109261904Y-109661904D01*
X154500000Y-83138095D02*
X154461904Y-83042857D01*
X154461904Y-82900000D01*
X154500000Y-82757142D01*
X154576190Y-82661904D01*
X154652380Y-82614285D01*
X154804761Y-82566666D01*
X154919047Y-82566666D01*
X155071428Y-82614285D01*
X155147619Y-82661904D01*
X155223809Y-82757142D01*
X155261904Y-82900000D01*
X155261904Y-82995238D01*
X155223809Y-83138095D01*
X155185714Y-83185714D01*
X154919047Y-83185714D01*
X154919047Y-82995238D01*
X155261904Y-83614285D02*
X154461904Y-83614285D01*
X155261904Y-84185714D01*
X154461904Y-84185714D01*
X155261904Y-84661904D02*
X154461904Y-84661904D01*
X154461904Y-84900000D01*
X154500000Y-85042857D01*
X154576190Y-85138095D01*
X154652380Y-85185714D01*
X154804761Y-85233333D01*
X154919047Y-85233333D01*
X155071428Y-85185714D01*
X155147619Y-85138095D01*
X155223809Y-85042857D01*
X155261904Y-84900000D01*
X155261904Y-84661904D01*
X108500000Y-83138095D02*
X108461904Y-83042857D01*
X108461904Y-82900000D01*
X108500000Y-82757142D01*
X108576190Y-82661904D01*
X108652380Y-82614285D01*
X108804761Y-82566666D01*
X108919047Y-82566666D01*
X109071428Y-82614285D01*
X109147619Y-82661904D01*
X109223809Y-82757142D01*
X109261904Y-82900000D01*
X109261904Y-82995238D01*
X109223809Y-83138095D01*
X109185714Y-83185714D01*
X108919047Y-83185714D01*
X108919047Y-82995238D01*
X109261904Y-83614285D02*
X108461904Y-83614285D01*
X109261904Y-84185714D01*
X108461904Y-84185714D01*
X109261904Y-84661904D02*
X108461904Y-84661904D01*
X108461904Y-84900000D01*
X108500000Y-85042857D01*
X108576190Y-85138095D01*
X108652380Y-85185714D01*
X108804761Y-85233333D01*
X108919047Y-85233333D01*
X109071428Y-85185714D01*
X109147619Y-85138095D01*
X109223809Y-85042857D01*
X109261904Y-84900000D01*
X109261904Y-84661904D01*
X154500000Y-58138095D02*
X154461904Y-58042857D01*
X154461904Y-57900000D01*
X154500000Y-57757142D01*
X154576190Y-57661904D01*
X154652380Y-57614285D01*
X154804761Y-57566666D01*
X154919047Y-57566666D01*
X155071428Y-57614285D01*
X155147619Y-57661904D01*
X155223809Y-57757142D01*
X155261904Y-57900000D01*
X155261904Y-57995238D01*
X155223809Y-58138095D01*
X155185714Y-58185714D01*
X154919047Y-58185714D01*
X154919047Y-57995238D01*
X155261904Y-58614285D02*
X154461904Y-58614285D01*
X155261904Y-59185714D01*
X154461904Y-59185714D01*
X155261904Y-59661904D02*
X154461904Y-59661904D01*
X154461904Y-59900000D01*
X154500000Y-60042857D01*
X154576190Y-60138095D01*
X154652380Y-60185714D01*
X154804761Y-60233333D01*
X154919047Y-60233333D01*
X155071428Y-60185714D01*
X155147619Y-60138095D01*
X155223809Y-60042857D01*
X155261904Y-59900000D01*
X155261904Y-59661904D01*
D12*
X166385714Y-145947619D02*
X166385714Y-146614285D01*
X166385714Y-146519047D02*
X166433333Y-146566666D01*
X166528571Y-146614285D01*
X166671428Y-146614285D01*
X166766666Y-146566666D01*
X166814285Y-146471428D01*
X166814285Y-145947619D01*
X166814285Y-146471428D02*
X166861904Y-146566666D01*
X166957142Y-146614285D01*
X167100000Y-146614285D01*
X167195238Y-146566666D01*
X167242857Y-146471428D01*
X167242857Y-145947619D01*
X167623809Y-146614285D02*
X167861904Y-145947619D01*
X168100000Y-146614285D02*
X167861904Y-145947619D01*
X167766666Y-145709523D01*
X167719047Y-145661904D01*
X167623809Y-145614285D01*
X168623809Y-145947619D02*
X168528571Y-145995238D01*
X168480952Y-146042857D01*
X168433333Y-146138095D01*
X168433333Y-146423809D01*
X168480952Y-146519047D01*
X168528571Y-146566666D01*
X168623809Y-146614285D01*
X168766666Y-146614285D01*
X168861904Y-146566666D01*
X168909523Y-146519047D01*
X168957142Y-146423809D01*
X168957142Y-146138095D01*
X168909523Y-146042857D01*
X168861904Y-145995238D01*
X168766666Y-145947619D01*
X168623809Y-145947619D01*
X169147619Y-145852380D02*
X169909523Y-145852380D01*
X170147619Y-145947619D02*
X170147619Y-146614285D01*
X170147619Y-146519047D02*
X170195238Y-146566666D01*
X170290476Y-146614285D01*
X170433333Y-146614285D01*
X170528571Y-146566666D01*
X170576190Y-146471428D01*
X170576190Y-145947619D01*
X170576190Y-146471428D02*
X170623809Y-146566666D01*
X170719047Y-146614285D01*
X170861904Y-146614285D01*
X170957142Y-146566666D01*
X171004761Y-146471428D01*
X171004761Y-145947619D01*
X171480952Y-145947619D02*
X171480952Y-146614285D01*
X171480952Y-146947619D02*
X171433333Y-146900000D01*
X171480952Y-146852380D01*
X171528571Y-146900000D01*
X171480952Y-146947619D01*
X171480952Y-146852380D01*
X171957142Y-146614285D02*
X171957142Y-145947619D01*
X171957142Y-146519047D02*
X172004761Y-146566666D01*
X172100000Y-146614285D01*
X172242857Y-146614285D01*
X172338095Y-146566666D01*
X172385714Y-146471428D01*
X172385714Y-145947619D01*
X172861904Y-145947619D02*
X172861904Y-146614285D01*
X172861904Y-146947619D02*
X172814285Y-146900000D01*
X172861904Y-146852380D01*
X172909523Y-146900000D01*
X172861904Y-146947619D01*
X172861904Y-146852380D01*
X173100000Y-145852380D02*
X173861904Y-145852380D01*
X174100000Y-145947619D02*
X174100000Y-146614285D01*
X174100000Y-146519047D02*
X174147619Y-146566666D01*
X174242857Y-146614285D01*
X174385714Y-146614285D01*
X174480952Y-146566666D01*
X174528571Y-146471428D01*
X174528571Y-145947619D01*
X174528571Y-146471428D02*
X174576190Y-146566666D01*
X174671428Y-146614285D01*
X174814285Y-146614285D01*
X174909523Y-146566666D01*
X174957142Y-146471428D01*
X174957142Y-145947619D01*
X175861904Y-146614285D02*
X175861904Y-145947619D01*
X175433333Y-146614285D02*
X175433333Y-146090476D01*
X175480952Y-145995238D01*
X175576190Y-145947619D01*
X175719047Y-145947619D01*
X175814285Y-145995238D01*
X175861904Y-146042857D01*
X176290476Y-145995238D02*
X176385714Y-145947619D01*
X176576190Y-145947619D01*
X176671428Y-145995238D01*
X176719047Y-146090476D01*
X176719047Y-146138095D01*
X176671428Y-146233333D01*
X176576190Y-146280952D01*
X176433333Y-146280952D01*
X176338095Y-146328571D01*
X176290476Y-146423809D01*
X176290476Y-146471428D01*
X176338095Y-146566666D01*
X176433333Y-146614285D01*
X176576190Y-146614285D01*
X176671428Y-146566666D01*
X177576190Y-145995238D02*
X177480952Y-145947619D01*
X177290476Y-145947619D01*
X177195238Y-145995238D01*
X177147619Y-146042857D01*
X177100000Y-146138095D01*
X177100000Y-146423809D01*
X177147619Y-146519047D01*
X177195238Y-146566666D01*
X177290476Y-146614285D01*
X177480952Y-146614285D01*
X177576190Y-146566666D01*
X178147619Y-145947619D02*
X178052380Y-145995238D01*
X178004761Y-146090476D01*
X178004761Y-146947619D01*
X178909523Y-145995238D02*
X178814285Y-145947619D01*
X178623809Y-145947619D01*
X178528571Y-145995238D01*
X178480952Y-146090476D01*
X178480952Y-146471428D01*
X178528571Y-146566666D01*
X178623809Y-146614285D01*
X178814285Y-146614285D01*
X178909523Y-146566666D01*
X178957142Y-146471428D01*
X178957142Y-146376190D01*
X178480952Y-146280952D01*
X179147619Y-145852380D02*
X179909523Y-145852380D01*
X180052380Y-146614285D02*
X180290476Y-145947619D01*
X180528571Y-146614285D01*
X180861904Y-146852380D02*
X180909523Y-146900000D01*
X181004761Y-146947619D01*
X181242857Y-146947619D01*
X181338095Y-146900000D01*
X181385714Y-146852380D01*
X181433333Y-146757142D01*
X181433333Y-146661904D01*
X181385714Y-146519047D01*
X180814285Y-145947619D01*
X181433333Y-145947619D01*
X181861904Y-146042857D02*
X181909523Y-145995238D01*
X181861904Y-145947619D01*
X181814285Y-145995238D01*
X181861904Y-146042857D01*
X181861904Y-145947619D01*
X182766666Y-146614285D02*
X182766666Y-145947619D01*
X182528571Y-146995238D02*
X182290476Y-146280952D01*
X182909523Y-146280952D01*
X120385714Y-145947619D02*
X120385714Y-146614285D01*
X120385714Y-146519047D02*
X120433333Y-146566666D01*
X120528571Y-146614285D01*
X120671428Y-146614285D01*
X120766666Y-146566666D01*
X120814285Y-146471428D01*
X120814285Y-145947619D01*
X120814285Y-146471428D02*
X120861904Y-146566666D01*
X120957142Y-146614285D01*
X121100000Y-146614285D01*
X121195238Y-146566666D01*
X121242857Y-146471428D01*
X121242857Y-145947619D01*
X121623809Y-146614285D02*
X121861904Y-145947619D01*
X122100000Y-146614285D02*
X121861904Y-145947619D01*
X121766666Y-145709523D01*
X121719047Y-145661904D01*
X121623809Y-145614285D01*
X122623809Y-145947619D02*
X122528571Y-145995238D01*
X122480952Y-146042857D01*
X122433333Y-146138095D01*
X122433333Y-146423809D01*
X122480952Y-146519047D01*
X122528571Y-146566666D01*
X122623809Y-146614285D01*
X122766666Y-146614285D01*
X122861904Y-146566666D01*
X122909523Y-146519047D01*
X122957142Y-146423809D01*
X122957142Y-146138095D01*
X122909523Y-146042857D01*
X122861904Y-145995238D01*
X122766666Y-145947619D01*
X122623809Y-145947619D01*
X123147619Y-145852380D02*
X123909523Y-145852380D01*
X124147619Y-145947619D02*
X124147619Y-146614285D01*
X124147619Y-146519047D02*
X124195238Y-146566666D01*
X124290476Y-146614285D01*
X124433333Y-146614285D01*
X124528571Y-146566666D01*
X124576190Y-146471428D01*
X124576190Y-145947619D01*
X124576190Y-146471428D02*
X124623809Y-146566666D01*
X124719047Y-146614285D01*
X124861904Y-146614285D01*
X124957142Y-146566666D01*
X125004761Y-146471428D01*
X125004761Y-145947619D01*
X125480952Y-145947619D02*
X125480952Y-146614285D01*
X125480952Y-146947619D02*
X125433333Y-146900000D01*
X125480952Y-146852380D01*
X125528571Y-146900000D01*
X125480952Y-146947619D01*
X125480952Y-146852380D01*
X125957142Y-146614285D02*
X125957142Y-145947619D01*
X125957142Y-146519047D02*
X126004761Y-146566666D01*
X126100000Y-146614285D01*
X126242857Y-146614285D01*
X126338095Y-146566666D01*
X126385714Y-146471428D01*
X126385714Y-145947619D01*
X126861904Y-145947619D02*
X126861904Y-146614285D01*
X126861904Y-146947619D02*
X126814285Y-146900000D01*
X126861904Y-146852380D01*
X126909523Y-146900000D01*
X126861904Y-146947619D01*
X126861904Y-146852380D01*
X127100000Y-145852380D02*
X127861904Y-145852380D01*
X128100000Y-145947619D02*
X128100000Y-146614285D01*
X128100000Y-146519047D02*
X128147619Y-146566666D01*
X128242857Y-146614285D01*
X128385714Y-146614285D01*
X128480952Y-146566666D01*
X128528571Y-146471428D01*
X128528571Y-145947619D01*
X128528571Y-146471428D02*
X128576190Y-146566666D01*
X128671428Y-146614285D01*
X128814285Y-146614285D01*
X128909523Y-146566666D01*
X128957142Y-146471428D01*
X128957142Y-145947619D01*
X129861904Y-146614285D02*
X129861904Y-145947619D01*
X129433333Y-146614285D02*
X129433333Y-146090476D01*
X129480952Y-145995238D01*
X129576190Y-145947619D01*
X129719047Y-145947619D01*
X129814285Y-145995238D01*
X129861904Y-146042857D01*
X130290476Y-145995238D02*
X130385714Y-145947619D01*
X130576190Y-145947619D01*
X130671428Y-145995238D01*
X130719047Y-146090476D01*
X130719047Y-146138095D01*
X130671428Y-146233333D01*
X130576190Y-146280952D01*
X130433333Y-146280952D01*
X130338095Y-146328571D01*
X130290476Y-146423809D01*
X130290476Y-146471428D01*
X130338095Y-146566666D01*
X130433333Y-146614285D01*
X130576190Y-146614285D01*
X130671428Y-146566666D01*
X131576190Y-145995238D02*
X131480952Y-145947619D01*
X131290476Y-145947619D01*
X131195238Y-145995238D01*
X131147619Y-146042857D01*
X131100000Y-146138095D01*
X131100000Y-146423809D01*
X131147619Y-146519047D01*
X131195238Y-146566666D01*
X131290476Y-146614285D01*
X131480952Y-146614285D01*
X131576190Y-146566666D01*
X132147619Y-145947619D02*
X132052380Y-145995238D01*
X132004761Y-146090476D01*
X132004761Y-146947619D01*
X132909523Y-145995238D02*
X132814285Y-145947619D01*
X132623809Y-145947619D01*
X132528571Y-145995238D01*
X132480952Y-146090476D01*
X132480952Y-146471428D01*
X132528571Y-146566666D01*
X132623809Y-146614285D01*
X132814285Y-146614285D01*
X132909523Y-146566666D01*
X132957142Y-146471428D01*
X132957142Y-146376190D01*
X132480952Y-146280952D01*
X133147619Y-145852380D02*
X133909523Y-145852380D01*
X134052380Y-146614285D02*
X134290476Y-145947619D01*
X134528571Y-146614285D01*
X134861904Y-146852380D02*
X134909523Y-146900000D01*
X135004761Y-146947619D01*
X135242857Y-146947619D01*
X135338095Y-146900000D01*
X135385714Y-146852380D01*
X135433333Y-146757142D01*
X135433333Y-146661904D01*
X135385714Y-146519047D01*
X134814285Y-145947619D01*
X135433333Y-145947619D01*
X135861904Y-146042857D02*
X135909523Y-145995238D01*
X135861904Y-145947619D01*
X135814285Y-145995238D01*
X135861904Y-146042857D01*
X135861904Y-145947619D01*
X136766666Y-146614285D02*
X136766666Y-145947619D01*
X136528571Y-146995238D02*
X136290476Y-146280952D01*
X136909523Y-146280952D01*
X166385714Y-120947619D02*
X166385714Y-121614285D01*
X166385714Y-121519047D02*
X166433333Y-121566666D01*
X166528571Y-121614285D01*
X166671428Y-121614285D01*
X166766666Y-121566666D01*
X166814285Y-121471428D01*
X166814285Y-120947619D01*
X166814285Y-121471428D02*
X166861904Y-121566666D01*
X166957142Y-121614285D01*
X167100000Y-121614285D01*
X167195238Y-121566666D01*
X167242857Y-121471428D01*
X167242857Y-120947619D01*
X167623809Y-121614285D02*
X167861904Y-120947619D01*
X168100000Y-121614285D02*
X167861904Y-120947619D01*
X167766666Y-120709523D01*
X167719047Y-120661904D01*
X167623809Y-120614285D01*
X168623809Y-120947619D02*
X168528571Y-120995238D01*
X168480952Y-121042857D01*
X168433333Y-121138095D01*
X168433333Y-121423809D01*
X168480952Y-121519047D01*
X168528571Y-121566666D01*
X168623809Y-121614285D01*
X168766666Y-121614285D01*
X168861904Y-121566666D01*
X168909523Y-121519047D01*
X168957142Y-121423809D01*
X168957142Y-121138095D01*
X168909523Y-121042857D01*
X168861904Y-120995238D01*
X168766666Y-120947619D01*
X168623809Y-120947619D01*
X169147619Y-120852380D02*
X169909523Y-120852380D01*
X170147619Y-120947619D02*
X170147619Y-121614285D01*
X170147619Y-121519047D02*
X170195238Y-121566666D01*
X170290476Y-121614285D01*
X170433333Y-121614285D01*
X170528571Y-121566666D01*
X170576190Y-121471428D01*
X170576190Y-120947619D01*
X170576190Y-121471428D02*
X170623809Y-121566666D01*
X170719047Y-121614285D01*
X170861904Y-121614285D01*
X170957142Y-121566666D01*
X171004761Y-121471428D01*
X171004761Y-120947619D01*
X171480952Y-120947619D02*
X171480952Y-121614285D01*
X171480952Y-121947619D02*
X171433333Y-121900000D01*
X171480952Y-121852380D01*
X171528571Y-121900000D01*
X171480952Y-121947619D01*
X171480952Y-121852380D01*
X171957142Y-121614285D02*
X171957142Y-120947619D01*
X171957142Y-121519047D02*
X172004761Y-121566666D01*
X172100000Y-121614285D01*
X172242857Y-121614285D01*
X172338095Y-121566666D01*
X172385714Y-121471428D01*
X172385714Y-120947619D01*
X172861904Y-120947619D02*
X172861904Y-121614285D01*
X172861904Y-121947619D02*
X172814285Y-121900000D01*
X172861904Y-121852380D01*
X172909523Y-121900000D01*
X172861904Y-121947619D01*
X172861904Y-121852380D01*
X173100000Y-120852380D02*
X173861904Y-120852380D01*
X174100000Y-120947619D02*
X174100000Y-121614285D01*
X174100000Y-121519047D02*
X174147619Y-121566666D01*
X174242857Y-121614285D01*
X174385714Y-121614285D01*
X174480952Y-121566666D01*
X174528571Y-121471428D01*
X174528571Y-120947619D01*
X174528571Y-121471428D02*
X174576190Y-121566666D01*
X174671428Y-121614285D01*
X174814285Y-121614285D01*
X174909523Y-121566666D01*
X174957142Y-121471428D01*
X174957142Y-120947619D01*
X175861904Y-121614285D02*
X175861904Y-120947619D01*
X175433333Y-121614285D02*
X175433333Y-121090476D01*
X175480952Y-120995238D01*
X175576190Y-120947619D01*
X175719047Y-120947619D01*
X175814285Y-120995238D01*
X175861904Y-121042857D01*
X176290476Y-120995238D02*
X176385714Y-120947619D01*
X176576190Y-120947619D01*
X176671428Y-120995238D01*
X176719047Y-121090476D01*
X176719047Y-121138095D01*
X176671428Y-121233333D01*
X176576190Y-121280952D01*
X176433333Y-121280952D01*
X176338095Y-121328571D01*
X176290476Y-121423809D01*
X176290476Y-121471428D01*
X176338095Y-121566666D01*
X176433333Y-121614285D01*
X176576190Y-121614285D01*
X176671428Y-121566666D01*
X177576190Y-120995238D02*
X177480952Y-120947619D01*
X177290476Y-120947619D01*
X177195238Y-120995238D01*
X177147619Y-121042857D01*
X177100000Y-121138095D01*
X177100000Y-121423809D01*
X177147619Y-121519047D01*
X177195238Y-121566666D01*
X177290476Y-121614285D01*
X177480952Y-121614285D01*
X177576190Y-121566666D01*
X178147619Y-120947619D02*
X178052380Y-120995238D01*
X178004761Y-121090476D01*
X178004761Y-121947619D01*
X178909523Y-120995238D02*
X178814285Y-120947619D01*
X178623809Y-120947619D01*
X178528571Y-120995238D01*
X178480952Y-121090476D01*
X178480952Y-121471428D01*
X178528571Y-121566666D01*
X178623809Y-121614285D01*
X178814285Y-121614285D01*
X178909523Y-121566666D01*
X178957142Y-121471428D01*
X178957142Y-121376190D01*
X178480952Y-121280952D01*
X179147619Y-120852380D02*
X179909523Y-120852380D01*
X180052380Y-121614285D02*
X180290476Y-120947619D01*
X180528571Y-121614285D01*
X180861904Y-121852380D02*
X180909523Y-121900000D01*
X181004761Y-121947619D01*
X181242857Y-121947619D01*
X181338095Y-121900000D01*
X181385714Y-121852380D01*
X181433333Y-121757142D01*
X181433333Y-121661904D01*
X181385714Y-121519047D01*
X180814285Y-120947619D01*
X181433333Y-120947619D01*
X181861904Y-121042857D02*
X181909523Y-120995238D01*
X181861904Y-120947619D01*
X181814285Y-120995238D01*
X181861904Y-121042857D01*
X181861904Y-120947619D01*
X182766666Y-121614285D02*
X182766666Y-120947619D01*
X182528571Y-121995238D02*
X182290476Y-121280952D01*
X182909523Y-121280952D01*
X120385714Y-120947619D02*
X120385714Y-121614285D01*
X120385714Y-121519047D02*
X120433333Y-121566666D01*
X120528571Y-121614285D01*
X120671428Y-121614285D01*
X120766666Y-121566666D01*
X120814285Y-121471428D01*
X120814285Y-120947619D01*
X120814285Y-121471428D02*
X120861904Y-121566666D01*
X120957142Y-121614285D01*
X121100000Y-121614285D01*
X121195238Y-121566666D01*
X121242857Y-121471428D01*
X121242857Y-120947619D01*
X121623809Y-121614285D02*
X121861904Y-120947619D01*
X122100000Y-121614285D02*
X121861904Y-120947619D01*
X121766666Y-120709523D01*
X121719047Y-120661904D01*
X121623809Y-120614285D01*
X122623809Y-120947619D02*
X122528571Y-120995238D01*
X122480952Y-121042857D01*
X122433333Y-121138095D01*
X122433333Y-121423809D01*
X122480952Y-121519047D01*
X122528571Y-121566666D01*
X122623809Y-121614285D01*
X122766666Y-121614285D01*
X122861904Y-121566666D01*
X122909523Y-121519047D01*
X122957142Y-121423809D01*
X122957142Y-121138095D01*
X122909523Y-121042857D01*
X122861904Y-120995238D01*
X122766666Y-120947619D01*
X122623809Y-120947619D01*
X123147619Y-120852380D02*
X123909523Y-120852380D01*
X124147619Y-120947619D02*
X124147619Y-121614285D01*
X124147619Y-121519047D02*
X124195238Y-121566666D01*
X124290476Y-121614285D01*
X124433333Y-121614285D01*
X124528571Y-121566666D01*
X124576190Y-121471428D01*
X124576190Y-120947619D01*
X124576190Y-121471428D02*
X124623809Y-121566666D01*
X124719047Y-121614285D01*
X124861904Y-121614285D01*
X124957142Y-121566666D01*
X125004761Y-121471428D01*
X125004761Y-120947619D01*
X125480952Y-120947619D02*
X125480952Y-121614285D01*
X125480952Y-121947619D02*
X125433333Y-121900000D01*
X125480952Y-121852380D01*
X125528571Y-121900000D01*
X125480952Y-121947619D01*
X125480952Y-121852380D01*
X125957142Y-121614285D02*
X125957142Y-120947619D01*
X125957142Y-121519047D02*
X126004761Y-121566666D01*
X126100000Y-121614285D01*
X126242857Y-121614285D01*
X126338095Y-121566666D01*
X126385714Y-121471428D01*
X126385714Y-120947619D01*
X126861904Y-120947619D02*
X126861904Y-121614285D01*
X126861904Y-121947619D02*
X126814285Y-121900000D01*
X126861904Y-121852380D01*
X126909523Y-121900000D01*
X126861904Y-121947619D01*
X126861904Y-121852380D01*
X127100000Y-120852380D02*
X127861904Y-120852380D01*
X128100000Y-120947619D02*
X128100000Y-121614285D01*
X128100000Y-121519047D02*
X128147619Y-121566666D01*
X128242857Y-121614285D01*
X128385714Y-121614285D01*
X128480952Y-121566666D01*
X128528571Y-121471428D01*
X128528571Y-120947619D01*
X128528571Y-121471428D02*
X128576190Y-121566666D01*
X128671428Y-121614285D01*
X128814285Y-121614285D01*
X128909523Y-121566666D01*
X128957142Y-121471428D01*
X128957142Y-120947619D01*
X129861904Y-121614285D02*
X129861904Y-120947619D01*
X129433333Y-121614285D02*
X129433333Y-121090476D01*
X129480952Y-120995238D01*
X129576190Y-120947619D01*
X129719047Y-120947619D01*
X129814285Y-120995238D01*
X129861904Y-121042857D01*
X130290476Y-120995238D02*
X130385714Y-120947619D01*
X130576190Y-120947619D01*
X130671428Y-120995238D01*
X130719047Y-121090476D01*
X130719047Y-121138095D01*
X130671428Y-121233333D01*
X130576190Y-121280952D01*
X130433333Y-121280952D01*
X130338095Y-121328571D01*
X130290476Y-121423809D01*
X130290476Y-121471428D01*
X130338095Y-121566666D01*
X130433333Y-121614285D01*
X130576190Y-121614285D01*
X130671428Y-121566666D01*
X131576190Y-120995238D02*
X131480952Y-120947619D01*
X131290476Y-120947619D01*
X131195238Y-120995238D01*
X131147619Y-121042857D01*
X131100000Y-121138095D01*
X131100000Y-121423809D01*
X131147619Y-121519047D01*
X131195238Y-121566666D01*
X131290476Y-121614285D01*
X131480952Y-121614285D01*
X131576190Y-121566666D01*
X132147619Y-120947619D02*
X132052380Y-120995238D01*
X132004761Y-121090476D01*
X132004761Y-121947619D01*
X132909523Y-120995238D02*
X132814285Y-120947619D01*
X132623809Y-120947619D01*
X132528571Y-120995238D01*
X132480952Y-121090476D01*
X132480952Y-121471428D01*
X132528571Y-121566666D01*
X132623809Y-121614285D01*
X132814285Y-121614285D01*
X132909523Y-121566666D01*
X132957142Y-121471428D01*
X132957142Y-121376190D01*
X132480952Y-121280952D01*
X133147619Y-120852380D02*
X133909523Y-120852380D01*
X134052380Y-121614285D02*
X134290476Y-120947619D01*
X134528571Y-121614285D01*
X134861904Y-121852380D02*
X134909523Y-121900000D01*
X135004761Y-121947619D01*
X135242857Y-121947619D01*
X135338095Y-121900000D01*
X135385714Y-121852380D01*
X135433333Y-121757142D01*
X135433333Y-121661904D01*
X135385714Y-121519047D01*
X134814285Y-120947619D01*
X135433333Y-120947619D01*
X135861904Y-121042857D02*
X135909523Y-120995238D01*
X135861904Y-120947619D01*
X135814285Y-120995238D01*
X135861904Y-121042857D01*
X135861904Y-120947619D01*
X136766666Y-121614285D02*
X136766666Y-120947619D01*
X136528571Y-121995238D02*
X136290476Y-121280952D01*
X136909523Y-121280952D01*
X166385714Y-95947619D02*
X166385714Y-96614285D01*
X166385714Y-96519047D02*
X166433333Y-96566666D01*
X166528571Y-96614285D01*
X166671428Y-96614285D01*
X166766666Y-96566666D01*
X166814285Y-96471428D01*
X166814285Y-95947619D01*
X166814285Y-96471428D02*
X166861904Y-96566666D01*
X166957142Y-96614285D01*
X167100000Y-96614285D01*
X167195238Y-96566666D01*
X167242857Y-96471428D01*
X167242857Y-95947619D01*
X167623809Y-96614285D02*
X167861904Y-95947619D01*
X168100000Y-96614285D02*
X167861904Y-95947619D01*
X167766666Y-95709523D01*
X167719047Y-95661904D01*
X167623809Y-95614285D01*
X168623809Y-95947619D02*
X168528571Y-95995238D01*
X168480952Y-96042857D01*
X168433333Y-96138095D01*
X168433333Y-96423809D01*
X168480952Y-96519047D01*
X168528571Y-96566666D01*
X168623809Y-96614285D01*
X168766666Y-96614285D01*
X168861904Y-96566666D01*
X168909523Y-96519047D01*
X168957142Y-96423809D01*
X168957142Y-96138095D01*
X168909523Y-96042857D01*
X168861904Y-95995238D01*
X168766666Y-95947619D01*
X168623809Y-95947619D01*
X169147619Y-95852380D02*
X169909523Y-95852380D01*
X170147619Y-95947619D02*
X170147619Y-96614285D01*
X170147619Y-96519047D02*
X170195238Y-96566666D01*
X170290476Y-96614285D01*
X170433333Y-96614285D01*
X170528571Y-96566666D01*
X170576190Y-96471428D01*
X170576190Y-95947619D01*
X170576190Y-96471428D02*
X170623809Y-96566666D01*
X170719047Y-96614285D01*
X170861904Y-96614285D01*
X170957142Y-96566666D01*
X171004761Y-96471428D01*
X171004761Y-95947619D01*
X171480952Y-95947619D02*
X171480952Y-96614285D01*
X171480952Y-96947619D02*
X171433333Y-96900000D01*
X171480952Y-96852380D01*
X171528571Y-96900000D01*
X171480952Y-96947619D01*
X171480952Y-96852380D01*
X171957142Y-96614285D02*
X171957142Y-95947619D01*
X171957142Y-96519047D02*
X172004761Y-96566666D01*
X172100000Y-96614285D01*
X172242857Y-96614285D01*
X172338095Y-96566666D01*
X172385714Y-96471428D01*
X172385714Y-95947619D01*
X172861904Y-95947619D02*
X172861904Y-96614285D01*
X172861904Y-96947619D02*
X172814285Y-96900000D01*
X172861904Y-96852380D01*
X172909523Y-96900000D01*
X172861904Y-96947619D01*
X172861904Y-96852380D01*
X173100000Y-95852380D02*
X173861904Y-95852380D01*
X174100000Y-95947619D02*
X174100000Y-96614285D01*
X174100000Y-96519047D02*
X174147619Y-96566666D01*
X174242857Y-96614285D01*
X174385714Y-96614285D01*
X174480952Y-96566666D01*
X174528571Y-96471428D01*
X174528571Y-95947619D01*
X174528571Y-96471428D02*
X174576190Y-96566666D01*
X174671428Y-96614285D01*
X174814285Y-96614285D01*
X174909523Y-96566666D01*
X174957142Y-96471428D01*
X174957142Y-95947619D01*
X175861904Y-96614285D02*
X175861904Y-95947619D01*
X175433333Y-96614285D02*
X175433333Y-96090476D01*
X175480952Y-95995238D01*
X175576190Y-95947619D01*
X175719047Y-95947619D01*
X175814285Y-95995238D01*
X175861904Y-96042857D01*
X176290476Y-95995238D02*
X176385714Y-95947619D01*
X176576190Y-95947619D01*
X176671428Y-95995238D01*
X176719047Y-96090476D01*
X176719047Y-96138095D01*
X176671428Y-96233333D01*
X176576190Y-96280952D01*
X176433333Y-96280952D01*
X176338095Y-96328571D01*
X176290476Y-96423809D01*
X176290476Y-96471428D01*
X176338095Y-96566666D01*
X176433333Y-96614285D01*
X176576190Y-96614285D01*
X176671428Y-96566666D01*
X177576190Y-95995238D02*
X177480952Y-95947619D01*
X177290476Y-95947619D01*
X177195238Y-95995238D01*
X177147619Y-96042857D01*
X177100000Y-96138095D01*
X177100000Y-96423809D01*
X177147619Y-96519047D01*
X177195238Y-96566666D01*
X177290476Y-96614285D01*
X177480952Y-96614285D01*
X177576190Y-96566666D01*
X178147619Y-95947619D02*
X178052380Y-95995238D01*
X178004761Y-96090476D01*
X178004761Y-96947619D01*
X178909523Y-95995238D02*
X178814285Y-95947619D01*
X178623809Y-95947619D01*
X178528571Y-95995238D01*
X178480952Y-96090476D01*
X178480952Y-96471428D01*
X178528571Y-96566666D01*
X178623809Y-96614285D01*
X178814285Y-96614285D01*
X178909523Y-96566666D01*
X178957142Y-96471428D01*
X178957142Y-96376190D01*
X178480952Y-96280952D01*
X179147619Y-95852380D02*
X179909523Y-95852380D01*
X180052380Y-96614285D02*
X180290476Y-95947619D01*
X180528571Y-96614285D01*
X180861904Y-96852380D02*
X180909523Y-96900000D01*
X181004761Y-96947619D01*
X181242857Y-96947619D01*
X181338095Y-96900000D01*
X181385714Y-96852380D01*
X181433333Y-96757142D01*
X181433333Y-96661904D01*
X181385714Y-96519047D01*
X180814285Y-95947619D01*
X181433333Y-95947619D01*
X181861904Y-96042857D02*
X181909523Y-95995238D01*
X181861904Y-95947619D01*
X181814285Y-95995238D01*
X181861904Y-96042857D01*
X181861904Y-95947619D01*
X182766666Y-96614285D02*
X182766666Y-95947619D01*
X182528571Y-96995238D02*
X182290476Y-96280952D01*
X182909523Y-96280952D01*
X120385714Y-95947619D02*
X120385714Y-96614285D01*
X120385714Y-96519047D02*
X120433333Y-96566666D01*
X120528571Y-96614285D01*
X120671428Y-96614285D01*
X120766666Y-96566666D01*
X120814285Y-96471428D01*
X120814285Y-95947619D01*
X120814285Y-96471428D02*
X120861904Y-96566666D01*
X120957142Y-96614285D01*
X121100000Y-96614285D01*
X121195238Y-96566666D01*
X121242857Y-96471428D01*
X121242857Y-95947619D01*
X121623809Y-96614285D02*
X121861904Y-95947619D01*
X122100000Y-96614285D02*
X121861904Y-95947619D01*
X121766666Y-95709523D01*
X121719047Y-95661904D01*
X121623809Y-95614285D01*
X122623809Y-95947619D02*
X122528571Y-95995238D01*
X122480952Y-96042857D01*
X122433333Y-96138095D01*
X122433333Y-96423809D01*
X122480952Y-96519047D01*
X122528571Y-96566666D01*
X122623809Y-96614285D01*
X122766666Y-96614285D01*
X122861904Y-96566666D01*
X122909523Y-96519047D01*
X122957142Y-96423809D01*
X122957142Y-96138095D01*
X122909523Y-96042857D01*
X122861904Y-95995238D01*
X122766666Y-95947619D01*
X122623809Y-95947619D01*
X123147619Y-95852380D02*
X123909523Y-95852380D01*
X124147619Y-95947619D02*
X124147619Y-96614285D01*
X124147619Y-96519047D02*
X124195238Y-96566666D01*
X124290476Y-96614285D01*
X124433333Y-96614285D01*
X124528571Y-96566666D01*
X124576190Y-96471428D01*
X124576190Y-95947619D01*
X124576190Y-96471428D02*
X124623809Y-96566666D01*
X124719047Y-96614285D01*
X124861904Y-96614285D01*
X124957142Y-96566666D01*
X125004761Y-96471428D01*
X125004761Y-95947619D01*
X125480952Y-95947619D02*
X125480952Y-96614285D01*
X125480952Y-96947619D02*
X125433333Y-96900000D01*
X125480952Y-96852380D01*
X125528571Y-96900000D01*
X125480952Y-96947619D01*
X125480952Y-96852380D01*
X125957142Y-96614285D02*
X125957142Y-95947619D01*
X125957142Y-96519047D02*
X126004761Y-96566666D01*
X126100000Y-96614285D01*
X126242857Y-96614285D01*
X126338095Y-96566666D01*
X126385714Y-96471428D01*
X126385714Y-95947619D01*
X126861904Y-95947619D02*
X126861904Y-96614285D01*
X126861904Y-96947619D02*
X126814285Y-96900000D01*
X126861904Y-96852380D01*
X126909523Y-96900000D01*
X126861904Y-96947619D01*
X126861904Y-96852380D01*
X127100000Y-95852380D02*
X127861904Y-95852380D01*
X128100000Y-95947619D02*
X128100000Y-96614285D01*
X128100000Y-96519047D02*
X128147619Y-96566666D01*
X128242857Y-96614285D01*
X128385714Y-96614285D01*
X128480952Y-96566666D01*
X128528571Y-96471428D01*
X128528571Y-95947619D01*
X128528571Y-96471428D02*
X128576190Y-96566666D01*
X128671428Y-96614285D01*
X128814285Y-96614285D01*
X128909523Y-96566666D01*
X128957142Y-96471428D01*
X128957142Y-95947619D01*
X129861904Y-96614285D02*
X129861904Y-95947619D01*
X129433333Y-96614285D02*
X129433333Y-96090476D01*
X129480952Y-95995238D01*
X129576190Y-95947619D01*
X129719047Y-95947619D01*
X129814285Y-95995238D01*
X129861904Y-96042857D01*
X130290476Y-95995238D02*
X130385714Y-95947619D01*
X130576190Y-95947619D01*
X130671428Y-95995238D01*
X130719047Y-96090476D01*
X130719047Y-96138095D01*
X130671428Y-96233333D01*
X130576190Y-96280952D01*
X130433333Y-96280952D01*
X130338095Y-96328571D01*
X130290476Y-96423809D01*
X130290476Y-96471428D01*
X130338095Y-96566666D01*
X130433333Y-96614285D01*
X130576190Y-96614285D01*
X130671428Y-96566666D01*
X131576190Y-95995238D02*
X131480952Y-95947619D01*
X131290476Y-95947619D01*
X131195238Y-95995238D01*
X131147619Y-96042857D01*
X131100000Y-96138095D01*
X131100000Y-96423809D01*
X131147619Y-96519047D01*
X131195238Y-96566666D01*
X131290476Y-96614285D01*
X131480952Y-96614285D01*
X131576190Y-96566666D01*
X132147619Y-95947619D02*
X132052380Y-95995238D01*
X132004761Y-96090476D01*
X132004761Y-96947619D01*
X132909523Y-95995238D02*
X132814285Y-95947619D01*
X132623809Y-95947619D01*
X132528571Y-95995238D01*
X132480952Y-96090476D01*
X132480952Y-96471428D01*
X132528571Y-96566666D01*
X132623809Y-96614285D01*
X132814285Y-96614285D01*
X132909523Y-96566666D01*
X132957142Y-96471428D01*
X132957142Y-96376190D01*
X132480952Y-96280952D01*
X133147619Y-95852380D02*
X133909523Y-95852380D01*
X134052380Y-96614285D02*
X134290476Y-95947619D01*
X134528571Y-96614285D01*
X134861904Y-96852380D02*
X134909523Y-96900000D01*
X135004761Y-96947619D01*
X135242857Y-96947619D01*
X135338095Y-96900000D01*
X135385714Y-96852380D01*
X135433333Y-96757142D01*
X135433333Y-96661904D01*
X135385714Y-96519047D01*
X134814285Y-95947619D01*
X135433333Y-95947619D01*
X135861904Y-96042857D02*
X135909523Y-95995238D01*
X135861904Y-95947619D01*
X135814285Y-95995238D01*
X135861904Y-96042857D01*
X135861904Y-95947619D01*
X136766666Y-96614285D02*
X136766666Y-95947619D01*
X136528571Y-96995238D02*
X136290476Y-96280952D01*
X136909523Y-96280952D01*
X166385714Y-70947619D02*
X166385714Y-71614285D01*
X166385714Y-71519047D02*
X166433333Y-71566666D01*
X166528571Y-71614285D01*
X166671428Y-71614285D01*
X166766666Y-71566666D01*
X166814285Y-71471428D01*
X166814285Y-70947619D01*
X166814285Y-71471428D02*
X166861904Y-71566666D01*
X166957142Y-71614285D01*
X167100000Y-71614285D01*
X167195238Y-71566666D01*
X167242857Y-71471428D01*
X167242857Y-70947619D01*
X167623809Y-71614285D02*
X167861904Y-70947619D01*
X168100000Y-71614285D02*
X167861904Y-70947619D01*
X167766666Y-70709523D01*
X167719047Y-70661904D01*
X167623809Y-70614285D01*
X168623809Y-70947619D02*
X168528571Y-70995238D01*
X168480952Y-71042857D01*
X168433333Y-71138095D01*
X168433333Y-71423809D01*
X168480952Y-71519047D01*
X168528571Y-71566666D01*
X168623809Y-71614285D01*
X168766666Y-71614285D01*
X168861904Y-71566666D01*
X168909523Y-71519047D01*
X168957142Y-71423809D01*
X168957142Y-71138095D01*
X168909523Y-71042857D01*
X168861904Y-70995238D01*
X168766666Y-70947619D01*
X168623809Y-70947619D01*
X169147619Y-70852380D02*
X169909523Y-70852380D01*
X170147619Y-70947619D02*
X170147619Y-71614285D01*
X170147619Y-71519047D02*
X170195238Y-71566666D01*
X170290476Y-71614285D01*
X170433333Y-71614285D01*
X170528571Y-71566666D01*
X170576190Y-71471428D01*
X170576190Y-70947619D01*
X170576190Y-71471428D02*
X170623809Y-71566666D01*
X170719047Y-71614285D01*
X170861904Y-71614285D01*
X170957142Y-71566666D01*
X171004761Y-71471428D01*
X171004761Y-70947619D01*
X171480952Y-70947619D02*
X171480952Y-71614285D01*
X171480952Y-71947619D02*
X171433333Y-71900000D01*
X171480952Y-71852380D01*
X171528571Y-71900000D01*
X171480952Y-71947619D01*
X171480952Y-71852380D01*
X171957142Y-71614285D02*
X171957142Y-70947619D01*
X171957142Y-71519047D02*
X172004761Y-71566666D01*
X172100000Y-71614285D01*
X172242857Y-71614285D01*
X172338095Y-71566666D01*
X172385714Y-71471428D01*
X172385714Y-70947619D01*
X172861904Y-70947619D02*
X172861904Y-71614285D01*
X172861904Y-71947619D02*
X172814285Y-71900000D01*
X172861904Y-71852380D01*
X172909523Y-71900000D01*
X172861904Y-71947619D01*
X172861904Y-71852380D01*
X173100000Y-70852380D02*
X173861904Y-70852380D01*
X174100000Y-70947619D02*
X174100000Y-71614285D01*
X174100000Y-71519047D02*
X174147619Y-71566666D01*
X174242857Y-71614285D01*
X174385714Y-71614285D01*
X174480952Y-71566666D01*
X174528571Y-71471428D01*
X174528571Y-70947619D01*
X174528571Y-71471428D02*
X174576190Y-71566666D01*
X174671428Y-71614285D01*
X174814285Y-71614285D01*
X174909523Y-71566666D01*
X174957142Y-71471428D01*
X174957142Y-70947619D01*
X175861904Y-71614285D02*
X175861904Y-70947619D01*
X175433333Y-71614285D02*
X175433333Y-71090476D01*
X175480952Y-70995238D01*
X175576190Y-70947619D01*
X175719047Y-70947619D01*
X175814285Y-70995238D01*
X175861904Y-71042857D01*
X176290476Y-70995238D02*
X176385714Y-70947619D01*
X176576190Y-70947619D01*
X176671428Y-70995238D01*
X176719047Y-71090476D01*
X176719047Y-71138095D01*
X176671428Y-71233333D01*
X176576190Y-71280952D01*
X176433333Y-71280952D01*
X176338095Y-71328571D01*
X176290476Y-71423809D01*
X176290476Y-71471428D01*
X176338095Y-71566666D01*
X176433333Y-71614285D01*
X176576190Y-71614285D01*
X176671428Y-71566666D01*
X177576190Y-70995238D02*
X177480952Y-70947619D01*
X177290476Y-70947619D01*
X177195238Y-70995238D01*
X177147619Y-71042857D01*
X177100000Y-71138095D01*
X177100000Y-71423809D01*
X177147619Y-71519047D01*
X177195238Y-71566666D01*
X177290476Y-71614285D01*
X177480952Y-71614285D01*
X177576190Y-71566666D01*
X178147619Y-70947619D02*
X178052380Y-70995238D01*
X178004761Y-71090476D01*
X178004761Y-71947619D01*
X178909523Y-70995238D02*
X178814285Y-70947619D01*
X178623809Y-70947619D01*
X178528571Y-70995238D01*
X178480952Y-71090476D01*
X178480952Y-71471428D01*
X178528571Y-71566666D01*
X178623809Y-71614285D01*
X178814285Y-71614285D01*
X178909523Y-71566666D01*
X178957142Y-71471428D01*
X178957142Y-71376190D01*
X178480952Y-71280952D01*
X179147619Y-70852380D02*
X179909523Y-70852380D01*
X180052380Y-71614285D02*
X180290476Y-70947619D01*
X180528571Y-71614285D01*
X180861904Y-71852380D02*
X180909523Y-71900000D01*
X181004761Y-71947619D01*
X181242857Y-71947619D01*
X181338095Y-71900000D01*
X181385714Y-71852380D01*
X181433333Y-71757142D01*
X181433333Y-71661904D01*
X181385714Y-71519047D01*
X180814285Y-70947619D01*
X181433333Y-70947619D01*
X181861904Y-71042857D02*
X181909523Y-70995238D01*
X181861904Y-70947619D01*
X181814285Y-70995238D01*
X181861904Y-71042857D01*
X181861904Y-70947619D01*
X182766666Y-71614285D02*
X182766666Y-70947619D01*
X182528571Y-71995238D02*
X182290476Y-71280952D01*
X182909523Y-71280952D01*
D10*
X183990000Y-137618095D02*
X183951904Y-137522857D01*
X183951904Y-137380000D01*
X183990000Y-137237142D01*
X184066190Y-137141904D01*
X184142380Y-137094285D01*
X184294761Y-137046666D01*
X184409047Y-137046666D01*
X184561428Y-137094285D01*
X184637619Y-137141904D01*
X184713809Y-137237142D01*
X184751904Y-137380000D01*
X184751904Y-137475238D01*
X184713809Y-137618095D01*
X184675714Y-137665714D01*
X184409047Y-137665714D01*
X184409047Y-137475238D01*
X184751904Y-138094285D02*
X183951904Y-138094285D01*
X184751904Y-138665714D01*
X183951904Y-138665714D01*
X184751904Y-139141904D02*
X183951904Y-139141904D01*
X183951904Y-139380000D01*
X183990000Y-139522857D01*
X184066190Y-139618095D01*
X184142380Y-139665714D01*
X184294761Y-139713333D01*
X184409047Y-139713333D01*
X184561428Y-139665714D01*
X184637619Y-139618095D01*
X184713809Y-139522857D01*
X184751904Y-139380000D01*
X184751904Y-139141904D01*
X137990000Y-137618095D02*
X137951904Y-137522857D01*
X137951904Y-137380000D01*
X137990000Y-137237142D01*
X138066190Y-137141904D01*
X138142380Y-137094285D01*
X138294761Y-137046666D01*
X138409047Y-137046666D01*
X138561428Y-137094285D01*
X138637619Y-137141904D01*
X138713809Y-137237142D01*
X138751904Y-137380000D01*
X138751904Y-137475238D01*
X138713809Y-137618095D01*
X138675714Y-137665714D01*
X138409047Y-137665714D01*
X138409047Y-137475238D01*
X138751904Y-138094285D02*
X137951904Y-138094285D01*
X138751904Y-138665714D01*
X137951904Y-138665714D01*
X138751904Y-139141904D02*
X137951904Y-139141904D01*
X137951904Y-139380000D01*
X137990000Y-139522857D01*
X138066190Y-139618095D01*
X138142380Y-139665714D01*
X138294761Y-139713333D01*
X138409047Y-139713333D01*
X138561428Y-139665714D01*
X138637619Y-139618095D01*
X138713809Y-139522857D01*
X138751904Y-139380000D01*
X138751904Y-139141904D01*
X183990000Y-112618095D02*
X183951904Y-112522857D01*
X183951904Y-112380000D01*
X183990000Y-112237142D01*
X184066190Y-112141904D01*
X184142380Y-112094285D01*
X184294761Y-112046666D01*
X184409047Y-112046666D01*
X184561428Y-112094285D01*
X184637619Y-112141904D01*
X184713809Y-112237142D01*
X184751904Y-112380000D01*
X184751904Y-112475238D01*
X184713809Y-112618095D01*
X184675714Y-112665714D01*
X184409047Y-112665714D01*
X184409047Y-112475238D01*
X184751904Y-113094285D02*
X183951904Y-113094285D01*
X184751904Y-113665714D01*
X183951904Y-113665714D01*
X184751904Y-114141904D02*
X183951904Y-114141904D01*
X183951904Y-114380000D01*
X183990000Y-114522857D01*
X184066190Y-114618095D01*
X184142380Y-114665714D01*
X184294761Y-114713333D01*
X184409047Y-114713333D01*
X184561428Y-114665714D01*
X184637619Y-114618095D01*
X184713809Y-114522857D01*
X184751904Y-114380000D01*
X184751904Y-114141904D01*
X137990000Y-112618095D02*
X137951904Y-112522857D01*
X137951904Y-112380000D01*
X137990000Y-112237142D01*
X138066190Y-112141904D01*
X138142380Y-112094285D01*
X138294761Y-112046666D01*
X138409047Y-112046666D01*
X138561428Y-112094285D01*
X138637619Y-112141904D01*
X138713809Y-112237142D01*
X138751904Y-112380000D01*
X138751904Y-112475238D01*
X138713809Y-112618095D01*
X138675714Y-112665714D01*
X138409047Y-112665714D01*
X138409047Y-112475238D01*
X138751904Y-113094285D02*
X137951904Y-113094285D01*
X138751904Y-113665714D01*
X137951904Y-113665714D01*
X138751904Y-114141904D02*
X137951904Y-114141904D01*
X137951904Y-114380000D01*
X137990000Y-114522857D01*
X138066190Y-114618095D01*
X138142380Y-114665714D01*
X138294761Y-114713333D01*
X138409047Y-114713333D01*
X138561428Y-114665714D01*
X138637619Y-114618095D01*
X138713809Y-114522857D01*
X138751904Y-114380000D01*
X138751904Y-114141904D01*
X183990000Y-87618095D02*
X183951904Y-87522857D01*
X183951904Y-87380000D01*
X183990000Y-87237142D01*
X184066190Y-87141904D01*
X184142380Y-87094285D01*
X184294761Y-87046666D01*
X184409047Y-87046666D01*
X184561428Y-87094285D01*
X184637619Y-87141904D01*
X184713809Y-87237142D01*
X184751904Y-87380000D01*
X184751904Y-87475238D01*
X184713809Y-87618095D01*
X184675714Y-87665714D01*
X184409047Y-87665714D01*
X184409047Y-87475238D01*
X184751904Y-88094285D02*
X183951904Y-88094285D01*
X184751904Y-88665714D01*
X183951904Y-88665714D01*
X184751904Y-89141904D02*
X183951904Y-89141904D01*
X183951904Y-89380000D01*
X183990000Y-89522857D01*
X184066190Y-89618095D01*
X184142380Y-89665714D01*
X184294761Y-89713333D01*
X184409047Y-89713333D01*
X184561428Y-89665714D01*
X184637619Y-89618095D01*
X184713809Y-89522857D01*
X184751904Y-89380000D01*
X184751904Y-89141904D01*
X137990000Y-87618095D02*
X137951904Y-87522857D01*
X137951904Y-87380000D01*
X137990000Y-87237142D01*
X138066190Y-87141904D01*
X138142380Y-87094285D01*
X138294761Y-87046666D01*
X138409047Y-87046666D01*
X138561428Y-87094285D01*
X138637619Y-87141904D01*
X138713809Y-87237142D01*
X138751904Y-87380000D01*
X138751904Y-87475238D01*
X138713809Y-87618095D01*
X138675714Y-87665714D01*
X138409047Y-87665714D01*
X138409047Y-87475238D01*
X138751904Y-88094285D02*
X137951904Y-88094285D01*
X138751904Y-88665714D01*
X137951904Y-88665714D01*
X138751904Y-89141904D02*
X137951904Y-89141904D01*
X137951904Y-89380000D01*
X137990000Y-89522857D01*
X138066190Y-89618095D01*
X138142380Y-89665714D01*
X138294761Y-89713333D01*
X138409047Y-89713333D01*
X138561428Y-89665714D01*
X138637619Y-89618095D01*
X138713809Y-89522857D01*
X138751904Y-89380000D01*
X138751904Y-89141904D01*
X183990000Y-62618095D02*
X183951904Y-62522857D01*
X183951904Y-62380000D01*
X183990000Y-62237142D01*
X184066190Y-62141904D01*
X184142380Y-62094285D01*
X184294761Y-62046666D01*
X184409047Y-62046666D01*
X184561428Y-62094285D01*
X184637619Y-62141904D01*
X184713809Y-62237142D01*
X184751904Y-62380000D01*
X184751904Y-62475238D01*
X184713809Y-62618095D01*
X184675714Y-62665714D01*
X184409047Y-62665714D01*
X184409047Y-62475238D01*
X184751904Y-63094285D02*
X183951904Y-63094285D01*
X184751904Y-63665714D01*
X183951904Y-63665714D01*
X184751904Y-64141904D02*
X183951904Y-64141904D01*
X183951904Y-64380000D01*
X183990000Y-64522857D01*
X184066190Y-64618095D01*
X184142380Y-64665714D01*
X184294761Y-64713333D01*
X184409047Y-64713333D01*
X184561428Y-64665714D01*
X184637619Y-64618095D01*
X184713809Y-64522857D01*
X184751904Y-64380000D01*
X184751904Y-64141904D01*
X182651904Y-137609523D02*
X182651904Y-137133333D01*
X183032857Y-137085714D01*
X182994761Y-137133333D01*
X182956666Y-137228571D01*
X182956666Y-137466666D01*
X182994761Y-137561904D01*
X183032857Y-137609523D01*
X183109047Y-137657142D01*
X183299523Y-137657142D01*
X183375714Y-137609523D01*
X183413809Y-137561904D01*
X183451904Y-137466666D01*
X183451904Y-137228571D01*
X183413809Y-137133333D01*
X183375714Y-137085714D01*
X182651904Y-137942857D02*
X183451904Y-138276190D01*
X182651904Y-138609523D01*
X136651904Y-137609523D02*
X136651904Y-137133333D01*
X137032857Y-137085714D01*
X136994761Y-137133333D01*
X136956666Y-137228571D01*
X136956666Y-137466666D01*
X136994761Y-137561904D01*
X137032857Y-137609523D01*
X137109047Y-137657142D01*
X137299523Y-137657142D01*
X137375714Y-137609523D01*
X137413809Y-137561904D01*
X137451904Y-137466666D01*
X137451904Y-137228571D01*
X137413809Y-137133333D01*
X137375714Y-137085714D01*
X136651904Y-137942857D02*
X137451904Y-138276190D01*
X136651904Y-138609523D01*
X182651904Y-112609523D02*
X182651904Y-112133333D01*
X183032857Y-112085714D01*
X182994761Y-112133333D01*
X182956666Y-112228571D01*
X182956666Y-112466666D01*
X182994761Y-112561904D01*
X183032857Y-112609523D01*
X183109047Y-112657142D01*
X183299523Y-112657142D01*
X183375714Y-112609523D01*
X183413809Y-112561904D01*
X183451904Y-112466666D01*
X183451904Y-112228571D01*
X183413809Y-112133333D01*
X183375714Y-112085714D01*
X182651904Y-112942857D02*
X183451904Y-113276190D01*
X182651904Y-113609523D01*
X136651904Y-112609523D02*
X136651904Y-112133333D01*
X137032857Y-112085714D01*
X136994761Y-112133333D01*
X136956666Y-112228571D01*
X136956666Y-112466666D01*
X136994761Y-112561904D01*
X137032857Y-112609523D01*
X137109047Y-112657142D01*
X137299523Y-112657142D01*
X137375714Y-112609523D01*
X137413809Y-112561904D01*
X137451904Y-112466666D01*
X137451904Y-112228571D01*
X137413809Y-112133333D01*
X137375714Y-112085714D01*
X136651904Y-112942857D02*
X137451904Y-113276190D01*
X136651904Y-113609523D01*
X182651904Y-87609523D02*
X182651904Y-87133333D01*
X183032857Y-87085714D01*
X182994761Y-87133333D01*
X182956666Y-87228571D01*
X182956666Y-87466666D01*
X182994761Y-87561904D01*
X183032857Y-87609523D01*
X183109047Y-87657142D01*
X183299523Y-87657142D01*
X183375714Y-87609523D01*
X183413809Y-87561904D01*
X183451904Y-87466666D01*
X183451904Y-87228571D01*
X183413809Y-87133333D01*
X183375714Y-87085714D01*
X182651904Y-87942857D02*
X183451904Y-88276190D01*
X182651904Y-88609523D01*
X136651904Y-87609523D02*
X136651904Y-87133333D01*
X137032857Y-87085714D01*
X136994761Y-87133333D01*
X136956666Y-87228571D01*
X136956666Y-87466666D01*
X136994761Y-87561904D01*
X137032857Y-87609523D01*
X137109047Y-87657142D01*
X137299523Y-87657142D01*
X137375714Y-87609523D01*
X137413809Y-87561904D01*
X137451904Y-87466666D01*
X137451904Y-87228571D01*
X137413809Y-87133333D01*
X137375714Y-87085714D01*
X136651904Y-87942857D02*
X137451904Y-88276190D01*
X136651904Y-88609523D01*
X182651904Y-62609523D02*
X182651904Y-62133333D01*
X183032857Y-62085714D01*
X182994761Y-62133333D01*
X182956666Y-62228571D01*
X182956666Y-62466666D01*
X182994761Y-62561904D01*
X183032857Y-62609523D01*
X183109047Y-62657142D01*
X183299523Y-62657142D01*
X183375714Y-62609523D01*
X183413809Y-62561904D01*
X183451904Y-62466666D01*
X183451904Y-62228571D01*
X183413809Y-62133333D01*
X183375714Y-62085714D01*
X182651904Y-62942857D02*
X183451904Y-63276190D01*
X182651904Y-63609523D01*
X166033333Y-130638095D02*
X165700000Y-131019047D01*
X165461904Y-130638095D02*
X165461904Y-131438095D01*
X165842857Y-131438095D01*
X165938095Y-131400000D01*
X165985714Y-131361904D01*
X166033333Y-131285714D01*
X166033333Y-131171428D01*
X165985714Y-131095238D01*
X165938095Y-131057142D01*
X165842857Y-131019047D01*
X165461904Y-131019047D01*
X166366666Y-131438095D02*
X167033333Y-130638095D01*
X167033333Y-131438095D02*
X166366666Y-130638095D01*
X120033333Y-130638095D02*
X119700000Y-131019047D01*
X119461904Y-130638095D02*
X119461904Y-131438095D01*
X119842857Y-131438095D01*
X119938095Y-131400000D01*
X119985714Y-131361904D01*
X120033333Y-131285714D01*
X120033333Y-131171428D01*
X119985714Y-131095238D01*
X119938095Y-131057142D01*
X119842857Y-131019047D01*
X119461904Y-131019047D01*
X120366666Y-131438095D02*
X121033333Y-130638095D01*
X121033333Y-131438095D02*
X120366666Y-130638095D01*
X166033333Y-105638095D02*
X165700000Y-106019047D01*
X165461904Y-105638095D02*
X165461904Y-106438095D01*
X165842857Y-106438095D01*
X165938095Y-106400000D01*
X165985714Y-106361904D01*
X166033333Y-106285714D01*
X166033333Y-106171428D01*
X165985714Y-106095238D01*
X165938095Y-106057142D01*
X165842857Y-106019047D01*
X165461904Y-106019047D01*
X166366666Y-106438095D02*
X167033333Y-105638095D01*
X167033333Y-106438095D02*
X166366666Y-105638095D01*
X120033333Y-105638095D02*
X119700000Y-106019047D01*
X119461904Y-105638095D02*
X119461904Y-106438095D01*
X119842857Y-106438095D01*
X119938095Y-106400000D01*
X119985714Y-106361904D01*
X120033333Y-106285714D01*
X120033333Y-106171428D01*
X119985714Y-106095238D01*
X119938095Y-106057142D01*
X119842857Y-106019047D01*
X119461904Y-106019047D01*
X120366666Y-106438095D02*
X121033333Y-105638095D01*
X121033333Y-106438095D02*
X120366666Y-105638095D01*
X166033333Y-80638095D02*
X165700000Y-81019047D01*
X165461904Y-80638095D02*
X165461904Y-81438095D01*
X165842857Y-81438095D01*
X165938095Y-81400000D01*
X165985714Y-81361904D01*
X166033333Y-81285714D01*
X166033333Y-81171428D01*
X165985714Y-81095238D01*
X165938095Y-81057142D01*
X165842857Y-81019047D01*
X165461904Y-81019047D01*
X166366666Y-81438095D02*
X167033333Y-80638095D01*
X167033333Y-81438095D02*
X166366666Y-80638095D01*
X120033333Y-80638095D02*
X119700000Y-81019047D01*
X119461904Y-80638095D02*
X119461904Y-81438095D01*
X119842857Y-81438095D01*
X119938095Y-81400000D01*
X119985714Y-81361904D01*
X120033333Y-81285714D01*
X120033333Y-81171428D01*
X119985714Y-81095238D01*
X119938095Y-81057142D01*
X119842857Y-81019047D01*
X119461904Y-81019047D01*
X120366666Y-81438095D02*
X121033333Y-80638095D01*
X121033333Y-81438095D02*
X120366666Y-80638095D01*
X166033333Y-55638095D02*
X165700000Y-56019047D01*
X165461904Y-55638095D02*
X165461904Y-56438095D01*
X165842857Y-56438095D01*
X165938095Y-56400000D01*
X165985714Y-56361904D01*
X166033333Y-56285714D01*
X166033333Y-56171428D01*
X165985714Y-56095238D01*
X165938095Y-56057142D01*
X165842857Y-56019047D01*
X165461904Y-56019047D01*
X166366666Y-56438095D02*
X167033333Y-55638095D01*
X167033333Y-56438095D02*
X166366666Y-55638095D01*
X184340000Y-132240000D02*
X184340000Y-136490000D01*
X138340000Y-132240000D02*
X138340000Y-136490000D01*
X184340000Y-107240000D02*
X184340000Y-111490000D01*
X138340000Y-107240000D02*
X138340000Y-111490000D01*
X184340000Y-82240000D02*
X184340000Y-86490000D01*
X138340000Y-82240000D02*
X138340000Y-86490000D01*
X184340000Y-57240000D02*
X184340000Y-61490000D01*
X181780000Y-132270000D02*
X181780000Y-136520000D01*
X135780000Y-132270000D02*
X135780000Y-136520000D01*
X181780000Y-107270000D02*
X181780000Y-111520000D01*
X135780000Y-107270000D02*
X135780000Y-111520000D01*
X181780000Y-82270000D02*
X181780000Y-86520000D01*
X135780000Y-82270000D02*
X135780000Y-86520000D01*
X181780000Y-57270000D02*
X181780000Y-61520000D01*
X183060000Y-134910000D02*
X183090000Y-136490000D01*
X137060000Y-134910000D02*
X137090000Y-136490000D01*
X183060000Y-109910000D02*
X183090000Y-111490000D01*
X137060000Y-109910000D02*
X137090000Y-111490000D01*
X183060000Y-84910000D02*
X183090000Y-86490000D01*
X137060000Y-84910000D02*
X137090000Y-86490000D01*
X183060000Y-59910000D02*
X183090000Y-61490000D01*
X120033333Y-55638095D02*
X119700000Y-56019047D01*
X119461904Y-55638095D02*
X119461904Y-56438095D01*
X119842857Y-56438095D01*
X119938095Y-56400000D01*
X119985714Y-56361904D01*
X120033333Y-56285714D01*
X120033333Y-56171428D01*
X119985714Y-56095238D01*
X119938095Y-56057142D01*
X119842857Y-56019047D01*
X119461904Y-56019047D01*
X120366666Y-56438095D02*
X121033333Y-55638095D01*
X121033333Y-56438095D02*
X120366666Y-55638095D01*
X119438095Y-58938095D02*
X120009523Y-58938095D01*
X119723809Y-58138095D02*
X119723809Y-58938095D01*
X120247619Y-58938095D02*
X120914285Y-58138095D01*
X120914285Y-58938095D02*
X120247619Y-58138095D01*
D11*
G36*
X104300000Y-63900000D02*
X110500000Y-63900000D01*
X110500000Y-68800000D01*
X107600000Y-68800000D01*
X107200000Y-67500000D01*
X104300000Y-67400000D01*
X104300000Y-63900000D01*
G37*
X104300000Y-63900000D02*
X110500000Y-63900000D01*
X110500000Y-68800000D01*
X107600000Y-68800000D01*
X107200000Y-67500000D01*
X104300000Y-67400000D01*
X104300000Y-63900000D01*
D10*
X134500000Y-59940000D02*
X134530000Y-61520000D01*
X136191904Y-62005238D02*
X135391904Y-62005238D01*
X135391904Y-62386190D01*
X135430000Y-62481428D01*
X135468095Y-62529047D01*
X135544285Y-62576666D01*
X135658571Y-62576666D01*
X135734761Y-62529047D01*
X135772857Y-62481428D01*
X135810952Y-62386190D01*
X135810952Y-62005238D01*
X135391904Y-62910000D02*
X136191904Y-63148095D01*
X135620476Y-63338571D01*
X136191904Y-63529047D01*
X135391904Y-63767142D01*
X136191904Y-64148095D02*
X135391904Y-64148095D01*
X135963333Y-64481428D01*
X135391904Y-64814761D01*
X136191904Y-64814761D01*
X134823809Y-61969523D02*
X134861904Y-62112380D01*
X134861904Y-62350476D01*
X134823809Y-62445714D01*
X134785714Y-62493333D01*
X134709523Y-62540952D01*
X134633333Y-62540952D01*
X134557142Y-62493333D01*
X134519047Y-62445714D01*
X134480952Y-62350476D01*
X134442857Y-62160000D01*
X134404761Y-62064761D01*
X134366666Y-62017142D01*
X134290476Y-61969523D01*
X134214285Y-61969523D01*
X134138095Y-62017142D01*
X134100000Y-62064761D01*
X134061904Y-62160000D01*
X134061904Y-62398095D01*
X134100000Y-62540952D01*
X134442857Y-62969523D02*
X134442857Y-63302857D01*
X134861904Y-63445714D02*
X134861904Y-62969523D01*
X134061904Y-62969523D01*
X134061904Y-63445714D01*
X134861904Y-63874285D02*
X134061904Y-63874285D01*
X134861904Y-64445714D01*
X134061904Y-64445714D01*
X134823809Y-64874285D02*
X134861904Y-65017142D01*
X134861904Y-65255238D01*
X134823809Y-65350476D01*
X134785714Y-65398095D01*
X134709523Y-65445714D01*
X134633333Y-65445714D01*
X134557142Y-65398095D01*
X134519047Y-65350476D01*
X134480952Y-65255238D01*
X134442857Y-65064761D01*
X134404761Y-64969523D01*
X134366666Y-64921904D01*
X134290476Y-64874285D01*
X134214285Y-64874285D01*
X134138095Y-64921904D01*
X134100000Y-64969523D01*
X134061904Y-65064761D01*
X134061904Y-65302857D01*
X134100000Y-65445714D01*
X134442857Y-65874285D02*
X134442857Y-66207619D01*
X134861904Y-66350476D02*
X134861904Y-65874285D01*
X134061904Y-65874285D01*
X134061904Y-66350476D01*
X135780000Y-57270000D02*
X135780000Y-61520000D01*
X136651904Y-62609523D02*
X136651904Y-62133333D01*
X137032857Y-62085714D01*
X136994761Y-62133333D01*
X136956666Y-62228571D01*
X136956666Y-62466666D01*
X136994761Y-62561904D01*
X137032857Y-62609523D01*
X137109047Y-62657142D01*
X137299523Y-62657142D01*
X137375714Y-62609523D01*
X137413809Y-62561904D01*
X137451904Y-62466666D01*
X137451904Y-62228571D01*
X137413809Y-62133333D01*
X137375714Y-62085714D01*
X136651904Y-62942857D02*
X137451904Y-63276190D01*
X136651904Y-63609523D01*
X137990000Y-62618095D02*
X137951904Y-62522857D01*
X137951904Y-62380000D01*
X137990000Y-62237142D01*
X138066190Y-62141904D01*
X138142380Y-62094285D01*
X138294761Y-62046666D01*
X138409047Y-62046666D01*
X138561428Y-62094285D01*
X138637619Y-62141904D01*
X138713809Y-62237142D01*
X138751904Y-62380000D01*
X138751904Y-62475238D01*
X138713809Y-62618095D01*
X138675714Y-62665714D01*
X138409047Y-62665714D01*
X138409047Y-62475238D01*
X138751904Y-63094285D02*
X137951904Y-63094285D01*
X138751904Y-63665714D01*
X137951904Y-63665714D01*
X138751904Y-64141904D02*
X137951904Y-64141904D01*
X137951904Y-64380000D01*
X137990000Y-64522857D01*
X138066190Y-64618095D01*
X138142380Y-64665714D01*
X138294761Y-64713333D01*
X138409047Y-64713333D01*
X138561428Y-64665714D01*
X138637619Y-64618095D01*
X138713809Y-64522857D01*
X138751904Y-64380000D01*
X138751904Y-64141904D01*
X138340000Y-57240000D02*
X138340000Y-61490000D01*
X137060000Y-59910000D02*
X137090000Y-61490000D01*
D12*
X120385714Y-70947619D02*
X120385714Y-71614285D01*
X120385714Y-71519047D02*
X120433333Y-71566666D01*
X120528571Y-71614285D01*
X120671428Y-71614285D01*
X120766666Y-71566666D01*
X120814285Y-71471428D01*
X120814285Y-70947619D01*
X120814285Y-71471428D02*
X120861904Y-71566666D01*
X120957142Y-71614285D01*
X121100000Y-71614285D01*
X121195238Y-71566666D01*
X121242857Y-71471428D01*
X121242857Y-70947619D01*
X121623809Y-71614285D02*
X121861904Y-70947619D01*
X122100000Y-71614285D02*
X121861904Y-70947619D01*
X121766666Y-70709523D01*
X121719047Y-70661904D01*
X121623809Y-70614285D01*
X122623809Y-70947619D02*
X122528571Y-70995238D01*
X122480952Y-71042857D01*
X122433333Y-71138095D01*
X122433333Y-71423809D01*
X122480952Y-71519047D01*
X122528571Y-71566666D01*
X122623809Y-71614285D01*
X122766666Y-71614285D01*
X122861904Y-71566666D01*
X122909523Y-71519047D01*
X122957142Y-71423809D01*
X122957142Y-71138095D01*
X122909523Y-71042857D01*
X122861904Y-70995238D01*
X122766666Y-70947619D01*
X122623809Y-70947619D01*
X123147619Y-70852380D02*
X123909523Y-70852380D01*
X124147619Y-70947619D02*
X124147619Y-71614285D01*
X124147619Y-71519047D02*
X124195238Y-71566666D01*
X124290476Y-71614285D01*
X124433333Y-71614285D01*
X124528571Y-71566666D01*
X124576190Y-71471428D01*
X124576190Y-70947619D01*
X124576190Y-71471428D02*
X124623809Y-71566666D01*
X124719047Y-71614285D01*
X124861904Y-71614285D01*
X124957142Y-71566666D01*
X125004761Y-71471428D01*
X125004761Y-70947619D01*
X125480952Y-70947619D02*
X125480952Y-71614285D01*
X125480952Y-71947619D02*
X125433333Y-71900000D01*
X125480952Y-71852380D01*
X125528571Y-71900000D01*
X125480952Y-71947619D01*
X125480952Y-71852380D01*
X125957142Y-71614285D02*
X125957142Y-70947619D01*
X125957142Y-71519047D02*
X126004761Y-71566666D01*
X126100000Y-71614285D01*
X126242857Y-71614285D01*
X126338095Y-71566666D01*
X126385714Y-71471428D01*
X126385714Y-70947619D01*
X126861904Y-70947619D02*
X126861904Y-71614285D01*
X126861904Y-71947619D02*
X126814285Y-71900000D01*
X126861904Y-71852380D01*
X126909523Y-71900000D01*
X126861904Y-71947619D01*
X126861904Y-71852380D01*
X127100000Y-70852380D02*
X127861904Y-70852380D01*
X128100000Y-70947619D02*
X128100000Y-71614285D01*
X128100000Y-71519047D02*
X128147619Y-71566666D01*
X128242857Y-71614285D01*
X128385714Y-71614285D01*
X128480952Y-71566666D01*
X128528571Y-71471428D01*
X128528571Y-70947619D01*
X128528571Y-71471428D02*
X128576190Y-71566666D01*
X128671428Y-71614285D01*
X128814285Y-71614285D01*
X128909523Y-71566666D01*
X128957142Y-71471428D01*
X128957142Y-70947619D01*
X129861904Y-71614285D02*
X129861904Y-70947619D01*
X129433333Y-71614285D02*
X129433333Y-71090476D01*
X129480952Y-70995238D01*
X129576190Y-70947619D01*
X129719047Y-70947619D01*
X129814285Y-70995238D01*
X129861904Y-71042857D01*
X130290476Y-70995238D02*
X130385714Y-70947619D01*
X130576190Y-70947619D01*
X130671428Y-70995238D01*
X130719047Y-71090476D01*
X130719047Y-71138095D01*
X130671428Y-71233333D01*
X130576190Y-71280952D01*
X130433333Y-71280952D01*
X130338095Y-71328571D01*
X130290476Y-71423809D01*
X130290476Y-71471428D01*
X130338095Y-71566666D01*
X130433333Y-71614285D01*
X130576190Y-71614285D01*
X130671428Y-71566666D01*
X131576190Y-70995238D02*
X131480952Y-70947619D01*
X131290476Y-70947619D01*
X131195238Y-70995238D01*
X131147619Y-71042857D01*
X131100000Y-71138095D01*
X131100000Y-71423809D01*
X131147619Y-71519047D01*
X131195238Y-71566666D01*
X131290476Y-71614285D01*
X131480952Y-71614285D01*
X131576190Y-71566666D01*
X132147619Y-70947619D02*
X132052380Y-70995238D01*
X132004761Y-71090476D01*
X132004761Y-71947619D01*
X132909523Y-70995238D02*
X132814285Y-70947619D01*
X132623809Y-70947619D01*
X132528571Y-70995238D01*
X132480952Y-71090476D01*
X132480952Y-71471428D01*
X132528571Y-71566666D01*
X132623809Y-71614285D01*
X132814285Y-71614285D01*
X132909523Y-71566666D01*
X132957142Y-71471428D01*
X132957142Y-71376190D01*
X132480952Y-71280952D01*
X133147619Y-70852380D02*
X133909523Y-70852380D01*
X134052380Y-71614285D02*
X134290476Y-70947619D01*
X134528571Y-71614285D01*
X134861904Y-71852380D02*
X134909523Y-71900000D01*
X135004761Y-71947619D01*
X135242857Y-71947619D01*
X135338095Y-71900000D01*
X135385714Y-71852380D01*
X135433333Y-71757142D01*
X135433333Y-71661904D01*
X135385714Y-71519047D01*
X134814285Y-70947619D01*
X135433333Y-70947619D01*
X135861904Y-71042857D02*
X135909523Y-70995238D01*
X135861904Y-70947619D01*
X135814285Y-70995238D01*
X135861904Y-71042857D01*
X135861904Y-70947619D01*
X136766666Y-71614285D02*
X136766666Y-70947619D01*
X136528571Y-71995238D02*
X136290476Y-71280952D01*
X136909523Y-71280952D01*
D10*
X108500000Y-58138095D02*
X108461904Y-58042857D01*
X108461904Y-57900000D01*
X108500000Y-57757142D01*
X108576190Y-57661904D01*
X108652380Y-57614285D01*
X108804761Y-57566666D01*
X108919047Y-57566666D01*
X109071428Y-57614285D01*
X109147619Y-57661904D01*
X109223809Y-57757142D01*
X109261904Y-57900000D01*
X109261904Y-57995238D01*
X109223809Y-58138095D01*
X109185714Y-58185714D01*
X108919047Y-58185714D01*
X108919047Y-57995238D01*
X109261904Y-58614285D02*
X108461904Y-58614285D01*
X109261904Y-59185714D01*
X108461904Y-59185714D01*
X109261904Y-59661904D02*
X108461904Y-59661904D01*
X108461904Y-59900000D01*
X108500000Y-60042857D01*
X108576190Y-60138095D01*
X108652380Y-60185714D01*
X108804761Y-60233333D01*
X108919047Y-60233333D01*
X109071428Y-60185714D01*
X109147619Y-60138095D01*
X109223809Y-60042857D01*
X109261904Y-59900000D01*
X109261904Y-59661904D01*
X105861904Y-58109523D02*
X105861904Y-57633333D01*
X106242857Y-57585714D01*
X106204761Y-57633333D01*
X106166666Y-57728571D01*
X106166666Y-57966666D01*
X106204761Y-58061904D01*
X106242857Y-58109523D01*
X106319047Y-58157142D01*
X106509523Y-58157142D01*
X106585714Y-58109523D01*
X106623809Y-58061904D01*
X106661904Y-57966666D01*
X106661904Y-57728571D01*
X106623809Y-57633333D01*
X106585714Y-57585714D01*
X105861904Y-58442857D02*
X106661904Y-58776190D01*
X105861904Y-59109523D01*
M02*
