G04 #@! TF.GenerationSoftware,KiCad,Pcbnew,5.1.0-060a0da~80~ubuntu18.04.1*
G04 #@! TF.CreationDate,2019-05-13T00:27:14+02:00*
G04 #@! TF.ProjectId,m3_2x5_panel,6d335f32-7835-45f7-9061-6e656c2e6b69,rev?*
G04 #@! TF.SameCoordinates,Original*
G04 #@! TF.FileFunction,Legend,Bot*
G04 #@! TF.FilePolarity,Positive*
%FSLAX46Y46*%
G04 Gerber Fmt 4.6, Leading zero omitted, Abs format (unit mm)*
G04 Created by KiCad (PCBNEW 5.1.0-060a0da~80~ubuntu18.04.1) date 2019-05-13 00:27:14*
%MOMM*%
%LPD*%
G04 APERTURE LIST*
%ADD10C,0.300000*%
%ADD11C,0.120000*%
%ADD12C,0.150000*%
%ADD13C,0.500000*%
G04 APERTURE END LIST*
D10*
X187672000Y-151474571D02*
X187672000Y-149974571D01*
X187172000Y-151046000D01*
X186672000Y-149974571D01*
X186672000Y-151474571D01*
X186100571Y-149974571D02*
X185172000Y-149974571D01*
X185672000Y-150546000D01*
X185457714Y-150546000D01*
X185314857Y-150617428D01*
X185243428Y-150688857D01*
X185172000Y-150831714D01*
X185172000Y-151188857D01*
X185243428Y-151331714D01*
X185314857Y-151403142D01*
X185457714Y-151474571D01*
X185886285Y-151474571D01*
X186029142Y-151403142D01*
X186100571Y-151331714D01*
X184886285Y-151617428D02*
X183743428Y-151617428D01*
X183386285Y-151474571D02*
X183386285Y-150474571D01*
X183386285Y-150760285D02*
X183314857Y-150617428D01*
X183243428Y-150546000D01*
X183100571Y-150474571D01*
X182957714Y-150474571D01*
X181886285Y-151403142D02*
X182029142Y-151474571D01*
X182314857Y-151474571D01*
X182457714Y-151403142D01*
X182529142Y-151260285D01*
X182529142Y-150688857D01*
X182457714Y-150546000D01*
X182314857Y-150474571D01*
X182029142Y-150474571D01*
X181886285Y-150546000D01*
X181814857Y-150688857D01*
X181814857Y-150831714D01*
X182529142Y-150974571D01*
X181314857Y-150474571D02*
X180957714Y-151474571D01*
X180600571Y-150474571D01*
X179243428Y-151474571D02*
X180100571Y-151474571D01*
X179672000Y-151474571D02*
X179672000Y-149974571D01*
X179814857Y-150188857D01*
X179957714Y-150331714D01*
X180100571Y-150403142D01*
X178600571Y-151331714D02*
X178529142Y-151403142D01*
X178600571Y-151474571D01*
X178672000Y-151403142D01*
X178600571Y-151331714D01*
X178600571Y-151474571D01*
X177600571Y-149974571D02*
X177457714Y-149974571D01*
X177314857Y-150046000D01*
X177243428Y-150117428D01*
X177172000Y-150260285D01*
X177100571Y-150546000D01*
X177100571Y-150903142D01*
X177172000Y-151188857D01*
X177243428Y-151331714D01*
X177314857Y-151403142D01*
X177457714Y-151474571D01*
X177600571Y-151474571D01*
X177743428Y-151403142D01*
X177814857Y-151331714D01*
X177886285Y-151188857D01*
X177957714Y-150903142D01*
X177957714Y-150546000D01*
X177886285Y-150260285D01*
X177814857Y-150117428D01*
X177743428Y-150046000D01*
X177600571Y-149974571D01*
X127474000Y-151474571D02*
X127474000Y-149974571D01*
X126974000Y-151046000D01*
X126474000Y-149974571D01*
X126474000Y-151474571D01*
X125902571Y-149974571D02*
X124974000Y-149974571D01*
X125474000Y-150546000D01*
X125259714Y-150546000D01*
X125116857Y-150617428D01*
X125045428Y-150688857D01*
X124974000Y-150831714D01*
X124974000Y-151188857D01*
X125045428Y-151331714D01*
X125116857Y-151403142D01*
X125259714Y-151474571D01*
X125688285Y-151474571D01*
X125831142Y-151403142D01*
X125902571Y-151331714D01*
X124688285Y-151617428D02*
X123545428Y-151617428D01*
X123188285Y-151474571D02*
X123188285Y-150474571D01*
X123188285Y-150760285D02*
X123116857Y-150617428D01*
X123045428Y-150546000D01*
X122902571Y-150474571D01*
X122759714Y-150474571D01*
X121688285Y-151403142D02*
X121831142Y-151474571D01*
X122116857Y-151474571D01*
X122259714Y-151403142D01*
X122331142Y-151260285D01*
X122331142Y-150688857D01*
X122259714Y-150546000D01*
X122116857Y-150474571D01*
X121831142Y-150474571D01*
X121688285Y-150546000D01*
X121616857Y-150688857D01*
X121616857Y-150831714D01*
X122331142Y-150974571D01*
X121116857Y-150474571D02*
X120759714Y-151474571D01*
X120402571Y-150474571D01*
X119045428Y-151474571D02*
X119902571Y-151474571D01*
X119474000Y-151474571D02*
X119474000Y-149974571D01*
X119616857Y-150188857D01*
X119759714Y-150331714D01*
X119902571Y-150403142D01*
X118402571Y-151331714D02*
X118331142Y-151403142D01*
X118402571Y-151474571D01*
X118474000Y-151403142D01*
X118402571Y-151331714D01*
X118402571Y-151474571D01*
X117402571Y-149974571D02*
X117259714Y-149974571D01*
X117116857Y-150046000D01*
X117045428Y-150117428D01*
X116974000Y-150260285D01*
X116902571Y-150546000D01*
X116902571Y-150903142D01*
X116974000Y-151188857D01*
X117045428Y-151331714D01*
X117116857Y-151403142D01*
X117259714Y-151474571D01*
X117402571Y-151474571D01*
X117545428Y-151403142D01*
X117616857Y-151331714D01*
X117688285Y-151188857D01*
X117759714Y-150903142D01*
X117759714Y-150546000D01*
X117688285Y-150260285D01*
X117616857Y-150117428D01*
X117545428Y-150046000D01*
X117402571Y-149974571D01*
X187672000Y-129630571D02*
X187672000Y-128130571D01*
X187172000Y-129202000D01*
X186672000Y-128130571D01*
X186672000Y-129630571D01*
X186100571Y-128130571D02*
X185172000Y-128130571D01*
X185672000Y-128702000D01*
X185457714Y-128702000D01*
X185314857Y-128773428D01*
X185243428Y-128844857D01*
X185172000Y-128987714D01*
X185172000Y-129344857D01*
X185243428Y-129487714D01*
X185314857Y-129559142D01*
X185457714Y-129630571D01*
X185886285Y-129630571D01*
X186029142Y-129559142D01*
X186100571Y-129487714D01*
X184886285Y-129773428D02*
X183743428Y-129773428D01*
X183386285Y-129630571D02*
X183386285Y-128630571D01*
X183386285Y-128916285D02*
X183314857Y-128773428D01*
X183243428Y-128702000D01*
X183100571Y-128630571D01*
X182957714Y-128630571D01*
X181886285Y-129559142D02*
X182029142Y-129630571D01*
X182314857Y-129630571D01*
X182457714Y-129559142D01*
X182529142Y-129416285D01*
X182529142Y-128844857D01*
X182457714Y-128702000D01*
X182314857Y-128630571D01*
X182029142Y-128630571D01*
X181886285Y-128702000D01*
X181814857Y-128844857D01*
X181814857Y-128987714D01*
X182529142Y-129130571D01*
X181314857Y-128630571D02*
X180957714Y-129630571D01*
X180600571Y-128630571D01*
X179243428Y-129630571D02*
X180100571Y-129630571D01*
X179672000Y-129630571D02*
X179672000Y-128130571D01*
X179814857Y-128344857D01*
X179957714Y-128487714D01*
X180100571Y-128559142D01*
X178600571Y-129487714D02*
X178529142Y-129559142D01*
X178600571Y-129630571D01*
X178672000Y-129559142D01*
X178600571Y-129487714D01*
X178600571Y-129630571D01*
X177600571Y-128130571D02*
X177457714Y-128130571D01*
X177314857Y-128202000D01*
X177243428Y-128273428D01*
X177172000Y-128416285D01*
X177100571Y-128702000D01*
X177100571Y-129059142D01*
X177172000Y-129344857D01*
X177243428Y-129487714D01*
X177314857Y-129559142D01*
X177457714Y-129630571D01*
X177600571Y-129630571D01*
X177743428Y-129559142D01*
X177814857Y-129487714D01*
X177886285Y-129344857D01*
X177957714Y-129059142D01*
X177957714Y-128702000D01*
X177886285Y-128416285D01*
X177814857Y-128273428D01*
X177743428Y-128202000D01*
X177600571Y-128130571D01*
X127474000Y-129630571D02*
X127474000Y-128130571D01*
X126974000Y-129202000D01*
X126474000Y-128130571D01*
X126474000Y-129630571D01*
X125902571Y-128130571D02*
X124974000Y-128130571D01*
X125474000Y-128702000D01*
X125259714Y-128702000D01*
X125116857Y-128773428D01*
X125045428Y-128844857D01*
X124974000Y-128987714D01*
X124974000Y-129344857D01*
X125045428Y-129487714D01*
X125116857Y-129559142D01*
X125259714Y-129630571D01*
X125688285Y-129630571D01*
X125831142Y-129559142D01*
X125902571Y-129487714D01*
X124688285Y-129773428D02*
X123545428Y-129773428D01*
X123188285Y-129630571D02*
X123188285Y-128630571D01*
X123188285Y-128916285D02*
X123116857Y-128773428D01*
X123045428Y-128702000D01*
X122902571Y-128630571D01*
X122759714Y-128630571D01*
X121688285Y-129559142D02*
X121831142Y-129630571D01*
X122116857Y-129630571D01*
X122259714Y-129559142D01*
X122331142Y-129416285D01*
X122331142Y-128844857D01*
X122259714Y-128702000D01*
X122116857Y-128630571D01*
X121831142Y-128630571D01*
X121688285Y-128702000D01*
X121616857Y-128844857D01*
X121616857Y-128987714D01*
X122331142Y-129130571D01*
X121116857Y-128630571D02*
X120759714Y-129630571D01*
X120402571Y-128630571D01*
X119045428Y-129630571D02*
X119902571Y-129630571D01*
X119474000Y-129630571D02*
X119474000Y-128130571D01*
X119616857Y-128344857D01*
X119759714Y-128487714D01*
X119902571Y-128559142D01*
X118402571Y-129487714D02*
X118331142Y-129559142D01*
X118402571Y-129630571D01*
X118474000Y-129559142D01*
X118402571Y-129487714D01*
X118402571Y-129630571D01*
X117402571Y-128130571D02*
X117259714Y-128130571D01*
X117116857Y-128202000D01*
X117045428Y-128273428D01*
X116974000Y-128416285D01*
X116902571Y-128702000D01*
X116902571Y-129059142D01*
X116974000Y-129344857D01*
X117045428Y-129487714D01*
X117116857Y-129559142D01*
X117259714Y-129630571D01*
X117402571Y-129630571D01*
X117545428Y-129559142D01*
X117616857Y-129487714D01*
X117688285Y-129344857D01*
X117759714Y-129059142D01*
X117759714Y-128702000D01*
X117688285Y-128416285D01*
X117616857Y-128273428D01*
X117545428Y-128202000D01*
X117402571Y-128130571D01*
X187672000Y-107786571D02*
X187672000Y-106286571D01*
X187172000Y-107358000D01*
X186672000Y-106286571D01*
X186672000Y-107786571D01*
X186100571Y-106286571D02*
X185172000Y-106286571D01*
X185672000Y-106858000D01*
X185457714Y-106858000D01*
X185314857Y-106929428D01*
X185243428Y-107000857D01*
X185172000Y-107143714D01*
X185172000Y-107500857D01*
X185243428Y-107643714D01*
X185314857Y-107715142D01*
X185457714Y-107786571D01*
X185886285Y-107786571D01*
X186029142Y-107715142D01*
X186100571Y-107643714D01*
X184886285Y-107929428D02*
X183743428Y-107929428D01*
X183386285Y-107786571D02*
X183386285Y-106786571D01*
X183386285Y-107072285D02*
X183314857Y-106929428D01*
X183243428Y-106858000D01*
X183100571Y-106786571D01*
X182957714Y-106786571D01*
X181886285Y-107715142D02*
X182029142Y-107786571D01*
X182314857Y-107786571D01*
X182457714Y-107715142D01*
X182529142Y-107572285D01*
X182529142Y-107000857D01*
X182457714Y-106858000D01*
X182314857Y-106786571D01*
X182029142Y-106786571D01*
X181886285Y-106858000D01*
X181814857Y-107000857D01*
X181814857Y-107143714D01*
X182529142Y-107286571D01*
X181314857Y-106786571D02*
X180957714Y-107786571D01*
X180600571Y-106786571D01*
X179243428Y-107786571D02*
X180100571Y-107786571D01*
X179672000Y-107786571D02*
X179672000Y-106286571D01*
X179814857Y-106500857D01*
X179957714Y-106643714D01*
X180100571Y-106715142D01*
X178600571Y-107643714D02*
X178529142Y-107715142D01*
X178600571Y-107786571D01*
X178672000Y-107715142D01*
X178600571Y-107643714D01*
X178600571Y-107786571D01*
X177600571Y-106286571D02*
X177457714Y-106286571D01*
X177314857Y-106358000D01*
X177243428Y-106429428D01*
X177172000Y-106572285D01*
X177100571Y-106858000D01*
X177100571Y-107215142D01*
X177172000Y-107500857D01*
X177243428Y-107643714D01*
X177314857Y-107715142D01*
X177457714Y-107786571D01*
X177600571Y-107786571D01*
X177743428Y-107715142D01*
X177814857Y-107643714D01*
X177886285Y-107500857D01*
X177957714Y-107215142D01*
X177957714Y-106858000D01*
X177886285Y-106572285D01*
X177814857Y-106429428D01*
X177743428Y-106358000D01*
X177600571Y-106286571D01*
X127474000Y-107786571D02*
X127474000Y-106286571D01*
X126974000Y-107358000D01*
X126474000Y-106286571D01*
X126474000Y-107786571D01*
X125902571Y-106286571D02*
X124974000Y-106286571D01*
X125474000Y-106858000D01*
X125259714Y-106858000D01*
X125116857Y-106929428D01*
X125045428Y-107000857D01*
X124974000Y-107143714D01*
X124974000Y-107500857D01*
X125045428Y-107643714D01*
X125116857Y-107715142D01*
X125259714Y-107786571D01*
X125688285Y-107786571D01*
X125831142Y-107715142D01*
X125902571Y-107643714D01*
X124688285Y-107929428D02*
X123545428Y-107929428D01*
X123188285Y-107786571D02*
X123188285Y-106786571D01*
X123188285Y-107072285D02*
X123116857Y-106929428D01*
X123045428Y-106858000D01*
X122902571Y-106786571D01*
X122759714Y-106786571D01*
X121688285Y-107715142D02*
X121831142Y-107786571D01*
X122116857Y-107786571D01*
X122259714Y-107715142D01*
X122331142Y-107572285D01*
X122331142Y-107000857D01*
X122259714Y-106858000D01*
X122116857Y-106786571D01*
X121831142Y-106786571D01*
X121688285Y-106858000D01*
X121616857Y-107000857D01*
X121616857Y-107143714D01*
X122331142Y-107286571D01*
X121116857Y-106786571D02*
X120759714Y-107786571D01*
X120402571Y-106786571D01*
X119045428Y-107786571D02*
X119902571Y-107786571D01*
X119474000Y-107786571D02*
X119474000Y-106286571D01*
X119616857Y-106500857D01*
X119759714Y-106643714D01*
X119902571Y-106715142D01*
X118402571Y-107643714D02*
X118331142Y-107715142D01*
X118402571Y-107786571D01*
X118474000Y-107715142D01*
X118402571Y-107643714D01*
X118402571Y-107786571D01*
X117402571Y-106286571D02*
X117259714Y-106286571D01*
X117116857Y-106358000D01*
X117045428Y-106429428D01*
X116974000Y-106572285D01*
X116902571Y-106858000D01*
X116902571Y-107215142D01*
X116974000Y-107500857D01*
X117045428Y-107643714D01*
X117116857Y-107715142D01*
X117259714Y-107786571D01*
X117402571Y-107786571D01*
X117545428Y-107715142D01*
X117616857Y-107643714D01*
X117688285Y-107500857D01*
X117759714Y-107215142D01*
X117759714Y-106858000D01*
X117688285Y-106572285D01*
X117616857Y-106429428D01*
X117545428Y-106358000D01*
X117402571Y-106286571D01*
X187672000Y-85942571D02*
X187672000Y-84442571D01*
X187172000Y-85514000D01*
X186672000Y-84442571D01*
X186672000Y-85942571D01*
X186100571Y-84442571D02*
X185172000Y-84442571D01*
X185672000Y-85014000D01*
X185457714Y-85014000D01*
X185314857Y-85085428D01*
X185243428Y-85156857D01*
X185172000Y-85299714D01*
X185172000Y-85656857D01*
X185243428Y-85799714D01*
X185314857Y-85871142D01*
X185457714Y-85942571D01*
X185886285Y-85942571D01*
X186029142Y-85871142D01*
X186100571Y-85799714D01*
X184886285Y-86085428D02*
X183743428Y-86085428D01*
X183386285Y-85942571D02*
X183386285Y-84942571D01*
X183386285Y-85228285D02*
X183314857Y-85085428D01*
X183243428Y-85014000D01*
X183100571Y-84942571D01*
X182957714Y-84942571D01*
X181886285Y-85871142D02*
X182029142Y-85942571D01*
X182314857Y-85942571D01*
X182457714Y-85871142D01*
X182529142Y-85728285D01*
X182529142Y-85156857D01*
X182457714Y-85014000D01*
X182314857Y-84942571D01*
X182029142Y-84942571D01*
X181886285Y-85014000D01*
X181814857Y-85156857D01*
X181814857Y-85299714D01*
X182529142Y-85442571D01*
X181314857Y-84942571D02*
X180957714Y-85942571D01*
X180600571Y-84942571D01*
X179243428Y-85942571D02*
X180100571Y-85942571D01*
X179672000Y-85942571D02*
X179672000Y-84442571D01*
X179814857Y-84656857D01*
X179957714Y-84799714D01*
X180100571Y-84871142D01*
X178600571Y-85799714D02*
X178529142Y-85871142D01*
X178600571Y-85942571D01*
X178672000Y-85871142D01*
X178600571Y-85799714D01*
X178600571Y-85942571D01*
X177600571Y-84442571D02*
X177457714Y-84442571D01*
X177314857Y-84514000D01*
X177243428Y-84585428D01*
X177172000Y-84728285D01*
X177100571Y-85014000D01*
X177100571Y-85371142D01*
X177172000Y-85656857D01*
X177243428Y-85799714D01*
X177314857Y-85871142D01*
X177457714Y-85942571D01*
X177600571Y-85942571D01*
X177743428Y-85871142D01*
X177814857Y-85799714D01*
X177886285Y-85656857D01*
X177957714Y-85371142D01*
X177957714Y-85014000D01*
X177886285Y-84728285D01*
X177814857Y-84585428D01*
X177743428Y-84514000D01*
X177600571Y-84442571D01*
X127474000Y-85942571D02*
X127474000Y-84442571D01*
X126974000Y-85514000D01*
X126474000Y-84442571D01*
X126474000Y-85942571D01*
X125902571Y-84442571D02*
X124974000Y-84442571D01*
X125474000Y-85014000D01*
X125259714Y-85014000D01*
X125116857Y-85085428D01*
X125045428Y-85156857D01*
X124974000Y-85299714D01*
X124974000Y-85656857D01*
X125045428Y-85799714D01*
X125116857Y-85871142D01*
X125259714Y-85942571D01*
X125688285Y-85942571D01*
X125831142Y-85871142D01*
X125902571Y-85799714D01*
X124688285Y-86085428D02*
X123545428Y-86085428D01*
X123188285Y-85942571D02*
X123188285Y-84942571D01*
X123188285Y-85228285D02*
X123116857Y-85085428D01*
X123045428Y-85014000D01*
X122902571Y-84942571D01*
X122759714Y-84942571D01*
X121688285Y-85871142D02*
X121831142Y-85942571D01*
X122116857Y-85942571D01*
X122259714Y-85871142D01*
X122331142Y-85728285D01*
X122331142Y-85156857D01*
X122259714Y-85014000D01*
X122116857Y-84942571D01*
X121831142Y-84942571D01*
X121688285Y-85014000D01*
X121616857Y-85156857D01*
X121616857Y-85299714D01*
X122331142Y-85442571D01*
X121116857Y-84942571D02*
X120759714Y-85942571D01*
X120402571Y-84942571D01*
X119045428Y-85942571D02*
X119902571Y-85942571D01*
X119474000Y-85942571D02*
X119474000Y-84442571D01*
X119616857Y-84656857D01*
X119759714Y-84799714D01*
X119902571Y-84871142D01*
X118402571Y-85799714D02*
X118331142Y-85871142D01*
X118402571Y-85942571D01*
X118474000Y-85871142D01*
X118402571Y-85799714D01*
X118402571Y-85942571D01*
X117402571Y-84442571D02*
X117259714Y-84442571D01*
X117116857Y-84514000D01*
X117045428Y-84585428D01*
X116974000Y-84728285D01*
X116902571Y-85014000D01*
X116902571Y-85371142D01*
X116974000Y-85656857D01*
X117045428Y-85799714D01*
X117116857Y-85871142D01*
X117259714Y-85942571D01*
X117402571Y-85942571D01*
X117545428Y-85871142D01*
X117616857Y-85799714D01*
X117688285Y-85656857D01*
X117759714Y-85371142D01*
X117759714Y-85014000D01*
X117688285Y-84728285D01*
X117616857Y-84585428D01*
X117545428Y-84514000D01*
X117402571Y-84442571D01*
X187672000Y-64098571D02*
X187672000Y-62598571D01*
X187172000Y-63670000D01*
X186672000Y-62598571D01*
X186672000Y-64098571D01*
X186100571Y-62598571D02*
X185172000Y-62598571D01*
X185672000Y-63170000D01*
X185457714Y-63170000D01*
X185314857Y-63241428D01*
X185243428Y-63312857D01*
X185172000Y-63455714D01*
X185172000Y-63812857D01*
X185243428Y-63955714D01*
X185314857Y-64027142D01*
X185457714Y-64098571D01*
X185886285Y-64098571D01*
X186029142Y-64027142D01*
X186100571Y-63955714D01*
X184886285Y-64241428D02*
X183743428Y-64241428D01*
X183386285Y-64098571D02*
X183386285Y-63098571D01*
X183386285Y-63384285D02*
X183314857Y-63241428D01*
X183243428Y-63170000D01*
X183100571Y-63098571D01*
X182957714Y-63098571D01*
X181886285Y-64027142D02*
X182029142Y-64098571D01*
X182314857Y-64098571D01*
X182457714Y-64027142D01*
X182529142Y-63884285D01*
X182529142Y-63312857D01*
X182457714Y-63170000D01*
X182314857Y-63098571D01*
X182029142Y-63098571D01*
X181886285Y-63170000D01*
X181814857Y-63312857D01*
X181814857Y-63455714D01*
X182529142Y-63598571D01*
X181314857Y-63098571D02*
X180957714Y-64098571D01*
X180600571Y-63098571D01*
X179243428Y-64098571D02*
X180100571Y-64098571D01*
X179672000Y-64098571D02*
X179672000Y-62598571D01*
X179814857Y-62812857D01*
X179957714Y-62955714D01*
X180100571Y-63027142D01*
X178600571Y-63955714D02*
X178529142Y-64027142D01*
X178600571Y-64098571D01*
X178672000Y-64027142D01*
X178600571Y-63955714D01*
X178600571Y-64098571D01*
X177600571Y-62598571D02*
X177457714Y-62598571D01*
X177314857Y-62670000D01*
X177243428Y-62741428D01*
X177172000Y-62884285D01*
X177100571Y-63170000D01*
X177100571Y-63527142D01*
X177172000Y-63812857D01*
X177243428Y-63955714D01*
X177314857Y-64027142D01*
X177457714Y-64098571D01*
X177600571Y-64098571D01*
X177743428Y-64027142D01*
X177814857Y-63955714D01*
X177886285Y-63812857D01*
X177957714Y-63527142D01*
X177957714Y-63170000D01*
X177886285Y-62884285D01*
X177814857Y-62741428D01*
X177743428Y-62670000D01*
X177600571Y-62598571D01*
X127474000Y-64098571D02*
X127474000Y-62598571D01*
X126974000Y-63670000D01*
X126474000Y-62598571D01*
X126474000Y-64098571D01*
X125902571Y-62598571D02*
X124974000Y-62598571D01*
X125474000Y-63170000D01*
X125259714Y-63170000D01*
X125116857Y-63241428D01*
X125045428Y-63312857D01*
X124974000Y-63455714D01*
X124974000Y-63812857D01*
X125045428Y-63955714D01*
X125116857Y-64027142D01*
X125259714Y-64098571D01*
X125688285Y-64098571D01*
X125831142Y-64027142D01*
X125902571Y-63955714D01*
X124688285Y-64241428D02*
X123545428Y-64241428D01*
X123188285Y-64098571D02*
X123188285Y-63098571D01*
X123188285Y-63384285D02*
X123116857Y-63241428D01*
X123045428Y-63170000D01*
X122902571Y-63098571D01*
X122759714Y-63098571D01*
X121688285Y-64027142D02*
X121831142Y-64098571D01*
X122116857Y-64098571D01*
X122259714Y-64027142D01*
X122331142Y-63884285D01*
X122331142Y-63312857D01*
X122259714Y-63170000D01*
X122116857Y-63098571D01*
X121831142Y-63098571D01*
X121688285Y-63170000D01*
X121616857Y-63312857D01*
X121616857Y-63455714D01*
X122331142Y-63598571D01*
X121116857Y-63098571D02*
X120759714Y-64098571D01*
X120402571Y-63098571D01*
X119045428Y-64098571D02*
X119902571Y-64098571D01*
X119474000Y-64098571D02*
X119474000Y-62598571D01*
X119616857Y-62812857D01*
X119759714Y-62955714D01*
X119902571Y-63027142D01*
X118402571Y-63955714D02*
X118331142Y-64027142D01*
X118402571Y-64098571D01*
X118474000Y-64027142D01*
X118402571Y-63955714D01*
X118402571Y-64098571D01*
X117402571Y-62598571D02*
X117259714Y-62598571D01*
X117116857Y-62670000D01*
X117045428Y-62741428D01*
X116974000Y-62884285D01*
X116902571Y-63170000D01*
X116902571Y-63527142D01*
X116974000Y-63812857D01*
X117045428Y-63955714D01*
X117116857Y-64027142D01*
X117259714Y-64098571D01*
X117402571Y-64098571D01*
X117545428Y-64027142D01*
X117616857Y-63955714D01*
X117688285Y-63812857D01*
X117759714Y-63527142D01*
X117759714Y-63170000D01*
X117688285Y-62884285D01*
X117616857Y-62741428D01*
X117545428Y-62670000D01*
X117402571Y-62598571D01*
D11*
X159128000Y-136306000D02*
X159128000Y-134976000D01*
X157798000Y-136306000D02*
X159128000Y-136306000D01*
X156528000Y-136306000D02*
X156528000Y-133646000D01*
X156528000Y-133646000D02*
X148848000Y-133646000D01*
X156528000Y-136306000D02*
X148848000Y-136306000D01*
X148848000Y-136306000D02*
X148848000Y-133646000D01*
X98930000Y-136306000D02*
X98930000Y-134976000D01*
X97600000Y-136306000D02*
X98930000Y-136306000D01*
X96330000Y-136306000D02*
X96330000Y-133646000D01*
X96330000Y-133646000D02*
X88650000Y-133646000D01*
X96330000Y-136306000D02*
X88650000Y-136306000D01*
X88650000Y-136306000D02*
X88650000Y-133646000D01*
X159128000Y-114462000D02*
X159128000Y-113132000D01*
X157798000Y-114462000D02*
X159128000Y-114462000D01*
X156528000Y-114462000D02*
X156528000Y-111802000D01*
X156528000Y-111802000D02*
X148848000Y-111802000D01*
X156528000Y-114462000D02*
X148848000Y-114462000D01*
X148848000Y-114462000D02*
X148848000Y-111802000D01*
X98930000Y-114462000D02*
X98930000Y-113132000D01*
X97600000Y-114462000D02*
X98930000Y-114462000D01*
X96330000Y-114462000D02*
X96330000Y-111802000D01*
X96330000Y-111802000D02*
X88650000Y-111802000D01*
X96330000Y-114462000D02*
X88650000Y-114462000D01*
X88650000Y-114462000D02*
X88650000Y-111802000D01*
X159128000Y-92618000D02*
X159128000Y-91288000D01*
X157798000Y-92618000D02*
X159128000Y-92618000D01*
X156528000Y-92618000D02*
X156528000Y-89958000D01*
X156528000Y-89958000D02*
X148848000Y-89958000D01*
X156528000Y-92618000D02*
X148848000Y-92618000D01*
X148848000Y-92618000D02*
X148848000Y-89958000D01*
X98930000Y-92618000D02*
X98930000Y-91288000D01*
X97600000Y-92618000D02*
X98930000Y-92618000D01*
X96330000Y-92618000D02*
X96330000Y-89958000D01*
X96330000Y-89958000D02*
X88650000Y-89958000D01*
X96330000Y-92618000D02*
X88650000Y-92618000D01*
X88650000Y-92618000D02*
X88650000Y-89958000D01*
X159128000Y-70774000D02*
X159128000Y-69444000D01*
X157798000Y-70774000D02*
X159128000Y-70774000D01*
X156528000Y-70774000D02*
X156528000Y-68114000D01*
X156528000Y-68114000D02*
X148848000Y-68114000D01*
X156528000Y-70774000D02*
X148848000Y-70774000D01*
X148848000Y-70774000D02*
X148848000Y-68114000D01*
X98930000Y-70774000D02*
X98930000Y-69444000D01*
X97600000Y-70774000D02*
X98930000Y-70774000D01*
X96330000Y-70774000D02*
X96330000Y-68114000D01*
X96330000Y-68114000D02*
X88650000Y-68114000D01*
X96330000Y-70774000D02*
X88650000Y-70774000D01*
X88650000Y-70774000D02*
X88650000Y-68114000D01*
X159128000Y-48930000D02*
X159128000Y-47600000D01*
X157798000Y-48930000D02*
X159128000Y-48930000D01*
X156528000Y-48930000D02*
X156528000Y-46270000D01*
X156528000Y-46270000D02*
X148848000Y-46270000D01*
X156528000Y-48930000D02*
X148848000Y-48930000D01*
X148848000Y-48930000D02*
X148848000Y-46270000D01*
X144048000Y-143726000D02*
X144798000Y-144476000D01*
X144798000Y-142976000D02*
X144048000Y-143726000D01*
X144048000Y-142226000D02*
X144048000Y-145226000D01*
X164048000Y-143726000D02*
X163298000Y-144476000D01*
X163298000Y-142976000D02*
X164048000Y-143726000D01*
X164048000Y-142226000D02*
X164048000Y-145226000D01*
X164048000Y-143726000D02*
X144048000Y-143726000D01*
X172223000Y-142476000D02*
X171723000Y-141976000D01*
X172223000Y-141476000D02*
X172223000Y-142476000D01*
X171723000Y-141976000D02*
X172223000Y-141476000D01*
X136428000Y-142432000D02*
X136428000Y-148346000D01*
X136428000Y-139106000D02*
X136428000Y-141520000D01*
X171668000Y-145932000D02*
X171668000Y-148346000D01*
X171668000Y-143151000D02*
X171668000Y-145021000D01*
X171668000Y-139106000D02*
X171668000Y-140801000D01*
X139812000Y-148346000D02*
X136428000Y-148346000D01*
X165012000Y-148346000D02*
X143083000Y-148346000D01*
X171668000Y-148346000D02*
X168283000Y-148346000D01*
X141012000Y-139106000D02*
X136428000Y-139106000D01*
X163812000Y-139106000D02*
X144283000Y-139106000D01*
X171668000Y-139106000D02*
X167083000Y-139106000D01*
X83850000Y-143726000D02*
X84600000Y-144476000D01*
X84600000Y-142976000D02*
X83850000Y-143726000D01*
X83850000Y-142226000D02*
X83850000Y-145226000D01*
X103850000Y-143726000D02*
X103100000Y-144476000D01*
X103100000Y-142976000D02*
X103850000Y-143726000D01*
X103850000Y-142226000D02*
X103850000Y-145226000D01*
X103850000Y-143726000D02*
X83850000Y-143726000D01*
X112025000Y-142476000D02*
X111525000Y-141976000D01*
X112025000Y-141476000D02*
X112025000Y-142476000D01*
X111525000Y-141976000D02*
X112025000Y-141476000D01*
X76230000Y-142432000D02*
X76230000Y-148346000D01*
X76230000Y-139106000D02*
X76230000Y-141520000D01*
X111470000Y-145932000D02*
X111470000Y-148346000D01*
X111470000Y-143151000D02*
X111470000Y-145021000D01*
X111470000Y-139106000D02*
X111470000Y-140801000D01*
X79614000Y-148346000D02*
X76230000Y-148346000D01*
X104814000Y-148346000D02*
X82885000Y-148346000D01*
X111470000Y-148346000D02*
X108085000Y-148346000D01*
X80814000Y-139106000D02*
X76230000Y-139106000D01*
X103614000Y-139106000D02*
X84085000Y-139106000D01*
X111470000Y-139106000D02*
X106885000Y-139106000D01*
X144048000Y-121882000D02*
X144798000Y-122632000D01*
X144798000Y-121132000D02*
X144048000Y-121882000D01*
X144048000Y-120382000D02*
X144048000Y-123382000D01*
X164048000Y-121882000D02*
X163298000Y-122632000D01*
X163298000Y-121132000D02*
X164048000Y-121882000D01*
X164048000Y-120382000D02*
X164048000Y-123382000D01*
X164048000Y-121882000D02*
X144048000Y-121882000D01*
X172223000Y-120632000D02*
X171723000Y-120132000D01*
X172223000Y-119632000D02*
X172223000Y-120632000D01*
X171723000Y-120132000D02*
X172223000Y-119632000D01*
X136428000Y-120588000D02*
X136428000Y-126502000D01*
X136428000Y-117262000D02*
X136428000Y-119676000D01*
X171668000Y-124088000D02*
X171668000Y-126502000D01*
X171668000Y-121307000D02*
X171668000Y-123177000D01*
X171668000Y-117262000D02*
X171668000Y-118957000D01*
X139812000Y-126502000D02*
X136428000Y-126502000D01*
X165012000Y-126502000D02*
X143083000Y-126502000D01*
X171668000Y-126502000D02*
X168283000Y-126502000D01*
X141012000Y-117262000D02*
X136428000Y-117262000D01*
X163812000Y-117262000D02*
X144283000Y-117262000D01*
X171668000Y-117262000D02*
X167083000Y-117262000D01*
X83850000Y-121882000D02*
X84600000Y-122632000D01*
X84600000Y-121132000D02*
X83850000Y-121882000D01*
X83850000Y-120382000D02*
X83850000Y-123382000D01*
X103850000Y-121882000D02*
X103100000Y-122632000D01*
X103100000Y-121132000D02*
X103850000Y-121882000D01*
X103850000Y-120382000D02*
X103850000Y-123382000D01*
X103850000Y-121882000D02*
X83850000Y-121882000D01*
X112025000Y-120632000D02*
X111525000Y-120132000D01*
X112025000Y-119632000D02*
X112025000Y-120632000D01*
X111525000Y-120132000D02*
X112025000Y-119632000D01*
X76230000Y-120588000D02*
X76230000Y-126502000D01*
X76230000Y-117262000D02*
X76230000Y-119676000D01*
X111470000Y-124088000D02*
X111470000Y-126502000D01*
X111470000Y-121307000D02*
X111470000Y-123177000D01*
X111470000Y-117262000D02*
X111470000Y-118957000D01*
X79614000Y-126502000D02*
X76230000Y-126502000D01*
X104814000Y-126502000D02*
X82885000Y-126502000D01*
X111470000Y-126502000D02*
X108085000Y-126502000D01*
X80814000Y-117262000D02*
X76230000Y-117262000D01*
X103614000Y-117262000D02*
X84085000Y-117262000D01*
X111470000Y-117262000D02*
X106885000Y-117262000D01*
X144048000Y-100038000D02*
X144798000Y-100788000D01*
X144798000Y-99288000D02*
X144048000Y-100038000D01*
X144048000Y-98538000D02*
X144048000Y-101538000D01*
X164048000Y-100038000D02*
X163298000Y-100788000D01*
X163298000Y-99288000D02*
X164048000Y-100038000D01*
X164048000Y-98538000D02*
X164048000Y-101538000D01*
X164048000Y-100038000D02*
X144048000Y-100038000D01*
X172223000Y-98788000D02*
X171723000Y-98288000D01*
X172223000Y-97788000D02*
X172223000Y-98788000D01*
X171723000Y-98288000D02*
X172223000Y-97788000D01*
X136428000Y-98744000D02*
X136428000Y-104658000D01*
X136428000Y-95418000D02*
X136428000Y-97832000D01*
X171668000Y-102244000D02*
X171668000Y-104658000D01*
X171668000Y-99463000D02*
X171668000Y-101333000D01*
X171668000Y-95418000D02*
X171668000Y-97113000D01*
X139812000Y-104658000D02*
X136428000Y-104658000D01*
X165012000Y-104658000D02*
X143083000Y-104658000D01*
X171668000Y-104658000D02*
X168283000Y-104658000D01*
X141012000Y-95418000D02*
X136428000Y-95418000D01*
X163812000Y-95418000D02*
X144283000Y-95418000D01*
X171668000Y-95418000D02*
X167083000Y-95418000D01*
X83850000Y-100038000D02*
X84600000Y-100788000D01*
X84600000Y-99288000D02*
X83850000Y-100038000D01*
X83850000Y-98538000D02*
X83850000Y-101538000D01*
X103850000Y-100038000D02*
X103100000Y-100788000D01*
X103100000Y-99288000D02*
X103850000Y-100038000D01*
X103850000Y-98538000D02*
X103850000Y-101538000D01*
X103850000Y-100038000D02*
X83850000Y-100038000D01*
X112025000Y-98788000D02*
X111525000Y-98288000D01*
X112025000Y-97788000D02*
X112025000Y-98788000D01*
X111525000Y-98288000D02*
X112025000Y-97788000D01*
X76230000Y-98744000D02*
X76230000Y-104658000D01*
X76230000Y-95418000D02*
X76230000Y-97832000D01*
X111470000Y-102244000D02*
X111470000Y-104658000D01*
X111470000Y-99463000D02*
X111470000Y-101333000D01*
X111470000Y-95418000D02*
X111470000Y-97113000D01*
X79614000Y-104658000D02*
X76230000Y-104658000D01*
X104814000Y-104658000D02*
X82885000Y-104658000D01*
X111470000Y-104658000D02*
X108085000Y-104658000D01*
X80814000Y-95418000D02*
X76230000Y-95418000D01*
X103614000Y-95418000D02*
X84085000Y-95418000D01*
X111470000Y-95418000D02*
X106885000Y-95418000D01*
X144048000Y-78194000D02*
X144798000Y-78944000D01*
X144798000Y-77444000D02*
X144048000Y-78194000D01*
X144048000Y-76694000D02*
X144048000Y-79694000D01*
X164048000Y-78194000D02*
X163298000Y-78944000D01*
X163298000Y-77444000D02*
X164048000Y-78194000D01*
X164048000Y-76694000D02*
X164048000Y-79694000D01*
X164048000Y-78194000D02*
X144048000Y-78194000D01*
X172223000Y-76944000D02*
X171723000Y-76444000D01*
X172223000Y-75944000D02*
X172223000Y-76944000D01*
X171723000Y-76444000D02*
X172223000Y-75944000D01*
X136428000Y-76900000D02*
X136428000Y-82814000D01*
X136428000Y-73574000D02*
X136428000Y-75988000D01*
X171668000Y-80400000D02*
X171668000Y-82814000D01*
X171668000Y-77619000D02*
X171668000Y-79489000D01*
X171668000Y-73574000D02*
X171668000Y-75269000D01*
X139812000Y-82814000D02*
X136428000Y-82814000D01*
X165012000Y-82814000D02*
X143083000Y-82814000D01*
X171668000Y-82814000D02*
X168283000Y-82814000D01*
X141012000Y-73574000D02*
X136428000Y-73574000D01*
X163812000Y-73574000D02*
X144283000Y-73574000D01*
X171668000Y-73574000D02*
X167083000Y-73574000D01*
X83850000Y-78194000D02*
X84600000Y-78944000D01*
X84600000Y-77444000D02*
X83850000Y-78194000D01*
X83850000Y-76694000D02*
X83850000Y-79694000D01*
X103850000Y-78194000D02*
X103100000Y-78944000D01*
X103100000Y-77444000D02*
X103850000Y-78194000D01*
X103850000Y-76694000D02*
X103850000Y-79694000D01*
X103850000Y-78194000D02*
X83850000Y-78194000D01*
X112025000Y-76944000D02*
X111525000Y-76444000D01*
X112025000Y-75944000D02*
X112025000Y-76944000D01*
X111525000Y-76444000D02*
X112025000Y-75944000D01*
X76230000Y-76900000D02*
X76230000Y-82814000D01*
X76230000Y-73574000D02*
X76230000Y-75988000D01*
X111470000Y-80400000D02*
X111470000Y-82814000D01*
X111470000Y-77619000D02*
X111470000Y-79489000D01*
X111470000Y-73574000D02*
X111470000Y-75269000D01*
X79614000Y-82814000D02*
X76230000Y-82814000D01*
X104814000Y-82814000D02*
X82885000Y-82814000D01*
X111470000Y-82814000D02*
X108085000Y-82814000D01*
X80814000Y-73574000D02*
X76230000Y-73574000D01*
X103614000Y-73574000D02*
X84085000Y-73574000D01*
X111470000Y-73574000D02*
X106885000Y-73574000D01*
X144048000Y-56350000D02*
X144798000Y-57100000D01*
X144798000Y-55600000D02*
X144048000Y-56350000D01*
X144048000Y-54850000D02*
X144048000Y-57850000D01*
X164048000Y-56350000D02*
X163298000Y-57100000D01*
X163298000Y-55600000D02*
X164048000Y-56350000D01*
X164048000Y-54850000D02*
X164048000Y-57850000D01*
X164048000Y-56350000D02*
X144048000Y-56350000D01*
X172223000Y-55100000D02*
X171723000Y-54600000D01*
X172223000Y-54100000D02*
X172223000Y-55100000D01*
X171723000Y-54600000D02*
X172223000Y-54100000D01*
X136428000Y-55056000D02*
X136428000Y-60970000D01*
X136428000Y-51730000D02*
X136428000Y-54144000D01*
X171668000Y-58556000D02*
X171668000Y-60970000D01*
X171668000Y-55775000D02*
X171668000Y-57645000D01*
X171668000Y-51730000D02*
X171668000Y-53425000D01*
X139812000Y-60970000D02*
X136428000Y-60970000D01*
X165012000Y-60970000D02*
X143083000Y-60970000D01*
X171668000Y-60970000D02*
X168283000Y-60970000D01*
X141012000Y-51730000D02*
X136428000Y-51730000D01*
X163812000Y-51730000D02*
X144283000Y-51730000D01*
X171668000Y-51730000D02*
X167083000Y-51730000D01*
D12*
X199894000Y-134782000D02*
X199894000Y-152782000D01*
X174394000Y-134782000D02*
X174394000Y-152782000D01*
X199894000Y-134782000D02*
X174394000Y-134782000D01*
X199894000Y-152782000D02*
X174394000Y-152782000D01*
X193894000Y-134782000D02*
X193894000Y-152782000D01*
D13*
X194031981Y-153688000D02*
G75*
G03X194031981Y-153688000I-283981J0D01*
G01*
D12*
X139696000Y-134782000D02*
X139696000Y-152782000D01*
X114196000Y-134782000D02*
X114196000Y-152782000D01*
X139696000Y-134782000D02*
X114196000Y-134782000D01*
X139696000Y-152782000D02*
X114196000Y-152782000D01*
X133696000Y-134782000D02*
X133696000Y-152782000D01*
D13*
X133833981Y-153688000D02*
G75*
G03X133833981Y-153688000I-283981J0D01*
G01*
D12*
X199894000Y-112938000D02*
X199894000Y-130938000D01*
X174394000Y-112938000D02*
X174394000Y-130938000D01*
X199894000Y-112938000D02*
X174394000Y-112938000D01*
X199894000Y-130938000D02*
X174394000Y-130938000D01*
X193894000Y-112938000D02*
X193894000Y-130938000D01*
D13*
X194031981Y-131844000D02*
G75*
G03X194031981Y-131844000I-283981J0D01*
G01*
D12*
X139696000Y-112938000D02*
X139696000Y-130938000D01*
X114196000Y-112938000D02*
X114196000Y-130938000D01*
X139696000Y-112938000D02*
X114196000Y-112938000D01*
X139696000Y-130938000D02*
X114196000Y-130938000D01*
X133696000Y-112938000D02*
X133696000Y-130938000D01*
D13*
X133833981Y-131844000D02*
G75*
G03X133833981Y-131844000I-283981J0D01*
G01*
D12*
X199894000Y-91094000D02*
X199894000Y-109094000D01*
X174394000Y-91094000D02*
X174394000Y-109094000D01*
X199894000Y-91094000D02*
X174394000Y-91094000D01*
X199894000Y-109094000D02*
X174394000Y-109094000D01*
X193894000Y-91094000D02*
X193894000Y-109094000D01*
D13*
X194031981Y-110000000D02*
G75*
G03X194031981Y-110000000I-283981J0D01*
G01*
D12*
X139696000Y-91094000D02*
X139696000Y-109094000D01*
X114196000Y-91094000D02*
X114196000Y-109094000D01*
X139696000Y-91094000D02*
X114196000Y-91094000D01*
X139696000Y-109094000D02*
X114196000Y-109094000D01*
X133696000Y-91094000D02*
X133696000Y-109094000D01*
D13*
X133833981Y-110000000D02*
G75*
G03X133833981Y-110000000I-283981J0D01*
G01*
D12*
X199894000Y-69250000D02*
X199894000Y-87250000D01*
X174394000Y-69250000D02*
X174394000Y-87250000D01*
X199894000Y-69250000D02*
X174394000Y-69250000D01*
X199894000Y-87250000D02*
X174394000Y-87250000D01*
X193894000Y-69250000D02*
X193894000Y-87250000D01*
D13*
X194031981Y-88156000D02*
G75*
G03X194031981Y-88156000I-283981J0D01*
G01*
D12*
X139696000Y-69250000D02*
X139696000Y-87250000D01*
X114196000Y-69250000D02*
X114196000Y-87250000D01*
X139696000Y-69250000D02*
X114196000Y-69250000D01*
X139696000Y-87250000D02*
X114196000Y-87250000D01*
X133696000Y-69250000D02*
X133696000Y-87250000D01*
D13*
X133833981Y-88156000D02*
G75*
G03X133833981Y-88156000I-283981J0D01*
G01*
D12*
X199894000Y-47406000D02*
X199894000Y-65406000D01*
X174394000Y-47406000D02*
X174394000Y-65406000D01*
X199894000Y-47406000D02*
X174394000Y-47406000D01*
X199894000Y-65406000D02*
X174394000Y-65406000D01*
X193894000Y-47406000D02*
X193894000Y-65406000D01*
D13*
X194031981Y-66312000D02*
G75*
G03X194031981Y-66312000I-283981J0D01*
G01*
D11*
X111470000Y-51730000D02*
X106885000Y-51730000D01*
X103614000Y-51730000D02*
X84085000Y-51730000D01*
X80814000Y-51730000D02*
X76230000Y-51730000D01*
X111470000Y-60970000D02*
X108085000Y-60970000D01*
X104814000Y-60970000D02*
X82885000Y-60970000D01*
X79614000Y-60970000D02*
X76230000Y-60970000D01*
X111470000Y-51730000D02*
X111470000Y-53425000D01*
X111470000Y-55775000D02*
X111470000Y-57645000D01*
X111470000Y-58556000D02*
X111470000Y-60970000D01*
X76230000Y-51730000D02*
X76230000Y-54144000D01*
X76230000Y-55056000D02*
X76230000Y-60970000D01*
X111525000Y-54600000D02*
X112025000Y-54100000D01*
X112025000Y-54100000D02*
X112025000Y-55100000D01*
X112025000Y-55100000D02*
X111525000Y-54600000D01*
X103850000Y-56350000D02*
X83850000Y-56350000D01*
X103850000Y-54850000D02*
X103850000Y-57850000D01*
X103100000Y-55600000D02*
X103850000Y-56350000D01*
X103850000Y-56350000D02*
X103100000Y-57100000D01*
X83850000Y-54850000D02*
X83850000Y-57850000D01*
X84600000Y-55600000D02*
X83850000Y-56350000D01*
X83850000Y-56350000D02*
X84600000Y-57100000D01*
D13*
X133833981Y-66312000D02*
G75*
G03X133833981Y-66312000I-283981J0D01*
G01*
D12*
X133696000Y-47406000D02*
X133696000Y-65406000D01*
X139696000Y-65406000D02*
X114196000Y-65406000D01*
X139696000Y-47406000D02*
X114196000Y-47406000D01*
X114196000Y-47406000D02*
X114196000Y-65406000D01*
X139696000Y-47406000D02*
X139696000Y-65406000D01*
D11*
X88650000Y-48930000D02*
X88650000Y-46270000D01*
X96330000Y-48930000D02*
X88650000Y-48930000D01*
X96330000Y-46270000D02*
X88650000Y-46270000D01*
X96330000Y-48930000D02*
X96330000Y-46270000D01*
X97600000Y-48930000D02*
X98930000Y-48930000D01*
X98930000Y-48930000D02*
X98930000Y-47600000D01*
D12*
X154643238Y-138428380D02*
X154976571Y-137952190D01*
X155214666Y-138428380D02*
X155214666Y-137428380D01*
X154833714Y-137428380D01*
X154738476Y-137476000D01*
X154690857Y-137523619D01*
X154643238Y-137618857D01*
X154643238Y-137761714D01*
X154690857Y-137856952D01*
X154738476Y-137904571D01*
X154833714Y-137952190D01*
X155214666Y-137952190D01*
X154357523Y-137428380D02*
X154024190Y-138428380D01*
X153690857Y-137428380D01*
X152833714Y-138428380D02*
X153405142Y-138428380D01*
X153119428Y-138428380D02*
X153119428Y-137428380D01*
X153214666Y-137571238D01*
X153309904Y-137666476D01*
X153405142Y-137714095D01*
X94445238Y-138428380D02*
X94778571Y-137952190D01*
X95016666Y-138428380D02*
X95016666Y-137428380D01*
X94635714Y-137428380D01*
X94540476Y-137476000D01*
X94492857Y-137523619D01*
X94445238Y-137618857D01*
X94445238Y-137761714D01*
X94492857Y-137856952D01*
X94540476Y-137904571D01*
X94635714Y-137952190D01*
X95016666Y-137952190D01*
X94159523Y-137428380D02*
X93826190Y-138428380D01*
X93492857Y-137428380D01*
X92635714Y-138428380D02*
X93207142Y-138428380D01*
X92921428Y-138428380D02*
X92921428Y-137428380D01*
X93016666Y-137571238D01*
X93111904Y-137666476D01*
X93207142Y-137714095D01*
X154643238Y-116584380D02*
X154976571Y-116108190D01*
X155214666Y-116584380D02*
X155214666Y-115584380D01*
X154833714Y-115584380D01*
X154738476Y-115632000D01*
X154690857Y-115679619D01*
X154643238Y-115774857D01*
X154643238Y-115917714D01*
X154690857Y-116012952D01*
X154738476Y-116060571D01*
X154833714Y-116108190D01*
X155214666Y-116108190D01*
X154357523Y-115584380D02*
X154024190Y-116584380D01*
X153690857Y-115584380D01*
X152833714Y-116584380D02*
X153405142Y-116584380D01*
X153119428Y-116584380D02*
X153119428Y-115584380D01*
X153214666Y-115727238D01*
X153309904Y-115822476D01*
X153405142Y-115870095D01*
X94445238Y-116584380D02*
X94778571Y-116108190D01*
X95016666Y-116584380D02*
X95016666Y-115584380D01*
X94635714Y-115584380D01*
X94540476Y-115632000D01*
X94492857Y-115679619D01*
X94445238Y-115774857D01*
X94445238Y-115917714D01*
X94492857Y-116012952D01*
X94540476Y-116060571D01*
X94635714Y-116108190D01*
X95016666Y-116108190D01*
X94159523Y-115584380D02*
X93826190Y-116584380D01*
X93492857Y-115584380D01*
X92635714Y-116584380D02*
X93207142Y-116584380D01*
X92921428Y-116584380D02*
X92921428Y-115584380D01*
X93016666Y-115727238D01*
X93111904Y-115822476D01*
X93207142Y-115870095D01*
X154643238Y-94740380D02*
X154976571Y-94264190D01*
X155214666Y-94740380D02*
X155214666Y-93740380D01*
X154833714Y-93740380D01*
X154738476Y-93788000D01*
X154690857Y-93835619D01*
X154643238Y-93930857D01*
X154643238Y-94073714D01*
X154690857Y-94168952D01*
X154738476Y-94216571D01*
X154833714Y-94264190D01*
X155214666Y-94264190D01*
X154357523Y-93740380D02*
X154024190Y-94740380D01*
X153690857Y-93740380D01*
X152833714Y-94740380D02*
X153405142Y-94740380D01*
X153119428Y-94740380D02*
X153119428Y-93740380D01*
X153214666Y-93883238D01*
X153309904Y-93978476D01*
X153405142Y-94026095D01*
X94445238Y-94740380D02*
X94778571Y-94264190D01*
X95016666Y-94740380D02*
X95016666Y-93740380D01*
X94635714Y-93740380D01*
X94540476Y-93788000D01*
X94492857Y-93835619D01*
X94445238Y-93930857D01*
X94445238Y-94073714D01*
X94492857Y-94168952D01*
X94540476Y-94216571D01*
X94635714Y-94264190D01*
X95016666Y-94264190D01*
X94159523Y-93740380D02*
X93826190Y-94740380D01*
X93492857Y-93740380D01*
X92635714Y-94740380D02*
X93207142Y-94740380D01*
X92921428Y-94740380D02*
X92921428Y-93740380D01*
X93016666Y-93883238D01*
X93111904Y-93978476D01*
X93207142Y-94026095D01*
X154643238Y-72896380D02*
X154976571Y-72420190D01*
X155214666Y-72896380D02*
X155214666Y-71896380D01*
X154833714Y-71896380D01*
X154738476Y-71944000D01*
X154690857Y-71991619D01*
X154643238Y-72086857D01*
X154643238Y-72229714D01*
X154690857Y-72324952D01*
X154738476Y-72372571D01*
X154833714Y-72420190D01*
X155214666Y-72420190D01*
X154357523Y-71896380D02*
X154024190Y-72896380D01*
X153690857Y-71896380D01*
X152833714Y-72896380D02*
X153405142Y-72896380D01*
X153119428Y-72896380D02*
X153119428Y-71896380D01*
X153214666Y-72039238D01*
X153309904Y-72134476D01*
X153405142Y-72182095D01*
X94445238Y-72896380D02*
X94778571Y-72420190D01*
X95016666Y-72896380D02*
X95016666Y-71896380D01*
X94635714Y-71896380D01*
X94540476Y-71944000D01*
X94492857Y-71991619D01*
X94445238Y-72086857D01*
X94445238Y-72229714D01*
X94492857Y-72324952D01*
X94540476Y-72372571D01*
X94635714Y-72420190D01*
X95016666Y-72420190D01*
X94159523Y-71896380D02*
X93826190Y-72896380D01*
X93492857Y-71896380D01*
X92635714Y-72896380D02*
X93207142Y-72896380D01*
X92921428Y-72896380D02*
X92921428Y-71896380D01*
X93016666Y-72039238D01*
X93111904Y-72134476D01*
X93207142Y-72182095D01*
X154643238Y-51052380D02*
X154976571Y-50576190D01*
X155214666Y-51052380D02*
X155214666Y-50052380D01*
X154833714Y-50052380D01*
X154738476Y-50100000D01*
X154690857Y-50147619D01*
X154643238Y-50242857D01*
X154643238Y-50385714D01*
X154690857Y-50480952D01*
X154738476Y-50528571D01*
X154833714Y-50576190D01*
X155214666Y-50576190D01*
X154357523Y-50052380D02*
X154024190Y-51052380D01*
X153690857Y-50052380D01*
X152833714Y-51052380D02*
X153405142Y-51052380D01*
X153119428Y-51052380D02*
X153119428Y-50052380D01*
X153214666Y-50195238D01*
X153309904Y-50290476D01*
X153405142Y-50338095D01*
X195613380Y-131463095D02*
X196422904Y-131463095D01*
X196518142Y-131510714D01*
X196565761Y-131558333D01*
X196613380Y-131653571D01*
X196613380Y-131844047D01*
X196565761Y-131939285D01*
X196518142Y-131986904D01*
X196422904Y-132034523D01*
X195613380Y-132034523D01*
X195708619Y-132463095D02*
X195661000Y-132510714D01*
X195613380Y-132605952D01*
X195613380Y-132844047D01*
X195661000Y-132939285D01*
X195708619Y-132986904D01*
X195803857Y-133034523D01*
X195899095Y-133034523D01*
X196041952Y-132986904D01*
X196613380Y-132415476D01*
X196613380Y-133034523D01*
X135415380Y-131463095D02*
X136224904Y-131463095D01*
X136320142Y-131510714D01*
X136367761Y-131558333D01*
X136415380Y-131653571D01*
X136415380Y-131844047D01*
X136367761Y-131939285D01*
X136320142Y-131986904D01*
X136224904Y-132034523D01*
X135415380Y-132034523D01*
X135510619Y-132463095D02*
X135463000Y-132510714D01*
X135415380Y-132605952D01*
X135415380Y-132844047D01*
X135463000Y-132939285D01*
X135510619Y-132986904D01*
X135605857Y-133034523D01*
X135701095Y-133034523D01*
X135843952Y-132986904D01*
X136415380Y-132415476D01*
X136415380Y-133034523D01*
X195613380Y-109619095D02*
X196422904Y-109619095D01*
X196518142Y-109666714D01*
X196565761Y-109714333D01*
X196613380Y-109809571D01*
X196613380Y-110000047D01*
X196565761Y-110095285D01*
X196518142Y-110142904D01*
X196422904Y-110190523D01*
X195613380Y-110190523D01*
X195708619Y-110619095D02*
X195661000Y-110666714D01*
X195613380Y-110761952D01*
X195613380Y-111000047D01*
X195661000Y-111095285D01*
X195708619Y-111142904D01*
X195803857Y-111190523D01*
X195899095Y-111190523D01*
X196041952Y-111142904D01*
X196613380Y-110571476D01*
X196613380Y-111190523D01*
X135415380Y-109619095D02*
X136224904Y-109619095D01*
X136320142Y-109666714D01*
X136367761Y-109714333D01*
X136415380Y-109809571D01*
X136415380Y-110000047D01*
X136367761Y-110095285D01*
X136320142Y-110142904D01*
X136224904Y-110190523D01*
X135415380Y-110190523D01*
X135510619Y-110619095D02*
X135463000Y-110666714D01*
X135415380Y-110761952D01*
X135415380Y-111000047D01*
X135463000Y-111095285D01*
X135510619Y-111142904D01*
X135605857Y-111190523D01*
X135701095Y-111190523D01*
X135843952Y-111142904D01*
X136415380Y-110571476D01*
X136415380Y-111190523D01*
X195613380Y-87775095D02*
X196422904Y-87775095D01*
X196518142Y-87822714D01*
X196565761Y-87870333D01*
X196613380Y-87965571D01*
X196613380Y-88156047D01*
X196565761Y-88251285D01*
X196518142Y-88298904D01*
X196422904Y-88346523D01*
X195613380Y-88346523D01*
X195708619Y-88775095D02*
X195661000Y-88822714D01*
X195613380Y-88917952D01*
X195613380Y-89156047D01*
X195661000Y-89251285D01*
X195708619Y-89298904D01*
X195803857Y-89346523D01*
X195899095Y-89346523D01*
X196041952Y-89298904D01*
X196613380Y-88727476D01*
X196613380Y-89346523D01*
X135415380Y-87775095D02*
X136224904Y-87775095D01*
X136320142Y-87822714D01*
X136367761Y-87870333D01*
X136415380Y-87965571D01*
X136415380Y-88156047D01*
X136367761Y-88251285D01*
X136320142Y-88298904D01*
X136224904Y-88346523D01*
X135415380Y-88346523D01*
X135510619Y-88775095D02*
X135463000Y-88822714D01*
X135415380Y-88917952D01*
X135415380Y-89156047D01*
X135463000Y-89251285D01*
X135510619Y-89298904D01*
X135605857Y-89346523D01*
X135701095Y-89346523D01*
X135843952Y-89298904D01*
X136415380Y-88727476D01*
X136415380Y-89346523D01*
X195613380Y-65931095D02*
X196422904Y-65931095D01*
X196518142Y-65978714D01*
X196565761Y-66026333D01*
X196613380Y-66121571D01*
X196613380Y-66312047D01*
X196565761Y-66407285D01*
X196518142Y-66454904D01*
X196422904Y-66502523D01*
X195613380Y-66502523D01*
X195708619Y-66931095D02*
X195661000Y-66978714D01*
X195613380Y-67073952D01*
X195613380Y-67312047D01*
X195661000Y-67407285D01*
X195708619Y-67454904D01*
X195803857Y-67502523D01*
X195899095Y-67502523D01*
X196041952Y-67454904D01*
X196613380Y-66883476D01*
X196613380Y-67502523D01*
X135415380Y-65931095D02*
X136224904Y-65931095D01*
X136320142Y-65978714D01*
X136367761Y-66026333D01*
X136415380Y-66121571D01*
X136415380Y-66312047D01*
X136367761Y-66407285D01*
X136320142Y-66454904D01*
X136224904Y-66502523D01*
X135415380Y-66502523D01*
X135510619Y-66931095D02*
X135463000Y-66978714D01*
X135415380Y-67073952D01*
X135415380Y-67312047D01*
X135463000Y-67407285D01*
X135510619Y-67454904D01*
X135605857Y-67502523D01*
X135701095Y-67502523D01*
X135843952Y-67454904D01*
X136415380Y-66883476D01*
X136415380Y-67502523D01*
X195613380Y-44087095D02*
X196422904Y-44087095D01*
X196518142Y-44134714D01*
X196565761Y-44182333D01*
X196613380Y-44277571D01*
X196613380Y-44468047D01*
X196565761Y-44563285D01*
X196518142Y-44610904D01*
X196422904Y-44658523D01*
X195613380Y-44658523D01*
X195708619Y-45087095D02*
X195661000Y-45134714D01*
X195613380Y-45229952D01*
X195613380Y-45468047D01*
X195661000Y-45563285D01*
X195708619Y-45610904D01*
X195803857Y-45658523D01*
X195899095Y-45658523D01*
X196041952Y-45610904D01*
X196613380Y-45039476D01*
X196613380Y-45658523D01*
X94445238Y-51052380D02*
X94778571Y-50576190D01*
X95016666Y-51052380D02*
X95016666Y-50052380D01*
X94635714Y-50052380D01*
X94540476Y-50100000D01*
X94492857Y-50147619D01*
X94445238Y-50242857D01*
X94445238Y-50385714D01*
X94492857Y-50480952D01*
X94540476Y-50528571D01*
X94635714Y-50576190D01*
X95016666Y-50576190D01*
X94159523Y-50052380D02*
X93826190Y-51052380D01*
X93492857Y-50052380D01*
X92635714Y-51052380D02*
X93207142Y-51052380D01*
X92921428Y-51052380D02*
X92921428Y-50052380D01*
X93016666Y-50195238D01*
X93111904Y-50290476D01*
X93207142Y-50338095D01*
X135415380Y-44087095D02*
X136224904Y-44087095D01*
X136320142Y-44134714D01*
X136367761Y-44182333D01*
X136415380Y-44277571D01*
X136415380Y-44468047D01*
X136367761Y-44563285D01*
X136320142Y-44610904D01*
X136224904Y-44658523D01*
X135415380Y-44658523D01*
X135510619Y-45087095D02*
X135463000Y-45134714D01*
X135415380Y-45229952D01*
X135415380Y-45468047D01*
X135463000Y-45563285D01*
X135510619Y-45610904D01*
X135605857Y-45658523D01*
X135701095Y-45658523D01*
X135843952Y-45610904D01*
X136415380Y-45039476D01*
X136415380Y-45658523D01*
M02*
