G04 #@! TF.GenerationSoftware,KiCad,Pcbnew,5.0.2-bee76a0~70~ubuntu18.04.1*
G04 #@! TF.CreationDate,2019-05-17T22:11:45+02:00*
G04 #@! TF.ProjectId,m3_2x5_panel,6d335f32-7835-45f7-9061-6e656c2e6b69,rev?*
G04 #@! TF.SameCoordinates,Original*
G04 #@! TF.FileFunction,Legend,Bot*
G04 #@! TF.FilePolarity,Positive*
%FSLAX46Y46*%
G04 Gerber Fmt 4.6, Leading zero omitted, Abs format (unit mm)*
G04 Created by KiCad (PCBNEW 5.0.2-bee76a0~70~ubuntu18.04.1) date Fr 17 Mai 2019 22:11:45 CEST*
%MOMM*%
%LPD*%
G01*
G04 APERTURE LIST*
%ADD10C,0.300000*%
%ADD11C,0.150000*%
%ADD12C,0.500000*%
%ADD13C,0.120000*%
G04 APERTURE END LIST*
D10*
X190697800Y-141347371D02*
X190697800Y-139847371D01*
X190197800Y-140918800D01*
X189697800Y-139847371D01*
X189697800Y-141347371D01*
X189126371Y-139847371D02*
X188197800Y-139847371D01*
X188697800Y-140418800D01*
X188483514Y-140418800D01*
X188340657Y-140490228D01*
X188269228Y-140561657D01*
X188197800Y-140704514D01*
X188197800Y-141061657D01*
X188269228Y-141204514D01*
X188340657Y-141275942D01*
X188483514Y-141347371D01*
X188912085Y-141347371D01*
X189054942Y-141275942D01*
X189126371Y-141204514D01*
X187912085Y-141490228D02*
X186769228Y-141490228D01*
X186412085Y-141347371D02*
X186412085Y-140347371D01*
X186412085Y-140633085D02*
X186340657Y-140490228D01*
X186269228Y-140418800D01*
X186126371Y-140347371D01*
X185983514Y-140347371D01*
X184912085Y-141275942D02*
X185054942Y-141347371D01*
X185340657Y-141347371D01*
X185483514Y-141275942D01*
X185554942Y-141133085D01*
X185554942Y-140561657D01*
X185483514Y-140418800D01*
X185340657Y-140347371D01*
X185054942Y-140347371D01*
X184912085Y-140418800D01*
X184840657Y-140561657D01*
X184840657Y-140704514D01*
X185554942Y-140847371D01*
X184340657Y-140347371D02*
X183983514Y-141347371D01*
X183626371Y-140347371D01*
X182269228Y-141347371D02*
X183126371Y-141347371D01*
X182697800Y-141347371D02*
X182697800Y-139847371D01*
X182840657Y-140061657D01*
X182983514Y-140204514D01*
X183126371Y-140275942D01*
X181626371Y-141204514D02*
X181554942Y-141275942D01*
X181626371Y-141347371D01*
X181697800Y-141275942D01*
X181626371Y-141204514D01*
X181626371Y-141347371D01*
X180626371Y-139847371D02*
X180483514Y-139847371D01*
X180340657Y-139918800D01*
X180269228Y-139990228D01*
X180197800Y-140133085D01*
X180126371Y-140418800D01*
X180126371Y-140775942D01*
X180197800Y-141061657D01*
X180269228Y-141204514D01*
X180340657Y-141275942D01*
X180483514Y-141347371D01*
X180626371Y-141347371D01*
X180769228Y-141275942D01*
X180840657Y-141204514D01*
X180912085Y-141061657D01*
X180983514Y-140775942D01*
X180983514Y-140418800D01*
X180912085Y-140133085D01*
X180840657Y-139990228D01*
X180769228Y-139918800D01*
X180626371Y-139847371D01*
X130499800Y-141347371D02*
X130499800Y-139847371D01*
X129999800Y-140918800D01*
X129499800Y-139847371D01*
X129499800Y-141347371D01*
X128928371Y-139847371D02*
X127999800Y-139847371D01*
X128499800Y-140418800D01*
X128285514Y-140418800D01*
X128142657Y-140490228D01*
X128071228Y-140561657D01*
X127999800Y-140704514D01*
X127999800Y-141061657D01*
X128071228Y-141204514D01*
X128142657Y-141275942D01*
X128285514Y-141347371D01*
X128714085Y-141347371D01*
X128856942Y-141275942D01*
X128928371Y-141204514D01*
X127714085Y-141490228D02*
X126571228Y-141490228D01*
X126214085Y-141347371D02*
X126214085Y-140347371D01*
X126214085Y-140633085D02*
X126142657Y-140490228D01*
X126071228Y-140418800D01*
X125928371Y-140347371D01*
X125785514Y-140347371D01*
X124714085Y-141275942D02*
X124856942Y-141347371D01*
X125142657Y-141347371D01*
X125285514Y-141275942D01*
X125356942Y-141133085D01*
X125356942Y-140561657D01*
X125285514Y-140418800D01*
X125142657Y-140347371D01*
X124856942Y-140347371D01*
X124714085Y-140418800D01*
X124642657Y-140561657D01*
X124642657Y-140704514D01*
X125356942Y-140847371D01*
X124142657Y-140347371D02*
X123785514Y-141347371D01*
X123428371Y-140347371D01*
X122071228Y-141347371D02*
X122928371Y-141347371D01*
X122499800Y-141347371D02*
X122499800Y-139847371D01*
X122642657Y-140061657D01*
X122785514Y-140204514D01*
X122928371Y-140275942D01*
X121428371Y-141204514D02*
X121356942Y-141275942D01*
X121428371Y-141347371D01*
X121499800Y-141275942D01*
X121428371Y-141204514D01*
X121428371Y-141347371D01*
X120428371Y-139847371D02*
X120285514Y-139847371D01*
X120142657Y-139918800D01*
X120071228Y-139990228D01*
X119999800Y-140133085D01*
X119928371Y-140418800D01*
X119928371Y-140775942D01*
X119999800Y-141061657D01*
X120071228Y-141204514D01*
X120142657Y-141275942D01*
X120285514Y-141347371D01*
X120428371Y-141347371D01*
X120571228Y-141275942D01*
X120642657Y-141204514D01*
X120714085Y-141061657D01*
X120785514Y-140775942D01*
X120785514Y-140418800D01*
X120714085Y-140133085D01*
X120642657Y-139990228D01*
X120571228Y-139918800D01*
X120428371Y-139847371D01*
X190697800Y-119503371D02*
X190697800Y-118003371D01*
X190197800Y-119074800D01*
X189697800Y-118003371D01*
X189697800Y-119503371D01*
X189126371Y-118003371D02*
X188197800Y-118003371D01*
X188697800Y-118574800D01*
X188483514Y-118574800D01*
X188340657Y-118646228D01*
X188269228Y-118717657D01*
X188197800Y-118860514D01*
X188197800Y-119217657D01*
X188269228Y-119360514D01*
X188340657Y-119431942D01*
X188483514Y-119503371D01*
X188912085Y-119503371D01*
X189054942Y-119431942D01*
X189126371Y-119360514D01*
X187912085Y-119646228D02*
X186769228Y-119646228D01*
X186412085Y-119503371D02*
X186412085Y-118503371D01*
X186412085Y-118789085D02*
X186340657Y-118646228D01*
X186269228Y-118574800D01*
X186126371Y-118503371D01*
X185983514Y-118503371D01*
X184912085Y-119431942D02*
X185054942Y-119503371D01*
X185340657Y-119503371D01*
X185483514Y-119431942D01*
X185554942Y-119289085D01*
X185554942Y-118717657D01*
X185483514Y-118574800D01*
X185340657Y-118503371D01*
X185054942Y-118503371D01*
X184912085Y-118574800D01*
X184840657Y-118717657D01*
X184840657Y-118860514D01*
X185554942Y-119003371D01*
X184340657Y-118503371D02*
X183983514Y-119503371D01*
X183626371Y-118503371D01*
X182269228Y-119503371D02*
X183126371Y-119503371D01*
X182697800Y-119503371D02*
X182697800Y-118003371D01*
X182840657Y-118217657D01*
X182983514Y-118360514D01*
X183126371Y-118431942D01*
X181626371Y-119360514D02*
X181554942Y-119431942D01*
X181626371Y-119503371D01*
X181697800Y-119431942D01*
X181626371Y-119360514D01*
X181626371Y-119503371D01*
X180626371Y-118003371D02*
X180483514Y-118003371D01*
X180340657Y-118074800D01*
X180269228Y-118146228D01*
X180197800Y-118289085D01*
X180126371Y-118574800D01*
X180126371Y-118931942D01*
X180197800Y-119217657D01*
X180269228Y-119360514D01*
X180340657Y-119431942D01*
X180483514Y-119503371D01*
X180626371Y-119503371D01*
X180769228Y-119431942D01*
X180840657Y-119360514D01*
X180912085Y-119217657D01*
X180983514Y-118931942D01*
X180983514Y-118574800D01*
X180912085Y-118289085D01*
X180840657Y-118146228D01*
X180769228Y-118074800D01*
X180626371Y-118003371D01*
X130499800Y-119503371D02*
X130499800Y-118003371D01*
X129999800Y-119074800D01*
X129499800Y-118003371D01*
X129499800Y-119503371D01*
X128928371Y-118003371D02*
X127999800Y-118003371D01*
X128499800Y-118574800D01*
X128285514Y-118574800D01*
X128142657Y-118646228D01*
X128071228Y-118717657D01*
X127999800Y-118860514D01*
X127999800Y-119217657D01*
X128071228Y-119360514D01*
X128142657Y-119431942D01*
X128285514Y-119503371D01*
X128714085Y-119503371D01*
X128856942Y-119431942D01*
X128928371Y-119360514D01*
X127714085Y-119646228D02*
X126571228Y-119646228D01*
X126214085Y-119503371D02*
X126214085Y-118503371D01*
X126214085Y-118789085D02*
X126142657Y-118646228D01*
X126071228Y-118574800D01*
X125928371Y-118503371D01*
X125785514Y-118503371D01*
X124714085Y-119431942D02*
X124856942Y-119503371D01*
X125142657Y-119503371D01*
X125285514Y-119431942D01*
X125356942Y-119289085D01*
X125356942Y-118717657D01*
X125285514Y-118574800D01*
X125142657Y-118503371D01*
X124856942Y-118503371D01*
X124714085Y-118574800D01*
X124642657Y-118717657D01*
X124642657Y-118860514D01*
X125356942Y-119003371D01*
X124142657Y-118503371D02*
X123785514Y-119503371D01*
X123428371Y-118503371D01*
X122071228Y-119503371D02*
X122928371Y-119503371D01*
X122499800Y-119503371D02*
X122499800Y-118003371D01*
X122642657Y-118217657D01*
X122785514Y-118360514D01*
X122928371Y-118431942D01*
X121428371Y-119360514D02*
X121356942Y-119431942D01*
X121428371Y-119503371D01*
X121499800Y-119431942D01*
X121428371Y-119360514D01*
X121428371Y-119503371D01*
X120428371Y-118003371D02*
X120285514Y-118003371D01*
X120142657Y-118074800D01*
X120071228Y-118146228D01*
X119999800Y-118289085D01*
X119928371Y-118574800D01*
X119928371Y-118931942D01*
X119999800Y-119217657D01*
X120071228Y-119360514D01*
X120142657Y-119431942D01*
X120285514Y-119503371D01*
X120428371Y-119503371D01*
X120571228Y-119431942D01*
X120642657Y-119360514D01*
X120714085Y-119217657D01*
X120785514Y-118931942D01*
X120785514Y-118574800D01*
X120714085Y-118289085D01*
X120642657Y-118146228D01*
X120571228Y-118074800D01*
X120428371Y-118003371D01*
X190697800Y-97659371D02*
X190697800Y-96159371D01*
X190197800Y-97230800D01*
X189697800Y-96159371D01*
X189697800Y-97659371D01*
X189126371Y-96159371D02*
X188197800Y-96159371D01*
X188697800Y-96730800D01*
X188483514Y-96730800D01*
X188340657Y-96802228D01*
X188269228Y-96873657D01*
X188197800Y-97016514D01*
X188197800Y-97373657D01*
X188269228Y-97516514D01*
X188340657Y-97587942D01*
X188483514Y-97659371D01*
X188912085Y-97659371D01*
X189054942Y-97587942D01*
X189126371Y-97516514D01*
X187912085Y-97802228D02*
X186769228Y-97802228D01*
X186412085Y-97659371D02*
X186412085Y-96659371D01*
X186412085Y-96945085D02*
X186340657Y-96802228D01*
X186269228Y-96730800D01*
X186126371Y-96659371D01*
X185983514Y-96659371D01*
X184912085Y-97587942D02*
X185054942Y-97659371D01*
X185340657Y-97659371D01*
X185483514Y-97587942D01*
X185554942Y-97445085D01*
X185554942Y-96873657D01*
X185483514Y-96730800D01*
X185340657Y-96659371D01*
X185054942Y-96659371D01*
X184912085Y-96730800D01*
X184840657Y-96873657D01*
X184840657Y-97016514D01*
X185554942Y-97159371D01*
X184340657Y-96659371D02*
X183983514Y-97659371D01*
X183626371Y-96659371D01*
X182269228Y-97659371D02*
X183126371Y-97659371D01*
X182697800Y-97659371D02*
X182697800Y-96159371D01*
X182840657Y-96373657D01*
X182983514Y-96516514D01*
X183126371Y-96587942D01*
X181626371Y-97516514D02*
X181554942Y-97587942D01*
X181626371Y-97659371D01*
X181697800Y-97587942D01*
X181626371Y-97516514D01*
X181626371Y-97659371D01*
X180626371Y-96159371D02*
X180483514Y-96159371D01*
X180340657Y-96230800D01*
X180269228Y-96302228D01*
X180197800Y-96445085D01*
X180126371Y-96730800D01*
X180126371Y-97087942D01*
X180197800Y-97373657D01*
X180269228Y-97516514D01*
X180340657Y-97587942D01*
X180483514Y-97659371D01*
X180626371Y-97659371D01*
X180769228Y-97587942D01*
X180840657Y-97516514D01*
X180912085Y-97373657D01*
X180983514Y-97087942D01*
X180983514Y-96730800D01*
X180912085Y-96445085D01*
X180840657Y-96302228D01*
X180769228Y-96230800D01*
X180626371Y-96159371D01*
X130499800Y-97659371D02*
X130499800Y-96159371D01*
X129999800Y-97230800D01*
X129499800Y-96159371D01*
X129499800Y-97659371D01*
X128928371Y-96159371D02*
X127999800Y-96159371D01*
X128499800Y-96730800D01*
X128285514Y-96730800D01*
X128142657Y-96802228D01*
X128071228Y-96873657D01*
X127999800Y-97016514D01*
X127999800Y-97373657D01*
X128071228Y-97516514D01*
X128142657Y-97587942D01*
X128285514Y-97659371D01*
X128714085Y-97659371D01*
X128856942Y-97587942D01*
X128928371Y-97516514D01*
X127714085Y-97802228D02*
X126571228Y-97802228D01*
X126214085Y-97659371D02*
X126214085Y-96659371D01*
X126214085Y-96945085D02*
X126142657Y-96802228D01*
X126071228Y-96730800D01*
X125928371Y-96659371D01*
X125785514Y-96659371D01*
X124714085Y-97587942D02*
X124856942Y-97659371D01*
X125142657Y-97659371D01*
X125285514Y-97587942D01*
X125356942Y-97445085D01*
X125356942Y-96873657D01*
X125285514Y-96730800D01*
X125142657Y-96659371D01*
X124856942Y-96659371D01*
X124714085Y-96730800D01*
X124642657Y-96873657D01*
X124642657Y-97016514D01*
X125356942Y-97159371D01*
X124142657Y-96659371D02*
X123785514Y-97659371D01*
X123428371Y-96659371D01*
X122071228Y-97659371D02*
X122928371Y-97659371D01*
X122499800Y-97659371D02*
X122499800Y-96159371D01*
X122642657Y-96373657D01*
X122785514Y-96516514D01*
X122928371Y-96587942D01*
X121428371Y-97516514D02*
X121356942Y-97587942D01*
X121428371Y-97659371D01*
X121499800Y-97587942D01*
X121428371Y-97516514D01*
X121428371Y-97659371D01*
X120428371Y-96159371D02*
X120285514Y-96159371D01*
X120142657Y-96230800D01*
X120071228Y-96302228D01*
X119999800Y-96445085D01*
X119928371Y-96730800D01*
X119928371Y-97087942D01*
X119999800Y-97373657D01*
X120071228Y-97516514D01*
X120142657Y-97587942D01*
X120285514Y-97659371D01*
X120428371Y-97659371D01*
X120571228Y-97587942D01*
X120642657Y-97516514D01*
X120714085Y-97373657D01*
X120785514Y-97087942D01*
X120785514Y-96730800D01*
X120714085Y-96445085D01*
X120642657Y-96302228D01*
X120571228Y-96230800D01*
X120428371Y-96159371D01*
X190697800Y-75815371D02*
X190697800Y-74315371D01*
X190197800Y-75386800D01*
X189697800Y-74315371D01*
X189697800Y-75815371D01*
X189126371Y-74315371D02*
X188197800Y-74315371D01*
X188697800Y-74886800D01*
X188483514Y-74886800D01*
X188340657Y-74958228D01*
X188269228Y-75029657D01*
X188197800Y-75172514D01*
X188197800Y-75529657D01*
X188269228Y-75672514D01*
X188340657Y-75743942D01*
X188483514Y-75815371D01*
X188912085Y-75815371D01*
X189054942Y-75743942D01*
X189126371Y-75672514D01*
X187912085Y-75958228D02*
X186769228Y-75958228D01*
X186412085Y-75815371D02*
X186412085Y-74815371D01*
X186412085Y-75101085D02*
X186340657Y-74958228D01*
X186269228Y-74886800D01*
X186126371Y-74815371D01*
X185983514Y-74815371D01*
X184912085Y-75743942D02*
X185054942Y-75815371D01*
X185340657Y-75815371D01*
X185483514Y-75743942D01*
X185554942Y-75601085D01*
X185554942Y-75029657D01*
X185483514Y-74886800D01*
X185340657Y-74815371D01*
X185054942Y-74815371D01*
X184912085Y-74886800D01*
X184840657Y-75029657D01*
X184840657Y-75172514D01*
X185554942Y-75315371D01*
X184340657Y-74815371D02*
X183983514Y-75815371D01*
X183626371Y-74815371D01*
X182269228Y-75815371D02*
X183126371Y-75815371D01*
X182697800Y-75815371D02*
X182697800Y-74315371D01*
X182840657Y-74529657D01*
X182983514Y-74672514D01*
X183126371Y-74743942D01*
X181626371Y-75672514D02*
X181554942Y-75743942D01*
X181626371Y-75815371D01*
X181697800Y-75743942D01*
X181626371Y-75672514D01*
X181626371Y-75815371D01*
X180626371Y-74315371D02*
X180483514Y-74315371D01*
X180340657Y-74386800D01*
X180269228Y-74458228D01*
X180197800Y-74601085D01*
X180126371Y-74886800D01*
X180126371Y-75243942D01*
X180197800Y-75529657D01*
X180269228Y-75672514D01*
X180340657Y-75743942D01*
X180483514Y-75815371D01*
X180626371Y-75815371D01*
X180769228Y-75743942D01*
X180840657Y-75672514D01*
X180912085Y-75529657D01*
X180983514Y-75243942D01*
X180983514Y-74886800D01*
X180912085Y-74601085D01*
X180840657Y-74458228D01*
X180769228Y-74386800D01*
X180626371Y-74315371D01*
X130499800Y-75815371D02*
X130499800Y-74315371D01*
X129999800Y-75386800D01*
X129499800Y-74315371D01*
X129499800Y-75815371D01*
X128928371Y-74315371D02*
X127999800Y-74315371D01*
X128499800Y-74886800D01*
X128285514Y-74886800D01*
X128142657Y-74958228D01*
X128071228Y-75029657D01*
X127999800Y-75172514D01*
X127999800Y-75529657D01*
X128071228Y-75672514D01*
X128142657Y-75743942D01*
X128285514Y-75815371D01*
X128714085Y-75815371D01*
X128856942Y-75743942D01*
X128928371Y-75672514D01*
X127714085Y-75958228D02*
X126571228Y-75958228D01*
X126214085Y-75815371D02*
X126214085Y-74815371D01*
X126214085Y-75101085D02*
X126142657Y-74958228D01*
X126071228Y-74886800D01*
X125928371Y-74815371D01*
X125785514Y-74815371D01*
X124714085Y-75743942D02*
X124856942Y-75815371D01*
X125142657Y-75815371D01*
X125285514Y-75743942D01*
X125356942Y-75601085D01*
X125356942Y-75029657D01*
X125285514Y-74886800D01*
X125142657Y-74815371D01*
X124856942Y-74815371D01*
X124714085Y-74886800D01*
X124642657Y-75029657D01*
X124642657Y-75172514D01*
X125356942Y-75315371D01*
X124142657Y-74815371D02*
X123785514Y-75815371D01*
X123428371Y-74815371D01*
X122071228Y-75815371D02*
X122928371Y-75815371D01*
X122499800Y-75815371D02*
X122499800Y-74315371D01*
X122642657Y-74529657D01*
X122785514Y-74672514D01*
X122928371Y-74743942D01*
X121428371Y-75672514D02*
X121356942Y-75743942D01*
X121428371Y-75815371D01*
X121499800Y-75743942D01*
X121428371Y-75672514D01*
X121428371Y-75815371D01*
X120428371Y-74315371D02*
X120285514Y-74315371D01*
X120142657Y-74386800D01*
X120071228Y-74458228D01*
X119999800Y-74601085D01*
X119928371Y-74886800D01*
X119928371Y-75243942D01*
X119999800Y-75529657D01*
X120071228Y-75672514D01*
X120142657Y-75743942D01*
X120285514Y-75815371D01*
X120428371Y-75815371D01*
X120571228Y-75743942D01*
X120642657Y-75672514D01*
X120714085Y-75529657D01*
X120785514Y-75243942D01*
X120785514Y-74886800D01*
X120714085Y-74601085D01*
X120642657Y-74458228D01*
X120571228Y-74386800D01*
X120428371Y-74315371D01*
X190697800Y-53971371D02*
X190697800Y-52471371D01*
X190197800Y-53542800D01*
X189697800Y-52471371D01*
X189697800Y-53971371D01*
X189126371Y-52471371D02*
X188197800Y-52471371D01*
X188697800Y-53042800D01*
X188483514Y-53042800D01*
X188340657Y-53114228D01*
X188269228Y-53185657D01*
X188197800Y-53328514D01*
X188197800Y-53685657D01*
X188269228Y-53828514D01*
X188340657Y-53899942D01*
X188483514Y-53971371D01*
X188912085Y-53971371D01*
X189054942Y-53899942D01*
X189126371Y-53828514D01*
X187912085Y-54114228D02*
X186769228Y-54114228D01*
X186412085Y-53971371D02*
X186412085Y-52971371D01*
X186412085Y-53257085D02*
X186340657Y-53114228D01*
X186269228Y-53042800D01*
X186126371Y-52971371D01*
X185983514Y-52971371D01*
X184912085Y-53899942D02*
X185054942Y-53971371D01*
X185340657Y-53971371D01*
X185483514Y-53899942D01*
X185554942Y-53757085D01*
X185554942Y-53185657D01*
X185483514Y-53042800D01*
X185340657Y-52971371D01*
X185054942Y-52971371D01*
X184912085Y-53042800D01*
X184840657Y-53185657D01*
X184840657Y-53328514D01*
X185554942Y-53471371D01*
X184340657Y-52971371D02*
X183983514Y-53971371D01*
X183626371Y-52971371D01*
X182269228Y-53971371D02*
X183126371Y-53971371D01*
X182697800Y-53971371D02*
X182697800Y-52471371D01*
X182840657Y-52685657D01*
X182983514Y-52828514D01*
X183126371Y-52899942D01*
X181626371Y-53828514D02*
X181554942Y-53899942D01*
X181626371Y-53971371D01*
X181697800Y-53899942D01*
X181626371Y-53828514D01*
X181626371Y-53971371D01*
X180626371Y-52471371D02*
X180483514Y-52471371D01*
X180340657Y-52542800D01*
X180269228Y-52614228D01*
X180197800Y-52757085D01*
X180126371Y-53042800D01*
X180126371Y-53399942D01*
X180197800Y-53685657D01*
X180269228Y-53828514D01*
X180340657Y-53899942D01*
X180483514Y-53971371D01*
X180626371Y-53971371D01*
X180769228Y-53899942D01*
X180840657Y-53828514D01*
X180912085Y-53685657D01*
X180983514Y-53399942D01*
X180983514Y-53042800D01*
X180912085Y-52757085D01*
X180840657Y-52614228D01*
X180769228Y-52542800D01*
X180626371Y-52471371D01*
X130499800Y-53971371D02*
X130499800Y-52471371D01*
X129999800Y-53542800D01*
X129499800Y-52471371D01*
X129499800Y-53971371D01*
X128928371Y-52471371D02*
X127999800Y-52471371D01*
X128499800Y-53042800D01*
X128285514Y-53042800D01*
X128142657Y-53114228D01*
X128071228Y-53185657D01*
X127999800Y-53328514D01*
X127999800Y-53685657D01*
X128071228Y-53828514D01*
X128142657Y-53899942D01*
X128285514Y-53971371D01*
X128714085Y-53971371D01*
X128856942Y-53899942D01*
X128928371Y-53828514D01*
X127714085Y-54114228D02*
X126571228Y-54114228D01*
X126214085Y-53971371D02*
X126214085Y-52971371D01*
X126214085Y-53257085D02*
X126142657Y-53114228D01*
X126071228Y-53042800D01*
X125928371Y-52971371D01*
X125785514Y-52971371D01*
X124714085Y-53899942D02*
X124856942Y-53971371D01*
X125142657Y-53971371D01*
X125285514Y-53899942D01*
X125356942Y-53757085D01*
X125356942Y-53185657D01*
X125285514Y-53042800D01*
X125142657Y-52971371D01*
X124856942Y-52971371D01*
X124714085Y-53042800D01*
X124642657Y-53185657D01*
X124642657Y-53328514D01*
X125356942Y-53471371D01*
X124142657Y-52971371D02*
X123785514Y-53971371D01*
X123428371Y-52971371D01*
X122071228Y-53971371D02*
X122928371Y-53971371D01*
X122499800Y-53971371D02*
X122499800Y-52471371D01*
X122642657Y-52685657D01*
X122785514Y-52828514D01*
X122928371Y-52899942D01*
X121428371Y-53828514D02*
X121356942Y-53899942D01*
X121428371Y-53971371D01*
X121499800Y-53899942D01*
X121428371Y-53828514D01*
X121428371Y-53971371D01*
X120428371Y-52471371D02*
X120285514Y-52471371D01*
X120142657Y-52542800D01*
X120071228Y-52614228D01*
X119999800Y-52757085D01*
X119928371Y-53042800D01*
X119928371Y-53399942D01*
X119999800Y-53685657D01*
X120071228Y-53828514D01*
X120142657Y-53899942D01*
X120285514Y-53971371D01*
X120428371Y-53971371D01*
X120571228Y-53899942D01*
X120642657Y-53828514D01*
X120714085Y-53685657D01*
X120785514Y-53399942D01*
X120785514Y-53042800D01*
X120714085Y-52757085D01*
X120642657Y-52614228D01*
X120571228Y-52542800D01*
X120428371Y-52471371D01*
D11*
G04 #@! TO.C,U2*
X202919800Y-124654800D02*
X202919800Y-142654800D01*
X177419800Y-124654800D02*
X177419800Y-142654800D01*
X202919800Y-124654800D02*
X177419800Y-124654800D01*
X202919800Y-142654800D02*
X177419800Y-142654800D01*
X196919800Y-124654800D02*
X196919800Y-142654800D01*
D12*
X197057781Y-143560800D02*
G75*
G03X197057781Y-143560800I-283981J0D01*
G01*
D11*
X142721800Y-124654800D02*
X142721800Y-142654800D01*
X117221800Y-124654800D02*
X117221800Y-142654800D01*
X142721800Y-124654800D02*
X117221800Y-124654800D01*
X142721800Y-142654800D02*
X117221800Y-142654800D01*
X136721800Y-124654800D02*
X136721800Y-142654800D01*
D12*
X136859781Y-143560800D02*
G75*
G03X136859781Y-143560800I-283981J0D01*
G01*
D11*
X202919800Y-102810800D02*
X202919800Y-120810800D01*
X177419800Y-102810800D02*
X177419800Y-120810800D01*
X202919800Y-102810800D02*
X177419800Y-102810800D01*
X202919800Y-120810800D02*
X177419800Y-120810800D01*
X196919800Y-102810800D02*
X196919800Y-120810800D01*
D12*
X197057781Y-121716800D02*
G75*
G03X197057781Y-121716800I-283981J0D01*
G01*
D11*
X142721800Y-102810800D02*
X142721800Y-120810800D01*
X117221800Y-102810800D02*
X117221800Y-120810800D01*
X142721800Y-102810800D02*
X117221800Y-102810800D01*
X142721800Y-120810800D02*
X117221800Y-120810800D01*
X136721800Y-102810800D02*
X136721800Y-120810800D01*
D12*
X136859781Y-121716800D02*
G75*
G03X136859781Y-121716800I-283981J0D01*
G01*
D11*
X202919800Y-80966800D02*
X202919800Y-98966800D01*
X177419800Y-80966800D02*
X177419800Y-98966800D01*
X202919800Y-80966800D02*
X177419800Y-80966800D01*
X202919800Y-98966800D02*
X177419800Y-98966800D01*
X196919800Y-80966800D02*
X196919800Y-98966800D01*
D12*
X197057781Y-99872800D02*
G75*
G03X197057781Y-99872800I-283981J0D01*
G01*
D11*
X142721800Y-80966800D02*
X142721800Y-98966800D01*
X117221800Y-80966800D02*
X117221800Y-98966800D01*
X142721800Y-80966800D02*
X117221800Y-80966800D01*
X142721800Y-98966800D02*
X117221800Y-98966800D01*
X136721800Y-80966800D02*
X136721800Y-98966800D01*
D12*
X136859781Y-99872800D02*
G75*
G03X136859781Y-99872800I-283981J0D01*
G01*
D11*
X202919800Y-59122800D02*
X202919800Y-77122800D01*
X177419800Y-59122800D02*
X177419800Y-77122800D01*
X202919800Y-59122800D02*
X177419800Y-59122800D01*
X202919800Y-77122800D02*
X177419800Y-77122800D01*
X196919800Y-59122800D02*
X196919800Y-77122800D01*
D12*
X197057781Y-78028800D02*
G75*
G03X197057781Y-78028800I-283981J0D01*
G01*
D11*
X142721800Y-59122800D02*
X142721800Y-77122800D01*
X117221800Y-59122800D02*
X117221800Y-77122800D01*
X142721800Y-59122800D02*
X117221800Y-59122800D01*
X142721800Y-77122800D02*
X117221800Y-77122800D01*
X136721800Y-59122800D02*
X136721800Y-77122800D01*
D12*
X136859781Y-78028800D02*
G75*
G03X136859781Y-78028800I-283981J0D01*
G01*
D11*
X202919800Y-37278800D02*
X202919800Y-55278800D01*
X177419800Y-37278800D02*
X177419800Y-55278800D01*
X202919800Y-37278800D02*
X177419800Y-37278800D01*
X202919800Y-55278800D02*
X177419800Y-55278800D01*
X196919800Y-37278800D02*
X196919800Y-55278800D01*
D12*
X197057781Y-56184800D02*
G75*
G03X197057781Y-56184800I-283981J0D01*
G01*
D13*
G04 #@! TO.C,RV1*
X147073800Y-133598800D02*
X147823800Y-134348800D01*
X147823800Y-132848800D02*
X147073800Y-133598800D01*
X147073800Y-132098800D02*
X147073800Y-135098800D01*
X167073800Y-133598800D02*
X166323800Y-134348800D01*
X166323800Y-132848800D02*
X167073800Y-133598800D01*
X167073800Y-132098800D02*
X167073800Y-135098800D01*
X167073800Y-133598800D02*
X147073800Y-133598800D01*
X175248800Y-132348800D02*
X174748800Y-131848800D01*
X175248800Y-131348800D02*
X175248800Y-132348800D01*
X174748800Y-131848800D02*
X175248800Y-131348800D01*
X139453800Y-132304800D02*
X139453800Y-138218800D01*
X139453800Y-128978800D02*
X139453800Y-131392800D01*
X174693800Y-135804800D02*
X174693800Y-138218800D01*
X174693800Y-133023800D02*
X174693800Y-134893800D01*
X174693800Y-128978800D02*
X174693800Y-130673800D01*
X142837800Y-138218800D02*
X139453800Y-138218800D01*
X168037800Y-138218800D02*
X146108800Y-138218800D01*
X174693800Y-138218800D02*
X171308800Y-138218800D01*
X144037800Y-128978800D02*
X139453800Y-128978800D01*
X166837800Y-128978800D02*
X147308800Y-128978800D01*
X174693800Y-128978800D02*
X170108800Y-128978800D01*
X86875800Y-133598800D02*
X87625800Y-134348800D01*
X87625800Y-132848800D02*
X86875800Y-133598800D01*
X86875800Y-132098800D02*
X86875800Y-135098800D01*
X106875800Y-133598800D02*
X106125800Y-134348800D01*
X106125800Y-132848800D02*
X106875800Y-133598800D01*
X106875800Y-132098800D02*
X106875800Y-135098800D01*
X106875800Y-133598800D02*
X86875800Y-133598800D01*
X115050800Y-132348800D02*
X114550800Y-131848800D01*
X115050800Y-131348800D02*
X115050800Y-132348800D01*
X114550800Y-131848800D02*
X115050800Y-131348800D01*
X79255800Y-132304800D02*
X79255800Y-138218800D01*
X79255800Y-128978800D02*
X79255800Y-131392800D01*
X114495800Y-135804800D02*
X114495800Y-138218800D01*
X114495800Y-133023800D02*
X114495800Y-134893800D01*
X114495800Y-128978800D02*
X114495800Y-130673800D01*
X82639800Y-138218800D02*
X79255800Y-138218800D01*
X107839800Y-138218800D02*
X85910800Y-138218800D01*
X114495800Y-138218800D02*
X111110800Y-138218800D01*
X83839800Y-128978800D02*
X79255800Y-128978800D01*
X106639800Y-128978800D02*
X87110800Y-128978800D01*
X114495800Y-128978800D02*
X109910800Y-128978800D01*
X147073800Y-111754800D02*
X147823800Y-112504800D01*
X147823800Y-111004800D02*
X147073800Y-111754800D01*
X147073800Y-110254800D02*
X147073800Y-113254800D01*
X167073800Y-111754800D02*
X166323800Y-112504800D01*
X166323800Y-111004800D02*
X167073800Y-111754800D01*
X167073800Y-110254800D02*
X167073800Y-113254800D01*
X167073800Y-111754800D02*
X147073800Y-111754800D01*
X175248800Y-110504800D02*
X174748800Y-110004800D01*
X175248800Y-109504800D02*
X175248800Y-110504800D01*
X174748800Y-110004800D02*
X175248800Y-109504800D01*
X139453800Y-110460800D02*
X139453800Y-116374800D01*
X139453800Y-107134800D02*
X139453800Y-109548800D01*
X174693800Y-113960800D02*
X174693800Y-116374800D01*
X174693800Y-111179800D02*
X174693800Y-113049800D01*
X174693800Y-107134800D02*
X174693800Y-108829800D01*
X142837800Y-116374800D02*
X139453800Y-116374800D01*
X168037800Y-116374800D02*
X146108800Y-116374800D01*
X174693800Y-116374800D02*
X171308800Y-116374800D01*
X144037800Y-107134800D02*
X139453800Y-107134800D01*
X166837800Y-107134800D02*
X147308800Y-107134800D01*
X174693800Y-107134800D02*
X170108800Y-107134800D01*
X86875800Y-111754800D02*
X87625800Y-112504800D01*
X87625800Y-111004800D02*
X86875800Y-111754800D01*
X86875800Y-110254800D02*
X86875800Y-113254800D01*
X106875800Y-111754800D02*
X106125800Y-112504800D01*
X106125800Y-111004800D02*
X106875800Y-111754800D01*
X106875800Y-110254800D02*
X106875800Y-113254800D01*
X106875800Y-111754800D02*
X86875800Y-111754800D01*
X115050800Y-110504800D02*
X114550800Y-110004800D01*
X115050800Y-109504800D02*
X115050800Y-110504800D01*
X114550800Y-110004800D02*
X115050800Y-109504800D01*
X79255800Y-110460800D02*
X79255800Y-116374800D01*
X79255800Y-107134800D02*
X79255800Y-109548800D01*
X114495800Y-113960800D02*
X114495800Y-116374800D01*
X114495800Y-111179800D02*
X114495800Y-113049800D01*
X114495800Y-107134800D02*
X114495800Y-108829800D01*
X82639800Y-116374800D02*
X79255800Y-116374800D01*
X107839800Y-116374800D02*
X85910800Y-116374800D01*
X114495800Y-116374800D02*
X111110800Y-116374800D01*
X83839800Y-107134800D02*
X79255800Y-107134800D01*
X106639800Y-107134800D02*
X87110800Y-107134800D01*
X114495800Y-107134800D02*
X109910800Y-107134800D01*
X147073800Y-89910800D02*
X147823800Y-90660800D01*
X147823800Y-89160800D02*
X147073800Y-89910800D01*
X147073800Y-88410800D02*
X147073800Y-91410800D01*
X167073800Y-89910800D02*
X166323800Y-90660800D01*
X166323800Y-89160800D02*
X167073800Y-89910800D01*
X167073800Y-88410800D02*
X167073800Y-91410800D01*
X167073800Y-89910800D02*
X147073800Y-89910800D01*
X175248800Y-88660800D02*
X174748800Y-88160800D01*
X175248800Y-87660800D02*
X175248800Y-88660800D01*
X174748800Y-88160800D02*
X175248800Y-87660800D01*
X139453800Y-88616800D02*
X139453800Y-94530800D01*
X139453800Y-85290800D02*
X139453800Y-87704800D01*
X174693800Y-92116800D02*
X174693800Y-94530800D01*
X174693800Y-89335800D02*
X174693800Y-91205800D01*
X174693800Y-85290800D02*
X174693800Y-86985800D01*
X142837800Y-94530800D02*
X139453800Y-94530800D01*
X168037800Y-94530800D02*
X146108800Y-94530800D01*
X174693800Y-94530800D02*
X171308800Y-94530800D01*
X144037800Y-85290800D02*
X139453800Y-85290800D01*
X166837800Y-85290800D02*
X147308800Y-85290800D01*
X174693800Y-85290800D02*
X170108800Y-85290800D01*
X86875800Y-89910800D02*
X87625800Y-90660800D01*
X87625800Y-89160800D02*
X86875800Y-89910800D01*
X86875800Y-88410800D02*
X86875800Y-91410800D01*
X106875800Y-89910800D02*
X106125800Y-90660800D01*
X106125800Y-89160800D02*
X106875800Y-89910800D01*
X106875800Y-88410800D02*
X106875800Y-91410800D01*
X106875800Y-89910800D02*
X86875800Y-89910800D01*
X115050800Y-88660800D02*
X114550800Y-88160800D01*
X115050800Y-87660800D02*
X115050800Y-88660800D01*
X114550800Y-88160800D02*
X115050800Y-87660800D01*
X79255800Y-88616800D02*
X79255800Y-94530800D01*
X79255800Y-85290800D02*
X79255800Y-87704800D01*
X114495800Y-92116800D02*
X114495800Y-94530800D01*
X114495800Y-89335800D02*
X114495800Y-91205800D01*
X114495800Y-85290800D02*
X114495800Y-86985800D01*
X82639800Y-94530800D02*
X79255800Y-94530800D01*
X107839800Y-94530800D02*
X85910800Y-94530800D01*
X114495800Y-94530800D02*
X111110800Y-94530800D01*
X83839800Y-85290800D02*
X79255800Y-85290800D01*
X106639800Y-85290800D02*
X87110800Y-85290800D01*
X114495800Y-85290800D02*
X109910800Y-85290800D01*
X147073800Y-68066800D02*
X147823800Y-68816800D01*
X147823800Y-67316800D02*
X147073800Y-68066800D01*
X147073800Y-66566800D02*
X147073800Y-69566800D01*
X167073800Y-68066800D02*
X166323800Y-68816800D01*
X166323800Y-67316800D02*
X167073800Y-68066800D01*
X167073800Y-66566800D02*
X167073800Y-69566800D01*
X167073800Y-68066800D02*
X147073800Y-68066800D01*
X175248800Y-66816800D02*
X174748800Y-66316800D01*
X175248800Y-65816800D02*
X175248800Y-66816800D01*
X174748800Y-66316800D02*
X175248800Y-65816800D01*
X139453800Y-66772800D02*
X139453800Y-72686800D01*
X139453800Y-63446800D02*
X139453800Y-65860800D01*
X174693800Y-70272800D02*
X174693800Y-72686800D01*
X174693800Y-67491800D02*
X174693800Y-69361800D01*
X174693800Y-63446800D02*
X174693800Y-65141800D01*
X142837800Y-72686800D02*
X139453800Y-72686800D01*
X168037800Y-72686800D02*
X146108800Y-72686800D01*
X174693800Y-72686800D02*
X171308800Y-72686800D01*
X144037800Y-63446800D02*
X139453800Y-63446800D01*
X166837800Y-63446800D02*
X147308800Y-63446800D01*
X174693800Y-63446800D02*
X170108800Y-63446800D01*
X86875800Y-68066800D02*
X87625800Y-68816800D01*
X87625800Y-67316800D02*
X86875800Y-68066800D01*
X86875800Y-66566800D02*
X86875800Y-69566800D01*
X106875800Y-68066800D02*
X106125800Y-68816800D01*
X106125800Y-67316800D02*
X106875800Y-68066800D01*
X106875800Y-66566800D02*
X106875800Y-69566800D01*
X106875800Y-68066800D02*
X86875800Y-68066800D01*
X115050800Y-66816800D02*
X114550800Y-66316800D01*
X115050800Y-65816800D02*
X115050800Y-66816800D01*
X114550800Y-66316800D02*
X115050800Y-65816800D01*
X79255800Y-66772800D02*
X79255800Y-72686800D01*
X79255800Y-63446800D02*
X79255800Y-65860800D01*
X114495800Y-70272800D02*
X114495800Y-72686800D01*
X114495800Y-67491800D02*
X114495800Y-69361800D01*
X114495800Y-63446800D02*
X114495800Y-65141800D01*
X82639800Y-72686800D02*
X79255800Y-72686800D01*
X107839800Y-72686800D02*
X85910800Y-72686800D01*
X114495800Y-72686800D02*
X111110800Y-72686800D01*
X83839800Y-63446800D02*
X79255800Y-63446800D01*
X106639800Y-63446800D02*
X87110800Y-63446800D01*
X114495800Y-63446800D02*
X109910800Y-63446800D01*
X147073800Y-46222800D02*
X147823800Y-46972800D01*
X147823800Y-45472800D02*
X147073800Y-46222800D01*
X147073800Y-44722800D02*
X147073800Y-47722800D01*
X167073800Y-46222800D02*
X166323800Y-46972800D01*
X166323800Y-45472800D02*
X167073800Y-46222800D01*
X167073800Y-44722800D02*
X167073800Y-47722800D01*
X167073800Y-46222800D02*
X147073800Y-46222800D01*
X175248800Y-44972800D02*
X174748800Y-44472800D01*
X175248800Y-43972800D02*
X175248800Y-44972800D01*
X174748800Y-44472800D02*
X175248800Y-43972800D01*
X139453800Y-44928800D02*
X139453800Y-50842800D01*
X139453800Y-41602800D02*
X139453800Y-44016800D01*
X174693800Y-48428800D02*
X174693800Y-50842800D01*
X174693800Y-45647800D02*
X174693800Y-47517800D01*
X174693800Y-41602800D02*
X174693800Y-43297800D01*
X142837800Y-50842800D02*
X139453800Y-50842800D01*
X168037800Y-50842800D02*
X146108800Y-50842800D01*
X174693800Y-50842800D02*
X171308800Y-50842800D01*
X144037800Y-41602800D02*
X139453800Y-41602800D01*
X166837800Y-41602800D02*
X147308800Y-41602800D01*
X174693800Y-41602800D02*
X170108800Y-41602800D01*
G04 #@! TO.C,J2*
X162153800Y-126178800D02*
X162153800Y-124848800D01*
X160823800Y-126178800D02*
X162153800Y-126178800D01*
X159553800Y-126178800D02*
X159553800Y-123518800D01*
X159553800Y-123518800D02*
X151873800Y-123518800D01*
X159553800Y-126178800D02*
X151873800Y-126178800D01*
X151873800Y-126178800D02*
X151873800Y-123518800D01*
X101955800Y-126178800D02*
X101955800Y-124848800D01*
X100625800Y-126178800D02*
X101955800Y-126178800D01*
X99355800Y-126178800D02*
X99355800Y-123518800D01*
X99355800Y-123518800D02*
X91675800Y-123518800D01*
X99355800Y-126178800D02*
X91675800Y-126178800D01*
X91675800Y-126178800D02*
X91675800Y-123518800D01*
X162153800Y-104334800D02*
X162153800Y-103004800D01*
X160823800Y-104334800D02*
X162153800Y-104334800D01*
X159553800Y-104334800D02*
X159553800Y-101674800D01*
X159553800Y-101674800D02*
X151873800Y-101674800D01*
X159553800Y-104334800D02*
X151873800Y-104334800D01*
X151873800Y-104334800D02*
X151873800Y-101674800D01*
X101955800Y-104334800D02*
X101955800Y-103004800D01*
X100625800Y-104334800D02*
X101955800Y-104334800D01*
X99355800Y-104334800D02*
X99355800Y-101674800D01*
X99355800Y-101674800D02*
X91675800Y-101674800D01*
X99355800Y-104334800D02*
X91675800Y-104334800D01*
X91675800Y-104334800D02*
X91675800Y-101674800D01*
X162153800Y-82490800D02*
X162153800Y-81160800D01*
X160823800Y-82490800D02*
X162153800Y-82490800D01*
X159553800Y-82490800D02*
X159553800Y-79830800D01*
X159553800Y-79830800D02*
X151873800Y-79830800D01*
X159553800Y-82490800D02*
X151873800Y-82490800D01*
X151873800Y-82490800D02*
X151873800Y-79830800D01*
X101955800Y-82490800D02*
X101955800Y-81160800D01*
X100625800Y-82490800D02*
X101955800Y-82490800D01*
X99355800Y-82490800D02*
X99355800Y-79830800D01*
X99355800Y-79830800D02*
X91675800Y-79830800D01*
X99355800Y-82490800D02*
X91675800Y-82490800D01*
X91675800Y-82490800D02*
X91675800Y-79830800D01*
X162153800Y-60646800D02*
X162153800Y-59316800D01*
X160823800Y-60646800D02*
X162153800Y-60646800D01*
X159553800Y-60646800D02*
X159553800Y-57986800D01*
X159553800Y-57986800D02*
X151873800Y-57986800D01*
X159553800Y-60646800D02*
X151873800Y-60646800D01*
X151873800Y-60646800D02*
X151873800Y-57986800D01*
X101955800Y-60646800D02*
X101955800Y-59316800D01*
X100625800Y-60646800D02*
X101955800Y-60646800D01*
X99355800Y-60646800D02*
X99355800Y-57986800D01*
X99355800Y-57986800D02*
X91675800Y-57986800D01*
X99355800Y-60646800D02*
X91675800Y-60646800D01*
X91675800Y-60646800D02*
X91675800Y-57986800D01*
X162153800Y-38802800D02*
X162153800Y-37472800D01*
X160823800Y-38802800D02*
X162153800Y-38802800D01*
X159553800Y-38802800D02*
X159553800Y-36142800D01*
X159553800Y-36142800D02*
X151873800Y-36142800D01*
X159553800Y-38802800D02*
X151873800Y-38802800D01*
X151873800Y-38802800D02*
X151873800Y-36142800D01*
G04 #@! TO.C,RV1*
X114495800Y-41602800D02*
X109910800Y-41602800D01*
X106639800Y-41602800D02*
X87110800Y-41602800D01*
X83839800Y-41602800D02*
X79255800Y-41602800D01*
X114495800Y-50842800D02*
X111110800Y-50842800D01*
X107839800Y-50842800D02*
X85910800Y-50842800D01*
X82639800Y-50842800D02*
X79255800Y-50842800D01*
X114495800Y-41602800D02*
X114495800Y-43297800D01*
X114495800Y-45647800D02*
X114495800Y-47517800D01*
X114495800Y-48428800D02*
X114495800Y-50842800D01*
X79255800Y-41602800D02*
X79255800Y-44016800D01*
X79255800Y-44928800D02*
X79255800Y-50842800D01*
X114550800Y-44472800D02*
X115050800Y-43972800D01*
X115050800Y-43972800D02*
X115050800Y-44972800D01*
X115050800Y-44972800D02*
X114550800Y-44472800D01*
X106875800Y-46222800D02*
X86875800Y-46222800D01*
X106875800Y-44722800D02*
X106875800Y-47722800D01*
X106125800Y-45472800D02*
X106875800Y-46222800D01*
X106875800Y-46222800D02*
X106125800Y-46972800D01*
X86875800Y-44722800D02*
X86875800Y-47722800D01*
X87625800Y-45472800D02*
X86875800Y-46222800D01*
X86875800Y-46222800D02*
X87625800Y-46972800D01*
D12*
G04 #@! TO.C,U2*
X136859781Y-56184800D02*
G75*
G03X136859781Y-56184800I-283981J0D01*
G01*
D11*
X136721800Y-37278800D02*
X136721800Y-55278800D01*
X142721800Y-55278800D02*
X117221800Y-55278800D01*
X142721800Y-37278800D02*
X117221800Y-37278800D01*
X117221800Y-37278800D02*
X117221800Y-55278800D01*
X142721800Y-37278800D02*
X142721800Y-55278800D01*
D13*
G04 #@! TO.C,J2*
X91675800Y-38802800D02*
X91675800Y-36142800D01*
X99355800Y-38802800D02*
X91675800Y-38802800D01*
X99355800Y-36142800D02*
X91675800Y-36142800D01*
X99355800Y-38802800D02*
X99355800Y-36142800D01*
X100625800Y-38802800D02*
X101955800Y-38802800D01*
X101955800Y-38802800D02*
X101955800Y-37472800D01*
G04 #@! TO.C,U2*
D11*
X198639180Y-121335895D02*
X199448704Y-121335895D01*
X199543942Y-121383514D01*
X199591561Y-121431133D01*
X199639180Y-121526371D01*
X199639180Y-121716847D01*
X199591561Y-121812085D01*
X199543942Y-121859704D01*
X199448704Y-121907323D01*
X198639180Y-121907323D01*
X198734419Y-122335895D02*
X198686800Y-122383514D01*
X198639180Y-122478752D01*
X198639180Y-122716847D01*
X198686800Y-122812085D01*
X198734419Y-122859704D01*
X198829657Y-122907323D01*
X198924895Y-122907323D01*
X199067752Y-122859704D01*
X199639180Y-122288276D01*
X199639180Y-122907323D01*
X138441180Y-121335895D02*
X139250704Y-121335895D01*
X139345942Y-121383514D01*
X139393561Y-121431133D01*
X139441180Y-121526371D01*
X139441180Y-121716847D01*
X139393561Y-121812085D01*
X139345942Y-121859704D01*
X139250704Y-121907323D01*
X138441180Y-121907323D01*
X138536419Y-122335895D02*
X138488800Y-122383514D01*
X138441180Y-122478752D01*
X138441180Y-122716847D01*
X138488800Y-122812085D01*
X138536419Y-122859704D01*
X138631657Y-122907323D01*
X138726895Y-122907323D01*
X138869752Y-122859704D01*
X139441180Y-122288276D01*
X139441180Y-122907323D01*
X198639180Y-99491895D02*
X199448704Y-99491895D01*
X199543942Y-99539514D01*
X199591561Y-99587133D01*
X199639180Y-99682371D01*
X199639180Y-99872847D01*
X199591561Y-99968085D01*
X199543942Y-100015704D01*
X199448704Y-100063323D01*
X198639180Y-100063323D01*
X198734419Y-100491895D02*
X198686800Y-100539514D01*
X198639180Y-100634752D01*
X198639180Y-100872847D01*
X198686800Y-100968085D01*
X198734419Y-101015704D01*
X198829657Y-101063323D01*
X198924895Y-101063323D01*
X199067752Y-101015704D01*
X199639180Y-100444276D01*
X199639180Y-101063323D01*
X138441180Y-99491895D02*
X139250704Y-99491895D01*
X139345942Y-99539514D01*
X139393561Y-99587133D01*
X139441180Y-99682371D01*
X139441180Y-99872847D01*
X139393561Y-99968085D01*
X139345942Y-100015704D01*
X139250704Y-100063323D01*
X138441180Y-100063323D01*
X138536419Y-100491895D02*
X138488800Y-100539514D01*
X138441180Y-100634752D01*
X138441180Y-100872847D01*
X138488800Y-100968085D01*
X138536419Y-101015704D01*
X138631657Y-101063323D01*
X138726895Y-101063323D01*
X138869752Y-101015704D01*
X139441180Y-100444276D01*
X139441180Y-101063323D01*
X198639180Y-77647895D02*
X199448704Y-77647895D01*
X199543942Y-77695514D01*
X199591561Y-77743133D01*
X199639180Y-77838371D01*
X199639180Y-78028847D01*
X199591561Y-78124085D01*
X199543942Y-78171704D01*
X199448704Y-78219323D01*
X198639180Y-78219323D01*
X198734419Y-78647895D02*
X198686800Y-78695514D01*
X198639180Y-78790752D01*
X198639180Y-79028847D01*
X198686800Y-79124085D01*
X198734419Y-79171704D01*
X198829657Y-79219323D01*
X198924895Y-79219323D01*
X199067752Y-79171704D01*
X199639180Y-78600276D01*
X199639180Y-79219323D01*
X138441180Y-77647895D02*
X139250704Y-77647895D01*
X139345942Y-77695514D01*
X139393561Y-77743133D01*
X139441180Y-77838371D01*
X139441180Y-78028847D01*
X139393561Y-78124085D01*
X139345942Y-78171704D01*
X139250704Y-78219323D01*
X138441180Y-78219323D01*
X138536419Y-78647895D02*
X138488800Y-78695514D01*
X138441180Y-78790752D01*
X138441180Y-79028847D01*
X138488800Y-79124085D01*
X138536419Y-79171704D01*
X138631657Y-79219323D01*
X138726895Y-79219323D01*
X138869752Y-79171704D01*
X139441180Y-78600276D01*
X139441180Y-79219323D01*
X198639180Y-55803895D02*
X199448704Y-55803895D01*
X199543942Y-55851514D01*
X199591561Y-55899133D01*
X199639180Y-55994371D01*
X199639180Y-56184847D01*
X199591561Y-56280085D01*
X199543942Y-56327704D01*
X199448704Y-56375323D01*
X198639180Y-56375323D01*
X198734419Y-56803895D02*
X198686800Y-56851514D01*
X198639180Y-56946752D01*
X198639180Y-57184847D01*
X198686800Y-57280085D01*
X198734419Y-57327704D01*
X198829657Y-57375323D01*
X198924895Y-57375323D01*
X199067752Y-57327704D01*
X199639180Y-56756276D01*
X199639180Y-57375323D01*
X138441180Y-55803895D02*
X139250704Y-55803895D01*
X139345942Y-55851514D01*
X139393561Y-55899133D01*
X139441180Y-55994371D01*
X139441180Y-56184847D01*
X139393561Y-56280085D01*
X139345942Y-56327704D01*
X139250704Y-56375323D01*
X138441180Y-56375323D01*
X138536419Y-56803895D02*
X138488800Y-56851514D01*
X138441180Y-56946752D01*
X138441180Y-57184847D01*
X138488800Y-57280085D01*
X138536419Y-57327704D01*
X138631657Y-57375323D01*
X138726895Y-57375323D01*
X138869752Y-57327704D01*
X139441180Y-56756276D01*
X139441180Y-57375323D01*
X198639180Y-33959895D02*
X199448704Y-33959895D01*
X199543942Y-34007514D01*
X199591561Y-34055133D01*
X199639180Y-34150371D01*
X199639180Y-34340847D01*
X199591561Y-34436085D01*
X199543942Y-34483704D01*
X199448704Y-34531323D01*
X198639180Y-34531323D01*
X198734419Y-34959895D02*
X198686800Y-35007514D01*
X198639180Y-35102752D01*
X198639180Y-35340847D01*
X198686800Y-35436085D01*
X198734419Y-35483704D01*
X198829657Y-35531323D01*
X198924895Y-35531323D01*
X199067752Y-35483704D01*
X199639180Y-34912276D01*
X199639180Y-35531323D01*
G04 #@! TO.C,RV1*
X157669038Y-128301180D02*
X158002371Y-127824990D01*
X158240466Y-128301180D02*
X158240466Y-127301180D01*
X157859514Y-127301180D01*
X157764276Y-127348800D01*
X157716657Y-127396419D01*
X157669038Y-127491657D01*
X157669038Y-127634514D01*
X157716657Y-127729752D01*
X157764276Y-127777371D01*
X157859514Y-127824990D01*
X158240466Y-127824990D01*
X157383323Y-127301180D02*
X157049990Y-128301180D01*
X156716657Y-127301180D01*
X155859514Y-128301180D02*
X156430942Y-128301180D01*
X156145228Y-128301180D02*
X156145228Y-127301180D01*
X156240466Y-127444038D01*
X156335704Y-127539276D01*
X156430942Y-127586895D01*
X97471038Y-128301180D02*
X97804371Y-127824990D01*
X98042466Y-128301180D02*
X98042466Y-127301180D01*
X97661514Y-127301180D01*
X97566276Y-127348800D01*
X97518657Y-127396419D01*
X97471038Y-127491657D01*
X97471038Y-127634514D01*
X97518657Y-127729752D01*
X97566276Y-127777371D01*
X97661514Y-127824990D01*
X98042466Y-127824990D01*
X97185323Y-127301180D02*
X96851990Y-128301180D01*
X96518657Y-127301180D01*
X95661514Y-128301180D02*
X96232942Y-128301180D01*
X95947228Y-128301180D02*
X95947228Y-127301180D01*
X96042466Y-127444038D01*
X96137704Y-127539276D01*
X96232942Y-127586895D01*
X157669038Y-106457180D02*
X158002371Y-105980990D01*
X158240466Y-106457180D02*
X158240466Y-105457180D01*
X157859514Y-105457180D01*
X157764276Y-105504800D01*
X157716657Y-105552419D01*
X157669038Y-105647657D01*
X157669038Y-105790514D01*
X157716657Y-105885752D01*
X157764276Y-105933371D01*
X157859514Y-105980990D01*
X158240466Y-105980990D01*
X157383323Y-105457180D02*
X157049990Y-106457180D01*
X156716657Y-105457180D01*
X155859514Y-106457180D02*
X156430942Y-106457180D01*
X156145228Y-106457180D02*
X156145228Y-105457180D01*
X156240466Y-105600038D01*
X156335704Y-105695276D01*
X156430942Y-105742895D01*
X97471038Y-106457180D02*
X97804371Y-105980990D01*
X98042466Y-106457180D02*
X98042466Y-105457180D01*
X97661514Y-105457180D01*
X97566276Y-105504800D01*
X97518657Y-105552419D01*
X97471038Y-105647657D01*
X97471038Y-105790514D01*
X97518657Y-105885752D01*
X97566276Y-105933371D01*
X97661514Y-105980990D01*
X98042466Y-105980990D01*
X97185323Y-105457180D02*
X96851990Y-106457180D01*
X96518657Y-105457180D01*
X95661514Y-106457180D02*
X96232942Y-106457180D01*
X95947228Y-106457180D02*
X95947228Y-105457180D01*
X96042466Y-105600038D01*
X96137704Y-105695276D01*
X96232942Y-105742895D01*
X157669038Y-84613180D02*
X158002371Y-84136990D01*
X158240466Y-84613180D02*
X158240466Y-83613180D01*
X157859514Y-83613180D01*
X157764276Y-83660800D01*
X157716657Y-83708419D01*
X157669038Y-83803657D01*
X157669038Y-83946514D01*
X157716657Y-84041752D01*
X157764276Y-84089371D01*
X157859514Y-84136990D01*
X158240466Y-84136990D01*
X157383323Y-83613180D02*
X157049990Y-84613180D01*
X156716657Y-83613180D01*
X155859514Y-84613180D02*
X156430942Y-84613180D01*
X156145228Y-84613180D02*
X156145228Y-83613180D01*
X156240466Y-83756038D01*
X156335704Y-83851276D01*
X156430942Y-83898895D01*
X97471038Y-84613180D02*
X97804371Y-84136990D01*
X98042466Y-84613180D02*
X98042466Y-83613180D01*
X97661514Y-83613180D01*
X97566276Y-83660800D01*
X97518657Y-83708419D01*
X97471038Y-83803657D01*
X97471038Y-83946514D01*
X97518657Y-84041752D01*
X97566276Y-84089371D01*
X97661514Y-84136990D01*
X98042466Y-84136990D01*
X97185323Y-83613180D02*
X96851990Y-84613180D01*
X96518657Y-83613180D01*
X95661514Y-84613180D02*
X96232942Y-84613180D01*
X95947228Y-84613180D02*
X95947228Y-83613180D01*
X96042466Y-83756038D01*
X96137704Y-83851276D01*
X96232942Y-83898895D01*
X157669038Y-62769180D02*
X158002371Y-62292990D01*
X158240466Y-62769180D02*
X158240466Y-61769180D01*
X157859514Y-61769180D01*
X157764276Y-61816800D01*
X157716657Y-61864419D01*
X157669038Y-61959657D01*
X157669038Y-62102514D01*
X157716657Y-62197752D01*
X157764276Y-62245371D01*
X157859514Y-62292990D01*
X158240466Y-62292990D01*
X157383323Y-61769180D02*
X157049990Y-62769180D01*
X156716657Y-61769180D01*
X155859514Y-62769180D02*
X156430942Y-62769180D01*
X156145228Y-62769180D02*
X156145228Y-61769180D01*
X156240466Y-61912038D01*
X156335704Y-62007276D01*
X156430942Y-62054895D01*
X97471038Y-62769180D02*
X97804371Y-62292990D01*
X98042466Y-62769180D02*
X98042466Y-61769180D01*
X97661514Y-61769180D01*
X97566276Y-61816800D01*
X97518657Y-61864419D01*
X97471038Y-61959657D01*
X97471038Y-62102514D01*
X97518657Y-62197752D01*
X97566276Y-62245371D01*
X97661514Y-62292990D01*
X98042466Y-62292990D01*
X97185323Y-61769180D02*
X96851990Y-62769180D01*
X96518657Y-61769180D01*
X95661514Y-62769180D02*
X96232942Y-62769180D01*
X95947228Y-62769180D02*
X95947228Y-61769180D01*
X96042466Y-61912038D01*
X96137704Y-62007276D01*
X96232942Y-62054895D01*
X157669038Y-40925180D02*
X158002371Y-40448990D01*
X158240466Y-40925180D02*
X158240466Y-39925180D01*
X157859514Y-39925180D01*
X157764276Y-39972800D01*
X157716657Y-40020419D01*
X157669038Y-40115657D01*
X157669038Y-40258514D01*
X157716657Y-40353752D01*
X157764276Y-40401371D01*
X157859514Y-40448990D01*
X158240466Y-40448990D01*
X157383323Y-39925180D02*
X157049990Y-40925180D01*
X156716657Y-39925180D01*
X155859514Y-40925180D02*
X156430942Y-40925180D01*
X156145228Y-40925180D02*
X156145228Y-39925180D01*
X156240466Y-40068038D01*
X156335704Y-40163276D01*
X156430942Y-40210895D01*
X97471038Y-40925180D02*
X97804371Y-40448990D01*
X98042466Y-40925180D02*
X98042466Y-39925180D01*
X97661514Y-39925180D01*
X97566276Y-39972800D01*
X97518657Y-40020419D01*
X97471038Y-40115657D01*
X97471038Y-40258514D01*
X97518657Y-40353752D01*
X97566276Y-40401371D01*
X97661514Y-40448990D01*
X98042466Y-40448990D01*
X97185323Y-39925180D02*
X96851990Y-40925180D01*
X96518657Y-39925180D01*
X95661514Y-40925180D02*
X96232942Y-40925180D01*
X95947228Y-40925180D02*
X95947228Y-39925180D01*
X96042466Y-40068038D01*
X96137704Y-40163276D01*
X96232942Y-40210895D01*
G04 #@! TO.C,U2*
X138441180Y-33959895D02*
X139250704Y-33959895D01*
X139345942Y-34007514D01*
X139393561Y-34055133D01*
X139441180Y-34150371D01*
X139441180Y-34340847D01*
X139393561Y-34436085D01*
X139345942Y-34483704D01*
X139250704Y-34531323D01*
X138441180Y-34531323D01*
X138536419Y-34959895D02*
X138488800Y-35007514D01*
X138441180Y-35102752D01*
X138441180Y-35340847D01*
X138488800Y-35436085D01*
X138536419Y-35483704D01*
X138631657Y-35531323D01*
X138726895Y-35531323D01*
X138869752Y-35483704D01*
X139441180Y-34912276D01*
X139441180Y-35531323D01*
G04 #@! TD*
M02*
