G04 #@! TF.GenerationSoftware,KiCad,Pcbnew,5.0.2-bee76a0~70~ubuntu18.04.1*
G04 #@! TF.CreationDate,2019-05-14T10:35:03+02:00*
G04 #@! TF.ProjectId,m3_2x5_panel,6d335f32-7835-45f7-9061-6e656c2e6b69,rev?*
G04 #@! TF.SameCoordinates,Original*
G04 #@! TF.FileFunction,Other,Comment*
%FSLAX46Y46*%
G04 Gerber Fmt 4.6, Leading zero omitted, Abs format (unit mm)*
G04 Created by KiCad (PCBNEW 5.0.2-bee76a0~70~ubuntu18.04.1) date Di 14 Mai 2019 10:35:03 CEST*
%MOMM*%
%LPD*%
G01*
G04 APERTURE LIST*
%ADD10C,0.200000*%
%ADD11C,0.300000*%
%ADD12C,0.150000*%
G04 APERTURE END LIST*
D10*
X70612000Y-122783600D02*
X208000600Y-122732800D01*
X70612000Y-100939600D02*
X208000600Y-100888800D01*
X70612000Y-79095600D02*
X208000600Y-79044800D01*
D11*
X201289885Y-120539771D02*
X201789885Y-122039771D01*
X202289885Y-120539771D01*
X202789885Y-121468342D02*
X203932742Y-121468342D01*
X205504171Y-121896914D02*
X205432742Y-121968342D01*
X205218457Y-122039771D01*
X205075600Y-122039771D01*
X204861314Y-121968342D01*
X204718457Y-121825485D01*
X204647028Y-121682628D01*
X204575600Y-121396914D01*
X204575600Y-121182628D01*
X204647028Y-120896914D01*
X204718457Y-120754057D01*
X204861314Y-120611200D01*
X205075600Y-120539771D01*
X205218457Y-120539771D01*
X205432742Y-120611200D01*
X205504171Y-120682628D01*
X206147028Y-120539771D02*
X206147028Y-121754057D01*
X206218457Y-121896914D01*
X206289885Y-121968342D01*
X206432742Y-122039771D01*
X206718457Y-122039771D01*
X206861314Y-121968342D01*
X206932742Y-121896914D01*
X207004171Y-121754057D01*
X207004171Y-120539771D01*
X207504171Y-120539771D02*
X208361314Y-120539771D01*
X207932742Y-122039771D02*
X207932742Y-120539771D01*
X201289885Y-98695771D02*
X201789885Y-100195771D01*
X202289885Y-98695771D01*
X202789885Y-99624342D02*
X203932742Y-99624342D01*
X205504171Y-100052914D02*
X205432742Y-100124342D01*
X205218457Y-100195771D01*
X205075600Y-100195771D01*
X204861314Y-100124342D01*
X204718457Y-99981485D01*
X204647028Y-99838628D01*
X204575600Y-99552914D01*
X204575600Y-99338628D01*
X204647028Y-99052914D01*
X204718457Y-98910057D01*
X204861314Y-98767200D01*
X205075600Y-98695771D01*
X205218457Y-98695771D01*
X205432742Y-98767200D01*
X205504171Y-98838628D01*
X206147028Y-98695771D02*
X206147028Y-99910057D01*
X206218457Y-100052914D01*
X206289885Y-100124342D01*
X206432742Y-100195771D01*
X206718457Y-100195771D01*
X206861314Y-100124342D01*
X206932742Y-100052914D01*
X207004171Y-99910057D01*
X207004171Y-98695771D01*
X207504171Y-98695771D02*
X208361314Y-98695771D01*
X207932742Y-100195771D02*
X207932742Y-98695771D01*
X201289885Y-76851771D02*
X201789885Y-78351771D01*
X202289885Y-76851771D01*
X202789885Y-77780342D02*
X203932742Y-77780342D01*
X205504171Y-78208914D02*
X205432742Y-78280342D01*
X205218457Y-78351771D01*
X205075600Y-78351771D01*
X204861314Y-78280342D01*
X204718457Y-78137485D01*
X204647028Y-77994628D01*
X204575600Y-77708914D01*
X204575600Y-77494628D01*
X204647028Y-77208914D01*
X204718457Y-77066057D01*
X204861314Y-76923200D01*
X205075600Y-76851771D01*
X205218457Y-76851771D01*
X205432742Y-76923200D01*
X205504171Y-76994628D01*
X206147028Y-76851771D02*
X206147028Y-78066057D01*
X206218457Y-78208914D01*
X206289885Y-78280342D01*
X206432742Y-78351771D01*
X206718457Y-78351771D01*
X206861314Y-78280342D01*
X206932742Y-78208914D01*
X207004171Y-78066057D01*
X207004171Y-76851771D01*
X207504171Y-76851771D02*
X208361314Y-76851771D01*
X207932742Y-78351771D02*
X207932742Y-76851771D01*
X134789171Y-32720314D02*
X136289171Y-32220314D01*
X134789171Y-31720314D01*
X135717742Y-31220314D02*
X135717742Y-30077457D01*
X136146314Y-28506028D02*
X136217742Y-28577457D01*
X136289171Y-28791742D01*
X136289171Y-28934600D01*
X136217742Y-29148885D01*
X136074885Y-29291742D01*
X135932028Y-29363171D01*
X135646314Y-29434600D01*
X135432028Y-29434600D01*
X135146314Y-29363171D01*
X135003457Y-29291742D01*
X134860600Y-29148885D01*
X134789171Y-28934600D01*
X134789171Y-28791742D01*
X134860600Y-28577457D01*
X134932028Y-28506028D01*
X134789171Y-27863171D02*
X136003457Y-27863171D01*
X136146314Y-27791742D01*
X136217742Y-27720314D01*
X136289171Y-27577457D01*
X136289171Y-27291742D01*
X136217742Y-27148885D01*
X136146314Y-27077457D01*
X136003457Y-27006028D01*
X134789171Y-27006028D01*
X134789171Y-26506028D02*
X134789171Y-25648885D01*
X136289171Y-26077457D02*
X134789171Y-26077457D01*
X201289885Y-55007771D02*
X201789885Y-56507771D01*
X202289885Y-55007771D01*
X202789885Y-55936342D02*
X203932742Y-55936342D01*
X205504171Y-56364914D02*
X205432742Y-56436342D01*
X205218457Y-56507771D01*
X205075600Y-56507771D01*
X204861314Y-56436342D01*
X204718457Y-56293485D01*
X204647028Y-56150628D01*
X204575600Y-55864914D01*
X204575600Y-55650628D01*
X204647028Y-55364914D01*
X204718457Y-55222057D01*
X204861314Y-55079200D01*
X205075600Y-55007771D01*
X205218457Y-55007771D01*
X205432742Y-55079200D01*
X205504171Y-55150628D01*
X206147028Y-55007771D02*
X206147028Y-56222057D01*
X206218457Y-56364914D01*
X206289885Y-56436342D01*
X206432742Y-56507771D01*
X206718457Y-56507771D01*
X206861314Y-56436342D01*
X206932742Y-56364914D01*
X207004171Y-56222057D01*
X207004171Y-55007771D01*
X207504171Y-55007771D02*
X208361314Y-55007771D01*
X207932742Y-56507771D02*
X207932742Y-55007771D01*
D10*
X70612000Y-57251600D02*
X208000600Y-57200800D01*
X137033000Y-29133800D02*
X136982200Y-160807400D01*
D12*
G04 #@! TO.C,REF\002A\002A*
X146984800Y-141808200D02*
G75*
G03X146984800Y-141808200I-1900000J0D01*
G01*
X86786800Y-141808200D02*
G75*
G03X86786800Y-141808200I-1900000J0D01*
G01*
X146984800Y-119964200D02*
G75*
G03X146984800Y-119964200I-1900000J0D01*
G01*
X86786800Y-119964200D02*
G75*
G03X86786800Y-119964200I-1900000J0D01*
G01*
X146984800Y-98120200D02*
G75*
G03X146984800Y-98120200I-1900000J0D01*
G01*
X86786800Y-98120200D02*
G75*
G03X86786800Y-98120200I-1900000J0D01*
G01*
X146984800Y-76276200D02*
G75*
G03X146984800Y-76276200I-1900000J0D01*
G01*
X86786800Y-76276200D02*
G75*
G03X86786800Y-76276200I-1900000J0D01*
G01*
X146984800Y-54432200D02*
G75*
G03X146984800Y-54432200I-1900000J0D01*
G01*
X150540800Y-125044200D02*
G75*
G03X150540800Y-125044200I-1900000J0D01*
G01*
X90342800Y-125044200D02*
G75*
G03X90342800Y-125044200I-1900000J0D01*
G01*
X150540800Y-103200200D02*
G75*
G03X150540800Y-103200200I-1900000J0D01*
G01*
X90342800Y-103200200D02*
G75*
G03X90342800Y-103200200I-1900000J0D01*
G01*
X150540800Y-81356200D02*
G75*
G03X150540800Y-81356200I-1900000J0D01*
G01*
X90342800Y-81356200D02*
G75*
G03X90342800Y-81356200I-1900000J0D01*
G01*
X150540800Y-59512200D02*
G75*
G03X150540800Y-59512200I-1900000J0D01*
G01*
X90342800Y-59512200D02*
G75*
G03X90342800Y-59512200I-1900000J0D01*
G01*
X150540800Y-37668200D02*
G75*
G03X150540800Y-37668200I-1900000J0D01*
G01*
X174670800Y-142062200D02*
G75*
G03X174670800Y-142062200I-1900000J0D01*
G01*
X114472800Y-142062200D02*
G75*
G03X114472800Y-142062200I-1900000J0D01*
G01*
X174670800Y-120218200D02*
G75*
G03X174670800Y-120218200I-1900000J0D01*
G01*
X114472800Y-120218200D02*
G75*
G03X114472800Y-120218200I-1900000J0D01*
G01*
X174670800Y-98374200D02*
G75*
G03X174670800Y-98374200I-1900000J0D01*
G01*
X114472800Y-98374200D02*
G75*
G03X114472800Y-98374200I-1900000J0D01*
G01*
X174670800Y-76530200D02*
G75*
G03X174670800Y-76530200I-1900000J0D01*
G01*
X114472800Y-76530200D02*
G75*
G03X114472800Y-76530200I-1900000J0D01*
G01*
X174670800Y-54686200D02*
G75*
G03X174670800Y-54686200I-1900000J0D01*
G01*
X90342800Y-37668200D02*
G75*
G03X90342800Y-37668200I-1900000J0D01*
G01*
X86786800Y-54432200D02*
G75*
G03X86786800Y-54432200I-1900000J0D01*
G01*
X114472800Y-54686200D02*
G75*
G03X114472800Y-54686200I-1900000J0D01*
G01*
G04 #@! TD*
M02*
