G04 #@! TF.GenerationSoftware,KiCad,Pcbnew,5.0.2-bee76a0~70~ubuntu18.04.1*
G04 #@! TF.CreationDate,2019-05-17T22:11:45+02:00*
G04 #@! TF.ProjectId,m3_2x5_panel,6d335f32-7835-45f7-9061-6e656c2e6b69,rev?*
G04 #@! TF.SameCoordinates,Original*
G04 #@! TF.FileFunction,Paste,Bot*
G04 #@! TF.FilePolarity,Positive*
%FSLAX46Y46*%
G04 Gerber Fmt 4.6, Leading zero omitted, Abs format (unit mm)*
G04 Created by KiCad (PCBNEW 5.0.2-bee76a0~70~ubuntu18.04.1) date Fr 17 Mai 2019 22:11:45 CEST*
%MOMM*%
%LPD*%
G01*
G04 APERTURE LIST*
%ADD10R,6.000000X6.000000*%
%ADD11O,0.900000X2.500000*%
%ADD12O,2.500000X0.900000*%
G04 APERTURE END LIST*
D10*
G04 #@! TO.C,U2*
X187719800Y-133954800D03*
D11*
X195419800Y-142654800D03*
X194149800Y-142654800D03*
X192879800Y-142654800D03*
X191609800Y-142654800D03*
X190339800Y-142654800D03*
X189069800Y-142654800D03*
X187799800Y-142654800D03*
X186529800Y-142654800D03*
X185259800Y-142654800D03*
X183989800Y-142654800D03*
X182719800Y-142654800D03*
X181449800Y-142654800D03*
X180179800Y-142654800D03*
X178909800Y-142654800D03*
D12*
X177419800Y-139369800D03*
X177419800Y-138099800D03*
X177419800Y-136829800D03*
X177419800Y-135559800D03*
X177419800Y-134289800D03*
X177419800Y-133019800D03*
X177419800Y-131749800D03*
X177419800Y-130479800D03*
X177419800Y-129209800D03*
X177419800Y-127939800D03*
D11*
X178909800Y-124654800D03*
X180179800Y-124654800D03*
X181449800Y-124654800D03*
X182719800Y-124654800D03*
X183989800Y-124654800D03*
X185259800Y-124654800D03*
X186529800Y-124654800D03*
X187799800Y-124654800D03*
X189069800Y-124654800D03*
X190339800Y-124654800D03*
X191609800Y-124654800D03*
X192879800Y-124654800D03*
X194149800Y-124654800D03*
X195419800Y-124654800D03*
G04 #@! TD*
D10*
G04 #@! TO.C,U2*
X127521800Y-133954800D03*
D11*
X135221800Y-142654800D03*
X133951800Y-142654800D03*
X132681800Y-142654800D03*
X131411800Y-142654800D03*
X130141800Y-142654800D03*
X128871800Y-142654800D03*
X127601800Y-142654800D03*
X126331800Y-142654800D03*
X125061800Y-142654800D03*
X123791800Y-142654800D03*
X122521800Y-142654800D03*
X121251800Y-142654800D03*
X119981800Y-142654800D03*
X118711800Y-142654800D03*
D12*
X117221800Y-139369800D03*
X117221800Y-138099800D03*
X117221800Y-136829800D03*
X117221800Y-135559800D03*
X117221800Y-134289800D03*
X117221800Y-133019800D03*
X117221800Y-131749800D03*
X117221800Y-130479800D03*
X117221800Y-129209800D03*
X117221800Y-127939800D03*
D11*
X118711800Y-124654800D03*
X119981800Y-124654800D03*
X121251800Y-124654800D03*
X122521800Y-124654800D03*
X123791800Y-124654800D03*
X125061800Y-124654800D03*
X126331800Y-124654800D03*
X127601800Y-124654800D03*
X128871800Y-124654800D03*
X130141800Y-124654800D03*
X131411800Y-124654800D03*
X132681800Y-124654800D03*
X133951800Y-124654800D03*
X135221800Y-124654800D03*
G04 #@! TD*
D10*
G04 #@! TO.C,U2*
X187719800Y-112110800D03*
D11*
X195419800Y-120810800D03*
X194149800Y-120810800D03*
X192879800Y-120810800D03*
X191609800Y-120810800D03*
X190339800Y-120810800D03*
X189069800Y-120810800D03*
X187799800Y-120810800D03*
X186529800Y-120810800D03*
X185259800Y-120810800D03*
X183989800Y-120810800D03*
X182719800Y-120810800D03*
X181449800Y-120810800D03*
X180179800Y-120810800D03*
X178909800Y-120810800D03*
D12*
X177419800Y-117525800D03*
X177419800Y-116255800D03*
X177419800Y-114985800D03*
X177419800Y-113715800D03*
X177419800Y-112445800D03*
X177419800Y-111175800D03*
X177419800Y-109905800D03*
X177419800Y-108635800D03*
X177419800Y-107365800D03*
X177419800Y-106095800D03*
D11*
X178909800Y-102810800D03*
X180179800Y-102810800D03*
X181449800Y-102810800D03*
X182719800Y-102810800D03*
X183989800Y-102810800D03*
X185259800Y-102810800D03*
X186529800Y-102810800D03*
X187799800Y-102810800D03*
X189069800Y-102810800D03*
X190339800Y-102810800D03*
X191609800Y-102810800D03*
X192879800Y-102810800D03*
X194149800Y-102810800D03*
X195419800Y-102810800D03*
G04 #@! TD*
D10*
G04 #@! TO.C,U2*
X127521800Y-112110800D03*
D11*
X135221800Y-120810800D03*
X133951800Y-120810800D03*
X132681800Y-120810800D03*
X131411800Y-120810800D03*
X130141800Y-120810800D03*
X128871800Y-120810800D03*
X127601800Y-120810800D03*
X126331800Y-120810800D03*
X125061800Y-120810800D03*
X123791800Y-120810800D03*
X122521800Y-120810800D03*
X121251800Y-120810800D03*
X119981800Y-120810800D03*
X118711800Y-120810800D03*
D12*
X117221800Y-117525800D03*
X117221800Y-116255800D03*
X117221800Y-114985800D03*
X117221800Y-113715800D03*
X117221800Y-112445800D03*
X117221800Y-111175800D03*
X117221800Y-109905800D03*
X117221800Y-108635800D03*
X117221800Y-107365800D03*
X117221800Y-106095800D03*
D11*
X118711800Y-102810800D03*
X119981800Y-102810800D03*
X121251800Y-102810800D03*
X122521800Y-102810800D03*
X123791800Y-102810800D03*
X125061800Y-102810800D03*
X126331800Y-102810800D03*
X127601800Y-102810800D03*
X128871800Y-102810800D03*
X130141800Y-102810800D03*
X131411800Y-102810800D03*
X132681800Y-102810800D03*
X133951800Y-102810800D03*
X135221800Y-102810800D03*
G04 #@! TD*
D10*
G04 #@! TO.C,U2*
X187719800Y-90266800D03*
D11*
X195419800Y-98966800D03*
X194149800Y-98966800D03*
X192879800Y-98966800D03*
X191609800Y-98966800D03*
X190339800Y-98966800D03*
X189069800Y-98966800D03*
X187799800Y-98966800D03*
X186529800Y-98966800D03*
X185259800Y-98966800D03*
X183989800Y-98966800D03*
X182719800Y-98966800D03*
X181449800Y-98966800D03*
X180179800Y-98966800D03*
X178909800Y-98966800D03*
D12*
X177419800Y-95681800D03*
X177419800Y-94411800D03*
X177419800Y-93141800D03*
X177419800Y-91871800D03*
X177419800Y-90601800D03*
X177419800Y-89331800D03*
X177419800Y-88061800D03*
X177419800Y-86791800D03*
X177419800Y-85521800D03*
X177419800Y-84251800D03*
D11*
X178909800Y-80966800D03*
X180179800Y-80966800D03*
X181449800Y-80966800D03*
X182719800Y-80966800D03*
X183989800Y-80966800D03*
X185259800Y-80966800D03*
X186529800Y-80966800D03*
X187799800Y-80966800D03*
X189069800Y-80966800D03*
X190339800Y-80966800D03*
X191609800Y-80966800D03*
X192879800Y-80966800D03*
X194149800Y-80966800D03*
X195419800Y-80966800D03*
G04 #@! TD*
D10*
G04 #@! TO.C,U2*
X127521800Y-90266800D03*
D11*
X135221800Y-98966800D03*
X133951800Y-98966800D03*
X132681800Y-98966800D03*
X131411800Y-98966800D03*
X130141800Y-98966800D03*
X128871800Y-98966800D03*
X127601800Y-98966800D03*
X126331800Y-98966800D03*
X125061800Y-98966800D03*
X123791800Y-98966800D03*
X122521800Y-98966800D03*
X121251800Y-98966800D03*
X119981800Y-98966800D03*
X118711800Y-98966800D03*
D12*
X117221800Y-95681800D03*
X117221800Y-94411800D03*
X117221800Y-93141800D03*
X117221800Y-91871800D03*
X117221800Y-90601800D03*
X117221800Y-89331800D03*
X117221800Y-88061800D03*
X117221800Y-86791800D03*
X117221800Y-85521800D03*
X117221800Y-84251800D03*
D11*
X118711800Y-80966800D03*
X119981800Y-80966800D03*
X121251800Y-80966800D03*
X122521800Y-80966800D03*
X123791800Y-80966800D03*
X125061800Y-80966800D03*
X126331800Y-80966800D03*
X127601800Y-80966800D03*
X128871800Y-80966800D03*
X130141800Y-80966800D03*
X131411800Y-80966800D03*
X132681800Y-80966800D03*
X133951800Y-80966800D03*
X135221800Y-80966800D03*
G04 #@! TD*
D10*
G04 #@! TO.C,U2*
X187719800Y-68422800D03*
D11*
X195419800Y-77122800D03*
X194149800Y-77122800D03*
X192879800Y-77122800D03*
X191609800Y-77122800D03*
X190339800Y-77122800D03*
X189069800Y-77122800D03*
X187799800Y-77122800D03*
X186529800Y-77122800D03*
X185259800Y-77122800D03*
X183989800Y-77122800D03*
X182719800Y-77122800D03*
X181449800Y-77122800D03*
X180179800Y-77122800D03*
X178909800Y-77122800D03*
D12*
X177419800Y-73837800D03*
X177419800Y-72567800D03*
X177419800Y-71297800D03*
X177419800Y-70027800D03*
X177419800Y-68757800D03*
X177419800Y-67487800D03*
X177419800Y-66217800D03*
X177419800Y-64947800D03*
X177419800Y-63677800D03*
X177419800Y-62407800D03*
D11*
X178909800Y-59122800D03*
X180179800Y-59122800D03*
X181449800Y-59122800D03*
X182719800Y-59122800D03*
X183989800Y-59122800D03*
X185259800Y-59122800D03*
X186529800Y-59122800D03*
X187799800Y-59122800D03*
X189069800Y-59122800D03*
X190339800Y-59122800D03*
X191609800Y-59122800D03*
X192879800Y-59122800D03*
X194149800Y-59122800D03*
X195419800Y-59122800D03*
G04 #@! TD*
D10*
G04 #@! TO.C,U2*
X127521800Y-68422800D03*
D11*
X135221800Y-77122800D03*
X133951800Y-77122800D03*
X132681800Y-77122800D03*
X131411800Y-77122800D03*
X130141800Y-77122800D03*
X128871800Y-77122800D03*
X127601800Y-77122800D03*
X126331800Y-77122800D03*
X125061800Y-77122800D03*
X123791800Y-77122800D03*
X122521800Y-77122800D03*
X121251800Y-77122800D03*
X119981800Y-77122800D03*
X118711800Y-77122800D03*
D12*
X117221800Y-73837800D03*
X117221800Y-72567800D03*
X117221800Y-71297800D03*
X117221800Y-70027800D03*
X117221800Y-68757800D03*
X117221800Y-67487800D03*
X117221800Y-66217800D03*
X117221800Y-64947800D03*
X117221800Y-63677800D03*
X117221800Y-62407800D03*
D11*
X118711800Y-59122800D03*
X119981800Y-59122800D03*
X121251800Y-59122800D03*
X122521800Y-59122800D03*
X123791800Y-59122800D03*
X125061800Y-59122800D03*
X126331800Y-59122800D03*
X127601800Y-59122800D03*
X128871800Y-59122800D03*
X130141800Y-59122800D03*
X131411800Y-59122800D03*
X132681800Y-59122800D03*
X133951800Y-59122800D03*
X135221800Y-59122800D03*
G04 #@! TD*
D10*
G04 #@! TO.C,U2*
X187719800Y-46578800D03*
D11*
X195419800Y-55278800D03*
X194149800Y-55278800D03*
X192879800Y-55278800D03*
X191609800Y-55278800D03*
X190339800Y-55278800D03*
X189069800Y-55278800D03*
X187799800Y-55278800D03*
X186529800Y-55278800D03*
X185259800Y-55278800D03*
X183989800Y-55278800D03*
X182719800Y-55278800D03*
X181449800Y-55278800D03*
X180179800Y-55278800D03*
X178909800Y-55278800D03*
D12*
X177419800Y-51993800D03*
X177419800Y-50723800D03*
X177419800Y-49453800D03*
X177419800Y-48183800D03*
X177419800Y-46913800D03*
X177419800Y-45643800D03*
X177419800Y-44373800D03*
X177419800Y-43103800D03*
X177419800Y-41833800D03*
X177419800Y-40563800D03*
D11*
X178909800Y-37278800D03*
X180179800Y-37278800D03*
X181449800Y-37278800D03*
X182719800Y-37278800D03*
X183989800Y-37278800D03*
X185259800Y-37278800D03*
X186529800Y-37278800D03*
X187799800Y-37278800D03*
X189069800Y-37278800D03*
X190339800Y-37278800D03*
X191609800Y-37278800D03*
X192879800Y-37278800D03*
X194149800Y-37278800D03*
X195419800Y-37278800D03*
G04 #@! TD*
G04 #@! TO.C,U2*
X135221800Y-37278800D03*
X133951800Y-37278800D03*
X132681800Y-37278800D03*
X131411800Y-37278800D03*
X130141800Y-37278800D03*
X128871800Y-37278800D03*
X127601800Y-37278800D03*
X126331800Y-37278800D03*
X125061800Y-37278800D03*
X123791800Y-37278800D03*
X122521800Y-37278800D03*
X121251800Y-37278800D03*
X119981800Y-37278800D03*
X118711800Y-37278800D03*
D12*
X117221800Y-40563800D03*
X117221800Y-41833800D03*
X117221800Y-43103800D03*
X117221800Y-44373800D03*
X117221800Y-45643800D03*
X117221800Y-46913800D03*
X117221800Y-48183800D03*
X117221800Y-49453800D03*
X117221800Y-50723800D03*
X117221800Y-51993800D03*
D11*
X118711800Y-55278800D03*
X119981800Y-55278800D03*
X121251800Y-55278800D03*
X122521800Y-55278800D03*
X123791800Y-55278800D03*
X125061800Y-55278800D03*
X126331800Y-55278800D03*
X127601800Y-55278800D03*
X128871800Y-55278800D03*
X130141800Y-55278800D03*
X131411800Y-55278800D03*
X132681800Y-55278800D03*
X133951800Y-55278800D03*
X135221800Y-55278800D03*
D10*
X127521800Y-46578800D03*
G04 #@! TD*
M02*
