G04 #@! TF.GenerationSoftware,KiCad,Pcbnew,5.0.2-bee76a0~70~ubuntu18.04.1*
G04 #@! TF.CreationDate,2019-05-10T18:36:06+02:00*
G04 #@! TF.ProjectId,m3_2x4_panel,6d335f32-7834-45f7-9061-6e656c2e6b69,rev?*
G04 #@! TF.SameCoordinates,Original*
G04 #@! TF.FileFunction,Profile,NP*
%FSLAX46Y46*%
G04 Gerber Fmt 4.6, Leading zero omitted, Abs format (unit mm)*
G04 Created by KiCad (PCBNEW 5.0.2-bee76a0~70~ubuntu18.04.1) date Fr 10 Mai 2019 18:36:06 CEST*
%MOMM*%
%LPD*%
G01*
G04 APERTURE LIST*
%ADD10C,0.150000*%
G04 APERTURE END LIST*
D10*
X179578000Y-60198000D02*
X179578000Y-38417500D01*
X179578000Y-87693500D02*
X179578000Y-65913000D01*
X179514500Y-115189000D02*
X179514500Y-93472000D01*
X152908000Y-115189000D02*
X179514500Y-115189000D01*
X152908000Y-120904000D02*
X152908000Y-115189000D01*
X179514500Y-120904000D02*
X152908000Y-120904000D01*
X179514500Y-142684500D02*
X179514500Y-120904000D01*
X119380000Y-142684500D02*
X179514500Y-142684500D01*
X53340000Y-120840500D02*
X80518000Y-120840500D01*
X86868000Y-120904000D02*
X113538000Y-120904000D01*
X53340000Y-93281500D02*
X80518000Y-93281500D01*
X86868000Y-93345000D02*
X113538000Y-93345000D01*
X113538000Y-65849500D02*
X86868000Y-65849500D01*
X53340000Y-65849500D02*
X80518000Y-65849500D01*
X119380000Y-46228000D02*
X119380000Y-38354000D01*
X119380000Y-60198000D02*
X119380000Y-51054000D01*
X152844500Y-65913000D02*
X179578000Y-65913000D01*
X146494500Y-65786000D02*
X119380000Y-65786000D01*
X152844500Y-93472000D02*
X179514500Y-93472000D01*
X119380000Y-93472000D02*
X146494500Y-93472000D01*
X146494500Y-120904000D02*
X119380000Y-120904000D01*
X119380000Y-65786000D02*
X119380000Y-73660000D01*
X119380000Y-87630000D02*
X119380000Y-78549500D01*
X119380000Y-101219000D02*
X119380000Y-93472000D01*
X119380000Y-106045000D02*
X119380000Y-115189000D01*
X119380000Y-120904000D02*
X119380000Y-128714500D01*
X119380000Y-142684500D02*
X119380000Y-133540500D01*
X53340000Y-142748000D02*
X113538000Y-142748000D01*
X113538000Y-120904000D02*
X113538000Y-128728000D01*
X113538000Y-93354000D02*
X113538000Y-101228000D01*
X113538000Y-65854000D02*
X113538000Y-73728000D01*
X146494500Y-115189000D02*
X146494500Y-120904000D01*
X80518000Y-115198000D02*
X80518000Y-120840500D01*
X146494500Y-87693500D02*
X146494500Y-93472000D01*
X80518000Y-87698000D02*
X80518000Y-93281500D01*
X146494500Y-60198000D02*
X146494500Y-65786000D01*
X113538000Y-133540500D02*
X113538000Y-142748000D01*
X113538000Y-106045000D02*
X113538000Y-115198000D01*
X113538000Y-78554000D02*
X113538000Y-87698000D01*
X86868000Y-115198000D02*
X86868000Y-120904000D01*
X152844500Y-87693500D02*
X152844500Y-93472000D01*
X86868000Y-87698000D02*
X86868000Y-93345000D01*
X152844500Y-60198000D02*
X152844500Y-65913000D01*
X113538000Y-128728000D02*
X119380000Y-128728000D01*
X113538000Y-101228000D02*
X119380000Y-101228000D01*
X113538000Y-73728000D02*
X119380000Y-73728000D01*
X113538000Y-133540500D02*
X119380000Y-133540500D01*
X113538000Y-106045000D02*
X119380000Y-106045000D01*
X113538000Y-78554000D02*
X119380000Y-78554000D01*
X86868000Y-115198000D02*
X113538000Y-115198000D01*
X152868000Y-87698000D02*
X179538000Y-87698000D01*
X86868000Y-87698000D02*
X113538000Y-87698000D01*
X152868000Y-60198000D02*
X179538000Y-60198000D01*
X146494500Y-115189000D02*
X119380000Y-115189000D01*
X80518000Y-115198000D02*
X53340000Y-115198000D01*
X146494500Y-87693500D02*
X119340000Y-87698000D01*
X80518000Y-87698000D02*
X53340000Y-87698000D01*
X146494500Y-60198000D02*
X119340000Y-60198000D01*
X53340000Y-120854000D02*
X53340000Y-142748000D01*
X53340000Y-93354000D02*
X53340000Y-115198000D01*
X53340000Y-65854000D02*
X53340000Y-87698000D01*
X179538000Y-38354000D02*
X119380000Y-38354000D01*
X86868000Y-60198000D02*
X113538000Y-60198000D01*
X80518000Y-60198000D02*
X53340000Y-60198000D01*
X113538000Y-51054000D02*
X113538000Y-60198000D01*
X113538000Y-38354000D02*
X113538000Y-46228000D01*
X113538000Y-51054000D02*
X119380000Y-51054000D01*
X113538000Y-46228000D02*
X119380000Y-46228000D01*
X86868000Y-60198000D02*
X86868000Y-65849500D01*
X80518000Y-60198000D02*
X80518000Y-65849500D01*
X53340000Y-38354000D02*
X53340000Y-60198000D01*
X113538000Y-38354000D02*
X53340000Y-38354000D01*
M02*
