M48
; DRILL file {KiCad 5.1.0-060a0da~80~ubuntu18.04.1} date Mo 13 Mai 2019 00:27:19 CEST
; FORMAT={-:-/ absolute / inch / decimal}
; #@! TF.CreationDate,2019-05-13T00:27:19+02:00
; #@! TF.GenerationSoftware,Kicad,Pcbnew,5.1.0-060a0da~80~ubuntu18.04.1
; #@! TF.FileFunction,Plated,1,2,PTH
FMAT,2
INCH
T1C0.0118
T2C0.0394
T3C0.0472
T4C0.0669
T5C0.0866
%
G90
G05
T1
X3.0379Y-1.8916
X3.0379Y-2.7516
X3.0379Y-3.6116
X3.0379Y-4.4716
X3.0379Y-5.3316
X3.1879Y-1.8234
X3.1879Y-2.6834
X3.1879Y-3.5434
X3.1879Y-4.4034
X3.1879Y-5.2634
X3.3079Y-2.3307
X3.3079Y-3.1907
X3.3079Y-4.0507
X3.3079Y-4.9107
X3.3079Y-5.7707
X3.3279Y-2.0707
X3.3279Y-2.1207
X3.3279Y-2.9307
X3.3279Y-2.9807
X3.3279Y-3.7907
X3.3279Y-3.8407
X3.3279Y-4.6507
X3.3279Y-4.7007
X3.3279Y-5.5107
X3.3279Y-5.5607
X3.8031Y-2.1102
X3.8031Y-2.9702
X3.8031Y-3.8302
X3.8031Y-4.6902
X3.8031Y-5.5502
X3.9979Y-2.3807
X3.9979Y-3.2407
X3.9979Y-4.1007
X3.9979Y-4.9607
X3.9979Y-5.8207
X4.0879Y-2.5707
X4.0879Y-3.4307
X4.0879Y-4.2907
X4.0879Y-5.1507
X4.0879Y-6.0107
X4.1479Y-2.5507
X4.1479Y-3.4107
X4.1479Y-4.2707
X4.1479Y-5.1307
X4.1479Y-5.9907
X4.1679Y-2.6107
X4.1679Y-3.4707
X4.1679Y-4.3307
X4.1679Y-5.1907
X4.1679Y-6.0507
X4.2779Y-2.4207
X4.2779Y-3.2807
X4.2779Y-4.1407
X4.2779Y-5.0007
X4.2779Y-5.8607
X4.2979Y-2.2107
X4.2979Y-3.0707
X4.2979Y-3.9307
X4.2979Y-4.7907
X4.2979Y-5.6507
X4.3979Y-2.0607
X4.3979Y-2.9207
X4.3979Y-3.7807
X4.3979Y-4.6407
X4.3979Y-5.5007
X4.4279Y-2.3807
X4.4279Y-3.2407
X4.4279Y-4.1007
X4.4279Y-4.9607
X4.4279Y-5.8207
X4.4679Y-1.8507
X4.4679Y-2.7107
X4.4679Y-3.5707
X4.4679Y-4.4307
X4.4679Y-5.2907
X4.5779Y-2.5107
X4.5779Y-3.3707
X4.5779Y-4.2307
X4.5779Y-5.0907
X4.5779Y-5.9507
X4.5807Y-2.2343
X4.5807Y-3.0943
X4.5807Y-3.9543
X4.5807Y-4.8143
X4.5807Y-5.6743
X4.5979Y-1.9407
X4.5979Y-2.4307
X4.5979Y-2.8007
X4.5979Y-3.2907
X4.5979Y-3.6607
X4.5979Y-4.1507
X4.5979Y-4.5207
X4.5979Y-5.0107
X4.5979Y-5.3807
X4.5979Y-5.8707
X4.6479Y-1.9407
X4.6479Y-2.8007
X4.6479Y-3.6607
X4.6479Y-4.5207
X4.6479Y-5.3807
X4.6679Y-2.4407
X4.6679Y-3.3007
X4.6679Y-4.1607
X4.6679Y-5.0207
X4.6679Y-5.8807
X4.6979Y-2.3907
X4.6979Y-2.5107
X4.6979Y-3.2507
X4.6979Y-3.3707
X4.6979Y-4.1107
X4.6979Y-4.2307
X4.6979Y-4.9707
X4.6979Y-5.0907
X4.6979Y-5.8307
X4.6979Y-5.9507
X4.7079Y-1.9407
X4.7079Y-2.8007
X4.7079Y-3.6607
X4.7079Y-4.5207
X4.7079Y-5.3807
X4.7279Y-2.6371
X4.7279Y-3.4971
X4.7279Y-4.3571
X4.7279Y-5.2171
X4.7279Y-6.0771
X4.7579Y-1.9407
X4.7579Y-2.8007
X4.7579Y-3.6607
X4.7579Y-4.5207
X4.7579Y-5.3807
X4.8079Y-1.9407
X4.8079Y-2.8007
X4.8079Y-3.6607
X4.8079Y-4.5207
X4.8079Y-5.3807
X4.8279Y-1.9607
X4.8279Y-2.8207
X4.8279Y-3.6807
X4.8279Y-4.5407
X4.8279Y-5.4007
X4.8379Y-1.8107
X4.8379Y-2.6707
X4.8379Y-3.5307
X4.8379Y-4.3907
X4.8379Y-5.2507
X4.8679Y-2.5007
X4.8679Y-3.3607
X4.8679Y-4.2207
X4.8679Y-5.0807
X4.8679Y-5.9407
X4.9279Y-2.5007
X4.9279Y-3.3607
X4.9279Y-4.2207
X4.9279Y-5.0807
X4.9279Y-5.9407
X4.9291Y-1.8091
X4.9291Y-2.6691
X4.9291Y-3.5291
X4.9291Y-4.3891
X4.9291Y-5.2491
X5.0179Y-2.0607
X5.0179Y-2.9207
X5.0179Y-3.7807
X5.0179Y-4.6407
X5.0179Y-5.5007
X5.0379Y-2.4907
X5.0379Y-3.3507
X5.0379Y-4.2107
X5.0379Y-5.0707
X5.0379Y-5.9307
X5.0679Y-2.3407
X5.0679Y-3.2007
X5.0679Y-4.0607
X5.0679Y-4.9207
X5.0679Y-5.7807
X5.0779Y-2.4907
X5.0779Y-3.3507
X5.0779Y-4.2107
X5.0779Y-5.0707
X5.0779Y-5.9307
X5.1579Y-2.4407
X5.1579Y-2.5007
X5.1579Y-3.3007
X5.1579Y-3.3607
X5.1579Y-4.1607
X5.1579Y-4.2207
X5.1579Y-5.0207
X5.1579Y-5.0807
X5.1579Y-5.8807
X5.1579Y-5.9407
X5.1979Y-1.9507
X5.1979Y-2.8107
X5.1979Y-3.6707
X5.1979Y-4.5307
X5.1979Y-5.3907
X5.2136Y-2.4829
X5.2136Y-3.3429
X5.2136Y-4.2029
X5.2136Y-5.0629
X5.2136Y-5.9229
X5.4079Y-1.8916
X5.4079Y-2.7516
X5.4079Y-3.6116
X5.4079Y-4.4716
X5.4079Y-5.3316
X5.5579Y-1.8234
X5.5579Y-2.6834
X5.5579Y-3.5434
X5.5579Y-4.4034
X5.5579Y-5.2634
X5.6779Y-2.3307
X5.6779Y-3.1907
X5.6779Y-4.0507
X5.6779Y-4.9107
X5.6779Y-5.7707
X5.6979Y-2.0707
X5.6979Y-2.1207
X5.6979Y-2.9307
X5.6979Y-2.9807
X5.6979Y-3.7907
X5.6979Y-3.8407
X5.6979Y-4.6507
X5.6979Y-4.7007
X5.6979Y-5.5107
X5.6979Y-5.5607
X6.1731Y-2.1102
X6.1731Y-2.9702
X6.1731Y-3.8302
X6.1731Y-4.6902
X6.1731Y-5.5502
X6.3679Y-2.3807
X6.3679Y-3.2407
X6.3679Y-4.1007
X6.3679Y-4.9607
X6.3679Y-5.8207
X6.4579Y-2.5707
X6.4579Y-3.4307
X6.4579Y-4.2907
X6.4579Y-5.1507
X6.4579Y-6.0107
X6.5179Y-2.5507
X6.5179Y-3.4107
X6.5179Y-4.2707
X6.5179Y-5.1307
X6.5179Y-5.9907
X6.5379Y-2.6107
X6.5379Y-3.4707
X6.5379Y-4.3307
X6.5379Y-5.1907
X6.5379Y-6.0507
X6.6479Y-2.4207
X6.6479Y-3.2807
X6.6479Y-4.1407
X6.6479Y-5.0007
X6.6479Y-5.8607
X6.6679Y-2.2107
X6.6679Y-3.0707
X6.6679Y-3.9307
X6.6679Y-4.7907
X6.6679Y-5.6507
X6.7679Y-2.0607
X6.7679Y-2.9207
X6.7679Y-3.7807
X6.7679Y-4.6407
X6.7679Y-5.5007
X6.7979Y-2.3807
X6.7979Y-3.2407
X6.7979Y-4.1007
X6.7979Y-4.9607
X6.7979Y-5.8207
X6.8379Y-1.8507
X6.8379Y-2.7107
X6.8379Y-3.5707
X6.8379Y-4.4307
X6.8379Y-5.2907
X6.9479Y-2.5107
X6.9479Y-3.3707
X6.9479Y-4.2307
X6.9479Y-5.0907
X6.9479Y-5.9507
X6.9507Y-2.2343
X6.9507Y-3.0943
X6.9507Y-3.9543
X6.9507Y-4.8143
X6.9507Y-5.6743
X6.9679Y-1.9407
X6.9679Y-2.4307
X6.9679Y-2.8007
X6.9679Y-3.2907
X6.9679Y-3.6607
X6.9679Y-4.1507
X6.9679Y-4.5207
X6.9679Y-5.0107
X6.9679Y-5.3807
X6.9679Y-5.8707
X7.0179Y-1.9407
X7.0179Y-2.8007
X7.0179Y-3.6607
X7.0179Y-4.5207
X7.0179Y-5.3807
X7.0379Y-2.4407
X7.0379Y-3.3007
X7.0379Y-4.1607
X7.0379Y-5.0207
X7.0379Y-5.8807
X7.0679Y-2.3907
X7.0679Y-2.5107
X7.0679Y-3.2507
X7.0679Y-3.3707
X7.0679Y-4.1107
X7.0679Y-4.2307
X7.0679Y-4.9707
X7.0679Y-5.0907
X7.0679Y-5.8307
X7.0679Y-5.9507
X7.0779Y-1.9407
X7.0779Y-2.8007
X7.0779Y-3.6607
X7.0779Y-4.5207
X7.0779Y-5.3807
X7.0979Y-2.6371
X7.0979Y-3.4971
X7.0979Y-4.3571
X7.0979Y-5.2171
X7.0979Y-6.0771
X7.1279Y-1.9407
X7.1279Y-2.8007
X7.1279Y-3.6607
X7.1279Y-4.5207
X7.1279Y-5.3807
X7.1779Y-1.9407
X7.1779Y-2.8007
X7.1779Y-3.6607
X7.1779Y-4.5207
X7.1779Y-5.3807
X7.1979Y-1.9607
X7.1979Y-2.8207
X7.1979Y-3.6807
X7.1979Y-4.5407
X7.1979Y-5.4007
X7.2079Y-1.8107
X7.2079Y-2.6707
X7.2079Y-3.5307
X7.2079Y-4.3907
X7.2079Y-5.2507
X7.2379Y-2.5007
X7.2379Y-3.3607
X7.2379Y-4.2207
X7.2379Y-5.0807
X7.2379Y-5.9407
X7.2979Y-2.5007
X7.2979Y-3.3607
X7.2979Y-4.2207
X7.2979Y-5.0807
X7.2979Y-5.9407
X7.2991Y-1.8091
X7.2991Y-2.6691
X7.2991Y-3.5291
X7.2991Y-4.3891
X7.2991Y-5.2491
X7.3879Y-2.0607
X7.3879Y-2.9207
X7.3879Y-3.7807
X7.3879Y-4.6407
X7.3879Y-5.5007
X7.4079Y-2.4907
X7.4079Y-3.3507
X7.4079Y-4.2107
X7.4079Y-5.0707
X7.4079Y-5.9307
X7.4379Y-2.3407
X7.4379Y-3.2007
X7.4379Y-4.0607
X7.4379Y-4.9207
X7.4379Y-5.7807
X7.4479Y-2.4907
X7.4479Y-3.3507
X7.4479Y-4.2107
X7.4479Y-5.0707
X7.4479Y-5.9307
X7.5279Y-2.4407
X7.5279Y-2.5007
X7.5279Y-3.3007
X7.5279Y-3.3607
X7.5279Y-4.1607
X7.5279Y-4.2207
X7.5279Y-5.0207
X7.5279Y-5.0807
X7.5279Y-5.8807
X7.5279Y-5.9407
X7.5679Y-1.9507
X7.5679Y-2.8107
X7.5679Y-3.6707
X7.5679Y-4.5307
X7.5679Y-5.3907
X7.5836Y-2.4829
X7.5836Y-3.3429
X7.5836Y-4.2029
X7.5836Y-5.0629
X7.5836Y-5.9229
T2
X2.9665Y-4.482
X2.9665Y-4.582
X3.5425Y-4.454
X3.6425Y-4.454
X3.7425Y-4.454
X3.8425Y-4.454
X2.9665Y-2.762
X2.9665Y-2.862
X6.3602Y-2.734
X6.4602Y-2.734
X6.5602Y-2.734
X6.6602Y-2.734
X5.3365Y-2.762
X5.3365Y-2.862
X5.7679Y-3.4207
X5.8679Y-3.4207
X5.9679Y-3.4207
X6.0679Y-3.4207
X6.1679Y-3.4207
X6.2679Y-3.4207
X3.3979Y-2.5607
X3.4979Y-2.5607
X3.5979Y-2.5607
X3.6979Y-2.5607
X3.7979Y-2.5607
X3.8979Y-2.5607
X2.9665Y-1.902
X2.9665Y-2.002
X3.3979Y-5.1407
X3.4979Y-5.1407
X3.5979Y-5.1407
X3.6979Y-5.1407
X3.7979Y-5.1407
X3.8979Y-5.1407
X3.3979Y-3.4207
X3.4979Y-3.4207
X3.5979Y-3.4207
X3.6979Y-3.4207
X3.7979Y-3.4207
X3.8979Y-3.4207
X5.9125Y-2.734
X6.0125Y-2.734
X6.1125Y-2.734
X6.2125Y-2.734
X3.5425Y-5.314
X3.6425Y-5.314
X3.7425Y-5.314
X3.8425Y-5.314
X5.9125Y-4.454
X6.0125Y-4.454
X6.1125Y-4.454
X6.2125Y-4.454
X3.5425Y-3.594
X3.6425Y-3.594
X3.7425Y-3.594
X3.8425Y-3.594
X5.9125Y-5.314
X6.0125Y-5.314
X6.1125Y-5.314
X6.2125Y-5.314
X3.9902Y-3.594
X4.0902Y-3.594
X4.1902Y-3.594
X4.2902Y-3.594
X3.3979Y-6.0007
X3.4979Y-6.0007
X3.5979Y-6.0007
X3.6979Y-6.0007
X3.7979Y-6.0007
X3.8979Y-6.0007
X3.5425Y-1.874
X3.6425Y-1.874
X3.7425Y-1.874
X3.8425Y-1.874
X3.9902Y-5.314
X4.0902Y-5.314
X4.1902Y-5.314
X4.2902Y-5.314
X5.3365Y-5.342
X5.3365Y-5.442
X3.5425Y-2.734
X3.6425Y-2.734
X3.7425Y-2.734
X3.8425Y-2.734
X5.3365Y-3.622
X5.3365Y-3.722
X3.9902Y-1.874
X4.0902Y-1.874
X4.1902Y-1.874
X4.2902Y-1.874
X6.3602Y-5.314
X6.4602Y-5.314
X6.5602Y-5.314
X6.6602Y-5.314
X2.9665Y-5.342
X2.9665Y-5.442
X3.9902Y-4.454
X4.0902Y-4.454
X4.1902Y-4.454
X4.2902Y-4.454
X6.3602Y-1.874
X6.4602Y-1.874
X6.5602Y-1.874
X6.6602Y-1.874
X5.7679Y-6.0007
X5.8679Y-6.0007
X5.9679Y-6.0007
X6.0679Y-6.0007
X6.1679Y-6.0007
X6.2679Y-6.0007
X5.9125Y-3.594
X6.0125Y-3.594
X6.1125Y-3.594
X6.2125Y-3.594
X2.9665Y-3.622
X2.9665Y-3.722
X3.9902Y-2.734
X4.0902Y-2.734
X4.1902Y-2.734
X4.2902Y-2.734
X6.3602Y-3.594
X6.4602Y-3.594
X6.5602Y-3.594
X6.6602Y-3.594
X5.7679Y-4.2807
X5.8679Y-4.2807
X5.9679Y-4.2807
X6.0679Y-4.2807
X6.1679Y-4.2807
X6.2679Y-4.2807
X3.3979Y-4.2807
X3.4979Y-4.2807
X3.5979Y-4.2807
X3.6979Y-4.2807
X3.7979Y-4.2807
X3.8979Y-4.2807
X5.3365Y-1.902
X5.3365Y-2.002
X5.9125Y-1.874
X6.0125Y-1.874
X6.1125Y-1.874
X6.2125Y-1.874
X6.3602Y-4.454
X6.4602Y-4.454
X6.5602Y-4.454
X6.6602Y-4.454
X5.7679Y-2.5607
X5.8679Y-2.5607
X5.9679Y-2.5607
X6.0679Y-2.5607
X6.1679Y-2.5607
X6.2679Y-2.5607
X5.3365Y-4.482
X5.3365Y-4.582
X5.7679Y-5.1407
X5.8679Y-5.1407
X5.9679Y-5.1407
X6.0679Y-5.1407
X6.1679Y-5.1407
X6.2679Y-5.1407
T3
X5.4153Y-3.0096
X6.7145Y-3.0096
X6.7145Y-3.1474
X5.4153Y-2.1496
X6.7145Y-2.1496
X6.7145Y-2.2874
X3.0453Y-3.0096
X4.3445Y-3.0096
X4.3445Y-3.1474
X3.0453Y-4.7296
X4.3445Y-4.7296
X4.3445Y-4.8674
X3.0453Y-3.8696
X4.3445Y-3.8696
X4.3445Y-4.0074
X5.4153Y-3.8696
X6.7145Y-3.8696
X6.7145Y-4.0074
X3.0453Y-5.5896
X4.3445Y-5.5896
X4.3445Y-5.7274
X3.0453Y-2.1496
X4.3445Y-2.1496
X4.3445Y-2.2874
X5.4153Y-4.7296
X6.7145Y-4.7296
X6.7145Y-4.8674
X5.4153Y-5.5896
X6.7145Y-5.5896
X6.7145Y-5.7274
T4
X5.5688Y-3.2439
X5.6161Y-2.9131
X6.5137Y-2.9131
X6.5609Y-3.2439
X5.5688Y-2.3839
X5.6161Y-2.0531
X6.5137Y-2.0531
X6.5609Y-2.3839
X3.1988Y-3.2439
X3.2461Y-2.9131
X4.1437Y-2.9131
X4.1909Y-3.2439
X3.1988Y-4.9639
X3.2461Y-4.6331
X4.1437Y-4.6331
X4.1909Y-4.9639
X3.1988Y-4.1039
X3.2461Y-3.7731
X4.1437Y-3.7731
X4.1909Y-4.1039
X5.5688Y-4.1039
X5.6161Y-3.7731
X6.5137Y-3.7731
X6.5609Y-4.1039
X3.1988Y-5.8239
X3.2461Y-5.4931
X4.1437Y-5.4931
X4.1909Y-5.8239
X3.1988Y-2.3839
X3.2461Y-2.0531
X4.1437Y-2.0531
X4.1909Y-2.3839
X5.5688Y-4.9639
X5.6161Y-4.6331
X6.5137Y-4.6331
X6.5609Y-4.9639
X5.5688Y-5.8239
X5.6161Y-5.4931
X6.5137Y-5.4931
X6.5609Y-5.8239
T5
X3.2279Y-2.5407
X6.6879Y-2.5507
X4.3179Y-4.2707
X6.6879Y-5.1307
X5.7379Y-4.4607
X3.2279Y-5.1207
X3.3679Y-3.6007
X5.7379Y-2.7407
X3.3679Y-5.3207
X3.3679Y-1.8807
X3.3679Y-4.4607
X5.5979Y-4.2607
X5.7379Y-3.6007
X4.3179Y-5.1307
X6.6879Y-5.9907
X3.2279Y-4.2607
X5.5979Y-3.4007
X4.3179Y-2.5507
X5.7379Y-5.3207
X5.5979Y-2.5407
X3.2279Y-5.9807
X6.6879Y-4.2707
X3.3679Y-2.7407
X5.7379Y-1.8807
X5.5979Y-5.1207
X6.6879Y-3.4107
X4.3179Y-3.4107
X4.3179Y-5.9907
X5.5979Y-5.9807
X3.2279Y-3.4007
T0
M30
