M48
;DRILL file {KiCad 5.0.2-bee76a0~70~ubuntu18.04.1} date Di 14 Mai 2019 10:35:07 CEST
;FORMAT={-:-/ absolute / inch / decimal}
FMAT,2
INCH,TZ
T1C0.0118
T2C0.0394
T3C0.0472
T4C0.0669
T5C0.0866
%
G90
G05
T1
X3.152Y-1.4939
X3.152Y-2.3539
X3.152Y-3.2139
X3.152Y-4.0739
X3.152Y-4.9339
X3.299Y-1.43
X3.299Y-2.29
X3.299Y-3.15
X3.299Y-4.01
X3.299Y-4.87
X3.422Y-1.933
X3.422Y-2.793
X3.422Y-3.653
X3.422Y-4.513
X3.422Y-5.373
X3.442Y-1.673
X3.442Y-1.723
X3.442Y-2.533
X3.442Y-2.583
X3.442Y-3.393
X3.442Y-3.443
X3.442Y-4.253
X3.442Y-4.303
X3.442Y-5.113
X3.442Y-5.163
X3.9173Y-1.7125
X3.9173Y-2.5725
X3.9173Y-3.4325
X3.9173Y-4.2925
X3.9173Y-5.1525
X4.112Y-1.983
X4.112Y-2.843
X4.112Y-3.703
X4.112Y-4.563
X4.112Y-5.423
X4.202Y-2.173
X4.202Y-3.033
X4.202Y-3.893
X4.202Y-4.753
X4.202Y-5.613
X4.262Y-2.153
X4.262Y-3.013
X4.262Y-3.873
X4.262Y-4.733
X4.262Y-5.593
X4.282Y-2.213
X4.282Y-3.073
X4.282Y-3.933
X4.282Y-4.793
X4.282Y-5.653
X4.378Y-2.029
X4.378Y-2.889
X4.378Y-3.749
X4.378Y-4.609
X4.378Y-5.469
X4.412Y-1.813
X4.412Y-2.673
X4.412Y-3.533
X4.412Y-4.393
X4.412Y-5.253
X4.512Y-1.663
X4.512Y-2.523
X4.512Y-3.383
X4.512Y-4.243
X4.512Y-5.103
X4.542Y-1.983
X4.542Y-2.843
X4.542Y-3.703
X4.542Y-4.563
X4.542Y-5.423
X4.582Y-1.453
X4.582Y-2.313
X4.582Y-3.173
X4.582Y-4.033
X4.582Y-4.893
X4.692Y-2.113
X4.692Y-2.973
X4.692Y-3.833
X4.692Y-4.693
X4.692Y-5.553
X4.6948Y-1.8365
X4.6948Y-2.6965
X4.6948Y-3.5565
X4.6948Y-4.4165
X4.6948Y-5.2765
X4.712Y-1.543
X4.712Y-2.033
X4.712Y-2.403
X4.712Y-2.893
X4.712Y-3.263
X4.712Y-3.753
X4.712Y-4.123
X4.712Y-4.613
X4.712Y-4.983
X4.712Y-5.473
X4.762Y-1.543
X4.762Y-2.403
X4.762Y-3.263
X4.762Y-4.123
X4.762Y-4.983
X4.782Y-2.043
X4.782Y-2.903
X4.782Y-3.763
X4.782Y-4.623
X4.782Y-5.483
X4.812Y-1.993
X4.812Y-2.853
X4.812Y-3.713
X4.812Y-4.573
X4.812Y-5.433
X4.822Y-1.543
X4.822Y-2.403
X4.822Y-3.263
X4.822Y-4.123
X4.822Y-4.983
X4.842Y-2.2394
X4.842Y-3.0994
X4.842Y-3.9594
X4.842Y-4.8194
X4.842Y-5.6794
X4.872Y-1.543
X4.872Y-2.403
X4.872Y-3.263
X4.872Y-4.123
X4.872Y-4.983
X4.922Y-1.543
X4.922Y-2.403
X4.922Y-3.263
X4.922Y-4.123
X4.922Y-4.983
X4.946Y-1.557
X4.946Y-2.417
X4.946Y-3.277
X4.946Y-4.137
X4.946Y-4.997
X4.952Y-1.413
X4.952Y-2.273
X4.952Y-3.133
X4.952Y-3.993
X4.952Y-4.853
X4.982Y-2.103
X4.982Y-2.963
X4.982Y-3.823
X4.982Y-4.683
X4.982Y-5.543
X5.042Y-2.103
X5.042Y-2.963
X5.042Y-3.823
X5.042Y-4.683
X5.042Y-5.543
X5.0433Y-1.4113
X5.0433Y-2.2713
X5.0433Y-3.1313
X5.0433Y-3.9913
X5.0433Y-4.8513
X5.132Y-1.663
X5.132Y-2.523
X5.132Y-3.383
X5.132Y-4.243
X5.132Y-5.103
X5.152Y-2.093
X5.152Y-2.953
X5.152Y-3.813
X5.152Y-4.673
X5.152Y-5.533
X5.182Y-1.943
X5.182Y-2.803
X5.182Y-3.663
X5.182Y-4.523
X5.182Y-5.383
X5.192Y-2.093
X5.192Y-2.953
X5.192Y-3.813
X5.192Y-4.673
X5.192Y-5.533
X5.272Y-2.043
X5.272Y-2.103
X5.272Y-2.903
X5.272Y-2.963
X5.272Y-3.763
X5.272Y-3.823
X5.272Y-4.623
X5.272Y-4.683
X5.272Y-5.483
X5.272Y-5.543
X5.312Y-1.553
X5.312Y-2.413
X5.312Y-3.273
X5.312Y-4.133
X5.312Y-4.993
X5.3278Y-2.0852
X5.3278Y-2.9452
X5.3278Y-3.8052
X5.3278Y-4.6652
X5.3278Y-5.5252
X5.522Y-1.4939
X5.522Y-2.3539
X5.522Y-3.2139
X5.522Y-4.0739
X5.522Y-4.9339
X5.669Y-1.43
X5.669Y-2.29
X5.669Y-3.15
X5.669Y-4.01
X5.669Y-4.87
X5.792Y-1.933
X5.792Y-2.793
X5.792Y-3.653
X5.792Y-4.513
X5.792Y-5.373
X5.812Y-1.673
X5.812Y-1.723
X5.812Y-2.533
X5.812Y-2.583
X5.812Y-3.393
X5.812Y-3.443
X5.812Y-4.253
X5.812Y-4.303
X5.812Y-5.113
X5.812Y-5.163
X6.2873Y-1.7125
X6.2873Y-2.5725
X6.2873Y-3.4325
X6.2873Y-4.2925
X6.2873Y-5.1525
X6.482Y-1.983
X6.482Y-2.843
X6.482Y-3.703
X6.482Y-4.563
X6.482Y-5.423
X6.572Y-2.173
X6.572Y-3.033
X6.572Y-3.893
X6.572Y-4.753
X6.572Y-5.613
X6.632Y-2.153
X6.632Y-3.013
X6.632Y-3.873
X6.632Y-4.733
X6.632Y-5.593
X6.652Y-2.213
X6.652Y-3.073
X6.652Y-3.933
X6.652Y-4.793
X6.652Y-5.653
X6.748Y-2.029
X6.748Y-2.889
X6.748Y-3.749
X6.748Y-4.609
X6.748Y-5.469
X6.782Y-1.813
X6.782Y-2.673
X6.782Y-3.533
X6.782Y-4.393
X6.782Y-5.253
X6.882Y-1.663
X6.882Y-2.523
X6.882Y-3.383
X6.882Y-4.243
X6.882Y-5.103
X6.912Y-1.983
X6.912Y-2.843
X6.912Y-3.703
X6.912Y-4.563
X6.912Y-5.423
X6.952Y-1.453
X6.952Y-2.313
X6.952Y-3.173
X6.952Y-4.033
X6.952Y-4.893
X7.062Y-2.113
X7.062Y-2.973
X7.062Y-3.833
X7.062Y-4.693
X7.062Y-5.553
X7.0648Y-1.8365
X7.0648Y-2.6965
X7.0648Y-3.5565
X7.0648Y-4.4165
X7.0648Y-5.2765
X7.082Y-1.543
X7.082Y-2.033
X7.082Y-2.403
X7.082Y-2.893
X7.082Y-3.263
X7.082Y-3.753
X7.082Y-4.123
X7.082Y-4.613
X7.082Y-4.983
X7.082Y-5.473
X7.132Y-1.543
X7.132Y-2.403
X7.132Y-3.263
X7.132Y-4.123
X7.132Y-4.983
X7.152Y-2.043
X7.152Y-2.903
X7.152Y-3.763
X7.152Y-4.623
X7.152Y-5.483
X7.182Y-1.993
X7.182Y-2.853
X7.182Y-3.713
X7.182Y-4.573
X7.182Y-5.433
X7.192Y-1.543
X7.192Y-2.403
X7.192Y-3.263
X7.192Y-4.123
X7.192Y-4.983
X7.212Y-2.2394
X7.212Y-3.0994
X7.212Y-3.9594
X7.212Y-4.8194
X7.212Y-5.6794
X7.242Y-1.543
X7.242Y-2.403
X7.242Y-3.263
X7.242Y-4.123
X7.242Y-4.983
X7.292Y-1.543
X7.292Y-2.403
X7.292Y-3.263
X7.292Y-4.123
X7.292Y-4.983
X7.316Y-1.557
X7.316Y-2.417
X7.316Y-3.277
X7.316Y-4.137
X7.316Y-4.997
X7.322Y-1.413
X7.322Y-2.273
X7.322Y-3.133
X7.322Y-3.993
X7.322Y-4.853
X7.352Y-2.103
X7.352Y-2.963
X7.352Y-3.823
X7.352Y-4.683
X7.352Y-5.543
X7.412Y-2.103
X7.412Y-2.963
X7.412Y-3.823
X7.412Y-4.683
X7.412Y-5.543
X7.4133Y-1.4113
X7.4133Y-2.2713
X7.4133Y-3.1313
X7.4133Y-3.9913
X7.4133Y-4.8513
X7.502Y-1.663
X7.502Y-2.523
X7.502Y-3.383
X7.502Y-4.243
X7.502Y-5.103
X7.522Y-2.093
X7.522Y-2.953
X7.522Y-3.813
X7.522Y-4.673
X7.522Y-5.533
X7.552Y-1.943
X7.552Y-2.803
X7.552Y-3.663
X7.552Y-4.523
X7.552Y-5.383
X7.562Y-2.093
X7.562Y-2.953
X7.562Y-3.813
X7.562Y-4.673
X7.562Y-5.533
X7.642Y-2.043
X7.642Y-2.103
X7.642Y-2.903
X7.642Y-2.963
X7.642Y-3.763
X7.642Y-3.823
X7.642Y-4.623
X7.642Y-4.683
X7.642Y-5.483
X7.642Y-5.543
X7.682Y-1.553
X7.682Y-2.413
X7.682Y-3.273
X7.682Y-4.133
X7.682Y-4.993
X7.6978Y-2.0852
X7.6978Y-2.9452
X7.6978Y-3.8052
X7.6978Y-4.6652
X7.6978Y-5.5252
T2
X6.0266Y-1.4763
X6.1266Y-1.4763
X6.2266Y-1.4763
X6.3266Y-1.4763
X5.882Y-3.883
X5.982Y-3.883
X6.082Y-3.883
X6.182Y-3.883
X6.282Y-3.883
X6.382Y-3.883
X6.0266Y-4.0563
X6.1266Y-4.0563
X6.2266Y-4.0563
X6.3266Y-4.0563
X5.4507Y-4.9443
X5.4507Y-5.0443
X4.1043Y-3.1963
X4.2043Y-3.1963
X4.3043Y-3.1963
X4.4043Y-3.1963
X5.4507Y-2.3643
X5.4507Y-2.4643
X6.4743Y-1.4763
X6.5743Y-1.4763
X6.6743Y-1.4763
X6.7743Y-1.4763
X6.0266Y-4.9163
X6.1266Y-4.9163
X6.2266Y-4.9163
X6.3266Y-4.9163
X3.0807Y-4.0843
X3.0807Y-4.1843
X3.512Y-3.023
X3.612Y-3.023
X3.712Y-3.023
X3.812Y-3.023
X3.912Y-3.023
X4.012Y-3.023
X5.882Y-4.743
X5.982Y-4.743
X6.082Y-4.743
X6.182Y-4.743
X6.282Y-4.743
X6.382Y-4.743
X5.4507Y-3.2243
X5.4507Y-3.3243
X3.6566Y-3.1963
X3.7566Y-3.1963
X3.8566Y-3.1963
X3.9566Y-3.1963
X4.1043Y-4.0563
X4.2043Y-4.0563
X4.3043Y-4.0563
X4.4043Y-4.0563
X4.1043Y-4.9163
X4.2043Y-4.9163
X4.3043Y-4.9163
X4.4043Y-4.9163
X4.1043Y-1.4763
X4.2043Y-1.4763
X4.3043Y-1.4763
X4.4043Y-1.4763
X6.4743Y-2.3363
X6.5743Y-2.3363
X6.6743Y-2.3363
X6.7743Y-2.3363
X3.512Y-4.743
X3.612Y-4.743
X3.712Y-4.743
X3.812Y-4.743
X3.912Y-4.743
X4.012Y-4.743
X6.0266Y-2.3363
X6.1266Y-2.3363
X6.2266Y-2.3363
X6.3266Y-2.3363
X3.512Y-5.603
X3.612Y-5.603
X3.712Y-5.603
X3.812Y-5.603
X3.912Y-5.603
X4.012Y-5.603
X3.0807Y-2.3643
X3.0807Y-2.4643
X3.512Y-2.163
X3.612Y-2.163
X3.712Y-2.163
X3.812Y-2.163
X3.912Y-2.163
X4.012Y-2.163
X6.4743Y-3.1963
X6.5743Y-3.1963
X6.6743Y-3.1963
X6.7743Y-3.1963
X3.6566Y-4.9163
X3.7566Y-4.9163
X3.8566Y-4.9163
X3.9566Y-4.9163
X6.4743Y-4.0563
X6.5743Y-4.0563
X6.6743Y-4.0563
X6.7743Y-4.0563
X3.6566Y-1.4763
X3.7566Y-1.4763
X3.8566Y-1.4763
X3.9566Y-1.4763
X4.1043Y-2.3363
X4.2043Y-2.3363
X4.3043Y-2.3363
X4.4043Y-2.3363
X5.882Y-2.163
X5.982Y-2.163
X6.082Y-2.163
X6.182Y-2.163
X6.282Y-2.163
X6.382Y-2.163
X6.0266Y-3.1963
X6.1266Y-3.1963
X6.2266Y-3.1963
X6.3266Y-3.1963
X6.4743Y-4.9163
X6.5743Y-4.9163
X6.6743Y-4.9163
X6.7743Y-4.9163
X3.6566Y-4.0563
X3.7566Y-4.0563
X3.8566Y-4.0563
X3.9566Y-4.0563
X3.0807Y-1.5043
X3.0807Y-1.6043
X5.4507Y-1.5043
X5.4507Y-1.6043
X3.0807Y-4.9443
X3.0807Y-5.0443
X3.6566Y-2.3363
X3.7566Y-2.3363
X3.8566Y-2.3363
X3.9566Y-2.3363
X5.882Y-3.023
X5.982Y-3.023
X6.082Y-3.023
X6.182Y-3.023
X6.282Y-3.023
X6.382Y-3.023
X3.512Y-3.883
X3.612Y-3.883
X3.712Y-3.883
X3.812Y-3.883
X3.912Y-3.883
X4.012Y-3.883
X5.882Y-5.603
X5.982Y-5.603
X6.082Y-5.603
X6.182Y-5.603
X6.282Y-5.603
X6.382Y-5.603
X5.4507Y-4.0843
X5.4507Y-4.1843
X3.0807Y-3.2243
X3.0807Y-3.3243
T3
X3.1594Y-2.6119
X4.4586Y-2.6119
X4.4586Y-2.7497
X5.5294Y-4.3319
X6.8286Y-4.3319
X6.8286Y-4.4697
X3.1594Y-1.7519
X4.4586Y-1.7519
X4.4586Y-1.8897
X3.1594Y-3.4719
X4.4586Y-3.4719
X4.4586Y-3.6097
X3.1594Y-5.1919
X4.4586Y-5.1919
X4.4586Y-5.3297
X5.5294Y-1.7519
X6.8286Y-1.7519
X6.8286Y-1.8897
X5.5294Y-2.6119
X6.8286Y-2.6119
X6.8286Y-2.7497
X5.5294Y-5.1919
X6.8286Y-5.1919
X6.8286Y-5.3297
X5.5294Y-3.4719
X6.8286Y-3.4719
X6.8286Y-3.6097
X3.1594Y-4.3319
X4.4586Y-4.3319
X4.4586Y-4.4697
T4
X5.6829Y-2.8461
X5.7302Y-2.5154
X6.6278Y-2.5154
X6.6751Y-2.8461
X5.6829Y-5.4261
X5.7302Y-5.0954
X6.6278Y-5.0954
X6.6751Y-5.4261
X5.6829Y-3.7061
X5.7302Y-3.3754
X6.6278Y-3.3754
X6.6751Y-3.7061
X3.3129Y-4.5661
X3.3602Y-4.2354
X4.2578Y-4.2354
X4.3051Y-4.5661
X3.3129Y-2.8461
X3.3602Y-2.5154
X4.2578Y-2.5154
X4.3051Y-2.8461
X5.6829Y-4.5661
X5.7302Y-4.2354
X6.6278Y-4.2354
X6.6751Y-4.5661
X3.3129Y-1.9861
X3.3602Y-1.6554
X4.2578Y-1.6554
X4.3051Y-1.9861
X3.3129Y-3.7061
X3.3602Y-3.3754
X4.2578Y-3.3754
X4.3051Y-3.7061
X3.3129Y-5.4261
X3.3602Y-5.0954
X4.2578Y-5.0954
X4.3051Y-5.4261
X5.6829Y-1.9861
X5.7302Y-1.6554
X6.6278Y-1.6554
X6.6751Y-1.9861
T5
X6.802Y-3.873
X6.802Y-2.153
X5.852Y-2.343
X3.482Y-3.203
X4.432Y-4.733
X3.482Y-2.343
X5.712Y-3.003
X3.342Y-3.003
X6.802Y-3.013
X5.852Y-3.203
X4.432Y-5.593
X5.852Y-1.483
X3.342Y-3.863
X4.432Y-3.013
X5.712Y-5.583
X5.712Y-4.723
X4.432Y-3.873
X6.802Y-4.733
X3.342Y-5.583
X6.802Y-5.593
X5.852Y-4.923
X5.712Y-3.863
X5.852Y-4.063
X3.482Y-1.483
X3.342Y-4.723
X3.482Y-4.923
X3.482Y-4.063
X4.432Y-2.153
X5.712Y-2.143
X3.342Y-2.143
T0
M30
