G04 #@! TF.GenerationSoftware,KiCad,Pcbnew,6.0.0-rc1-unknown-240051f~66~ubuntu16.04.1*
G04 #@! TF.CreationDate,2019-05-15T15:01:05+02:00*
G04 #@! TF.ProjectId,m3_2x5_panel,6d335f32-7835-45f7-9061-6e656c2e6b69,rev?*
G04 #@! TF.SameCoordinates,Original*
G04 #@! TF.FileFunction,Legend,Bot*
G04 #@! TF.FilePolarity,Positive*
%FSLAX46Y46*%
G04 Gerber Fmt 4.6, Leading zero omitted, Abs format (unit mm)*
G04 Created by KiCad (PCBNEW 6.0.0-rc1-unknown-240051f~66~ubuntu16.04.1) date Mi 15 Mai 2019 15:01:05 CEST*
%MOMM*%
%LPD*%
G01*
G04 APERTURE LIST*
%ADD10C,0.300000*%
%ADD11C,0.120000*%
%ADD12C,0.500000*%
%ADD13C,0.150000*%
G04 APERTURE END LIST*
D10*
X190570800Y-141372771D02*
X190570800Y-139872771D01*
X190070800Y-140944200D01*
X189570800Y-139872771D01*
X189570800Y-141372771D01*
X188999371Y-139872771D02*
X188070800Y-139872771D01*
X188570800Y-140444200D01*
X188356514Y-140444200D01*
X188213657Y-140515628D01*
X188142228Y-140587057D01*
X188070800Y-140729914D01*
X188070800Y-141087057D01*
X188142228Y-141229914D01*
X188213657Y-141301342D01*
X188356514Y-141372771D01*
X188785085Y-141372771D01*
X188927942Y-141301342D01*
X188999371Y-141229914D01*
X187785085Y-141515628D02*
X186642228Y-141515628D01*
X186285085Y-141372771D02*
X186285085Y-140372771D01*
X186285085Y-140658485D02*
X186213657Y-140515628D01*
X186142228Y-140444200D01*
X185999371Y-140372771D01*
X185856514Y-140372771D01*
X184785085Y-141301342D02*
X184927942Y-141372771D01*
X185213657Y-141372771D01*
X185356514Y-141301342D01*
X185427942Y-141158485D01*
X185427942Y-140587057D01*
X185356514Y-140444200D01*
X185213657Y-140372771D01*
X184927942Y-140372771D01*
X184785085Y-140444200D01*
X184713657Y-140587057D01*
X184713657Y-140729914D01*
X185427942Y-140872771D01*
X184213657Y-140372771D02*
X183856514Y-141372771D01*
X183499371Y-140372771D01*
X182142228Y-141372771D02*
X182999371Y-141372771D01*
X182570800Y-141372771D02*
X182570800Y-139872771D01*
X182713657Y-140087057D01*
X182856514Y-140229914D01*
X182999371Y-140301342D01*
X181499371Y-141229914D02*
X181427942Y-141301342D01*
X181499371Y-141372771D01*
X181570800Y-141301342D01*
X181499371Y-141229914D01*
X181499371Y-141372771D01*
X180499371Y-139872771D02*
X180356514Y-139872771D01*
X180213657Y-139944200D01*
X180142228Y-140015628D01*
X180070800Y-140158485D01*
X179999371Y-140444200D01*
X179999371Y-140801342D01*
X180070800Y-141087057D01*
X180142228Y-141229914D01*
X180213657Y-141301342D01*
X180356514Y-141372771D01*
X180499371Y-141372771D01*
X180642228Y-141301342D01*
X180713657Y-141229914D01*
X180785085Y-141087057D01*
X180856514Y-140801342D01*
X180856514Y-140444200D01*
X180785085Y-140158485D01*
X180713657Y-140015628D01*
X180642228Y-139944200D01*
X180499371Y-139872771D01*
X130372800Y-141372771D02*
X130372800Y-139872771D01*
X129872800Y-140944200D01*
X129372800Y-139872771D01*
X129372800Y-141372771D01*
X128801371Y-139872771D02*
X127872800Y-139872771D01*
X128372800Y-140444200D01*
X128158514Y-140444200D01*
X128015657Y-140515628D01*
X127944228Y-140587057D01*
X127872800Y-140729914D01*
X127872800Y-141087057D01*
X127944228Y-141229914D01*
X128015657Y-141301342D01*
X128158514Y-141372771D01*
X128587085Y-141372771D01*
X128729942Y-141301342D01*
X128801371Y-141229914D01*
X127587085Y-141515628D02*
X126444228Y-141515628D01*
X126087085Y-141372771D02*
X126087085Y-140372771D01*
X126087085Y-140658485D02*
X126015657Y-140515628D01*
X125944228Y-140444200D01*
X125801371Y-140372771D01*
X125658514Y-140372771D01*
X124587085Y-141301342D02*
X124729942Y-141372771D01*
X125015657Y-141372771D01*
X125158514Y-141301342D01*
X125229942Y-141158485D01*
X125229942Y-140587057D01*
X125158514Y-140444200D01*
X125015657Y-140372771D01*
X124729942Y-140372771D01*
X124587085Y-140444200D01*
X124515657Y-140587057D01*
X124515657Y-140729914D01*
X125229942Y-140872771D01*
X124015657Y-140372771D02*
X123658514Y-141372771D01*
X123301371Y-140372771D01*
X121944228Y-141372771D02*
X122801371Y-141372771D01*
X122372800Y-141372771D02*
X122372800Y-139872771D01*
X122515657Y-140087057D01*
X122658514Y-140229914D01*
X122801371Y-140301342D01*
X121301371Y-141229914D02*
X121229942Y-141301342D01*
X121301371Y-141372771D01*
X121372800Y-141301342D01*
X121301371Y-141229914D01*
X121301371Y-141372771D01*
X120301371Y-139872771D02*
X120158514Y-139872771D01*
X120015657Y-139944200D01*
X119944228Y-140015628D01*
X119872800Y-140158485D01*
X119801371Y-140444200D01*
X119801371Y-140801342D01*
X119872800Y-141087057D01*
X119944228Y-141229914D01*
X120015657Y-141301342D01*
X120158514Y-141372771D01*
X120301371Y-141372771D01*
X120444228Y-141301342D01*
X120515657Y-141229914D01*
X120587085Y-141087057D01*
X120658514Y-140801342D01*
X120658514Y-140444200D01*
X120587085Y-140158485D01*
X120515657Y-140015628D01*
X120444228Y-139944200D01*
X120301371Y-139872771D01*
X190570800Y-119528771D02*
X190570800Y-118028771D01*
X190070800Y-119100200D01*
X189570800Y-118028771D01*
X189570800Y-119528771D01*
X188999371Y-118028771D02*
X188070800Y-118028771D01*
X188570800Y-118600200D01*
X188356514Y-118600200D01*
X188213657Y-118671628D01*
X188142228Y-118743057D01*
X188070800Y-118885914D01*
X188070800Y-119243057D01*
X188142228Y-119385914D01*
X188213657Y-119457342D01*
X188356514Y-119528771D01*
X188785085Y-119528771D01*
X188927942Y-119457342D01*
X188999371Y-119385914D01*
X187785085Y-119671628D02*
X186642228Y-119671628D01*
X186285085Y-119528771D02*
X186285085Y-118528771D01*
X186285085Y-118814485D02*
X186213657Y-118671628D01*
X186142228Y-118600200D01*
X185999371Y-118528771D01*
X185856514Y-118528771D01*
X184785085Y-119457342D02*
X184927942Y-119528771D01*
X185213657Y-119528771D01*
X185356514Y-119457342D01*
X185427942Y-119314485D01*
X185427942Y-118743057D01*
X185356514Y-118600200D01*
X185213657Y-118528771D01*
X184927942Y-118528771D01*
X184785085Y-118600200D01*
X184713657Y-118743057D01*
X184713657Y-118885914D01*
X185427942Y-119028771D01*
X184213657Y-118528771D02*
X183856514Y-119528771D01*
X183499371Y-118528771D01*
X182142228Y-119528771D02*
X182999371Y-119528771D01*
X182570800Y-119528771D02*
X182570800Y-118028771D01*
X182713657Y-118243057D01*
X182856514Y-118385914D01*
X182999371Y-118457342D01*
X181499371Y-119385914D02*
X181427942Y-119457342D01*
X181499371Y-119528771D01*
X181570800Y-119457342D01*
X181499371Y-119385914D01*
X181499371Y-119528771D01*
X180499371Y-118028771D02*
X180356514Y-118028771D01*
X180213657Y-118100200D01*
X180142228Y-118171628D01*
X180070800Y-118314485D01*
X179999371Y-118600200D01*
X179999371Y-118957342D01*
X180070800Y-119243057D01*
X180142228Y-119385914D01*
X180213657Y-119457342D01*
X180356514Y-119528771D01*
X180499371Y-119528771D01*
X180642228Y-119457342D01*
X180713657Y-119385914D01*
X180785085Y-119243057D01*
X180856514Y-118957342D01*
X180856514Y-118600200D01*
X180785085Y-118314485D01*
X180713657Y-118171628D01*
X180642228Y-118100200D01*
X180499371Y-118028771D01*
X130372800Y-119528771D02*
X130372800Y-118028771D01*
X129872800Y-119100200D01*
X129372800Y-118028771D01*
X129372800Y-119528771D01*
X128801371Y-118028771D02*
X127872800Y-118028771D01*
X128372800Y-118600200D01*
X128158514Y-118600200D01*
X128015657Y-118671628D01*
X127944228Y-118743057D01*
X127872800Y-118885914D01*
X127872800Y-119243057D01*
X127944228Y-119385914D01*
X128015657Y-119457342D01*
X128158514Y-119528771D01*
X128587085Y-119528771D01*
X128729942Y-119457342D01*
X128801371Y-119385914D01*
X127587085Y-119671628D02*
X126444228Y-119671628D01*
X126087085Y-119528771D02*
X126087085Y-118528771D01*
X126087085Y-118814485D02*
X126015657Y-118671628D01*
X125944228Y-118600200D01*
X125801371Y-118528771D01*
X125658514Y-118528771D01*
X124587085Y-119457342D02*
X124729942Y-119528771D01*
X125015657Y-119528771D01*
X125158514Y-119457342D01*
X125229942Y-119314485D01*
X125229942Y-118743057D01*
X125158514Y-118600200D01*
X125015657Y-118528771D01*
X124729942Y-118528771D01*
X124587085Y-118600200D01*
X124515657Y-118743057D01*
X124515657Y-118885914D01*
X125229942Y-119028771D01*
X124015657Y-118528771D02*
X123658514Y-119528771D01*
X123301371Y-118528771D01*
X121944228Y-119528771D02*
X122801371Y-119528771D01*
X122372800Y-119528771D02*
X122372800Y-118028771D01*
X122515657Y-118243057D01*
X122658514Y-118385914D01*
X122801371Y-118457342D01*
X121301371Y-119385914D02*
X121229942Y-119457342D01*
X121301371Y-119528771D01*
X121372800Y-119457342D01*
X121301371Y-119385914D01*
X121301371Y-119528771D01*
X120301371Y-118028771D02*
X120158514Y-118028771D01*
X120015657Y-118100200D01*
X119944228Y-118171628D01*
X119872800Y-118314485D01*
X119801371Y-118600200D01*
X119801371Y-118957342D01*
X119872800Y-119243057D01*
X119944228Y-119385914D01*
X120015657Y-119457342D01*
X120158514Y-119528771D01*
X120301371Y-119528771D01*
X120444228Y-119457342D01*
X120515657Y-119385914D01*
X120587085Y-119243057D01*
X120658514Y-118957342D01*
X120658514Y-118600200D01*
X120587085Y-118314485D01*
X120515657Y-118171628D01*
X120444228Y-118100200D01*
X120301371Y-118028771D01*
X190570800Y-97684771D02*
X190570800Y-96184771D01*
X190070800Y-97256200D01*
X189570800Y-96184771D01*
X189570800Y-97684771D01*
X188999371Y-96184771D02*
X188070800Y-96184771D01*
X188570800Y-96756200D01*
X188356514Y-96756200D01*
X188213657Y-96827628D01*
X188142228Y-96899057D01*
X188070800Y-97041914D01*
X188070800Y-97399057D01*
X188142228Y-97541914D01*
X188213657Y-97613342D01*
X188356514Y-97684771D01*
X188785085Y-97684771D01*
X188927942Y-97613342D01*
X188999371Y-97541914D01*
X187785085Y-97827628D02*
X186642228Y-97827628D01*
X186285085Y-97684771D02*
X186285085Y-96684771D01*
X186285085Y-96970485D02*
X186213657Y-96827628D01*
X186142228Y-96756200D01*
X185999371Y-96684771D01*
X185856514Y-96684771D01*
X184785085Y-97613342D02*
X184927942Y-97684771D01*
X185213657Y-97684771D01*
X185356514Y-97613342D01*
X185427942Y-97470485D01*
X185427942Y-96899057D01*
X185356514Y-96756200D01*
X185213657Y-96684771D01*
X184927942Y-96684771D01*
X184785085Y-96756200D01*
X184713657Y-96899057D01*
X184713657Y-97041914D01*
X185427942Y-97184771D01*
X184213657Y-96684771D02*
X183856514Y-97684771D01*
X183499371Y-96684771D01*
X182142228Y-97684771D02*
X182999371Y-97684771D01*
X182570800Y-97684771D02*
X182570800Y-96184771D01*
X182713657Y-96399057D01*
X182856514Y-96541914D01*
X182999371Y-96613342D01*
X181499371Y-97541914D02*
X181427942Y-97613342D01*
X181499371Y-97684771D01*
X181570800Y-97613342D01*
X181499371Y-97541914D01*
X181499371Y-97684771D01*
X180499371Y-96184771D02*
X180356514Y-96184771D01*
X180213657Y-96256200D01*
X180142228Y-96327628D01*
X180070800Y-96470485D01*
X179999371Y-96756200D01*
X179999371Y-97113342D01*
X180070800Y-97399057D01*
X180142228Y-97541914D01*
X180213657Y-97613342D01*
X180356514Y-97684771D01*
X180499371Y-97684771D01*
X180642228Y-97613342D01*
X180713657Y-97541914D01*
X180785085Y-97399057D01*
X180856514Y-97113342D01*
X180856514Y-96756200D01*
X180785085Y-96470485D01*
X180713657Y-96327628D01*
X180642228Y-96256200D01*
X180499371Y-96184771D01*
X130372800Y-97684771D02*
X130372800Y-96184771D01*
X129872800Y-97256200D01*
X129372800Y-96184771D01*
X129372800Y-97684771D01*
X128801371Y-96184771D02*
X127872800Y-96184771D01*
X128372800Y-96756200D01*
X128158514Y-96756200D01*
X128015657Y-96827628D01*
X127944228Y-96899057D01*
X127872800Y-97041914D01*
X127872800Y-97399057D01*
X127944228Y-97541914D01*
X128015657Y-97613342D01*
X128158514Y-97684771D01*
X128587085Y-97684771D01*
X128729942Y-97613342D01*
X128801371Y-97541914D01*
X127587085Y-97827628D02*
X126444228Y-97827628D01*
X126087085Y-97684771D02*
X126087085Y-96684771D01*
X126087085Y-96970485D02*
X126015657Y-96827628D01*
X125944228Y-96756200D01*
X125801371Y-96684771D01*
X125658514Y-96684771D01*
X124587085Y-97613342D02*
X124729942Y-97684771D01*
X125015657Y-97684771D01*
X125158514Y-97613342D01*
X125229942Y-97470485D01*
X125229942Y-96899057D01*
X125158514Y-96756200D01*
X125015657Y-96684771D01*
X124729942Y-96684771D01*
X124587085Y-96756200D01*
X124515657Y-96899057D01*
X124515657Y-97041914D01*
X125229942Y-97184771D01*
X124015657Y-96684771D02*
X123658514Y-97684771D01*
X123301371Y-96684771D01*
X121944228Y-97684771D02*
X122801371Y-97684771D01*
X122372800Y-97684771D02*
X122372800Y-96184771D01*
X122515657Y-96399057D01*
X122658514Y-96541914D01*
X122801371Y-96613342D01*
X121301371Y-97541914D02*
X121229942Y-97613342D01*
X121301371Y-97684771D01*
X121372800Y-97613342D01*
X121301371Y-97541914D01*
X121301371Y-97684771D01*
X120301371Y-96184771D02*
X120158514Y-96184771D01*
X120015657Y-96256200D01*
X119944228Y-96327628D01*
X119872800Y-96470485D01*
X119801371Y-96756200D01*
X119801371Y-97113342D01*
X119872800Y-97399057D01*
X119944228Y-97541914D01*
X120015657Y-97613342D01*
X120158514Y-97684771D01*
X120301371Y-97684771D01*
X120444228Y-97613342D01*
X120515657Y-97541914D01*
X120587085Y-97399057D01*
X120658514Y-97113342D01*
X120658514Y-96756200D01*
X120587085Y-96470485D01*
X120515657Y-96327628D01*
X120444228Y-96256200D01*
X120301371Y-96184771D01*
X190570800Y-75840771D02*
X190570800Y-74340771D01*
X190070800Y-75412200D01*
X189570800Y-74340771D01*
X189570800Y-75840771D01*
X188999371Y-74340771D02*
X188070800Y-74340771D01*
X188570800Y-74912200D01*
X188356514Y-74912200D01*
X188213657Y-74983628D01*
X188142228Y-75055057D01*
X188070800Y-75197914D01*
X188070800Y-75555057D01*
X188142228Y-75697914D01*
X188213657Y-75769342D01*
X188356514Y-75840771D01*
X188785085Y-75840771D01*
X188927942Y-75769342D01*
X188999371Y-75697914D01*
X187785085Y-75983628D02*
X186642228Y-75983628D01*
X186285085Y-75840771D02*
X186285085Y-74840771D01*
X186285085Y-75126485D02*
X186213657Y-74983628D01*
X186142228Y-74912200D01*
X185999371Y-74840771D01*
X185856514Y-74840771D01*
X184785085Y-75769342D02*
X184927942Y-75840771D01*
X185213657Y-75840771D01*
X185356514Y-75769342D01*
X185427942Y-75626485D01*
X185427942Y-75055057D01*
X185356514Y-74912200D01*
X185213657Y-74840771D01*
X184927942Y-74840771D01*
X184785085Y-74912200D01*
X184713657Y-75055057D01*
X184713657Y-75197914D01*
X185427942Y-75340771D01*
X184213657Y-74840771D02*
X183856514Y-75840771D01*
X183499371Y-74840771D01*
X182142228Y-75840771D02*
X182999371Y-75840771D01*
X182570800Y-75840771D02*
X182570800Y-74340771D01*
X182713657Y-74555057D01*
X182856514Y-74697914D01*
X182999371Y-74769342D01*
X181499371Y-75697914D02*
X181427942Y-75769342D01*
X181499371Y-75840771D01*
X181570800Y-75769342D01*
X181499371Y-75697914D01*
X181499371Y-75840771D01*
X180499371Y-74340771D02*
X180356514Y-74340771D01*
X180213657Y-74412200D01*
X180142228Y-74483628D01*
X180070800Y-74626485D01*
X179999371Y-74912200D01*
X179999371Y-75269342D01*
X180070800Y-75555057D01*
X180142228Y-75697914D01*
X180213657Y-75769342D01*
X180356514Y-75840771D01*
X180499371Y-75840771D01*
X180642228Y-75769342D01*
X180713657Y-75697914D01*
X180785085Y-75555057D01*
X180856514Y-75269342D01*
X180856514Y-74912200D01*
X180785085Y-74626485D01*
X180713657Y-74483628D01*
X180642228Y-74412200D01*
X180499371Y-74340771D01*
X130372800Y-75840771D02*
X130372800Y-74340771D01*
X129872800Y-75412200D01*
X129372800Y-74340771D01*
X129372800Y-75840771D01*
X128801371Y-74340771D02*
X127872800Y-74340771D01*
X128372800Y-74912200D01*
X128158514Y-74912200D01*
X128015657Y-74983628D01*
X127944228Y-75055057D01*
X127872800Y-75197914D01*
X127872800Y-75555057D01*
X127944228Y-75697914D01*
X128015657Y-75769342D01*
X128158514Y-75840771D01*
X128587085Y-75840771D01*
X128729942Y-75769342D01*
X128801371Y-75697914D01*
X127587085Y-75983628D02*
X126444228Y-75983628D01*
X126087085Y-75840771D02*
X126087085Y-74840771D01*
X126087085Y-75126485D02*
X126015657Y-74983628D01*
X125944228Y-74912200D01*
X125801371Y-74840771D01*
X125658514Y-74840771D01*
X124587085Y-75769342D02*
X124729942Y-75840771D01*
X125015657Y-75840771D01*
X125158514Y-75769342D01*
X125229942Y-75626485D01*
X125229942Y-75055057D01*
X125158514Y-74912200D01*
X125015657Y-74840771D01*
X124729942Y-74840771D01*
X124587085Y-74912200D01*
X124515657Y-75055057D01*
X124515657Y-75197914D01*
X125229942Y-75340771D01*
X124015657Y-74840771D02*
X123658514Y-75840771D01*
X123301371Y-74840771D01*
X121944228Y-75840771D02*
X122801371Y-75840771D01*
X122372800Y-75840771D02*
X122372800Y-74340771D01*
X122515657Y-74555057D01*
X122658514Y-74697914D01*
X122801371Y-74769342D01*
X121301371Y-75697914D02*
X121229942Y-75769342D01*
X121301371Y-75840771D01*
X121372800Y-75769342D01*
X121301371Y-75697914D01*
X121301371Y-75840771D01*
X120301371Y-74340771D02*
X120158514Y-74340771D01*
X120015657Y-74412200D01*
X119944228Y-74483628D01*
X119872800Y-74626485D01*
X119801371Y-74912200D01*
X119801371Y-75269342D01*
X119872800Y-75555057D01*
X119944228Y-75697914D01*
X120015657Y-75769342D01*
X120158514Y-75840771D01*
X120301371Y-75840771D01*
X120444228Y-75769342D01*
X120515657Y-75697914D01*
X120587085Y-75555057D01*
X120658514Y-75269342D01*
X120658514Y-74912200D01*
X120587085Y-74626485D01*
X120515657Y-74483628D01*
X120444228Y-74412200D01*
X120301371Y-74340771D01*
X190570800Y-53996771D02*
X190570800Y-52496771D01*
X190070800Y-53568200D01*
X189570800Y-52496771D01*
X189570800Y-53996771D01*
X188999371Y-52496771D02*
X188070800Y-52496771D01*
X188570800Y-53068200D01*
X188356514Y-53068200D01*
X188213657Y-53139628D01*
X188142228Y-53211057D01*
X188070800Y-53353914D01*
X188070800Y-53711057D01*
X188142228Y-53853914D01*
X188213657Y-53925342D01*
X188356514Y-53996771D01*
X188785085Y-53996771D01*
X188927942Y-53925342D01*
X188999371Y-53853914D01*
X187785085Y-54139628D02*
X186642228Y-54139628D01*
X186285085Y-53996771D02*
X186285085Y-52996771D01*
X186285085Y-53282485D02*
X186213657Y-53139628D01*
X186142228Y-53068200D01*
X185999371Y-52996771D01*
X185856514Y-52996771D01*
X184785085Y-53925342D02*
X184927942Y-53996771D01*
X185213657Y-53996771D01*
X185356514Y-53925342D01*
X185427942Y-53782485D01*
X185427942Y-53211057D01*
X185356514Y-53068200D01*
X185213657Y-52996771D01*
X184927942Y-52996771D01*
X184785085Y-53068200D01*
X184713657Y-53211057D01*
X184713657Y-53353914D01*
X185427942Y-53496771D01*
X184213657Y-52996771D02*
X183856514Y-53996771D01*
X183499371Y-52996771D01*
X182142228Y-53996771D02*
X182999371Y-53996771D01*
X182570800Y-53996771D02*
X182570800Y-52496771D01*
X182713657Y-52711057D01*
X182856514Y-52853914D01*
X182999371Y-52925342D01*
X181499371Y-53853914D02*
X181427942Y-53925342D01*
X181499371Y-53996771D01*
X181570800Y-53925342D01*
X181499371Y-53853914D01*
X181499371Y-53996771D01*
X180499371Y-52496771D02*
X180356514Y-52496771D01*
X180213657Y-52568200D01*
X180142228Y-52639628D01*
X180070800Y-52782485D01*
X179999371Y-53068200D01*
X179999371Y-53425342D01*
X180070800Y-53711057D01*
X180142228Y-53853914D01*
X180213657Y-53925342D01*
X180356514Y-53996771D01*
X180499371Y-53996771D01*
X180642228Y-53925342D01*
X180713657Y-53853914D01*
X180785085Y-53711057D01*
X180856514Y-53425342D01*
X180856514Y-53068200D01*
X180785085Y-52782485D01*
X180713657Y-52639628D01*
X180642228Y-52568200D01*
X180499371Y-52496771D01*
X130372800Y-53996771D02*
X130372800Y-52496771D01*
X129872800Y-53568200D01*
X129372800Y-52496771D01*
X129372800Y-53996771D01*
X128801371Y-52496771D02*
X127872800Y-52496771D01*
X128372800Y-53068200D01*
X128158514Y-53068200D01*
X128015657Y-53139628D01*
X127944228Y-53211057D01*
X127872800Y-53353914D01*
X127872800Y-53711057D01*
X127944228Y-53853914D01*
X128015657Y-53925342D01*
X128158514Y-53996771D01*
X128587085Y-53996771D01*
X128729942Y-53925342D01*
X128801371Y-53853914D01*
X127587085Y-54139628D02*
X126444228Y-54139628D01*
X126087085Y-53996771D02*
X126087085Y-52996771D01*
X126087085Y-53282485D02*
X126015657Y-53139628D01*
X125944228Y-53068200D01*
X125801371Y-52996771D01*
X125658514Y-52996771D01*
X124587085Y-53925342D02*
X124729942Y-53996771D01*
X125015657Y-53996771D01*
X125158514Y-53925342D01*
X125229942Y-53782485D01*
X125229942Y-53211057D01*
X125158514Y-53068200D01*
X125015657Y-52996771D01*
X124729942Y-52996771D01*
X124587085Y-53068200D01*
X124515657Y-53211057D01*
X124515657Y-53353914D01*
X125229942Y-53496771D01*
X124015657Y-52996771D02*
X123658514Y-53996771D01*
X123301371Y-52996771D01*
X121944228Y-53996771D02*
X122801371Y-53996771D01*
X122372800Y-53996771D02*
X122372800Y-52496771D01*
X122515657Y-52711057D01*
X122658514Y-52853914D01*
X122801371Y-52925342D01*
X121301371Y-53853914D02*
X121229942Y-53925342D01*
X121301371Y-53996771D01*
X121372800Y-53925342D01*
X121301371Y-53853914D01*
X121301371Y-53996771D01*
X120301371Y-52496771D02*
X120158514Y-52496771D01*
X120015657Y-52568200D01*
X119944228Y-52639628D01*
X119872800Y-52782485D01*
X119801371Y-53068200D01*
X119801371Y-53425342D01*
X119872800Y-53711057D01*
X119944228Y-53853914D01*
X120015657Y-53925342D01*
X120158514Y-53996771D01*
X120301371Y-53996771D01*
X120444228Y-53925342D01*
X120515657Y-53853914D01*
X120587085Y-53711057D01*
X120658514Y-53425342D01*
X120658514Y-53068200D01*
X120587085Y-52782485D01*
X120515657Y-52639628D01*
X120444228Y-52568200D01*
X120301371Y-52496771D01*
D11*
G04 #@! TO.C,RV1*
X146946800Y-133624200D02*
X147696800Y-134374200D01*
X147696800Y-132874200D02*
X146946800Y-133624200D01*
X146946800Y-132124200D02*
X146946800Y-135124200D01*
X166946800Y-133624200D02*
X166196800Y-134374200D01*
X166196800Y-132874200D02*
X166946800Y-133624200D01*
X166946800Y-132124200D02*
X166946800Y-135124200D01*
X166946800Y-133624200D02*
X146946800Y-133624200D01*
X175121800Y-132374200D02*
X174621800Y-131874200D01*
X175121800Y-131374200D02*
X175121800Y-132374200D01*
X174621800Y-131874200D02*
X175121800Y-131374200D01*
X139326800Y-132330200D02*
X139326800Y-138244200D01*
X139326800Y-129004200D02*
X139326800Y-131418200D01*
X174566800Y-135830200D02*
X174566800Y-138244200D01*
X174566800Y-133049200D02*
X174566800Y-134919200D01*
X174566800Y-129004200D02*
X174566800Y-130699200D01*
X142710800Y-138244200D02*
X139326800Y-138244200D01*
X167910800Y-138244200D02*
X145981800Y-138244200D01*
X174566800Y-138244200D02*
X171181800Y-138244200D01*
X143910800Y-129004200D02*
X139326800Y-129004200D01*
X166710800Y-129004200D02*
X147181800Y-129004200D01*
X174566800Y-129004200D02*
X169981800Y-129004200D01*
X86748800Y-133624200D02*
X87498800Y-134374200D01*
X87498800Y-132874200D02*
X86748800Y-133624200D01*
X86748800Y-132124200D02*
X86748800Y-135124200D01*
X106748800Y-133624200D02*
X105998800Y-134374200D01*
X105998800Y-132874200D02*
X106748800Y-133624200D01*
X106748800Y-132124200D02*
X106748800Y-135124200D01*
X106748800Y-133624200D02*
X86748800Y-133624200D01*
X114923800Y-132374200D02*
X114423800Y-131874200D01*
X114923800Y-131374200D02*
X114923800Y-132374200D01*
X114423800Y-131874200D02*
X114923800Y-131374200D01*
X79128800Y-132330200D02*
X79128800Y-138244200D01*
X79128800Y-129004200D02*
X79128800Y-131418200D01*
X114368800Y-135830200D02*
X114368800Y-138244200D01*
X114368800Y-133049200D02*
X114368800Y-134919200D01*
X114368800Y-129004200D02*
X114368800Y-130699200D01*
X82512800Y-138244200D02*
X79128800Y-138244200D01*
X107712800Y-138244200D02*
X85783800Y-138244200D01*
X114368800Y-138244200D02*
X110983800Y-138244200D01*
X83712800Y-129004200D02*
X79128800Y-129004200D01*
X106512800Y-129004200D02*
X86983800Y-129004200D01*
X114368800Y-129004200D02*
X109783800Y-129004200D01*
X146946800Y-111780200D02*
X147696800Y-112530200D01*
X147696800Y-111030200D02*
X146946800Y-111780200D01*
X146946800Y-110280200D02*
X146946800Y-113280200D01*
X166946800Y-111780200D02*
X166196800Y-112530200D01*
X166196800Y-111030200D02*
X166946800Y-111780200D01*
X166946800Y-110280200D02*
X166946800Y-113280200D01*
X166946800Y-111780200D02*
X146946800Y-111780200D01*
X175121800Y-110530200D02*
X174621800Y-110030200D01*
X175121800Y-109530200D02*
X175121800Y-110530200D01*
X174621800Y-110030200D02*
X175121800Y-109530200D01*
X139326800Y-110486200D02*
X139326800Y-116400200D01*
X139326800Y-107160200D02*
X139326800Y-109574200D01*
X174566800Y-113986200D02*
X174566800Y-116400200D01*
X174566800Y-111205200D02*
X174566800Y-113075200D01*
X174566800Y-107160200D02*
X174566800Y-108855200D01*
X142710800Y-116400200D02*
X139326800Y-116400200D01*
X167910800Y-116400200D02*
X145981800Y-116400200D01*
X174566800Y-116400200D02*
X171181800Y-116400200D01*
X143910800Y-107160200D02*
X139326800Y-107160200D01*
X166710800Y-107160200D02*
X147181800Y-107160200D01*
X174566800Y-107160200D02*
X169981800Y-107160200D01*
X86748800Y-111780200D02*
X87498800Y-112530200D01*
X87498800Y-111030200D02*
X86748800Y-111780200D01*
X86748800Y-110280200D02*
X86748800Y-113280200D01*
X106748800Y-111780200D02*
X105998800Y-112530200D01*
X105998800Y-111030200D02*
X106748800Y-111780200D01*
X106748800Y-110280200D02*
X106748800Y-113280200D01*
X106748800Y-111780200D02*
X86748800Y-111780200D01*
X114923800Y-110530200D02*
X114423800Y-110030200D01*
X114923800Y-109530200D02*
X114923800Y-110530200D01*
X114423800Y-110030200D02*
X114923800Y-109530200D01*
X79128800Y-110486200D02*
X79128800Y-116400200D01*
X79128800Y-107160200D02*
X79128800Y-109574200D01*
X114368800Y-113986200D02*
X114368800Y-116400200D01*
X114368800Y-111205200D02*
X114368800Y-113075200D01*
X114368800Y-107160200D02*
X114368800Y-108855200D01*
X82512800Y-116400200D02*
X79128800Y-116400200D01*
X107712800Y-116400200D02*
X85783800Y-116400200D01*
X114368800Y-116400200D02*
X110983800Y-116400200D01*
X83712800Y-107160200D02*
X79128800Y-107160200D01*
X106512800Y-107160200D02*
X86983800Y-107160200D01*
X114368800Y-107160200D02*
X109783800Y-107160200D01*
X146946800Y-89936200D02*
X147696800Y-90686200D01*
X147696800Y-89186200D02*
X146946800Y-89936200D01*
X146946800Y-88436200D02*
X146946800Y-91436200D01*
X166946800Y-89936200D02*
X166196800Y-90686200D01*
X166196800Y-89186200D02*
X166946800Y-89936200D01*
X166946800Y-88436200D02*
X166946800Y-91436200D01*
X166946800Y-89936200D02*
X146946800Y-89936200D01*
X175121800Y-88686200D02*
X174621800Y-88186200D01*
X175121800Y-87686200D02*
X175121800Y-88686200D01*
X174621800Y-88186200D02*
X175121800Y-87686200D01*
X139326800Y-88642200D02*
X139326800Y-94556200D01*
X139326800Y-85316200D02*
X139326800Y-87730200D01*
X174566800Y-92142200D02*
X174566800Y-94556200D01*
X174566800Y-89361200D02*
X174566800Y-91231200D01*
X174566800Y-85316200D02*
X174566800Y-87011200D01*
X142710800Y-94556200D02*
X139326800Y-94556200D01*
X167910800Y-94556200D02*
X145981800Y-94556200D01*
X174566800Y-94556200D02*
X171181800Y-94556200D01*
X143910800Y-85316200D02*
X139326800Y-85316200D01*
X166710800Y-85316200D02*
X147181800Y-85316200D01*
X174566800Y-85316200D02*
X169981800Y-85316200D01*
X86748800Y-89936200D02*
X87498800Y-90686200D01*
X87498800Y-89186200D02*
X86748800Y-89936200D01*
X86748800Y-88436200D02*
X86748800Y-91436200D01*
X106748800Y-89936200D02*
X105998800Y-90686200D01*
X105998800Y-89186200D02*
X106748800Y-89936200D01*
X106748800Y-88436200D02*
X106748800Y-91436200D01*
X106748800Y-89936200D02*
X86748800Y-89936200D01*
X114923800Y-88686200D02*
X114423800Y-88186200D01*
X114923800Y-87686200D02*
X114923800Y-88686200D01*
X114423800Y-88186200D02*
X114923800Y-87686200D01*
X79128800Y-88642200D02*
X79128800Y-94556200D01*
X79128800Y-85316200D02*
X79128800Y-87730200D01*
X114368800Y-92142200D02*
X114368800Y-94556200D01*
X114368800Y-89361200D02*
X114368800Y-91231200D01*
X114368800Y-85316200D02*
X114368800Y-87011200D01*
X82512800Y-94556200D02*
X79128800Y-94556200D01*
X107712800Y-94556200D02*
X85783800Y-94556200D01*
X114368800Y-94556200D02*
X110983800Y-94556200D01*
X83712800Y-85316200D02*
X79128800Y-85316200D01*
X106512800Y-85316200D02*
X86983800Y-85316200D01*
X114368800Y-85316200D02*
X109783800Y-85316200D01*
X146946800Y-68092200D02*
X147696800Y-68842200D01*
X147696800Y-67342200D02*
X146946800Y-68092200D01*
X146946800Y-66592200D02*
X146946800Y-69592200D01*
X166946800Y-68092200D02*
X166196800Y-68842200D01*
X166196800Y-67342200D02*
X166946800Y-68092200D01*
X166946800Y-66592200D02*
X166946800Y-69592200D01*
X166946800Y-68092200D02*
X146946800Y-68092200D01*
X175121800Y-66842200D02*
X174621800Y-66342200D01*
X175121800Y-65842200D02*
X175121800Y-66842200D01*
X174621800Y-66342200D02*
X175121800Y-65842200D01*
X139326800Y-66798200D02*
X139326800Y-72712200D01*
X139326800Y-63472200D02*
X139326800Y-65886200D01*
X174566800Y-70298200D02*
X174566800Y-72712200D01*
X174566800Y-67517200D02*
X174566800Y-69387200D01*
X174566800Y-63472200D02*
X174566800Y-65167200D01*
X142710800Y-72712200D02*
X139326800Y-72712200D01*
X167910800Y-72712200D02*
X145981800Y-72712200D01*
X174566800Y-72712200D02*
X171181800Y-72712200D01*
X143910800Y-63472200D02*
X139326800Y-63472200D01*
X166710800Y-63472200D02*
X147181800Y-63472200D01*
X174566800Y-63472200D02*
X169981800Y-63472200D01*
X86748800Y-68092200D02*
X87498800Y-68842200D01*
X87498800Y-67342200D02*
X86748800Y-68092200D01*
X86748800Y-66592200D02*
X86748800Y-69592200D01*
X106748800Y-68092200D02*
X105998800Y-68842200D01*
X105998800Y-67342200D02*
X106748800Y-68092200D01*
X106748800Y-66592200D02*
X106748800Y-69592200D01*
X106748800Y-68092200D02*
X86748800Y-68092200D01*
X114923800Y-66842200D02*
X114423800Y-66342200D01*
X114923800Y-65842200D02*
X114923800Y-66842200D01*
X114423800Y-66342200D02*
X114923800Y-65842200D01*
X79128800Y-66798200D02*
X79128800Y-72712200D01*
X79128800Y-63472200D02*
X79128800Y-65886200D01*
X114368800Y-70298200D02*
X114368800Y-72712200D01*
X114368800Y-67517200D02*
X114368800Y-69387200D01*
X114368800Y-63472200D02*
X114368800Y-65167200D01*
X82512800Y-72712200D02*
X79128800Y-72712200D01*
X107712800Y-72712200D02*
X85783800Y-72712200D01*
X114368800Y-72712200D02*
X110983800Y-72712200D01*
X83712800Y-63472200D02*
X79128800Y-63472200D01*
X106512800Y-63472200D02*
X86983800Y-63472200D01*
X114368800Y-63472200D02*
X109783800Y-63472200D01*
X146946800Y-46248200D02*
X147696800Y-46998200D01*
X147696800Y-45498200D02*
X146946800Y-46248200D01*
X146946800Y-44748200D02*
X146946800Y-47748200D01*
X166946800Y-46248200D02*
X166196800Y-46998200D01*
X166196800Y-45498200D02*
X166946800Y-46248200D01*
X166946800Y-44748200D02*
X166946800Y-47748200D01*
X166946800Y-46248200D02*
X146946800Y-46248200D01*
X175121800Y-44998200D02*
X174621800Y-44498200D01*
X175121800Y-43998200D02*
X175121800Y-44998200D01*
X174621800Y-44498200D02*
X175121800Y-43998200D01*
X139326800Y-44954200D02*
X139326800Y-50868200D01*
X139326800Y-41628200D02*
X139326800Y-44042200D01*
X174566800Y-48454200D02*
X174566800Y-50868200D01*
X174566800Y-45673200D02*
X174566800Y-47543200D01*
X174566800Y-41628200D02*
X174566800Y-43323200D01*
X142710800Y-50868200D02*
X139326800Y-50868200D01*
X167910800Y-50868200D02*
X145981800Y-50868200D01*
X174566800Y-50868200D02*
X171181800Y-50868200D01*
X143910800Y-41628200D02*
X139326800Y-41628200D01*
X166710800Y-41628200D02*
X147181800Y-41628200D01*
X174566800Y-41628200D02*
X169981800Y-41628200D01*
G04 #@! TO.C,J2*
X162026800Y-126204200D02*
X162026800Y-124874200D01*
X160696800Y-126204200D02*
X162026800Y-126204200D01*
X159426800Y-126204200D02*
X159426800Y-123544200D01*
X159426800Y-123544200D02*
X151746800Y-123544200D01*
X159426800Y-126204200D02*
X151746800Y-126204200D01*
X151746800Y-126204200D02*
X151746800Y-123544200D01*
X101828800Y-126204200D02*
X101828800Y-124874200D01*
X100498800Y-126204200D02*
X101828800Y-126204200D01*
X99228800Y-126204200D02*
X99228800Y-123544200D01*
X99228800Y-123544200D02*
X91548800Y-123544200D01*
X99228800Y-126204200D02*
X91548800Y-126204200D01*
X91548800Y-126204200D02*
X91548800Y-123544200D01*
X162026800Y-104360200D02*
X162026800Y-103030200D01*
X160696800Y-104360200D02*
X162026800Y-104360200D01*
X159426800Y-104360200D02*
X159426800Y-101700200D01*
X159426800Y-101700200D02*
X151746800Y-101700200D01*
X159426800Y-104360200D02*
X151746800Y-104360200D01*
X151746800Y-104360200D02*
X151746800Y-101700200D01*
X101828800Y-104360200D02*
X101828800Y-103030200D01*
X100498800Y-104360200D02*
X101828800Y-104360200D01*
X99228800Y-104360200D02*
X99228800Y-101700200D01*
X99228800Y-101700200D02*
X91548800Y-101700200D01*
X99228800Y-104360200D02*
X91548800Y-104360200D01*
X91548800Y-104360200D02*
X91548800Y-101700200D01*
X162026800Y-82516200D02*
X162026800Y-81186200D01*
X160696800Y-82516200D02*
X162026800Y-82516200D01*
X159426800Y-82516200D02*
X159426800Y-79856200D01*
X159426800Y-79856200D02*
X151746800Y-79856200D01*
X159426800Y-82516200D02*
X151746800Y-82516200D01*
X151746800Y-82516200D02*
X151746800Y-79856200D01*
X101828800Y-82516200D02*
X101828800Y-81186200D01*
X100498800Y-82516200D02*
X101828800Y-82516200D01*
X99228800Y-82516200D02*
X99228800Y-79856200D01*
X99228800Y-79856200D02*
X91548800Y-79856200D01*
X99228800Y-82516200D02*
X91548800Y-82516200D01*
X91548800Y-82516200D02*
X91548800Y-79856200D01*
X162026800Y-60672200D02*
X162026800Y-59342200D01*
X160696800Y-60672200D02*
X162026800Y-60672200D01*
X159426800Y-60672200D02*
X159426800Y-58012200D01*
X159426800Y-58012200D02*
X151746800Y-58012200D01*
X159426800Y-60672200D02*
X151746800Y-60672200D01*
X151746800Y-60672200D02*
X151746800Y-58012200D01*
X101828800Y-60672200D02*
X101828800Y-59342200D01*
X100498800Y-60672200D02*
X101828800Y-60672200D01*
X99228800Y-60672200D02*
X99228800Y-58012200D01*
X99228800Y-58012200D02*
X91548800Y-58012200D01*
X99228800Y-60672200D02*
X91548800Y-60672200D01*
X91548800Y-60672200D02*
X91548800Y-58012200D01*
X162026800Y-38828200D02*
X162026800Y-37498200D01*
X160696800Y-38828200D02*
X162026800Y-38828200D01*
X159426800Y-38828200D02*
X159426800Y-36168200D01*
X159426800Y-36168200D02*
X151746800Y-36168200D01*
X159426800Y-38828200D02*
X151746800Y-38828200D01*
X151746800Y-38828200D02*
X151746800Y-36168200D01*
G04 #@! TO.C,RV1*
X114368800Y-41628200D02*
X109783800Y-41628200D01*
X106512800Y-41628200D02*
X86983800Y-41628200D01*
X83712800Y-41628200D02*
X79128800Y-41628200D01*
X114368800Y-50868200D02*
X110983800Y-50868200D01*
X107712800Y-50868200D02*
X85783800Y-50868200D01*
X82512800Y-50868200D02*
X79128800Y-50868200D01*
X114368800Y-41628200D02*
X114368800Y-43323200D01*
X114368800Y-45673200D02*
X114368800Y-47543200D01*
X114368800Y-48454200D02*
X114368800Y-50868200D01*
X79128800Y-41628200D02*
X79128800Y-44042200D01*
X79128800Y-44954200D02*
X79128800Y-50868200D01*
X114423800Y-44498200D02*
X114923800Y-43998200D01*
X114923800Y-43998200D02*
X114923800Y-44998200D01*
X114923800Y-44998200D02*
X114423800Y-44498200D01*
X106748800Y-46248200D02*
X86748800Y-46248200D01*
X106748800Y-44748200D02*
X106748800Y-47748200D01*
X105998800Y-45498200D02*
X106748800Y-46248200D01*
X106748800Y-46248200D02*
X105998800Y-46998200D01*
X86748800Y-44748200D02*
X86748800Y-47748200D01*
X87498800Y-45498200D02*
X86748800Y-46248200D01*
X86748800Y-46248200D02*
X87498800Y-46998200D01*
D12*
G04 #@! TO.C,U2*
X136732781Y-56210200D02*
G75*
G03X136732781Y-56210200I-283981J0D01*
G01*
D13*
X136594800Y-37304200D02*
X136594800Y-55304200D01*
X142594800Y-55304200D02*
X117094800Y-55304200D01*
X142594800Y-37304200D02*
X117094800Y-37304200D01*
X117094800Y-37304200D02*
X117094800Y-55304200D01*
X142594800Y-37304200D02*
X142594800Y-55304200D01*
D11*
G04 #@! TO.C,J2*
X91548800Y-38828200D02*
X91548800Y-36168200D01*
X99228800Y-38828200D02*
X91548800Y-38828200D01*
X99228800Y-36168200D02*
X91548800Y-36168200D01*
X99228800Y-38828200D02*
X99228800Y-36168200D01*
X100498800Y-38828200D02*
X101828800Y-38828200D01*
X101828800Y-38828200D02*
X101828800Y-37498200D01*
G04 #@! TO.C,RV1*
D13*
X157542038Y-128326580D02*
X157875371Y-127850390D01*
X158113466Y-128326580D02*
X158113466Y-127326580D01*
X157732514Y-127326580D01*
X157637276Y-127374200D01*
X157589657Y-127421819D01*
X157542038Y-127517057D01*
X157542038Y-127659914D01*
X157589657Y-127755152D01*
X157637276Y-127802771D01*
X157732514Y-127850390D01*
X158113466Y-127850390D01*
X157256323Y-127326580D02*
X156922990Y-128326580D01*
X156589657Y-127326580D01*
X155732514Y-128326580D02*
X156303942Y-128326580D01*
X156018228Y-128326580D02*
X156018228Y-127326580D01*
X156113466Y-127469438D01*
X156208704Y-127564676D01*
X156303942Y-127612295D01*
X97344038Y-128326580D02*
X97677371Y-127850390D01*
X97915466Y-128326580D02*
X97915466Y-127326580D01*
X97534514Y-127326580D01*
X97439276Y-127374200D01*
X97391657Y-127421819D01*
X97344038Y-127517057D01*
X97344038Y-127659914D01*
X97391657Y-127755152D01*
X97439276Y-127802771D01*
X97534514Y-127850390D01*
X97915466Y-127850390D01*
X97058323Y-127326580D02*
X96724990Y-128326580D01*
X96391657Y-127326580D01*
X95534514Y-128326580D02*
X96105942Y-128326580D01*
X95820228Y-128326580D02*
X95820228Y-127326580D01*
X95915466Y-127469438D01*
X96010704Y-127564676D01*
X96105942Y-127612295D01*
X157542038Y-106482580D02*
X157875371Y-106006390D01*
X158113466Y-106482580D02*
X158113466Y-105482580D01*
X157732514Y-105482580D01*
X157637276Y-105530200D01*
X157589657Y-105577819D01*
X157542038Y-105673057D01*
X157542038Y-105815914D01*
X157589657Y-105911152D01*
X157637276Y-105958771D01*
X157732514Y-106006390D01*
X158113466Y-106006390D01*
X157256323Y-105482580D02*
X156922990Y-106482580D01*
X156589657Y-105482580D01*
X155732514Y-106482580D02*
X156303942Y-106482580D01*
X156018228Y-106482580D02*
X156018228Y-105482580D01*
X156113466Y-105625438D01*
X156208704Y-105720676D01*
X156303942Y-105768295D01*
X97344038Y-106482580D02*
X97677371Y-106006390D01*
X97915466Y-106482580D02*
X97915466Y-105482580D01*
X97534514Y-105482580D01*
X97439276Y-105530200D01*
X97391657Y-105577819D01*
X97344038Y-105673057D01*
X97344038Y-105815914D01*
X97391657Y-105911152D01*
X97439276Y-105958771D01*
X97534514Y-106006390D01*
X97915466Y-106006390D01*
X97058323Y-105482580D02*
X96724990Y-106482580D01*
X96391657Y-105482580D01*
X95534514Y-106482580D02*
X96105942Y-106482580D01*
X95820228Y-106482580D02*
X95820228Y-105482580D01*
X95915466Y-105625438D01*
X96010704Y-105720676D01*
X96105942Y-105768295D01*
X157542038Y-84638580D02*
X157875371Y-84162390D01*
X158113466Y-84638580D02*
X158113466Y-83638580D01*
X157732514Y-83638580D01*
X157637276Y-83686200D01*
X157589657Y-83733819D01*
X157542038Y-83829057D01*
X157542038Y-83971914D01*
X157589657Y-84067152D01*
X157637276Y-84114771D01*
X157732514Y-84162390D01*
X158113466Y-84162390D01*
X157256323Y-83638580D02*
X156922990Y-84638580D01*
X156589657Y-83638580D01*
X155732514Y-84638580D02*
X156303942Y-84638580D01*
X156018228Y-84638580D02*
X156018228Y-83638580D01*
X156113466Y-83781438D01*
X156208704Y-83876676D01*
X156303942Y-83924295D01*
X97344038Y-84638580D02*
X97677371Y-84162390D01*
X97915466Y-84638580D02*
X97915466Y-83638580D01*
X97534514Y-83638580D01*
X97439276Y-83686200D01*
X97391657Y-83733819D01*
X97344038Y-83829057D01*
X97344038Y-83971914D01*
X97391657Y-84067152D01*
X97439276Y-84114771D01*
X97534514Y-84162390D01*
X97915466Y-84162390D01*
X97058323Y-83638580D02*
X96724990Y-84638580D01*
X96391657Y-83638580D01*
X95534514Y-84638580D02*
X96105942Y-84638580D01*
X95820228Y-84638580D02*
X95820228Y-83638580D01*
X95915466Y-83781438D01*
X96010704Y-83876676D01*
X96105942Y-83924295D01*
X157542038Y-62794580D02*
X157875371Y-62318390D01*
X158113466Y-62794580D02*
X158113466Y-61794580D01*
X157732514Y-61794580D01*
X157637276Y-61842200D01*
X157589657Y-61889819D01*
X157542038Y-61985057D01*
X157542038Y-62127914D01*
X157589657Y-62223152D01*
X157637276Y-62270771D01*
X157732514Y-62318390D01*
X158113466Y-62318390D01*
X157256323Y-61794580D02*
X156922990Y-62794580D01*
X156589657Y-61794580D01*
X155732514Y-62794580D02*
X156303942Y-62794580D01*
X156018228Y-62794580D02*
X156018228Y-61794580D01*
X156113466Y-61937438D01*
X156208704Y-62032676D01*
X156303942Y-62080295D01*
X97344038Y-62794580D02*
X97677371Y-62318390D01*
X97915466Y-62794580D02*
X97915466Y-61794580D01*
X97534514Y-61794580D01*
X97439276Y-61842200D01*
X97391657Y-61889819D01*
X97344038Y-61985057D01*
X97344038Y-62127914D01*
X97391657Y-62223152D01*
X97439276Y-62270771D01*
X97534514Y-62318390D01*
X97915466Y-62318390D01*
X97058323Y-61794580D02*
X96724990Y-62794580D01*
X96391657Y-61794580D01*
X95534514Y-62794580D02*
X96105942Y-62794580D01*
X95820228Y-62794580D02*
X95820228Y-61794580D01*
X95915466Y-61937438D01*
X96010704Y-62032676D01*
X96105942Y-62080295D01*
X157542038Y-40950580D02*
X157875371Y-40474390D01*
X158113466Y-40950580D02*
X158113466Y-39950580D01*
X157732514Y-39950580D01*
X157637276Y-39998200D01*
X157589657Y-40045819D01*
X157542038Y-40141057D01*
X157542038Y-40283914D01*
X157589657Y-40379152D01*
X157637276Y-40426771D01*
X157732514Y-40474390D01*
X158113466Y-40474390D01*
X157256323Y-39950580D02*
X156922990Y-40950580D01*
X156589657Y-39950580D01*
X155732514Y-40950580D02*
X156303942Y-40950580D01*
X156018228Y-40950580D02*
X156018228Y-39950580D01*
X156113466Y-40093438D01*
X156208704Y-40188676D01*
X156303942Y-40236295D01*
X97344038Y-40950580D02*
X97677371Y-40474390D01*
X97915466Y-40950580D02*
X97915466Y-39950580D01*
X97534514Y-39950580D01*
X97439276Y-39998200D01*
X97391657Y-40045819D01*
X97344038Y-40141057D01*
X97344038Y-40283914D01*
X97391657Y-40379152D01*
X97439276Y-40426771D01*
X97534514Y-40474390D01*
X97915466Y-40474390D01*
X97058323Y-39950580D02*
X96724990Y-40950580D01*
X96391657Y-39950580D01*
X95534514Y-40950580D02*
X96105942Y-40950580D01*
X95820228Y-40950580D02*
X95820228Y-39950580D01*
X95915466Y-40093438D01*
X96010704Y-40188676D01*
X96105942Y-40236295D01*
G04 #@! TO.C,U2*
X138314180Y-33985295D02*
X139123704Y-33985295D01*
X139218942Y-34032914D01*
X139266561Y-34080533D01*
X139314180Y-34175771D01*
X139314180Y-34366247D01*
X139266561Y-34461485D01*
X139218942Y-34509104D01*
X139123704Y-34556723D01*
X138314180Y-34556723D01*
X138409419Y-34985295D02*
X138361800Y-35032914D01*
X138314180Y-35128152D01*
X138314180Y-35366247D01*
X138361800Y-35461485D01*
X138409419Y-35509104D01*
X138504657Y-35556723D01*
X138599895Y-35556723D01*
X138742752Y-35509104D01*
X139314180Y-34937676D01*
X139314180Y-35556723D01*
G04 #@! TD*
M02*
