M48
;DRILL file {KiCad 5.0.2-bee76a0~70~ubuntu18.04.1} date Fr 17 Mai 2019 22:11:48 CEST
;FORMAT={-:-/ absolute / inch / decimal}
FMAT,2
INCH,TZ
T1C0.0118
T2C0.0394
T3C0.0472
T4C0.0669
T5C0.0866
%
G90
G05
T1
X3.157Y-1.4929
X3.157Y-2.3529
X3.157Y-3.2129
X3.157Y-4.0729
X3.157Y-4.9329
X3.304Y-1.429
X3.304Y-2.289
X3.304Y-3.149
X3.304Y-4.009
X3.304Y-4.869
X3.427Y-1.932
X3.427Y-2.792
X3.427Y-3.652
X3.427Y-4.512
X3.427Y-5.372
X3.447Y-1.672
X3.447Y-1.722
X3.447Y-2.532
X3.447Y-2.582
X3.447Y-3.392
X3.447Y-3.442
X3.447Y-4.252
X3.447Y-4.302
X3.447Y-5.112
X3.447Y-5.162
X3.9223Y-1.7115
X3.9223Y-2.5715
X3.9223Y-3.4315
X3.9223Y-4.2915
X3.9223Y-5.1515
X4.117Y-1.982
X4.117Y-2.842
X4.117Y-3.702
X4.117Y-4.562
X4.117Y-5.422
X4.207Y-2.172
X4.207Y-3.032
X4.207Y-3.892
X4.207Y-4.752
X4.207Y-5.612
X4.267Y-2.152
X4.267Y-3.012
X4.267Y-3.872
X4.267Y-4.732
X4.267Y-5.592
X4.287Y-2.212
X4.287Y-3.072
X4.287Y-3.932
X4.287Y-4.792
X4.287Y-5.652
X4.383Y-2.028
X4.383Y-2.888
X4.383Y-3.748
X4.383Y-4.608
X4.383Y-5.468
X4.417Y-1.812
X4.417Y-2.672
X4.417Y-3.532
X4.417Y-4.392
X4.417Y-5.252
X4.517Y-1.662
X4.517Y-2.522
X4.517Y-3.382
X4.517Y-4.242
X4.517Y-5.102
X4.547Y-1.982
X4.547Y-2.842
X4.547Y-3.702
X4.547Y-4.562
X4.547Y-5.422
X4.587Y-1.452
X4.587Y-2.312
X4.587Y-3.172
X4.587Y-4.032
X4.587Y-4.892
X4.697Y-2.112
X4.697Y-2.972
X4.697Y-3.832
X4.697Y-4.692
X4.697Y-5.552
X4.6998Y-1.8355
X4.6998Y-2.6955
X4.6998Y-3.5555
X4.6998Y-4.4155
X4.6998Y-5.2755
X4.717Y-1.542
X4.717Y-2.032
X4.717Y-2.402
X4.717Y-2.892
X4.717Y-3.262
X4.717Y-3.752
X4.717Y-4.122
X4.717Y-4.612
X4.717Y-4.982
X4.717Y-5.472
X4.767Y-1.542
X4.767Y-2.402
X4.767Y-3.262
X4.767Y-4.122
X4.767Y-4.982
X4.787Y-2.042
X4.787Y-2.902
X4.787Y-3.762
X4.787Y-4.622
X4.787Y-5.482
X4.817Y-1.992
X4.817Y-2.852
X4.817Y-3.712
X4.817Y-4.572
X4.817Y-5.432
X4.827Y-1.542
X4.827Y-2.402
X4.827Y-3.262
X4.827Y-4.122
X4.827Y-4.982
X4.847Y-2.2384
X4.847Y-3.0984
X4.847Y-3.9584
X4.847Y-4.8184
X4.847Y-5.6784
X4.877Y-1.542
X4.877Y-2.402
X4.877Y-3.262
X4.877Y-4.122
X4.877Y-4.982
X4.927Y-1.542
X4.927Y-2.402
X4.927Y-3.262
X4.927Y-4.122
X4.927Y-4.982
X4.951Y-1.556
X4.951Y-2.416
X4.951Y-3.276
X4.951Y-4.136
X4.951Y-4.996
X4.957Y-1.412
X4.957Y-2.272
X4.957Y-3.132
X4.957Y-3.992
X4.957Y-4.852
X4.987Y-2.102
X4.987Y-2.962
X4.987Y-3.822
X4.987Y-4.682
X4.987Y-5.542
X5.047Y-2.102
X5.047Y-2.962
X5.047Y-3.822
X5.047Y-4.682
X5.047Y-5.542
X5.0483Y-1.4103
X5.0483Y-2.2703
X5.0483Y-3.1303
X5.0483Y-3.9903
X5.0483Y-4.8503
X5.137Y-1.662
X5.137Y-2.522
X5.137Y-3.382
X5.137Y-4.242
X5.137Y-5.102
X5.157Y-2.092
X5.157Y-2.952
X5.157Y-3.812
X5.157Y-4.672
X5.157Y-5.532
X5.187Y-1.942
X5.187Y-2.802
X5.187Y-3.662
X5.187Y-4.522
X5.187Y-5.382
X5.197Y-2.092
X5.197Y-2.952
X5.197Y-3.812
X5.197Y-4.672
X5.197Y-5.532
X5.277Y-2.042
X5.277Y-2.102
X5.277Y-2.902
X5.277Y-2.962
X5.277Y-3.762
X5.277Y-3.822
X5.277Y-4.622
X5.277Y-4.682
X5.277Y-5.482
X5.277Y-5.542
X5.317Y-1.552
X5.317Y-2.412
X5.317Y-3.272
X5.317Y-4.132
X5.317Y-4.992
X5.3328Y-2.0842
X5.3328Y-2.9442
X5.3328Y-3.8042
X5.3328Y-4.6642
X5.3328Y-5.5242
X5.527Y-1.4929
X5.527Y-2.3529
X5.527Y-3.2129
X5.527Y-4.0729
X5.527Y-4.9329
X5.674Y-1.429
X5.674Y-2.289
X5.674Y-3.149
X5.674Y-4.009
X5.674Y-4.869
X5.797Y-1.932
X5.797Y-2.792
X5.797Y-3.652
X5.797Y-4.512
X5.797Y-5.372
X5.817Y-1.672
X5.817Y-1.722
X5.817Y-2.532
X5.817Y-2.582
X5.817Y-3.392
X5.817Y-3.442
X5.817Y-4.252
X5.817Y-4.302
X5.817Y-5.112
X5.817Y-5.162
X6.2923Y-1.7115
X6.2923Y-2.5715
X6.2923Y-3.4315
X6.2923Y-4.2915
X6.2923Y-5.1515
X6.487Y-1.982
X6.487Y-2.842
X6.487Y-3.702
X6.487Y-4.562
X6.487Y-5.422
X6.577Y-2.172
X6.577Y-3.032
X6.577Y-3.892
X6.577Y-4.752
X6.577Y-5.612
X6.637Y-2.152
X6.637Y-3.012
X6.637Y-3.872
X6.637Y-4.732
X6.637Y-5.592
X6.657Y-2.212
X6.657Y-3.072
X6.657Y-3.932
X6.657Y-4.792
X6.657Y-5.652
X6.753Y-2.028
X6.753Y-2.888
X6.753Y-3.748
X6.753Y-4.608
X6.753Y-5.468
X6.787Y-1.812
X6.787Y-2.672
X6.787Y-3.532
X6.787Y-4.392
X6.787Y-5.252
X6.887Y-1.662
X6.887Y-2.522
X6.887Y-3.382
X6.887Y-4.242
X6.887Y-5.102
X6.917Y-1.982
X6.917Y-2.842
X6.917Y-3.702
X6.917Y-4.562
X6.917Y-5.422
X6.957Y-1.452
X6.957Y-2.312
X6.957Y-3.172
X6.957Y-4.032
X6.957Y-4.892
X7.067Y-2.112
X7.067Y-2.972
X7.067Y-3.832
X7.067Y-4.692
X7.067Y-5.552
X7.0698Y-1.8355
X7.0698Y-2.6955
X7.0698Y-3.5555
X7.0698Y-4.4155
X7.0698Y-5.2755
X7.087Y-1.542
X7.087Y-2.032
X7.087Y-2.402
X7.087Y-2.892
X7.087Y-3.262
X7.087Y-3.752
X7.087Y-4.122
X7.087Y-4.612
X7.087Y-4.982
X7.087Y-5.472
X7.137Y-1.542
X7.137Y-2.402
X7.137Y-3.262
X7.137Y-4.122
X7.137Y-4.982
X7.157Y-2.042
X7.157Y-2.902
X7.157Y-3.762
X7.157Y-4.622
X7.157Y-5.482
X7.187Y-1.992
X7.187Y-2.852
X7.187Y-3.712
X7.187Y-4.572
X7.187Y-5.432
X7.197Y-1.542
X7.197Y-2.402
X7.197Y-3.262
X7.197Y-4.122
X7.197Y-4.982
X7.217Y-2.2384
X7.217Y-3.0984
X7.217Y-3.9584
X7.217Y-4.8184
X7.217Y-5.6784
X7.247Y-1.542
X7.247Y-2.402
X7.247Y-3.262
X7.247Y-4.122
X7.247Y-4.982
X7.297Y-1.542
X7.297Y-2.402
X7.297Y-3.262
X7.297Y-4.122
X7.297Y-4.982
X7.321Y-1.556
X7.321Y-2.416
X7.321Y-3.276
X7.321Y-4.136
X7.321Y-4.996
X7.327Y-1.412
X7.327Y-2.272
X7.327Y-3.132
X7.327Y-3.992
X7.327Y-4.852
X7.357Y-2.102
X7.357Y-2.962
X7.357Y-3.822
X7.357Y-4.682
X7.357Y-5.542
X7.417Y-2.102
X7.417Y-2.962
X7.417Y-3.822
X7.417Y-4.682
X7.417Y-5.542
X7.4183Y-1.4103
X7.4183Y-2.2703
X7.4183Y-3.1303
X7.4183Y-3.9903
X7.4183Y-4.8503
X7.507Y-1.662
X7.507Y-2.522
X7.507Y-3.382
X7.507Y-4.242
X7.507Y-5.102
X7.527Y-2.092
X7.527Y-2.952
X7.527Y-3.812
X7.527Y-4.672
X7.527Y-5.532
X7.557Y-1.942
X7.557Y-2.802
X7.557Y-3.662
X7.557Y-4.522
X7.557Y-5.382
X7.567Y-2.092
X7.567Y-2.952
X7.567Y-3.812
X7.567Y-4.672
X7.567Y-5.532
X7.647Y-2.042
X7.647Y-2.102
X7.647Y-2.902
X7.647Y-2.962
X7.647Y-3.762
X7.647Y-3.822
X7.647Y-4.622
X7.647Y-4.682
X7.647Y-5.482
X7.647Y-5.542
X7.687Y-1.552
X7.687Y-2.412
X7.687Y-3.272
X7.687Y-4.132
X7.687Y-4.992
X7.7028Y-2.0842
X7.7028Y-2.9442
X7.7028Y-3.8042
X7.7028Y-4.6642
X7.7028Y-5.5242
T2
X3.6616Y-4.9153
X3.7616Y-4.9153
X3.8616Y-4.9153
X3.9616Y-4.9153
X4.1093Y-2.3353
X4.2093Y-2.3353
X4.3093Y-2.3353
X4.4093Y-2.3353
X5.4557Y-2.3633
X5.4557Y-2.4633
X3.6616Y-3.1953
X3.7616Y-3.1953
X3.8616Y-3.1953
X3.9616Y-3.1953
X3.517Y-3.882
X3.617Y-3.882
X3.717Y-3.882
X3.817Y-3.882
X3.917Y-3.882
X4.017Y-3.882
X6.0316Y-2.3353
X6.1316Y-2.3353
X6.2316Y-2.3353
X6.3316Y-2.3353
X6.0316Y-1.4753
X6.1316Y-1.4753
X6.2316Y-1.4753
X6.3316Y-1.4753
X5.887Y-3.022
X5.987Y-3.022
X6.087Y-3.022
X6.187Y-3.022
X6.287Y-3.022
X6.387Y-3.022
X3.517Y-3.022
X3.617Y-3.022
X3.717Y-3.022
X3.817Y-3.022
X3.917Y-3.022
X4.017Y-3.022
X5.887Y-3.882
X5.987Y-3.882
X6.087Y-3.882
X6.187Y-3.882
X6.287Y-3.882
X6.387Y-3.882
X4.1093Y-4.9153
X4.2093Y-4.9153
X4.3093Y-4.9153
X4.4093Y-4.9153
X4.1093Y-1.4753
X4.2093Y-1.4753
X4.3093Y-1.4753
X4.4093Y-1.4753
X6.4793Y-2.3353
X6.5793Y-2.3353
X6.6793Y-2.3353
X6.7793Y-2.3353
X6.4793Y-4.0553
X6.5793Y-4.0553
X6.6793Y-4.0553
X6.7793Y-4.0553
X3.6616Y-1.4753
X3.7616Y-1.4753
X3.8616Y-1.4753
X3.9616Y-1.4753
X3.0857Y-4.0833
X3.0857Y-4.1833
X4.1093Y-3.1953
X4.2093Y-3.1953
X4.3093Y-3.1953
X4.4093Y-3.1953
X6.0316Y-4.0553
X6.1316Y-4.0553
X6.2316Y-4.0553
X6.3316Y-4.0553
X5.887Y-5.602
X5.987Y-5.602
X6.087Y-5.602
X6.187Y-5.602
X6.287Y-5.602
X6.387Y-5.602
X4.1093Y-4.0553
X4.2093Y-4.0553
X4.3093Y-4.0553
X4.4093Y-4.0553
X6.0316Y-3.1953
X6.1316Y-3.1953
X6.2316Y-3.1953
X6.3316Y-3.1953
X6.4793Y-1.4753
X6.5793Y-1.4753
X6.6793Y-1.4753
X6.7793Y-1.4753
X5.4557Y-4.0833
X5.4557Y-4.1833
X6.0316Y-4.9153
X6.1316Y-4.9153
X6.2316Y-4.9153
X6.3316Y-4.9153
X5.887Y-4.742
X5.987Y-4.742
X6.087Y-4.742
X6.187Y-4.742
X6.287Y-4.742
X6.387Y-4.742
X6.4793Y-4.9153
X6.5793Y-4.9153
X6.6793Y-4.9153
X6.7793Y-4.9153
X5.4557Y-1.5033
X5.4557Y-1.6033
X3.0857Y-4.9433
X3.0857Y-5.0433
X3.517Y-4.742
X3.617Y-4.742
X3.717Y-4.742
X3.817Y-4.742
X3.917Y-4.742
X4.017Y-4.742
X6.4793Y-3.1953
X6.5793Y-3.1953
X6.6793Y-3.1953
X6.7793Y-3.1953
X3.6616Y-2.3353
X3.7616Y-2.3353
X3.8616Y-2.3353
X3.9616Y-2.3353
X3.517Y-2.162
X3.617Y-2.162
X3.717Y-2.162
X3.817Y-2.162
X3.917Y-2.162
X4.017Y-2.162
X3.6616Y-4.0553
X3.7616Y-4.0553
X3.8616Y-4.0553
X3.9616Y-4.0553
X5.4557Y-4.9433
X5.4557Y-5.0433
X5.887Y-2.162
X5.987Y-2.162
X6.087Y-2.162
X6.187Y-2.162
X6.287Y-2.162
X6.387Y-2.162
X3.0857Y-2.3633
X3.0857Y-2.4633
X3.0857Y-3.2233
X3.0857Y-3.3233
X3.517Y-5.602
X3.617Y-5.602
X3.717Y-5.602
X3.817Y-5.602
X3.917Y-5.602
X4.017Y-5.602
X5.4557Y-3.2233
X5.4557Y-3.3233
X3.0857Y-1.5033
X3.0857Y-1.6033
T3
X3.1644Y-2.6109
X4.4636Y-2.6109
X4.4636Y-2.7487
X3.1644Y-4.3309
X4.4636Y-4.3309
X4.4636Y-4.4687
X5.5344Y-2.6109
X6.8336Y-2.6109
X6.8336Y-2.7487
X5.5344Y-5.1909
X6.8336Y-5.1909
X6.8336Y-5.3287
X5.5344Y-4.3309
X6.8336Y-4.3309
X6.8336Y-4.4687
X3.1644Y-1.7509
X4.4636Y-1.7509
X4.4636Y-1.8887
X3.1644Y-3.4709
X4.4636Y-3.4709
X4.4636Y-3.6087
X5.5344Y-1.7509
X6.8336Y-1.7509
X6.8336Y-1.8887
X5.5344Y-3.4709
X6.8336Y-3.4709
X6.8336Y-3.6087
X3.1644Y-5.1909
X4.4636Y-5.1909
X4.4636Y-5.3287
T4
X5.6879Y-3.7051
X5.7352Y-3.3744
X6.6328Y-3.3744
X6.6801Y-3.7051
X3.3179Y-5.4251
X3.3652Y-5.0944
X4.2628Y-5.0944
X4.3101Y-5.4251
X3.3179Y-2.8451
X3.3652Y-2.5144
X4.2628Y-2.5144
X4.3101Y-2.8451
X3.3179Y-4.5651
X3.3652Y-4.2344
X4.2628Y-4.2344
X4.3101Y-4.5651
X5.6879Y-2.8451
X5.7352Y-2.5144
X6.6328Y-2.5144
X6.6801Y-2.8451
X5.6879Y-5.4251
X5.7352Y-5.0944
X6.6328Y-5.0944
X6.6801Y-5.4251
X5.6879Y-4.5651
X5.7352Y-4.2344
X6.6328Y-4.2344
X6.6801Y-4.5651
X3.3179Y-1.9851
X3.3652Y-1.6544
X4.2628Y-1.6544
X4.3101Y-1.9851
X3.3179Y-3.7051
X3.3652Y-3.3744
X4.2628Y-3.3744
X4.3101Y-3.7051
X5.6879Y-1.9851
X5.7352Y-1.6544
X6.6328Y-1.6544
X6.6801Y-1.9851
T5
X3.487Y-4.922
X3.487Y-1.482
X3.347Y-3.862
X5.857Y-2.342
X5.857Y-3.202
X6.807Y-3.012
X6.807Y-4.732
X5.717Y-2.142
X3.347Y-5.582
X5.857Y-4.062
X6.807Y-5.592
X3.347Y-3.002
X3.487Y-2.342
X6.807Y-3.872
X4.437Y-3.012
X5.857Y-4.922
X3.347Y-4.722
X5.717Y-3.002
X3.487Y-3.202
X4.437Y-4.732
X3.347Y-2.142
X5.717Y-5.582
X5.717Y-3.862
X5.717Y-4.722
X5.857Y-1.482
X3.487Y-4.062
X4.437Y-2.152
X4.437Y-5.592
X6.807Y-2.152
X4.437Y-3.872
T0
M30
