G04 #@! TF.GenerationSoftware,KiCad,Pcbnew,5.0.2-bee76a0~70~ubuntu18.04.1*
G04 #@! TF.CreationDate,2019-05-17T22:11:46+02:00*
G04 #@! TF.ProjectId,m3_2x5_panel,6d335f32-7835-45f7-9061-6e656c2e6b69,rev?*
G04 #@! TF.SameCoordinates,Original*
G04 #@! TF.FileFunction,Profile,NP*
%FSLAX46Y46*%
G04 Gerber Fmt 4.6, Leading zero omitted, Abs format (unit mm)*
G04 Created by KiCad (PCBNEW 5.0.2-bee76a0~70~ubuntu18.04.1) date Fr 17 Mai 2019 22:11:46 CEST*
%MOMM*%
%LPD*%
G01*
G04 APERTURE LIST*
%ADD10C,0.150000*%
G04 APERTURE END LIST*
D10*
X197281800Y-144576800D02*
X197281800Y-122732800D01*
X137083800Y-144576800D02*
X137083800Y-122732800D01*
X197281800Y-122732800D02*
X197281800Y-100888800D01*
X137083800Y-122732800D02*
X137083800Y-100888800D01*
X197281800Y-100888800D02*
X197281800Y-79044800D01*
X137083800Y-100888800D02*
X137083800Y-79044800D01*
X197281800Y-79044800D02*
X197281800Y-57200800D01*
X137083800Y-79044800D02*
X137083800Y-57200800D01*
X197281800Y-57200800D02*
X197281800Y-35356800D01*
X137083800Y-122732800D02*
X137083800Y-144576800D01*
X76885800Y-122732800D02*
X76885800Y-144576800D01*
X137083800Y-100888800D02*
X137083800Y-122732800D01*
X76885800Y-100888800D02*
X76885800Y-122732800D01*
X137083800Y-79044800D02*
X137083800Y-100888800D01*
X76885800Y-79044800D02*
X76885800Y-100888800D01*
X137083800Y-57200800D02*
X137083800Y-79044800D01*
X76885800Y-57200800D02*
X76885800Y-79044800D01*
X137083800Y-35356800D02*
X137083800Y-57200800D01*
X197281800Y-122732800D02*
X137083800Y-122732800D01*
X137083800Y-122732800D02*
X76885800Y-122732800D01*
X197281800Y-100888800D02*
X137083800Y-100888800D01*
X137083800Y-100888800D02*
X76885800Y-100888800D01*
X197281800Y-79044800D02*
X137083800Y-79044800D01*
X137083800Y-79044800D02*
X76885800Y-79044800D01*
X197281800Y-57200800D02*
X137083800Y-57200800D01*
X137083800Y-57200800D02*
X76885800Y-57200800D01*
X197281800Y-35356800D02*
X137083800Y-35356800D01*
X137083800Y-144576800D02*
X197281800Y-144576800D01*
X76885800Y-144576800D02*
X137083800Y-144576800D01*
X137083800Y-122732800D02*
X197281800Y-122732800D01*
X76885800Y-122732800D02*
X137083800Y-122732800D01*
X137083800Y-100888800D02*
X197281800Y-100888800D01*
X76885800Y-100888800D02*
X137083800Y-100888800D01*
X137083800Y-79044800D02*
X197281800Y-79044800D01*
X76885800Y-79044800D02*
X137083800Y-79044800D01*
X137083800Y-57200800D02*
X197281800Y-57200800D01*
X76885800Y-35356800D02*
X76885800Y-57200800D01*
X137083800Y-35356800D02*
X76885800Y-35356800D01*
X137083800Y-57200800D02*
X137083800Y-35356800D01*
X76885800Y-57200800D02*
X137083800Y-57200800D01*
M02*
