G04 #@! TF.GenerationSoftware,KiCad,Pcbnew,5.0.2-bee76a0~70~ubuntu18.04.1*
G04 #@! TF.CreationDate,2019-05-14T10:35:03+02:00*
G04 #@! TF.ProjectId,m3_2x5_panel,6d335f32-7835-45f7-9061-6e656c2e6b69,rev?*
G04 #@! TF.SameCoordinates,Original*
G04 #@! TF.FileFunction,Profile,NP*
%FSLAX46Y46*%
G04 Gerber Fmt 4.6, Leading zero omitted, Abs format (unit mm)*
G04 Created by KiCad (PCBNEW 5.0.2-bee76a0~70~ubuntu18.04.1) date Di 14 Mai 2019 10:35:03 CEST*
%MOMM*%
%LPD*%
G01*
G04 APERTURE LIST*
%ADD10C,0.150000*%
G04 APERTURE END LIST*
D10*
X136956800Y-144602200D02*
X197154800Y-144602200D01*
X76758800Y-144602200D02*
X136956800Y-144602200D01*
X136956800Y-122758200D02*
X197154800Y-122758200D01*
X76758800Y-122758200D02*
X136956800Y-122758200D01*
X136956800Y-100914200D02*
X197154800Y-100914200D01*
X76758800Y-100914200D02*
X136956800Y-100914200D01*
X136956800Y-79070200D02*
X197154800Y-79070200D01*
X76758800Y-79070200D02*
X136956800Y-79070200D01*
X136956800Y-57226200D02*
X197154800Y-57226200D01*
X197154800Y-144602200D02*
X197154800Y-122758200D01*
X136956800Y-144602200D02*
X136956800Y-122758200D01*
X197154800Y-122758200D02*
X197154800Y-100914200D01*
X136956800Y-122758200D02*
X136956800Y-100914200D01*
X197154800Y-100914200D02*
X197154800Y-79070200D01*
X136956800Y-100914200D02*
X136956800Y-79070200D01*
X197154800Y-79070200D02*
X197154800Y-57226200D01*
X136956800Y-79070200D02*
X136956800Y-57226200D01*
X197154800Y-57226200D02*
X197154800Y-35382200D01*
X136956800Y-122758200D02*
X136956800Y-144602200D01*
X76758800Y-122758200D02*
X76758800Y-144602200D01*
X136956800Y-100914200D02*
X136956800Y-122758200D01*
X76758800Y-100914200D02*
X76758800Y-122758200D01*
X136956800Y-79070200D02*
X136956800Y-100914200D01*
X76758800Y-79070200D02*
X76758800Y-100914200D01*
X136956800Y-57226200D02*
X136956800Y-79070200D01*
X76758800Y-57226200D02*
X76758800Y-79070200D01*
X136956800Y-35382200D02*
X136956800Y-57226200D01*
X197154800Y-122758200D02*
X136956800Y-122758200D01*
X136956800Y-122758200D02*
X76758800Y-122758200D01*
X197154800Y-100914200D02*
X136956800Y-100914200D01*
X136956800Y-100914200D02*
X76758800Y-100914200D01*
X197154800Y-79070200D02*
X136956800Y-79070200D01*
X136956800Y-79070200D02*
X76758800Y-79070200D01*
X197154800Y-57226200D02*
X136956800Y-57226200D01*
X136956800Y-57226200D02*
X76758800Y-57226200D01*
X197154800Y-35382200D02*
X136956800Y-35382200D01*
X76758800Y-35382200D02*
X76758800Y-57226200D01*
X136956800Y-35382200D02*
X76758800Y-35382200D01*
X136956800Y-57226200D02*
X136956800Y-35382200D01*
X76758800Y-57226200D02*
X136956800Y-57226200D01*
M02*
