M48
;DRILL file {KiCad 5.0.2-bee76a0~70~ubuntu18.04.1} date Fr 10 Mai 2019 18:36:09 CEST
;FORMAT={-:-/ absolute / inch / decimal}
FMAT,2
INCH,TZ
T1C0.0118
T2C0.0157
T3C0.0394
T4C0.0472
T5C0.0669
T6C0.0866
%
G90
G05
T1
X2.23Y-1.6109
X2.23Y-2.6936
X2.23Y-3.7763
X2.23Y-4.8589
X2.38Y-1.5427
X2.38Y-2.6254
X2.38Y-3.708
X2.38Y-4.7907
X2.5Y-2.05
X2.5Y-3.1327
X2.5Y-4.2154
X2.5Y-5.298
X2.52Y-1.79
X2.52Y-1.84
X2.52Y-2.8727
X2.52Y-2.9227
X2.52Y-3.9554
X2.52Y-4.0054
X2.52Y-5.038
X2.52Y-5.088
X3.19Y-2.1
X3.19Y-3.1827
X3.19Y-4.2654
X3.19Y-5.348
X3.28Y-2.29
X3.28Y-3.3727
X3.28Y-4.4554
X3.28Y-5.538
X3.34Y-2.27
X3.34Y-3.3527
X3.34Y-4.4354
X3.34Y-5.518
X3.36Y-2.33
X3.36Y-3.4127
X3.36Y-4.4954
X3.36Y-5.578
X3.47Y-2.14
X3.47Y-3.2227
X3.47Y-4.3054
X3.47Y-5.388
X3.49Y-1.93
X3.49Y-3.0127
X3.49Y-4.0954
X3.49Y-5.178
X3.59Y-1.78
X3.59Y-2.8627
X3.59Y-3.9454
X3.59Y-5.028
X3.62Y-2.1
X3.62Y-3.1827
X3.62Y-4.2654
X3.62Y-5.348
X3.66Y-1.57
X3.66Y-2.6527
X3.66Y-3.7354
X3.66Y-4.818
X3.77Y-1.96
X3.77Y-2.23
X3.77Y-3.0427
X3.77Y-3.3127
X3.77Y-4.1254
X3.77Y-4.3954
X3.77Y-5.208
X3.77Y-5.478
X3.79Y-1.66
X3.79Y-2.15
X3.79Y-2.7427
X3.79Y-3.2327
X3.79Y-3.8254
X3.79Y-4.3154
X3.79Y-4.908
X3.79Y-5.398
X3.84Y-1.66
X3.84Y-2.7427
X3.84Y-3.8254
X3.84Y-4.908
X3.86Y-2.16
X3.86Y-3.2427
X3.86Y-4.3254
X3.86Y-5.408
X3.89Y-2.11
X3.89Y-2.23
X3.89Y-3.1927
X3.89Y-3.3127
X3.89Y-4.2754
X3.89Y-4.3954
X3.89Y-5.358
X3.89Y-5.478
X3.9Y-1.66
X3.9Y-2.7427
X3.9Y-3.8254
X3.9Y-4.908
X3.92Y-2.3564
X3.92Y-3.4391
X3.92Y-4.5218
X3.92Y-5.6044
X3.95Y-1.66
X3.95Y-2.7427
X3.95Y-3.8254
X3.95Y-4.908
X4.Y-1.66
X4.Y-2.7427
X4.Y-3.8254
X4.Y-4.908
X4.02Y-1.68
X4.02Y-2.7627
X4.02Y-3.8454
X4.02Y-4.928
X4.03Y-1.53
X4.03Y-2.6127
X4.03Y-3.6954
X4.03Y-4.778
X4.06Y-2.22
X4.06Y-3.3027
X4.06Y-4.3854
X4.06Y-5.468
X4.12Y-2.22
X4.12Y-3.3027
X4.12Y-4.3854
X4.12Y-5.468
X4.16Y-1.65
X4.16Y-2.7327
X4.16Y-3.8154
X4.16Y-4.898
X4.21Y-1.78
X4.21Y-2.8627
X4.21Y-3.9454
X4.21Y-5.028
X4.23Y-2.21
X4.23Y-3.2927
X4.23Y-4.3754
X4.23Y-5.458
X4.26Y-2.06
X4.26Y-3.1427
X4.26Y-4.2254
X4.26Y-5.308
X4.27Y-2.21
X4.27Y-3.2927
X4.27Y-4.3754
X4.27Y-5.458
X4.35Y-2.16
X4.35Y-2.22
X4.35Y-3.2427
X4.35Y-3.3027
X4.35Y-4.3254
X4.35Y-4.3854
X4.35Y-5.408
X4.35Y-5.468
X4.39Y-1.67
X4.39Y-2.7527
X4.39Y-3.8354
X4.39Y-4.918
X4.4058Y-2.2022
X4.4058Y-3.2848
X4.4058Y-4.3675
X4.4058Y-5.4502
X4.8284Y-1.6109
X4.8284Y-2.6936
X4.8284Y-3.7763
X4.8284Y-4.8589
X4.9784Y-1.5427
X4.9784Y-2.6254
X4.9784Y-3.708
X4.9784Y-4.7907
X5.0984Y-2.05
X5.0984Y-3.1327
X5.0984Y-4.2154
X5.0984Y-5.298
X5.1184Y-1.79
X5.1184Y-1.84
X5.1184Y-2.8727
X5.1184Y-2.9227
X5.1184Y-3.9554
X5.1184Y-4.0054
X5.1184Y-5.038
X5.1184Y-5.088
X5.7884Y-2.1
X5.7884Y-3.1827
X5.7884Y-4.2654
X5.7884Y-5.348
X5.8784Y-2.29
X5.8784Y-3.3727
X5.8784Y-4.4554
X5.8784Y-5.538
X5.9384Y-2.27
X5.9384Y-3.3527
X5.9384Y-4.4354
X5.9384Y-5.518
X5.9584Y-2.33
X5.9584Y-3.4127
X5.9584Y-4.4954
X5.9584Y-5.578
X6.0684Y-2.14
X6.0684Y-3.2227
X6.0684Y-4.3054
X6.0684Y-5.388
X6.0884Y-1.93
X6.0884Y-3.0127
X6.0884Y-4.0954
X6.0884Y-5.178
X6.1884Y-1.78
X6.1884Y-2.8627
X6.1884Y-3.9454
X6.1884Y-5.028
X6.2184Y-2.1
X6.2184Y-3.1827
X6.2184Y-4.2654
X6.2184Y-5.348
X6.2584Y-1.57
X6.2584Y-2.6527
X6.2584Y-3.7354
X6.2584Y-4.818
X6.3684Y-1.96
X6.3684Y-2.23
X6.3684Y-3.0427
X6.3684Y-3.3127
X6.3684Y-4.1254
X6.3684Y-4.3954
X6.3684Y-5.208
X6.3684Y-5.478
X6.3884Y-1.66
X6.3884Y-2.15
X6.3884Y-2.7427
X6.3884Y-3.2327
X6.3884Y-3.8254
X6.3884Y-4.3154
X6.3884Y-4.908
X6.3884Y-5.398
X6.4384Y-1.66
X6.4384Y-2.7427
X6.4384Y-3.8254
X6.4384Y-4.908
X6.4584Y-2.16
X6.4584Y-3.2427
X6.4584Y-4.3254
X6.4584Y-5.408
X6.4884Y-2.11
X6.4884Y-2.23
X6.4884Y-3.1927
X6.4884Y-3.3127
X6.4884Y-4.2754
X6.4884Y-4.3954
X6.4884Y-5.358
X6.4884Y-5.478
X6.4984Y-1.66
X6.4984Y-2.7427
X6.4984Y-3.8254
X6.4984Y-4.908
X6.5184Y-2.3564
X6.5184Y-3.4391
X6.5184Y-4.5218
X6.5184Y-5.6044
X6.5484Y-1.66
X6.5484Y-2.7427
X6.5484Y-3.8254
X6.5484Y-4.908
X6.5984Y-1.66
X6.5984Y-2.7427
X6.5984Y-3.8254
X6.5984Y-4.908
X6.6184Y-1.68
X6.6184Y-2.7627
X6.6184Y-3.8454
X6.6184Y-4.928
X6.6284Y-1.53
X6.6284Y-2.6127
X6.6284Y-3.6954
X6.6284Y-4.778
X6.6584Y-2.22
X6.6584Y-3.3027
X6.6584Y-4.3854
X6.6584Y-5.468
X6.7184Y-2.22
X6.7184Y-3.3027
X6.7184Y-4.3854
X6.7184Y-5.468
X6.7584Y-1.65
X6.7584Y-2.7327
X6.7584Y-3.8154
X6.7584Y-4.898
X6.8084Y-1.78
X6.8084Y-2.8627
X6.8084Y-3.9454
X6.8084Y-5.028
X6.8284Y-2.21
X6.8284Y-3.2927
X6.8284Y-4.3754
X6.8284Y-5.458
X6.8584Y-2.06
X6.8584Y-3.1427
X6.8584Y-4.2254
X6.8584Y-5.308
X6.8684Y-2.21
X6.8684Y-3.2927
X6.8684Y-4.3754
X6.8684Y-5.458
X6.9484Y-2.16
X6.9484Y-2.22
X6.9484Y-3.2427
X6.9484Y-3.3027
X6.9484Y-4.3254
X6.9484Y-4.3854
X6.9484Y-5.408
X6.9484Y-5.468
X6.9884Y-1.67
X6.9884Y-2.7527
X6.9884Y-3.8354
X6.9884Y-4.918
X7.0042Y-2.2022
X7.0042Y-3.2848
X7.0042Y-4.3675
X7.0042Y-5.4502
T2
X3.18Y-2.38
X3.18Y-2.59
X3.18Y-3.4627
X3.18Y-3.6727
X3.18Y-4.5454
X3.18Y-4.7554
X3.2Y-2.38
X3.2Y-2.59
X3.2Y-3.4627
X3.2Y-3.6727
X3.2Y-4.5454
X3.2Y-4.7554
X3.22Y-2.38
X3.22Y-2.59
X3.22Y-3.4627
X3.22Y-3.6727
X3.22Y-4.5454
X3.22Y-4.7554
X3.24Y-2.38
X3.24Y-2.59
X3.24Y-3.4627
X3.24Y-3.6727
X3.24Y-4.5454
X3.24Y-4.7554
X3.26Y-2.38
X3.26Y-2.59
X3.26Y-3.4627
X3.26Y-3.6727
X3.26Y-4.5454
X3.26Y-4.7554
X3.28Y-2.38
X3.28Y-2.59
X3.28Y-3.4627
X3.28Y-3.6727
X3.28Y-4.5454
X3.28Y-4.7554
X3.3Y-2.38
X3.3Y-2.59
X3.3Y-3.4627
X3.3Y-3.6727
X3.3Y-4.5454
X3.3Y-4.7554
X3.32Y-2.38
X3.32Y-2.59
X3.32Y-3.4627
X3.32Y-3.6727
X3.32Y-4.5454
X3.32Y-4.7554
X3.34Y-2.38
X3.34Y-2.59
X3.34Y-3.4627
X3.34Y-3.6727
X3.34Y-4.5454
X3.34Y-4.7554
X3.36Y-2.38
X3.36Y-2.59
X3.36Y-3.4627
X3.36Y-3.6727
X3.36Y-4.5454
X3.36Y-4.7554
X3.38Y-2.38
X3.38Y-2.59
X3.38Y-3.4627
X3.38Y-3.6727
X3.38Y-4.5454
X3.38Y-4.7554
X3.4Y-2.38
X3.4Y-2.59
X3.4Y-3.4627
X3.4Y-3.6727
X3.4Y-4.5454
X3.4Y-4.7554
X3.42Y-2.38
X3.42Y-2.59
X3.42Y-3.4627
X3.42Y-3.6727
X3.42Y-4.5454
X3.42Y-4.7554
X4.48Y-1.84
X4.48Y-1.86
X4.48Y-1.88
X4.48Y-1.9
X4.48Y-1.92
X4.48Y-1.94
X4.48Y-1.96
X4.48Y-1.98
X4.48Y-2.
X4.48Y-2.9227
X4.48Y-2.9427
X4.48Y-2.9627
X4.48Y-2.9827
X4.48Y-3.0027
X4.48Y-3.0227
X4.48Y-3.0427
X4.48Y-3.0627
X4.48Y-3.0827
X4.48Y-4.0054
X4.48Y-4.0254
X4.48Y-4.0454
X4.48Y-4.0654
X4.48Y-4.0854
X4.48Y-4.1054
X4.48Y-4.1254
X4.48Y-4.1454
X4.48Y-4.1654
X4.48Y-5.088
X4.48Y-5.108
X4.48Y-5.128
X4.48Y-5.148
X4.48Y-5.168
X4.48Y-5.188
X4.48Y-5.208
X4.48Y-5.228
X4.48Y-5.248
X4.69Y-1.84
X4.69Y-1.86
X4.69Y-1.88
X4.69Y-1.9
X4.69Y-1.92
X4.69Y-1.94
X4.69Y-1.96
X4.69Y-1.98
X4.69Y-2.
X4.69Y-2.9227
X4.69Y-2.9427
X4.69Y-2.9627
X4.69Y-2.9827
X4.69Y-3.0027
X4.69Y-3.0227
X4.69Y-3.0427
X4.69Y-3.0627
X4.69Y-3.0827
X4.69Y-4.0054
X4.69Y-4.0254
X4.69Y-4.0454
X4.69Y-4.0654
X4.69Y-4.0854
X4.69Y-4.1054
X4.69Y-4.1254
X4.69Y-4.1454
X4.69Y-4.1654
X4.69Y-5.088
X4.69Y-5.108
X4.69Y-5.128
X4.69Y-5.148
X4.69Y-5.168
X4.69Y-5.188
X4.69Y-5.208
X4.69Y-5.228
X4.69Y-5.248
X5.7784Y-2.38
X5.7784Y-2.59
X5.7784Y-3.4627
X5.7784Y-3.6727
X5.7784Y-4.5454
X5.7784Y-4.7554
X5.7984Y-2.38
X5.7984Y-2.59
X5.7984Y-3.4627
X5.7984Y-3.6727
X5.7984Y-4.5454
X5.7984Y-4.7554
X5.8184Y-2.38
X5.8184Y-2.59
X5.8184Y-3.4627
X5.8184Y-3.6727
X5.8184Y-4.5454
X5.8184Y-4.7554
X5.8384Y-2.38
X5.8384Y-2.59
X5.8384Y-3.4627
X5.8384Y-3.6727
X5.8384Y-4.5454
X5.8384Y-4.7554
X5.8584Y-2.38
X5.8584Y-2.59
X5.8584Y-3.4627
X5.8584Y-3.6727
X5.8584Y-4.5454
X5.8584Y-4.7554
X5.8784Y-2.38
X5.8784Y-2.59
X5.8784Y-3.4627
X5.8784Y-3.6727
X5.8784Y-4.5454
X5.8784Y-4.7554
X5.8984Y-2.38
X5.8984Y-2.59
X5.8984Y-3.4627
X5.8984Y-3.6727
X5.8984Y-4.5454
X5.8984Y-4.7554
X5.9184Y-2.38
X5.9184Y-2.59
X5.9184Y-3.4627
X5.9184Y-3.6727
X5.9184Y-4.5454
X5.9184Y-4.7554
X5.9384Y-2.38
X5.9384Y-2.59
X5.9384Y-3.4627
X5.9384Y-3.6727
X5.9384Y-4.5454
X5.9384Y-4.7554
X5.9584Y-2.38
X5.9584Y-2.59
X5.9584Y-3.4627
X5.9584Y-3.6727
X5.9584Y-4.5454
X5.9584Y-4.7554
X5.9784Y-2.38
X5.9784Y-2.59
X5.9784Y-3.4627
X5.9784Y-3.6727
X5.9784Y-4.5454
X5.9784Y-4.7554
X5.9984Y-2.38
X5.9984Y-2.59
X5.9984Y-3.4627
X5.9984Y-3.6727
X5.9984Y-4.5454
X5.9984Y-4.7554
X6.0184Y-2.38
X6.0184Y-2.59
X6.0184Y-3.4627
X6.0184Y-3.6727
X6.0184Y-4.5454
X6.0184Y-4.7554
T3
X5.1884Y-5.528
X5.2884Y-5.528
X5.3884Y-5.528
X5.4884Y-5.528
X5.5884Y-5.528
X5.6884Y-5.528
X5.3184Y-1.6
X5.4184Y-1.6
X5.5184Y-1.6
X5.6184Y-1.6
X2.59Y-4.4454
X2.69Y-4.4454
X2.79Y-4.4454
X2.89Y-4.4454
X2.99Y-4.4454
X3.09Y-4.4454
X5.1884Y-3.3627
X5.2884Y-3.3627
X5.3884Y-3.3627
X5.4884Y-3.3627
X5.5884Y-3.3627
X5.6884Y-3.3627
X2.72Y-2.6827
X2.82Y-2.6827
X2.92Y-2.6827
X3.02Y-2.6827
X2.1587Y-4.8693
X2.1587Y-4.9693
X5.1884Y-4.4454
X5.2884Y-4.4454
X5.3884Y-4.4454
X5.4884Y-4.4454
X5.5884Y-4.4454
X5.6884Y-4.4454
X2.72Y-3.7654
X2.82Y-3.7654
X2.92Y-3.7654
X3.02Y-3.7654
X2.59Y-3.3627
X2.69Y-3.3627
X2.79Y-3.3627
X2.89Y-3.3627
X2.99Y-3.3627
X3.09Y-3.3627
X2.72Y-4.848
X2.82Y-4.848
X2.92Y-4.848
X3.02Y-4.848
X3.22Y-1.6
X3.32Y-1.6
X3.42Y-1.6
X3.52Y-1.6
X2.59Y-2.28
X2.69Y-2.28
X2.79Y-2.28
X2.89Y-2.28
X2.99Y-2.28
X3.09Y-2.28
X3.22Y-3.7654
X3.32Y-3.7654
X3.42Y-3.7654
X3.52Y-3.7654
X2.59Y-5.528
X2.69Y-5.528
X2.79Y-5.528
X2.89Y-5.528
X2.99Y-5.528
X3.09Y-5.528
X2.72Y-1.6
X2.82Y-1.6
X2.92Y-1.6
X3.02Y-1.6
X5.3184Y-3.7654
X5.4184Y-3.7654
X5.5184Y-3.7654
X5.6184Y-3.7654
X4.7571Y-3.7866
X4.7571Y-3.8866
X4.7571Y-4.8693
X4.7571Y-4.9693
X5.3184Y-4.848
X5.4184Y-4.848
X5.5184Y-4.848
X5.6184Y-4.848
X5.8184Y-1.6
X5.9184Y-1.6
X6.0184Y-1.6
X6.1184Y-1.6
X5.8184Y-2.6827
X5.9184Y-2.6827
X6.0184Y-2.6827
X6.1184Y-2.6827
X3.22Y-4.848
X3.32Y-4.848
X3.42Y-4.848
X3.52Y-4.848
X2.1587Y-2.7039
X2.1587Y-2.8039
X5.3184Y-2.6827
X5.4184Y-2.6827
X5.5184Y-2.6827
X5.6184Y-2.6827
X5.8184Y-4.848
X5.9184Y-4.848
X6.0184Y-4.848
X6.1184Y-4.848
X4.7571Y-2.7039
X4.7571Y-2.8039
X2.1587Y-3.7866
X2.1587Y-3.8866
X5.1884Y-2.28
X5.2884Y-2.28
X5.3884Y-2.28
X5.4884Y-2.28
X5.5884Y-2.28
X5.6884Y-2.28
X4.7571Y-1.6213
X4.7571Y-1.7213
X5.8184Y-3.7654
X5.9184Y-3.7654
X6.0184Y-3.7654
X6.1184Y-3.7654
X3.22Y-2.6827
X3.32Y-2.6827
X3.42Y-2.6827
X3.52Y-2.6827
X2.1587Y-1.6213
X2.1587Y-1.7213
T4
X4.8358Y-2.9516
X6.135Y-2.9516
X6.135Y-3.0894
X2.2374Y-2.9516
X3.5366Y-2.9516
X3.5366Y-3.0894
X2.2374Y-1.8689
X3.5366Y-1.8689
X3.5366Y-2.0067
X4.8358Y-5.1169
X6.135Y-5.1169
X6.135Y-5.2547
X4.8358Y-4.0343
X6.135Y-4.0343
X6.135Y-4.172
X2.2374Y-4.0343
X3.5366Y-4.0343
X3.5366Y-4.172
X2.2374Y-5.1169
X3.5366Y-5.1169
X3.5366Y-5.2547
X4.8358Y-1.8689
X6.135Y-1.8689
X6.135Y-2.0067
T5
X4.9894Y-3.1858
X5.0366Y-2.8551
X5.9343Y-2.8551
X5.9815Y-3.1858
X2.3909Y-3.1858
X2.4382Y-2.8551
X3.3358Y-2.8551
X3.3831Y-3.1858
X2.3909Y-2.1031
X2.4382Y-1.7724
X3.3358Y-1.7724
X3.3831Y-2.1031
X4.9894Y-5.3512
X5.0366Y-5.0205
X5.9343Y-5.0205
X5.9815Y-5.3512
X4.9894Y-4.2685
X5.0366Y-3.9378
X5.9343Y-3.9378
X5.9815Y-4.2685
X2.3909Y-4.2685
X2.4382Y-3.9378
X3.3358Y-3.9378
X3.3831Y-4.2685
X2.3909Y-5.3512
X2.4382Y-5.0205
X3.3358Y-5.0205
X3.3831Y-5.3512
X4.9894Y-2.1031
X5.0366Y-1.7724
X5.9343Y-1.7724
X5.9815Y-2.1031
T6
X6.1084Y-5.518
X6.1084Y-3.3527
X2.56Y-3.7654
X2.56Y-4.848
X3.51Y-5.518
X5.0184Y-3.3427
X2.42Y-2.26
X5.0184Y-2.26
X3.51Y-4.4354
X3.51Y-3.3527
X5.1584Y-3.7654
X2.56Y-2.6827
X2.56Y-1.6
X5.0184Y-5.508
X2.42Y-3.3427
X6.1084Y-2.27
X3.51Y-2.27
X5.1584Y-4.848
X2.42Y-5.508
X2.42Y-4.4254
X5.0184Y-4.4254
X5.1584Y-2.6827
X6.1084Y-4.4354
X5.1584Y-1.6
T0
M30
