G04 #@! TF.GenerationSoftware,KiCad,Pcbnew,5.1.0-060a0da~80~ubuntu18.04.1*
G04 #@! TF.CreationDate,2019-05-13T00:27:14+02:00*
G04 #@! TF.ProjectId,m3_2x5_panel,6d335f32-7835-45f7-9061-6e656c2e6b69,rev?*
G04 #@! TF.SameCoordinates,Original*
G04 #@! TF.FileFunction,Profile,NP*
%FSLAX46Y46*%
G04 Gerber Fmt 4.6, Leading zero omitted, Abs format (unit mm)*
G04 Created by KiCad (PCBNEW 5.1.0-060a0da~80~ubuntu18.04.1) date 2019-05-13 00:27:14*
%MOMM*%
%LPD*%
G04 APERTURE LIST*
%ADD10C,0.150000*%
G04 APERTURE END LIST*
D10*
X134058000Y-154704000D02*
X194256000Y-154704000D01*
X73860000Y-154704000D02*
X134058000Y-154704000D01*
X134058000Y-132860000D02*
X194256000Y-132860000D01*
X73860000Y-132860000D02*
X134058000Y-132860000D01*
X134058000Y-111016000D02*
X194256000Y-111016000D01*
X73860000Y-111016000D02*
X134058000Y-111016000D01*
X134058000Y-89172000D02*
X194256000Y-89172000D01*
X73860000Y-89172000D02*
X134058000Y-89172000D01*
X134058000Y-67328000D02*
X194256000Y-67328000D01*
X134058000Y-132860000D02*
X134058000Y-154704000D01*
X73860000Y-132860000D02*
X73860000Y-154704000D01*
X134058000Y-111016000D02*
X134058000Y-132860000D01*
X73860000Y-111016000D02*
X73860000Y-132860000D01*
X134058000Y-89172000D02*
X134058000Y-111016000D01*
X73860000Y-89172000D02*
X73860000Y-111016000D01*
X134058000Y-67328000D02*
X134058000Y-89172000D01*
X73860000Y-67328000D02*
X73860000Y-89172000D01*
X134058000Y-45484000D02*
X134058000Y-67328000D01*
X194256000Y-132860000D02*
X134058000Y-132860000D01*
X134058000Y-132860000D02*
X73860000Y-132860000D01*
X194256000Y-111016000D02*
X134058000Y-111016000D01*
X134058000Y-111016000D02*
X73860000Y-111016000D01*
X194256000Y-89172000D02*
X134058000Y-89172000D01*
X134058000Y-89172000D02*
X73860000Y-89172000D01*
X194256000Y-67328000D02*
X134058000Y-67328000D01*
X134058000Y-67328000D02*
X73860000Y-67328000D01*
X194256000Y-45484000D02*
X134058000Y-45484000D01*
X194256000Y-154704000D02*
X194256000Y-132860000D01*
X134058000Y-154704000D02*
X134058000Y-132860000D01*
X194256000Y-132860000D02*
X194256000Y-111016000D01*
X134058000Y-132860000D02*
X134058000Y-111016000D01*
X194256000Y-111016000D02*
X194256000Y-89172000D01*
X134058000Y-111016000D02*
X134058000Y-89172000D01*
X194256000Y-89172000D02*
X194256000Y-67328000D01*
X134058000Y-89172000D02*
X134058000Y-67328000D01*
X194256000Y-67328000D02*
X194256000Y-45484000D01*
X73860000Y-45484000D02*
X73860000Y-67328000D01*
X134058000Y-45484000D02*
X73860000Y-45484000D01*
X134058000Y-67328000D02*
X134058000Y-45484000D01*
X73860000Y-67328000D02*
X134058000Y-67328000D01*
M02*
