M48
;DRILL file {KiCad 5.0.2-bee76a0~70~ubuntu18.04.1} date Sa 02 Feb 2019 17:17:27 CET
;FORMAT={-:-/ absolute / inch / decimal}
FMAT,2
INCH,TZ
T1C0.0118
T2C0.0315
T3C0.0394
T4C0.0472
T5C0.0669
T6C0.0866
%
G90
G05
T1
X3.5886Y-5.1378
X3.8976Y-4.9055
X4.Y-5.2559
X4.0118Y-4.8997
X4.0315Y-4.937
X4.0669Y-5.1811
X4.0787Y-5.2165
X4.0827Y-5.0984
X4.1496Y-4.9173
X4.1575Y-5.1575
X4.187Y-5.2559
X4.2035Y-5.3008
X4.2118Y-5.0701
X4.2126Y-5.0512
X4.2874Y-4.9213
X4.2913Y-5.126
X4.3937Y-5.1063
X4.685Y-5.2244
X4.6929Y-5.4016
X4.8071Y-5.1496
X4.815Y-5.4567
X4.8346Y-4.7874
X4.8346Y-5.3307
X4.8543Y-5.126
X4.9016Y-5.126
X4.9134Y-5.063
X4.9134Y-5.3386
X4.9331Y-5.0472
X4.9961Y-5.0433
X5.0472Y-5.3858
X5.1339Y-4.9055
X5.3031Y-5.311
X5.3031Y-5.4567
X5.355Y-5.3235
X5.3858Y-5.4016
X5.3977Y-5.1299
X5.4031Y-4.9291
X5.4567Y-4.9449
T2
X4.0028Y-5.4512
X4.0528Y-5.3512
X4.1028Y-5.4512
X4.1528Y-5.3512
X4.2028Y-5.4512
X4.2528Y-5.3512
T3
X5.2165Y-4.8425
X5.3165Y-4.8425
X5.4165Y-4.8425
X3.2087Y-4.8213
X3.2087Y-4.9213
T4
X3.2874Y-5.0689
X4.5866Y-5.0689
X4.5866Y-5.2067
T5
X3.4409Y-5.3031
X3.4882Y-4.9724
X4.3858Y-4.9724
X4.4331Y-5.3031
T6
X3.3874Y-4.8661
X3.5563Y-5.411
X4.5921Y-4.874
X4.552Y-5.4059
T0
M30
