G04 #@! TF.GenerationSoftware,KiCad,Pcbnew,5.0.2-bee76a0~70~ubuntu18.04.1*
G04 #@! TF.CreationDate,2019-02-02T17:17:24+01:00*
G04 #@! TF.ProjectId,roboy_sno,726f626f-795f-4736-9e6f-2e6b69636164,rev?*
G04 #@! TF.SameCoordinates,Original*
G04 #@! TF.FileFunction,Copper,L1,Top*
G04 #@! TF.FilePolarity,Positive*
%FSLAX46Y46*%
G04 Gerber Fmt 4.6, Leading zero omitted, Abs format (unit mm)*
G04 Created by KiCad (PCBNEW 5.0.2-bee76a0~70~ubuntu18.04.1) date Sa 02 Feb 2019 17:17:24 CET*
%MOMM*%
%LPD*%
G01*
G04 APERTURE LIST*
G04 #@! TA.AperFunction,SMDPad,CuDef*
%ADD10R,1.000000X1.000000*%
G04 #@! TD*
G04 #@! TA.AperFunction,ComponentPad*
%ADD11R,1.750000X1.750000*%
G04 #@! TD*
G04 #@! TA.AperFunction,ComponentPad*
%ADD12C,1.750000*%
G04 #@! TD*
G04 #@! TA.AperFunction,ComponentPad*
%ADD13C,2.700000*%
G04 #@! TD*
G04 #@! TA.AperFunction,SMDPad,CuDef*
%ADD14R,1.300000X0.850000*%
G04 #@! TD*
G04 #@! TA.AperFunction,SMDPad,CuDef*
%ADD15R,0.450000X0.630000*%
G04 #@! TD*
G04 #@! TA.AperFunction,SMDPad,CuDef*
%ADD16R,0.600000X0.500000*%
G04 #@! TD*
G04 #@! TA.AperFunction,SMDPad,CuDef*
%ADD17R,1.100000X1.100000*%
G04 #@! TD*
G04 #@! TA.AperFunction,SMDPad,CuDef*
%ADD18R,1.900000X1.175000*%
G04 #@! TD*
G04 #@! TA.AperFunction,SMDPad,CuDef*
%ADD19R,1.900000X2.375000*%
G04 #@! TD*
G04 #@! TA.AperFunction,SMDPad,CuDef*
%ADD20R,2.100000X1.475000*%
G04 #@! TD*
G04 #@! TA.AperFunction,SMDPad,CuDef*
%ADD21R,1.380000X0.450000*%
G04 #@! TD*
G04 #@! TA.AperFunction,ComponentPad*
%ADD22O,1.700000X1.700000*%
G04 #@! TD*
G04 #@! TA.AperFunction,ComponentPad*
%ADD23R,1.700000X1.700000*%
G04 #@! TD*
G04 #@! TA.AperFunction,SMDPad,CuDef*
%ADD24R,0.650000X0.400000*%
G04 #@! TD*
G04 #@! TA.AperFunction,SMDPad,CuDef*
%ADD25R,0.400000X0.600000*%
G04 #@! TD*
G04 #@! TA.AperFunction,SMDPad,CuDef*
%ADD26R,0.600000X0.400000*%
G04 #@! TD*
G04 #@! TA.AperFunction,ComponentPad*
%ADD27C,1.800000*%
G04 #@! TD*
G04 #@! TA.AperFunction,ComponentPad*
%ADD28R,1.800000X1.800000*%
G04 #@! TD*
G04 #@! TA.AperFunction,SMDPad,CuDef*
%ADD29R,1.485000X0.900000*%
G04 #@! TD*
G04 #@! TA.AperFunction,SMDPad,CuDef*
%ADD30R,4.000000X4.000000*%
G04 #@! TD*
G04 #@! TA.AperFunction,SMDPad,CuDef*
%ADD31C,0.600000*%
G04 #@! TD*
G04 #@! TA.AperFunction,Conductor*
%ADD32C,0.100000*%
G04 #@! TD*
G04 #@! TA.AperFunction,ComponentPad*
%ADD33C,2.200000*%
G04 #@! TD*
G04 #@! TA.AperFunction,SMDPad,CuDef*
%ADD34C,0.590000*%
G04 #@! TD*
G04 #@! TA.AperFunction,ViaPad*
%ADD35C,0.301000*%
G04 #@! TD*
G04 #@! TA.AperFunction,Conductor*
%ADD36C,0.300000*%
G04 #@! TD*
G04 #@! TA.AperFunction,Conductor*
%ADD37C,0.152400*%
G04 #@! TD*
G04 #@! TA.AperFunction,Conductor*
%ADD38C,0.254000*%
G04 #@! TD*
G04 APERTURE END LIST*
D10*
G04 #@! TO.P,D1,3*
G04 #@! TO.N,VDD5V*
X129250000Y-124375000D03*
G04 #@! TO.P,D1,4*
G04 #@! TO.N,Net-(D1-Pad4)*
X129250000Y-122625000D03*
G04 #@! TO.P,D1,2*
G04 #@! TO.N,NEOPX*
X125750000Y-124375000D03*
G04 #@! TO.P,D1,1*
G04 #@! TO.N,GND*
X125750000Y-122625000D03*
G04 #@! TD*
D11*
G04 #@! TO.P,RV1,1*
G04 #@! TO.N,3.3V*
X116500000Y-128750000D03*
D12*
G04 #@! TO.P,RV1,2*
G04 #@! TO.N,Net-(RV1-Pad2)*
X116500000Y-132250000D03*
G04 #@! TO.P,RV1,3*
G04 #@! TO.N,GND*
X83500000Y-128750000D03*
D13*
G04 #@! TO.P,RV1,MP*
G04 #@! TO.N,N/C*
X111400000Y-126300000D03*
X88600000Y-126300000D03*
X112600000Y-134700000D03*
X87400000Y-134700000D03*
G04 #@! TD*
D14*
G04 #@! TO.P,U1,7*
G04 #@! TO.N,N/C*
X94244412Y-124727375D03*
X92944412Y-124727375D03*
X94244412Y-125577375D03*
X92944412Y-125577375D03*
D15*
G04 #@! TO.P,U1,6*
G04 #@! TO.N,VDD5V*
X94544412Y-126492375D03*
G04 #@! TO.P,U1,5*
X93594412Y-126492375D03*
G04 #@! TO.P,U1,4*
G04 #@! TO.N,PWRGOOD*
X92644412Y-126492375D03*
G04 #@! TO.P,U1,3*
G04 #@! TO.N,GND*
X92644412Y-123812375D03*
G04 #@! TO.P,U1,2*
G04 #@! TO.N,3.3V*
X93594412Y-123812375D03*
G04 #@! TO.P,U1,1*
X94544412Y-123812375D03*
G04 #@! TD*
D16*
G04 #@! TO.P,C2,1*
G04 #@! TO.N,GND*
X92444412Y-122522375D03*
G04 #@! TO.P,C2,2*
G04 #@! TO.N,3.3V*
X93544412Y-122522375D03*
G04 #@! TD*
G04 #@! TO.P,C3,2*
G04 #@! TO.N,VDD5V*
X93394412Y-127692375D03*
G04 #@! TO.P,C3,1*
G04 #@! TO.N,GND*
X92294412Y-127692375D03*
G04 #@! TD*
D17*
G04 #@! TO.P,D2,2*
G04 #@! TO.N,Net-(D2-Pad2)*
X86600000Y-131500000D03*
G04 #@! TO.P,D2,1*
G04 #@! TO.N,VDD5V*
X89400000Y-131500000D03*
G04 #@! TD*
D18*
G04 #@! TO.P,J1,6*
G04 #@! TO.N,GND*
X81500000Y-136340000D03*
X81500000Y-134660000D03*
D19*
X81500000Y-138410000D03*
X81500000Y-132590000D03*
D20*
X83800000Y-137962500D03*
X83800000Y-133037500D03*
D21*
G04 #@! TO.P,J1,5*
X84160000Y-136800000D03*
G04 #@! TO.P,J1,4*
G04 #@! TO.N,Net-(J1-Pad4)*
X84160000Y-136150000D03*
G04 #@! TO.P,J1,3*
G04 #@! TO.N,Net-(J1-Pad3)*
X84160000Y-135500000D03*
G04 #@! TO.P,J1,2*
G04 #@! TO.N,Net-(J1-Pad2)*
X84160000Y-134850000D03*
G04 #@! TO.P,J1,1*
G04 #@! TO.N,Net-(D2-Pad2)*
X84160000Y-134200000D03*
G04 #@! TD*
D22*
G04 #@! TO.P,J5,2*
G04 #@! TO.N,VDD5V*
X81500000Y-122460000D03*
D23*
G04 #@! TO.P,J5,1*
G04 #@! TO.N,GND*
X81500000Y-125000000D03*
G04 #@! TD*
D24*
G04 #@! TO.P,Q1,6*
G04 #@! TO.N,GPIO0*
X102724336Y-130784870D03*
G04 #@! TO.P,Q1,4*
G04 #@! TO.N,RTS*
X102724336Y-129484870D03*
G04 #@! TO.P,Q1,2*
G04 #@! TO.N,Net-(Q1-Pad2)*
X104624336Y-130134870D03*
G04 #@! TO.P,Q1,5*
G04 #@! TO.N,Net-(Q1-Pad5)*
X102724336Y-130134870D03*
G04 #@! TO.P,Q1,3*
G04 #@! TO.N,RESET*
X104624336Y-129484870D03*
G04 #@! TO.P,Q1,1*
G04 #@! TO.N,DTR*
X104624336Y-130784870D03*
G04 #@! TD*
D25*
G04 #@! TO.P,R6,2*
G04 #@! TO.N,Net-(Q1-Pad2)*
X102750000Y-132500000D03*
G04 #@! TO.P,R6,1*
G04 #@! TO.N,RTS*
X101850000Y-132500000D03*
G04 #@! TD*
G04 #@! TO.P,R7,1*
G04 #@! TO.N,DTR*
X105450000Y-132500000D03*
G04 #@! TO.P,R7,2*
G04 #@! TO.N,Net-(Q1-Pad5)*
X104550000Y-132500000D03*
G04 #@! TD*
D26*
G04 #@! TO.P,R8,2*
G04 #@! TO.N,GPIO0*
X101000000Y-130950000D03*
G04 #@! TO.P,R8,1*
G04 #@! TO.N,3.3V*
X101000000Y-130050000D03*
G04 #@! TD*
G04 #@! TO.P,R9,1*
G04 #@! TO.N,3.3V*
X106300000Y-130050000D03*
G04 #@! TO.P,R9,2*
G04 #@! TO.N,RESET*
X106300000Y-129150000D03*
G04 #@! TD*
D22*
G04 #@! TO.P,J2,3*
G04 #@! TO.N,PWM*
X137580000Y-123000000D03*
G04 #@! TO.P,J2,2*
G04 #@! TO.N,VDD5V*
X135040000Y-123000000D03*
D23*
G04 #@! TO.P,J2,1*
G04 #@! TO.N,GND*
X132500000Y-123000000D03*
G04 #@! TD*
D26*
G04 #@! TO.P,R10,2*
G04 #@! TO.N,3.3V*
X118600000Y-127150000D03*
G04 #@! TO.P,R10,1*
G04 #@! TO.N,Net-(R10-Pad1)*
X118600000Y-128050000D03*
G04 #@! TD*
D25*
G04 #@! TO.P,R11,1*
G04 #@! TO.N,3.3V*
X118150000Y-129700000D03*
G04 #@! TO.P,R11,2*
G04 #@! TO.N,SCL*
X119050000Y-129700000D03*
G04 #@! TD*
D26*
G04 #@! TO.P,R12,2*
G04 #@! TO.N,3.3V*
X118600000Y-134350000D03*
G04 #@! TO.P,R12,1*
G04 #@! TO.N,SDA*
X118600000Y-135250000D03*
G04 #@! TD*
D27*
G04 #@! TO.P,J3,6*
G04 #@! TO.N,RTS*
X108020000Y-135920000D03*
G04 #@! TO.P,J3,5*
G04 #@! TO.N,DTR*
X106750000Y-138460000D03*
D28*
G04 #@! TO.P,J3,1*
G04 #@! TO.N,VDD5V*
X101670000Y-138460000D03*
D27*
G04 #@! TO.P,J3,2*
G04 #@! TO.N,GND*
X102940000Y-135920000D03*
G04 #@! TO.P,J3,3*
G04 #@! TO.N,TXD*
X104210000Y-138460000D03*
G04 #@! TO.P,J3,4*
G04 #@! TO.N,RXD*
X105480000Y-135920000D03*
G04 #@! TD*
D29*
G04 #@! TO.P,U2,1*
G04 #@! TO.N,3.3V*
X120607500Y-126600000D03*
G04 #@! TO.P,U2,2*
G04 #@! TO.N,Net-(R10-Pad1)*
X120607500Y-128100000D03*
G04 #@! TO.P,U2,3*
G04 #@! TO.N,SCL*
X120607500Y-129600000D03*
G04 #@! TO.P,U2,4*
G04 #@! TO.N,PWM*
X120607500Y-131100000D03*
G04 #@! TO.P,U2,5*
G04 #@! TO.N,NEOPX*
X120607500Y-132600000D03*
G04 #@! TO.P,U2,6*
G04 #@! TO.N,ID3*
X120607500Y-134100000D03*
G04 #@! TO.P,U2,7*
G04 #@! TO.N,SDA*
X120607500Y-135600000D03*
G04 #@! TO.P,U2,8*
G04 #@! TO.N,GPIO0*
X120607500Y-137100000D03*
G04 #@! TO.P,U2,9*
G04 #@! TO.N,GND*
X120607500Y-138600000D03*
G04 #@! TO.P,U2,10*
G04 #@! TO.N,ID0*
X138392500Y-138600000D03*
G04 #@! TO.P,U2,11*
G04 #@! TO.N,RXD*
X138392500Y-137100000D03*
G04 #@! TO.P,U2,12*
G04 #@! TO.N,TXD*
X138392500Y-135600000D03*
G04 #@! TO.P,U2,13*
G04 #@! TO.N,GND*
X138392500Y-134100000D03*
G04 #@! TO.P,U2,14*
G04 #@! TO.N,ID1*
X138392500Y-132600000D03*
G04 #@! TO.P,U2,15*
G04 #@! TO.N,RESET*
X138392500Y-131100000D03*
G04 #@! TO.P,U2,16*
G04 #@! TO.N,Net-(RV1-Pad2)*
X138392500Y-129600000D03*
G04 #@! TO.P,U2,17*
G04 #@! TO.N,ID2*
X138392500Y-128100000D03*
G04 #@! TO.P,U2,18*
G04 #@! TO.N,GND*
X138392500Y-126600000D03*
D30*
G04 #@! TO.P,U2,19*
X130600000Y-133200000D03*
G04 #@! TD*
D31*
G04 #@! TO.P,ID0,3*
G04 #@! TO.N,GND*
X98200000Y-125400000D03*
D32*
G04 #@! TD*
G04 #@! TO.N,GND*
G04 #@! TO.C,ID0*
G36*
X98550000Y-125100000D02*
X98550000Y-125700000D01*
X98200000Y-125900000D01*
X97850000Y-125700000D01*
X97850000Y-125100000D01*
X98550000Y-125100000D01*
X98550000Y-125100000D01*
G37*
D31*
G04 #@! TO.P,ID0,1*
G04 #@! TO.N,3.3V*
X98200000Y-127400000D03*
D32*
G04 #@! TD*
G04 #@! TO.N,3.3V*
G04 #@! TO.C,ID0*
G36*
X98200000Y-126900000D02*
X98550000Y-127100000D01*
X98550000Y-127700000D01*
X97850000Y-127700000D01*
X97850000Y-127100000D01*
X98200000Y-126900000D01*
X98200000Y-126900000D01*
G37*
D31*
G04 #@! TO.P,ID0,2*
G04 #@! TO.N,Net-(JP1-Pad2)*
X98200000Y-126400000D03*
D32*
G04 #@! TD*
G04 #@! TO.N,Net-(JP1-Pad2)*
G04 #@! TO.C,ID0*
G36*
X98200000Y-126099000D02*
X98550000Y-125900000D01*
X98550000Y-126900000D01*
X98200000Y-126701000D01*
X97850000Y-126900000D01*
X97850000Y-125900000D01*
X98200000Y-126099000D01*
X98200000Y-126099000D01*
G37*
D31*
G04 #@! TO.P,ID1,2*
G04 #@! TO.N,Net-(JP2-Pad2)*
X101400000Y-126400000D03*
D32*
G04 #@! TD*
G04 #@! TO.N,Net-(JP2-Pad2)*
G04 #@! TO.C,ID1*
G36*
X101400000Y-126099000D02*
X101750000Y-125900000D01*
X101750000Y-126900000D01*
X101400000Y-126701000D01*
X101050000Y-126900000D01*
X101050000Y-125900000D01*
X101400000Y-126099000D01*
X101400000Y-126099000D01*
G37*
D31*
G04 #@! TO.P,ID1,1*
G04 #@! TO.N,3.3V*
X101400000Y-127400000D03*
D32*
G04 #@! TD*
G04 #@! TO.N,3.3V*
G04 #@! TO.C,ID1*
G36*
X101400000Y-126900000D02*
X101750000Y-127100000D01*
X101750000Y-127700000D01*
X101050000Y-127700000D01*
X101050000Y-127100000D01*
X101400000Y-126900000D01*
X101400000Y-126900000D01*
G37*
D31*
G04 #@! TO.P,ID1,3*
G04 #@! TO.N,GND*
X101400000Y-125400000D03*
D32*
G04 #@! TD*
G04 #@! TO.N,GND*
G04 #@! TO.C,ID1*
G36*
X101750000Y-125100000D02*
X101750000Y-125700000D01*
X101400000Y-125900000D01*
X101050000Y-125700000D01*
X101050000Y-125100000D01*
X101750000Y-125100000D01*
X101750000Y-125100000D01*
G37*
D31*
G04 #@! TO.P,ID2,2*
G04 #@! TO.N,Net-(JP3-Pad2)*
X104600000Y-126400000D03*
D32*
G04 #@! TD*
G04 #@! TO.N,Net-(JP3-Pad2)*
G04 #@! TO.C,ID2*
G36*
X104600000Y-126099000D02*
X104950000Y-125900000D01*
X104950000Y-126900000D01*
X104600000Y-126701000D01*
X104250000Y-126900000D01*
X104250000Y-125900000D01*
X104600000Y-126099000D01*
X104600000Y-126099000D01*
G37*
D31*
G04 #@! TO.P,ID2,1*
G04 #@! TO.N,3.3V*
X104600000Y-127400000D03*
D32*
G04 #@! TD*
G04 #@! TO.N,3.3V*
G04 #@! TO.C,ID2*
G36*
X104600000Y-126900000D02*
X104950000Y-127100000D01*
X104950000Y-127700000D01*
X104250000Y-127700000D01*
X104250000Y-127100000D01*
X104600000Y-126900000D01*
X104600000Y-126900000D01*
G37*
D31*
G04 #@! TO.P,ID2,3*
G04 #@! TO.N,GND*
X104600000Y-125400000D03*
D32*
G04 #@! TD*
G04 #@! TO.N,GND*
G04 #@! TO.C,ID2*
G36*
X104950000Y-125100000D02*
X104950000Y-125700000D01*
X104600000Y-125900000D01*
X104250000Y-125700000D01*
X104250000Y-125100000D01*
X104950000Y-125100000D01*
X104950000Y-125100000D01*
G37*
D33*
G04 #@! TO.P,REF\002A\002A,1*
G04 #@! TO.N,GND*
X86040000Y-123600000D03*
G04 #@! TD*
G04 #@! TO.P,REF\002A\002A,1*
G04 #@! TO.N,GND*
X116640000Y-123800000D03*
G04 #@! TD*
G04 #@! TO.P,REF\002A\002A,1*
G04 #@! TO.N,GND*
X115620000Y-137310000D03*
G04 #@! TD*
G04 #@! TO.P,REF\002A\002A,1*
G04 #@! TO.N,GND*
X90330000Y-137440000D03*
G04 #@! TD*
D32*
G04 #@! TO.N,Net-(JP1-Pad2)*
G04 #@! TO.C,R1*
G36*
X99986958Y-126090710D02*
X100001276Y-126092834D01*
X100015317Y-126096351D01*
X100028946Y-126101228D01*
X100042031Y-126107417D01*
X100054447Y-126114858D01*
X100066073Y-126123481D01*
X100076798Y-126133202D01*
X100086519Y-126143927D01*
X100095142Y-126155553D01*
X100102583Y-126167969D01*
X100108772Y-126181054D01*
X100113649Y-126194683D01*
X100117166Y-126208724D01*
X100119290Y-126223042D01*
X100120000Y-126237500D01*
X100120000Y-126532500D01*
X100119290Y-126546958D01*
X100117166Y-126561276D01*
X100113649Y-126575317D01*
X100108772Y-126588946D01*
X100102583Y-126602031D01*
X100095142Y-126614447D01*
X100086519Y-126626073D01*
X100076798Y-126636798D01*
X100066073Y-126646519D01*
X100054447Y-126655142D01*
X100042031Y-126662583D01*
X100028946Y-126668772D01*
X100015317Y-126673649D01*
X100001276Y-126677166D01*
X99986958Y-126679290D01*
X99972500Y-126680000D01*
X99627500Y-126680000D01*
X99613042Y-126679290D01*
X99598724Y-126677166D01*
X99584683Y-126673649D01*
X99571054Y-126668772D01*
X99557969Y-126662583D01*
X99545553Y-126655142D01*
X99533927Y-126646519D01*
X99523202Y-126636798D01*
X99513481Y-126626073D01*
X99504858Y-126614447D01*
X99497417Y-126602031D01*
X99491228Y-126588946D01*
X99486351Y-126575317D01*
X99482834Y-126561276D01*
X99480710Y-126546958D01*
X99480000Y-126532500D01*
X99480000Y-126237500D01*
X99480710Y-126223042D01*
X99482834Y-126208724D01*
X99486351Y-126194683D01*
X99491228Y-126181054D01*
X99497417Y-126167969D01*
X99504858Y-126155553D01*
X99513481Y-126143927D01*
X99523202Y-126133202D01*
X99533927Y-126123481D01*
X99545553Y-126114858D01*
X99557969Y-126107417D01*
X99571054Y-126101228D01*
X99584683Y-126096351D01*
X99598724Y-126092834D01*
X99613042Y-126090710D01*
X99627500Y-126090000D01*
X99972500Y-126090000D01*
X99986958Y-126090710D01*
X99986958Y-126090710D01*
G37*
D34*
G04 #@! TD*
G04 #@! TO.P,R1,2*
G04 #@! TO.N,Net-(JP1-Pad2)*
X99800000Y-126385000D03*
D32*
G04 #@! TO.N,ID0*
G04 #@! TO.C,R1*
G36*
X99986958Y-125120710D02*
X100001276Y-125122834D01*
X100015317Y-125126351D01*
X100028946Y-125131228D01*
X100042031Y-125137417D01*
X100054447Y-125144858D01*
X100066073Y-125153481D01*
X100076798Y-125163202D01*
X100086519Y-125173927D01*
X100095142Y-125185553D01*
X100102583Y-125197969D01*
X100108772Y-125211054D01*
X100113649Y-125224683D01*
X100117166Y-125238724D01*
X100119290Y-125253042D01*
X100120000Y-125267500D01*
X100120000Y-125562500D01*
X100119290Y-125576958D01*
X100117166Y-125591276D01*
X100113649Y-125605317D01*
X100108772Y-125618946D01*
X100102583Y-125632031D01*
X100095142Y-125644447D01*
X100086519Y-125656073D01*
X100076798Y-125666798D01*
X100066073Y-125676519D01*
X100054447Y-125685142D01*
X100042031Y-125692583D01*
X100028946Y-125698772D01*
X100015317Y-125703649D01*
X100001276Y-125707166D01*
X99986958Y-125709290D01*
X99972500Y-125710000D01*
X99627500Y-125710000D01*
X99613042Y-125709290D01*
X99598724Y-125707166D01*
X99584683Y-125703649D01*
X99571054Y-125698772D01*
X99557969Y-125692583D01*
X99545553Y-125685142D01*
X99533927Y-125676519D01*
X99523202Y-125666798D01*
X99513481Y-125656073D01*
X99504858Y-125644447D01*
X99497417Y-125632031D01*
X99491228Y-125618946D01*
X99486351Y-125605317D01*
X99482834Y-125591276D01*
X99480710Y-125576958D01*
X99480000Y-125562500D01*
X99480000Y-125267500D01*
X99480710Y-125253042D01*
X99482834Y-125238724D01*
X99486351Y-125224683D01*
X99491228Y-125211054D01*
X99497417Y-125197969D01*
X99504858Y-125185553D01*
X99513481Y-125173927D01*
X99523202Y-125163202D01*
X99533927Y-125153481D01*
X99545553Y-125144858D01*
X99557969Y-125137417D01*
X99571054Y-125131228D01*
X99584683Y-125126351D01*
X99598724Y-125122834D01*
X99613042Y-125120710D01*
X99627500Y-125120000D01*
X99972500Y-125120000D01*
X99986958Y-125120710D01*
X99986958Y-125120710D01*
G37*
D34*
G04 #@! TD*
G04 #@! TO.P,R1,1*
G04 #@! TO.N,ID0*
X99800000Y-125415000D03*
D32*
G04 #@! TO.N,ID1*
G04 #@! TO.C,R2*
G36*
X103186958Y-127090710D02*
X103201276Y-127092834D01*
X103215317Y-127096351D01*
X103228946Y-127101228D01*
X103242031Y-127107417D01*
X103254447Y-127114858D01*
X103266073Y-127123481D01*
X103276798Y-127133202D01*
X103286519Y-127143927D01*
X103295142Y-127155553D01*
X103302583Y-127167969D01*
X103308772Y-127181054D01*
X103313649Y-127194683D01*
X103317166Y-127208724D01*
X103319290Y-127223042D01*
X103320000Y-127237500D01*
X103320000Y-127532500D01*
X103319290Y-127546958D01*
X103317166Y-127561276D01*
X103313649Y-127575317D01*
X103308772Y-127588946D01*
X103302583Y-127602031D01*
X103295142Y-127614447D01*
X103286519Y-127626073D01*
X103276798Y-127636798D01*
X103266073Y-127646519D01*
X103254447Y-127655142D01*
X103242031Y-127662583D01*
X103228946Y-127668772D01*
X103215317Y-127673649D01*
X103201276Y-127677166D01*
X103186958Y-127679290D01*
X103172500Y-127680000D01*
X102827500Y-127680000D01*
X102813042Y-127679290D01*
X102798724Y-127677166D01*
X102784683Y-127673649D01*
X102771054Y-127668772D01*
X102757969Y-127662583D01*
X102745553Y-127655142D01*
X102733927Y-127646519D01*
X102723202Y-127636798D01*
X102713481Y-127626073D01*
X102704858Y-127614447D01*
X102697417Y-127602031D01*
X102691228Y-127588946D01*
X102686351Y-127575317D01*
X102682834Y-127561276D01*
X102680710Y-127546958D01*
X102680000Y-127532500D01*
X102680000Y-127237500D01*
X102680710Y-127223042D01*
X102682834Y-127208724D01*
X102686351Y-127194683D01*
X102691228Y-127181054D01*
X102697417Y-127167969D01*
X102704858Y-127155553D01*
X102713481Y-127143927D01*
X102723202Y-127133202D01*
X102733927Y-127123481D01*
X102745553Y-127114858D01*
X102757969Y-127107417D01*
X102771054Y-127101228D01*
X102784683Y-127096351D01*
X102798724Y-127092834D01*
X102813042Y-127090710D01*
X102827500Y-127090000D01*
X103172500Y-127090000D01*
X103186958Y-127090710D01*
X103186958Y-127090710D01*
G37*
D34*
G04 #@! TD*
G04 #@! TO.P,R2,1*
G04 #@! TO.N,ID1*
X103000000Y-127385000D03*
D32*
G04 #@! TO.N,Net-(JP2-Pad2)*
G04 #@! TO.C,R2*
G36*
X103186958Y-126120710D02*
X103201276Y-126122834D01*
X103215317Y-126126351D01*
X103228946Y-126131228D01*
X103242031Y-126137417D01*
X103254447Y-126144858D01*
X103266073Y-126153481D01*
X103276798Y-126163202D01*
X103286519Y-126173927D01*
X103295142Y-126185553D01*
X103302583Y-126197969D01*
X103308772Y-126211054D01*
X103313649Y-126224683D01*
X103317166Y-126238724D01*
X103319290Y-126253042D01*
X103320000Y-126267500D01*
X103320000Y-126562500D01*
X103319290Y-126576958D01*
X103317166Y-126591276D01*
X103313649Y-126605317D01*
X103308772Y-126618946D01*
X103302583Y-126632031D01*
X103295142Y-126644447D01*
X103286519Y-126656073D01*
X103276798Y-126666798D01*
X103266073Y-126676519D01*
X103254447Y-126685142D01*
X103242031Y-126692583D01*
X103228946Y-126698772D01*
X103215317Y-126703649D01*
X103201276Y-126707166D01*
X103186958Y-126709290D01*
X103172500Y-126710000D01*
X102827500Y-126710000D01*
X102813042Y-126709290D01*
X102798724Y-126707166D01*
X102784683Y-126703649D01*
X102771054Y-126698772D01*
X102757969Y-126692583D01*
X102745553Y-126685142D01*
X102733927Y-126676519D01*
X102723202Y-126666798D01*
X102713481Y-126656073D01*
X102704858Y-126644447D01*
X102697417Y-126632031D01*
X102691228Y-126618946D01*
X102686351Y-126605317D01*
X102682834Y-126591276D01*
X102680710Y-126576958D01*
X102680000Y-126562500D01*
X102680000Y-126267500D01*
X102680710Y-126253042D01*
X102682834Y-126238724D01*
X102686351Y-126224683D01*
X102691228Y-126211054D01*
X102697417Y-126197969D01*
X102704858Y-126185553D01*
X102713481Y-126173927D01*
X102723202Y-126163202D01*
X102733927Y-126153481D01*
X102745553Y-126144858D01*
X102757969Y-126137417D01*
X102771054Y-126131228D01*
X102784683Y-126126351D01*
X102798724Y-126122834D01*
X102813042Y-126120710D01*
X102827500Y-126120000D01*
X103172500Y-126120000D01*
X103186958Y-126120710D01*
X103186958Y-126120710D01*
G37*
D34*
G04 #@! TD*
G04 #@! TO.P,R2,2*
G04 #@! TO.N,Net-(JP2-Pad2)*
X103000000Y-126415000D03*
D32*
G04 #@! TO.N,ID2*
G04 #@! TO.C,R3*
G36*
X106386958Y-125120710D02*
X106401276Y-125122834D01*
X106415317Y-125126351D01*
X106428946Y-125131228D01*
X106442031Y-125137417D01*
X106454447Y-125144858D01*
X106466073Y-125153481D01*
X106476798Y-125163202D01*
X106486519Y-125173927D01*
X106495142Y-125185553D01*
X106502583Y-125197969D01*
X106508772Y-125211054D01*
X106513649Y-125224683D01*
X106517166Y-125238724D01*
X106519290Y-125253042D01*
X106520000Y-125267500D01*
X106520000Y-125562500D01*
X106519290Y-125576958D01*
X106517166Y-125591276D01*
X106513649Y-125605317D01*
X106508772Y-125618946D01*
X106502583Y-125632031D01*
X106495142Y-125644447D01*
X106486519Y-125656073D01*
X106476798Y-125666798D01*
X106466073Y-125676519D01*
X106454447Y-125685142D01*
X106442031Y-125692583D01*
X106428946Y-125698772D01*
X106415317Y-125703649D01*
X106401276Y-125707166D01*
X106386958Y-125709290D01*
X106372500Y-125710000D01*
X106027500Y-125710000D01*
X106013042Y-125709290D01*
X105998724Y-125707166D01*
X105984683Y-125703649D01*
X105971054Y-125698772D01*
X105957969Y-125692583D01*
X105945553Y-125685142D01*
X105933927Y-125676519D01*
X105923202Y-125666798D01*
X105913481Y-125656073D01*
X105904858Y-125644447D01*
X105897417Y-125632031D01*
X105891228Y-125618946D01*
X105886351Y-125605317D01*
X105882834Y-125591276D01*
X105880710Y-125576958D01*
X105880000Y-125562500D01*
X105880000Y-125267500D01*
X105880710Y-125253042D01*
X105882834Y-125238724D01*
X105886351Y-125224683D01*
X105891228Y-125211054D01*
X105897417Y-125197969D01*
X105904858Y-125185553D01*
X105913481Y-125173927D01*
X105923202Y-125163202D01*
X105933927Y-125153481D01*
X105945553Y-125144858D01*
X105957969Y-125137417D01*
X105971054Y-125131228D01*
X105984683Y-125126351D01*
X105998724Y-125122834D01*
X106013042Y-125120710D01*
X106027500Y-125120000D01*
X106372500Y-125120000D01*
X106386958Y-125120710D01*
X106386958Y-125120710D01*
G37*
D34*
G04 #@! TD*
G04 #@! TO.P,R3,1*
G04 #@! TO.N,ID2*
X106200000Y-125415000D03*
D32*
G04 #@! TO.N,Net-(JP3-Pad2)*
G04 #@! TO.C,R3*
G36*
X106386958Y-126090710D02*
X106401276Y-126092834D01*
X106415317Y-126096351D01*
X106428946Y-126101228D01*
X106442031Y-126107417D01*
X106454447Y-126114858D01*
X106466073Y-126123481D01*
X106476798Y-126133202D01*
X106486519Y-126143927D01*
X106495142Y-126155553D01*
X106502583Y-126167969D01*
X106508772Y-126181054D01*
X106513649Y-126194683D01*
X106517166Y-126208724D01*
X106519290Y-126223042D01*
X106520000Y-126237500D01*
X106520000Y-126532500D01*
X106519290Y-126546958D01*
X106517166Y-126561276D01*
X106513649Y-126575317D01*
X106508772Y-126588946D01*
X106502583Y-126602031D01*
X106495142Y-126614447D01*
X106486519Y-126626073D01*
X106476798Y-126636798D01*
X106466073Y-126646519D01*
X106454447Y-126655142D01*
X106442031Y-126662583D01*
X106428946Y-126668772D01*
X106415317Y-126673649D01*
X106401276Y-126677166D01*
X106386958Y-126679290D01*
X106372500Y-126680000D01*
X106027500Y-126680000D01*
X106013042Y-126679290D01*
X105998724Y-126677166D01*
X105984683Y-126673649D01*
X105971054Y-126668772D01*
X105957969Y-126662583D01*
X105945553Y-126655142D01*
X105933927Y-126646519D01*
X105923202Y-126636798D01*
X105913481Y-126626073D01*
X105904858Y-126614447D01*
X105897417Y-126602031D01*
X105891228Y-126588946D01*
X105886351Y-126575317D01*
X105882834Y-126561276D01*
X105880710Y-126546958D01*
X105880000Y-126532500D01*
X105880000Y-126237500D01*
X105880710Y-126223042D01*
X105882834Y-126208724D01*
X105886351Y-126194683D01*
X105891228Y-126181054D01*
X105897417Y-126167969D01*
X105904858Y-126155553D01*
X105913481Y-126143927D01*
X105923202Y-126133202D01*
X105933927Y-126123481D01*
X105945553Y-126114858D01*
X105957969Y-126107417D01*
X105971054Y-126101228D01*
X105984683Y-126096351D01*
X105998724Y-126092834D01*
X106013042Y-126090710D01*
X106027500Y-126090000D01*
X106372500Y-126090000D01*
X106386958Y-126090710D01*
X106386958Y-126090710D01*
G37*
D34*
G04 #@! TD*
G04 #@! TO.P,R3,2*
G04 #@! TO.N,Net-(JP3-Pad2)*
X106200000Y-126385000D03*
D31*
G04 #@! TO.P,ID3,2*
G04 #@! TO.N,ID3*
X107800000Y-126400000D03*
D32*
G04 #@! TD*
G04 #@! TO.N,ID3*
G04 #@! TO.C,ID3*
G36*
X107800000Y-126099000D02*
X108150000Y-125900000D01*
X108150000Y-126900000D01*
X107800000Y-126701000D01*
X107450000Y-126900000D01*
X107450000Y-125900000D01*
X107800000Y-126099000D01*
X107800000Y-126099000D01*
G37*
D31*
G04 #@! TO.P,ID3,1*
G04 #@! TO.N,3.3V*
X107800000Y-127400000D03*
D32*
G04 #@! TD*
G04 #@! TO.N,3.3V*
G04 #@! TO.C,ID3*
G36*
X107800000Y-126900000D02*
X108150000Y-127100000D01*
X108150000Y-127700000D01*
X107450000Y-127700000D01*
X107450000Y-127100000D01*
X107800000Y-126900000D01*
X107800000Y-126900000D01*
G37*
D31*
G04 #@! TO.P,ID3,3*
G04 #@! TO.N,GND*
X107800000Y-125400000D03*
D32*
G04 #@! TD*
G04 #@! TO.N,GND*
G04 #@! TO.C,ID3*
G36*
X108150000Y-125100000D02*
X108150000Y-125700000D01*
X107800000Y-125900000D01*
X107450000Y-125700000D01*
X107450000Y-125100000D01*
X108150000Y-125100000D01*
X108150000Y-125100000D01*
G37*
D35*
G04 #@! TO.N,GND*
X105400000Y-124900000D03*
X108900000Y-125000000D03*
X102400000Y-125400000D03*
X99000000Y-124600000D03*
X134700000Y-134900000D03*
X122300000Y-138600000D03*
X124800000Y-135600000D03*
X136018065Y-135218065D03*
X138600000Y-125600000D03*
X137101765Y-130298235D03*
G04 #@! TO.N,VDD5V*
X91150000Y-130500000D03*
X137240000Y-125200000D03*
X130400000Y-124600000D03*
X122800000Y-121600000D03*
G04 #@! TO.N,GPIO0*
X103300000Y-131600000D03*
X119200000Y-137200000D03*
G04 #@! TO.N,RTS*
X101600000Y-133500000D03*
X103700000Y-129500000D03*
X106350000Y-133500000D03*
G04 #@! TO.N,Net-(Q1-Pad2)*
X103600000Y-132500000D03*
X105600000Y-131000000D03*
G04 #@! TO.N,RESET*
X106979751Y-128779751D03*
X109000000Y-130200000D03*
G04 #@! TO.N,DTR*
X106770000Y-134640000D03*
G04 #@! TO.N,Net-(RV1-Pad2)*
X123300000Y-130200000D03*
X124500000Y-130200000D03*
G04 #@! TO.N,PWM*
X122100000Y-130800000D03*
G04 #@! TO.N,SCL*
X124800000Y-128600000D03*
G04 #@! TO.N,SDA*
X128200000Y-136800000D03*
G04 #@! TO.N,RXD*
X136800000Y-137200000D03*
G04 #@! TO.N,ID0*
X101900000Y-124452900D03*
X134700000Y-138600000D03*
G04 #@! TO.N,ID1*
X107000000Y-128300000D03*
X122800000Y-135400000D03*
G04 #@! TO.N,ID2*
X125300000Y-128200000D03*
X126900000Y-128100000D03*
G04 #@! TO.N,ID3*
X111600000Y-129700000D03*
X119000000Y-132700000D03*
G04 #@! TD*
D36*
G04 #@! TO.N,GND*
X92644412Y-122722375D02*
X92444412Y-122522375D01*
X92644412Y-123812375D02*
X92644412Y-122722375D01*
X104600000Y-125400000D02*
X104900000Y-125400000D01*
X104900000Y-125400000D02*
X105400000Y-124900000D01*
X108200000Y-125000000D02*
X107800000Y-125400000D01*
X108900000Y-125000000D02*
X108200000Y-125000000D01*
X83352500Y-138410000D02*
X83800000Y-137962500D01*
X81500000Y-138410000D02*
X83352500Y-138410000D01*
X83800000Y-137160000D02*
X84160000Y-136800000D01*
X83800000Y-137962500D02*
X83800000Y-137160000D01*
X92444412Y-121855588D02*
X92444412Y-122522375D01*
X92700000Y-121600000D02*
X92444412Y-121855588D01*
X105400000Y-124900000D02*
X102100000Y-121600000D01*
X102100000Y-121600000D02*
X92700000Y-121600000D01*
X101400000Y-125400000D02*
X102400000Y-125400000D01*
X98200000Y-125400000D02*
X99000000Y-124600000D01*
X133000000Y-133200000D02*
X130600000Y-133200000D01*
X134700000Y-134900000D02*
X133000000Y-133200000D01*
X120607500Y-138600000D02*
X122300000Y-138600000D01*
X127200000Y-133200000D02*
X130600000Y-133200000D01*
X124800000Y-135600000D02*
X127200000Y-133200000D01*
X138392500Y-134100000D02*
X137136130Y-134100000D01*
X137136130Y-134100000D02*
X136018065Y-135218065D01*
X138600000Y-126392500D02*
X138392500Y-126600000D01*
X138600000Y-125600000D02*
X138600000Y-126392500D01*
X125750000Y-122625000D02*
X125925000Y-122625000D01*
X126500000Y-123100000D02*
X127000000Y-123600000D01*
X127000000Y-124100000D02*
X127000000Y-123900000D01*
X125925000Y-122625000D02*
X126400000Y-123100000D01*
X126400000Y-123100000D02*
X126500000Y-123100000D01*
X127000000Y-123600000D02*
X127000000Y-124100000D01*
X132500000Y-124150000D02*
X130750000Y-125900000D01*
X132500000Y-123000000D02*
X132500000Y-124150000D01*
X130750000Y-125900000D02*
X127600000Y-125900000D01*
X127600000Y-125900000D02*
X127000000Y-125300000D01*
X92700000Y-121600000D02*
X91100000Y-121600000D01*
X91100000Y-121600000D02*
X90800000Y-121600000D01*
X90800000Y-121600000D02*
X82900000Y-121600000D01*
X92119412Y-123812375D02*
X92007037Y-123700000D01*
X92644412Y-123812375D02*
X92119412Y-123812375D01*
X132500000Y-121850000D02*
X132550000Y-121800000D01*
X132500000Y-123000000D02*
X132500000Y-121850000D01*
X134300000Y-121700000D02*
X131100000Y-121700000D01*
X134300000Y-121700000D02*
X138800000Y-121700000D01*
X127100000Y-124200000D02*
X127000000Y-124300000D01*
X127000000Y-125300000D02*
X127000000Y-124300000D01*
X127000000Y-124300000D02*
X127000000Y-124100000D01*
X127100000Y-123175000D02*
X127100000Y-123700000D01*
X125750000Y-122625000D02*
X126550000Y-122625000D01*
X126550000Y-122625000D02*
X127100000Y-123175000D01*
X127100000Y-123700000D02*
X127100000Y-124200000D01*
X126800000Y-125100000D02*
X127000000Y-125300000D01*
X126800000Y-123200000D02*
X126800000Y-125100000D01*
X127000000Y-124100000D02*
X127000000Y-123400000D01*
X127000000Y-123400000D02*
X126800000Y-123200000D01*
X125750000Y-122625000D02*
X126125000Y-122625000D01*
X126125000Y-122625000D02*
X126500000Y-123000000D01*
X126500000Y-123000000D02*
X126700000Y-123000000D01*
X125750000Y-122625000D02*
X125975000Y-122625000D01*
X125975000Y-122625000D02*
X126200000Y-122400000D01*
X126200000Y-122400000D02*
X126600000Y-122400000D01*
X126600000Y-122400000D02*
X127100000Y-122900000D01*
X127100000Y-122900000D02*
X127100000Y-123600000D01*
X127100000Y-123100000D02*
X127100000Y-123600000D01*
X127100000Y-123600000D02*
X127100000Y-123700000D01*
G04 #@! TO.N,3.3V*
X93544412Y-123762375D02*
X93594412Y-123812375D01*
X93544412Y-122522375D02*
X93544412Y-123762375D01*
X93594412Y-123812375D02*
X94544412Y-123812375D01*
X95069412Y-123812375D02*
X95557037Y-124300000D01*
X94544412Y-123812375D02*
X95069412Y-123812375D01*
X100700000Y-129750000D02*
X101000000Y-130050000D01*
X107050000Y-130050000D02*
X106300000Y-130050000D01*
X107300000Y-129800000D02*
X107050000Y-130050000D01*
X118600000Y-134350000D02*
X116857446Y-134350000D01*
X95557037Y-124300000D02*
X95600000Y-124300000D01*
X95600000Y-124300000D02*
X96400000Y-125100000D01*
X97750000Y-127400000D02*
X98200000Y-127400000D01*
X96400000Y-126050000D02*
X97750000Y-127400000D01*
X96400000Y-125100000D02*
X96400000Y-126050000D01*
X98200000Y-127400000D02*
X101400000Y-127400000D01*
X100700000Y-128100000D02*
X101400000Y-127400000D01*
X100700000Y-129750000D02*
X100700000Y-128100000D01*
X97500000Y-124000000D02*
X102300000Y-124000000D01*
X96400000Y-125100000D02*
X97500000Y-124000000D01*
X102300000Y-124000000D02*
X103800000Y-125500000D01*
X104150000Y-127400000D02*
X104600000Y-127400000D01*
X103800000Y-127050000D02*
X104150000Y-127400000D01*
X103800000Y-125500000D02*
X103800000Y-127050000D01*
X105050000Y-127400000D02*
X107800000Y-127400000D01*
X104600000Y-127400000D02*
X105050000Y-127400000D01*
X107300000Y-129100000D02*
X107650000Y-128750000D01*
X107300000Y-129800000D02*
X107300000Y-129100000D01*
X107800000Y-128600000D02*
X107800000Y-127400000D01*
X107650000Y-128750000D02*
X107800000Y-128600000D01*
X115322599Y-128752401D02*
X115325000Y-128750000D01*
X115325000Y-128750000D02*
X116500000Y-128750000D01*
X120057500Y-127150000D02*
X120607500Y-126600000D01*
X116925000Y-127150000D02*
X120057500Y-127150000D01*
X116500000Y-127575000D02*
X116925000Y-127150000D01*
X116500000Y-128750000D02*
X116500000Y-127575000D01*
X117200000Y-128750000D02*
X118150000Y-129700000D01*
X116500000Y-128750000D02*
X117200000Y-128750000D01*
X107800000Y-128600000D02*
X109000000Y-128600000D01*
X110552901Y-130152901D02*
X113247099Y-130152901D01*
X109000000Y-128600000D02*
X110552901Y-130152901D01*
X114650000Y-128750000D02*
X115325000Y-128750000D01*
X113247099Y-130152901D02*
X114650000Y-128750000D01*
X113247099Y-130152901D02*
X113247099Y-131197099D01*
X116400000Y-134350000D02*
X116857446Y-134350000D01*
X113247099Y-131197099D02*
X116400000Y-134350000D01*
G04 #@! TO.N,VDD5V*
X93394412Y-128355588D02*
X93394412Y-128242375D01*
X93394412Y-128242375D02*
X93394412Y-127692375D01*
X89400000Y-131500000D02*
X90250000Y-131500000D01*
X91150000Y-130500000D02*
X91200000Y-130550000D01*
X88600000Y-130500000D02*
X91150000Y-130500000D01*
X90250000Y-131500000D02*
X91200000Y-130550000D01*
X83000000Y-124900000D02*
X88600000Y-130500000D01*
X91200000Y-130550000D02*
X93394412Y-128355588D01*
X81500000Y-122460000D02*
X83000000Y-123960000D01*
X83000000Y-123960000D02*
X83000000Y-124900000D01*
X93394412Y-126692375D02*
X93594412Y-126492375D01*
X93394412Y-127692375D02*
X93394412Y-126692375D01*
X93594412Y-126492375D02*
X94544412Y-126492375D01*
X98650000Y-138000000D02*
X91150000Y-130500000D01*
X101960000Y-138000000D02*
X98650000Y-138000000D01*
X128450000Y-124375000D02*
X129250000Y-124375000D01*
X127600000Y-123525000D02*
X128450000Y-124375000D01*
X127600000Y-122400000D02*
X127600000Y-123525000D01*
X129250000Y-124375000D02*
X130050000Y-124375000D01*
X135040000Y-123000000D02*
X137240000Y-125200000D01*
X130050000Y-124375000D02*
X130175000Y-124375000D01*
X130175000Y-124375000D02*
X130400000Y-124600000D01*
X126800000Y-121600000D02*
X127600000Y-122400000D01*
X122800000Y-121600000D02*
X126800000Y-121600000D01*
D37*
G04 #@! TO.N,GPIO0*
X102559206Y-130950000D02*
X102724336Y-130784870D01*
X101000000Y-130950000D02*
X102559206Y-130950000D01*
X102724336Y-131024336D02*
X103300000Y-131600000D01*
X102724336Y-130784870D02*
X102724336Y-131024336D01*
X120507500Y-137200000D02*
X120607500Y-137100000D01*
X119200000Y-137200000D02*
X120507500Y-137200000D01*
G04 #@! TO.N,RTS*
X101600000Y-132750000D02*
X101850000Y-132500000D01*
X101600000Y-133500000D02*
X101600000Y-132750000D01*
X103684870Y-129484870D02*
X103700000Y-129500000D01*
X102724336Y-129484870D02*
X103684870Y-129484870D01*
X106350000Y-133500000D02*
X101600000Y-133500000D01*
G04 #@! TO.N,Net-(Q1-Pad2)*
X102750000Y-132500000D02*
X103600000Y-132500000D01*
X105101736Y-130134870D02*
X104624336Y-130134870D01*
X105449501Y-130482635D02*
X105101736Y-130134870D01*
X105449501Y-130849501D02*
X105449501Y-130482635D01*
X105600000Y-131000000D02*
X105449501Y-130849501D01*
G04 #@! TO.N,Net-(Q1-Pad5)*
X104550000Y-132047600D02*
X103800000Y-131297600D01*
X104550000Y-132500000D02*
X104550000Y-132047600D01*
X103201736Y-130134870D02*
X102724336Y-130134870D01*
X103800000Y-130733134D02*
X103201736Y-130134870D01*
X103800000Y-131297600D02*
X103800000Y-130733134D01*
G04 #@! TO.N,RESET*
X105965130Y-129484870D02*
X106300000Y-129150000D01*
X104624336Y-129484870D02*
X105965130Y-129484870D01*
X106300000Y-129150000D02*
X106609502Y-129150000D01*
X106609502Y-129150000D02*
X106979751Y-128779751D01*
X138685000Y-131100000D02*
X138392500Y-131100000D01*
X139700000Y-132115000D02*
X138685000Y-131100000D01*
X139700000Y-134600000D02*
X139700000Y-132115000D01*
X139440000Y-134860000D02*
X139700000Y-134600000D01*
X109331511Y-130531511D02*
X111731511Y-130531511D01*
X109000000Y-130200000D02*
X109331511Y-130531511D01*
X137040000Y-134850000D02*
X139440000Y-134850000D01*
X134140000Y-137760000D02*
X137040000Y-134860000D01*
X127850000Y-137850000D02*
X134050000Y-137850000D01*
X134050000Y-137850000D02*
X134140000Y-137760000D01*
X119050000Y-137850000D02*
X118860000Y-137660000D01*
X127840000Y-137850000D02*
X119050000Y-137850000D01*
X118860000Y-137660000D02*
X118946201Y-137746201D01*
X111731511Y-130531511D02*
X118860000Y-137660000D01*
G04 #@! TO.N,DTR*
X104624336Y-131137270D02*
X105450000Y-131962934D01*
X105450000Y-131962934D02*
X105450000Y-132500000D01*
X104624336Y-130784870D02*
X104624336Y-131137270D01*
X106200000Y-132500000D02*
X105450000Y-132500000D01*
X106770000Y-134640000D02*
X106770000Y-133070000D01*
X106770000Y-133070000D02*
X106200000Y-132500000D01*
D36*
G04 #@! TO.N,Net-(D2-Pad2)*
X86600000Y-132750000D02*
X86600000Y-132350000D01*
X85150000Y-134200000D02*
X86600000Y-132750000D01*
X86600000Y-132350000D02*
X86600000Y-131500000D01*
X84160000Y-134200000D02*
X85150000Y-134200000D01*
D37*
G04 #@! TO.N,Net-(RV1-Pad2)*
X116500000Y-132250000D02*
X117737436Y-132250000D01*
X117737436Y-132250000D02*
X118033637Y-131953799D01*
X135900000Y-129600000D02*
X138392500Y-129600000D01*
X124500000Y-130200000D02*
X135300000Y-130200000D01*
X135300000Y-130200000D02*
X135900000Y-129600000D01*
X118033637Y-131953799D02*
X118033637Y-131946363D01*
X118033637Y-131953799D02*
X118856201Y-131953799D01*
X118960000Y-131850000D02*
X121650000Y-131850000D01*
X118856201Y-131953799D02*
X118960000Y-131850000D01*
X121650000Y-131850000D02*
X123300000Y-130200000D01*
G04 #@! TO.N,PWM*
X121800000Y-131100000D02*
X122100000Y-130800000D01*
X120607500Y-131100000D02*
X121800000Y-131100000D01*
G04 #@! TO.N,NEOPX*
X125750000Y-128352400D02*
X125750000Y-125027400D01*
X121502400Y-132600000D02*
X125750000Y-128352400D01*
X125750000Y-125027400D02*
X125750000Y-124375000D01*
X120607500Y-132600000D02*
X121502400Y-132600000D01*
G04 #@! TO.N,Net-(R10-Pad1)*
X118650000Y-128100000D02*
X118600000Y-128050000D01*
X120607500Y-128100000D02*
X118650000Y-128100000D01*
G04 #@! TO.N,SCL*
X120507500Y-129700000D02*
X120607500Y-129600000D01*
X119050000Y-129700000D02*
X120507500Y-129700000D01*
X121502400Y-129600000D02*
X122502400Y-128600000D01*
X120607500Y-129600000D02*
X121502400Y-129600000D01*
X122502400Y-128600000D02*
X124800000Y-128600000D01*
G04 #@! TO.N,SDA*
X120257500Y-135250000D02*
X120607500Y-135600000D01*
X118600000Y-135250000D02*
X120257500Y-135250000D01*
X121502400Y-136202400D02*
X120900000Y-135600000D01*
X120900000Y-135600000D02*
X120607500Y-135600000D01*
X121502400Y-136202400D02*
X122100000Y-136800000D01*
X128200000Y-136800000D02*
X122100000Y-136800000D01*
G04 #@! TO.N,TXD*
X136900000Y-135600000D02*
X138392500Y-135600000D01*
X133221399Y-139278601D02*
X133270000Y-139230000D01*
X133270000Y-139230000D02*
X136900000Y-135600000D01*
X107310000Y-137060000D02*
X109528601Y-139278601D01*
X104210000Y-138460000D02*
X105350000Y-137320000D01*
X106200000Y-137060000D02*
X107310000Y-137060000D01*
X105350000Y-137320000D02*
X105940000Y-137320000D01*
X105940000Y-137320000D02*
X106200000Y-137060000D01*
X109610000Y-139360000D02*
X109528601Y-139278601D01*
X133270000Y-139230000D02*
X133140000Y-139360000D01*
X133140000Y-139360000D02*
X109610000Y-139360000D01*
G04 #@! TO.N,RXD*
X138292500Y-137200000D02*
X138392500Y-137100000D01*
X136800000Y-137200000D02*
X138292500Y-137200000D01*
G04 #@! TO.N,ID0*
X99800000Y-125415000D02*
X100762100Y-124452900D01*
X100762100Y-124452900D02*
X101900000Y-124452900D01*
X134700000Y-138600000D02*
X138392500Y-138600000D01*
G04 #@! TO.N,ID1*
X103000000Y-127385000D02*
X103900000Y-128285000D01*
X103900000Y-128285000D02*
X106985000Y-128285000D01*
X106985000Y-128285000D02*
X107000000Y-128300000D01*
X122800000Y-135400000D02*
X123400000Y-136000000D01*
X134700000Y-136000000D02*
X138100000Y-132600000D01*
X138100000Y-132600000D02*
X138392500Y-132600000D01*
X123400000Y-136000000D02*
X134700000Y-136000000D01*
G04 #@! TO.N,ID2*
X138392500Y-128100000D02*
X126900000Y-128100000D01*
X123021399Y-125921399D02*
X125300000Y-128200000D01*
X113000000Y-124200000D02*
X114721399Y-125921399D01*
X106200000Y-125415000D02*
X107415000Y-124200000D01*
X107415000Y-124200000D02*
X113000000Y-124200000D01*
X114721399Y-125921399D02*
X118158601Y-125921399D01*
X118158601Y-125921399D02*
X118470000Y-125610000D01*
X122710000Y-125610000D02*
X123021399Y-125921399D01*
X118470000Y-125610000D02*
X122710000Y-125610000D01*
G04 #@! TO.N,Net-(JP1-Pad2)*
X99785000Y-126400000D02*
X99800000Y-126385000D01*
X98200000Y-126400000D02*
X99785000Y-126400000D01*
G04 #@! TO.N,Net-(JP2-Pad2)*
X102985000Y-126400000D02*
X103000000Y-126415000D01*
X101400000Y-126400000D02*
X102985000Y-126400000D01*
G04 #@! TO.N,Net-(JP3-Pad2)*
X106185000Y-126400000D02*
X106200000Y-126385000D01*
X104600000Y-126400000D02*
X106185000Y-126400000D01*
G04 #@! TO.N,ID3*
X107800000Y-126400000D02*
X108300000Y-126400000D01*
X108300000Y-126400000D02*
X111600000Y-129700000D01*
X120400000Y-134100000D02*
X120607500Y-134100000D01*
X119540000Y-134100000D02*
X120607500Y-134100000D01*
X119000000Y-132700000D02*
X119000000Y-133560000D01*
X119000000Y-133560000D02*
X119540000Y-134100000D01*
G04 #@! TD*
D38*
G04 #@! TO.N,GND*
G36*
X87990253Y-131000411D02*
X88034047Y-131065953D01*
X88099589Y-131109747D01*
X88099591Y-131109749D01*
X88202560Y-131178551D01*
X88202560Y-132050000D01*
X88251843Y-132297765D01*
X88392191Y-132507809D01*
X88602235Y-132648157D01*
X88850000Y-132697440D01*
X89950000Y-132697440D01*
X90197765Y-132648157D01*
X90407809Y-132507809D01*
X90548157Y-132297765D01*
X90560287Y-132236785D01*
X90815953Y-132065953D01*
X90859749Y-132000408D01*
X91200000Y-131660157D01*
X98040251Y-138500408D01*
X98084047Y-138565953D01*
X98343708Y-138739454D01*
X98572684Y-138785000D01*
X98572688Y-138785000D01*
X98650000Y-138800378D01*
X98727312Y-138785000D01*
X100122560Y-138785000D01*
X100122560Y-139290000D01*
X85084949Y-139290000D01*
X85209699Y-139238327D01*
X85388327Y-139059698D01*
X85485000Y-138826309D01*
X85485000Y-138664868D01*
X89284737Y-138664868D01*
X89395641Y-138942099D01*
X90041593Y-139185323D01*
X90731453Y-139162836D01*
X91264359Y-138942099D01*
X91375263Y-138664868D01*
X90330000Y-137619605D01*
X89284737Y-138664868D01*
X85485000Y-138664868D01*
X85485000Y-138248250D01*
X85326250Y-138089500D01*
X83927000Y-138089500D01*
X83927000Y-138109500D01*
X83673000Y-138109500D01*
X83673000Y-138089500D01*
X83653000Y-138089500D01*
X83653000Y-137835500D01*
X83673000Y-137835500D01*
X83673000Y-137815500D01*
X83927000Y-137815500D01*
X83927000Y-137835500D01*
X85326250Y-137835500D01*
X85485000Y-137676750D01*
X85485000Y-137151593D01*
X88584677Y-137151593D01*
X88607164Y-137841453D01*
X88827901Y-138374359D01*
X89105132Y-138485263D01*
X90150395Y-137440000D01*
X90509605Y-137440000D01*
X91554868Y-138485263D01*
X91832099Y-138374359D01*
X92075323Y-137728407D01*
X92052836Y-137038547D01*
X91832099Y-136505641D01*
X91554868Y-136394737D01*
X90509605Y-137440000D01*
X90150395Y-137440000D01*
X89105132Y-136394737D01*
X88827901Y-136505641D01*
X88584677Y-137151593D01*
X85485000Y-137151593D01*
X85485000Y-137071250D01*
X85465596Y-137051846D01*
X85388327Y-136865302D01*
X85327045Y-136804020D01*
X85448157Y-136622765D01*
X85462353Y-136551397D01*
X85485000Y-136528750D01*
X85485000Y-136448691D01*
X85483502Y-136445074D01*
X85497440Y-136375000D01*
X85497440Y-135925000D01*
X85477549Y-135825000D01*
X85497440Y-135725000D01*
X85497440Y-135293868D01*
X85717199Y-135824412D01*
X86275588Y-136382801D01*
X87005159Y-136685000D01*
X87794841Y-136685000D01*
X88524412Y-136382801D01*
X88692081Y-136215132D01*
X89284737Y-136215132D01*
X90330000Y-137260395D01*
X91375263Y-136215132D01*
X91264359Y-135937901D01*
X90618407Y-135694677D01*
X89928547Y-135717164D01*
X89395641Y-135937901D01*
X89284737Y-136215132D01*
X88692081Y-136215132D01*
X89082801Y-135824412D01*
X89385000Y-135094841D01*
X89385000Y-134305159D01*
X89082801Y-133575588D01*
X88524412Y-133017199D01*
X87794841Y-132715000D01*
X87393416Y-132715000D01*
X87385000Y-132672688D01*
X87385000Y-132650696D01*
X87397765Y-132648157D01*
X87607809Y-132507809D01*
X87748157Y-132297765D01*
X87797440Y-132050000D01*
X87797440Y-130950000D01*
X87762082Y-130772240D01*
X87990253Y-131000411D01*
X87990253Y-131000411D01*
G37*
X87990253Y-131000411D02*
X88034047Y-131065953D01*
X88099589Y-131109747D01*
X88099591Y-131109749D01*
X88202560Y-131178551D01*
X88202560Y-132050000D01*
X88251843Y-132297765D01*
X88392191Y-132507809D01*
X88602235Y-132648157D01*
X88850000Y-132697440D01*
X89950000Y-132697440D01*
X90197765Y-132648157D01*
X90407809Y-132507809D01*
X90548157Y-132297765D01*
X90560287Y-132236785D01*
X90815953Y-132065953D01*
X90859749Y-132000408D01*
X91200000Y-131660157D01*
X98040251Y-138500408D01*
X98084047Y-138565953D01*
X98343708Y-138739454D01*
X98572684Y-138785000D01*
X98572688Y-138785000D01*
X98650000Y-138800378D01*
X98727312Y-138785000D01*
X100122560Y-138785000D01*
X100122560Y-139290000D01*
X85084949Y-139290000D01*
X85209699Y-139238327D01*
X85388327Y-139059698D01*
X85485000Y-138826309D01*
X85485000Y-138664868D01*
X89284737Y-138664868D01*
X89395641Y-138942099D01*
X90041593Y-139185323D01*
X90731453Y-139162836D01*
X91264359Y-138942099D01*
X91375263Y-138664868D01*
X90330000Y-137619605D01*
X89284737Y-138664868D01*
X85485000Y-138664868D01*
X85485000Y-138248250D01*
X85326250Y-138089500D01*
X83927000Y-138089500D01*
X83927000Y-138109500D01*
X83673000Y-138109500D01*
X83673000Y-138089500D01*
X83653000Y-138089500D01*
X83653000Y-137835500D01*
X83673000Y-137835500D01*
X83673000Y-137815500D01*
X83927000Y-137815500D01*
X83927000Y-137835500D01*
X85326250Y-137835500D01*
X85485000Y-137676750D01*
X85485000Y-137151593D01*
X88584677Y-137151593D01*
X88607164Y-137841453D01*
X88827901Y-138374359D01*
X89105132Y-138485263D01*
X90150395Y-137440000D01*
X90509605Y-137440000D01*
X91554868Y-138485263D01*
X91832099Y-138374359D01*
X92075323Y-137728407D01*
X92052836Y-137038547D01*
X91832099Y-136505641D01*
X91554868Y-136394737D01*
X90509605Y-137440000D01*
X90150395Y-137440000D01*
X89105132Y-136394737D01*
X88827901Y-136505641D01*
X88584677Y-137151593D01*
X85485000Y-137151593D01*
X85485000Y-137071250D01*
X85465596Y-137051846D01*
X85388327Y-136865302D01*
X85327045Y-136804020D01*
X85448157Y-136622765D01*
X85462353Y-136551397D01*
X85485000Y-136528750D01*
X85485000Y-136448691D01*
X85483502Y-136445074D01*
X85497440Y-136375000D01*
X85497440Y-135925000D01*
X85477549Y-135825000D01*
X85497440Y-135725000D01*
X85497440Y-135293868D01*
X85717199Y-135824412D01*
X86275588Y-136382801D01*
X87005159Y-136685000D01*
X87794841Y-136685000D01*
X88524412Y-136382801D01*
X88692081Y-136215132D01*
X89284737Y-136215132D01*
X90330000Y-137260395D01*
X91375263Y-136215132D01*
X91264359Y-135937901D01*
X90618407Y-135694677D01*
X89928547Y-135717164D01*
X89395641Y-135937901D01*
X89284737Y-136215132D01*
X88692081Y-136215132D01*
X89082801Y-135824412D01*
X89385000Y-135094841D01*
X89385000Y-134305159D01*
X89082801Y-133575588D01*
X88524412Y-133017199D01*
X87794841Y-132715000D01*
X87393416Y-132715000D01*
X87385000Y-132672688D01*
X87385000Y-132650696D01*
X87397765Y-132648157D01*
X87607809Y-132507809D01*
X87748157Y-132297765D01*
X87797440Y-132050000D01*
X87797440Y-130950000D01*
X87762082Y-130772240D01*
X87990253Y-131000411D01*
G36*
X108745176Y-129455333D02*
X108555050Y-129534085D01*
X108334085Y-129755050D01*
X108214500Y-130043754D01*
X108214500Y-130356246D01*
X108334085Y-130644950D01*
X108555050Y-130865915D01*
X108734428Y-130940216D01*
X108779087Y-130984875D01*
X108818765Y-131044257D01*
X108878147Y-131083935D01*
X109054013Y-131201446D01*
X109054014Y-131201446D01*
X109054015Y-131201447D01*
X109261465Y-131242711D01*
X109261468Y-131242711D01*
X109331510Y-131256643D01*
X109401552Y-131242711D01*
X111436923Y-131242711D01*
X112909212Y-132715000D01*
X112205159Y-132715000D01*
X111475588Y-133017199D01*
X110917199Y-133575588D01*
X110615000Y-134305159D01*
X110615000Y-135094841D01*
X110917199Y-135824412D01*
X111475588Y-136382801D01*
X112205159Y-136685000D01*
X112994841Y-136685000D01*
X113724412Y-136382801D01*
X114282801Y-135824412D01*
X114585000Y-135094841D01*
X114585000Y-134390788D01*
X115763608Y-135569397D01*
X115218547Y-135587164D01*
X114685641Y-135807901D01*
X114574737Y-136085132D01*
X115620000Y-137130395D01*
X115634143Y-137116253D01*
X115813748Y-137295858D01*
X115799605Y-137310000D01*
X116844868Y-138355263D01*
X117122099Y-138244359D01*
X117365323Y-137598407D01*
X117350925Y-137156714D01*
X118406635Y-138212424D01*
X118406638Y-138212426D01*
X118497576Y-138303364D01*
X118537254Y-138362746D01*
X118772504Y-138519936D01*
X118979954Y-138561200D01*
X118979959Y-138561200D01*
X119050000Y-138575132D01*
X119120042Y-138561200D01*
X132933012Y-138561200D01*
X132845412Y-138648800D01*
X116619685Y-138648800D01*
X116665263Y-138534868D01*
X115620000Y-137489605D01*
X114574737Y-138534868D01*
X114620315Y-138648800D01*
X109904589Y-138648800D01*
X108597890Y-137342102D01*
X108889507Y-137221310D01*
X109089224Y-137021593D01*
X113874677Y-137021593D01*
X113897164Y-137711453D01*
X114117901Y-138244359D01*
X114395132Y-138355263D01*
X115440395Y-137310000D01*
X114395132Y-136264737D01*
X114117901Y-136375641D01*
X113874677Y-137021593D01*
X109089224Y-137021593D01*
X109321310Y-136789507D01*
X109555000Y-136225330D01*
X109555000Y-135614670D01*
X109321310Y-135050493D01*
X108889507Y-134618690D01*
X108325330Y-134385000D01*
X107714670Y-134385000D01*
X107543895Y-134455737D01*
X107481200Y-134304378D01*
X107481200Y-133140042D01*
X107495132Y-133070000D01*
X107481200Y-132999958D01*
X107481200Y-132999954D01*
X107439936Y-132792504D01*
X107376416Y-132697440D01*
X107322424Y-132616635D01*
X107322422Y-132616633D01*
X107282746Y-132557254D01*
X107223366Y-132517578D01*
X106752424Y-132046636D01*
X106712746Y-131987254D01*
X106477496Y-131830064D01*
X106270046Y-131788800D01*
X106270041Y-131788800D01*
X106200000Y-131774868D01*
X106140095Y-131786784D01*
X106119936Y-131685438D01*
X106119935Y-131685436D01*
X106082081Y-131628784D01*
X106265915Y-131444950D01*
X106385500Y-131156246D01*
X106385500Y-130897440D01*
X106600000Y-130897440D01*
X106847765Y-130848157D01*
X106867456Y-130835000D01*
X106972688Y-130835000D01*
X107050000Y-130850378D01*
X107127312Y-130835000D01*
X107127316Y-130835000D01*
X107356292Y-130789454D01*
X107615953Y-130615953D01*
X107659749Y-130550408D01*
X107800408Y-130409749D01*
X107865953Y-130365953D01*
X108039454Y-130106292D01*
X108085000Y-129877316D01*
X108085000Y-129877312D01*
X108100378Y-129800001D01*
X108085000Y-129722690D01*
X108085000Y-129425156D01*
X108125156Y-129385000D01*
X108674843Y-129385000D01*
X108745176Y-129455333D01*
X108745176Y-129455333D01*
G37*
X108745176Y-129455333D02*
X108555050Y-129534085D01*
X108334085Y-129755050D01*
X108214500Y-130043754D01*
X108214500Y-130356246D01*
X108334085Y-130644950D01*
X108555050Y-130865915D01*
X108734428Y-130940216D01*
X108779087Y-130984875D01*
X108818765Y-131044257D01*
X108878147Y-131083935D01*
X109054013Y-131201446D01*
X109054014Y-131201446D01*
X109054015Y-131201447D01*
X109261465Y-131242711D01*
X109261468Y-131242711D01*
X109331510Y-131256643D01*
X109401552Y-131242711D01*
X111436923Y-131242711D01*
X112909212Y-132715000D01*
X112205159Y-132715000D01*
X111475588Y-133017199D01*
X110917199Y-133575588D01*
X110615000Y-134305159D01*
X110615000Y-135094841D01*
X110917199Y-135824412D01*
X111475588Y-136382801D01*
X112205159Y-136685000D01*
X112994841Y-136685000D01*
X113724412Y-136382801D01*
X114282801Y-135824412D01*
X114585000Y-135094841D01*
X114585000Y-134390788D01*
X115763608Y-135569397D01*
X115218547Y-135587164D01*
X114685641Y-135807901D01*
X114574737Y-136085132D01*
X115620000Y-137130395D01*
X115634143Y-137116253D01*
X115813748Y-137295858D01*
X115799605Y-137310000D01*
X116844868Y-138355263D01*
X117122099Y-138244359D01*
X117365323Y-137598407D01*
X117350925Y-137156714D01*
X118406635Y-138212424D01*
X118406638Y-138212426D01*
X118497576Y-138303364D01*
X118537254Y-138362746D01*
X118772504Y-138519936D01*
X118979954Y-138561200D01*
X118979959Y-138561200D01*
X119050000Y-138575132D01*
X119120042Y-138561200D01*
X132933012Y-138561200D01*
X132845412Y-138648800D01*
X116619685Y-138648800D01*
X116665263Y-138534868D01*
X115620000Y-137489605D01*
X114574737Y-138534868D01*
X114620315Y-138648800D01*
X109904589Y-138648800D01*
X108597890Y-137342102D01*
X108889507Y-137221310D01*
X109089224Y-137021593D01*
X113874677Y-137021593D01*
X113897164Y-137711453D01*
X114117901Y-138244359D01*
X114395132Y-138355263D01*
X115440395Y-137310000D01*
X114395132Y-136264737D01*
X114117901Y-136375641D01*
X113874677Y-137021593D01*
X109089224Y-137021593D01*
X109321310Y-136789507D01*
X109555000Y-136225330D01*
X109555000Y-135614670D01*
X109321310Y-135050493D01*
X108889507Y-134618690D01*
X108325330Y-134385000D01*
X107714670Y-134385000D01*
X107543895Y-134455737D01*
X107481200Y-134304378D01*
X107481200Y-133140042D01*
X107495132Y-133070000D01*
X107481200Y-132999958D01*
X107481200Y-132999954D01*
X107439936Y-132792504D01*
X107376416Y-132697440D01*
X107322424Y-132616635D01*
X107322422Y-132616633D01*
X107282746Y-132557254D01*
X107223366Y-132517578D01*
X106752424Y-132046636D01*
X106712746Y-131987254D01*
X106477496Y-131830064D01*
X106270046Y-131788800D01*
X106270041Y-131788800D01*
X106200000Y-131774868D01*
X106140095Y-131786784D01*
X106119936Y-131685438D01*
X106119935Y-131685436D01*
X106082081Y-131628784D01*
X106265915Y-131444950D01*
X106385500Y-131156246D01*
X106385500Y-130897440D01*
X106600000Y-130897440D01*
X106847765Y-130848157D01*
X106867456Y-130835000D01*
X106972688Y-130835000D01*
X107050000Y-130850378D01*
X107127312Y-130835000D01*
X107127316Y-130835000D01*
X107356292Y-130789454D01*
X107615953Y-130615953D01*
X107659749Y-130550408D01*
X107800408Y-130409749D01*
X107865953Y-130365953D01*
X108039454Y-130106292D01*
X108085000Y-129877316D01*
X108085000Y-129877312D01*
X108100378Y-129800001D01*
X108085000Y-129722690D01*
X108085000Y-129425156D01*
X108125156Y-129385000D01*
X108674843Y-129385000D01*
X108745176Y-129455333D01*
G36*
X81627000Y-124873000D02*
X81647000Y-124873000D01*
X81647000Y-125127000D01*
X81627000Y-125127000D01*
X81627000Y-126326250D01*
X81785750Y-126485000D01*
X82476309Y-126485000D01*
X82709698Y-126388327D01*
X82888327Y-126209699D01*
X82979480Y-125989637D01*
X87327761Y-130337918D01*
X87150000Y-130302560D01*
X86050000Y-130302560D01*
X85802235Y-130351843D01*
X85592191Y-130492191D01*
X85451843Y-130702235D01*
X85402560Y-130950000D01*
X85402560Y-131974663D01*
X85388327Y-131940302D01*
X85209699Y-131761673D01*
X84976310Y-131665000D01*
X84085750Y-131665000D01*
X83927000Y-131823750D01*
X83927000Y-132910500D01*
X83947000Y-132910500D01*
X83947000Y-133164500D01*
X83927000Y-133164500D01*
X83927000Y-133184500D01*
X83673000Y-133184500D01*
X83673000Y-133164500D01*
X83653000Y-133164500D01*
X83653000Y-132910500D01*
X83673000Y-132910500D01*
X83673000Y-131823750D01*
X83514250Y-131665000D01*
X83085000Y-131665000D01*
X83085000Y-131276191D01*
X82988327Y-131042802D01*
X82809699Y-130864173D01*
X82576310Y-130767500D01*
X81785750Y-130767500D01*
X81627000Y-130926250D01*
X81627000Y-132463000D01*
X81647000Y-132463000D01*
X81647000Y-132717000D01*
X81627000Y-132717000D01*
X81627000Y-134533000D01*
X81647000Y-134533000D01*
X81647000Y-134787000D01*
X81627000Y-134787000D01*
X81627000Y-136213000D01*
X81647000Y-136213000D01*
X81647000Y-136467000D01*
X81627000Y-136467000D01*
X81627000Y-138283000D01*
X81647000Y-138283000D01*
X81647000Y-138537000D01*
X81627000Y-138537000D01*
X81627000Y-138557000D01*
X81373000Y-138557000D01*
X81373000Y-138537000D01*
X81353000Y-138537000D01*
X81353000Y-138283000D01*
X81373000Y-138283000D01*
X81373000Y-136467000D01*
X81353000Y-136467000D01*
X81353000Y-136213000D01*
X81373000Y-136213000D01*
X81373000Y-134787000D01*
X81353000Y-134787000D01*
X81353000Y-134533000D01*
X81373000Y-134533000D01*
X81373000Y-132717000D01*
X81353000Y-132717000D01*
X81353000Y-132463000D01*
X81373000Y-132463000D01*
X81373000Y-130926250D01*
X81214250Y-130767500D01*
X80710000Y-130767500D01*
X80710000Y-129812060D01*
X82617545Y-129812060D01*
X82700884Y-130065953D01*
X83265306Y-130271590D01*
X83865458Y-130245579D01*
X84299116Y-130065953D01*
X84382455Y-129812060D01*
X83500000Y-128929605D01*
X82617545Y-129812060D01*
X80710000Y-129812060D01*
X80710000Y-128515306D01*
X81978410Y-128515306D01*
X82004421Y-129115458D01*
X82184047Y-129549116D01*
X82437940Y-129632455D01*
X83320395Y-128750000D01*
X83679605Y-128750000D01*
X84562060Y-129632455D01*
X84815953Y-129549116D01*
X85021590Y-128984694D01*
X84995579Y-128384542D01*
X84815953Y-127950884D01*
X84562060Y-127867545D01*
X83679605Y-128750000D01*
X83320395Y-128750000D01*
X82437940Y-127867545D01*
X82184047Y-127950884D01*
X81978410Y-128515306D01*
X80710000Y-128515306D01*
X80710000Y-127687940D01*
X82617545Y-127687940D01*
X83500000Y-128570395D01*
X84382455Y-127687940D01*
X84299116Y-127434047D01*
X83734694Y-127228410D01*
X83134542Y-127254421D01*
X82700884Y-127434047D01*
X82617545Y-127687940D01*
X80710000Y-127687940D01*
X80710000Y-126485000D01*
X81214250Y-126485000D01*
X81373000Y-126326250D01*
X81373000Y-125127000D01*
X81353000Y-125127000D01*
X81353000Y-124873000D01*
X81373000Y-124873000D01*
X81373000Y-124853000D01*
X81627000Y-124853000D01*
X81627000Y-124873000D01*
X81627000Y-124873000D01*
G37*
X81627000Y-124873000D02*
X81647000Y-124873000D01*
X81647000Y-125127000D01*
X81627000Y-125127000D01*
X81627000Y-126326250D01*
X81785750Y-126485000D01*
X82476309Y-126485000D01*
X82709698Y-126388327D01*
X82888327Y-126209699D01*
X82979480Y-125989637D01*
X87327761Y-130337918D01*
X87150000Y-130302560D01*
X86050000Y-130302560D01*
X85802235Y-130351843D01*
X85592191Y-130492191D01*
X85451843Y-130702235D01*
X85402560Y-130950000D01*
X85402560Y-131974663D01*
X85388327Y-131940302D01*
X85209699Y-131761673D01*
X84976310Y-131665000D01*
X84085750Y-131665000D01*
X83927000Y-131823750D01*
X83927000Y-132910500D01*
X83947000Y-132910500D01*
X83947000Y-133164500D01*
X83927000Y-133164500D01*
X83927000Y-133184500D01*
X83673000Y-133184500D01*
X83673000Y-133164500D01*
X83653000Y-133164500D01*
X83653000Y-132910500D01*
X83673000Y-132910500D01*
X83673000Y-131823750D01*
X83514250Y-131665000D01*
X83085000Y-131665000D01*
X83085000Y-131276191D01*
X82988327Y-131042802D01*
X82809699Y-130864173D01*
X82576310Y-130767500D01*
X81785750Y-130767500D01*
X81627000Y-130926250D01*
X81627000Y-132463000D01*
X81647000Y-132463000D01*
X81647000Y-132717000D01*
X81627000Y-132717000D01*
X81627000Y-134533000D01*
X81647000Y-134533000D01*
X81647000Y-134787000D01*
X81627000Y-134787000D01*
X81627000Y-136213000D01*
X81647000Y-136213000D01*
X81647000Y-136467000D01*
X81627000Y-136467000D01*
X81627000Y-138283000D01*
X81647000Y-138283000D01*
X81647000Y-138537000D01*
X81627000Y-138537000D01*
X81627000Y-138557000D01*
X81373000Y-138557000D01*
X81373000Y-138537000D01*
X81353000Y-138537000D01*
X81353000Y-138283000D01*
X81373000Y-138283000D01*
X81373000Y-136467000D01*
X81353000Y-136467000D01*
X81353000Y-136213000D01*
X81373000Y-136213000D01*
X81373000Y-134787000D01*
X81353000Y-134787000D01*
X81353000Y-134533000D01*
X81373000Y-134533000D01*
X81373000Y-132717000D01*
X81353000Y-132717000D01*
X81353000Y-132463000D01*
X81373000Y-132463000D01*
X81373000Y-130926250D01*
X81214250Y-130767500D01*
X80710000Y-130767500D01*
X80710000Y-129812060D01*
X82617545Y-129812060D01*
X82700884Y-130065953D01*
X83265306Y-130271590D01*
X83865458Y-130245579D01*
X84299116Y-130065953D01*
X84382455Y-129812060D01*
X83500000Y-128929605D01*
X82617545Y-129812060D01*
X80710000Y-129812060D01*
X80710000Y-128515306D01*
X81978410Y-128515306D01*
X82004421Y-129115458D01*
X82184047Y-129549116D01*
X82437940Y-129632455D01*
X83320395Y-128750000D01*
X83679605Y-128750000D01*
X84562060Y-129632455D01*
X84815953Y-129549116D01*
X85021590Y-128984694D01*
X84995579Y-128384542D01*
X84815953Y-127950884D01*
X84562060Y-127867545D01*
X83679605Y-128750000D01*
X83320395Y-128750000D01*
X82437940Y-127867545D01*
X82184047Y-127950884D01*
X81978410Y-128515306D01*
X80710000Y-128515306D01*
X80710000Y-127687940D01*
X82617545Y-127687940D01*
X83500000Y-128570395D01*
X84382455Y-127687940D01*
X84299116Y-127434047D01*
X83734694Y-127228410D01*
X83134542Y-127254421D01*
X82700884Y-127434047D01*
X82617545Y-127687940D01*
X80710000Y-127687940D01*
X80710000Y-126485000D01*
X81214250Y-126485000D01*
X81373000Y-126326250D01*
X81373000Y-125127000D01*
X81353000Y-125127000D01*
X81353000Y-124873000D01*
X81373000Y-124873000D01*
X81373000Y-124853000D01*
X81627000Y-124853000D01*
X81627000Y-124873000D01*
G36*
X95615000Y-125425158D02*
X95615001Y-125972684D01*
X95599622Y-126050000D01*
X95660546Y-126356291D01*
X95790251Y-126550408D01*
X95790254Y-126550411D01*
X95834048Y-126615953D01*
X95899590Y-126659747D01*
X97140253Y-127900411D01*
X97184047Y-127965953D01*
X97249589Y-128009747D01*
X97249591Y-128009749D01*
X97308779Y-128049297D01*
X97328481Y-128062462D01*
X97392191Y-128157809D01*
X97602235Y-128298157D01*
X97850000Y-128347440D01*
X98550000Y-128347440D01*
X98797765Y-128298157D01*
X98967115Y-128185000D01*
X99915001Y-128185000D01*
X99915000Y-129672688D01*
X99899622Y-129750000D01*
X99915000Y-129827312D01*
X99915000Y-129827315D01*
X99959214Y-130049593D01*
X99960546Y-130056291D01*
X100052560Y-130194000D01*
X100052560Y-130250000D01*
X100101843Y-130497765D01*
X100103336Y-130500000D01*
X100101843Y-130502235D01*
X100052560Y-130750000D01*
X100052560Y-131150000D01*
X100101843Y-131397765D01*
X100242191Y-131607809D01*
X100452235Y-131748157D01*
X100700000Y-131797440D01*
X101155275Y-131797440D01*
X101051843Y-131952235D01*
X101002560Y-132200000D01*
X101002560Y-132364007D01*
X100960259Y-132427316D01*
X100930065Y-132472504D01*
X100888800Y-132679954D01*
X100888800Y-132679959D01*
X100874868Y-132750000D01*
X100888800Y-132820041D01*
X100888800Y-133164378D01*
X100814500Y-133343754D01*
X100814500Y-133656246D01*
X100934085Y-133944950D01*
X101155050Y-134165915D01*
X101443754Y-134285500D01*
X101756246Y-134285500D01*
X101935622Y-134211200D01*
X106014378Y-134211200D01*
X106058800Y-134229600D01*
X106058800Y-134304377D01*
X105990247Y-134469879D01*
X105785330Y-134385000D01*
X105174670Y-134385000D01*
X104610493Y-134618690D01*
X104178690Y-135050493D01*
X104170562Y-135070115D01*
X104020159Y-135019446D01*
X103119605Y-135920000D01*
X103133748Y-135934143D01*
X102954143Y-136113748D01*
X102940000Y-136099605D01*
X102925858Y-136113748D01*
X102746253Y-135934143D01*
X102760395Y-135920000D01*
X101859841Y-135019446D01*
X101603357Y-135105852D01*
X101393542Y-135679336D01*
X101399917Y-135831160D01*
X101054568Y-135485811D01*
X100545504Y-135274950D01*
X99994496Y-135274950D01*
X99485432Y-135485811D01*
X99095811Y-135875432D01*
X98884950Y-136384496D01*
X98884950Y-136935504D01*
X99000721Y-137215000D01*
X98975157Y-137215000D01*
X96599998Y-134839841D01*
X102039446Y-134839841D01*
X102940000Y-135740395D01*
X103840554Y-134839841D01*
X103754148Y-134583357D01*
X103180664Y-134373542D01*
X102570540Y-134399161D01*
X102125852Y-134583357D01*
X102039446Y-134839841D01*
X96599998Y-134839841D01*
X92310157Y-130550000D01*
X93894823Y-128965335D01*
X93960365Y-128921541D01*
X94004159Y-128855999D01*
X94004161Y-128855997D01*
X94061665Y-128769936D01*
X94133866Y-128661880D01*
X94179412Y-128432904D01*
X94179412Y-128432900D01*
X94194790Y-128355589D01*
X94191860Y-128340860D01*
X94292569Y-128190140D01*
X94341852Y-127942375D01*
X94341852Y-127454815D01*
X94769412Y-127454815D01*
X95017177Y-127405532D01*
X95227221Y-127265184D01*
X95367569Y-127055140D01*
X95416852Y-126807375D01*
X95416852Y-126363458D01*
X95492569Y-126250140D01*
X95541852Y-126002375D01*
X95541852Y-125352010D01*
X95615000Y-125425158D01*
X95615000Y-125425158D01*
G37*
X95615000Y-125425158D02*
X95615001Y-125972684D01*
X95599622Y-126050000D01*
X95660546Y-126356291D01*
X95790251Y-126550408D01*
X95790254Y-126550411D01*
X95834048Y-126615953D01*
X95899590Y-126659747D01*
X97140253Y-127900411D01*
X97184047Y-127965953D01*
X97249589Y-128009747D01*
X97249591Y-128009749D01*
X97308779Y-128049297D01*
X97328481Y-128062462D01*
X97392191Y-128157809D01*
X97602235Y-128298157D01*
X97850000Y-128347440D01*
X98550000Y-128347440D01*
X98797765Y-128298157D01*
X98967115Y-128185000D01*
X99915001Y-128185000D01*
X99915000Y-129672688D01*
X99899622Y-129750000D01*
X99915000Y-129827312D01*
X99915000Y-129827315D01*
X99959214Y-130049593D01*
X99960546Y-130056291D01*
X100052560Y-130194000D01*
X100052560Y-130250000D01*
X100101843Y-130497765D01*
X100103336Y-130500000D01*
X100101843Y-130502235D01*
X100052560Y-130750000D01*
X100052560Y-131150000D01*
X100101843Y-131397765D01*
X100242191Y-131607809D01*
X100452235Y-131748157D01*
X100700000Y-131797440D01*
X101155275Y-131797440D01*
X101051843Y-131952235D01*
X101002560Y-132200000D01*
X101002560Y-132364007D01*
X100960259Y-132427316D01*
X100930065Y-132472504D01*
X100888800Y-132679954D01*
X100888800Y-132679959D01*
X100874868Y-132750000D01*
X100888800Y-132820041D01*
X100888800Y-133164378D01*
X100814500Y-133343754D01*
X100814500Y-133656246D01*
X100934085Y-133944950D01*
X101155050Y-134165915D01*
X101443754Y-134285500D01*
X101756246Y-134285500D01*
X101935622Y-134211200D01*
X106014378Y-134211200D01*
X106058800Y-134229600D01*
X106058800Y-134304377D01*
X105990247Y-134469879D01*
X105785330Y-134385000D01*
X105174670Y-134385000D01*
X104610493Y-134618690D01*
X104178690Y-135050493D01*
X104170562Y-135070115D01*
X104020159Y-135019446D01*
X103119605Y-135920000D01*
X103133748Y-135934143D01*
X102954143Y-136113748D01*
X102940000Y-136099605D01*
X102925858Y-136113748D01*
X102746253Y-135934143D01*
X102760395Y-135920000D01*
X101859841Y-135019446D01*
X101603357Y-135105852D01*
X101393542Y-135679336D01*
X101399917Y-135831160D01*
X101054568Y-135485811D01*
X100545504Y-135274950D01*
X99994496Y-135274950D01*
X99485432Y-135485811D01*
X99095811Y-135875432D01*
X98884950Y-136384496D01*
X98884950Y-136935504D01*
X99000721Y-137215000D01*
X98975157Y-137215000D01*
X96599998Y-134839841D01*
X102039446Y-134839841D01*
X102940000Y-135740395D01*
X103840554Y-134839841D01*
X103754148Y-134583357D01*
X103180664Y-134373542D01*
X102570540Y-134399161D01*
X102125852Y-134583357D01*
X102039446Y-134839841D01*
X96599998Y-134839841D01*
X92310157Y-130550000D01*
X93894823Y-128965335D01*
X93960365Y-128921541D01*
X94004159Y-128855999D01*
X94004161Y-128855997D01*
X94061665Y-128769936D01*
X94133866Y-128661880D01*
X94179412Y-128432904D01*
X94179412Y-128432900D01*
X94194790Y-128355589D01*
X94191860Y-128340860D01*
X94292569Y-128190140D01*
X94341852Y-127942375D01*
X94341852Y-127454815D01*
X94769412Y-127454815D01*
X95017177Y-127405532D01*
X95227221Y-127265184D01*
X95367569Y-127055140D01*
X95416852Y-126807375D01*
X95416852Y-126363458D01*
X95492569Y-126250140D01*
X95541852Y-126002375D01*
X95541852Y-125352010D01*
X95615000Y-125425158D01*
G36*
X137086746Y-130350000D02*
X137051843Y-130402235D01*
X137002560Y-130650000D01*
X137002560Y-131550000D01*
X137051843Y-131797765D01*
X137086746Y-131850000D01*
X137051843Y-131902235D01*
X137002560Y-132150000D01*
X137002560Y-132691651D01*
X134405412Y-135288800D01*
X133235000Y-135288800D01*
X133235000Y-133485750D01*
X133076250Y-133327000D01*
X130727000Y-133327000D01*
X130727000Y-133347000D01*
X130473000Y-133347000D01*
X130473000Y-133327000D01*
X128123750Y-133327000D01*
X127965000Y-133485750D01*
X127965000Y-135288800D01*
X123694589Y-135288800D01*
X123540215Y-135134427D01*
X123465915Y-134955050D01*
X123244950Y-134734085D01*
X122956246Y-134614500D01*
X122643754Y-134614500D01*
X122355050Y-134734085D01*
X122134085Y-134955050D01*
X122014500Y-135243754D01*
X122014500Y-135556246D01*
X122122309Y-135816521D01*
X122054826Y-135749038D01*
X122054824Y-135749035D01*
X121997440Y-135691651D01*
X121997440Y-135150000D01*
X121948157Y-134902235D01*
X121913254Y-134850000D01*
X121948157Y-134797765D01*
X121997440Y-134550000D01*
X121997440Y-133650000D01*
X121948157Y-133402235D01*
X121913254Y-133350000D01*
X121948157Y-133297765D01*
X121980332Y-133136008D01*
X122015146Y-133112746D01*
X122054824Y-133053364D01*
X124187437Y-130920751D01*
X124343754Y-130985500D01*
X124656246Y-130985500D01*
X124835622Y-130911200D01*
X128032306Y-130911200D01*
X127965000Y-131073690D01*
X127965000Y-132914250D01*
X128123750Y-133073000D01*
X130473000Y-133073000D01*
X130473000Y-133053000D01*
X130727000Y-133053000D01*
X130727000Y-133073000D01*
X133076250Y-133073000D01*
X133235000Y-132914250D01*
X133235000Y-131073690D01*
X133167694Y-130911200D01*
X135229959Y-130911200D01*
X135300000Y-130925132D01*
X135370041Y-130911200D01*
X135370046Y-130911200D01*
X135577496Y-130869936D01*
X135812746Y-130712746D01*
X135852424Y-130653364D01*
X136194589Y-130311200D01*
X137060820Y-130311200D01*
X137086746Y-130350000D01*
X137086746Y-130350000D01*
G37*
X137086746Y-130350000D02*
X137051843Y-130402235D01*
X137002560Y-130650000D01*
X137002560Y-131550000D01*
X137051843Y-131797765D01*
X137086746Y-131850000D01*
X137051843Y-131902235D01*
X137002560Y-132150000D01*
X137002560Y-132691651D01*
X134405412Y-135288800D01*
X133235000Y-135288800D01*
X133235000Y-133485750D01*
X133076250Y-133327000D01*
X130727000Y-133327000D01*
X130727000Y-133347000D01*
X130473000Y-133347000D01*
X130473000Y-133327000D01*
X128123750Y-133327000D01*
X127965000Y-133485750D01*
X127965000Y-135288800D01*
X123694589Y-135288800D01*
X123540215Y-135134427D01*
X123465915Y-134955050D01*
X123244950Y-134734085D01*
X122956246Y-134614500D01*
X122643754Y-134614500D01*
X122355050Y-134734085D01*
X122134085Y-134955050D01*
X122014500Y-135243754D01*
X122014500Y-135556246D01*
X122122309Y-135816521D01*
X122054826Y-135749038D01*
X122054824Y-135749035D01*
X121997440Y-135691651D01*
X121997440Y-135150000D01*
X121948157Y-134902235D01*
X121913254Y-134850000D01*
X121948157Y-134797765D01*
X121997440Y-134550000D01*
X121997440Y-133650000D01*
X121948157Y-133402235D01*
X121913254Y-133350000D01*
X121948157Y-133297765D01*
X121980332Y-133136008D01*
X122015146Y-133112746D01*
X122054824Y-133053364D01*
X124187437Y-130920751D01*
X124343754Y-130985500D01*
X124656246Y-130985500D01*
X124835622Y-130911200D01*
X128032306Y-130911200D01*
X127965000Y-131073690D01*
X127965000Y-132914250D01*
X128123750Y-133073000D01*
X130473000Y-133073000D01*
X130473000Y-133053000D01*
X130727000Y-133053000D01*
X130727000Y-133073000D01*
X133076250Y-133073000D01*
X133235000Y-132914250D01*
X133235000Y-131073690D01*
X133167694Y-130911200D01*
X135229959Y-130911200D01*
X135300000Y-130925132D01*
X135370041Y-130911200D01*
X135370046Y-130911200D01*
X135577496Y-130869936D01*
X135812746Y-130712746D01*
X135852424Y-130653364D01*
X136194589Y-130311200D01*
X137060820Y-130311200D01*
X137086746Y-130350000D01*
G36*
X138519500Y-133973000D02*
X138539500Y-133973000D01*
X138539500Y-134138800D01*
X138245500Y-134138800D01*
X138245500Y-133973000D01*
X138265500Y-133973000D01*
X138265500Y-133953000D01*
X138519500Y-133953000D01*
X138519500Y-133973000D01*
X138519500Y-133973000D01*
G37*
X138519500Y-133973000D02*
X138539500Y-133973000D01*
X138539500Y-134138800D01*
X138245500Y-134138800D01*
X138245500Y-133973000D01*
X138265500Y-133973000D01*
X138265500Y-133953000D01*
X138519500Y-133953000D01*
X138519500Y-133973000D01*
G36*
X91784714Y-121734048D02*
X91606085Y-121912676D01*
X91509412Y-122146065D01*
X91509412Y-122238625D01*
X91668162Y-122397375D01*
X92317412Y-122397375D01*
X92317412Y-122375375D01*
X92571412Y-122375375D01*
X92571412Y-122397375D01*
X92591412Y-122397375D01*
X92591412Y-122647375D01*
X92571412Y-122647375D01*
X92571412Y-122669375D01*
X92317412Y-122669375D01*
X92317412Y-122647375D01*
X91668162Y-122647375D01*
X91509412Y-122806125D01*
X91509412Y-122898685D01*
X91606085Y-123132074D01*
X91784714Y-123310702D01*
X91805798Y-123319435D01*
X91784412Y-123371066D01*
X91784412Y-123526625D01*
X91943162Y-123685375D01*
X92141378Y-123685375D01*
X92046647Y-123704218D01*
X91836603Y-123844566D01*
X91696255Y-124054610D01*
X91646972Y-124302375D01*
X91646972Y-126002375D01*
X91696255Y-126250140D01*
X91771972Y-126363458D01*
X91771972Y-126807375D01*
X91779289Y-126844163D01*
X91634714Y-126904048D01*
X91456085Y-127082676D01*
X91359412Y-127316065D01*
X91359412Y-127408625D01*
X91518162Y-127567375D01*
X92167412Y-127567375D01*
X92167412Y-127545375D01*
X92421412Y-127545375D01*
X92421412Y-127567375D01*
X92441412Y-127567375D01*
X92441412Y-127817375D01*
X92421412Y-127817375D01*
X92421412Y-127839375D01*
X92167412Y-127839375D01*
X92167412Y-127817375D01*
X91518162Y-127817375D01*
X91359412Y-127976125D01*
X91359412Y-128068685D01*
X91456085Y-128302074D01*
X91634714Y-128480702D01*
X91868103Y-128577375D01*
X92008662Y-128577375D01*
X92167410Y-128418627D01*
X92167410Y-128472432D01*
X90924843Y-129715000D01*
X88925158Y-129715000D01*
X84035026Y-124824868D01*
X84994737Y-124824868D01*
X85105641Y-125102099D01*
X85751593Y-125345323D01*
X86441453Y-125322836D01*
X86974359Y-125102099D01*
X87085262Y-124824870D01*
X87176590Y-124916198D01*
X86917199Y-125175588D01*
X86615000Y-125905159D01*
X86615000Y-126694841D01*
X86917199Y-127424412D01*
X87475588Y-127982801D01*
X88205159Y-128285000D01*
X88994841Y-128285000D01*
X89724412Y-127982801D01*
X90282801Y-127424412D01*
X90585000Y-126694841D01*
X90585000Y-125905159D01*
X90282801Y-125175588D01*
X89724412Y-124617199D01*
X88994841Y-124315000D01*
X88205159Y-124315000D01*
X87475588Y-124617199D01*
X87356198Y-124736590D01*
X87264870Y-124645262D01*
X87542099Y-124534359D01*
X87785323Y-123888407D01*
X87762836Y-123198547D01*
X87542099Y-122665641D01*
X87264868Y-122554737D01*
X86219605Y-123600000D01*
X86233748Y-123614143D01*
X86054143Y-123793748D01*
X86040000Y-123779605D01*
X84994737Y-124824868D01*
X84035026Y-124824868D01*
X83785000Y-124574843D01*
X83785000Y-124037310D01*
X83800378Y-123959999D01*
X83785000Y-123882688D01*
X83785000Y-123882684D01*
X83739454Y-123653708D01*
X83656837Y-123530064D01*
X83609749Y-123459591D01*
X83609747Y-123459589D01*
X83565953Y-123394047D01*
X83500411Y-123350253D01*
X83461751Y-123311593D01*
X84294677Y-123311593D01*
X84317164Y-124001453D01*
X84537901Y-124534359D01*
X84815132Y-124645263D01*
X85860395Y-123600000D01*
X84815132Y-122554737D01*
X84537901Y-122665641D01*
X84294677Y-123311593D01*
X83461751Y-123311593D01*
X82947075Y-122796918D01*
X83014092Y-122460000D01*
X82997211Y-122375132D01*
X84994737Y-122375132D01*
X86040000Y-123420395D01*
X87085263Y-122375132D01*
X86974359Y-122097901D01*
X86328407Y-121854677D01*
X85638547Y-121877164D01*
X85105641Y-122097901D01*
X84994737Y-122375132D01*
X82997211Y-122375132D01*
X82898839Y-121880582D01*
X82784860Y-121710000D01*
X91842771Y-121710000D01*
X91784714Y-121734048D01*
X91784714Y-121734048D01*
G37*
X91784714Y-121734048D02*
X91606085Y-121912676D01*
X91509412Y-122146065D01*
X91509412Y-122238625D01*
X91668162Y-122397375D01*
X92317412Y-122397375D01*
X92317412Y-122375375D01*
X92571412Y-122375375D01*
X92571412Y-122397375D01*
X92591412Y-122397375D01*
X92591412Y-122647375D01*
X92571412Y-122647375D01*
X92571412Y-122669375D01*
X92317412Y-122669375D01*
X92317412Y-122647375D01*
X91668162Y-122647375D01*
X91509412Y-122806125D01*
X91509412Y-122898685D01*
X91606085Y-123132074D01*
X91784714Y-123310702D01*
X91805798Y-123319435D01*
X91784412Y-123371066D01*
X91784412Y-123526625D01*
X91943162Y-123685375D01*
X92141378Y-123685375D01*
X92046647Y-123704218D01*
X91836603Y-123844566D01*
X91696255Y-124054610D01*
X91646972Y-124302375D01*
X91646972Y-126002375D01*
X91696255Y-126250140D01*
X91771972Y-126363458D01*
X91771972Y-126807375D01*
X91779289Y-126844163D01*
X91634714Y-126904048D01*
X91456085Y-127082676D01*
X91359412Y-127316065D01*
X91359412Y-127408625D01*
X91518162Y-127567375D01*
X92167412Y-127567375D01*
X92167412Y-127545375D01*
X92421412Y-127545375D01*
X92421412Y-127567375D01*
X92441412Y-127567375D01*
X92441412Y-127817375D01*
X92421412Y-127817375D01*
X92421412Y-127839375D01*
X92167412Y-127839375D01*
X92167412Y-127817375D01*
X91518162Y-127817375D01*
X91359412Y-127976125D01*
X91359412Y-128068685D01*
X91456085Y-128302074D01*
X91634714Y-128480702D01*
X91868103Y-128577375D01*
X92008662Y-128577375D01*
X92167410Y-128418627D01*
X92167410Y-128472432D01*
X90924843Y-129715000D01*
X88925158Y-129715000D01*
X84035026Y-124824868D01*
X84994737Y-124824868D01*
X85105641Y-125102099D01*
X85751593Y-125345323D01*
X86441453Y-125322836D01*
X86974359Y-125102099D01*
X87085262Y-124824870D01*
X87176590Y-124916198D01*
X86917199Y-125175588D01*
X86615000Y-125905159D01*
X86615000Y-126694841D01*
X86917199Y-127424412D01*
X87475588Y-127982801D01*
X88205159Y-128285000D01*
X88994841Y-128285000D01*
X89724412Y-127982801D01*
X90282801Y-127424412D01*
X90585000Y-126694841D01*
X90585000Y-125905159D01*
X90282801Y-125175588D01*
X89724412Y-124617199D01*
X88994841Y-124315000D01*
X88205159Y-124315000D01*
X87475588Y-124617199D01*
X87356198Y-124736590D01*
X87264870Y-124645262D01*
X87542099Y-124534359D01*
X87785323Y-123888407D01*
X87762836Y-123198547D01*
X87542099Y-122665641D01*
X87264868Y-122554737D01*
X86219605Y-123600000D01*
X86233748Y-123614143D01*
X86054143Y-123793748D01*
X86040000Y-123779605D01*
X84994737Y-124824868D01*
X84035026Y-124824868D01*
X83785000Y-124574843D01*
X83785000Y-124037310D01*
X83800378Y-123959999D01*
X83785000Y-123882688D01*
X83785000Y-123882684D01*
X83739454Y-123653708D01*
X83656837Y-123530064D01*
X83609749Y-123459591D01*
X83609747Y-123459589D01*
X83565953Y-123394047D01*
X83500411Y-123350253D01*
X83461751Y-123311593D01*
X84294677Y-123311593D01*
X84317164Y-124001453D01*
X84537901Y-124534359D01*
X84815132Y-124645263D01*
X85860395Y-123600000D01*
X84815132Y-122554737D01*
X84537901Y-122665641D01*
X84294677Y-123311593D01*
X83461751Y-123311593D01*
X82947075Y-122796918D01*
X83014092Y-122460000D01*
X82997211Y-122375132D01*
X84994737Y-122375132D01*
X86040000Y-123420395D01*
X87085263Y-122375132D01*
X86974359Y-122097901D01*
X86328407Y-121854677D01*
X85638547Y-121877164D01*
X85105641Y-122097901D01*
X84994737Y-122375132D01*
X82997211Y-122375132D01*
X82898839Y-121880582D01*
X82784860Y-121710000D01*
X91842771Y-121710000D01*
X91784714Y-121734048D01*
G36*
X131111673Y-121790302D02*
X131015000Y-122023691D01*
X131015000Y-122714250D01*
X131173750Y-122873000D01*
X132373000Y-122873000D01*
X132373000Y-122853000D01*
X132627000Y-122853000D01*
X132627000Y-122873000D01*
X132647000Y-122873000D01*
X132647000Y-123127000D01*
X132627000Y-123127000D01*
X132627000Y-124326250D01*
X132785750Y-124485000D01*
X133476310Y-124485000D01*
X133709699Y-124388327D01*
X133888327Y-124209698D01*
X133954904Y-124048967D01*
X133969375Y-124070625D01*
X134460582Y-124398839D01*
X134893744Y-124485000D01*
X135186256Y-124485000D01*
X135376918Y-124447075D01*
X136573585Y-125643743D01*
X136574085Y-125644950D01*
X136795050Y-125865915D01*
X136870294Y-125897082D01*
X136933708Y-125939454D01*
X137008509Y-125954333D01*
X137038571Y-125966785D01*
X137015000Y-126023690D01*
X137015000Y-126314250D01*
X137173750Y-126473000D01*
X138265500Y-126473000D01*
X138265500Y-125673750D01*
X138106750Y-125515000D01*
X137973635Y-125515000D01*
X137979454Y-125506291D01*
X137994332Y-125431492D01*
X138025500Y-125356246D01*
X138025500Y-125274798D01*
X138040378Y-125200000D01*
X138025500Y-125125202D01*
X138025500Y-125043754D01*
X137994333Y-124968509D01*
X137979454Y-124893708D01*
X137937082Y-124830294D01*
X137905915Y-124755050D01*
X137684950Y-124534085D01*
X137683743Y-124533585D01*
X137635158Y-124485000D01*
X137726256Y-124485000D01*
X138159418Y-124398839D01*
X138650625Y-124070625D01*
X138978839Y-123579418D01*
X139094092Y-123000000D01*
X138978839Y-122420582D01*
X138650625Y-121929375D01*
X138322307Y-121710000D01*
X139290001Y-121710000D01*
X139290001Y-125526885D01*
X139261309Y-125515000D01*
X138678250Y-125515000D01*
X138519500Y-125673750D01*
X138519500Y-126473000D01*
X138539500Y-126473000D01*
X138539500Y-126727000D01*
X138519500Y-126727000D01*
X138519500Y-126747000D01*
X138265500Y-126747000D01*
X138265500Y-126727000D01*
X137173750Y-126727000D01*
X137015000Y-126885750D01*
X137015000Y-127176310D01*
X137086869Y-127349816D01*
X137060820Y-127388800D01*
X127235622Y-127388800D01*
X127056246Y-127314500D01*
X126743754Y-127314500D01*
X126461200Y-127431538D01*
X126461200Y-125480430D01*
X126497765Y-125473157D01*
X126707809Y-125332809D01*
X126848157Y-125122765D01*
X126897440Y-124875000D01*
X126897440Y-123886507D01*
X126990251Y-124025408D01*
X126990254Y-124025411D01*
X127034048Y-124090953D01*
X127099590Y-124134747D01*
X127840251Y-124875408D01*
X127884047Y-124940953D01*
X128143708Y-125114454D01*
X128150457Y-125115796D01*
X128151843Y-125122765D01*
X128292191Y-125332809D01*
X128502235Y-125473157D01*
X128750000Y-125522440D01*
X129750000Y-125522440D01*
X129997765Y-125473157D01*
X130172885Y-125356145D01*
X130243754Y-125385500D01*
X130325201Y-125385500D01*
X130399999Y-125400378D01*
X130474797Y-125385500D01*
X130556246Y-125385500D01*
X130631492Y-125354332D01*
X130706291Y-125339454D01*
X130769703Y-125297083D01*
X130844950Y-125265915D01*
X130902542Y-125208323D01*
X130965953Y-125165953D01*
X131008323Y-125102542D01*
X131065915Y-125044950D01*
X131097083Y-124969703D01*
X131139454Y-124906291D01*
X131154332Y-124831492D01*
X131185500Y-124756246D01*
X131185500Y-124674797D01*
X131200378Y-124599999D01*
X131185500Y-124525201D01*
X131185500Y-124443754D01*
X131154332Y-124368509D01*
X131139454Y-124293709D01*
X131097083Y-124230297D01*
X131065915Y-124155050D01*
X130844950Y-123934085D01*
X130843741Y-123933584D01*
X130784749Y-123874592D01*
X130740953Y-123809047D01*
X130481292Y-123635546D01*
X130334154Y-123606279D01*
X130263141Y-123500000D01*
X130348157Y-123372765D01*
X130365465Y-123285750D01*
X131015000Y-123285750D01*
X131015000Y-123976309D01*
X131111673Y-124209698D01*
X131290301Y-124388327D01*
X131523690Y-124485000D01*
X132214250Y-124485000D01*
X132373000Y-124326250D01*
X132373000Y-123127000D01*
X131173750Y-123127000D01*
X131015000Y-123285750D01*
X130365465Y-123285750D01*
X130397440Y-123125000D01*
X130397440Y-122125000D01*
X130348157Y-121877235D01*
X130236413Y-121710000D01*
X131191975Y-121710000D01*
X131111673Y-121790302D01*
X131111673Y-121790302D01*
G37*
X131111673Y-121790302D02*
X131015000Y-122023691D01*
X131015000Y-122714250D01*
X131173750Y-122873000D01*
X132373000Y-122873000D01*
X132373000Y-122853000D01*
X132627000Y-122853000D01*
X132627000Y-122873000D01*
X132647000Y-122873000D01*
X132647000Y-123127000D01*
X132627000Y-123127000D01*
X132627000Y-124326250D01*
X132785750Y-124485000D01*
X133476310Y-124485000D01*
X133709699Y-124388327D01*
X133888327Y-124209698D01*
X133954904Y-124048967D01*
X133969375Y-124070625D01*
X134460582Y-124398839D01*
X134893744Y-124485000D01*
X135186256Y-124485000D01*
X135376918Y-124447075D01*
X136573585Y-125643743D01*
X136574085Y-125644950D01*
X136795050Y-125865915D01*
X136870294Y-125897082D01*
X136933708Y-125939454D01*
X137008509Y-125954333D01*
X137038571Y-125966785D01*
X137015000Y-126023690D01*
X137015000Y-126314250D01*
X137173750Y-126473000D01*
X138265500Y-126473000D01*
X138265500Y-125673750D01*
X138106750Y-125515000D01*
X137973635Y-125515000D01*
X137979454Y-125506291D01*
X137994332Y-125431492D01*
X138025500Y-125356246D01*
X138025500Y-125274798D01*
X138040378Y-125200000D01*
X138025500Y-125125202D01*
X138025500Y-125043754D01*
X137994333Y-124968509D01*
X137979454Y-124893708D01*
X137937082Y-124830294D01*
X137905915Y-124755050D01*
X137684950Y-124534085D01*
X137683743Y-124533585D01*
X137635158Y-124485000D01*
X137726256Y-124485000D01*
X138159418Y-124398839D01*
X138650625Y-124070625D01*
X138978839Y-123579418D01*
X139094092Y-123000000D01*
X138978839Y-122420582D01*
X138650625Y-121929375D01*
X138322307Y-121710000D01*
X139290001Y-121710000D01*
X139290001Y-125526885D01*
X139261309Y-125515000D01*
X138678250Y-125515000D01*
X138519500Y-125673750D01*
X138519500Y-126473000D01*
X138539500Y-126473000D01*
X138539500Y-126727000D01*
X138519500Y-126727000D01*
X138519500Y-126747000D01*
X138265500Y-126747000D01*
X138265500Y-126727000D01*
X137173750Y-126727000D01*
X137015000Y-126885750D01*
X137015000Y-127176310D01*
X137086869Y-127349816D01*
X137060820Y-127388800D01*
X127235622Y-127388800D01*
X127056246Y-127314500D01*
X126743754Y-127314500D01*
X126461200Y-127431538D01*
X126461200Y-125480430D01*
X126497765Y-125473157D01*
X126707809Y-125332809D01*
X126848157Y-125122765D01*
X126897440Y-124875000D01*
X126897440Y-123886507D01*
X126990251Y-124025408D01*
X126990254Y-124025411D01*
X127034048Y-124090953D01*
X127099590Y-124134747D01*
X127840251Y-124875408D01*
X127884047Y-124940953D01*
X128143708Y-125114454D01*
X128150457Y-125115796D01*
X128151843Y-125122765D01*
X128292191Y-125332809D01*
X128502235Y-125473157D01*
X128750000Y-125522440D01*
X129750000Y-125522440D01*
X129997765Y-125473157D01*
X130172885Y-125356145D01*
X130243754Y-125385500D01*
X130325201Y-125385500D01*
X130399999Y-125400378D01*
X130474797Y-125385500D01*
X130556246Y-125385500D01*
X130631492Y-125354332D01*
X130706291Y-125339454D01*
X130769703Y-125297083D01*
X130844950Y-125265915D01*
X130902542Y-125208323D01*
X130965953Y-125165953D01*
X131008323Y-125102542D01*
X131065915Y-125044950D01*
X131097083Y-124969703D01*
X131139454Y-124906291D01*
X131154332Y-124831492D01*
X131185500Y-124756246D01*
X131185500Y-124674797D01*
X131200378Y-124599999D01*
X131185500Y-124525201D01*
X131185500Y-124443754D01*
X131154332Y-124368509D01*
X131139454Y-124293709D01*
X131097083Y-124230297D01*
X131065915Y-124155050D01*
X130844950Y-123934085D01*
X130843741Y-123933584D01*
X130784749Y-123874592D01*
X130740953Y-123809047D01*
X130481292Y-123635546D01*
X130334154Y-123606279D01*
X130263141Y-123500000D01*
X130348157Y-123372765D01*
X130365465Y-123285750D01*
X131015000Y-123285750D01*
X131015000Y-123976309D01*
X131111673Y-124209698D01*
X131290301Y-124388327D01*
X131523690Y-124485000D01*
X132214250Y-124485000D01*
X132373000Y-124326250D01*
X132373000Y-123127000D01*
X131173750Y-123127000D01*
X131015000Y-123285750D01*
X130365465Y-123285750D01*
X130397440Y-123125000D01*
X130397440Y-122125000D01*
X130348157Y-121877235D01*
X130236413Y-121710000D01*
X131191975Y-121710000D01*
X131111673Y-121790302D01*
G36*
X122014500Y-121756246D02*
X122045667Y-121831490D01*
X122060546Y-121906292D01*
X122102918Y-121969705D01*
X122134085Y-122044950D01*
X122191677Y-122102542D01*
X122234047Y-122165953D01*
X122297458Y-122208323D01*
X122355050Y-122265915D01*
X122430295Y-122297082D01*
X122493708Y-122339454D01*
X122568510Y-122354333D01*
X122643754Y-122385500D01*
X122956246Y-122385500D01*
X122957453Y-122385000D01*
X124660750Y-122385000D01*
X124773750Y-122498000D01*
X125623000Y-122498000D01*
X125623000Y-122478000D01*
X125877000Y-122478000D01*
X125877000Y-122498000D01*
X125897000Y-122498000D01*
X125897000Y-122752000D01*
X125877000Y-122752000D01*
X125877000Y-122772000D01*
X125623000Y-122772000D01*
X125623000Y-122752000D01*
X124773750Y-122752000D01*
X124615000Y-122910750D01*
X124615000Y-123251310D01*
X124711673Y-123484699D01*
X124732900Y-123505926D01*
X124651843Y-123627235D01*
X124602560Y-123875000D01*
X124602560Y-124875000D01*
X124651843Y-125122765D01*
X124792191Y-125332809D01*
X125002235Y-125473157D01*
X125038801Y-125480430D01*
X125038800Y-126933012D01*
X123262424Y-125156636D01*
X123222746Y-125097254D01*
X122987496Y-124940064D01*
X122780046Y-124898800D01*
X122780041Y-124898800D01*
X122710000Y-124884868D01*
X122639959Y-124898800D01*
X118540042Y-124898800D01*
X118470000Y-124884868D01*
X118399958Y-124898800D01*
X118399954Y-124898800D01*
X118192504Y-124940064D01*
X117957254Y-125097254D01*
X117917576Y-125156636D01*
X117864013Y-125210199D01*
X117611123Y-125210199D01*
X117685263Y-125024868D01*
X116640000Y-123979605D01*
X115594737Y-125024868D01*
X115668877Y-125210199D01*
X115015988Y-125210199D01*
X113552424Y-123746636D01*
X113512746Y-123687254D01*
X113277496Y-123530064D01*
X113184636Y-123511593D01*
X114894677Y-123511593D01*
X114917164Y-124201453D01*
X115137901Y-124734359D01*
X115415132Y-124845263D01*
X116460395Y-123800000D01*
X116819605Y-123800000D01*
X117864868Y-124845263D01*
X118142099Y-124734359D01*
X118385323Y-124088407D01*
X118362836Y-123398547D01*
X118142099Y-122865641D01*
X117864868Y-122754737D01*
X116819605Y-123800000D01*
X116460395Y-123800000D01*
X115415132Y-122754737D01*
X115137901Y-122865641D01*
X114894677Y-123511593D01*
X113184636Y-123511593D01*
X113070046Y-123488800D01*
X113070041Y-123488800D01*
X113000000Y-123474868D01*
X112929959Y-123488800D01*
X107485041Y-123488800D01*
X107414999Y-123474868D01*
X107344957Y-123488800D01*
X107344954Y-123488800D01*
X107137504Y-123530064D01*
X107137503Y-123530065D01*
X107137502Y-123530065D01*
X106961635Y-123647576D01*
X106961633Y-123647578D01*
X106902254Y-123687254D01*
X106862578Y-123746633D01*
X106136652Y-124472560D01*
X106027500Y-124472560D01*
X105723290Y-124533071D01*
X105465393Y-124705393D01*
X105457716Y-124716882D01*
X105407809Y-124642191D01*
X105197765Y-124501843D01*
X104950000Y-124452560D01*
X104250000Y-124452560D01*
X104002235Y-124501843D01*
X103948144Y-124537986D01*
X102909749Y-123499592D01*
X102865953Y-123434047D01*
X102606292Y-123260546D01*
X102377316Y-123215000D01*
X102377312Y-123215000D01*
X102300000Y-123199622D01*
X102222688Y-123215000D01*
X97577312Y-123215000D01*
X97500000Y-123199622D01*
X97422688Y-123215000D01*
X97422684Y-123215000D01*
X97240141Y-123251310D01*
X97193708Y-123260546D01*
X96999591Y-123390251D01*
X96999589Y-123390253D01*
X96934047Y-123434047D01*
X96890253Y-123499589D01*
X96400000Y-123989843D01*
X96209749Y-123799592D01*
X96165953Y-123734047D01*
X95970930Y-123603736D01*
X95679161Y-123311967D01*
X95635365Y-123246422D01*
X95375704Y-123072921D01*
X95230165Y-123043972D01*
X95227221Y-123039566D01*
X95017177Y-122899218D01*
X94769412Y-122849935D01*
X94476425Y-122849935D01*
X94491852Y-122772375D01*
X94491852Y-122575132D01*
X115594737Y-122575132D01*
X116640000Y-123620395D01*
X117685263Y-122575132D01*
X117574359Y-122297901D01*
X116928407Y-122054677D01*
X116238547Y-122077164D01*
X115705641Y-122297901D01*
X115594737Y-122575132D01*
X94491852Y-122575132D01*
X94491852Y-122272375D01*
X94442569Y-122024610D01*
X94302221Y-121814566D01*
X94145728Y-121710000D01*
X122014500Y-121710000D01*
X122014500Y-121756246D01*
X122014500Y-121756246D01*
G37*
X122014500Y-121756246D02*
X122045667Y-121831490D01*
X122060546Y-121906292D01*
X122102918Y-121969705D01*
X122134085Y-122044950D01*
X122191677Y-122102542D01*
X122234047Y-122165953D01*
X122297458Y-122208323D01*
X122355050Y-122265915D01*
X122430295Y-122297082D01*
X122493708Y-122339454D01*
X122568510Y-122354333D01*
X122643754Y-122385500D01*
X122956246Y-122385500D01*
X122957453Y-122385000D01*
X124660750Y-122385000D01*
X124773750Y-122498000D01*
X125623000Y-122498000D01*
X125623000Y-122478000D01*
X125877000Y-122478000D01*
X125877000Y-122498000D01*
X125897000Y-122498000D01*
X125897000Y-122752000D01*
X125877000Y-122752000D01*
X125877000Y-122772000D01*
X125623000Y-122772000D01*
X125623000Y-122752000D01*
X124773750Y-122752000D01*
X124615000Y-122910750D01*
X124615000Y-123251310D01*
X124711673Y-123484699D01*
X124732900Y-123505926D01*
X124651843Y-123627235D01*
X124602560Y-123875000D01*
X124602560Y-124875000D01*
X124651843Y-125122765D01*
X124792191Y-125332809D01*
X125002235Y-125473157D01*
X125038801Y-125480430D01*
X125038800Y-126933012D01*
X123262424Y-125156636D01*
X123222746Y-125097254D01*
X122987496Y-124940064D01*
X122780046Y-124898800D01*
X122780041Y-124898800D01*
X122710000Y-124884868D01*
X122639959Y-124898800D01*
X118540042Y-124898800D01*
X118470000Y-124884868D01*
X118399958Y-124898800D01*
X118399954Y-124898800D01*
X118192504Y-124940064D01*
X117957254Y-125097254D01*
X117917576Y-125156636D01*
X117864013Y-125210199D01*
X117611123Y-125210199D01*
X117685263Y-125024868D01*
X116640000Y-123979605D01*
X115594737Y-125024868D01*
X115668877Y-125210199D01*
X115015988Y-125210199D01*
X113552424Y-123746636D01*
X113512746Y-123687254D01*
X113277496Y-123530064D01*
X113184636Y-123511593D01*
X114894677Y-123511593D01*
X114917164Y-124201453D01*
X115137901Y-124734359D01*
X115415132Y-124845263D01*
X116460395Y-123800000D01*
X116819605Y-123800000D01*
X117864868Y-124845263D01*
X118142099Y-124734359D01*
X118385323Y-124088407D01*
X118362836Y-123398547D01*
X118142099Y-122865641D01*
X117864868Y-122754737D01*
X116819605Y-123800000D01*
X116460395Y-123800000D01*
X115415132Y-122754737D01*
X115137901Y-122865641D01*
X114894677Y-123511593D01*
X113184636Y-123511593D01*
X113070046Y-123488800D01*
X113070041Y-123488800D01*
X113000000Y-123474868D01*
X112929959Y-123488800D01*
X107485041Y-123488800D01*
X107414999Y-123474868D01*
X107344957Y-123488800D01*
X107344954Y-123488800D01*
X107137504Y-123530064D01*
X107137503Y-123530065D01*
X107137502Y-123530065D01*
X106961635Y-123647576D01*
X106961633Y-123647578D01*
X106902254Y-123687254D01*
X106862578Y-123746633D01*
X106136652Y-124472560D01*
X106027500Y-124472560D01*
X105723290Y-124533071D01*
X105465393Y-124705393D01*
X105457716Y-124716882D01*
X105407809Y-124642191D01*
X105197765Y-124501843D01*
X104950000Y-124452560D01*
X104250000Y-124452560D01*
X104002235Y-124501843D01*
X103948144Y-124537986D01*
X102909749Y-123499592D01*
X102865953Y-123434047D01*
X102606292Y-123260546D01*
X102377316Y-123215000D01*
X102377312Y-123215000D01*
X102300000Y-123199622D01*
X102222688Y-123215000D01*
X97577312Y-123215000D01*
X97500000Y-123199622D01*
X97422688Y-123215000D01*
X97422684Y-123215000D01*
X97240141Y-123251310D01*
X97193708Y-123260546D01*
X96999591Y-123390251D01*
X96999589Y-123390253D01*
X96934047Y-123434047D01*
X96890253Y-123499589D01*
X96400000Y-123989843D01*
X96209749Y-123799592D01*
X96165953Y-123734047D01*
X95970930Y-123603736D01*
X95679161Y-123311967D01*
X95635365Y-123246422D01*
X95375704Y-123072921D01*
X95230165Y-123043972D01*
X95227221Y-123039566D01*
X95017177Y-122899218D01*
X94769412Y-122849935D01*
X94476425Y-122849935D01*
X94491852Y-122772375D01*
X94491852Y-122575132D01*
X115594737Y-122575132D01*
X116640000Y-123620395D01*
X117685263Y-122575132D01*
X117574359Y-122297901D01*
X116928407Y-122054677D01*
X116238547Y-122077164D01*
X115705641Y-122297901D01*
X115594737Y-122575132D01*
X94491852Y-122575132D01*
X94491852Y-122272375D01*
X94442569Y-122024610D01*
X94302221Y-121814566D01*
X94145728Y-121710000D01*
X122014500Y-121710000D01*
X122014500Y-121756246D01*
G36*
X109717199Y-125175588D02*
X109415000Y-125905159D01*
X109415000Y-126509212D01*
X108852424Y-125946636D01*
X108812746Y-125887254D01*
X108790062Y-125872097D01*
X108774737Y-125814137D01*
X108797440Y-125700000D01*
X108797440Y-125100000D01*
X108759886Y-124911200D01*
X109981587Y-124911200D01*
X109717199Y-125175588D01*
X109717199Y-125175588D01*
G37*
X109717199Y-125175588D02*
X109415000Y-125905159D01*
X109415000Y-126509212D01*
X108852424Y-125946636D01*
X108812746Y-125887254D01*
X108790062Y-125872097D01*
X108774737Y-125814137D01*
X108797440Y-125700000D01*
X108797440Y-125100000D01*
X108759886Y-124911200D01*
X109981587Y-124911200D01*
X109717199Y-125175588D01*
G36*
X102689794Y-125499951D02*
X102523290Y-125533071D01*
X102397440Y-125617162D01*
X102397440Y-125207597D01*
X102689794Y-125499951D01*
X102689794Y-125499951D01*
G37*
X102689794Y-125499951D02*
X102523290Y-125533071D01*
X102397440Y-125617162D01*
X102397440Y-125207597D01*
X102689794Y-125499951D01*
G36*
X126815001Y-123447684D02*
X126799622Y-123525000D01*
X126808005Y-123567143D01*
X126767100Y-123505926D01*
X126788327Y-123484699D01*
X126815001Y-123420303D01*
X126815001Y-123447684D01*
X126815001Y-123447684D01*
G37*
X126815001Y-123447684D02*
X126799622Y-123525000D01*
X126808005Y-123567143D01*
X126767100Y-123505926D01*
X126788327Y-123484699D01*
X126815001Y-123420303D01*
X126815001Y-123447684D01*
G36*
X126815000Y-122840750D02*
X126726252Y-122752002D01*
X126815000Y-122752002D01*
X126815000Y-122840750D01*
X126815000Y-122840750D01*
G37*
X126815000Y-122840750D02*
X126726252Y-122752002D01*
X126815000Y-122752002D01*
X126815000Y-122840750D01*
G36*
X133969375Y-121929375D02*
X133954904Y-121951033D01*
X133888327Y-121790302D01*
X133808025Y-121710000D01*
X134297693Y-121710000D01*
X133969375Y-121929375D01*
X133969375Y-121929375D01*
G37*
X133969375Y-121929375D02*
X133954904Y-121951033D01*
X133888327Y-121790302D01*
X133808025Y-121710000D01*
X134297693Y-121710000D01*
X133969375Y-121929375D01*
G36*
X92317410Y-121796123D02*
X92231287Y-121710000D01*
X92317410Y-121710000D01*
X92317410Y-121796123D01*
X92317410Y-121796123D01*
G37*
X92317410Y-121796123D02*
X92231287Y-121710000D01*
X92317410Y-121710000D01*
X92317410Y-121796123D01*
G36*
X92571414Y-121796123D02*
X92571414Y-121710000D01*
X92657537Y-121710000D01*
X92571414Y-121796123D01*
X92571414Y-121796123D01*
G37*
X92571414Y-121796123D02*
X92571414Y-121710000D01*
X92657537Y-121710000D01*
X92571414Y-121796123D01*
G04 #@! TD*
M02*
