G04 #@! TF.GenerationSoftware,KiCad,Pcbnew,5.0.2-bee76a0~70~ubuntu18.04.1*
G04 #@! TF.CreationDate,2019-02-02T17:17:24+01:00*
G04 #@! TF.ProjectId,roboy_sno,726f626f-795f-4736-9e6f-2e6b69636164,rev?*
G04 #@! TF.SameCoordinates,Original*
G04 #@! TF.FileFunction,Soldermask,Bot*
G04 #@! TF.FilePolarity,Negative*
%FSLAX46Y46*%
G04 Gerber Fmt 4.6, Leading zero omitted, Abs format (unit mm)*
G04 Created by KiCad (PCBNEW 5.0.2-bee76a0~70~ubuntu18.04.1) date Sa 02 Feb 2019 17:17:24 CET*
%MOMM*%
%LPD*%
G01*
G04 APERTURE LIST*
%ADD10C,0.100000*%
G04 APERTURE END LIST*
D10*
G36*
X100547117Y-135746459D02*
X100720018Y-135818077D01*
X100875625Y-135922050D01*
X101007950Y-136054375D01*
X101111923Y-136209982D01*
X101183541Y-136382883D01*
X101220050Y-136566427D01*
X101220050Y-136753573D01*
X101183541Y-136937117D01*
X101111923Y-137110018D01*
X101074815Y-137165554D01*
X101063264Y-137187165D01*
X101056151Y-137210614D01*
X101053749Y-137235000D01*
X101056151Y-137259386D01*
X101063264Y-137282836D01*
X101074815Y-137304446D01*
X101090361Y-137323388D01*
X101109303Y-137338934D01*
X101130914Y-137350485D01*
X101154363Y-137357598D01*
X101178749Y-137360000D01*
X102770000Y-137360000D01*
X102770000Y-139560000D01*
X100570000Y-139560000D01*
X100570000Y-137721302D01*
X100567598Y-137696916D01*
X100560485Y-137673467D01*
X100548934Y-137651856D01*
X100533388Y-137632914D01*
X100514446Y-137617368D01*
X100492835Y-137605817D01*
X100469386Y-137598704D01*
X100445000Y-137596302D01*
X100420614Y-137598704D01*
X100363573Y-137610050D01*
X100176427Y-137610050D01*
X99992883Y-137573541D01*
X99819982Y-137501923D01*
X99664375Y-137397950D01*
X99532050Y-137265625D01*
X99428077Y-137110018D01*
X99356459Y-136937117D01*
X99319950Y-136753573D01*
X99319950Y-136566427D01*
X99356459Y-136382883D01*
X99428077Y-136209982D01*
X99532050Y-136054375D01*
X99664375Y-135922050D01*
X99819982Y-135818077D01*
X99992883Y-135746459D01*
X100176427Y-135709950D01*
X100363573Y-135709950D01*
X100547117Y-135746459D01*
X100547117Y-135746459D01*
G37*
G36*
X107070857Y-137402272D02*
X107271042Y-137485191D01*
X107271045Y-137485193D01*
X107440926Y-137598704D01*
X107451213Y-137605578D01*
X107604422Y-137758787D01*
X107724809Y-137938958D01*
X107807728Y-138139143D01*
X107850000Y-138351658D01*
X107850000Y-138568342D01*
X107807728Y-138780857D01*
X107724809Y-138981042D01*
X107604422Y-139161213D01*
X107451213Y-139314422D01*
X107271042Y-139434809D01*
X107070857Y-139517728D01*
X106858342Y-139560000D01*
X106641658Y-139560000D01*
X106429143Y-139517728D01*
X106228958Y-139434809D01*
X106048787Y-139314422D01*
X105895578Y-139161213D01*
X105775191Y-138981042D01*
X105692272Y-138780857D01*
X105650000Y-138568342D01*
X105650000Y-138351658D01*
X105692272Y-138139143D01*
X105775191Y-137938958D01*
X105895578Y-137758787D01*
X106048787Y-137605578D01*
X106059075Y-137598704D01*
X106228955Y-137485193D01*
X106228958Y-137485191D01*
X106429143Y-137402272D01*
X106641658Y-137360000D01*
X106858342Y-137360000D01*
X107070857Y-137402272D01*
X107070857Y-137402272D01*
G37*
G36*
X104530857Y-137402272D02*
X104731042Y-137485191D01*
X104731045Y-137485193D01*
X104900926Y-137598704D01*
X104911213Y-137605578D01*
X105064422Y-137758787D01*
X105184809Y-137938958D01*
X105267728Y-138139143D01*
X105310000Y-138351658D01*
X105310000Y-138568342D01*
X105267728Y-138780857D01*
X105184809Y-138981042D01*
X105064422Y-139161213D01*
X104911213Y-139314422D01*
X104731042Y-139434809D01*
X104530857Y-139517728D01*
X104318342Y-139560000D01*
X104101658Y-139560000D01*
X103889143Y-139517728D01*
X103688958Y-139434809D01*
X103508787Y-139314422D01*
X103355578Y-139161213D01*
X103235191Y-138981042D01*
X103152272Y-138780857D01*
X103110000Y-138568342D01*
X103110000Y-138351658D01*
X103152272Y-138139143D01*
X103235191Y-137938958D01*
X103355578Y-137758787D01*
X103508787Y-137605578D01*
X103519075Y-137598704D01*
X103688955Y-137485193D01*
X103688958Y-137485191D01*
X103889143Y-137402272D01*
X104101658Y-137360000D01*
X104318342Y-137360000D01*
X104530857Y-137402272D01*
X104530857Y-137402272D01*
G37*
G36*
X90709196Y-136189958D02*
X90945780Y-136287954D01*
X91158705Y-136430226D01*
X91339774Y-136611295D01*
X91482046Y-136824220D01*
X91580042Y-137060804D01*
X91630000Y-137311960D01*
X91630000Y-137568040D01*
X91580042Y-137819196D01*
X91482046Y-138055780D01*
X91339774Y-138268705D01*
X91158705Y-138449774D01*
X90945780Y-138592046D01*
X90709196Y-138690042D01*
X90458040Y-138740000D01*
X90201960Y-138740000D01*
X89950804Y-138690042D01*
X89714220Y-138592046D01*
X89501295Y-138449774D01*
X89320226Y-138268705D01*
X89177954Y-138055780D01*
X89079958Y-137819196D01*
X89030000Y-137568040D01*
X89030000Y-137311960D01*
X89079958Y-137060804D01*
X89177954Y-136824220D01*
X89320226Y-136611295D01*
X89501295Y-136430226D01*
X89714220Y-136287954D01*
X89950804Y-136189958D01*
X90201960Y-136140000D01*
X90458040Y-136140000D01*
X90709196Y-136189958D01*
X90709196Y-136189958D01*
G37*
G36*
X115999196Y-136059958D02*
X116235780Y-136157954D01*
X116448705Y-136300226D01*
X116629774Y-136481295D01*
X116772046Y-136694220D01*
X116870042Y-136930804D01*
X116920000Y-137181960D01*
X116920000Y-137438040D01*
X116870042Y-137689196D01*
X116772046Y-137925780D01*
X116629774Y-138138705D01*
X116448705Y-138319774D01*
X116235780Y-138462046D01*
X115999196Y-138560042D01*
X115748040Y-138610000D01*
X115491960Y-138610000D01*
X115240804Y-138560042D01*
X115004220Y-138462046D01*
X114791295Y-138319774D01*
X114610226Y-138138705D01*
X114467954Y-137925780D01*
X114369958Y-137689196D01*
X114320000Y-137438040D01*
X114320000Y-137181960D01*
X114369958Y-136930804D01*
X114467954Y-136694220D01*
X114610226Y-136481295D01*
X114791295Y-136300226D01*
X115004220Y-136157954D01*
X115240804Y-136059958D01*
X115491960Y-136010000D01*
X115748040Y-136010000D01*
X115999196Y-136059958D01*
X115999196Y-136059958D01*
G37*
G36*
X103260857Y-134862272D02*
X103461042Y-134945191D01*
X103641213Y-135065578D01*
X103794422Y-135218787D01*
X103914809Y-135398958D01*
X103997728Y-135599143D01*
X104040000Y-135811658D01*
X104040000Y-136028342D01*
X103997728Y-136240857D01*
X103914809Y-136441042D01*
X103914807Y-136441045D01*
X103831029Y-136566428D01*
X103794422Y-136621213D01*
X103641213Y-136774422D01*
X103641210Y-136774424D01*
X103641209Y-136774425D01*
X103461045Y-136894807D01*
X103461042Y-136894809D01*
X103260857Y-136977728D01*
X103048342Y-137020000D01*
X102831658Y-137020000D01*
X102619143Y-136977728D01*
X102418958Y-136894809D01*
X102418955Y-136894807D01*
X102238791Y-136774425D01*
X102238790Y-136774424D01*
X102238787Y-136774422D01*
X102085578Y-136621213D01*
X102048972Y-136566428D01*
X101965193Y-136441045D01*
X101965191Y-136441042D01*
X101882272Y-136240857D01*
X101840000Y-136028342D01*
X101840000Y-135811658D01*
X101882272Y-135599143D01*
X101965191Y-135398958D01*
X102085578Y-135218787D01*
X102238787Y-135065578D01*
X102418958Y-134945191D01*
X102619143Y-134862272D01*
X102831658Y-134820000D01*
X103048342Y-134820000D01*
X103260857Y-134862272D01*
X103260857Y-134862272D01*
G37*
G36*
X105800857Y-134862272D02*
X106001042Y-134945191D01*
X106181213Y-135065578D01*
X106334422Y-135218787D01*
X106454809Y-135398958D01*
X106537728Y-135599143D01*
X106580000Y-135811658D01*
X106580000Y-136028342D01*
X106537728Y-136240857D01*
X106454809Y-136441042D01*
X106454807Y-136441045D01*
X106371029Y-136566428D01*
X106334422Y-136621213D01*
X106181213Y-136774422D01*
X106181210Y-136774424D01*
X106181209Y-136774425D01*
X106001045Y-136894807D01*
X106001042Y-136894809D01*
X105800857Y-136977728D01*
X105588342Y-137020000D01*
X105371658Y-137020000D01*
X105159143Y-136977728D01*
X104958958Y-136894809D01*
X104958955Y-136894807D01*
X104778791Y-136774425D01*
X104778790Y-136774424D01*
X104778787Y-136774422D01*
X104625578Y-136621213D01*
X104588972Y-136566428D01*
X104505193Y-136441045D01*
X104505191Y-136441042D01*
X104422272Y-136240857D01*
X104380000Y-136028342D01*
X104380000Y-135811658D01*
X104422272Y-135599143D01*
X104505191Y-135398958D01*
X104625578Y-135218787D01*
X104778787Y-135065578D01*
X104958958Y-134945191D01*
X105159143Y-134862272D01*
X105371658Y-134820000D01*
X105588342Y-134820000D01*
X105800857Y-134862272D01*
X105800857Y-134862272D01*
G37*
G36*
X108340857Y-134862272D02*
X108541042Y-134945191D01*
X108721213Y-135065578D01*
X108874422Y-135218787D01*
X108994809Y-135398958D01*
X109077728Y-135599143D01*
X109120000Y-135811658D01*
X109120000Y-136028342D01*
X109077728Y-136240857D01*
X108994809Y-136441042D01*
X108994807Y-136441045D01*
X108911029Y-136566428D01*
X108874422Y-136621213D01*
X108721213Y-136774422D01*
X108721210Y-136774424D01*
X108721209Y-136774425D01*
X108541045Y-136894807D01*
X108541042Y-136894809D01*
X108340857Y-136977728D01*
X108128342Y-137020000D01*
X107911658Y-137020000D01*
X107699143Y-136977728D01*
X107498958Y-136894809D01*
X107498955Y-136894807D01*
X107318791Y-136774425D01*
X107318790Y-136774424D01*
X107318787Y-136774422D01*
X107165578Y-136621213D01*
X107128972Y-136566428D01*
X107045193Y-136441045D01*
X107045191Y-136441042D01*
X106962272Y-136240857D01*
X106920000Y-136028342D01*
X106920000Y-135811658D01*
X106962272Y-135599143D01*
X107045191Y-135398958D01*
X107165578Y-135218787D01*
X107318787Y-135065578D01*
X107498958Y-134945191D01*
X107699143Y-134862272D01*
X107911658Y-134820000D01*
X108128342Y-134820000D01*
X108340857Y-134862272D01*
X108340857Y-134862272D01*
G37*
G36*
X112852481Y-133169855D02*
X113052118Y-133209565D01*
X113240173Y-133287460D01*
X113334201Y-133326408D01*
X113588071Y-133496038D01*
X113803962Y-133711929D01*
X113973592Y-133965799D01*
X113973592Y-133965800D01*
X114090435Y-134247882D01*
X114090435Y-134247884D01*
X114150000Y-134547337D01*
X114150000Y-134852663D01*
X114148088Y-134862273D01*
X114090435Y-135152118D01*
X114012540Y-135340173D01*
X113973592Y-135434201D01*
X113803962Y-135688071D01*
X113588071Y-135903962D01*
X113334201Y-136073592D01*
X113240173Y-136112540D01*
X113052118Y-136190435D01*
X112852481Y-136230145D01*
X112752663Y-136250000D01*
X112447337Y-136250000D01*
X112347519Y-136230145D01*
X112147882Y-136190435D01*
X111959827Y-136112540D01*
X111865799Y-136073592D01*
X111611929Y-135903962D01*
X111396038Y-135688071D01*
X111226408Y-135434201D01*
X111187460Y-135340173D01*
X111109565Y-135152118D01*
X111051912Y-134862273D01*
X111050000Y-134852663D01*
X111050000Y-134547337D01*
X111109565Y-134247884D01*
X111109565Y-134247882D01*
X111226408Y-133965800D01*
X111226408Y-133965799D01*
X111396038Y-133711929D01*
X111611929Y-133496038D01*
X111865799Y-133326408D01*
X111959827Y-133287460D01*
X112147882Y-133209565D01*
X112347519Y-133169855D01*
X112447337Y-133150000D01*
X112752663Y-133150000D01*
X112852481Y-133169855D01*
X112852481Y-133169855D01*
G37*
G36*
X87652481Y-133169855D02*
X87852118Y-133209565D01*
X88040173Y-133287460D01*
X88134201Y-133326408D01*
X88388071Y-133496038D01*
X88603962Y-133711929D01*
X88773592Y-133965799D01*
X88773592Y-133965800D01*
X88890435Y-134247882D01*
X88890435Y-134247884D01*
X88950000Y-134547337D01*
X88950000Y-134852663D01*
X88948088Y-134862273D01*
X88890435Y-135152118D01*
X88812540Y-135340173D01*
X88773592Y-135434201D01*
X88603962Y-135688071D01*
X88388071Y-135903962D01*
X88134201Y-136073592D01*
X88040173Y-136112540D01*
X87852118Y-136190435D01*
X87652481Y-136230145D01*
X87552663Y-136250000D01*
X87247337Y-136250000D01*
X87147519Y-136230145D01*
X86947882Y-136190435D01*
X86759827Y-136112540D01*
X86665799Y-136073592D01*
X86411929Y-135903962D01*
X86196038Y-135688071D01*
X86026408Y-135434201D01*
X85987460Y-135340173D01*
X85909565Y-135152118D01*
X85851912Y-134862273D01*
X85850000Y-134852663D01*
X85850000Y-134547337D01*
X85909565Y-134247884D01*
X85909565Y-134247882D01*
X86026408Y-133965800D01*
X86026408Y-133965799D01*
X86196038Y-133711929D01*
X86411929Y-133496038D01*
X86665799Y-133326408D01*
X86759827Y-133287460D01*
X86947882Y-133209565D01*
X87147519Y-133169855D01*
X87247337Y-133150000D01*
X87552663Y-133150000D01*
X87652481Y-133169855D01*
X87652481Y-133169855D01*
G37*
G36*
X139255000Y-134365000D02*
X134505000Y-134365000D01*
X134505000Y-132515000D01*
X139255000Y-132515000D01*
X139255000Y-134365000D01*
X139255000Y-134365000D01*
G37*
G36*
X116813566Y-131216312D02*
X117009203Y-131297347D01*
X117185275Y-131414995D01*
X117335005Y-131564725D01*
X117452653Y-131740797D01*
X117533688Y-131936434D01*
X117575000Y-132144122D01*
X117575000Y-132355878D01*
X117533688Y-132563566D01*
X117452653Y-132759203D01*
X117335005Y-132935275D01*
X117185275Y-133085005D01*
X117009203Y-133202653D01*
X116813566Y-133283688D01*
X116605878Y-133325000D01*
X116394122Y-133325000D01*
X116186434Y-133283688D01*
X115990797Y-133202653D01*
X115814725Y-133085005D01*
X115664995Y-132935275D01*
X115547347Y-132759203D01*
X115466312Y-132563566D01*
X115425000Y-132355878D01*
X115425000Y-132144122D01*
X115466312Y-131936434D01*
X115547347Y-131740797D01*
X115664995Y-131564725D01*
X115814725Y-131414995D01*
X115990797Y-131297347D01*
X116186434Y-131216312D01*
X116394122Y-131175000D01*
X116605878Y-131175000D01*
X116813566Y-131216312D01*
X116813566Y-131216312D01*
G37*
G36*
X117575000Y-129825000D02*
X115425000Y-129825000D01*
X115425000Y-127675000D01*
X117575000Y-127675000D01*
X117575000Y-129825000D01*
X117575000Y-129825000D01*
G37*
G36*
X83813566Y-127716312D02*
X84009203Y-127797347D01*
X84185275Y-127914995D01*
X84335005Y-128064725D01*
X84452653Y-128240797D01*
X84533688Y-128436434D01*
X84575000Y-128644122D01*
X84575000Y-128855878D01*
X84533688Y-129063566D01*
X84452653Y-129259203D01*
X84335005Y-129435275D01*
X84185275Y-129585005D01*
X84009203Y-129702653D01*
X83813566Y-129783688D01*
X83605878Y-129825000D01*
X83394122Y-129825000D01*
X83186434Y-129783688D01*
X82990797Y-129702653D01*
X82814725Y-129585005D01*
X82664995Y-129435275D01*
X82547347Y-129259203D01*
X82466312Y-129063566D01*
X82425000Y-128855878D01*
X82425000Y-128644122D01*
X82466312Y-128436434D01*
X82547347Y-128240797D01*
X82664995Y-128064725D01*
X82814725Y-127914995D01*
X82990797Y-127797347D01*
X83186434Y-127716312D01*
X83394122Y-127675000D01*
X83605878Y-127675000D01*
X83813566Y-127716312D01*
X83813566Y-127716312D01*
G37*
G36*
X133850000Y-129750000D02*
X132950000Y-129750000D01*
X132950000Y-127650000D01*
X133850000Y-127650000D01*
X133850000Y-129750000D01*
X133850000Y-129750000D01*
G37*
G36*
X139255000Y-128465000D02*
X134505000Y-128465000D01*
X134505000Y-126615000D01*
X139255000Y-126615000D01*
X139255000Y-128465000D01*
X139255000Y-128465000D01*
G37*
G36*
X88852481Y-124769855D02*
X89052118Y-124809565D01*
X89240173Y-124887460D01*
X89334201Y-124926408D01*
X89588071Y-125096038D01*
X89803962Y-125311929D01*
X89973592Y-125565799D01*
X89973592Y-125565800D01*
X90090435Y-125847882D01*
X90150000Y-126147338D01*
X90150000Y-126452662D01*
X90090435Y-126752118D01*
X90012540Y-126940173D01*
X89973592Y-127034201D01*
X89803962Y-127288071D01*
X89588071Y-127503962D01*
X89334201Y-127673592D01*
X89240173Y-127712540D01*
X89052118Y-127790435D01*
X88852481Y-127830145D01*
X88752663Y-127850000D01*
X88447337Y-127850000D01*
X88347519Y-127830145D01*
X88147882Y-127790435D01*
X87959827Y-127712540D01*
X87865799Y-127673592D01*
X87611929Y-127503962D01*
X87396038Y-127288071D01*
X87226408Y-127034201D01*
X87187460Y-126940173D01*
X87109565Y-126752118D01*
X87050000Y-126452662D01*
X87050000Y-126147338D01*
X87109565Y-125847882D01*
X87226408Y-125565800D01*
X87226408Y-125565799D01*
X87396038Y-125311929D01*
X87611929Y-125096038D01*
X87865799Y-124926408D01*
X87959827Y-124887460D01*
X88147882Y-124809565D01*
X88347519Y-124769855D01*
X88447337Y-124750000D01*
X88752663Y-124750000D01*
X88852481Y-124769855D01*
X88852481Y-124769855D01*
G37*
G36*
X111652481Y-124769855D02*
X111852118Y-124809565D01*
X112040173Y-124887460D01*
X112134201Y-124926408D01*
X112388071Y-125096038D01*
X112603962Y-125311929D01*
X112773592Y-125565799D01*
X112773592Y-125565800D01*
X112890435Y-125847882D01*
X112950000Y-126147338D01*
X112950000Y-126452662D01*
X112890435Y-126752118D01*
X112812540Y-126940173D01*
X112773592Y-127034201D01*
X112603962Y-127288071D01*
X112388071Y-127503962D01*
X112134201Y-127673592D01*
X112040173Y-127712540D01*
X111852118Y-127790435D01*
X111652481Y-127830145D01*
X111552663Y-127850000D01*
X111247337Y-127850000D01*
X111147519Y-127830145D01*
X110947882Y-127790435D01*
X110759827Y-127712540D01*
X110665799Y-127673592D01*
X110411929Y-127503962D01*
X110196038Y-127288071D01*
X110026408Y-127034201D01*
X109987460Y-126940173D01*
X109909565Y-126752118D01*
X109850000Y-126452662D01*
X109850000Y-126147338D01*
X109909565Y-125847882D01*
X110026408Y-125565800D01*
X110026408Y-125565799D01*
X110196038Y-125311929D01*
X110411929Y-125096038D01*
X110665799Y-124926408D01*
X110759827Y-124887460D01*
X110947882Y-124809565D01*
X111147519Y-124769855D01*
X111247337Y-124750000D01*
X111552663Y-124750000D01*
X111652481Y-124769855D01*
X111652481Y-124769855D01*
G37*
G36*
X136550000Y-126250000D02*
X134450000Y-126250000D01*
X134450000Y-125350000D01*
X136550000Y-125350000D01*
X136550000Y-126250000D01*
X136550000Y-126250000D01*
G37*
G36*
X82550000Y-126050000D02*
X80450000Y-126050000D01*
X80450000Y-123950000D01*
X82550000Y-123950000D01*
X82550000Y-126050000D01*
X82550000Y-126050000D01*
G37*
G36*
X117019196Y-122549958D02*
X117255780Y-122647954D01*
X117468705Y-122790226D01*
X117649774Y-122971295D01*
X117792046Y-123184220D01*
X117890042Y-123420804D01*
X117940000Y-123671960D01*
X117940000Y-123928040D01*
X117890042Y-124179196D01*
X117792046Y-124415780D01*
X117649774Y-124628705D01*
X117468705Y-124809774D01*
X117255780Y-124952046D01*
X117019196Y-125050042D01*
X116768040Y-125100000D01*
X116511960Y-125100000D01*
X116260804Y-125050042D01*
X116024220Y-124952046D01*
X115811295Y-124809774D01*
X115630226Y-124628705D01*
X115487954Y-124415780D01*
X115389958Y-124179196D01*
X115340000Y-123928040D01*
X115340000Y-123671960D01*
X115389958Y-123420804D01*
X115487954Y-123184220D01*
X115630226Y-122971295D01*
X115811295Y-122790226D01*
X116024220Y-122647954D01*
X116260804Y-122549958D01*
X116511960Y-122500000D01*
X116768040Y-122500000D01*
X117019196Y-122549958D01*
X117019196Y-122549958D01*
G37*
G36*
X86419196Y-122349958D02*
X86655780Y-122447954D01*
X86868705Y-122590226D01*
X87049774Y-122771295D01*
X87192046Y-122984220D01*
X87290042Y-123220804D01*
X87340000Y-123471960D01*
X87340000Y-123728040D01*
X87290042Y-123979196D01*
X87192046Y-124215780D01*
X87049774Y-124428705D01*
X86868705Y-124609774D01*
X86655780Y-124752046D01*
X86419196Y-124850042D01*
X86168040Y-124900000D01*
X85911960Y-124900000D01*
X85660804Y-124850042D01*
X85424220Y-124752046D01*
X85211295Y-124609774D01*
X85030226Y-124428705D01*
X84887954Y-124215780D01*
X84789958Y-123979196D01*
X84740000Y-123728040D01*
X84740000Y-123471960D01*
X84789958Y-123220804D01*
X84887954Y-122984220D01*
X85030226Y-122771295D01*
X85211295Y-122590226D01*
X85424220Y-122447954D01*
X85660804Y-122349958D01*
X85911960Y-122300000D01*
X86168040Y-122300000D01*
X86419196Y-122349958D01*
X86419196Y-122349958D01*
G37*
G36*
X133550000Y-124050000D02*
X131450000Y-124050000D01*
X131450000Y-121950000D01*
X133550000Y-121950000D01*
X133550000Y-124050000D01*
X133550000Y-124050000D01*
G37*
G36*
X137708707Y-121957597D02*
X137785836Y-121965193D01*
X137917787Y-122005220D01*
X137983763Y-122025233D01*
X138166172Y-122122733D01*
X138326054Y-122253946D01*
X138457267Y-122413828D01*
X138554767Y-122596237D01*
X138554767Y-122596238D01*
X138614807Y-122794164D01*
X138635080Y-123000000D01*
X138614807Y-123205836D01*
X138574938Y-123337267D01*
X138554767Y-123403763D01*
X138457267Y-123586172D01*
X138326054Y-123746054D01*
X138166172Y-123877267D01*
X137983763Y-123974767D01*
X137917787Y-123994780D01*
X137785836Y-124034807D01*
X137708707Y-124042403D01*
X137631580Y-124050000D01*
X137528420Y-124050000D01*
X137451293Y-124042403D01*
X137374164Y-124034807D01*
X137242213Y-123994780D01*
X137176237Y-123974767D01*
X136993828Y-123877267D01*
X136833946Y-123746054D01*
X136702733Y-123586172D01*
X136605233Y-123403763D01*
X136585062Y-123337267D01*
X136545193Y-123205836D01*
X136524920Y-123000000D01*
X136545193Y-122794164D01*
X136605233Y-122596238D01*
X136605233Y-122596237D01*
X136702733Y-122413828D01*
X136833946Y-122253946D01*
X136993828Y-122122733D01*
X137176237Y-122025233D01*
X137242213Y-122005220D01*
X137374164Y-121965193D01*
X137451293Y-121957597D01*
X137528420Y-121950000D01*
X137631580Y-121950000D01*
X137708707Y-121957597D01*
X137708707Y-121957597D01*
G37*
G36*
X135168707Y-121957597D02*
X135245836Y-121965193D01*
X135377787Y-122005220D01*
X135443763Y-122025233D01*
X135626172Y-122122733D01*
X135786054Y-122253946D01*
X135917267Y-122413828D01*
X136014767Y-122596237D01*
X136014767Y-122596238D01*
X136074807Y-122794164D01*
X136095080Y-123000000D01*
X136074807Y-123205836D01*
X136034938Y-123337267D01*
X136014767Y-123403763D01*
X135917267Y-123586172D01*
X135786054Y-123746054D01*
X135626172Y-123877267D01*
X135443763Y-123974767D01*
X135377787Y-123994780D01*
X135245836Y-124034807D01*
X135168707Y-124042403D01*
X135091580Y-124050000D01*
X134988420Y-124050000D01*
X134911293Y-124042403D01*
X134834164Y-124034807D01*
X134702213Y-123994780D01*
X134636237Y-123974767D01*
X134453828Y-123877267D01*
X134293946Y-123746054D01*
X134162733Y-123586172D01*
X134065233Y-123403763D01*
X134045062Y-123337267D01*
X134005193Y-123205836D01*
X133984920Y-123000000D01*
X134005193Y-122794164D01*
X134065233Y-122596238D01*
X134065233Y-122596237D01*
X134162733Y-122413828D01*
X134293946Y-122253946D01*
X134453828Y-122122733D01*
X134636237Y-122025233D01*
X134702213Y-122005220D01*
X134834164Y-121965193D01*
X134911293Y-121957597D01*
X134988420Y-121950000D01*
X135091580Y-121950000D01*
X135168707Y-121957597D01*
X135168707Y-121957597D01*
G37*
G36*
X81628707Y-121417596D02*
X81705836Y-121425193D01*
X81837787Y-121465220D01*
X81903763Y-121485233D01*
X82086172Y-121582733D01*
X82246054Y-121713946D01*
X82377267Y-121873828D01*
X82474767Y-122056237D01*
X82474767Y-122056238D01*
X82534807Y-122254164D01*
X82555080Y-122460000D01*
X82534807Y-122665836D01*
X82497074Y-122790224D01*
X82474767Y-122863763D01*
X82377267Y-123046172D01*
X82246054Y-123206054D01*
X82086172Y-123337267D01*
X81903763Y-123434767D01*
X81837787Y-123454780D01*
X81705836Y-123494807D01*
X81628707Y-123502403D01*
X81551580Y-123510000D01*
X81448420Y-123510000D01*
X81371293Y-123502403D01*
X81294164Y-123494807D01*
X81162213Y-123454780D01*
X81096237Y-123434767D01*
X80913828Y-123337267D01*
X80753946Y-123206054D01*
X80622733Y-123046172D01*
X80525233Y-122863763D01*
X80502926Y-122790224D01*
X80465193Y-122665836D01*
X80444920Y-122460000D01*
X80465193Y-122254164D01*
X80525233Y-122056238D01*
X80525233Y-122056237D01*
X80622733Y-121873828D01*
X80753946Y-121713946D01*
X80913828Y-121582733D01*
X81096237Y-121485233D01*
X81162213Y-121465220D01*
X81294164Y-121425193D01*
X81371293Y-121417596D01*
X81448420Y-121410000D01*
X81551580Y-121410000D01*
X81628707Y-121417596D01*
X81628707Y-121417596D01*
G37*
M02*
