G04 #@! TF.GenerationSoftware,KiCad,Pcbnew,5.0.2-bee76a0~70~ubuntu18.04.1*
G04 #@! TF.CreationDate,2019-02-02T17:17:24+01:00*
G04 #@! TF.ProjectId,roboy_sno,726f626f-795f-4736-9e6f-2e6b69636164,rev?*
G04 #@! TF.SameCoordinates,Original*
G04 #@! TF.FileFunction,Legend,Bot*
G04 #@! TF.FilePolarity,Positive*
%FSLAX46Y46*%
G04 Gerber Fmt 4.6, Leading zero omitted, Abs format (unit mm)*
G04 Created by KiCad (PCBNEW 5.0.2-bee76a0~70~ubuntu18.04.1) date Sa 02 Feb 2019 17:17:24 CET*
%MOMM*%
%LPD*%
G01*
G04 APERTURE LIST*
%ADD10C,0.300000*%
%ADD11C,0.120000*%
%ADD12C,0.150000*%
G04 APERTURE END LIST*
D10*
X134640000Y-138248571D02*
X134640000Y-136748571D01*
X134140000Y-137820000D01*
X133640000Y-136748571D01*
X133640000Y-138248571D01*
X133068571Y-136748571D02*
X132140000Y-136748571D01*
X132640000Y-137320000D01*
X132425714Y-137320000D01*
X132282857Y-137391428D01*
X132211428Y-137462857D01*
X132140000Y-137605714D01*
X132140000Y-137962857D01*
X132211428Y-138105714D01*
X132282857Y-138177142D01*
X132425714Y-138248571D01*
X132854285Y-138248571D01*
X132997142Y-138177142D01*
X133068571Y-138105714D01*
X131854285Y-138391428D02*
X130711428Y-138391428D01*
X130354285Y-138248571D02*
X130354285Y-137248571D01*
X130354285Y-137534285D02*
X130282857Y-137391428D01*
X130211428Y-137320000D01*
X130068571Y-137248571D01*
X129925714Y-137248571D01*
X128854285Y-138177142D02*
X128997142Y-138248571D01*
X129282857Y-138248571D01*
X129425714Y-138177142D01*
X129497142Y-138034285D01*
X129497142Y-137462857D01*
X129425714Y-137320000D01*
X129282857Y-137248571D01*
X128997142Y-137248571D01*
X128854285Y-137320000D01*
X128782857Y-137462857D01*
X128782857Y-137605714D01*
X129497142Y-137748571D01*
X128282857Y-137248571D02*
X127925714Y-138248571D01*
X127568571Y-137248571D01*
X126211428Y-138248571D02*
X127068571Y-138248571D01*
X126640000Y-138248571D02*
X126640000Y-136748571D01*
X126782857Y-136962857D01*
X126925714Y-137105714D01*
X127068571Y-137177142D01*
X125568571Y-138105714D02*
X125497142Y-138177142D01*
X125568571Y-138248571D01*
X125640000Y-138177142D01*
X125568571Y-138105714D01*
X125568571Y-138248571D01*
X124568571Y-136748571D02*
X124425714Y-136748571D01*
X124282857Y-136820000D01*
X124211428Y-136891428D01*
X124140000Y-137034285D01*
X124068571Y-137320000D01*
X124068571Y-137677142D01*
X124140000Y-137962857D01*
X124211428Y-138105714D01*
X124282857Y-138177142D01*
X124425714Y-138248571D01*
X124568571Y-138248571D01*
X124711428Y-138177142D01*
X124782857Y-138105714D01*
X124854285Y-137962857D01*
X124925714Y-137677142D01*
X124925714Y-137320000D01*
X124854285Y-137034285D01*
X124782857Y-136891428D01*
X124711428Y-136820000D01*
X124568571Y-136748571D01*
D11*
G04 #@! TO.C,RV1*
X117620000Y-125880000D02*
X113035000Y-125880000D01*
X109764000Y-125880000D02*
X90235000Y-125880000D01*
X86964000Y-125880000D02*
X82380000Y-125880000D01*
X117620000Y-135120000D02*
X114235000Y-135120000D01*
X110964000Y-135120000D02*
X89035000Y-135120000D01*
X85764000Y-135120000D02*
X82380000Y-135120000D01*
X117620000Y-125880000D02*
X117620000Y-127575000D01*
X117620000Y-129925000D02*
X117620000Y-131795000D01*
X117620000Y-132706000D02*
X117620000Y-135120000D01*
X82380000Y-125880000D02*
X82380000Y-128294000D01*
X82380000Y-129206000D02*
X82380000Y-135120000D01*
X117675000Y-128750000D02*
X118175000Y-128250000D01*
X118175000Y-128250000D02*
X118175000Y-129250000D01*
X118175000Y-129250000D02*
X117675000Y-128750000D01*
X110000000Y-130500000D02*
X90000000Y-130500000D01*
X110000000Y-129000000D02*
X110000000Y-132000000D01*
X109250000Y-129750000D02*
X110000000Y-130500000D01*
X110000000Y-130500000D02*
X109250000Y-131250000D01*
X90000000Y-129000000D02*
X90000000Y-132000000D01*
X90750000Y-129750000D02*
X90000000Y-130500000D01*
X90000000Y-130500000D02*
X90750000Y-131250000D01*
G04 #@! TO.C,C7*
X133870000Y-128450000D02*
X133870000Y-128950000D01*
X132930000Y-128950000D02*
X132930000Y-128450000D01*
G04 #@! TO.C,C8*
X135250000Y-125330000D02*
X135750000Y-125330000D01*
X135750000Y-126270000D02*
X135250000Y-126270000D01*
D12*
G04 #@! TO.C,U4*
X134255000Y-128165000D02*
X134380000Y-128165000D01*
X134255000Y-132815000D02*
X134480000Y-132815000D01*
X139505000Y-132815000D02*
X139280000Y-132815000D01*
X139505000Y-128165000D02*
X139280000Y-128165000D01*
X134255000Y-128165000D02*
X134255000Y-132815000D01*
X139505000Y-128165000D02*
X139505000Y-132815000D01*
X134380000Y-128165000D02*
X134380000Y-126815000D01*
G04 #@! TO.C,RV1*
X100595238Y-125202380D02*
X100928571Y-124726190D01*
X101166666Y-125202380D02*
X101166666Y-124202380D01*
X100785714Y-124202380D01*
X100690476Y-124250000D01*
X100642857Y-124297619D01*
X100595238Y-124392857D01*
X100595238Y-124535714D01*
X100642857Y-124630952D01*
X100690476Y-124678571D01*
X100785714Y-124726190D01*
X101166666Y-124726190D01*
X100309523Y-124202380D02*
X99976190Y-125202380D01*
X99642857Y-124202380D01*
X98785714Y-125202380D02*
X99357142Y-125202380D01*
X99071428Y-125202380D02*
X99071428Y-124202380D01*
X99166666Y-124345238D01*
X99261904Y-124440476D01*
X99357142Y-124488095D01*
G04 #@! TO.C,C7*
X135027142Y-128533333D02*
X135074761Y-128485714D01*
X135122380Y-128342857D01*
X135122380Y-128247619D01*
X135074761Y-128104761D01*
X134979523Y-128009523D01*
X134884285Y-127961904D01*
X134693809Y-127914285D01*
X134550952Y-127914285D01*
X134360476Y-127961904D01*
X134265238Y-128009523D01*
X134170000Y-128104761D01*
X134122380Y-128247619D01*
X134122380Y-128342857D01*
X134170000Y-128485714D01*
X134217619Y-128533333D01*
X134122380Y-128866666D02*
X134122380Y-129533333D01*
X135122380Y-129104761D01*
G04 #@! TO.C,C8*
X135666666Y-127427142D02*
X135714285Y-127474761D01*
X135857142Y-127522380D01*
X135952380Y-127522380D01*
X136095238Y-127474761D01*
X136190476Y-127379523D01*
X136238095Y-127284285D01*
X136285714Y-127093809D01*
X136285714Y-126950952D01*
X136238095Y-126760476D01*
X136190476Y-126665238D01*
X136095238Y-126570000D01*
X135952380Y-126522380D01*
X135857142Y-126522380D01*
X135714285Y-126570000D01*
X135666666Y-126617619D01*
X135095238Y-126950952D02*
X135190476Y-126903333D01*
X135238095Y-126855714D01*
X135285714Y-126760476D01*
X135285714Y-126712857D01*
X135238095Y-126617619D01*
X135190476Y-126570000D01*
X135095238Y-126522380D01*
X134904761Y-126522380D01*
X134809523Y-126570000D01*
X134761904Y-126617619D01*
X134714285Y-126712857D01*
X134714285Y-126760476D01*
X134761904Y-126855714D01*
X134809523Y-126903333D01*
X134904761Y-126950952D01*
X135095238Y-126950952D01*
X135190476Y-126998571D01*
X135238095Y-127046190D01*
X135285714Y-127141428D01*
X135285714Y-127331904D01*
X135238095Y-127427142D01*
X135190476Y-127474761D01*
X135095238Y-127522380D01*
X134904761Y-127522380D01*
X134809523Y-127474761D01*
X134761904Y-127427142D01*
X134714285Y-127331904D01*
X134714285Y-127141428D01*
X134761904Y-127046190D01*
X134809523Y-126998571D01*
X134904761Y-126950952D01*
G04 #@! TO.C,U4*
X132782380Y-129728095D02*
X133591904Y-129728095D01*
X133687142Y-129775714D01*
X133734761Y-129823333D01*
X133782380Y-129918571D01*
X133782380Y-130109047D01*
X133734761Y-130204285D01*
X133687142Y-130251904D01*
X133591904Y-130299523D01*
X132782380Y-130299523D01*
X133115714Y-131204285D02*
X133782380Y-131204285D01*
X132734761Y-130966190D02*
X133449047Y-130728095D01*
X133449047Y-131347142D01*
G04 #@! TD*
M02*
