G04 #@! TF.GenerationSoftware,KiCad,Pcbnew,5.1.5-52549c5~84~ubuntu18.04.1*
G04 #@! TF.CreationDate,2020-06-25T11:55:21+02:00*
G04 #@! TF.ProjectId,optical_encoder,6f707469-6361-46c5-9f65-6e636f646572,rev?*
G04 #@! TF.SameCoordinates,Original*
G04 #@! TF.FileFunction,Paste,Top*
G04 #@! TF.FilePolarity,Positive*
%FSLAX46Y46*%
G04 Gerber Fmt 4.6, Leading zero omitted, Abs format (unit mm)*
G04 Created by KiCad (PCBNEW 5.1.5-52549c5~84~ubuntu18.04.1) date 2020-06-25 11:55:21*
%MOMM*%
%LPD*%
G04 APERTURE LIST*
%ADD10R,0.300000X2.400000*%
%ADD11R,10.000000X0.100000*%
%ADD12R,9.000000X0.100000*%
%ADD13R,0.100000X4.200000*%
%ADD14R,1.500000X2.400000*%
%ADD15R,1.000000X2.400000*%
G04 APERTURE END LIST*
D10*
X172430000Y-116790000D03*
X173030000Y-116790000D03*
X173630000Y-116790000D03*
X174230000Y-116790000D03*
X174830000Y-116790000D03*
X176630000Y-116790000D03*
X175430000Y-116790000D03*
X176030000Y-116790000D03*
X177230000Y-116790000D03*
X179030000Y-116790000D03*
X177830000Y-116790000D03*
X181430000Y-116790000D03*
X180230000Y-116790000D03*
X180830000Y-116790000D03*
X179630000Y-116790000D03*
X178430000Y-116790000D03*
X182030000Y-116790000D03*
X183830000Y-116790000D03*
X182630000Y-116790000D03*
X189830000Y-116790000D03*
X186230000Y-116790000D03*
X185030000Y-116790000D03*
X185630000Y-116790000D03*
X187430000Y-116790000D03*
X189230000Y-116790000D03*
X190430000Y-116790000D03*
X184430000Y-116790000D03*
X188630000Y-116790000D03*
X183230000Y-116790000D03*
X191030000Y-116790000D03*
X186830000Y-116790000D03*
X188030000Y-116790000D03*
X196430000Y-116790000D03*
X195230000Y-116790000D03*
X192830000Y-116790000D03*
X195830000Y-116790000D03*
X194630000Y-116790000D03*
X191630000Y-116790000D03*
X192230000Y-116790000D03*
X197030000Y-116790000D03*
X193430000Y-116790000D03*
X194030000Y-116790000D03*
D11*
X174230000Y-114690000D03*
X184830000Y-114690000D03*
D12*
X194930000Y-114690000D03*
D11*
X184830000Y-118890000D03*
X174230000Y-118890000D03*
D12*
X194930000Y-118890000D03*
D13*
X199430000Y-116790000D03*
X169280000Y-116790000D03*
D14*
X170630000Y-116790000D03*
D15*
X198330000Y-116790000D03*
D10*
X140430000Y-116790000D03*
X141030000Y-116790000D03*
X141630000Y-116790000D03*
X142230000Y-116790000D03*
X142830000Y-116790000D03*
X144630000Y-116790000D03*
X143430000Y-116790000D03*
X144030000Y-116790000D03*
X145230000Y-116790000D03*
X147030000Y-116790000D03*
X145830000Y-116790000D03*
X149430000Y-116790000D03*
X148230000Y-116790000D03*
X148830000Y-116790000D03*
X147630000Y-116790000D03*
X146430000Y-116790000D03*
X150030000Y-116790000D03*
X151830000Y-116790000D03*
X150630000Y-116790000D03*
X157830000Y-116790000D03*
X154230000Y-116790000D03*
X153030000Y-116790000D03*
X153630000Y-116790000D03*
X155430000Y-116790000D03*
X157230000Y-116790000D03*
X158430000Y-116790000D03*
X152430000Y-116790000D03*
X156630000Y-116790000D03*
X151230000Y-116790000D03*
X159030000Y-116790000D03*
X154830000Y-116790000D03*
X156030000Y-116790000D03*
X164430000Y-116790000D03*
X163230000Y-116790000D03*
X160830000Y-116790000D03*
X163830000Y-116790000D03*
X162630000Y-116790000D03*
X159630000Y-116790000D03*
X160230000Y-116790000D03*
X165030000Y-116790000D03*
X161430000Y-116790000D03*
X162030000Y-116790000D03*
D11*
X142230000Y-114690000D03*
X152830000Y-114690000D03*
D12*
X162930000Y-114690000D03*
D11*
X152830000Y-118890000D03*
X142230000Y-118890000D03*
D12*
X162930000Y-118890000D03*
D13*
X167430000Y-116790000D03*
X137280000Y-116790000D03*
D14*
X138630000Y-116790000D03*
D15*
X166330000Y-116790000D03*
D10*
X108430000Y-116790000D03*
X109030000Y-116790000D03*
X109630000Y-116790000D03*
X110230000Y-116790000D03*
X110830000Y-116790000D03*
X112630000Y-116790000D03*
X111430000Y-116790000D03*
X112030000Y-116790000D03*
X113230000Y-116790000D03*
X115030000Y-116790000D03*
X113830000Y-116790000D03*
X117430000Y-116790000D03*
X116230000Y-116790000D03*
X116830000Y-116790000D03*
X115630000Y-116790000D03*
X114430000Y-116790000D03*
X118030000Y-116790000D03*
X119830000Y-116790000D03*
X118630000Y-116790000D03*
X125830000Y-116790000D03*
X122230000Y-116790000D03*
X121030000Y-116790000D03*
X121630000Y-116790000D03*
X123430000Y-116790000D03*
X125230000Y-116790000D03*
X126430000Y-116790000D03*
X120430000Y-116790000D03*
X124630000Y-116790000D03*
X119230000Y-116790000D03*
X127030000Y-116790000D03*
X122830000Y-116790000D03*
X124030000Y-116790000D03*
X132430000Y-116790000D03*
X131230000Y-116790000D03*
X128830000Y-116790000D03*
X131830000Y-116790000D03*
X130630000Y-116790000D03*
X127630000Y-116790000D03*
X128230000Y-116790000D03*
X133030000Y-116790000D03*
X129430000Y-116790000D03*
X130030000Y-116790000D03*
D11*
X110230000Y-114690000D03*
X120830000Y-114690000D03*
D12*
X130930000Y-114690000D03*
D11*
X120830000Y-118890000D03*
X110230000Y-118890000D03*
D12*
X130930000Y-118890000D03*
D13*
X135430000Y-116790000D03*
X105280000Y-116790000D03*
D14*
X106630000Y-116790000D03*
D15*
X134330000Y-116790000D03*
D10*
X172430000Y-111290000D03*
X173030000Y-111290000D03*
X173630000Y-111290000D03*
X174230000Y-111290000D03*
X174830000Y-111290000D03*
X176630000Y-111290000D03*
X175430000Y-111290000D03*
X176030000Y-111290000D03*
X177230000Y-111290000D03*
X179030000Y-111290000D03*
X177830000Y-111290000D03*
X181430000Y-111290000D03*
X180230000Y-111290000D03*
X180830000Y-111290000D03*
X179630000Y-111290000D03*
X178430000Y-111290000D03*
X182030000Y-111290000D03*
X183830000Y-111290000D03*
X182630000Y-111290000D03*
X189830000Y-111290000D03*
X186230000Y-111290000D03*
X185030000Y-111290000D03*
X185630000Y-111290000D03*
X187430000Y-111290000D03*
X189230000Y-111290000D03*
X190430000Y-111290000D03*
X184430000Y-111290000D03*
X188630000Y-111290000D03*
X183230000Y-111290000D03*
X191030000Y-111290000D03*
X186830000Y-111290000D03*
X188030000Y-111290000D03*
X196430000Y-111290000D03*
X195230000Y-111290000D03*
X192830000Y-111290000D03*
X195830000Y-111290000D03*
X194630000Y-111290000D03*
X191630000Y-111290000D03*
X192230000Y-111290000D03*
X197030000Y-111290000D03*
X193430000Y-111290000D03*
X194030000Y-111290000D03*
D11*
X174230000Y-109190000D03*
X184830000Y-109190000D03*
D12*
X194930000Y-109190000D03*
D11*
X184830000Y-113390000D03*
X174230000Y-113390000D03*
D12*
X194930000Y-113390000D03*
D13*
X199430000Y-111290000D03*
X169280000Y-111290000D03*
D14*
X170630000Y-111290000D03*
D15*
X198330000Y-111290000D03*
D10*
X140430000Y-111290000D03*
X141030000Y-111290000D03*
X141630000Y-111290000D03*
X142230000Y-111290000D03*
X142830000Y-111290000D03*
X144630000Y-111290000D03*
X143430000Y-111290000D03*
X144030000Y-111290000D03*
X145230000Y-111290000D03*
X147030000Y-111290000D03*
X145830000Y-111290000D03*
X149430000Y-111290000D03*
X148230000Y-111290000D03*
X148830000Y-111290000D03*
X147630000Y-111290000D03*
X146430000Y-111290000D03*
X150030000Y-111290000D03*
X151830000Y-111290000D03*
X150630000Y-111290000D03*
X157830000Y-111290000D03*
X154230000Y-111290000D03*
X153030000Y-111290000D03*
X153630000Y-111290000D03*
X155430000Y-111290000D03*
X157230000Y-111290000D03*
X158430000Y-111290000D03*
X152430000Y-111290000D03*
X156630000Y-111290000D03*
X151230000Y-111290000D03*
X159030000Y-111290000D03*
X154830000Y-111290000D03*
X156030000Y-111290000D03*
X164430000Y-111290000D03*
X163230000Y-111290000D03*
X160830000Y-111290000D03*
X163830000Y-111290000D03*
X162630000Y-111290000D03*
X159630000Y-111290000D03*
X160230000Y-111290000D03*
X165030000Y-111290000D03*
X161430000Y-111290000D03*
X162030000Y-111290000D03*
D11*
X142230000Y-109190000D03*
X152830000Y-109190000D03*
D12*
X162930000Y-109190000D03*
D11*
X152830000Y-113390000D03*
X142230000Y-113390000D03*
D12*
X162930000Y-113390000D03*
D13*
X167430000Y-111290000D03*
X137280000Y-111290000D03*
D14*
X138630000Y-111290000D03*
D15*
X166330000Y-111290000D03*
D10*
X108430000Y-111290000D03*
X109030000Y-111290000D03*
X109630000Y-111290000D03*
X110230000Y-111290000D03*
X110830000Y-111290000D03*
X112630000Y-111290000D03*
X111430000Y-111290000D03*
X112030000Y-111290000D03*
X113230000Y-111290000D03*
X115030000Y-111290000D03*
X113830000Y-111290000D03*
X117430000Y-111290000D03*
X116230000Y-111290000D03*
X116830000Y-111290000D03*
X115630000Y-111290000D03*
X114430000Y-111290000D03*
X118030000Y-111290000D03*
X119830000Y-111290000D03*
X118630000Y-111290000D03*
X125830000Y-111290000D03*
X122230000Y-111290000D03*
X121030000Y-111290000D03*
X121630000Y-111290000D03*
X123430000Y-111290000D03*
X125230000Y-111290000D03*
X126430000Y-111290000D03*
X120430000Y-111290000D03*
X124630000Y-111290000D03*
X119230000Y-111290000D03*
X127030000Y-111290000D03*
X122830000Y-111290000D03*
X124030000Y-111290000D03*
X132430000Y-111290000D03*
X131230000Y-111290000D03*
X128830000Y-111290000D03*
X131830000Y-111290000D03*
X130630000Y-111290000D03*
X127630000Y-111290000D03*
X128230000Y-111290000D03*
X133030000Y-111290000D03*
X129430000Y-111290000D03*
X130030000Y-111290000D03*
D11*
X110230000Y-109190000D03*
X120830000Y-109190000D03*
D12*
X130930000Y-109190000D03*
D11*
X120830000Y-113390000D03*
X110230000Y-113390000D03*
D12*
X130930000Y-113390000D03*
D13*
X135430000Y-111290000D03*
X105280000Y-111290000D03*
D14*
X106630000Y-111290000D03*
D15*
X134330000Y-111290000D03*
D10*
X172430000Y-105790000D03*
X173030000Y-105790000D03*
X173630000Y-105790000D03*
X174230000Y-105790000D03*
X174830000Y-105790000D03*
X176630000Y-105790000D03*
X175430000Y-105790000D03*
X176030000Y-105790000D03*
X177230000Y-105790000D03*
X179030000Y-105790000D03*
X177830000Y-105790000D03*
X181430000Y-105790000D03*
X180230000Y-105790000D03*
X180830000Y-105790000D03*
X179630000Y-105790000D03*
X178430000Y-105790000D03*
X182030000Y-105790000D03*
X183830000Y-105790000D03*
X182630000Y-105790000D03*
X189830000Y-105790000D03*
X186230000Y-105790000D03*
X185030000Y-105790000D03*
X185630000Y-105790000D03*
X187430000Y-105790000D03*
X189230000Y-105790000D03*
X190430000Y-105790000D03*
X184430000Y-105790000D03*
X188630000Y-105790000D03*
X183230000Y-105790000D03*
X191030000Y-105790000D03*
X186830000Y-105790000D03*
X188030000Y-105790000D03*
X196430000Y-105790000D03*
X195230000Y-105790000D03*
X192830000Y-105790000D03*
X195830000Y-105790000D03*
X194630000Y-105790000D03*
X191630000Y-105790000D03*
X192230000Y-105790000D03*
X197030000Y-105790000D03*
X193430000Y-105790000D03*
X194030000Y-105790000D03*
D11*
X174230000Y-103690000D03*
X184830000Y-103690000D03*
D12*
X194930000Y-103690000D03*
D11*
X184830000Y-107890000D03*
X174230000Y-107890000D03*
D12*
X194930000Y-107890000D03*
D13*
X199430000Y-105790000D03*
X169280000Y-105790000D03*
D14*
X170630000Y-105790000D03*
D15*
X198330000Y-105790000D03*
D10*
X140430000Y-105790000D03*
X141030000Y-105790000D03*
X141630000Y-105790000D03*
X142230000Y-105790000D03*
X142830000Y-105790000D03*
X144630000Y-105790000D03*
X143430000Y-105790000D03*
X144030000Y-105790000D03*
X145230000Y-105790000D03*
X147030000Y-105790000D03*
X145830000Y-105790000D03*
X149430000Y-105790000D03*
X148230000Y-105790000D03*
X148830000Y-105790000D03*
X147630000Y-105790000D03*
X146430000Y-105790000D03*
X150030000Y-105790000D03*
X151830000Y-105790000D03*
X150630000Y-105790000D03*
X157830000Y-105790000D03*
X154230000Y-105790000D03*
X153030000Y-105790000D03*
X153630000Y-105790000D03*
X155430000Y-105790000D03*
X157230000Y-105790000D03*
X158430000Y-105790000D03*
X152430000Y-105790000D03*
X156630000Y-105790000D03*
X151230000Y-105790000D03*
X159030000Y-105790000D03*
X154830000Y-105790000D03*
X156030000Y-105790000D03*
X164430000Y-105790000D03*
X163230000Y-105790000D03*
X160830000Y-105790000D03*
X163830000Y-105790000D03*
X162630000Y-105790000D03*
X159630000Y-105790000D03*
X160230000Y-105790000D03*
X165030000Y-105790000D03*
X161430000Y-105790000D03*
X162030000Y-105790000D03*
D11*
X142230000Y-103690000D03*
X152830000Y-103690000D03*
D12*
X162930000Y-103690000D03*
D11*
X152830000Y-107890000D03*
X142230000Y-107890000D03*
D12*
X162930000Y-107890000D03*
D13*
X167430000Y-105790000D03*
X137280000Y-105790000D03*
D14*
X138630000Y-105790000D03*
D15*
X166330000Y-105790000D03*
D10*
X108430000Y-105790000D03*
X109030000Y-105790000D03*
X109630000Y-105790000D03*
X110230000Y-105790000D03*
X110830000Y-105790000D03*
X112630000Y-105790000D03*
X111430000Y-105790000D03*
X112030000Y-105790000D03*
X113230000Y-105790000D03*
X115030000Y-105790000D03*
X113830000Y-105790000D03*
X117430000Y-105790000D03*
X116230000Y-105790000D03*
X116830000Y-105790000D03*
X115630000Y-105790000D03*
X114430000Y-105790000D03*
X118030000Y-105790000D03*
X119830000Y-105790000D03*
X118630000Y-105790000D03*
X125830000Y-105790000D03*
X122230000Y-105790000D03*
X121030000Y-105790000D03*
X121630000Y-105790000D03*
X123430000Y-105790000D03*
X125230000Y-105790000D03*
X126430000Y-105790000D03*
X120430000Y-105790000D03*
X124630000Y-105790000D03*
X119230000Y-105790000D03*
X127030000Y-105790000D03*
X122830000Y-105790000D03*
X124030000Y-105790000D03*
X132430000Y-105790000D03*
X131230000Y-105790000D03*
X128830000Y-105790000D03*
X131830000Y-105790000D03*
X130630000Y-105790000D03*
X127630000Y-105790000D03*
X128230000Y-105790000D03*
X133030000Y-105790000D03*
X129430000Y-105790000D03*
X130030000Y-105790000D03*
D11*
X110230000Y-103690000D03*
X120830000Y-103690000D03*
D12*
X130930000Y-103690000D03*
D11*
X120830000Y-107890000D03*
X110230000Y-107890000D03*
D12*
X130930000Y-107890000D03*
D13*
X135430000Y-105790000D03*
X105280000Y-105790000D03*
D14*
X106630000Y-105790000D03*
D15*
X134330000Y-105790000D03*
D10*
X172430000Y-100290000D03*
X173030000Y-100290000D03*
X173630000Y-100290000D03*
X174230000Y-100290000D03*
X174830000Y-100290000D03*
X176630000Y-100290000D03*
X175430000Y-100290000D03*
X176030000Y-100290000D03*
X177230000Y-100290000D03*
X179030000Y-100290000D03*
X177830000Y-100290000D03*
X181430000Y-100290000D03*
X180230000Y-100290000D03*
X180830000Y-100290000D03*
X179630000Y-100290000D03*
X178430000Y-100290000D03*
X182030000Y-100290000D03*
X183830000Y-100290000D03*
X182630000Y-100290000D03*
X189830000Y-100290000D03*
X186230000Y-100290000D03*
X185030000Y-100290000D03*
X185630000Y-100290000D03*
X187430000Y-100290000D03*
X189230000Y-100290000D03*
X190430000Y-100290000D03*
X184430000Y-100290000D03*
X188630000Y-100290000D03*
X183230000Y-100290000D03*
X191030000Y-100290000D03*
X186830000Y-100290000D03*
X188030000Y-100290000D03*
X196430000Y-100290000D03*
X195230000Y-100290000D03*
X192830000Y-100290000D03*
X195830000Y-100290000D03*
X194630000Y-100290000D03*
X191630000Y-100290000D03*
X192230000Y-100290000D03*
X197030000Y-100290000D03*
X193430000Y-100290000D03*
X194030000Y-100290000D03*
D11*
X174230000Y-98190000D03*
X184830000Y-98190000D03*
D12*
X194930000Y-98190000D03*
D11*
X184830000Y-102390000D03*
X174230000Y-102390000D03*
D12*
X194930000Y-102390000D03*
D13*
X199430000Y-100290000D03*
X169280000Y-100290000D03*
D14*
X170630000Y-100290000D03*
D15*
X198330000Y-100290000D03*
D10*
X140430000Y-100290000D03*
X141030000Y-100290000D03*
X141630000Y-100290000D03*
X142230000Y-100290000D03*
X142830000Y-100290000D03*
X144630000Y-100290000D03*
X143430000Y-100290000D03*
X144030000Y-100290000D03*
X145230000Y-100290000D03*
X147030000Y-100290000D03*
X145830000Y-100290000D03*
X149430000Y-100290000D03*
X148230000Y-100290000D03*
X148830000Y-100290000D03*
X147630000Y-100290000D03*
X146430000Y-100290000D03*
X150030000Y-100290000D03*
X151830000Y-100290000D03*
X150630000Y-100290000D03*
X157830000Y-100290000D03*
X154230000Y-100290000D03*
X153030000Y-100290000D03*
X153630000Y-100290000D03*
X155430000Y-100290000D03*
X157230000Y-100290000D03*
X158430000Y-100290000D03*
X152430000Y-100290000D03*
X156630000Y-100290000D03*
X151230000Y-100290000D03*
X159030000Y-100290000D03*
X154830000Y-100290000D03*
X156030000Y-100290000D03*
X164430000Y-100290000D03*
X163230000Y-100290000D03*
X160830000Y-100290000D03*
X163830000Y-100290000D03*
X162630000Y-100290000D03*
X159630000Y-100290000D03*
X160230000Y-100290000D03*
X165030000Y-100290000D03*
X161430000Y-100290000D03*
X162030000Y-100290000D03*
D11*
X142230000Y-98190000D03*
X152830000Y-98190000D03*
D12*
X162930000Y-98190000D03*
D11*
X152830000Y-102390000D03*
X142230000Y-102390000D03*
D12*
X162930000Y-102390000D03*
D13*
X167430000Y-100290000D03*
X137280000Y-100290000D03*
D14*
X138630000Y-100290000D03*
D15*
X166330000Y-100290000D03*
D10*
X108430000Y-100290000D03*
X109030000Y-100290000D03*
X109630000Y-100290000D03*
X110230000Y-100290000D03*
X110830000Y-100290000D03*
X112630000Y-100290000D03*
X111430000Y-100290000D03*
X112030000Y-100290000D03*
X113230000Y-100290000D03*
X115030000Y-100290000D03*
X113830000Y-100290000D03*
X117430000Y-100290000D03*
X116230000Y-100290000D03*
X116830000Y-100290000D03*
X115630000Y-100290000D03*
X114430000Y-100290000D03*
X118030000Y-100290000D03*
X119830000Y-100290000D03*
X118630000Y-100290000D03*
X125830000Y-100290000D03*
X122230000Y-100290000D03*
X121030000Y-100290000D03*
X121630000Y-100290000D03*
X123430000Y-100290000D03*
X125230000Y-100290000D03*
X126430000Y-100290000D03*
X120430000Y-100290000D03*
X124630000Y-100290000D03*
X119230000Y-100290000D03*
X127030000Y-100290000D03*
X122830000Y-100290000D03*
X124030000Y-100290000D03*
X132430000Y-100290000D03*
X131230000Y-100290000D03*
X128830000Y-100290000D03*
X131830000Y-100290000D03*
X130630000Y-100290000D03*
X127630000Y-100290000D03*
X128230000Y-100290000D03*
X133030000Y-100290000D03*
X129430000Y-100290000D03*
X130030000Y-100290000D03*
D11*
X110230000Y-98190000D03*
X120830000Y-98190000D03*
D12*
X130930000Y-98190000D03*
D11*
X120830000Y-102390000D03*
X110230000Y-102390000D03*
D12*
X130930000Y-102390000D03*
D13*
X135430000Y-100290000D03*
X105280000Y-100290000D03*
D14*
X106630000Y-100290000D03*
D15*
X134330000Y-100290000D03*
D10*
X172430000Y-94790000D03*
X173030000Y-94790000D03*
X173630000Y-94790000D03*
X174230000Y-94790000D03*
X174830000Y-94790000D03*
X176630000Y-94790000D03*
X175430000Y-94790000D03*
X176030000Y-94790000D03*
X177230000Y-94790000D03*
X179030000Y-94790000D03*
X177830000Y-94790000D03*
X181430000Y-94790000D03*
X180230000Y-94790000D03*
X180830000Y-94790000D03*
X179630000Y-94790000D03*
X178430000Y-94790000D03*
X182030000Y-94790000D03*
X183830000Y-94790000D03*
X182630000Y-94790000D03*
X189830000Y-94790000D03*
X186230000Y-94790000D03*
X185030000Y-94790000D03*
X185630000Y-94790000D03*
X187430000Y-94790000D03*
X189230000Y-94790000D03*
X190430000Y-94790000D03*
X184430000Y-94790000D03*
X188630000Y-94790000D03*
X183230000Y-94790000D03*
X191030000Y-94790000D03*
X186830000Y-94790000D03*
X188030000Y-94790000D03*
X196430000Y-94790000D03*
X195230000Y-94790000D03*
X192830000Y-94790000D03*
X195830000Y-94790000D03*
X194630000Y-94790000D03*
X191630000Y-94790000D03*
X192230000Y-94790000D03*
X197030000Y-94790000D03*
X193430000Y-94790000D03*
X194030000Y-94790000D03*
D11*
X174230000Y-92690000D03*
X184830000Y-92690000D03*
D12*
X194930000Y-92690000D03*
D11*
X184830000Y-96890000D03*
X174230000Y-96890000D03*
D12*
X194930000Y-96890000D03*
D13*
X199430000Y-94790000D03*
X169280000Y-94790000D03*
D14*
X170630000Y-94790000D03*
D15*
X198330000Y-94790000D03*
D10*
X140430000Y-94790000D03*
X141030000Y-94790000D03*
X141630000Y-94790000D03*
X142230000Y-94790000D03*
X142830000Y-94790000D03*
X144630000Y-94790000D03*
X143430000Y-94790000D03*
X144030000Y-94790000D03*
X145230000Y-94790000D03*
X147030000Y-94790000D03*
X145830000Y-94790000D03*
X149430000Y-94790000D03*
X148230000Y-94790000D03*
X148830000Y-94790000D03*
X147630000Y-94790000D03*
X146430000Y-94790000D03*
X150030000Y-94790000D03*
X151830000Y-94790000D03*
X150630000Y-94790000D03*
X157830000Y-94790000D03*
X154230000Y-94790000D03*
X153030000Y-94790000D03*
X153630000Y-94790000D03*
X155430000Y-94790000D03*
X157230000Y-94790000D03*
X158430000Y-94790000D03*
X152430000Y-94790000D03*
X156630000Y-94790000D03*
X151230000Y-94790000D03*
X159030000Y-94790000D03*
X154830000Y-94790000D03*
X156030000Y-94790000D03*
X164430000Y-94790000D03*
X163230000Y-94790000D03*
X160830000Y-94790000D03*
X163830000Y-94790000D03*
X162630000Y-94790000D03*
X159630000Y-94790000D03*
X160230000Y-94790000D03*
X165030000Y-94790000D03*
X161430000Y-94790000D03*
X162030000Y-94790000D03*
D11*
X142230000Y-92690000D03*
X152830000Y-92690000D03*
D12*
X162930000Y-92690000D03*
D11*
X152830000Y-96890000D03*
X142230000Y-96890000D03*
D12*
X162930000Y-96890000D03*
D13*
X167430000Y-94790000D03*
X137280000Y-94790000D03*
D14*
X138630000Y-94790000D03*
D15*
X166330000Y-94790000D03*
D10*
X108430000Y-94790000D03*
X109030000Y-94790000D03*
X109630000Y-94790000D03*
X110230000Y-94790000D03*
X110830000Y-94790000D03*
X112630000Y-94790000D03*
X111430000Y-94790000D03*
X112030000Y-94790000D03*
X113230000Y-94790000D03*
X115030000Y-94790000D03*
X113830000Y-94790000D03*
X117430000Y-94790000D03*
X116230000Y-94790000D03*
X116830000Y-94790000D03*
X115630000Y-94790000D03*
X114430000Y-94790000D03*
X118030000Y-94790000D03*
X119830000Y-94790000D03*
X118630000Y-94790000D03*
X125830000Y-94790000D03*
X122230000Y-94790000D03*
X121030000Y-94790000D03*
X121630000Y-94790000D03*
X123430000Y-94790000D03*
X125230000Y-94790000D03*
X126430000Y-94790000D03*
X120430000Y-94790000D03*
X124630000Y-94790000D03*
X119230000Y-94790000D03*
X127030000Y-94790000D03*
X122830000Y-94790000D03*
X124030000Y-94790000D03*
X132430000Y-94790000D03*
X131230000Y-94790000D03*
X128830000Y-94790000D03*
X131830000Y-94790000D03*
X130630000Y-94790000D03*
X127630000Y-94790000D03*
X128230000Y-94790000D03*
X133030000Y-94790000D03*
X129430000Y-94790000D03*
X130030000Y-94790000D03*
D11*
X110230000Y-92690000D03*
X120830000Y-92690000D03*
D12*
X130930000Y-92690000D03*
D11*
X120830000Y-96890000D03*
X110230000Y-96890000D03*
D12*
X130930000Y-96890000D03*
D13*
X135430000Y-94790000D03*
X105280000Y-94790000D03*
D14*
X106630000Y-94790000D03*
D15*
X134330000Y-94790000D03*
D10*
X172430000Y-89290000D03*
X173030000Y-89290000D03*
X173630000Y-89290000D03*
X174230000Y-89290000D03*
X174830000Y-89290000D03*
X176630000Y-89290000D03*
X175430000Y-89290000D03*
X176030000Y-89290000D03*
X177230000Y-89290000D03*
X179030000Y-89290000D03*
X177830000Y-89290000D03*
X181430000Y-89290000D03*
X180230000Y-89290000D03*
X180830000Y-89290000D03*
X179630000Y-89290000D03*
X178430000Y-89290000D03*
X182030000Y-89290000D03*
X183830000Y-89290000D03*
X182630000Y-89290000D03*
X189830000Y-89290000D03*
X186230000Y-89290000D03*
X185030000Y-89290000D03*
X185630000Y-89290000D03*
X187430000Y-89290000D03*
X189230000Y-89290000D03*
X190430000Y-89290000D03*
X184430000Y-89290000D03*
X188630000Y-89290000D03*
X183230000Y-89290000D03*
X191030000Y-89290000D03*
X186830000Y-89290000D03*
X188030000Y-89290000D03*
X196430000Y-89290000D03*
X195230000Y-89290000D03*
X192830000Y-89290000D03*
X195830000Y-89290000D03*
X194630000Y-89290000D03*
X191630000Y-89290000D03*
X192230000Y-89290000D03*
X197030000Y-89290000D03*
X193430000Y-89290000D03*
X194030000Y-89290000D03*
D11*
X174230000Y-87190000D03*
X184830000Y-87190000D03*
D12*
X194930000Y-87190000D03*
D11*
X184830000Y-91390000D03*
X174230000Y-91390000D03*
D12*
X194930000Y-91390000D03*
D13*
X199430000Y-89290000D03*
X169280000Y-89290000D03*
D14*
X170630000Y-89290000D03*
D15*
X198330000Y-89290000D03*
D10*
X140430000Y-89290000D03*
X141030000Y-89290000D03*
X141630000Y-89290000D03*
X142230000Y-89290000D03*
X142830000Y-89290000D03*
X144630000Y-89290000D03*
X143430000Y-89290000D03*
X144030000Y-89290000D03*
X145230000Y-89290000D03*
X147030000Y-89290000D03*
X145830000Y-89290000D03*
X149430000Y-89290000D03*
X148230000Y-89290000D03*
X148830000Y-89290000D03*
X147630000Y-89290000D03*
X146430000Y-89290000D03*
X150030000Y-89290000D03*
X151830000Y-89290000D03*
X150630000Y-89290000D03*
X157830000Y-89290000D03*
X154230000Y-89290000D03*
X153030000Y-89290000D03*
X153630000Y-89290000D03*
X155430000Y-89290000D03*
X157230000Y-89290000D03*
X158430000Y-89290000D03*
X152430000Y-89290000D03*
X156630000Y-89290000D03*
X151230000Y-89290000D03*
X159030000Y-89290000D03*
X154830000Y-89290000D03*
X156030000Y-89290000D03*
X164430000Y-89290000D03*
X163230000Y-89290000D03*
X160830000Y-89290000D03*
X163830000Y-89290000D03*
X162630000Y-89290000D03*
X159630000Y-89290000D03*
X160230000Y-89290000D03*
X165030000Y-89290000D03*
X161430000Y-89290000D03*
X162030000Y-89290000D03*
D11*
X142230000Y-87190000D03*
X152830000Y-87190000D03*
D12*
X162930000Y-87190000D03*
D11*
X152830000Y-91390000D03*
X142230000Y-91390000D03*
D12*
X162930000Y-91390000D03*
D13*
X167430000Y-89290000D03*
X137280000Y-89290000D03*
D14*
X138630000Y-89290000D03*
D15*
X166330000Y-89290000D03*
D10*
X108430000Y-89290000D03*
X109030000Y-89290000D03*
X109630000Y-89290000D03*
X110230000Y-89290000D03*
X110830000Y-89290000D03*
X112630000Y-89290000D03*
X111430000Y-89290000D03*
X112030000Y-89290000D03*
X113230000Y-89290000D03*
X115030000Y-89290000D03*
X113830000Y-89290000D03*
X117430000Y-89290000D03*
X116230000Y-89290000D03*
X116830000Y-89290000D03*
X115630000Y-89290000D03*
X114430000Y-89290000D03*
X118030000Y-89290000D03*
X119830000Y-89290000D03*
X118630000Y-89290000D03*
X125830000Y-89290000D03*
X122230000Y-89290000D03*
X121030000Y-89290000D03*
X121630000Y-89290000D03*
X123430000Y-89290000D03*
X125230000Y-89290000D03*
X126430000Y-89290000D03*
X120430000Y-89290000D03*
X124630000Y-89290000D03*
X119230000Y-89290000D03*
X127030000Y-89290000D03*
X122830000Y-89290000D03*
X124030000Y-89290000D03*
X132430000Y-89290000D03*
X131230000Y-89290000D03*
X128830000Y-89290000D03*
X131830000Y-89290000D03*
X130630000Y-89290000D03*
X127630000Y-89290000D03*
X128230000Y-89290000D03*
X133030000Y-89290000D03*
X129430000Y-89290000D03*
X130030000Y-89290000D03*
D11*
X110230000Y-87190000D03*
X120830000Y-87190000D03*
D12*
X130930000Y-87190000D03*
D11*
X120830000Y-91390000D03*
X110230000Y-91390000D03*
D12*
X130930000Y-91390000D03*
D13*
X135430000Y-89290000D03*
X105280000Y-89290000D03*
D14*
X106630000Y-89290000D03*
D15*
X134330000Y-89290000D03*
D10*
X172430000Y-83790000D03*
X173030000Y-83790000D03*
X173630000Y-83790000D03*
X174230000Y-83790000D03*
X174830000Y-83790000D03*
X176630000Y-83790000D03*
X175430000Y-83790000D03*
X176030000Y-83790000D03*
X177230000Y-83790000D03*
X179030000Y-83790000D03*
X177830000Y-83790000D03*
X181430000Y-83790000D03*
X180230000Y-83790000D03*
X180830000Y-83790000D03*
X179630000Y-83790000D03*
X178430000Y-83790000D03*
X182030000Y-83790000D03*
X183830000Y-83790000D03*
X182630000Y-83790000D03*
X189830000Y-83790000D03*
X186230000Y-83790000D03*
X185030000Y-83790000D03*
X185630000Y-83790000D03*
X187430000Y-83790000D03*
X189230000Y-83790000D03*
X190430000Y-83790000D03*
X184430000Y-83790000D03*
X188630000Y-83790000D03*
X183230000Y-83790000D03*
X191030000Y-83790000D03*
X186830000Y-83790000D03*
X188030000Y-83790000D03*
X196430000Y-83790000D03*
X195230000Y-83790000D03*
X192830000Y-83790000D03*
X195830000Y-83790000D03*
X194630000Y-83790000D03*
X191630000Y-83790000D03*
X192230000Y-83790000D03*
X197030000Y-83790000D03*
X193430000Y-83790000D03*
X194030000Y-83790000D03*
D11*
X174230000Y-81690000D03*
X184830000Y-81690000D03*
D12*
X194930000Y-81690000D03*
D11*
X184830000Y-85890000D03*
X174230000Y-85890000D03*
D12*
X194930000Y-85890000D03*
D13*
X199430000Y-83790000D03*
X169280000Y-83790000D03*
D14*
X170630000Y-83790000D03*
D15*
X198330000Y-83790000D03*
D10*
X140430000Y-83790000D03*
X141030000Y-83790000D03*
X141630000Y-83790000D03*
X142230000Y-83790000D03*
X142830000Y-83790000D03*
X144630000Y-83790000D03*
X143430000Y-83790000D03*
X144030000Y-83790000D03*
X145230000Y-83790000D03*
X147030000Y-83790000D03*
X145830000Y-83790000D03*
X149430000Y-83790000D03*
X148230000Y-83790000D03*
X148830000Y-83790000D03*
X147630000Y-83790000D03*
X146430000Y-83790000D03*
X150030000Y-83790000D03*
X151830000Y-83790000D03*
X150630000Y-83790000D03*
X157830000Y-83790000D03*
X154230000Y-83790000D03*
X153030000Y-83790000D03*
X153630000Y-83790000D03*
X155430000Y-83790000D03*
X157230000Y-83790000D03*
X158430000Y-83790000D03*
X152430000Y-83790000D03*
X156630000Y-83790000D03*
X151230000Y-83790000D03*
X159030000Y-83790000D03*
X154830000Y-83790000D03*
X156030000Y-83790000D03*
X164430000Y-83790000D03*
X163230000Y-83790000D03*
X160830000Y-83790000D03*
X163830000Y-83790000D03*
X162630000Y-83790000D03*
X159630000Y-83790000D03*
X160230000Y-83790000D03*
X165030000Y-83790000D03*
X161430000Y-83790000D03*
X162030000Y-83790000D03*
D11*
X142230000Y-81690000D03*
X152830000Y-81690000D03*
D12*
X162930000Y-81690000D03*
D11*
X152830000Y-85890000D03*
X142230000Y-85890000D03*
D12*
X162930000Y-85890000D03*
D13*
X167430000Y-83790000D03*
X137280000Y-83790000D03*
D14*
X138630000Y-83790000D03*
D15*
X166330000Y-83790000D03*
D10*
X108430000Y-83790000D03*
X109030000Y-83790000D03*
X109630000Y-83790000D03*
X110230000Y-83790000D03*
X110830000Y-83790000D03*
X112630000Y-83790000D03*
X111430000Y-83790000D03*
X112030000Y-83790000D03*
X113230000Y-83790000D03*
X115030000Y-83790000D03*
X113830000Y-83790000D03*
X117430000Y-83790000D03*
X116230000Y-83790000D03*
X116830000Y-83790000D03*
X115630000Y-83790000D03*
X114430000Y-83790000D03*
X118030000Y-83790000D03*
X119830000Y-83790000D03*
X118630000Y-83790000D03*
X125830000Y-83790000D03*
X122230000Y-83790000D03*
X121030000Y-83790000D03*
X121630000Y-83790000D03*
X123430000Y-83790000D03*
X125230000Y-83790000D03*
X126430000Y-83790000D03*
X120430000Y-83790000D03*
X124630000Y-83790000D03*
X119230000Y-83790000D03*
X127030000Y-83790000D03*
X122830000Y-83790000D03*
X124030000Y-83790000D03*
X132430000Y-83790000D03*
X131230000Y-83790000D03*
X128830000Y-83790000D03*
X131830000Y-83790000D03*
X130630000Y-83790000D03*
X127630000Y-83790000D03*
X128230000Y-83790000D03*
X133030000Y-83790000D03*
X129430000Y-83790000D03*
X130030000Y-83790000D03*
D11*
X110230000Y-81690000D03*
X120830000Y-81690000D03*
D12*
X130930000Y-81690000D03*
D11*
X120830000Y-85890000D03*
X110230000Y-85890000D03*
D12*
X130930000Y-85890000D03*
D13*
X135430000Y-83790000D03*
X105280000Y-83790000D03*
D14*
X106630000Y-83790000D03*
D15*
X134330000Y-83790000D03*
D10*
X172430000Y-78290000D03*
X173030000Y-78290000D03*
X173630000Y-78290000D03*
X174230000Y-78290000D03*
X174830000Y-78290000D03*
X176630000Y-78290000D03*
X175430000Y-78290000D03*
X176030000Y-78290000D03*
X177230000Y-78290000D03*
X179030000Y-78290000D03*
X177830000Y-78290000D03*
X181430000Y-78290000D03*
X180230000Y-78290000D03*
X180830000Y-78290000D03*
X179630000Y-78290000D03*
X178430000Y-78290000D03*
X182030000Y-78290000D03*
X183830000Y-78290000D03*
X182630000Y-78290000D03*
X189830000Y-78290000D03*
X186230000Y-78290000D03*
X185030000Y-78290000D03*
X185630000Y-78290000D03*
X187430000Y-78290000D03*
X189230000Y-78290000D03*
X190430000Y-78290000D03*
X184430000Y-78290000D03*
X188630000Y-78290000D03*
X183230000Y-78290000D03*
X191030000Y-78290000D03*
X186830000Y-78290000D03*
X188030000Y-78290000D03*
X196430000Y-78290000D03*
X195230000Y-78290000D03*
X192830000Y-78290000D03*
X195830000Y-78290000D03*
X194630000Y-78290000D03*
X191630000Y-78290000D03*
X192230000Y-78290000D03*
X197030000Y-78290000D03*
X193430000Y-78290000D03*
X194030000Y-78290000D03*
D11*
X174230000Y-76190000D03*
X184830000Y-76190000D03*
D12*
X194930000Y-76190000D03*
D11*
X184830000Y-80390000D03*
X174230000Y-80390000D03*
D12*
X194930000Y-80390000D03*
D13*
X199430000Y-78290000D03*
X169280000Y-78290000D03*
D14*
X170630000Y-78290000D03*
D15*
X198330000Y-78290000D03*
D10*
X140430000Y-78290000D03*
X141030000Y-78290000D03*
X141630000Y-78290000D03*
X142230000Y-78290000D03*
X142830000Y-78290000D03*
X144630000Y-78290000D03*
X143430000Y-78290000D03*
X144030000Y-78290000D03*
X145230000Y-78290000D03*
X147030000Y-78290000D03*
X145830000Y-78290000D03*
X149430000Y-78290000D03*
X148230000Y-78290000D03*
X148830000Y-78290000D03*
X147630000Y-78290000D03*
X146430000Y-78290000D03*
X150030000Y-78290000D03*
X151830000Y-78290000D03*
X150630000Y-78290000D03*
X157830000Y-78290000D03*
X154230000Y-78290000D03*
X153030000Y-78290000D03*
X153630000Y-78290000D03*
X155430000Y-78290000D03*
X157230000Y-78290000D03*
X158430000Y-78290000D03*
X152430000Y-78290000D03*
X156630000Y-78290000D03*
X151230000Y-78290000D03*
X159030000Y-78290000D03*
X154830000Y-78290000D03*
X156030000Y-78290000D03*
X164430000Y-78290000D03*
X163230000Y-78290000D03*
X160830000Y-78290000D03*
X163830000Y-78290000D03*
X162630000Y-78290000D03*
X159630000Y-78290000D03*
X160230000Y-78290000D03*
X165030000Y-78290000D03*
X161430000Y-78290000D03*
X162030000Y-78290000D03*
D11*
X142230000Y-76190000D03*
X152830000Y-76190000D03*
D12*
X162930000Y-76190000D03*
D11*
X152830000Y-80390000D03*
X142230000Y-80390000D03*
D12*
X162930000Y-80390000D03*
D13*
X167430000Y-78290000D03*
X137280000Y-78290000D03*
D14*
X138630000Y-78290000D03*
D15*
X166330000Y-78290000D03*
X134330000Y-78290000D03*
D14*
X106630000Y-78290000D03*
D13*
X105280000Y-78290000D03*
X135430000Y-78290000D03*
D12*
X130930000Y-80390000D03*
D11*
X110230000Y-80390000D03*
X120830000Y-80390000D03*
D12*
X130930000Y-76190000D03*
D11*
X120830000Y-76190000D03*
X110230000Y-76190000D03*
D10*
X130030000Y-78290000D03*
X129430000Y-78290000D03*
X133030000Y-78290000D03*
X128230000Y-78290000D03*
X127630000Y-78290000D03*
X130630000Y-78290000D03*
X131830000Y-78290000D03*
X128830000Y-78290000D03*
X131230000Y-78290000D03*
X132430000Y-78290000D03*
X124030000Y-78290000D03*
X122830000Y-78290000D03*
X127030000Y-78290000D03*
X119230000Y-78290000D03*
X124630000Y-78290000D03*
X120430000Y-78290000D03*
X126430000Y-78290000D03*
X125230000Y-78290000D03*
X123430000Y-78290000D03*
X121630000Y-78290000D03*
X121030000Y-78290000D03*
X122230000Y-78290000D03*
X125830000Y-78290000D03*
X118630000Y-78290000D03*
X119830000Y-78290000D03*
X118030000Y-78290000D03*
X114430000Y-78290000D03*
X115630000Y-78290000D03*
X116830000Y-78290000D03*
X116230000Y-78290000D03*
X117430000Y-78290000D03*
X113830000Y-78290000D03*
X115030000Y-78290000D03*
X113230000Y-78290000D03*
X112030000Y-78290000D03*
X111430000Y-78290000D03*
X112630000Y-78290000D03*
X110830000Y-78290000D03*
X110230000Y-78290000D03*
X109630000Y-78290000D03*
X109030000Y-78290000D03*
X108430000Y-78290000D03*
M02*
