G04 #@! TF.GenerationSoftware,KiCad,Pcbnew,5.1.5-52549c5~84~ubuntu18.04.1*
G04 #@! TF.CreationDate,2020-07-07T12:38:01+02:00*
G04 #@! TF.ProjectId,optical_encoder,6f707469-6361-46c5-9f65-6e636f646572,rev?*
G04 #@! TF.SameCoordinates,Original*
G04 #@! TF.FileFunction,Paste,Top*
G04 #@! TF.FilePolarity,Positive*
%FSLAX46Y46*%
G04 Gerber Fmt 4.6, Leading zero omitted, Abs format (unit mm)*
G04 Created by KiCad (PCBNEW 5.1.5-52549c5~84~ubuntu18.04.1) date 2020-07-07 12:38:01*
%MOMM*%
%LPD*%
G04 APERTURE LIST*
%ADD10R,0.350000X2.400000*%
%ADD11R,9.000000X0.100000*%
%ADD12R,7.800000X0.100000*%
%ADD13R,0.100000X1.700000*%
%ADD14R,1.500000X2.400000*%
%ADD15R,1.000000X2.400000*%
G04 APERTURE END LIST*
D10*
X180150000Y-111710000D03*
X180750000Y-111710000D03*
X181350000Y-111710000D03*
X181950000Y-111710000D03*
X182550000Y-111710000D03*
X184350000Y-111710000D03*
X183150000Y-111710000D03*
X183750000Y-111710000D03*
X184950000Y-111710000D03*
X186750000Y-111710000D03*
X185550000Y-111710000D03*
X189150000Y-111710000D03*
X187950000Y-111710000D03*
X188550000Y-111710000D03*
X187350000Y-111710000D03*
X186150000Y-111710000D03*
X189750000Y-111710000D03*
X191550000Y-111710000D03*
X190350000Y-111710000D03*
X197550000Y-111710000D03*
X193950000Y-111710000D03*
X192750000Y-111710000D03*
X193350000Y-111710000D03*
X195150000Y-111710000D03*
X196950000Y-111710000D03*
X198150000Y-111710000D03*
X192150000Y-111710000D03*
X196350000Y-111710000D03*
X190950000Y-111710000D03*
X198750000Y-111710000D03*
X194550000Y-111710000D03*
X195750000Y-111710000D03*
X200550000Y-111710000D03*
X199350000Y-111710000D03*
X199950000Y-111710000D03*
D11*
X181450000Y-109960000D03*
D12*
X190050000Y-109960000D03*
D11*
X198650000Y-109960000D03*
D12*
X190050000Y-113460000D03*
D11*
X181450000Y-113460000D03*
X198650000Y-113460000D03*
D13*
X203150000Y-110760000D03*
D14*
X178350000Y-111710000D03*
D15*
X202350000Y-111710000D03*
D13*
X203150000Y-112660000D03*
X177000000Y-110760000D03*
X177000000Y-112660000D03*
D10*
X201150000Y-111710000D03*
X151150000Y-111710000D03*
X151750000Y-111710000D03*
X152350000Y-111710000D03*
X152950000Y-111710000D03*
X153550000Y-111710000D03*
X155350000Y-111710000D03*
X154150000Y-111710000D03*
X154750000Y-111710000D03*
X155950000Y-111710000D03*
X157750000Y-111710000D03*
X156550000Y-111710000D03*
X160150000Y-111710000D03*
X158950000Y-111710000D03*
X159550000Y-111710000D03*
X158350000Y-111710000D03*
X157150000Y-111710000D03*
X160750000Y-111710000D03*
X162550000Y-111710000D03*
X161350000Y-111710000D03*
X168550000Y-111710000D03*
X164950000Y-111710000D03*
X163750000Y-111710000D03*
X164350000Y-111710000D03*
X166150000Y-111710000D03*
X167950000Y-111710000D03*
X169150000Y-111710000D03*
X163150000Y-111710000D03*
X167350000Y-111710000D03*
X161950000Y-111710000D03*
X169750000Y-111710000D03*
X165550000Y-111710000D03*
X166750000Y-111710000D03*
X171550000Y-111710000D03*
X170350000Y-111710000D03*
X170950000Y-111710000D03*
D11*
X152450000Y-109960000D03*
D12*
X161050000Y-109960000D03*
D11*
X169650000Y-109960000D03*
D12*
X161050000Y-113460000D03*
D11*
X152450000Y-113460000D03*
X169650000Y-113460000D03*
D13*
X174150000Y-110760000D03*
D14*
X149350000Y-111710000D03*
D15*
X173350000Y-111710000D03*
D13*
X174150000Y-112660000D03*
X148000000Y-110760000D03*
X148000000Y-112660000D03*
D10*
X172150000Y-111710000D03*
X122150000Y-111710000D03*
X122750000Y-111710000D03*
X123350000Y-111710000D03*
X123950000Y-111710000D03*
X124550000Y-111710000D03*
X126350000Y-111710000D03*
X125150000Y-111710000D03*
X125750000Y-111710000D03*
X126950000Y-111710000D03*
X128750000Y-111710000D03*
X127550000Y-111710000D03*
X131150000Y-111710000D03*
X129950000Y-111710000D03*
X130550000Y-111710000D03*
X129350000Y-111710000D03*
X128150000Y-111710000D03*
X131750000Y-111710000D03*
X133550000Y-111710000D03*
X132350000Y-111710000D03*
X139550000Y-111710000D03*
X135950000Y-111710000D03*
X134750000Y-111710000D03*
X135350000Y-111710000D03*
X137150000Y-111710000D03*
X138950000Y-111710000D03*
X140150000Y-111710000D03*
X134150000Y-111710000D03*
X138350000Y-111710000D03*
X132950000Y-111710000D03*
X140750000Y-111710000D03*
X136550000Y-111710000D03*
X137750000Y-111710000D03*
X142550000Y-111710000D03*
X141350000Y-111710000D03*
X141950000Y-111710000D03*
D11*
X123450000Y-109960000D03*
D12*
X132050000Y-109960000D03*
D11*
X140650000Y-109960000D03*
D12*
X132050000Y-113460000D03*
D11*
X123450000Y-113460000D03*
X140650000Y-113460000D03*
D13*
X145150000Y-110760000D03*
D14*
X120350000Y-111710000D03*
D15*
X144350000Y-111710000D03*
D13*
X145150000Y-112660000D03*
X119000000Y-110760000D03*
X119000000Y-112660000D03*
D10*
X143150000Y-111710000D03*
X93150000Y-111710000D03*
X93750000Y-111710000D03*
X94350000Y-111710000D03*
X94950000Y-111710000D03*
X95550000Y-111710000D03*
X97350000Y-111710000D03*
X96150000Y-111710000D03*
X96750000Y-111710000D03*
X97950000Y-111710000D03*
X99750000Y-111710000D03*
X98550000Y-111710000D03*
X102150000Y-111710000D03*
X100950000Y-111710000D03*
X101550000Y-111710000D03*
X100350000Y-111710000D03*
X99150000Y-111710000D03*
X102750000Y-111710000D03*
X104550000Y-111710000D03*
X103350000Y-111710000D03*
X110550000Y-111710000D03*
X106950000Y-111710000D03*
X105750000Y-111710000D03*
X106350000Y-111710000D03*
X108150000Y-111710000D03*
X109950000Y-111710000D03*
X111150000Y-111710000D03*
X105150000Y-111710000D03*
X109350000Y-111710000D03*
X103950000Y-111710000D03*
X111750000Y-111710000D03*
X107550000Y-111710000D03*
X108750000Y-111710000D03*
X113550000Y-111710000D03*
X112350000Y-111710000D03*
X112950000Y-111710000D03*
D11*
X94450000Y-109960000D03*
D12*
X103050000Y-109960000D03*
D11*
X111650000Y-109960000D03*
D12*
X103050000Y-113460000D03*
D11*
X94450000Y-113460000D03*
X111650000Y-113460000D03*
D13*
X116150000Y-110760000D03*
D14*
X91350000Y-111710000D03*
D15*
X115350000Y-111710000D03*
D13*
X116150000Y-112660000D03*
X90000000Y-110760000D03*
X90000000Y-112660000D03*
D10*
X114150000Y-111710000D03*
X180150000Y-106710000D03*
X180750000Y-106710000D03*
X181350000Y-106710000D03*
X181950000Y-106710000D03*
X182550000Y-106710000D03*
X184350000Y-106710000D03*
X183150000Y-106710000D03*
X183750000Y-106710000D03*
X184950000Y-106710000D03*
X186750000Y-106710000D03*
X185550000Y-106710000D03*
X189150000Y-106710000D03*
X187950000Y-106710000D03*
X188550000Y-106710000D03*
X187350000Y-106710000D03*
X186150000Y-106710000D03*
X189750000Y-106710000D03*
X191550000Y-106710000D03*
X190350000Y-106710000D03*
X197550000Y-106710000D03*
X193950000Y-106710000D03*
X192750000Y-106710000D03*
X193350000Y-106710000D03*
X195150000Y-106710000D03*
X196950000Y-106710000D03*
X198150000Y-106710000D03*
X192150000Y-106710000D03*
X196350000Y-106710000D03*
X190950000Y-106710000D03*
X198750000Y-106710000D03*
X194550000Y-106710000D03*
X195750000Y-106710000D03*
X200550000Y-106710000D03*
X199350000Y-106710000D03*
X199950000Y-106710000D03*
D11*
X181450000Y-104960000D03*
D12*
X190050000Y-104960000D03*
D11*
X198650000Y-104960000D03*
D12*
X190050000Y-108460000D03*
D11*
X181450000Y-108460000D03*
X198650000Y-108460000D03*
D13*
X203150000Y-105760000D03*
D14*
X178350000Y-106710000D03*
D15*
X202350000Y-106710000D03*
D13*
X203150000Y-107660000D03*
X177000000Y-105760000D03*
X177000000Y-107660000D03*
D10*
X201150000Y-106710000D03*
X151150000Y-106710000D03*
X151750000Y-106710000D03*
X152350000Y-106710000D03*
X152950000Y-106710000D03*
X153550000Y-106710000D03*
X155350000Y-106710000D03*
X154150000Y-106710000D03*
X154750000Y-106710000D03*
X155950000Y-106710000D03*
X157750000Y-106710000D03*
X156550000Y-106710000D03*
X160150000Y-106710000D03*
X158950000Y-106710000D03*
X159550000Y-106710000D03*
X158350000Y-106710000D03*
X157150000Y-106710000D03*
X160750000Y-106710000D03*
X162550000Y-106710000D03*
X161350000Y-106710000D03*
X168550000Y-106710000D03*
X164950000Y-106710000D03*
X163750000Y-106710000D03*
X164350000Y-106710000D03*
X166150000Y-106710000D03*
X167950000Y-106710000D03*
X169150000Y-106710000D03*
X163150000Y-106710000D03*
X167350000Y-106710000D03*
X161950000Y-106710000D03*
X169750000Y-106710000D03*
X165550000Y-106710000D03*
X166750000Y-106710000D03*
X171550000Y-106710000D03*
X170350000Y-106710000D03*
X170950000Y-106710000D03*
D11*
X152450000Y-104960000D03*
D12*
X161050000Y-104960000D03*
D11*
X169650000Y-104960000D03*
D12*
X161050000Y-108460000D03*
D11*
X152450000Y-108460000D03*
X169650000Y-108460000D03*
D13*
X174150000Y-105760000D03*
D14*
X149350000Y-106710000D03*
D15*
X173350000Y-106710000D03*
D13*
X174150000Y-107660000D03*
X148000000Y-105760000D03*
X148000000Y-107660000D03*
D10*
X172150000Y-106710000D03*
X122150000Y-106710000D03*
X122750000Y-106710000D03*
X123350000Y-106710000D03*
X123950000Y-106710000D03*
X124550000Y-106710000D03*
X126350000Y-106710000D03*
X125150000Y-106710000D03*
X125750000Y-106710000D03*
X126950000Y-106710000D03*
X128750000Y-106710000D03*
X127550000Y-106710000D03*
X131150000Y-106710000D03*
X129950000Y-106710000D03*
X130550000Y-106710000D03*
X129350000Y-106710000D03*
X128150000Y-106710000D03*
X131750000Y-106710000D03*
X133550000Y-106710000D03*
X132350000Y-106710000D03*
X139550000Y-106710000D03*
X135950000Y-106710000D03*
X134750000Y-106710000D03*
X135350000Y-106710000D03*
X137150000Y-106710000D03*
X138950000Y-106710000D03*
X140150000Y-106710000D03*
X134150000Y-106710000D03*
X138350000Y-106710000D03*
X132950000Y-106710000D03*
X140750000Y-106710000D03*
X136550000Y-106710000D03*
X137750000Y-106710000D03*
X142550000Y-106710000D03*
X141350000Y-106710000D03*
X141950000Y-106710000D03*
D11*
X123450000Y-104960000D03*
D12*
X132050000Y-104960000D03*
D11*
X140650000Y-104960000D03*
D12*
X132050000Y-108460000D03*
D11*
X123450000Y-108460000D03*
X140650000Y-108460000D03*
D13*
X145150000Y-105760000D03*
D14*
X120350000Y-106710000D03*
D15*
X144350000Y-106710000D03*
D13*
X145150000Y-107660000D03*
X119000000Y-105760000D03*
X119000000Y-107660000D03*
D10*
X143150000Y-106710000D03*
X93150000Y-106710000D03*
X93750000Y-106710000D03*
X94350000Y-106710000D03*
X94950000Y-106710000D03*
X95550000Y-106710000D03*
X97350000Y-106710000D03*
X96150000Y-106710000D03*
X96750000Y-106710000D03*
X97950000Y-106710000D03*
X99750000Y-106710000D03*
X98550000Y-106710000D03*
X102150000Y-106710000D03*
X100950000Y-106710000D03*
X101550000Y-106710000D03*
X100350000Y-106710000D03*
X99150000Y-106710000D03*
X102750000Y-106710000D03*
X104550000Y-106710000D03*
X103350000Y-106710000D03*
X110550000Y-106710000D03*
X106950000Y-106710000D03*
X105750000Y-106710000D03*
X106350000Y-106710000D03*
X108150000Y-106710000D03*
X109950000Y-106710000D03*
X111150000Y-106710000D03*
X105150000Y-106710000D03*
X109350000Y-106710000D03*
X103950000Y-106710000D03*
X111750000Y-106710000D03*
X107550000Y-106710000D03*
X108750000Y-106710000D03*
X113550000Y-106710000D03*
X112350000Y-106710000D03*
X112950000Y-106710000D03*
D11*
X94450000Y-104960000D03*
D12*
X103050000Y-104960000D03*
D11*
X111650000Y-104960000D03*
D12*
X103050000Y-108460000D03*
D11*
X94450000Y-108460000D03*
X111650000Y-108460000D03*
D13*
X116150000Y-105760000D03*
D14*
X91350000Y-106710000D03*
D15*
X115350000Y-106710000D03*
D13*
X116150000Y-107660000D03*
X90000000Y-105760000D03*
X90000000Y-107660000D03*
D10*
X114150000Y-106710000D03*
X180150000Y-101710000D03*
X180750000Y-101710000D03*
X181350000Y-101710000D03*
X181950000Y-101710000D03*
X182550000Y-101710000D03*
X184350000Y-101710000D03*
X183150000Y-101710000D03*
X183750000Y-101710000D03*
X184950000Y-101710000D03*
X186750000Y-101710000D03*
X185550000Y-101710000D03*
X189150000Y-101710000D03*
X187950000Y-101710000D03*
X188550000Y-101710000D03*
X187350000Y-101710000D03*
X186150000Y-101710000D03*
X189750000Y-101710000D03*
X191550000Y-101710000D03*
X190350000Y-101710000D03*
X197550000Y-101710000D03*
X193950000Y-101710000D03*
X192750000Y-101710000D03*
X193350000Y-101710000D03*
X195150000Y-101710000D03*
X196950000Y-101710000D03*
X198150000Y-101710000D03*
X192150000Y-101710000D03*
X196350000Y-101710000D03*
X190950000Y-101710000D03*
X198750000Y-101710000D03*
X194550000Y-101710000D03*
X195750000Y-101710000D03*
X200550000Y-101710000D03*
X199350000Y-101710000D03*
X199950000Y-101710000D03*
D11*
X181450000Y-99960000D03*
D12*
X190050000Y-99960000D03*
D11*
X198650000Y-99960000D03*
D12*
X190050000Y-103460000D03*
D11*
X181450000Y-103460000D03*
X198650000Y-103460000D03*
D13*
X203150000Y-100760000D03*
D14*
X178350000Y-101710000D03*
D15*
X202350000Y-101710000D03*
D13*
X203150000Y-102660000D03*
X177000000Y-100760000D03*
X177000000Y-102660000D03*
D10*
X201150000Y-101710000D03*
X151150000Y-101710000D03*
X151750000Y-101710000D03*
X152350000Y-101710000D03*
X152950000Y-101710000D03*
X153550000Y-101710000D03*
X155350000Y-101710000D03*
X154150000Y-101710000D03*
X154750000Y-101710000D03*
X155950000Y-101710000D03*
X157750000Y-101710000D03*
X156550000Y-101710000D03*
X160150000Y-101710000D03*
X158950000Y-101710000D03*
X159550000Y-101710000D03*
X158350000Y-101710000D03*
X157150000Y-101710000D03*
X160750000Y-101710000D03*
X162550000Y-101710000D03*
X161350000Y-101710000D03*
X168550000Y-101710000D03*
X164950000Y-101710000D03*
X163750000Y-101710000D03*
X164350000Y-101710000D03*
X166150000Y-101710000D03*
X167950000Y-101710000D03*
X169150000Y-101710000D03*
X163150000Y-101710000D03*
X167350000Y-101710000D03*
X161950000Y-101710000D03*
X169750000Y-101710000D03*
X165550000Y-101710000D03*
X166750000Y-101710000D03*
X171550000Y-101710000D03*
X170350000Y-101710000D03*
X170950000Y-101710000D03*
D11*
X152450000Y-99960000D03*
D12*
X161050000Y-99960000D03*
D11*
X169650000Y-99960000D03*
D12*
X161050000Y-103460000D03*
D11*
X152450000Y-103460000D03*
X169650000Y-103460000D03*
D13*
X174150000Y-100760000D03*
D14*
X149350000Y-101710000D03*
D15*
X173350000Y-101710000D03*
D13*
X174150000Y-102660000D03*
X148000000Y-100760000D03*
X148000000Y-102660000D03*
D10*
X172150000Y-101710000D03*
X122150000Y-101710000D03*
X122750000Y-101710000D03*
X123350000Y-101710000D03*
X123950000Y-101710000D03*
X124550000Y-101710000D03*
X126350000Y-101710000D03*
X125150000Y-101710000D03*
X125750000Y-101710000D03*
X126950000Y-101710000D03*
X128750000Y-101710000D03*
X127550000Y-101710000D03*
X131150000Y-101710000D03*
X129950000Y-101710000D03*
X130550000Y-101710000D03*
X129350000Y-101710000D03*
X128150000Y-101710000D03*
X131750000Y-101710000D03*
X133550000Y-101710000D03*
X132350000Y-101710000D03*
X139550000Y-101710000D03*
X135950000Y-101710000D03*
X134750000Y-101710000D03*
X135350000Y-101710000D03*
X137150000Y-101710000D03*
X138950000Y-101710000D03*
X140150000Y-101710000D03*
X134150000Y-101710000D03*
X138350000Y-101710000D03*
X132950000Y-101710000D03*
X140750000Y-101710000D03*
X136550000Y-101710000D03*
X137750000Y-101710000D03*
X142550000Y-101710000D03*
X141350000Y-101710000D03*
X141950000Y-101710000D03*
D11*
X123450000Y-99960000D03*
D12*
X132050000Y-99960000D03*
D11*
X140650000Y-99960000D03*
D12*
X132050000Y-103460000D03*
D11*
X123450000Y-103460000D03*
X140650000Y-103460000D03*
D13*
X145150000Y-100760000D03*
D14*
X120350000Y-101710000D03*
D15*
X144350000Y-101710000D03*
D13*
X145150000Y-102660000D03*
X119000000Y-100760000D03*
X119000000Y-102660000D03*
D10*
X143150000Y-101710000D03*
X93150000Y-101710000D03*
X93750000Y-101710000D03*
X94350000Y-101710000D03*
X94950000Y-101710000D03*
X95550000Y-101710000D03*
X97350000Y-101710000D03*
X96150000Y-101710000D03*
X96750000Y-101710000D03*
X97950000Y-101710000D03*
X99750000Y-101710000D03*
X98550000Y-101710000D03*
X102150000Y-101710000D03*
X100950000Y-101710000D03*
X101550000Y-101710000D03*
X100350000Y-101710000D03*
X99150000Y-101710000D03*
X102750000Y-101710000D03*
X104550000Y-101710000D03*
X103350000Y-101710000D03*
X110550000Y-101710000D03*
X106950000Y-101710000D03*
X105750000Y-101710000D03*
X106350000Y-101710000D03*
X108150000Y-101710000D03*
X109950000Y-101710000D03*
X111150000Y-101710000D03*
X105150000Y-101710000D03*
X109350000Y-101710000D03*
X103950000Y-101710000D03*
X111750000Y-101710000D03*
X107550000Y-101710000D03*
X108750000Y-101710000D03*
X113550000Y-101710000D03*
X112350000Y-101710000D03*
X112950000Y-101710000D03*
D11*
X94450000Y-99960000D03*
D12*
X103050000Y-99960000D03*
D11*
X111650000Y-99960000D03*
D12*
X103050000Y-103460000D03*
D11*
X94450000Y-103460000D03*
X111650000Y-103460000D03*
D13*
X116150000Y-100760000D03*
D14*
X91350000Y-101710000D03*
D15*
X115350000Y-101710000D03*
D13*
X116150000Y-102660000D03*
X90000000Y-100760000D03*
X90000000Y-102660000D03*
D10*
X114150000Y-101710000D03*
X180150000Y-96710000D03*
X180750000Y-96710000D03*
X181350000Y-96710000D03*
X181950000Y-96710000D03*
X182550000Y-96710000D03*
X184350000Y-96710000D03*
X183150000Y-96710000D03*
X183750000Y-96710000D03*
X184950000Y-96710000D03*
X186750000Y-96710000D03*
X185550000Y-96710000D03*
X189150000Y-96710000D03*
X187950000Y-96710000D03*
X188550000Y-96710000D03*
X187350000Y-96710000D03*
X186150000Y-96710000D03*
X189750000Y-96710000D03*
X191550000Y-96710000D03*
X190350000Y-96710000D03*
X197550000Y-96710000D03*
X193950000Y-96710000D03*
X192750000Y-96710000D03*
X193350000Y-96710000D03*
X195150000Y-96710000D03*
X196950000Y-96710000D03*
X198150000Y-96710000D03*
X192150000Y-96710000D03*
X196350000Y-96710000D03*
X190950000Y-96710000D03*
X198750000Y-96710000D03*
X194550000Y-96710000D03*
X195750000Y-96710000D03*
X200550000Y-96710000D03*
X199350000Y-96710000D03*
X199950000Y-96710000D03*
D11*
X181450000Y-94960000D03*
D12*
X190050000Y-94960000D03*
D11*
X198650000Y-94960000D03*
D12*
X190050000Y-98460000D03*
D11*
X181450000Y-98460000D03*
X198650000Y-98460000D03*
D13*
X203150000Y-95760000D03*
D14*
X178350000Y-96710000D03*
D15*
X202350000Y-96710000D03*
D13*
X203150000Y-97660000D03*
X177000000Y-95760000D03*
X177000000Y-97660000D03*
D10*
X201150000Y-96710000D03*
X151150000Y-96710000D03*
X151750000Y-96710000D03*
X152350000Y-96710000D03*
X152950000Y-96710000D03*
X153550000Y-96710000D03*
X155350000Y-96710000D03*
X154150000Y-96710000D03*
X154750000Y-96710000D03*
X155950000Y-96710000D03*
X157750000Y-96710000D03*
X156550000Y-96710000D03*
X160150000Y-96710000D03*
X158950000Y-96710000D03*
X159550000Y-96710000D03*
X158350000Y-96710000D03*
X157150000Y-96710000D03*
X160750000Y-96710000D03*
X162550000Y-96710000D03*
X161350000Y-96710000D03*
X168550000Y-96710000D03*
X164950000Y-96710000D03*
X163750000Y-96710000D03*
X164350000Y-96710000D03*
X166150000Y-96710000D03*
X167950000Y-96710000D03*
X169150000Y-96710000D03*
X163150000Y-96710000D03*
X167350000Y-96710000D03*
X161950000Y-96710000D03*
X169750000Y-96710000D03*
X165550000Y-96710000D03*
X166750000Y-96710000D03*
X171550000Y-96710000D03*
X170350000Y-96710000D03*
X170950000Y-96710000D03*
D11*
X152450000Y-94960000D03*
D12*
X161050000Y-94960000D03*
D11*
X169650000Y-94960000D03*
D12*
X161050000Y-98460000D03*
D11*
X152450000Y-98460000D03*
X169650000Y-98460000D03*
D13*
X174150000Y-95760000D03*
D14*
X149350000Y-96710000D03*
D15*
X173350000Y-96710000D03*
D13*
X174150000Y-97660000D03*
X148000000Y-95760000D03*
X148000000Y-97660000D03*
D10*
X172150000Y-96710000D03*
X122150000Y-96710000D03*
X122750000Y-96710000D03*
X123350000Y-96710000D03*
X123950000Y-96710000D03*
X124550000Y-96710000D03*
X126350000Y-96710000D03*
X125150000Y-96710000D03*
X125750000Y-96710000D03*
X126950000Y-96710000D03*
X128750000Y-96710000D03*
X127550000Y-96710000D03*
X131150000Y-96710000D03*
X129950000Y-96710000D03*
X130550000Y-96710000D03*
X129350000Y-96710000D03*
X128150000Y-96710000D03*
X131750000Y-96710000D03*
X133550000Y-96710000D03*
X132350000Y-96710000D03*
X139550000Y-96710000D03*
X135950000Y-96710000D03*
X134750000Y-96710000D03*
X135350000Y-96710000D03*
X137150000Y-96710000D03*
X138950000Y-96710000D03*
X140150000Y-96710000D03*
X134150000Y-96710000D03*
X138350000Y-96710000D03*
X132950000Y-96710000D03*
X140750000Y-96710000D03*
X136550000Y-96710000D03*
X137750000Y-96710000D03*
X142550000Y-96710000D03*
X141350000Y-96710000D03*
X141950000Y-96710000D03*
D11*
X123450000Y-94960000D03*
D12*
X132050000Y-94960000D03*
D11*
X140650000Y-94960000D03*
D12*
X132050000Y-98460000D03*
D11*
X123450000Y-98460000D03*
X140650000Y-98460000D03*
D13*
X145150000Y-95760000D03*
D14*
X120350000Y-96710000D03*
D15*
X144350000Y-96710000D03*
D13*
X145150000Y-97660000D03*
X119000000Y-95760000D03*
X119000000Y-97660000D03*
D10*
X143150000Y-96710000D03*
X93150000Y-96710000D03*
X93750000Y-96710000D03*
X94350000Y-96710000D03*
X94950000Y-96710000D03*
X95550000Y-96710000D03*
X97350000Y-96710000D03*
X96150000Y-96710000D03*
X96750000Y-96710000D03*
X97950000Y-96710000D03*
X99750000Y-96710000D03*
X98550000Y-96710000D03*
X102150000Y-96710000D03*
X100950000Y-96710000D03*
X101550000Y-96710000D03*
X100350000Y-96710000D03*
X99150000Y-96710000D03*
X102750000Y-96710000D03*
X104550000Y-96710000D03*
X103350000Y-96710000D03*
X110550000Y-96710000D03*
X106950000Y-96710000D03*
X105750000Y-96710000D03*
X106350000Y-96710000D03*
X108150000Y-96710000D03*
X109950000Y-96710000D03*
X111150000Y-96710000D03*
X105150000Y-96710000D03*
X109350000Y-96710000D03*
X103950000Y-96710000D03*
X111750000Y-96710000D03*
X107550000Y-96710000D03*
X108750000Y-96710000D03*
X113550000Y-96710000D03*
X112350000Y-96710000D03*
X112950000Y-96710000D03*
D11*
X94450000Y-94960000D03*
D12*
X103050000Y-94960000D03*
D11*
X111650000Y-94960000D03*
D12*
X103050000Y-98460000D03*
D11*
X94450000Y-98460000D03*
X111650000Y-98460000D03*
D13*
X116150000Y-95760000D03*
D14*
X91350000Y-96710000D03*
D15*
X115350000Y-96710000D03*
D13*
X116150000Y-97660000D03*
X90000000Y-95760000D03*
X90000000Y-97660000D03*
D10*
X114150000Y-96710000D03*
X180150000Y-91710000D03*
X180750000Y-91710000D03*
X181350000Y-91710000D03*
X181950000Y-91710000D03*
X182550000Y-91710000D03*
X184350000Y-91710000D03*
X183150000Y-91710000D03*
X183750000Y-91710000D03*
X184950000Y-91710000D03*
X186750000Y-91710000D03*
X185550000Y-91710000D03*
X189150000Y-91710000D03*
X187950000Y-91710000D03*
X188550000Y-91710000D03*
X187350000Y-91710000D03*
X186150000Y-91710000D03*
X189750000Y-91710000D03*
X191550000Y-91710000D03*
X190350000Y-91710000D03*
X197550000Y-91710000D03*
X193950000Y-91710000D03*
X192750000Y-91710000D03*
X193350000Y-91710000D03*
X195150000Y-91710000D03*
X196950000Y-91710000D03*
X198150000Y-91710000D03*
X192150000Y-91710000D03*
X196350000Y-91710000D03*
X190950000Y-91710000D03*
X198750000Y-91710000D03*
X194550000Y-91710000D03*
X195750000Y-91710000D03*
X200550000Y-91710000D03*
X199350000Y-91710000D03*
X199950000Y-91710000D03*
D11*
X181450000Y-89960000D03*
D12*
X190050000Y-89960000D03*
D11*
X198650000Y-89960000D03*
D12*
X190050000Y-93460000D03*
D11*
X181450000Y-93460000D03*
X198650000Y-93460000D03*
D13*
X203150000Y-90760000D03*
D14*
X178350000Y-91710000D03*
D15*
X202350000Y-91710000D03*
D13*
X203150000Y-92660000D03*
X177000000Y-90760000D03*
X177000000Y-92660000D03*
D10*
X201150000Y-91710000D03*
X151150000Y-91710000D03*
X151750000Y-91710000D03*
X152350000Y-91710000D03*
X152950000Y-91710000D03*
X153550000Y-91710000D03*
X155350000Y-91710000D03*
X154150000Y-91710000D03*
X154750000Y-91710000D03*
X155950000Y-91710000D03*
X157750000Y-91710000D03*
X156550000Y-91710000D03*
X160150000Y-91710000D03*
X158950000Y-91710000D03*
X159550000Y-91710000D03*
X158350000Y-91710000D03*
X157150000Y-91710000D03*
X160750000Y-91710000D03*
X162550000Y-91710000D03*
X161350000Y-91710000D03*
X168550000Y-91710000D03*
X164950000Y-91710000D03*
X163750000Y-91710000D03*
X164350000Y-91710000D03*
X166150000Y-91710000D03*
X167950000Y-91710000D03*
X169150000Y-91710000D03*
X163150000Y-91710000D03*
X167350000Y-91710000D03*
X161950000Y-91710000D03*
X169750000Y-91710000D03*
X165550000Y-91710000D03*
X166750000Y-91710000D03*
X171550000Y-91710000D03*
X170350000Y-91710000D03*
X170950000Y-91710000D03*
D11*
X152450000Y-89960000D03*
D12*
X161050000Y-89960000D03*
D11*
X169650000Y-89960000D03*
D12*
X161050000Y-93460000D03*
D11*
X152450000Y-93460000D03*
X169650000Y-93460000D03*
D13*
X174150000Y-90760000D03*
D14*
X149350000Y-91710000D03*
D15*
X173350000Y-91710000D03*
D13*
X174150000Y-92660000D03*
X148000000Y-90760000D03*
X148000000Y-92660000D03*
D10*
X172150000Y-91710000D03*
X122150000Y-91710000D03*
X122750000Y-91710000D03*
X123350000Y-91710000D03*
X123950000Y-91710000D03*
X124550000Y-91710000D03*
X126350000Y-91710000D03*
X125150000Y-91710000D03*
X125750000Y-91710000D03*
X126950000Y-91710000D03*
X128750000Y-91710000D03*
X127550000Y-91710000D03*
X131150000Y-91710000D03*
X129950000Y-91710000D03*
X130550000Y-91710000D03*
X129350000Y-91710000D03*
X128150000Y-91710000D03*
X131750000Y-91710000D03*
X133550000Y-91710000D03*
X132350000Y-91710000D03*
X139550000Y-91710000D03*
X135950000Y-91710000D03*
X134750000Y-91710000D03*
X135350000Y-91710000D03*
X137150000Y-91710000D03*
X138950000Y-91710000D03*
X140150000Y-91710000D03*
X134150000Y-91710000D03*
X138350000Y-91710000D03*
X132950000Y-91710000D03*
X140750000Y-91710000D03*
X136550000Y-91710000D03*
X137750000Y-91710000D03*
X142550000Y-91710000D03*
X141350000Y-91710000D03*
X141950000Y-91710000D03*
D11*
X123450000Y-89960000D03*
D12*
X132050000Y-89960000D03*
D11*
X140650000Y-89960000D03*
D12*
X132050000Y-93460000D03*
D11*
X123450000Y-93460000D03*
X140650000Y-93460000D03*
D13*
X145150000Y-90760000D03*
D14*
X120350000Y-91710000D03*
D15*
X144350000Y-91710000D03*
D13*
X145150000Y-92660000D03*
X119000000Y-90760000D03*
X119000000Y-92660000D03*
D10*
X143150000Y-91710000D03*
X93150000Y-91710000D03*
X93750000Y-91710000D03*
X94350000Y-91710000D03*
X94950000Y-91710000D03*
X95550000Y-91710000D03*
X97350000Y-91710000D03*
X96150000Y-91710000D03*
X96750000Y-91710000D03*
X97950000Y-91710000D03*
X99750000Y-91710000D03*
X98550000Y-91710000D03*
X102150000Y-91710000D03*
X100950000Y-91710000D03*
X101550000Y-91710000D03*
X100350000Y-91710000D03*
X99150000Y-91710000D03*
X102750000Y-91710000D03*
X104550000Y-91710000D03*
X103350000Y-91710000D03*
X110550000Y-91710000D03*
X106950000Y-91710000D03*
X105750000Y-91710000D03*
X106350000Y-91710000D03*
X108150000Y-91710000D03*
X109950000Y-91710000D03*
X111150000Y-91710000D03*
X105150000Y-91710000D03*
X109350000Y-91710000D03*
X103950000Y-91710000D03*
X111750000Y-91710000D03*
X107550000Y-91710000D03*
X108750000Y-91710000D03*
X113550000Y-91710000D03*
X112350000Y-91710000D03*
X112950000Y-91710000D03*
D11*
X94450000Y-89960000D03*
D12*
X103050000Y-89960000D03*
D11*
X111650000Y-89960000D03*
D12*
X103050000Y-93460000D03*
D11*
X94450000Y-93460000D03*
X111650000Y-93460000D03*
D13*
X116150000Y-90760000D03*
D14*
X91350000Y-91710000D03*
D15*
X115350000Y-91710000D03*
D13*
X116150000Y-92660000D03*
X90000000Y-90760000D03*
X90000000Y-92660000D03*
D10*
X114150000Y-91710000D03*
X180150000Y-86710000D03*
X180750000Y-86710000D03*
X181350000Y-86710000D03*
X181950000Y-86710000D03*
X182550000Y-86710000D03*
X184350000Y-86710000D03*
X183150000Y-86710000D03*
X183750000Y-86710000D03*
X184950000Y-86710000D03*
X186750000Y-86710000D03*
X185550000Y-86710000D03*
X189150000Y-86710000D03*
X187950000Y-86710000D03*
X188550000Y-86710000D03*
X187350000Y-86710000D03*
X186150000Y-86710000D03*
X189750000Y-86710000D03*
X191550000Y-86710000D03*
X190350000Y-86710000D03*
X197550000Y-86710000D03*
X193950000Y-86710000D03*
X192750000Y-86710000D03*
X193350000Y-86710000D03*
X195150000Y-86710000D03*
X196950000Y-86710000D03*
X198150000Y-86710000D03*
X192150000Y-86710000D03*
X196350000Y-86710000D03*
X190950000Y-86710000D03*
X198750000Y-86710000D03*
X194550000Y-86710000D03*
X195750000Y-86710000D03*
X200550000Y-86710000D03*
X199350000Y-86710000D03*
X199950000Y-86710000D03*
D11*
X181450000Y-84960000D03*
D12*
X190050000Y-84960000D03*
D11*
X198650000Y-84960000D03*
D12*
X190050000Y-88460000D03*
D11*
X181450000Y-88460000D03*
X198650000Y-88460000D03*
D13*
X203150000Y-85760000D03*
D14*
X178350000Y-86710000D03*
D15*
X202350000Y-86710000D03*
D13*
X203150000Y-87660000D03*
X177000000Y-85760000D03*
X177000000Y-87660000D03*
D10*
X201150000Y-86710000D03*
X151150000Y-86710000D03*
X151750000Y-86710000D03*
X152350000Y-86710000D03*
X152950000Y-86710000D03*
X153550000Y-86710000D03*
X155350000Y-86710000D03*
X154150000Y-86710000D03*
X154750000Y-86710000D03*
X155950000Y-86710000D03*
X157750000Y-86710000D03*
X156550000Y-86710000D03*
X160150000Y-86710000D03*
X158950000Y-86710000D03*
X159550000Y-86710000D03*
X158350000Y-86710000D03*
X157150000Y-86710000D03*
X160750000Y-86710000D03*
X162550000Y-86710000D03*
X161350000Y-86710000D03*
X168550000Y-86710000D03*
X164950000Y-86710000D03*
X163750000Y-86710000D03*
X164350000Y-86710000D03*
X166150000Y-86710000D03*
X167950000Y-86710000D03*
X169150000Y-86710000D03*
X163150000Y-86710000D03*
X167350000Y-86710000D03*
X161950000Y-86710000D03*
X169750000Y-86710000D03*
X165550000Y-86710000D03*
X166750000Y-86710000D03*
X171550000Y-86710000D03*
X170350000Y-86710000D03*
X170950000Y-86710000D03*
D11*
X152450000Y-84960000D03*
D12*
X161050000Y-84960000D03*
D11*
X169650000Y-84960000D03*
D12*
X161050000Y-88460000D03*
D11*
X152450000Y-88460000D03*
X169650000Y-88460000D03*
D13*
X174150000Y-85760000D03*
D14*
X149350000Y-86710000D03*
D15*
X173350000Y-86710000D03*
D13*
X174150000Y-87660000D03*
X148000000Y-85760000D03*
X148000000Y-87660000D03*
D10*
X172150000Y-86710000D03*
X122150000Y-86710000D03*
X122750000Y-86710000D03*
X123350000Y-86710000D03*
X123950000Y-86710000D03*
X124550000Y-86710000D03*
X126350000Y-86710000D03*
X125150000Y-86710000D03*
X125750000Y-86710000D03*
X126950000Y-86710000D03*
X128750000Y-86710000D03*
X127550000Y-86710000D03*
X131150000Y-86710000D03*
X129950000Y-86710000D03*
X130550000Y-86710000D03*
X129350000Y-86710000D03*
X128150000Y-86710000D03*
X131750000Y-86710000D03*
X133550000Y-86710000D03*
X132350000Y-86710000D03*
X139550000Y-86710000D03*
X135950000Y-86710000D03*
X134750000Y-86710000D03*
X135350000Y-86710000D03*
X137150000Y-86710000D03*
X138950000Y-86710000D03*
X140150000Y-86710000D03*
X134150000Y-86710000D03*
X138350000Y-86710000D03*
X132950000Y-86710000D03*
X140750000Y-86710000D03*
X136550000Y-86710000D03*
X137750000Y-86710000D03*
X142550000Y-86710000D03*
X141350000Y-86710000D03*
X141950000Y-86710000D03*
D11*
X123450000Y-84960000D03*
D12*
X132050000Y-84960000D03*
D11*
X140650000Y-84960000D03*
D12*
X132050000Y-88460000D03*
D11*
X123450000Y-88460000D03*
X140650000Y-88460000D03*
D13*
X145150000Y-85760000D03*
D14*
X120350000Y-86710000D03*
D15*
X144350000Y-86710000D03*
D13*
X145150000Y-87660000D03*
X119000000Y-85760000D03*
X119000000Y-87660000D03*
D10*
X143150000Y-86710000D03*
X93150000Y-86710000D03*
X93750000Y-86710000D03*
X94350000Y-86710000D03*
X94950000Y-86710000D03*
X95550000Y-86710000D03*
X97350000Y-86710000D03*
X96150000Y-86710000D03*
X96750000Y-86710000D03*
X97950000Y-86710000D03*
X99750000Y-86710000D03*
X98550000Y-86710000D03*
X102150000Y-86710000D03*
X100950000Y-86710000D03*
X101550000Y-86710000D03*
X100350000Y-86710000D03*
X99150000Y-86710000D03*
X102750000Y-86710000D03*
X104550000Y-86710000D03*
X103350000Y-86710000D03*
X110550000Y-86710000D03*
X106950000Y-86710000D03*
X105750000Y-86710000D03*
X106350000Y-86710000D03*
X108150000Y-86710000D03*
X109950000Y-86710000D03*
X111150000Y-86710000D03*
X105150000Y-86710000D03*
X109350000Y-86710000D03*
X103950000Y-86710000D03*
X111750000Y-86710000D03*
X107550000Y-86710000D03*
X108750000Y-86710000D03*
X113550000Y-86710000D03*
X112350000Y-86710000D03*
X112950000Y-86710000D03*
D11*
X94450000Y-84960000D03*
D12*
X103050000Y-84960000D03*
D11*
X111650000Y-84960000D03*
D12*
X103050000Y-88460000D03*
D11*
X94450000Y-88460000D03*
X111650000Y-88460000D03*
D13*
X116150000Y-85760000D03*
D14*
X91350000Y-86710000D03*
D15*
X115350000Y-86710000D03*
D13*
X116150000Y-87660000D03*
X90000000Y-85760000D03*
X90000000Y-87660000D03*
D10*
X114150000Y-86710000D03*
X180150000Y-81710000D03*
X180750000Y-81710000D03*
X181350000Y-81710000D03*
X181950000Y-81710000D03*
X182550000Y-81710000D03*
X184350000Y-81710000D03*
X183150000Y-81710000D03*
X183750000Y-81710000D03*
X184950000Y-81710000D03*
X186750000Y-81710000D03*
X185550000Y-81710000D03*
X189150000Y-81710000D03*
X187950000Y-81710000D03*
X188550000Y-81710000D03*
X187350000Y-81710000D03*
X186150000Y-81710000D03*
X189750000Y-81710000D03*
X191550000Y-81710000D03*
X190350000Y-81710000D03*
X197550000Y-81710000D03*
X193950000Y-81710000D03*
X192750000Y-81710000D03*
X193350000Y-81710000D03*
X195150000Y-81710000D03*
X196950000Y-81710000D03*
X198150000Y-81710000D03*
X192150000Y-81710000D03*
X196350000Y-81710000D03*
X190950000Y-81710000D03*
X198750000Y-81710000D03*
X194550000Y-81710000D03*
X195750000Y-81710000D03*
X200550000Y-81710000D03*
X199350000Y-81710000D03*
X199950000Y-81710000D03*
D11*
X181450000Y-79960000D03*
D12*
X190050000Y-79960000D03*
D11*
X198650000Y-79960000D03*
D12*
X190050000Y-83460000D03*
D11*
X181450000Y-83460000D03*
X198650000Y-83460000D03*
D13*
X203150000Y-80760000D03*
D14*
X178350000Y-81710000D03*
D15*
X202350000Y-81710000D03*
D13*
X203150000Y-82660000D03*
X177000000Y-80760000D03*
X177000000Y-82660000D03*
D10*
X201150000Y-81710000D03*
X151150000Y-81710000D03*
X151750000Y-81710000D03*
X152350000Y-81710000D03*
X152950000Y-81710000D03*
X153550000Y-81710000D03*
X155350000Y-81710000D03*
X154150000Y-81710000D03*
X154750000Y-81710000D03*
X155950000Y-81710000D03*
X157750000Y-81710000D03*
X156550000Y-81710000D03*
X160150000Y-81710000D03*
X158950000Y-81710000D03*
X159550000Y-81710000D03*
X158350000Y-81710000D03*
X157150000Y-81710000D03*
X160750000Y-81710000D03*
X162550000Y-81710000D03*
X161350000Y-81710000D03*
X168550000Y-81710000D03*
X164950000Y-81710000D03*
X163750000Y-81710000D03*
X164350000Y-81710000D03*
X166150000Y-81710000D03*
X167950000Y-81710000D03*
X169150000Y-81710000D03*
X163150000Y-81710000D03*
X167350000Y-81710000D03*
X161950000Y-81710000D03*
X169750000Y-81710000D03*
X165550000Y-81710000D03*
X166750000Y-81710000D03*
X171550000Y-81710000D03*
X170350000Y-81710000D03*
X170950000Y-81710000D03*
D11*
X152450000Y-79960000D03*
D12*
X161050000Y-79960000D03*
D11*
X169650000Y-79960000D03*
D12*
X161050000Y-83460000D03*
D11*
X152450000Y-83460000D03*
X169650000Y-83460000D03*
D13*
X174150000Y-80760000D03*
D14*
X149350000Y-81710000D03*
D15*
X173350000Y-81710000D03*
D13*
X174150000Y-82660000D03*
X148000000Y-80760000D03*
X148000000Y-82660000D03*
D10*
X172150000Y-81710000D03*
X122150000Y-81710000D03*
X122750000Y-81710000D03*
X123350000Y-81710000D03*
X123950000Y-81710000D03*
X124550000Y-81710000D03*
X126350000Y-81710000D03*
X125150000Y-81710000D03*
X125750000Y-81710000D03*
X126950000Y-81710000D03*
X128750000Y-81710000D03*
X127550000Y-81710000D03*
X131150000Y-81710000D03*
X129950000Y-81710000D03*
X130550000Y-81710000D03*
X129350000Y-81710000D03*
X128150000Y-81710000D03*
X131750000Y-81710000D03*
X133550000Y-81710000D03*
X132350000Y-81710000D03*
X139550000Y-81710000D03*
X135950000Y-81710000D03*
X134750000Y-81710000D03*
X135350000Y-81710000D03*
X137150000Y-81710000D03*
X138950000Y-81710000D03*
X140150000Y-81710000D03*
X134150000Y-81710000D03*
X138350000Y-81710000D03*
X132950000Y-81710000D03*
X140750000Y-81710000D03*
X136550000Y-81710000D03*
X137750000Y-81710000D03*
X142550000Y-81710000D03*
X141350000Y-81710000D03*
X141950000Y-81710000D03*
D11*
X123450000Y-79960000D03*
D12*
X132050000Y-79960000D03*
D11*
X140650000Y-79960000D03*
D12*
X132050000Y-83460000D03*
D11*
X123450000Y-83460000D03*
X140650000Y-83460000D03*
D13*
X145150000Y-80760000D03*
D14*
X120350000Y-81710000D03*
D15*
X144350000Y-81710000D03*
D13*
X145150000Y-82660000D03*
X119000000Y-80760000D03*
X119000000Y-82660000D03*
D10*
X143150000Y-81710000D03*
X93150000Y-81710000D03*
X93750000Y-81710000D03*
X94350000Y-81710000D03*
X94950000Y-81710000D03*
X95550000Y-81710000D03*
X97350000Y-81710000D03*
X96150000Y-81710000D03*
X96750000Y-81710000D03*
X97950000Y-81710000D03*
X99750000Y-81710000D03*
X98550000Y-81710000D03*
X102150000Y-81710000D03*
X100950000Y-81710000D03*
X101550000Y-81710000D03*
X100350000Y-81710000D03*
X99150000Y-81710000D03*
X102750000Y-81710000D03*
X104550000Y-81710000D03*
X103350000Y-81710000D03*
X110550000Y-81710000D03*
X106950000Y-81710000D03*
X105750000Y-81710000D03*
X106350000Y-81710000D03*
X108150000Y-81710000D03*
X109950000Y-81710000D03*
X111150000Y-81710000D03*
X105150000Y-81710000D03*
X109350000Y-81710000D03*
X103950000Y-81710000D03*
X111750000Y-81710000D03*
X107550000Y-81710000D03*
X108750000Y-81710000D03*
X113550000Y-81710000D03*
X112350000Y-81710000D03*
X112950000Y-81710000D03*
D11*
X94450000Y-79960000D03*
D12*
X103050000Y-79960000D03*
D11*
X111650000Y-79960000D03*
D12*
X103050000Y-83460000D03*
D11*
X94450000Y-83460000D03*
X111650000Y-83460000D03*
D13*
X116150000Y-80760000D03*
D14*
X91350000Y-81710000D03*
D15*
X115350000Y-81710000D03*
D13*
X116150000Y-82660000D03*
X90000000Y-80760000D03*
X90000000Y-82660000D03*
D10*
X114150000Y-81710000D03*
X180150000Y-76710000D03*
X180750000Y-76710000D03*
X181350000Y-76710000D03*
X181950000Y-76710000D03*
X182550000Y-76710000D03*
X184350000Y-76710000D03*
X183150000Y-76710000D03*
X183750000Y-76710000D03*
X184950000Y-76710000D03*
X186750000Y-76710000D03*
X185550000Y-76710000D03*
X189150000Y-76710000D03*
X187950000Y-76710000D03*
X188550000Y-76710000D03*
X187350000Y-76710000D03*
X186150000Y-76710000D03*
X189750000Y-76710000D03*
X191550000Y-76710000D03*
X190350000Y-76710000D03*
X197550000Y-76710000D03*
X193950000Y-76710000D03*
X192750000Y-76710000D03*
X193350000Y-76710000D03*
X195150000Y-76710000D03*
X196950000Y-76710000D03*
X198150000Y-76710000D03*
X192150000Y-76710000D03*
X196350000Y-76710000D03*
X190950000Y-76710000D03*
X198750000Y-76710000D03*
X194550000Y-76710000D03*
X195750000Y-76710000D03*
X200550000Y-76710000D03*
X199350000Y-76710000D03*
X199950000Y-76710000D03*
D11*
X181450000Y-74960000D03*
D12*
X190050000Y-74960000D03*
D11*
X198650000Y-74960000D03*
D12*
X190050000Y-78460000D03*
D11*
X181450000Y-78460000D03*
X198650000Y-78460000D03*
D13*
X203150000Y-75760000D03*
D14*
X178350000Y-76710000D03*
D15*
X202350000Y-76710000D03*
D13*
X203150000Y-77660000D03*
X177000000Y-75760000D03*
X177000000Y-77660000D03*
D10*
X201150000Y-76710000D03*
X151150000Y-76710000D03*
X151750000Y-76710000D03*
X152350000Y-76710000D03*
X152950000Y-76710000D03*
X153550000Y-76710000D03*
X155350000Y-76710000D03*
X154150000Y-76710000D03*
X154750000Y-76710000D03*
X155950000Y-76710000D03*
X157750000Y-76710000D03*
X156550000Y-76710000D03*
X160150000Y-76710000D03*
X158950000Y-76710000D03*
X159550000Y-76710000D03*
X158350000Y-76710000D03*
X157150000Y-76710000D03*
X160750000Y-76710000D03*
X162550000Y-76710000D03*
X161350000Y-76710000D03*
X168550000Y-76710000D03*
X164950000Y-76710000D03*
X163750000Y-76710000D03*
X164350000Y-76710000D03*
X166150000Y-76710000D03*
X167950000Y-76710000D03*
X169150000Y-76710000D03*
X163150000Y-76710000D03*
X167350000Y-76710000D03*
X161950000Y-76710000D03*
X169750000Y-76710000D03*
X165550000Y-76710000D03*
X166750000Y-76710000D03*
X171550000Y-76710000D03*
X170350000Y-76710000D03*
X170950000Y-76710000D03*
D11*
X152450000Y-74960000D03*
D12*
X161050000Y-74960000D03*
D11*
X169650000Y-74960000D03*
D12*
X161050000Y-78460000D03*
D11*
X152450000Y-78460000D03*
X169650000Y-78460000D03*
D13*
X174150000Y-75760000D03*
D14*
X149350000Y-76710000D03*
D15*
X173350000Y-76710000D03*
D13*
X174150000Y-77660000D03*
X148000000Y-75760000D03*
X148000000Y-77660000D03*
D10*
X172150000Y-76710000D03*
X122150000Y-76710000D03*
X122750000Y-76710000D03*
X123350000Y-76710000D03*
X123950000Y-76710000D03*
X124550000Y-76710000D03*
X126350000Y-76710000D03*
X125150000Y-76710000D03*
X125750000Y-76710000D03*
X126950000Y-76710000D03*
X128750000Y-76710000D03*
X127550000Y-76710000D03*
X131150000Y-76710000D03*
X129950000Y-76710000D03*
X130550000Y-76710000D03*
X129350000Y-76710000D03*
X128150000Y-76710000D03*
X131750000Y-76710000D03*
X133550000Y-76710000D03*
X132350000Y-76710000D03*
X139550000Y-76710000D03*
X135950000Y-76710000D03*
X134750000Y-76710000D03*
X135350000Y-76710000D03*
X137150000Y-76710000D03*
X138950000Y-76710000D03*
X140150000Y-76710000D03*
X134150000Y-76710000D03*
X138350000Y-76710000D03*
X132950000Y-76710000D03*
X140750000Y-76710000D03*
X136550000Y-76710000D03*
X137750000Y-76710000D03*
X142550000Y-76710000D03*
X141350000Y-76710000D03*
X141950000Y-76710000D03*
D11*
X123450000Y-74960000D03*
D12*
X132050000Y-74960000D03*
D11*
X140650000Y-74960000D03*
D12*
X132050000Y-78460000D03*
D11*
X123450000Y-78460000D03*
X140650000Y-78460000D03*
D13*
X145150000Y-75760000D03*
D14*
X120350000Y-76710000D03*
D15*
X144350000Y-76710000D03*
D13*
X145150000Y-77660000D03*
X119000000Y-75760000D03*
X119000000Y-77660000D03*
D10*
X143150000Y-76710000D03*
X93150000Y-76710000D03*
X93750000Y-76710000D03*
X94350000Y-76710000D03*
X94950000Y-76710000D03*
X95550000Y-76710000D03*
X97350000Y-76710000D03*
X96150000Y-76710000D03*
X96750000Y-76710000D03*
X97950000Y-76710000D03*
X99750000Y-76710000D03*
X98550000Y-76710000D03*
X102150000Y-76710000D03*
X100950000Y-76710000D03*
X101550000Y-76710000D03*
X100350000Y-76710000D03*
X99150000Y-76710000D03*
X102750000Y-76710000D03*
X104550000Y-76710000D03*
X103350000Y-76710000D03*
X110550000Y-76710000D03*
X106950000Y-76710000D03*
X105750000Y-76710000D03*
X106350000Y-76710000D03*
X108150000Y-76710000D03*
X109950000Y-76710000D03*
X111150000Y-76710000D03*
X105150000Y-76710000D03*
X109350000Y-76710000D03*
X103950000Y-76710000D03*
X111750000Y-76710000D03*
X107550000Y-76710000D03*
X108750000Y-76710000D03*
X113550000Y-76710000D03*
X112350000Y-76710000D03*
X112950000Y-76710000D03*
D11*
X94450000Y-74960000D03*
D12*
X103050000Y-74960000D03*
D11*
X111650000Y-74960000D03*
D12*
X103050000Y-78460000D03*
D11*
X94450000Y-78460000D03*
X111650000Y-78460000D03*
D13*
X116150000Y-75760000D03*
D14*
X91350000Y-76710000D03*
D15*
X115350000Y-76710000D03*
D13*
X116150000Y-77660000D03*
X90000000Y-75760000D03*
X90000000Y-77660000D03*
D10*
X114150000Y-76710000D03*
X180150000Y-71710000D03*
X180750000Y-71710000D03*
X181350000Y-71710000D03*
X181950000Y-71710000D03*
X182550000Y-71710000D03*
X184350000Y-71710000D03*
X183150000Y-71710000D03*
X183750000Y-71710000D03*
X184950000Y-71710000D03*
X186750000Y-71710000D03*
X185550000Y-71710000D03*
X189150000Y-71710000D03*
X187950000Y-71710000D03*
X188550000Y-71710000D03*
X187350000Y-71710000D03*
X186150000Y-71710000D03*
X189750000Y-71710000D03*
X191550000Y-71710000D03*
X190350000Y-71710000D03*
X197550000Y-71710000D03*
X193950000Y-71710000D03*
X192750000Y-71710000D03*
X193350000Y-71710000D03*
X195150000Y-71710000D03*
X196950000Y-71710000D03*
X198150000Y-71710000D03*
X192150000Y-71710000D03*
X196350000Y-71710000D03*
X190950000Y-71710000D03*
X198750000Y-71710000D03*
X194550000Y-71710000D03*
X195750000Y-71710000D03*
X200550000Y-71710000D03*
X199350000Y-71710000D03*
X199950000Y-71710000D03*
D11*
X181450000Y-69960000D03*
D12*
X190050000Y-69960000D03*
D11*
X198650000Y-69960000D03*
D12*
X190050000Y-73460000D03*
D11*
X181450000Y-73460000D03*
X198650000Y-73460000D03*
D13*
X203150000Y-70760000D03*
D14*
X178350000Y-71710000D03*
D15*
X202350000Y-71710000D03*
D13*
X203150000Y-72660000D03*
X177000000Y-70760000D03*
X177000000Y-72660000D03*
D10*
X201150000Y-71710000D03*
X151150000Y-71710000D03*
X151750000Y-71710000D03*
X152350000Y-71710000D03*
X152950000Y-71710000D03*
X153550000Y-71710000D03*
X155350000Y-71710000D03*
X154150000Y-71710000D03*
X154750000Y-71710000D03*
X155950000Y-71710000D03*
X157750000Y-71710000D03*
X156550000Y-71710000D03*
X160150000Y-71710000D03*
X158950000Y-71710000D03*
X159550000Y-71710000D03*
X158350000Y-71710000D03*
X157150000Y-71710000D03*
X160750000Y-71710000D03*
X162550000Y-71710000D03*
X161350000Y-71710000D03*
X168550000Y-71710000D03*
X164950000Y-71710000D03*
X163750000Y-71710000D03*
X164350000Y-71710000D03*
X166150000Y-71710000D03*
X167950000Y-71710000D03*
X169150000Y-71710000D03*
X163150000Y-71710000D03*
X167350000Y-71710000D03*
X161950000Y-71710000D03*
X169750000Y-71710000D03*
X165550000Y-71710000D03*
X166750000Y-71710000D03*
X171550000Y-71710000D03*
X170350000Y-71710000D03*
X170950000Y-71710000D03*
D11*
X152450000Y-69960000D03*
D12*
X161050000Y-69960000D03*
D11*
X169650000Y-69960000D03*
D12*
X161050000Y-73460000D03*
D11*
X152450000Y-73460000D03*
X169650000Y-73460000D03*
D13*
X174150000Y-70760000D03*
D14*
X149350000Y-71710000D03*
D15*
X173350000Y-71710000D03*
D13*
X174150000Y-72660000D03*
X148000000Y-70760000D03*
X148000000Y-72660000D03*
D10*
X172150000Y-71710000D03*
X122150000Y-71710000D03*
X122750000Y-71710000D03*
X123350000Y-71710000D03*
X123950000Y-71710000D03*
X124550000Y-71710000D03*
X126350000Y-71710000D03*
X125150000Y-71710000D03*
X125750000Y-71710000D03*
X126950000Y-71710000D03*
X128750000Y-71710000D03*
X127550000Y-71710000D03*
X131150000Y-71710000D03*
X129950000Y-71710000D03*
X130550000Y-71710000D03*
X129350000Y-71710000D03*
X128150000Y-71710000D03*
X131750000Y-71710000D03*
X133550000Y-71710000D03*
X132350000Y-71710000D03*
X139550000Y-71710000D03*
X135950000Y-71710000D03*
X134750000Y-71710000D03*
X135350000Y-71710000D03*
X137150000Y-71710000D03*
X138950000Y-71710000D03*
X140150000Y-71710000D03*
X134150000Y-71710000D03*
X138350000Y-71710000D03*
X132950000Y-71710000D03*
X140750000Y-71710000D03*
X136550000Y-71710000D03*
X137750000Y-71710000D03*
X142550000Y-71710000D03*
X141350000Y-71710000D03*
X141950000Y-71710000D03*
D11*
X123450000Y-69960000D03*
D12*
X132050000Y-69960000D03*
D11*
X140650000Y-69960000D03*
D12*
X132050000Y-73460000D03*
D11*
X123450000Y-73460000D03*
X140650000Y-73460000D03*
D13*
X145150000Y-70760000D03*
D14*
X120350000Y-71710000D03*
D15*
X144350000Y-71710000D03*
D13*
X145150000Y-72660000D03*
X119000000Y-70760000D03*
X119000000Y-72660000D03*
D10*
X143150000Y-71710000D03*
X93150000Y-71710000D03*
X93750000Y-71710000D03*
X94350000Y-71710000D03*
X94950000Y-71710000D03*
X95550000Y-71710000D03*
X97350000Y-71710000D03*
X96150000Y-71710000D03*
X96750000Y-71710000D03*
X97950000Y-71710000D03*
X99750000Y-71710000D03*
X98550000Y-71710000D03*
X102150000Y-71710000D03*
X100950000Y-71710000D03*
X101550000Y-71710000D03*
X100350000Y-71710000D03*
X99150000Y-71710000D03*
X102750000Y-71710000D03*
X104550000Y-71710000D03*
X103350000Y-71710000D03*
X110550000Y-71710000D03*
X106950000Y-71710000D03*
X105750000Y-71710000D03*
X106350000Y-71710000D03*
X108150000Y-71710000D03*
X109950000Y-71710000D03*
X111150000Y-71710000D03*
X105150000Y-71710000D03*
X109350000Y-71710000D03*
X103950000Y-71710000D03*
X111750000Y-71710000D03*
X107550000Y-71710000D03*
X108750000Y-71710000D03*
X113550000Y-71710000D03*
X112350000Y-71710000D03*
X112950000Y-71710000D03*
D11*
X94450000Y-69960000D03*
D12*
X103050000Y-69960000D03*
D11*
X111650000Y-69960000D03*
D12*
X103050000Y-73460000D03*
D11*
X94450000Y-73460000D03*
X111650000Y-73460000D03*
D13*
X116150000Y-70760000D03*
D14*
X91350000Y-71710000D03*
D15*
X115350000Y-71710000D03*
D13*
X116150000Y-72660000D03*
X90000000Y-70760000D03*
X90000000Y-72660000D03*
D10*
X114150000Y-71710000D03*
X180150000Y-66710000D03*
X180750000Y-66710000D03*
X181350000Y-66710000D03*
X181950000Y-66710000D03*
X182550000Y-66710000D03*
X184350000Y-66710000D03*
X183150000Y-66710000D03*
X183750000Y-66710000D03*
X184950000Y-66710000D03*
X186750000Y-66710000D03*
X185550000Y-66710000D03*
X189150000Y-66710000D03*
X187950000Y-66710000D03*
X188550000Y-66710000D03*
X187350000Y-66710000D03*
X186150000Y-66710000D03*
X189750000Y-66710000D03*
X191550000Y-66710000D03*
X190350000Y-66710000D03*
X197550000Y-66710000D03*
X193950000Y-66710000D03*
X192750000Y-66710000D03*
X193350000Y-66710000D03*
X195150000Y-66710000D03*
X196950000Y-66710000D03*
X198150000Y-66710000D03*
X192150000Y-66710000D03*
X196350000Y-66710000D03*
X190950000Y-66710000D03*
X198750000Y-66710000D03*
X194550000Y-66710000D03*
X195750000Y-66710000D03*
X200550000Y-66710000D03*
X199350000Y-66710000D03*
X199950000Y-66710000D03*
D11*
X181450000Y-64960000D03*
D12*
X190050000Y-64960000D03*
D11*
X198650000Y-64960000D03*
D12*
X190050000Y-68460000D03*
D11*
X181450000Y-68460000D03*
X198650000Y-68460000D03*
D13*
X203150000Y-65760000D03*
D14*
X178350000Y-66710000D03*
D15*
X202350000Y-66710000D03*
D13*
X203150000Y-67660000D03*
X177000000Y-65760000D03*
X177000000Y-67660000D03*
D10*
X201150000Y-66710000D03*
X151150000Y-66710000D03*
X151750000Y-66710000D03*
X152350000Y-66710000D03*
X152950000Y-66710000D03*
X153550000Y-66710000D03*
X155350000Y-66710000D03*
X154150000Y-66710000D03*
X154750000Y-66710000D03*
X155950000Y-66710000D03*
X157750000Y-66710000D03*
X156550000Y-66710000D03*
X160150000Y-66710000D03*
X158950000Y-66710000D03*
X159550000Y-66710000D03*
X158350000Y-66710000D03*
X157150000Y-66710000D03*
X160750000Y-66710000D03*
X162550000Y-66710000D03*
X161350000Y-66710000D03*
X168550000Y-66710000D03*
X164950000Y-66710000D03*
X163750000Y-66710000D03*
X164350000Y-66710000D03*
X166150000Y-66710000D03*
X167950000Y-66710000D03*
X169150000Y-66710000D03*
X163150000Y-66710000D03*
X167350000Y-66710000D03*
X161950000Y-66710000D03*
X169750000Y-66710000D03*
X165550000Y-66710000D03*
X166750000Y-66710000D03*
X171550000Y-66710000D03*
X170350000Y-66710000D03*
X170950000Y-66710000D03*
D11*
X152450000Y-64960000D03*
D12*
X161050000Y-64960000D03*
D11*
X169650000Y-64960000D03*
D12*
X161050000Y-68460000D03*
D11*
X152450000Y-68460000D03*
X169650000Y-68460000D03*
D13*
X174150000Y-65760000D03*
D14*
X149350000Y-66710000D03*
D15*
X173350000Y-66710000D03*
D13*
X174150000Y-67660000D03*
X148000000Y-65760000D03*
X148000000Y-67660000D03*
D10*
X172150000Y-66710000D03*
X122150000Y-66710000D03*
X122750000Y-66710000D03*
X123350000Y-66710000D03*
X123950000Y-66710000D03*
X124550000Y-66710000D03*
X126350000Y-66710000D03*
X125150000Y-66710000D03*
X125750000Y-66710000D03*
X126950000Y-66710000D03*
X128750000Y-66710000D03*
X127550000Y-66710000D03*
X131150000Y-66710000D03*
X129950000Y-66710000D03*
X130550000Y-66710000D03*
X129350000Y-66710000D03*
X128150000Y-66710000D03*
X131750000Y-66710000D03*
X133550000Y-66710000D03*
X132350000Y-66710000D03*
X139550000Y-66710000D03*
X135950000Y-66710000D03*
X134750000Y-66710000D03*
X135350000Y-66710000D03*
X137150000Y-66710000D03*
X138950000Y-66710000D03*
X140150000Y-66710000D03*
X134150000Y-66710000D03*
X138350000Y-66710000D03*
X132950000Y-66710000D03*
X140750000Y-66710000D03*
X136550000Y-66710000D03*
X137750000Y-66710000D03*
X142550000Y-66710000D03*
X141350000Y-66710000D03*
X141950000Y-66710000D03*
D11*
X123450000Y-64960000D03*
D12*
X132050000Y-64960000D03*
D11*
X140650000Y-64960000D03*
D12*
X132050000Y-68460000D03*
D11*
X123450000Y-68460000D03*
X140650000Y-68460000D03*
D13*
X145150000Y-65760000D03*
D14*
X120350000Y-66710000D03*
D15*
X144350000Y-66710000D03*
D13*
X145150000Y-67660000D03*
X119000000Y-65760000D03*
X119000000Y-67660000D03*
D10*
X143150000Y-66710000D03*
X93150000Y-66710000D03*
X93750000Y-66710000D03*
X94350000Y-66710000D03*
X94950000Y-66710000D03*
X95550000Y-66710000D03*
X97350000Y-66710000D03*
X96150000Y-66710000D03*
X96750000Y-66710000D03*
X97950000Y-66710000D03*
X99750000Y-66710000D03*
X98550000Y-66710000D03*
X102150000Y-66710000D03*
X100950000Y-66710000D03*
X101550000Y-66710000D03*
X100350000Y-66710000D03*
X99150000Y-66710000D03*
X102750000Y-66710000D03*
X104550000Y-66710000D03*
X103350000Y-66710000D03*
X110550000Y-66710000D03*
X106950000Y-66710000D03*
X105750000Y-66710000D03*
X106350000Y-66710000D03*
X108150000Y-66710000D03*
X109950000Y-66710000D03*
X111150000Y-66710000D03*
X105150000Y-66710000D03*
X109350000Y-66710000D03*
X103950000Y-66710000D03*
X111750000Y-66710000D03*
X107550000Y-66710000D03*
X108750000Y-66710000D03*
X113550000Y-66710000D03*
X112350000Y-66710000D03*
X112950000Y-66710000D03*
D11*
X94450000Y-64960000D03*
D12*
X103050000Y-64960000D03*
D11*
X111650000Y-64960000D03*
D12*
X103050000Y-68460000D03*
D11*
X94450000Y-68460000D03*
X111650000Y-68460000D03*
D13*
X116150000Y-65760000D03*
D14*
X91350000Y-66710000D03*
D15*
X115350000Y-66710000D03*
D13*
X116150000Y-67660000D03*
X90000000Y-65760000D03*
X90000000Y-67660000D03*
D10*
X114150000Y-66710000D03*
X180150000Y-61710000D03*
X180750000Y-61710000D03*
X181350000Y-61710000D03*
X181950000Y-61710000D03*
X182550000Y-61710000D03*
X184350000Y-61710000D03*
X183150000Y-61710000D03*
X183750000Y-61710000D03*
X184950000Y-61710000D03*
X186750000Y-61710000D03*
X185550000Y-61710000D03*
X189150000Y-61710000D03*
X187950000Y-61710000D03*
X188550000Y-61710000D03*
X187350000Y-61710000D03*
X186150000Y-61710000D03*
X189750000Y-61710000D03*
X191550000Y-61710000D03*
X190350000Y-61710000D03*
X197550000Y-61710000D03*
X193950000Y-61710000D03*
X192750000Y-61710000D03*
X193350000Y-61710000D03*
X195150000Y-61710000D03*
X196950000Y-61710000D03*
X198150000Y-61710000D03*
X192150000Y-61710000D03*
X196350000Y-61710000D03*
X190950000Y-61710000D03*
X198750000Y-61710000D03*
X194550000Y-61710000D03*
X195750000Y-61710000D03*
X200550000Y-61710000D03*
X199350000Y-61710000D03*
X199950000Y-61710000D03*
D11*
X181450000Y-59960000D03*
D12*
X190050000Y-59960000D03*
D11*
X198650000Y-59960000D03*
D12*
X190050000Y-63460000D03*
D11*
X181450000Y-63460000D03*
X198650000Y-63460000D03*
D13*
X203150000Y-60760000D03*
D14*
X178350000Y-61710000D03*
D15*
X202350000Y-61710000D03*
D13*
X203150000Y-62660000D03*
X177000000Y-60760000D03*
X177000000Y-62660000D03*
D10*
X201150000Y-61710000D03*
X151150000Y-61710000D03*
X151750000Y-61710000D03*
X152350000Y-61710000D03*
X152950000Y-61710000D03*
X153550000Y-61710000D03*
X155350000Y-61710000D03*
X154150000Y-61710000D03*
X154750000Y-61710000D03*
X155950000Y-61710000D03*
X157750000Y-61710000D03*
X156550000Y-61710000D03*
X160150000Y-61710000D03*
X158950000Y-61710000D03*
X159550000Y-61710000D03*
X158350000Y-61710000D03*
X157150000Y-61710000D03*
X160750000Y-61710000D03*
X162550000Y-61710000D03*
X161350000Y-61710000D03*
X168550000Y-61710000D03*
X164950000Y-61710000D03*
X163750000Y-61710000D03*
X164350000Y-61710000D03*
X166150000Y-61710000D03*
X167950000Y-61710000D03*
X169150000Y-61710000D03*
X163150000Y-61710000D03*
X167350000Y-61710000D03*
X161950000Y-61710000D03*
X169750000Y-61710000D03*
X165550000Y-61710000D03*
X166750000Y-61710000D03*
X171550000Y-61710000D03*
X170350000Y-61710000D03*
X170950000Y-61710000D03*
D11*
X152450000Y-59960000D03*
D12*
X161050000Y-59960000D03*
D11*
X169650000Y-59960000D03*
D12*
X161050000Y-63460000D03*
D11*
X152450000Y-63460000D03*
X169650000Y-63460000D03*
D13*
X174150000Y-60760000D03*
D14*
X149350000Y-61710000D03*
D15*
X173350000Y-61710000D03*
D13*
X174150000Y-62660000D03*
X148000000Y-60760000D03*
X148000000Y-62660000D03*
D10*
X172150000Y-61710000D03*
X122150000Y-61710000D03*
X122750000Y-61710000D03*
X123350000Y-61710000D03*
X123950000Y-61710000D03*
X124550000Y-61710000D03*
X126350000Y-61710000D03*
X125150000Y-61710000D03*
X125750000Y-61710000D03*
X126950000Y-61710000D03*
X128750000Y-61710000D03*
X127550000Y-61710000D03*
X131150000Y-61710000D03*
X129950000Y-61710000D03*
X130550000Y-61710000D03*
X129350000Y-61710000D03*
X128150000Y-61710000D03*
X131750000Y-61710000D03*
X133550000Y-61710000D03*
X132350000Y-61710000D03*
X139550000Y-61710000D03*
X135950000Y-61710000D03*
X134750000Y-61710000D03*
X135350000Y-61710000D03*
X137150000Y-61710000D03*
X138950000Y-61710000D03*
X140150000Y-61710000D03*
X134150000Y-61710000D03*
X138350000Y-61710000D03*
X132950000Y-61710000D03*
X140750000Y-61710000D03*
X136550000Y-61710000D03*
X137750000Y-61710000D03*
X142550000Y-61710000D03*
X141350000Y-61710000D03*
X141950000Y-61710000D03*
D11*
X123450000Y-59960000D03*
D12*
X132050000Y-59960000D03*
D11*
X140650000Y-59960000D03*
D12*
X132050000Y-63460000D03*
D11*
X123450000Y-63460000D03*
X140650000Y-63460000D03*
D13*
X145150000Y-60760000D03*
D14*
X120350000Y-61710000D03*
D15*
X144350000Y-61710000D03*
D13*
X145150000Y-62660000D03*
X119000000Y-60760000D03*
X119000000Y-62660000D03*
D10*
X143150000Y-61710000D03*
X93150000Y-61710000D03*
X93750000Y-61710000D03*
X94350000Y-61710000D03*
X94950000Y-61710000D03*
X95550000Y-61710000D03*
X97350000Y-61710000D03*
X96150000Y-61710000D03*
X96750000Y-61710000D03*
X97950000Y-61710000D03*
X99750000Y-61710000D03*
X98550000Y-61710000D03*
X102150000Y-61710000D03*
X100950000Y-61710000D03*
X101550000Y-61710000D03*
X100350000Y-61710000D03*
X99150000Y-61710000D03*
X102750000Y-61710000D03*
X104550000Y-61710000D03*
X103350000Y-61710000D03*
X110550000Y-61710000D03*
X106950000Y-61710000D03*
X105750000Y-61710000D03*
X106350000Y-61710000D03*
X108150000Y-61710000D03*
X109950000Y-61710000D03*
X111150000Y-61710000D03*
X105150000Y-61710000D03*
X109350000Y-61710000D03*
X103950000Y-61710000D03*
X111750000Y-61710000D03*
X107550000Y-61710000D03*
X108750000Y-61710000D03*
X113550000Y-61710000D03*
X112350000Y-61710000D03*
X112950000Y-61710000D03*
D11*
X94450000Y-59960000D03*
D12*
X103050000Y-59960000D03*
D11*
X111650000Y-59960000D03*
D12*
X103050000Y-63460000D03*
D11*
X94450000Y-63460000D03*
X111650000Y-63460000D03*
D13*
X116150000Y-60760000D03*
D14*
X91350000Y-61710000D03*
D15*
X115350000Y-61710000D03*
D13*
X116150000Y-62660000D03*
X90000000Y-60760000D03*
X90000000Y-62660000D03*
D10*
X114150000Y-61710000D03*
X180150000Y-56710000D03*
X180750000Y-56710000D03*
X181350000Y-56710000D03*
X181950000Y-56710000D03*
X182550000Y-56710000D03*
X184350000Y-56710000D03*
X183150000Y-56710000D03*
X183750000Y-56710000D03*
X184950000Y-56710000D03*
X186750000Y-56710000D03*
X185550000Y-56710000D03*
X189150000Y-56710000D03*
X187950000Y-56710000D03*
X188550000Y-56710000D03*
X187350000Y-56710000D03*
X186150000Y-56710000D03*
X189750000Y-56710000D03*
X191550000Y-56710000D03*
X190350000Y-56710000D03*
X197550000Y-56710000D03*
X193950000Y-56710000D03*
X192750000Y-56710000D03*
X193350000Y-56710000D03*
X195150000Y-56710000D03*
X196950000Y-56710000D03*
X198150000Y-56710000D03*
X192150000Y-56710000D03*
X196350000Y-56710000D03*
X190950000Y-56710000D03*
X198750000Y-56710000D03*
X194550000Y-56710000D03*
X195750000Y-56710000D03*
X200550000Y-56710000D03*
X199350000Y-56710000D03*
X199950000Y-56710000D03*
D11*
X181450000Y-54960000D03*
D12*
X190050000Y-54960000D03*
D11*
X198650000Y-54960000D03*
D12*
X190050000Y-58460000D03*
D11*
X181450000Y-58460000D03*
X198650000Y-58460000D03*
D13*
X203150000Y-55760000D03*
D14*
X178350000Y-56710000D03*
D15*
X202350000Y-56710000D03*
D13*
X203150000Y-57660000D03*
X177000000Y-55760000D03*
X177000000Y-57660000D03*
D10*
X201150000Y-56710000D03*
X151150000Y-56710000D03*
X151750000Y-56710000D03*
X152350000Y-56710000D03*
X152950000Y-56710000D03*
X153550000Y-56710000D03*
X155350000Y-56710000D03*
X154150000Y-56710000D03*
X154750000Y-56710000D03*
X155950000Y-56710000D03*
X157750000Y-56710000D03*
X156550000Y-56710000D03*
X160150000Y-56710000D03*
X158950000Y-56710000D03*
X159550000Y-56710000D03*
X158350000Y-56710000D03*
X157150000Y-56710000D03*
X160750000Y-56710000D03*
X162550000Y-56710000D03*
X161350000Y-56710000D03*
X168550000Y-56710000D03*
X164950000Y-56710000D03*
X163750000Y-56710000D03*
X164350000Y-56710000D03*
X166150000Y-56710000D03*
X167950000Y-56710000D03*
X169150000Y-56710000D03*
X163150000Y-56710000D03*
X167350000Y-56710000D03*
X161950000Y-56710000D03*
X169750000Y-56710000D03*
X165550000Y-56710000D03*
X166750000Y-56710000D03*
X171550000Y-56710000D03*
X170350000Y-56710000D03*
X170950000Y-56710000D03*
D11*
X152450000Y-54960000D03*
D12*
X161050000Y-54960000D03*
D11*
X169650000Y-54960000D03*
D12*
X161050000Y-58460000D03*
D11*
X152450000Y-58460000D03*
X169650000Y-58460000D03*
D13*
X174150000Y-55760000D03*
D14*
X149350000Y-56710000D03*
D15*
X173350000Y-56710000D03*
D13*
X174150000Y-57660000D03*
X148000000Y-55760000D03*
X148000000Y-57660000D03*
D10*
X172150000Y-56710000D03*
X122150000Y-56710000D03*
X122750000Y-56710000D03*
X123350000Y-56710000D03*
X123950000Y-56710000D03*
X124550000Y-56710000D03*
X126350000Y-56710000D03*
X125150000Y-56710000D03*
X125750000Y-56710000D03*
X126950000Y-56710000D03*
X128750000Y-56710000D03*
X127550000Y-56710000D03*
X131150000Y-56710000D03*
X129950000Y-56710000D03*
X130550000Y-56710000D03*
X129350000Y-56710000D03*
X128150000Y-56710000D03*
X131750000Y-56710000D03*
X133550000Y-56710000D03*
X132350000Y-56710000D03*
X139550000Y-56710000D03*
X135950000Y-56710000D03*
X134750000Y-56710000D03*
X135350000Y-56710000D03*
X137150000Y-56710000D03*
X138950000Y-56710000D03*
X140150000Y-56710000D03*
X134150000Y-56710000D03*
X138350000Y-56710000D03*
X132950000Y-56710000D03*
X140750000Y-56710000D03*
X136550000Y-56710000D03*
X137750000Y-56710000D03*
X142550000Y-56710000D03*
X141350000Y-56710000D03*
X141950000Y-56710000D03*
D11*
X123450000Y-54960000D03*
D12*
X132050000Y-54960000D03*
D11*
X140650000Y-54960000D03*
D12*
X132050000Y-58460000D03*
D11*
X123450000Y-58460000D03*
X140650000Y-58460000D03*
D13*
X145150000Y-55760000D03*
D14*
X120350000Y-56710000D03*
D15*
X144350000Y-56710000D03*
D13*
X145150000Y-57660000D03*
X119000000Y-55760000D03*
X119000000Y-57660000D03*
D10*
X143150000Y-56710000D03*
X93150000Y-56710000D03*
X93750000Y-56710000D03*
X94350000Y-56710000D03*
X94950000Y-56710000D03*
X95550000Y-56710000D03*
X97350000Y-56710000D03*
X96150000Y-56710000D03*
X96750000Y-56710000D03*
X97950000Y-56710000D03*
X99750000Y-56710000D03*
X98550000Y-56710000D03*
X102150000Y-56710000D03*
X100950000Y-56710000D03*
X101550000Y-56710000D03*
X100350000Y-56710000D03*
X99150000Y-56710000D03*
X102750000Y-56710000D03*
X104550000Y-56710000D03*
X103350000Y-56710000D03*
X110550000Y-56710000D03*
X106950000Y-56710000D03*
X105750000Y-56710000D03*
X106350000Y-56710000D03*
X108150000Y-56710000D03*
X109950000Y-56710000D03*
X111150000Y-56710000D03*
X105150000Y-56710000D03*
X109350000Y-56710000D03*
X103950000Y-56710000D03*
X111750000Y-56710000D03*
X107550000Y-56710000D03*
X108750000Y-56710000D03*
X113550000Y-56710000D03*
X112350000Y-56710000D03*
X112950000Y-56710000D03*
D11*
X94450000Y-54960000D03*
D12*
X103050000Y-54960000D03*
D11*
X111650000Y-54960000D03*
D12*
X103050000Y-58460000D03*
D11*
X94450000Y-58460000D03*
X111650000Y-58460000D03*
D13*
X116150000Y-55760000D03*
D14*
X91350000Y-56710000D03*
D15*
X115350000Y-56710000D03*
D13*
X116150000Y-57660000D03*
X90000000Y-55760000D03*
X90000000Y-57660000D03*
D10*
X114150000Y-56710000D03*
X180150000Y-51710000D03*
X180750000Y-51710000D03*
X181350000Y-51710000D03*
X181950000Y-51710000D03*
X182550000Y-51710000D03*
X184350000Y-51710000D03*
X183150000Y-51710000D03*
X183750000Y-51710000D03*
X184950000Y-51710000D03*
X186750000Y-51710000D03*
X185550000Y-51710000D03*
X189150000Y-51710000D03*
X187950000Y-51710000D03*
X188550000Y-51710000D03*
X187350000Y-51710000D03*
X186150000Y-51710000D03*
X189750000Y-51710000D03*
X191550000Y-51710000D03*
X190350000Y-51710000D03*
X197550000Y-51710000D03*
X193950000Y-51710000D03*
X192750000Y-51710000D03*
X193350000Y-51710000D03*
X195150000Y-51710000D03*
X196950000Y-51710000D03*
X198150000Y-51710000D03*
X192150000Y-51710000D03*
X196350000Y-51710000D03*
X190950000Y-51710000D03*
X198750000Y-51710000D03*
X194550000Y-51710000D03*
X195750000Y-51710000D03*
X200550000Y-51710000D03*
X199350000Y-51710000D03*
X199950000Y-51710000D03*
D11*
X181450000Y-49960000D03*
D12*
X190050000Y-49960000D03*
D11*
X198650000Y-49960000D03*
D12*
X190050000Y-53460000D03*
D11*
X181450000Y-53460000D03*
X198650000Y-53460000D03*
D13*
X203150000Y-50760000D03*
D14*
X178350000Y-51710000D03*
D15*
X202350000Y-51710000D03*
D13*
X203150000Y-52660000D03*
X177000000Y-50760000D03*
X177000000Y-52660000D03*
D10*
X201150000Y-51710000D03*
X151150000Y-51710000D03*
X151750000Y-51710000D03*
X152350000Y-51710000D03*
X152950000Y-51710000D03*
X153550000Y-51710000D03*
X155350000Y-51710000D03*
X154150000Y-51710000D03*
X154750000Y-51710000D03*
X155950000Y-51710000D03*
X157750000Y-51710000D03*
X156550000Y-51710000D03*
X160150000Y-51710000D03*
X158950000Y-51710000D03*
X159550000Y-51710000D03*
X158350000Y-51710000D03*
X157150000Y-51710000D03*
X160750000Y-51710000D03*
X162550000Y-51710000D03*
X161350000Y-51710000D03*
X168550000Y-51710000D03*
X164950000Y-51710000D03*
X163750000Y-51710000D03*
X164350000Y-51710000D03*
X166150000Y-51710000D03*
X167950000Y-51710000D03*
X169150000Y-51710000D03*
X163150000Y-51710000D03*
X167350000Y-51710000D03*
X161950000Y-51710000D03*
X169750000Y-51710000D03*
X165550000Y-51710000D03*
X166750000Y-51710000D03*
X171550000Y-51710000D03*
X170350000Y-51710000D03*
X170950000Y-51710000D03*
D11*
X152450000Y-49960000D03*
D12*
X161050000Y-49960000D03*
D11*
X169650000Y-49960000D03*
D12*
X161050000Y-53460000D03*
D11*
X152450000Y-53460000D03*
X169650000Y-53460000D03*
D13*
X174150000Y-50760000D03*
D14*
X149350000Y-51710000D03*
D15*
X173350000Y-51710000D03*
D13*
X174150000Y-52660000D03*
X148000000Y-50760000D03*
X148000000Y-52660000D03*
D10*
X172150000Y-51710000D03*
X122150000Y-51710000D03*
X122750000Y-51710000D03*
X123350000Y-51710000D03*
X123950000Y-51710000D03*
X124550000Y-51710000D03*
X126350000Y-51710000D03*
X125150000Y-51710000D03*
X125750000Y-51710000D03*
X126950000Y-51710000D03*
X128750000Y-51710000D03*
X127550000Y-51710000D03*
X131150000Y-51710000D03*
X129950000Y-51710000D03*
X130550000Y-51710000D03*
X129350000Y-51710000D03*
X128150000Y-51710000D03*
X131750000Y-51710000D03*
X133550000Y-51710000D03*
X132350000Y-51710000D03*
X139550000Y-51710000D03*
X135950000Y-51710000D03*
X134750000Y-51710000D03*
X135350000Y-51710000D03*
X137150000Y-51710000D03*
X138950000Y-51710000D03*
X140150000Y-51710000D03*
X134150000Y-51710000D03*
X138350000Y-51710000D03*
X132950000Y-51710000D03*
X140750000Y-51710000D03*
X136550000Y-51710000D03*
X137750000Y-51710000D03*
X142550000Y-51710000D03*
X141350000Y-51710000D03*
X141950000Y-51710000D03*
D11*
X123450000Y-49960000D03*
D12*
X132050000Y-49960000D03*
D11*
X140650000Y-49960000D03*
D12*
X132050000Y-53460000D03*
D11*
X123450000Y-53460000D03*
X140650000Y-53460000D03*
D13*
X145150000Y-50760000D03*
D14*
X120350000Y-51710000D03*
D15*
X144350000Y-51710000D03*
D13*
X145150000Y-52660000D03*
X119000000Y-50760000D03*
X119000000Y-52660000D03*
D10*
X143150000Y-51710000D03*
X93150000Y-51710000D03*
X93750000Y-51710000D03*
X94350000Y-51710000D03*
X94950000Y-51710000D03*
X95550000Y-51710000D03*
X97350000Y-51710000D03*
X96150000Y-51710000D03*
X96750000Y-51710000D03*
X97950000Y-51710000D03*
X99750000Y-51710000D03*
X98550000Y-51710000D03*
X102150000Y-51710000D03*
X100950000Y-51710000D03*
X101550000Y-51710000D03*
X100350000Y-51710000D03*
X99150000Y-51710000D03*
X102750000Y-51710000D03*
X104550000Y-51710000D03*
X103350000Y-51710000D03*
X110550000Y-51710000D03*
X106950000Y-51710000D03*
X105750000Y-51710000D03*
X106350000Y-51710000D03*
X108150000Y-51710000D03*
X109950000Y-51710000D03*
X111150000Y-51710000D03*
X105150000Y-51710000D03*
X109350000Y-51710000D03*
X103950000Y-51710000D03*
X111750000Y-51710000D03*
X107550000Y-51710000D03*
X108750000Y-51710000D03*
X113550000Y-51710000D03*
X112350000Y-51710000D03*
X112950000Y-51710000D03*
D11*
X94450000Y-49960000D03*
D12*
X103050000Y-49960000D03*
D11*
X111650000Y-49960000D03*
D12*
X103050000Y-53460000D03*
D11*
X94450000Y-53460000D03*
X111650000Y-53460000D03*
D13*
X116150000Y-50760000D03*
D14*
X91350000Y-51710000D03*
D15*
X115350000Y-51710000D03*
D13*
X116150000Y-52660000D03*
X90000000Y-50760000D03*
X90000000Y-52660000D03*
D10*
X114150000Y-51710000D03*
X180150000Y-46710000D03*
X180750000Y-46710000D03*
X181350000Y-46710000D03*
X181950000Y-46710000D03*
X182550000Y-46710000D03*
X184350000Y-46710000D03*
X183150000Y-46710000D03*
X183750000Y-46710000D03*
X184950000Y-46710000D03*
X186750000Y-46710000D03*
X185550000Y-46710000D03*
X189150000Y-46710000D03*
X187950000Y-46710000D03*
X188550000Y-46710000D03*
X187350000Y-46710000D03*
X186150000Y-46710000D03*
X189750000Y-46710000D03*
X191550000Y-46710000D03*
X190350000Y-46710000D03*
X197550000Y-46710000D03*
X193950000Y-46710000D03*
X192750000Y-46710000D03*
X193350000Y-46710000D03*
X195150000Y-46710000D03*
X196950000Y-46710000D03*
X198150000Y-46710000D03*
X192150000Y-46710000D03*
X196350000Y-46710000D03*
X190950000Y-46710000D03*
X198750000Y-46710000D03*
X194550000Y-46710000D03*
X195750000Y-46710000D03*
X200550000Y-46710000D03*
X199350000Y-46710000D03*
X199950000Y-46710000D03*
D11*
X181450000Y-44960000D03*
D12*
X190050000Y-44960000D03*
D11*
X198650000Y-44960000D03*
D12*
X190050000Y-48460000D03*
D11*
X181450000Y-48460000D03*
X198650000Y-48460000D03*
D13*
X203150000Y-45760000D03*
D14*
X178350000Y-46710000D03*
D15*
X202350000Y-46710000D03*
D13*
X203150000Y-47660000D03*
X177000000Y-45760000D03*
X177000000Y-47660000D03*
D10*
X201150000Y-46710000D03*
X151150000Y-46710000D03*
X151750000Y-46710000D03*
X152350000Y-46710000D03*
X152950000Y-46710000D03*
X153550000Y-46710000D03*
X155350000Y-46710000D03*
X154150000Y-46710000D03*
X154750000Y-46710000D03*
X155950000Y-46710000D03*
X157750000Y-46710000D03*
X156550000Y-46710000D03*
X160150000Y-46710000D03*
X158950000Y-46710000D03*
X159550000Y-46710000D03*
X158350000Y-46710000D03*
X157150000Y-46710000D03*
X160750000Y-46710000D03*
X162550000Y-46710000D03*
X161350000Y-46710000D03*
X168550000Y-46710000D03*
X164950000Y-46710000D03*
X163750000Y-46710000D03*
X164350000Y-46710000D03*
X166150000Y-46710000D03*
X167950000Y-46710000D03*
X169150000Y-46710000D03*
X163150000Y-46710000D03*
X167350000Y-46710000D03*
X161950000Y-46710000D03*
X169750000Y-46710000D03*
X165550000Y-46710000D03*
X166750000Y-46710000D03*
X171550000Y-46710000D03*
X170350000Y-46710000D03*
X170950000Y-46710000D03*
D11*
X152450000Y-44960000D03*
D12*
X161050000Y-44960000D03*
D11*
X169650000Y-44960000D03*
D12*
X161050000Y-48460000D03*
D11*
X152450000Y-48460000D03*
X169650000Y-48460000D03*
D13*
X174150000Y-45760000D03*
D14*
X149350000Y-46710000D03*
D15*
X173350000Y-46710000D03*
D13*
X174150000Y-47660000D03*
X148000000Y-45760000D03*
X148000000Y-47660000D03*
D10*
X172150000Y-46710000D03*
X122150000Y-46710000D03*
X122750000Y-46710000D03*
X123350000Y-46710000D03*
X123950000Y-46710000D03*
X124550000Y-46710000D03*
X126350000Y-46710000D03*
X125150000Y-46710000D03*
X125750000Y-46710000D03*
X126950000Y-46710000D03*
X128750000Y-46710000D03*
X127550000Y-46710000D03*
X131150000Y-46710000D03*
X129950000Y-46710000D03*
X130550000Y-46710000D03*
X129350000Y-46710000D03*
X128150000Y-46710000D03*
X131750000Y-46710000D03*
X133550000Y-46710000D03*
X132350000Y-46710000D03*
X139550000Y-46710000D03*
X135950000Y-46710000D03*
X134750000Y-46710000D03*
X135350000Y-46710000D03*
X137150000Y-46710000D03*
X138950000Y-46710000D03*
X140150000Y-46710000D03*
X134150000Y-46710000D03*
X138350000Y-46710000D03*
X132950000Y-46710000D03*
X140750000Y-46710000D03*
X136550000Y-46710000D03*
X137750000Y-46710000D03*
X142550000Y-46710000D03*
X141350000Y-46710000D03*
X141950000Y-46710000D03*
D11*
X123450000Y-44960000D03*
D12*
X132050000Y-44960000D03*
D11*
X140650000Y-44960000D03*
D12*
X132050000Y-48460000D03*
D11*
X123450000Y-48460000D03*
X140650000Y-48460000D03*
D13*
X145150000Y-45760000D03*
D14*
X120350000Y-46710000D03*
D15*
X144350000Y-46710000D03*
D13*
X145150000Y-47660000D03*
X119000000Y-45760000D03*
X119000000Y-47660000D03*
D10*
X143150000Y-46710000D03*
X93150000Y-46710000D03*
X93750000Y-46710000D03*
X94350000Y-46710000D03*
X94950000Y-46710000D03*
X95550000Y-46710000D03*
X97350000Y-46710000D03*
X96150000Y-46710000D03*
X96750000Y-46710000D03*
X97950000Y-46710000D03*
X99750000Y-46710000D03*
X98550000Y-46710000D03*
X102150000Y-46710000D03*
X100950000Y-46710000D03*
X101550000Y-46710000D03*
X100350000Y-46710000D03*
X99150000Y-46710000D03*
X102750000Y-46710000D03*
X104550000Y-46710000D03*
X103350000Y-46710000D03*
X110550000Y-46710000D03*
X106950000Y-46710000D03*
X105750000Y-46710000D03*
X106350000Y-46710000D03*
X108150000Y-46710000D03*
X109950000Y-46710000D03*
X111150000Y-46710000D03*
X105150000Y-46710000D03*
X109350000Y-46710000D03*
X103950000Y-46710000D03*
X111750000Y-46710000D03*
X107550000Y-46710000D03*
X108750000Y-46710000D03*
X113550000Y-46710000D03*
X112350000Y-46710000D03*
X112950000Y-46710000D03*
D11*
X94450000Y-44960000D03*
D12*
X103050000Y-44960000D03*
D11*
X111650000Y-44960000D03*
D12*
X103050000Y-48460000D03*
D11*
X94450000Y-48460000D03*
X111650000Y-48460000D03*
D13*
X116150000Y-45760000D03*
D14*
X91350000Y-46710000D03*
D15*
X115350000Y-46710000D03*
D13*
X116150000Y-47660000D03*
X90000000Y-45760000D03*
X90000000Y-47660000D03*
D10*
X114150000Y-46710000D03*
X180150000Y-41710000D03*
X180750000Y-41710000D03*
X181350000Y-41710000D03*
X181950000Y-41710000D03*
X182550000Y-41710000D03*
X184350000Y-41710000D03*
X183150000Y-41710000D03*
X183750000Y-41710000D03*
X184950000Y-41710000D03*
X186750000Y-41710000D03*
X185550000Y-41710000D03*
X189150000Y-41710000D03*
X187950000Y-41710000D03*
X188550000Y-41710000D03*
X187350000Y-41710000D03*
X186150000Y-41710000D03*
X189750000Y-41710000D03*
X191550000Y-41710000D03*
X190350000Y-41710000D03*
X197550000Y-41710000D03*
X193950000Y-41710000D03*
X192750000Y-41710000D03*
X193350000Y-41710000D03*
X195150000Y-41710000D03*
X196950000Y-41710000D03*
X198150000Y-41710000D03*
X192150000Y-41710000D03*
X196350000Y-41710000D03*
X190950000Y-41710000D03*
X198750000Y-41710000D03*
X194550000Y-41710000D03*
X195750000Y-41710000D03*
X200550000Y-41710000D03*
X199350000Y-41710000D03*
X199950000Y-41710000D03*
D11*
X181450000Y-39960000D03*
D12*
X190050000Y-39960000D03*
D11*
X198650000Y-39960000D03*
D12*
X190050000Y-43460000D03*
D11*
X181450000Y-43460000D03*
X198650000Y-43460000D03*
D13*
X203150000Y-40760000D03*
D14*
X178350000Y-41710000D03*
D15*
X202350000Y-41710000D03*
D13*
X203150000Y-42660000D03*
X177000000Y-40760000D03*
X177000000Y-42660000D03*
D10*
X201150000Y-41710000D03*
X151150000Y-41710000D03*
X151750000Y-41710000D03*
X152350000Y-41710000D03*
X152950000Y-41710000D03*
X153550000Y-41710000D03*
X155350000Y-41710000D03*
X154150000Y-41710000D03*
X154750000Y-41710000D03*
X155950000Y-41710000D03*
X157750000Y-41710000D03*
X156550000Y-41710000D03*
X160150000Y-41710000D03*
X158950000Y-41710000D03*
X159550000Y-41710000D03*
X158350000Y-41710000D03*
X157150000Y-41710000D03*
X160750000Y-41710000D03*
X162550000Y-41710000D03*
X161350000Y-41710000D03*
X168550000Y-41710000D03*
X164950000Y-41710000D03*
X163750000Y-41710000D03*
X164350000Y-41710000D03*
X166150000Y-41710000D03*
X167950000Y-41710000D03*
X169150000Y-41710000D03*
X163150000Y-41710000D03*
X167350000Y-41710000D03*
X161950000Y-41710000D03*
X169750000Y-41710000D03*
X165550000Y-41710000D03*
X166750000Y-41710000D03*
X171550000Y-41710000D03*
X170350000Y-41710000D03*
X170950000Y-41710000D03*
D11*
X152450000Y-39960000D03*
D12*
X161050000Y-39960000D03*
D11*
X169650000Y-39960000D03*
D12*
X161050000Y-43460000D03*
D11*
X152450000Y-43460000D03*
X169650000Y-43460000D03*
D13*
X174150000Y-40760000D03*
D14*
X149350000Y-41710000D03*
D15*
X173350000Y-41710000D03*
D13*
X174150000Y-42660000D03*
X148000000Y-40760000D03*
X148000000Y-42660000D03*
D10*
X172150000Y-41710000D03*
X122150000Y-41710000D03*
X122750000Y-41710000D03*
X123350000Y-41710000D03*
X123950000Y-41710000D03*
X124550000Y-41710000D03*
X126350000Y-41710000D03*
X125150000Y-41710000D03*
X125750000Y-41710000D03*
X126950000Y-41710000D03*
X128750000Y-41710000D03*
X127550000Y-41710000D03*
X131150000Y-41710000D03*
X129950000Y-41710000D03*
X130550000Y-41710000D03*
X129350000Y-41710000D03*
X128150000Y-41710000D03*
X131750000Y-41710000D03*
X133550000Y-41710000D03*
X132350000Y-41710000D03*
X139550000Y-41710000D03*
X135950000Y-41710000D03*
X134750000Y-41710000D03*
X135350000Y-41710000D03*
X137150000Y-41710000D03*
X138950000Y-41710000D03*
X140150000Y-41710000D03*
X134150000Y-41710000D03*
X138350000Y-41710000D03*
X132950000Y-41710000D03*
X140750000Y-41710000D03*
X136550000Y-41710000D03*
X137750000Y-41710000D03*
X142550000Y-41710000D03*
X141350000Y-41710000D03*
X141950000Y-41710000D03*
D11*
X123450000Y-39960000D03*
D12*
X132050000Y-39960000D03*
D11*
X140650000Y-39960000D03*
D12*
X132050000Y-43460000D03*
D11*
X123450000Y-43460000D03*
X140650000Y-43460000D03*
D13*
X145150000Y-40760000D03*
D14*
X120350000Y-41710000D03*
D15*
X144350000Y-41710000D03*
D13*
X145150000Y-42660000D03*
X119000000Y-40760000D03*
X119000000Y-42660000D03*
D10*
X143150000Y-41710000D03*
X114150000Y-41710000D03*
D13*
X90000000Y-42660000D03*
X90000000Y-40760000D03*
X116150000Y-42660000D03*
D15*
X115350000Y-41710000D03*
D14*
X91350000Y-41710000D03*
D13*
X116150000Y-40760000D03*
D11*
X111650000Y-43460000D03*
X94450000Y-43460000D03*
D12*
X103050000Y-43460000D03*
D11*
X111650000Y-39960000D03*
D12*
X103050000Y-39960000D03*
D11*
X94450000Y-39960000D03*
D10*
X112950000Y-41710000D03*
X112350000Y-41710000D03*
X113550000Y-41710000D03*
X108750000Y-41710000D03*
X107550000Y-41710000D03*
X111750000Y-41710000D03*
X103950000Y-41710000D03*
X109350000Y-41710000D03*
X105150000Y-41710000D03*
X111150000Y-41710000D03*
X109950000Y-41710000D03*
X108150000Y-41710000D03*
X106350000Y-41710000D03*
X105750000Y-41710000D03*
X106950000Y-41710000D03*
X110550000Y-41710000D03*
X103350000Y-41710000D03*
X104550000Y-41710000D03*
X102750000Y-41710000D03*
X99150000Y-41710000D03*
X100350000Y-41710000D03*
X101550000Y-41710000D03*
X100950000Y-41710000D03*
X102150000Y-41710000D03*
X98550000Y-41710000D03*
X99750000Y-41710000D03*
X97950000Y-41710000D03*
X96750000Y-41710000D03*
X96150000Y-41710000D03*
X97350000Y-41710000D03*
X95550000Y-41710000D03*
X94950000Y-41710000D03*
X94350000Y-41710000D03*
X93750000Y-41710000D03*
X93150000Y-41710000D03*
M02*
