G04 #@! TF.GenerationSoftware,KiCad,Pcbnew,5.0.2-bee76a0~70~ubuntu18.04.1*
G04 #@! TF.CreationDate,2020-03-02T10:40:19+01:00*
G04 #@! TF.ProjectId,output.schmitt_trigger_adapter,6f757470-7574-42e7-9363-686d6974745f,rev?*
G04 #@! TF.SameCoordinates,Original*
G04 #@! TF.FileFunction,Copper,L1,Top*
G04 #@! TF.FilePolarity,Positive*
%FSLAX46Y46*%
G04 Gerber Fmt 4.6, Leading zero omitted, Abs format (unit mm)*
G04 Created by KiCad (PCBNEW 5.0.2-bee76a0~70~ubuntu18.04.1) date Mon 02 Mar 2020 10:40:19 AM CET*
%MOMM*%
%LPD*%
G01*
G04 APERTURE LIST*
G04 #@! TA.AperFunction,SMDPad,CuDef*
%ADD10R,0.700000X2.000000*%
G04 #@! TD*
G04 #@! TA.AperFunction,ViaPad*
%ADD11C,0.800000*%
G04 #@! TD*
G04 #@! TA.AperFunction,Conductor*
%ADD12C,0.250000*%
G04 #@! TD*
G04 APERTURE END LIST*
D10*
G04 #@! TO.P,J1,1*
G04 #@! TO.N,+3V3*
X165700000Y-109950000D03*
G04 #@! TO.P,J1,2*
G04 #@! TO.N,/E1_filtered*
X164300000Y-109950000D03*
G04 #@! TO.P,J1,3*
G04 #@! TO.N,/E0_filtered*
X162900000Y-109950000D03*
G04 #@! TO.P,J1,4*
G04 #@! TO.N,GND*
X162900000Y-114050000D03*
G04 #@! TO.P,J1,6*
G04 #@! TO.N,/LED*
X165700000Y-114050000D03*
G04 #@! TO.P,J1,5*
G04 #@! TO.N,Net-(J1-Pad5)*
X164300000Y-114050000D03*
G04 #@! TD*
G04 #@! TO.P,J1,1*
G04 #@! TO.N,+3V3*
X151200000Y-109950000D03*
G04 #@! TO.P,J1,2*
G04 #@! TO.N,/E1_filtered*
X149800000Y-109950000D03*
G04 #@! TO.P,J1,3*
G04 #@! TO.N,/E0_filtered*
X148400000Y-109950000D03*
G04 #@! TO.P,J1,4*
G04 #@! TO.N,GND*
X148400000Y-114050000D03*
G04 #@! TO.P,J1,6*
G04 #@! TO.N,/LED*
X151200000Y-114050000D03*
G04 #@! TO.P,J1,5*
G04 #@! TO.N,Net-(J1-Pad5)*
X149800000Y-114050000D03*
G04 #@! TD*
G04 #@! TO.P,J1,1*
G04 #@! TO.N,+3V3*
X136700000Y-109950000D03*
G04 #@! TO.P,J1,2*
G04 #@! TO.N,/E1_filtered*
X135300000Y-109950000D03*
G04 #@! TO.P,J1,3*
G04 #@! TO.N,/E0_filtered*
X133900000Y-109950000D03*
G04 #@! TO.P,J1,4*
G04 #@! TO.N,GND*
X133900000Y-114050000D03*
G04 #@! TO.P,J1,6*
G04 #@! TO.N,/LED*
X136700000Y-114050000D03*
G04 #@! TO.P,J1,5*
G04 #@! TO.N,Net-(J1-Pad5)*
X135300000Y-114050000D03*
G04 #@! TD*
G04 #@! TO.P,J1,1*
G04 #@! TO.N,+3V3*
X165700000Y-97950000D03*
G04 #@! TO.P,J1,2*
G04 #@! TO.N,/E1_filtered*
X164300000Y-97950000D03*
G04 #@! TO.P,J1,3*
G04 #@! TO.N,/E0_filtered*
X162900000Y-97950000D03*
G04 #@! TO.P,J1,4*
G04 #@! TO.N,GND*
X162900000Y-102050000D03*
G04 #@! TO.P,J1,6*
G04 #@! TO.N,/LED*
X165700000Y-102050000D03*
G04 #@! TO.P,J1,5*
G04 #@! TO.N,Net-(J1-Pad5)*
X164300000Y-102050000D03*
G04 #@! TD*
G04 #@! TO.P,J1,1*
G04 #@! TO.N,+3V3*
X151200000Y-97950000D03*
G04 #@! TO.P,J1,2*
G04 #@! TO.N,/E1_filtered*
X149800000Y-97950000D03*
G04 #@! TO.P,J1,3*
G04 #@! TO.N,/E0_filtered*
X148400000Y-97950000D03*
G04 #@! TO.P,J1,4*
G04 #@! TO.N,GND*
X148400000Y-102050000D03*
G04 #@! TO.P,J1,6*
G04 #@! TO.N,/LED*
X151200000Y-102050000D03*
G04 #@! TO.P,J1,5*
G04 #@! TO.N,Net-(J1-Pad5)*
X149800000Y-102050000D03*
G04 #@! TD*
G04 #@! TO.P,J1,1*
G04 #@! TO.N,+3V3*
X136700000Y-97950000D03*
G04 #@! TO.P,J1,2*
G04 #@! TO.N,/E1_filtered*
X135300000Y-97950000D03*
G04 #@! TO.P,J1,3*
G04 #@! TO.N,/E0_filtered*
X133900000Y-97950000D03*
G04 #@! TO.P,J1,4*
G04 #@! TO.N,GND*
X133900000Y-102050000D03*
G04 #@! TO.P,J1,6*
G04 #@! TO.N,/LED*
X136700000Y-102050000D03*
G04 #@! TO.P,J1,5*
G04 #@! TO.N,Net-(J1-Pad5)*
X135300000Y-102050000D03*
G04 #@! TD*
G04 #@! TO.P,J1,1*
G04 #@! TO.N,+3V3*
X165700000Y-85950000D03*
G04 #@! TO.P,J1,2*
G04 #@! TO.N,/E1_filtered*
X164300000Y-85950000D03*
G04 #@! TO.P,J1,3*
G04 #@! TO.N,/E0_filtered*
X162900000Y-85950000D03*
G04 #@! TO.P,J1,4*
G04 #@! TO.N,GND*
X162900000Y-90050000D03*
G04 #@! TO.P,J1,6*
G04 #@! TO.N,/LED*
X165700000Y-90050000D03*
G04 #@! TO.P,J1,5*
G04 #@! TO.N,Net-(J1-Pad5)*
X164300000Y-90050000D03*
G04 #@! TD*
G04 #@! TO.P,J1,1*
G04 #@! TO.N,+3V3*
X151200000Y-85950000D03*
G04 #@! TO.P,J1,2*
G04 #@! TO.N,/E1_filtered*
X149800000Y-85950000D03*
G04 #@! TO.P,J1,3*
G04 #@! TO.N,/E0_filtered*
X148400000Y-85950000D03*
G04 #@! TO.P,J1,4*
G04 #@! TO.N,GND*
X148400000Y-90050000D03*
G04 #@! TO.P,J1,6*
G04 #@! TO.N,/LED*
X151200000Y-90050000D03*
G04 #@! TO.P,J1,5*
G04 #@! TO.N,Net-(J1-Pad5)*
X149800000Y-90050000D03*
G04 #@! TD*
G04 #@! TO.P,J1,1*
G04 #@! TO.N,+3V3*
X136700000Y-85950000D03*
G04 #@! TO.P,J1,2*
G04 #@! TO.N,/E1_filtered*
X135300000Y-85950000D03*
G04 #@! TO.P,J1,3*
G04 #@! TO.N,/E0_filtered*
X133900000Y-85950000D03*
G04 #@! TO.P,J1,4*
G04 #@! TO.N,GND*
X133900000Y-90050000D03*
G04 #@! TO.P,J1,6*
G04 #@! TO.N,/LED*
X136700000Y-90050000D03*
G04 #@! TO.P,J1,5*
G04 #@! TO.N,Net-(J1-Pad5)*
X135300000Y-90050000D03*
G04 #@! TD*
G04 #@! TO.P,J1,1*
G04 #@! TO.N,+3V3*
X165700000Y-73950000D03*
G04 #@! TO.P,J1,2*
G04 #@! TO.N,/E1_filtered*
X164300000Y-73950000D03*
G04 #@! TO.P,J1,3*
G04 #@! TO.N,/E0_filtered*
X162900000Y-73950000D03*
G04 #@! TO.P,J1,4*
G04 #@! TO.N,GND*
X162900000Y-78050000D03*
G04 #@! TO.P,J1,6*
G04 #@! TO.N,/LED*
X165700000Y-78050000D03*
G04 #@! TO.P,J1,5*
G04 #@! TO.N,Net-(J1-Pad5)*
X164300000Y-78050000D03*
G04 #@! TD*
G04 #@! TO.P,J1,1*
G04 #@! TO.N,+3V3*
X151200000Y-73950000D03*
G04 #@! TO.P,J1,2*
G04 #@! TO.N,/E1_filtered*
X149800000Y-73950000D03*
G04 #@! TO.P,J1,3*
G04 #@! TO.N,/E0_filtered*
X148400000Y-73950000D03*
G04 #@! TO.P,J1,4*
G04 #@! TO.N,GND*
X148400000Y-78050000D03*
G04 #@! TO.P,J1,6*
G04 #@! TO.N,/LED*
X151200000Y-78050000D03*
G04 #@! TO.P,J1,5*
G04 #@! TO.N,Net-(J1-Pad5)*
X149800000Y-78050000D03*
G04 #@! TD*
G04 #@! TO.P,J1,5*
G04 #@! TO.N,Net-(J1-Pad5)*
X135300000Y-78050000D03*
G04 #@! TO.P,J1,6*
G04 #@! TO.N,/LED*
X136700000Y-78050000D03*
G04 #@! TO.P,J1,4*
G04 #@! TO.N,GND*
X133900000Y-78050000D03*
G04 #@! TO.P,J1,3*
G04 #@! TO.N,/E0_filtered*
X133900000Y-73950000D03*
G04 #@! TO.P,J1,2*
G04 #@! TO.N,/E1_filtered*
X135300000Y-73950000D03*
G04 #@! TO.P,J1,1*
G04 #@! TO.N,+3V3*
X136700000Y-73950000D03*
G04 #@! TD*
D11*
G04 #@! TO.N,GND*
X133900000Y-77550000D03*
X142625000Y-75500000D03*
X140600000Y-76400000D03*
X148400000Y-77550000D03*
X162900000Y-77550000D03*
X133900000Y-89550000D03*
X148400000Y-89550000D03*
X162900000Y-89550000D03*
X133900000Y-101550000D03*
X148400000Y-101550000D03*
X162900000Y-101550000D03*
X133900000Y-113550000D03*
X148400000Y-113550000D03*
X162900000Y-113550000D03*
X157125000Y-75500000D03*
X171625000Y-75500000D03*
X142625000Y-87500000D03*
X157125000Y-87500000D03*
X171625000Y-87500000D03*
X142625000Y-99500000D03*
X157125000Y-99500000D03*
X171625000Y-99500000D03*
X142625000Y-111500000D03*
X157125000Y-111500000D03*
X171625000Y-111500000D03*
X155100000Y-76400000D03*
X169600000Y-76400000D03*
X140600000Y-88400000D03*
X155100000Y-88400000D03*
X169600000Y-88400000D03*
X140600000Y-100400000D03*
X155100000Y-100400000D03*
X169600000Y-100400000D03*
X140600000Y-112400000D03*
X155100000Y-112400000D03*
X169600000Y-112400000D03*
G04 #@! TO.N,/LED*
X136700000Y-77550000D03*
X151200000Y-77550000D03*
X165700000Y-77550000D03*
X136700000Y-89550000D03*
X151200000Y-89550000D03*
X165700000Y-89550000D03*
X136700000Y-101550000D03*
X151200000Y-101550000D03*
X165700000Y-101550000D03*
X136700000Y-113550000D03*
X151200000Y-113550000D03*
X165700000Y-113550000D03*
G04 #@! TO.N,+3V3*
X141100000Y-75300000D03*
X136700000Y-74450000D03*
X155600000Y-75300000D03*
X170100000Y-75300000D03*
X141100000Y-87300000D03*
X155600000Y-87300000D03*
X170100000Y-87300000D03*
X141100000Y-99300000D03*
X155600000Y-99300000D03*
X170100000Y-99300000D03*
X141100000Y-111300000D03*
X155600000Y-111300000D03*
X170100000Y-111300000D03*
X151200000Y-74450000D03*
X165700000Y-74450000D03*
X136700000Y-86450000D03*
X151200000Y-86450000D03*
X165700000Y-86450000D03*
X136700000Y-98450000D03*
X151200000Y-98450000D03*
X165700000Y-98450000D03*
X136700000Y-110450000D03*
X151200000Y-110450000D03*
X165700000Y-110450000D03*
G04 #@! TO.N,/E0_filtered*
X141000000Y-73700000D03*
X155500000Y-73700000D03*
X170000000Y-73700000D03*
X141000000Y-85700000D03*
X155500000Y-85700000D03*
X170000000Y-85700000D03*
X141000000Y-97700000D03*
X155500000Y-97700000D03*
X170000000Y-97700000D03*
X141000000Y-109700000D03*
X155500000Y-109700000D03*
X170000000Y-109700000D03*
G04 #@! TO.N,/E1_filtered*
X141100000Y-78100000D03*
X155600000Y-78100000D03*
X170100000Y-78100000D03*
X141100000Y-90100000D03*
X155600000Y-90100000D03*
X170100000Y-90100000D03*
X141100000Y-102100000D03*
X155600000Y-102100000D03*
X170100000Y-102100000D03*
X141100000Y-114100000D03*
X155600000Y-114100000D03*
X170100000Y-114100000D03*
G04 #@! TD*
D12*
G04 #@! TO.N,GND*
X142625000Y-75500000D02*
X141725000Y-76400000D01*
X141725000Y-76400000D02*
X140600000Y-76400000D01*
X133900000Y-78585002D02*
X133900000Y-77550000D01*
X134689999Y-79375001D02*
X133900000Y-78585002D01*
X141825001Y-78448001D02*
X140898001Y-79375001D01*
X141825001Y-77625001D02*
X141825001Y-78448001D01*
X140898001Y-79375001D02*
X134689999Y-79375001D01*
X140600000Y-76400000D02*
X141825001Y-77625001D01*
X157125000Y-75500000D02*
X156225000Y-76400000D01*
X171625000Y-75500000D02*
X170725000Y-76400000D01*
X142625000Y-87500000D02*
X141725000Y-88400000D01*
X157125000Y-87500000D02*
X156225000Y-88400000D01*
X171625000Y-87500000D02*
X170725000Y-88400000D01*
X142625000Y-99500000D02*
X141725000Y-100400000D01*
X157125000Y-99500000D02*
X156225000Y-100400000D01*
X171625000Y-99500000D02*
X170725000Y-100400000D01*
X142625000Y-111500000D02*
X141725000Y-112400000D01*
X157125000Y-111500000D02*
X156225000Y-112400000D01*
X171625000Y-111500000D02*
X170725000Y-112400000D01*
X156225000Y-76400000D02*
X155100000Y-76400000D01*
X170725000Y-76400000D02*
X169600000Y-76400000D01*
X141725000Y-88400000D02*
X140600000Y-88400000D01*
X156225000Y-88400000D02*
X155100000Y-88400000D01*
X170725000Y-88400000D02*
X169600000Y-88400000D01*
X141725000Y-100400000D02*
X140600000Y-100400000D01*
X156225000Y-100400000D02*
X155100000Y-100400000D01*
X170725000Y-100400000D02*
X169600000Y-100400000D01*
X141725000Y-112400000D02*
X140600000Y-112400000D01*
X156225000Y-112400000D02*
X155100000Y-112400000D01*
X170725000Y-112400000D02*
X169600000Y-112400000D01*
X148400000Y-78585002D02*
X148400000Y-77550000D01*
X162900000Y-78585002D02*
X162900000Y-77550000D01*
X133900000Y-90585002D02*
X133900000Y-89550000D01*
X148400000Y-90585002D02*
X148400000Y-89550000D01*
X162900000Y-90585002D02*
X162900000Y-89550000D01*
X133900000Y-102585002D02*
X133900000Y-101550000D01*
X148400000Y-102585002D02*
X148400000Y-101550000D01*
X162900000Y-102585002D02*
X162900000Y-101550000D01*
X133900000Y-114585002D02*
X133900000Y-113550000D01*
X148400000Y-114585002D02*
X148400000Y-113550000D01*
X162900000Y-114585002D02*
X162900000Y-113550000D01*
X149189999Y-79375001D02*
X148400000Y-78585002D01*
X163689999Y-79375001D02*
X162900000Y-78585002D01*
X134689999Y-91375001D02*
X133900000Y-90585002D01*
X149189999Y-91375001D02*
X148400000Y-90585002D01*
X163689999Y-91375001D02*
X162900000Y-90585002D01*
X134689999Y-103375001D02*
X133900000Y-102585002D01*
X149189999Y-103375001D02*
X148400000Y-102585002D01*
X163689999Y-103375001D02*
X162900000Y-102585002D01*
X134689999Y-115375001D02*
X133900000Y-114585002D01*
X149189999Y-115375001D02*
X148400000Y-114585002D01*
X163689999Y-115375001D02*
X162900000Y-114585002D01*
X156325001Y-78448001D02*
X155398001Y-79375001D01*
X170825001Y-78448001D02*
X169898001Y-79375001D01*
X141825001Y-90448001D02*
X140898001Y-91375001D01*
X156325001Y-90448001D02*
X155398001Y-91375001D01*
X170825001Y-90448001D02*
X169898001Y-91375001D01*
X141825001Y-102448001D02*
X140898001Y-103375001D01*
X156325001Y-102448001D02*
X155398001Y-103375001D01*
X170825001Y-102448001D02*
X169898001Y-103375001D01*
X141825001Y-114448001D02*
X140898001Y-115375001D01*
X156325001Y-114448001D02*
X155398001Y-115375001D01*
X170825001Y-114448001D02*
X169898001Y-115375001D01*
X156325001Y-77625001D02*
X156325001Y-78448001D01*
X170825001Y-77625001D02*
X170825001Y-78448001D01*
X141825001Y-89625001D02*
X141825001Y-90448001D01*
X156325001Y-89625001D02*
X156325001Y-90448001D01*
X170825001Y-89625001D02*
X170825001Y-90448001D01*
X141825001Y-101625001D02*
X141825001Y-102448001D01*
X156325001Y-101625001D02*
X156325001Y-102448001D01*
X170825001Y-101625001D02*
X170825001Y-102448001D01*
X141825001Y-113625001D02*
X141825001Y-114448001D01*
X156325001Y-113625001D02*
X156325001Y-114448001D01*
X170825001Y-113625001D02*
X170825001Y-114448001D01*
X155398001Y-79375001D02*
X149189999Y-79375001D01*
X169898001Y-79375001D02*
X163689999Y-79375001D01*
X140898001Y-91375001D02*
X134689999Y-91375001D01*
X155398001Y-91375001D02*
X149189999Y-91375001D01*
X169898001Y-91375001D02*
X163689999Y-91375001D01*
X140898001Y-103375001D02*
X134689999Y-103375001D01*
X155398001Y-103375001D02*
X149189999Y-103375001D01*
X169898001Y-103375001D02*
X163689999Y-103375001D01*
X140898001Y-115375001D02*
X134689999Y-115375001D01*
X155398001Y-115375001D02*
X149189999Y-115375001D01*
X169898001Y-115375001D02*
X163689999Y-115375001D01*
X155100000Y-76400000D02*
X156325001Y-77625001D01*
X169600000Y-76400000D02*
X170825001Y-77625001D01*
X140600000Y-88400000D02*
X141825001Y-89625001D01*
X155100000Y-88400000D02*
X156325001Y-89625001D01*
X169600000Y-88400000D02*
X170825001Y-89625001D01*
X140600000Y-100400000D02*
X141825001Y-101625001D01*
X155100000Y-100400000D02*
X156325001Y-101625001D01*
X169600000Y-100400000D02*
X170825001Y-101625001D01*
X140600000Y-112400000D02*
X141825001Y-113625001D01*
X155100000Y-112400000D02*
X156325001Y-113625001D01*
X169600000Y-112400000D02*
X170825001Y-113625001D01*
G04 #@! TO.N,+3V3*
X136700000Y-74450000D02*
X137150000Y-74450000D01*
X137150000Y-74450000D02*
X138000000Y-75300000D01*
X138000000Y-75300000D02*
X141100000Y-75300000D01*
X151200000Y-74450000D02*
X151650000Y-74450000D01*
X165700000Y-74450000D02*
X166150000Y-74450000D01*
X136700000Y-86450000D02*
X137150000Y-86450000D01*
X151200000Y-86450000D02*
X151650000Y-86450000D01*
X165700000Y-86450000D02*
X166150000Y-86450000D01*
X136700000Y-98450000D02*
X137150000Y-98450000D01*
X151200000Y-98450000D02*
X151650000Y-98450000D01*
X165700000Y-98450000D02*
X166150000Y-98450000D01*
X136700000Y-110450000D02*
X137150000Y-110450000D01*
X151200000Y-110450000D02*
X151650000Y-110450000D01*
X165700000Y-110450000D02*
X166150000Y-110450000D01*
X151650000Y-74450000D02*
X152500000Y-75300000D01*
X166150000Y-74450000D02*
X167000000Y-75300000D01*
X137150000Y-86450000D02*
X138000000Y-87300000D01*
X151650000Y-86450000D02*
X152500000Y-87300000D01*
X166150000Y-86450000D02*
X167000000Y-87300000D01*
X137150000Y-98450000D02*
X138000000Y-99300000D01*
X151650000Y-98450000D02*
X152500000Y-99300000D01*
X166150000Y-98450000D02*
X167000000Y-99300000D01*
X137150000Y-110450000D02*
X138000000Y-111300000D01*
X151650000Y-110450000D02*
X152500000Y-111300000D01*
X166150000Y-110450000D02*
X167000000Y-111300000D01*
X152500000Y-75300000D02*
X155600000Y-75300000D01*
X167000000Y-75300000D02*
X170100000Y-75300000D01*
X138000000Y-87300000D02*
X141100000Y-87300000D01*
X152500000Y-87300000D02*
X155600000Y-87300000D01*
X167000000Y-87300000D02*
X170100000Y-87300000D01*
X138000000Y-99300000D02*
X141100000Y-99300000D01*
X152500000Y-99300000D02*
X155600000Y-99300000D01*
X167000000Y-99300000D02*
X170100000Y-99300000D01*
X138000000Y-111300000D02*
X141100000Y-111300000D01*
X152500000Y-111300000D02*
X155600000Y-111300000D01*
X167000000Y-111300000D02*
X170100000Y-111300000D01*
G04 #@! TO.N,/E0_filtered*
X141000000Y-73700000D02*
X139800000Y-72500000D01*
X133900000Y-73414998D02*
X133900000Y-74450000D01*
X134814998Y-72500000D02*
X133900000Y-73414998D01*
X139800000Y-72500000D02*
X134814998Y-72500000D01*
X155500000Y-73700000D02*
X154300000Y-72500000D01*
X170000000Y-73700000D02*
X168800000Y-72500000D01*
X141000000Y-85700000D02*
X139800000Y-84500000D01*
X155500000Y-85700000D02*
X154300000Y-84500000D01*
X170000000Y-85700000D02*
X168800000Y-84500000D01*
X141000000Y-97700000D02*
X139800000Y-96500000D01*
X155500000Y-97700000D02*
X154300000Y-96500000D01*
X170000000Y-97700000D02*
X168800000Y-96500000D01*
X141000000Y-109700000D02*
X139800000Y-108500000D01*
X155500000Y-109700000D02*
X154300000Y-108500000D01*
X170000000Y-109700000D02*
X168800000Y-108500000D01*
X148400000Y-73414998D02*
X148400000Y-74450000D01*
X162900000Y-73414998D02*
X162900000Y-74450000D01*
X133900000Y-85414998D02*
X133900000Y-86450000D01*
X148400000Y-85414998D02*
X148400000Y-86450000D01*
X162900000Y-85414998D02*
X162900000Y-86450000D01*
X133900000Y-97414998D02*
X133900000Y-98450000D01*
X148400000Y-97414998D02*
X148400000Y-98450000D01*
X162900000Y-97414998D02*
X162900000Y-98450000D01*
X133900000Y-109414998D02*
X133900000Y-110450000D01*
X148400000Y-109414998D02*
X148400000Y-110450000D01*
X162900000Y-109414998D02*
X162900000Y-110450000D01*
X149314998Y-72500000D02*
X148400000Y-73414998D01*
X163814998Y-72500000D02*
X162900000Y-73414998D01*
X134814998Y-84500000D02*
X133900000Y-85414998D01*
X149314998Y-84500000D02*
X148400000Y-85414998D01*
X163814998Y-84500000D02*
X162900000Y-85414998D01*
X134814998Y-96500000D02*
X133900000Y-97414998D01*
X149314998Y-96500000D02*
X148400000Y-97414998D01*
X163814998Y-96500000D02*
X162900000Y-97414998D01*
X134814998Y-108500000D02*
X133900000Y-109414998D01*
X149314998Y-108500000D02*
X148400000Y-109414998D01*
X163814998Y-108500000D02*
X162900000Y-109414998D01*
X154300000Y-72500000D02*
X149314998Y-72500000D01*
X168800000Y-72500000D02*
X163814998Y-72500000D01*
X139800000Y-84500000D02*
X134814998Y-84500000D01*
X154300000Y-84500000D02*
X149314998Y-84500000D01*
X168800000Y-84500000D02*
X163814998Y-84500000D01*
X139800000Y-96500000D02*
X134814998Y-96500000D01*
X154300000Y-96500000D02*
X149314998Y-96500000D01*
X168800000Y-96500000D02*
X163814998Y-96500000D01*
X139800000Y-108500000D02*
X134814998Y-108500000D01*
X154300000Y-108500000D02*
X149314998Y-108500000D01*
X168800000Y-108500000D02*
X163814998Y-108500000D01*
G04 #@! TO.N,/E1_filtered*
X141100000Y-78100000D02*
X138900000Y-75900000D01*
X136750000Y-75900000D02*
X135300000Y-74450000D01*
X138900000Y-75900000D02*
X136750000Y-75900000D01*
X155600000Y-78100000D02*
X153400000Y-75900000D01*
X170100000Y-78100000D02*
X167900000Y-75900000D01*
X141100000Y-90100000D02*
X138900000Y-87900000D01*
X155600000Y-90100000D02*
X153400000Y-87900000D01*
X170100000Y-90100000D02*
X167900000Y-87900000D01*
X141100000Y-102100000D02*
X138900000Y-99900000D01*
X155600000Y-102100000D02*
X153400000Y-99900000D01*
X170100000Y-102100000D02*
X167900000Y-99900000D01*
X141100000Y-114100000D02*
X138900000Y-111900000D01*
X155600000Y-114100000D02*
X153400000Y-111900000D01*
X170100000Y-114100000D02*
X167900000Y-111900000D01*
X151250000Y-75900000D02*
X149800000Y-74450000D01*
X165750000Y-75900000D02*
X164300000Y-74450000D01*
X136750000Y-87900000D02*
X135300000Y-86450000D01*
X151250000Y-87900000D02*
X149800000Y-86450000D01*
X165750000Y-87900000D02*
X164300000Y-86450000D01*
X136750000Y-99900000D02*
X135300000Y-98450000D01*
X151250000Y-99900000D02*
X149800000Y-98450000D01*
X165750000Y-99900000D02*
X164300000Y-98450000D01*
X136750000Y-111900000D02*
X135300000Y-110450000D01*
X151250000Y-111900000D02*
X149800000Y-110450000D01*
X165750000Y-111900000D02*
X164300000Y-110450000D01*
X153400000Y-75900000D02*
X151250000Y-75900000D01*
X167900000Y-75900000D02*
X165750000Y-75900000D01*
X138900000Y-87900000D02*
X136750000Y-87900000D01*
X153400000Y-87900000D02*
X151250000Y-87900000D01*
X167900000Y-87900000D02*
X165750000Y-87900000D01*
X138900000Y-99900000D02*
X136750000Y-99900000D01*
X153400000Y-99900000D02*
X151250000Y-99900000D01*
X167900000Y-99900000D02*
X165750000Y-99900000D01*
X138900000Y-111900000D02*
X136750000Y-111900000D01*
X153400000Y-111900000D02*
X151250000Y-111900000D01*
X167900000Y-111900000D02*
X165750000Y-111900000D01*
G04 #@! TD*
M02*
