G04 #@! TF.GenerationSoftware,KiCad,Pcbnew,5.0.2-bee76a0~70~ubuntu18.04.1*
G04 #@! TF.CreationDate,2020-03-02T10:40:19+01:00*
G04 #@! TF.ProjectId,output.schmitt_trigger_adapter,6f757470-7574-42e7-9363-686d6974745f,rev?*
G04 #@! TF.SameCoordinates,Original*
G04 #@! TF.FileFunction,Profile,NP*
%FSLAX46Y46*%
G04 Gerber Fmt 4.6, Leading zero omitted, Abs format (unit mm)*
G04 Created by KiCad (PCBNEW 5.0.2-bee76a0~70~ubuntu18.04.1) date Mon 02 Mar 2020 10:40:19 AM CET*
%MOMM*%
%LPD*%
G01*
G04 APERTURE LIST*
%ADD10C,0.150000*%
%ADD11C,0.100000*%
G04 APERTURE END LIST*
D10*
X127000000Y-122000000D02*
X127000000Y-66000000D01*
X179000000Y-122000000D02*
X127000000Y-122000000D01*
X179000000Y-66000000D02*
X179000000Y-122000000D01*
X127000000Y-66000000D02*
X179000000Y-66000000D01*
X177000000Y-120000000D02*
X129000000Y-120000000D01*
X129000000Y-68000000D02*
X177000000Y-68000000D01*
X162000000Y-116000000D02*
X172500000Y-116000000D01*
X147500000Y-116000000D02*
X158000000Y-116000000D01*
X133000000Y-116000000D02*
X143500000Y-116000000D01*
X162000000Y-104000000D02*
X172500000Y-104000000D01*
X147500000Y-104000000D02*
X158000000Y-104000000D01*
X133000000Y-104000000D02*
X143500000Y-104000000D01*
X162000000Y-92000000D02*
X172500000Y-92000000D01*
X147500000Y-92000000D02*
X158000000Y-92000000D01*
X133000000Y-92000000D02*
X143500000Y-92000000D01*
X162000000Y-80000000D02*
X172500000Y-80000000D01*
X147500000Y-80000000D02*
X158000000Y-80000000D01*
X172500000Y-108000000D02*
X162000000Y-108000000D01*
X158000000Y-108000000D02*
X147500000Y-108000000D01*
X143500000Y-108000000D02*
X133000000Y-108000000D01*
X172500000Y-96000000D02*
X162000000Y-96000000D01*
X158000000Y-96000000D02*
X147500000Y-96000000D01*
X143500000Y-96000000D02*
X133000000Y-96000000D01*
X172500000Y-84000000D02*
X162000000Y-84000000D01*
X158000000Y-84000000D02*
X147500000Y-84000000D01*
X143500000Y-84000000D02*
X133000000Y-84000000D01*
X172500000Y-72000000D02*
X162000000Y-72000000D01*
X158000000Y-72000000D02*
X147500000Y-72000000D01*
X143500000Y-72000000D02*
X133000000Y-72000000D01*
X133000000Y-80000000D02*
X143500000Y-80000000D01*
D11*
X133000000Y-73500000D02*
X133000000Y-72000000D01*
X133000000Y-78500000D02*
X133000000Y-80000000D01*
X129000000Y-73500000D02*
X129000000Y-68000000D01*
X129000000Y-73500000D02*
X129007687Y-73599704D01*
X133000000Y-73500000D02*
X132992313Y-73599704D01*
X129007687Y-73599704D02*
X129023015Y-73698522D01*
X132992313Y-73599704D02*
X132976985Y-73698522D01*
X129023015Y-73698522D02*
X129045893Y-73795869D01*
X132976985Y-73698522D02*
X132954107Y-73795869D01*
X129045893Y-73795869D02*
X129076186Y-73891169D01*
X132954107Y-73795869D02*
X132923814Y-73891169D01*
X129076186Y-73891169D02*
X129113715Y-73983859D01*
X132923814Y-73891169D02*
X132886285Y-73983859D01*
X129113715Y-73983859D02*
X129158258Y-74073390D01*
X132886285Y-73983859D02*
X132841742Y-74073390D01*
X129158258Y-74073390D02*
X129209551Y-74159232D01*
X132841742Y-74073390D02*
X132790449Y-74159232D01*
X129209551Y-74159232D02*
X129267291Y-74240877D01*
X132790449Y-74159232D02*
X132732709Y-74240877D01*
X129267291Y-74240877D02*
X129331136Y-74317842D01*
X132732709Y-74240877D02*
X132668864Y-74317842D01*
X129331136Y-74317842D02*
X129400708Y-74389672D01*
X132668864Y-74317842D02*
X132599292Y-74389672D01*
X129400708Y-74389672D02*
X129475595Y-74455942D01*
X132599292Y-74389672D02*
X132524405Y-74455942D01*
X129475595Y-74455942D02*
X129555354Y-74516260D01*
X132524405Y-74455942D02*
X132444646Y-74516260D01*
X129555354Y-74516260D02*
X129639513Y-74570269D01*
X132444646Y-74516260D02*
X132360487Y-74570269D01*
X129639513Y-74570269D02*
X129727574Y-74617649D01*
X132360487Y-74570269D02*
X132272426Y-74617649D01*
X129727574Y-74617649D02*
X129819016Y-74658120D01*
X132272426Y-74617649D02*
X132180984Y-74658120D01*
X129819016Y-74658120D02*
X129913298Y-74691442D01*
X132180984Y-74658120D02*
X132086702Y-74691442D01*
X129913298Y-74691442D02*
X130009862Y-74717418D01*
X132086702Y-74691442D02*
X131990138Y-74717418D01*
X130009862Y-74717418D02*
X130108137Y-74735895D01*
X131990138Y-74717418D02*
X131891863Y-74735895D01*
X130108137Y-74735895D02*
X130207542Y-74746763D01*
X131891863Y-74735895D02*
X131792458Y-74746763D01*
X130207542Y-74746763D02*
X130307488Y-74749958D01*
X131792458Y-74746763D02*
X131692512Y-74749958D01*
X131692512Y-74749958D02*
X130307488Y-74749958D01*
X129000000Y-78499970D02*
X129007687Y-78400266D01*
X133000000Y-78500000D02*
X132992313Y-78400296D01*
X129007687Y-78400266D02*
X129023015Y-78301448D01*
X132992313Y-78400296D02*
X132976985Y-78301478D01*
X129023015Y-78301448D02*
X129045893Y-78204101D01*
X132976985Y-78301478D02*
X132954107Y-78204131D01*
X129045893Y-78204101D02*
X129076186Y-78108801D01*
X132954107Y-78204131D02*
X132923814Y-78108831D01*
X129076186Y-78108801D02*
X129113715Y-78016111D01*
X132923814Y-78108831D02*
X132886285Y-78016141D01*
X129113715Y-78016111D02*
X129158258Y-77926580D01*
X132886285Y-78016141D02*
X132841742Y-77926610D01*
X129158258Y-77926580D02*
X129209551Y-77840738D01*
X132841742Y-77926610D02*
X132790449Y-77840768D01*
X129209551Y-77840738D02*
X129267291Y-77759093D01*
X132790449Y-77840768D02*
X132732709Y-77759123D01*
X129267291Y-77759093D02*
X129331136Y-77682128D01*
X132732709Y-77759123D02*
X132668864Y-77682158D01*
X129331136Y-77682128D02*
X129400708Y-77610298D01*
X132668864Y-77682158D02*
X132599292Y-77610328D01*
X129400708Y-77610298D02*
X129475595Y-77544028D01*
X132599292Y-77610328D02*
X132524405Y-77544058D01*
X129475595Y-77544028D02*
X129555354Y-77483710D01*
X132524405Y-77544058D02*
X132444646Y-77483740D01*
X129555354Y-77483710D02*
X129639513Y-77429701D01*
X132444646Y-77483740D02*
X132360487Y-77429731D01*
X129639513Y-77429701D02*
X129727574Y-77382321D01*
X132360487Y-77429731D02*
X132272426Y-77382351D01*
X129727574Y-77382321D02*
X129819016Y-77341850D01*
X132272426Y-77382351D02*
X132180984Y-77341880D01*
X129819016Y-77341850D02*
X129913298Y-77308528D01*
X132180984Y-77341880D02*
X132086702Y-77308558D01*
X129913298Y-77308528D02*
X130009862Y-77282552D01*
X132086702Y-77308558D02*
X131990138Y-77282582D01*
X130009862Y-77282552D02*
X130108137Y-77264075D01*
X131990138Y-77282582D02*
X131891863Y-77264105D01*
X130108137Y-77264075D02*
X130207542Y-77253207D01*
X131891863Y-77264105D02*
X131792458Y-77253237D01*
X130207542Y-77253207D02*
X130307488Y-77250012D01*
X131792458Y-77253237D02*
X131692512Y-77250042D01*
X131692512Y-77250042D02*
X130307488Y-77250012D01*
X133000000Y-85500000D02*
X133000000Y-84000000D01*
X133000000Y-90500000D02*
X133000000Y-92000000D01*
X129000000Y-85499995D02*
X129000000Y-78499970D01*
X133000000Y-85500000D02*
X132992313Y-85599704D01*
X129000000Y-85499995D02*
X129007687Y-85599699D01*
X132992313Y-85599704D02*
X132976985Y-85698522D01*
X129007687Y-85599699D02*
X129023015Y-85698517D01*
X132976985Y-85698522D02*
X132954107Y-85795869D01*
X129023015Y-85698517D02*
X129045893Y-85795864D01*
X132954107Y-85795869D02*
X132923814Y-85891169D01*
X129045893Y-85795864D02*
X129076186Y-85891164D01*
X132923814Y-85891169D02*
X132886285Y-85983859D01*
X129076186Y-85891164D02*
X129113715Y-85983854D01*
X132886285Y-85983859D02*
X132841742Y-86073390D01*
X129113715Y-85983854D02*
X129158258Y-86073385D01*
X132841742Y-86073390D02*
X132790449Y-86159232D01*
X129158258Y-86073385D02*
X129209551Y-86159227D01*
X132790449Y-86159232D02*
X132732709Y-86240877D01*
X129209551Y-86159227D02*
X129267291Y-86240872D01*
X132732709Y-86240877D02*
X132668864Y-86317842D01*
X129267291Y-86240872D02*
X129331136Y-86317837D01*
X132668864Y-86317842D02*
X132599292Y-86389672D01*
X129331136Y-86317837D02*
X129400708Y-86389667D01*
X132599292Y-86389672D02*
X132524405Y-86455942D01*
X129400708Y-86389667D02*
X129475595Y-86455937D01*
X132524405Y-86455942D02*
X132444646Y-86516260D01*
X129475595Y-86455937D02*
X129555354Y-86516255D01*
X132444646Y-86516260D02*
X132360487Y-86570269D01*
X129555354Y-86516255D02*
X129639513Y-86570264D01*
X132360487Y-86570269D02*
X132272426Y-86617649D01*
X129639513Y-86570264D02*
X129727574Y-86617644D01*
X132272426Y-86617649D02*
X132180984Y-86658120D01*
X129727574Y-86617644D02*
X129819016Y-86658115D01*
X132180984Y-86658120D02*
X132086702Y-86691442D01*
X129819016Y-86658115D02*
X129913298Y-86691437D01*
X132086702Y-86691442D02*
X131990138Y-86717418D01*
X129913298Y-86691437D02*
X130009862Y-86717413D01*
X131990138Y-86717418D02*
X131891863Y-86735895D01*
X130009862Y-86717413D02*
X130108137Y-86735890D01*
X131891863Y-86735895D02*
X131792458Y-86746763D01*
X130108137Y-86735890D02*
X130207542Y-86746758D01*
X131792458Y-86746763D02*
X131692512Y-86749958D01*
X130207542Y-86746758D02*
X130307488Y-86749953D01*
X131692512Y-86749958D02*
X130307488Y-86749953D01*
X129000000Y-90500000D02*
X129007687Y-90400296D01*
X133000000Y-90500000D02*
X132992313Y-90400296D01*
X129007687Y-90400296D02*
X129023015Y-90301478D01*
X132992313Y-90400296D02*
X132976985Y-90301478D01*
X129023015Y-90301478D02*
X129045893Y-90204131D01*
X132976985Y-90301478D02*
X132954107Y-90204131D01*
X129045893Y-90204131D02*
X129076186Y-90108831D01*
X132954107Y-90204131D02*
X132923814Y-90108831D01*
X129076186Y-90108831D02*
X129113715Y-90016141D01*
X132923814Y-90108831D02*
X132886285Y-90016141D01*
X129113715Y-90016141D02*
X129158258Y-89926610D01*
X132886285Y-90016141D02*
X132841742Y-89926610D01*
X129158258Y-89926610D02*
X129209551Y-89840768D01*
X132841742Y-89926610D02*
X132790449Y-89840768D01*
X129209551Y-89840768D02*
X129267291Y-89759123D01*
X132790449Y-89840768D02*
X132732709Y-89759123D01*
X129267291Y-89759123D02*
X129331136Y-89682158D01*
X132732709Y-89759123D02*
X132668864Y-89682158D01*
X129331136Y-89682158D02*
X129400708Y-89610328D01*
X132668864Y-89682158D02*
X132599292Y-89610328D01*
X129400708Y-89610328D02*
X129475595Y-89544058D01*
X132599292Y-89610328D02*
X132524405Y-89544058D01*
X129475595Y-89544058D02*
X129555354Y-89483740D01*
X132524405Y-89544058D02*
X132444646Y-89483740D01*
X129555354Y-89483740D02*
X129639513Y-89429731D01*
X132444646Y-89483740D02*
X132360487Y-89429731D01*
X129639513Y-89429731D02*
X129727574Y-89382351D01*
X132360487Y-89429731D02*
X132272426Y-89382351D01*
X129727574Y-89382351D02*
X129819016Y-89341880D01*
X132272426Y-89382351D02*
X132180984Y-89341880D01*
X129819016Y-89341880D02*
X129913298Y-89308558D01*
X132180984Y-89341880D02*
X132086702Y-89308558D01*
X129913298Y-89308558D02*
X130009862Y-89282582D01*
X132086702Y-89308558D02*
X131990138Y-89282582D01*
X130009862Y-89282582D02*
X130108137Y-89264105D01*
X131990138Y-89282582D02*
X131891863Y-89264105D01*
X130108137Y-89264105D02*
X130207542Y-89253237D01*
X131891863Y-89264105D02*
X131792458Y-89253237D01*
X130207542Y-89253237D02*
X130307488Y-89250042D01*
X131792458Y-89253237D02*
X131692512Y-89250042D01*
X131692512Y-89250042D02*
X130307488Y-89250042D01*
X133000000Y-97500000D02*
X133000000Y-96000000D01*
X133000000Y-102500000D02*
X133000000Y-104000000D01*
X129000000Y-97500002D02*
X129000000Y-90500000D01*
X129000000Y-97500002D02*
X129007687Y-97599706D01*
X133000000Y-97500000D02*
X132992313Y-97599704D01*
X129007687Y-97599706D02*
X129023015Y-97698524D01*
X132992313Y-97599704D02*
X132976985Y-97698522D01*
X129023015Y-97698524D02*
X129045893Y-97795871D01*
X132976985Y-97698522D02*
X132954107Y-97795869D01*
X129045893Y-97795871D02*
X129076186Y-97891171D01*
X132954107Y-97795869D02*
X132923814Y-97891169D01*
X129076186Y-97891171D02*
X129113715Y-97983861D01*
X132923814Y-97891169D02*
X132886285Y-97983859D01*
X129113715Y-97983861D02*
X129158258Y-98073392D01*
X132886285Y-97983859D02*
X132841742Y-98073390D01*
X129158258Y-98073392D02*
X129209551Y-98159234D01*
X132841742Y-98073390D02*
X132790449Y-98159232D01*
X129209551Y-98159234D02*
X129267291Y-98240879D01*
X132790449Y-98159232D02*
X132732709Y-98240877D01*
X129267291Y-98240879D02*
X129331136Y-98317844D01*
X132732709Y-98240877D02*
X132668864Y-98317842D01*
X129331136Y-98317844D02*
X129400708Y-98389674D01*
X132668864Y-98317842D02*
X132599292Y-98389672D01*
X129400708Y-98389674D02*
X129475595Y-98455944D01*
X132599292Y-98389672D02*
X132524405Y-98455942D01*
X129475595Y-98455944D02*
X129555354Y-98516262D01*
X132524405Y-98455942D02*
X132444646Y-98516260D01*
X129555354Y-98516262D02*
X129639513Y-98570271D01*
X132444646Y-98516260D02*
X132360487Y-98570269D01*
X129639513Y-98570271D02*
X129727574Y-98617651D01*
X132360487Y-98570269D02*
X132272426Y-98617649D01*
X129727574Y-98617651D02*
X129819016Y-98658122D01*
X132272426Y-98617649D02*
X132180984Y-98658120D01*
X129819016Y-98658122D02*
X129913298Y-98691444D01*
X132180984Y-98658120D02*
X132086702Y-98691442D01*
X129913298Y-98691444D02*
X130009862Y-98717420D01*
X132086702Y-98691442D02*
X131990138Y-98717418D01*
X130009862Y-98717420D02*
X130108137Y-98735897D01*
X131990138Y-98717418D02*
X131891863Y-98735895D01*
X130108137Y-98735897D02*
X130207542Y-98746765D01*
X131891863Y-98735895D02*
X131792458Y-98746763D01*
X130207542Y-98746765D02*
X130307488Y-98749960D01*
X131792458Y-98746763D02*
X131692512Y-98749958D01*
X131692512Y-98749958D02*
X130307488Y-98749960D01*
X129000000Y-102500000D02*
X129007687Y-102400296D01*
X133000000Y-102500000D02*
X132992313Y-102400296D01*
X129007687Y-102400296D02*
X129023015Y-102301478D01*
X132992313Y-102400296D02*
X132976985Y-102301478D01*
X129023015Y-102301478D02*
X129045893Y-102204131D01*
X132976985Y-102301478D02*
X132954107Y-102204131D01*
X129045893Y-102204131D02*
X129076186Y-102108831D01*
X132954107Y-102204131D02*
X132923814Y-102108831D01*
X129076186Y-102108831D02*
X129113715Y-102016141D01*
X132923814Y-102108831D02*
X132886285Y-102016141D01*
X129113715Y-102016141D02*
X129158258Y-101926610D01*
X132886285Y-102016141D02*
X132841742Y-101926610D01*
X129158258Y-101926610D02*
X129209551Y-101840768D01*
X132841742Y-101926610D02*
X132790449Y-101840768D01*
X129209551Y-101840768D02*
X129267291Y-101759123D01*
X132790449Y-101840768D02*
X132732709Y-101759123D01*
X129267291Y-101759123D02*
X129331136Y-101682158D01*
X132732709Y-101759123D02*
X132668864Y-101682158D01*
X129331136Y-101682158D02*
X129400708Y-101610328D01*
X132668864Y-101682158D02*
X132599292Y-101610328D01*
X129400708Y-101610328D02*
X129475595Y-101544058D01*
X132599292Y-101610328D02*
X132524405Y-101544058D01*
X129475595Y-101544058D02*
X129555354Y-101483740D01*
X132524405Y-101544058D02*
X132444646Y-101483740D01*
X129555354Y-101483740D02*
X129639513Y-101429731D01*
X132444646Y-101483740D02*
X132360487Y-101429731D01*
X129639513Y-101429731D02*
X129727574Y-101382351D01*
X132360487Y-101429731D02*
X132272426Y-101382351D01*
X129727574Y-101382351D02*
X129819016Y-101341880D01*
X132272426Y-101382351D02*
X132180984Y-101341880D01*
X129819016Y-101341880D02*
X129913298Y-101308558D01*
X132180984Y-101341880D02*
X132086702Y-101308558D01*
X129913298Y-101308558D02*
X130009862Y-101282582D01*
X132086702Y-101308558D02*
X131990138Y-101282582D01*
X130009862Y-101282582D02*
X130108137Y-101264105D01*
X131990138Y-101282582D02*
X131891863Y-101264105D01*
X130108137Y-101264105D02*
X130207542Y-101253237D01*
X131891863Y-101264105D02*
X131792458Y-101253237D01*
X130207542Y-101253237D02*
X130307488Y-101250042D01*
X131792458Y-101253237D02*
X131692512Y-101250042D01*
X131692512Y-101250042D02*
X130307488Y-101250042D01*
X133000000Y-109500000D02*
X133000000Y-108000000D01*
X133000000Y-114500000D02*
X133000000Y-116000000D01*
X129000000Y-109500002D02*
X129000000Y-102500000D01*
X129000000Y-114500000D02*
X129000000Y-120000000D01*
X129000000Y-109500002D02*
X129007687Y-109599706D01*
X133000000Y-109500000D02*
X132992313Y-109599704D01*
X129007687Y-109599706D02*
X129023015Y-109698524D01*
X132992313Y-109599704D02*
X132976985Y-109698522D01*
X129023015Y-109698524D02*
X129045893Y-109795871D01*
X132976985Y-109698522D02*
X132954107Y-109795869D01*
X129045893Y-109795871D02*
X129076186Y-109891171D01*
X132954107Y-109795869D02*
X132923814Y-109891169D01*
X129076186Y-109891171D02*
X129113715Y-109983861D01*
X132923814Y-109891169D02*
X132886285Y-109983859D01*
X129113715Y-109983861D02*
X129158258Y-110073392D01*
X132886285Y-109983859D02*
X132841742Y-110073390D01*
X129158258Y-110073392D02*
X129209551Y-110159234D01*
X132841742Y-110073390D02*
X132790449Y-110159232D01*
X129209551Y-110159234D02*
X129267291Y-110240879D01*
X132790449Y-110159232D02*
X132732709Y-110240877D01*
X129267291Y-110240879D02*
X129331136Y-110317844D01*
X132732709Y-110240877D02*
X132668864Y-110317842D01*
X129331136Y-110317844D02*
X129400708Y-110389674D01*
X132668864Y-110317842D02*
X132599292Y-110389672D01*
X129400708Y-110389674D02*
X129475595Y-110455944D01*
X132599292Y-110389672D02*
X132524405Y-110455942D01*
X129475595Y-110455944D02*
X129555354Y-110516262D01*
X132524405Y-110455942D02*
X132444646Y-110516260D01*
X129555354Y-110516262D02*
X129639513Y-110570271D01*
X132444646Y-110516260D02*
X132360487Y-110570269D01*
X129639513Y-110570271D02*
X129727574Y-110617651D01*
X132360487Y-110570269D02*
X132272426Y-110617649D01*
X129727574Y-110617651D02*
X129819016Y-110658122D01*
X132272426Y-110617649D02*
X132180984Y-110658120D01*
X129819016Y-110658122D02*
X129913298Y-110691444D01*
X132180984Y-110658120D02*
X132086702Y-110691442D01*
X129913298Y-110691444D02*
X130009862Y-110717420D01*
X132086702Y-110691442D02*
X131990138Y-110717418D01*
X130009862Y-110717420D02*
X130108137Y-110735897D01*
X131990138Y-110717418D02*
X131891863Y-110735895D01*
X130108137Y-110735897D02*
X130207542Y-110746765D01*
X131891863Y-110735895D02*
X131792458Y-110746763D01*
X130207542Y-110746765D02*
X130307488Y-110749960D01*
X131792458Y-110746763D02*
X131692512Y-110749958D01*
X131692512Y-110749958D02*
X130307488Y-110749960D01*
X129000000Y-114500000D02*
X129007687Y-114400296D01*
X133000000Y-114500000D02*
X132992313Y-114400296D01*
X129007687Y-114400296D02*
X129023015Y-114301478D01*
X132992313Y-114400296D02*
X132976985Y-114301478D01*
X129023015Y-114301478D02*
X129045893Y-114204131D01*
X132976985Y-114301478D02*
X132954107Y-114204131D01*
X129045893Y-114204131D02*
X129076186Y-114108831D01*
X132954107Y-114204131D02*
X132923814Y-114108831D01*
X129076186Y-114108831D02*
X129113715Y-114016141D01*
X132923814Y-114108831D02*
X132886285Y-114016141D01*
X129113715Y-114016141D02*
X129158258Y-113926610D01*
X132886285Y-114016141D02*
X132841742Y-113926610D01*
X129158258Y-113926610D02*
X129209551Y-113840768D01*
X132841742Y-113926610D02*
X132790449Y-113840768D01*
X129209551Y-113840768D02*
X129267291Y-113759123D01*
X132790449Y-113840768D02*
X132732709Y-113759123D01*
X129267291Y-113759123D02*
X129331136Y-113682158D01*
X132732709Y-113759123D02*
X132668864Y-113682158D01*
X129331136Y-113682158D02*
X129400708Y-113610328D01*
X132668864Y-113682158D02*
X132599292Y-113610328D01*
X129400708Y-113610328D02*
X129475595Y-113544058D01*
X132599292Y-113610328D02*
X132524405Y-113544058D01*
X129475595Y-113544058D02*
X129555354Y-113483740D01*
X132524405Y-113544058D02*
X132444646Y-113483740D01*
X129555354Y-113483740D02*
X129639513Y-113429731D01*
X132444646Y-113483740D02*
X132360487Y-113429731D01*
X129639513Y-113429731D02*
X129727574Y-113382351D01*
X132360487Y-113429731D02*
X132272426Y-113382351D01*
X129727574Y-113382351D02*
X129819016Y-113341880D01*
X132272426Y-113382351D02*
X132180984Y-113341880D01*
X129819016Y-113341880D02*
X129913298Y-113308558D01*
X132180984Y-113341880D02*
X132086702Y-113308558D01*
X129913298Y-113308558D02*
X130009862Y-113282582D01*
X132086702Y-113308558D02*
X131990138Y-113282582D01*
X130009862Y-113282582D02*
X130108137Y-113264105D01*
X131990138Y-113282582D02*
X131891863Y-113264105D01*
X130108137Y-113264105D02*
X130207542Y-113253237D01*
X131891863Y-113264105D02*
X131792458Y-113253237D01*
X130207542Y-113253237D02*
X130307488Y-113250042D01*
X131792458Y-113253237D02*
X131692512Y-113250042D01*
X131692512Y-113250042D02*
X130307488Y-113250042D01*
X172500000Y-109500000D02*
X172500000Y-108000000D01*
X172500000Y-114500000D02*
X172500000Y-116000000D01*
X177000000Y-114500000D02*
X177000000Y-120000000D01*
X177000000Y-114500000D02*
X176992313Y-114400296D01*
X172500000Y-114500000D02*
X172507687Y-114400296D01*
X176992313Y-114400296D02*
X176976985Y-114301478D01*
X172507687Y-114400296D02*
X172523015Y-114301478D01*
X176976985Y-114301478D02*
X176954107Y-114204131D01*
X172523015Y-114301478D02*
X172545893Y-114204131D01*
X176954107Y-114204131D02*
X176923814Y-114108831D01*
X172545893Y-114204131D02*
X172576186Y-114108831D01*
X176923814Y-114108831D02*
X176886285Y-114016141D01*
X172576186Y-114108831D02*
X172613715Y-114016141D01*
X176886285Y-114016141D02*
X176841742Y-113926610D01*
X172613715Y-114016141D02*
X172658258Y-113926610D01*
X176841742Y-113926610D02*
X176790449Y-113840768D01*
X172658258Y-113926610D02*
X172709551Y-113840768D01*
X176790449Y-113840768D02*
X176732709Y-113759123D01*
X172709551Y-113840768D02*
X172767291Y-113759123D01*
X176732709Y-113759123D02*
X176668864Y-113682158D01*
X172767291Y-113759123D02*
X172831136Y-113682158D01*
X176668864Y-113682158D02*
X176599292Y-113610328D01*
X172831136Y-113682158D02*
X172900708Y-113610328D01*
X176599292Y-113610328D02*
X176524405Y-113544058D01*
X172900708Y-113610328D02*
X172975595Y-113544058D01*
X176524405Y-113544058D02*
X176444646Y-113483740D01*
X172975595Y-113544058D02*
X173055354Y-113483740D01*
X176444646Y-113483740D02*
X176360487Y-113429731D01*
X173055354Y-113483740D02*
X173139513Y-113429731D01*
X176360487Y-113429731D02*
X176272426Y-113382351D01*
X173139513Y-113429731D02*
X173227574Y-113382351D01*
X176272426Y-113382351D02*
X176180984Y-113341880D01*
X173227574Y-113382351D02*
X173319016Y-113341880D01*
X176180984Y-113341880D02*
X176086702Y-113308558D01*
X173319016Y-113341880D02*
X173413298Y-113308558D01*
X176086702Y-113308558D02*
X175990138Y-113282582D01*
X173413298Y-113308558D02*
X173509862Y-113282582D01*
X175990138Y-113282582D02*
X175891863Y-113264105D01*
X173509862Y-113282582D02*
X173608137Y-113264105D01*
X175891863Y-113264105D02*
X175792458Y-113253237D01*
X173608137Y-113264105D02*
X173707542Y-113253237D01*
X175792458Y-113253237D02*
X175692512Y-113250042D01*
X173707542Y-113253237D02*
X173807488Y-113250042D01*
X173807488Y-113250042D02*
X175692512Y-113250042D01*
X177000000Y-109500030D02*
X176992313Y-109599734D01*
X172500000Y-109500000D02*
X172507687Y-109599704D01*
X176992313Y-109599734D02*
X176976985Y-109698552D01*
X172507687Y-109599704D02*
X172523015Y-109698522D01*
X176976985Y-109698552D02*
X176954107Y-109795899D01*
X172523015Y-109698522D02*
X172545893Y-109795869D01*
X176954107Y-109795899D02*
X176923814Y-109891199D01*
X172545893Y-109795869D02*
X172576186Y-109891169D01*
X176923814Y-109891199D02*
X176886285Y-109983889D01*
X172576186Y-109891169D02*
X172613715Y-109983859D01*
X176886285Y-109983889D02*
X176841742Y-110073420D01*
X172613715Y-109983859D02*
X172658258Y-110073390D01*
X176841742Y-110073420D02*
X176790449Y-110159262D01*
X172658258Y-110073390D02*
X172709551Y-110159232D01*
X176790449Y-110159262D02*
X176732709Y-110240907D01*
X172709551Y-110159232D02*
X172767291Y-110240877D01*
X176732709Y-110240907D02*
X176668864Y-110317872D01*
X172767291Y-110240877D02*
X172831136Y-110317842D01*
X176668864Y-110317872D02*
X176599292Y-110389702D01*
X172831136Y-110317842D02*
X172900708Y-110389672D01*
X176599292Y-110389702D02*
X176524405Y-110455972D01*
X172900708Y-110389672D02*
X172975595Y-110455942D01*
X176524405Y-110455972D02*
X176444646Y-110516290D01*
X172975595Y-110455942D02*
X173055354Y-110516260D01*
X176444646Y-110516290D02*
X176360487Y-110570299D01*
X173055354Y-110516260D02*
X173139513Y-110570269D01*
X176360487Y-110570299D02*
X176272426Y-110617679D01*
X173139513Y-110570269D02*
X173227574Y-110617649D01*
X176272426Y-110617679D02*
X176180984Y-110658150D01*
X173227574Y-110617649D02*
X173319016Y-110658120D01*
X176180984Y-110658150D02*
X176086702Y-110691472D01*
X173319016Y-110658120D02*
X173413298Y-110691442D01*
X176086702Y-110691472D02*
X175990138Y-110717448D01*
X173413298Y-110691442D02*
X173509862Y-110717418D01*
X175990138Y-110717448D02*
X175891863Y-110735925D01*
X173509862Y-110717418D02*
X173608137Y-110735895D01*
X175891863Y-110735925D02*
X175792458Y-110746793D01*
X173608137Y-110735895D02*
X173707542Y-110746763D01*
X175792458Y-110746793D02*
X175692512Y-110749988D01*
X173707542Y-110746763D02*
X173807488Y-110749958D01*
X173807488Y-110749958D02*
X175692512Y-110749988D01*
X172500000Y-97500000D02*
X172500000Y-96000000D01*
X172500000Y-102500000D02*
X172500000Y-104000000D01*
X177000000Y-102500005D02*
X177000000Y-109500030D01*
X172500000Y-102500000D02*
X172507687Y-102400296D01*
X177000000Y-102500005D02*
X176992313Y-102400301D01*
X172507687Y-102400296D02*
X172523015Y-102301478D01*
X176992313Y-102400301D02*
X176976985Y-102301483D01*
X172523015Y-102301478D02*
X172545893Y-102204131D01*
X176976985Y-102301483D02*
X176954107Y-102204136D01*
X172545893Y-102204131D02*
X172576186Y-102108831D01*
X176954107Y-102204136D02*
X176923814Y-102108836D01*
X172576186Y-102108831D02*
X172613715Y-102016141D01*
X176923814Y-102108836D02*
X176886285Y-102016146D01*
X172613715Y-102016141D02*
X172658258Y-101926610D01*
X176886285Y-102016146D02*
X176841742Y-101926615D01*
X172658258Y-101926610D02*
X172709551Y-101840768D01*
X176841742Y-101926615D02*
X176790449Y-101840773D01*
X172709551Y-101840768D02*
X172767291Y-101759123D01*
X176790449Y-101840773D02*
X176732709Y-101759128D01*
X172767291Y-101759123D02*
X172831136Y-101682158D01*
X176732709Y-101759128D02*
X176668864Y-101682163D01*
X172831136Y-101682158D02*
X172900708Y-101610328D01*
X176668864Y-101682163D02*
X176599292Y-101610333D01*
X172900708Y-101610328D02*
X172975595Y-101544058D01*
X176599292Y-101610333D02*
X176524405Y-101544063D01*
X172975595Y-101544058D02*
X173055354Y-101483740D01*
X176524405Y-101544063D02*
X176444646Y-101483745D01*
X173055354Y-101483740D02*
X173139513Y-101429731D01*
X176444646Y-101483745D02*
X176360487Y-101429736D01*
X173139513Y-101429731D02*
X173227574Y-101382351D01*
X176360487Y-101429736D02*
X176272426Y-101382356D01*
X173227574Y-101382351D02*
X173319016Y-101341880D01*
X176272426Y-101382356D02*
X176180984Y-101341885D01*
X173319016Y-101341880D02*
X173413298Y-101308558D01*
X176180984Y-101341885D02*
X176086702Y-101308563D01*
X173413298Y-101308558D02*
X173509862Y-101282582D01*
X176086702Y-101308563D02*
X175990138Y-101282587D01*
X173509862Y-101282582D02*
X173608137Y-101264105D01*
X175990138Y-101282587D02*
X175891863Y-101264110D01*
X173608137Y-101264105D02*
X173707542Y-101253237D01*
X175891863Y-101264110D02*
X175792458Y-101253242D01*
X173707542Y-101253237D02*
X173807488Y-101250042D01*
X175792458Y-101253242D02*
X175692512Y-101250047D01*
X173807488Y-101250042D02*
X175692512Y-101250047D01*
X177000000Y-97500000D02*
X176992313Y-97599704D01*
X172500000Y-97500000D02*
X172507687Y-97599704D01*
X176992313Y-97599704D02*
X176976985Y-97698522D01*
X172507687Y-97599704D02*
X172523015Y-97698522D01*
X176976985Y-97698522D02*
X176954107Y-97795869D01*
X172523015Y-97698522D02*
X172545893Y-97795869D01*
X176954107Y-97795869D02*
X176923814Y-97891169D01*
X172545893Y-97795869D02*
X172576186Y-97891169D01*
X176923814Y-97891169D02*
X176886285Y-97983859D01*
X172576186Y-97891169D02*
X172613715Y-97983859D01*
X176886285Y-97983859D02*
X176841742Y-98073390D01*
X172613715Y-97983859D02*
X172658258Y-98073390D01*
X176841742Y-98073390D02*
X176790449Y-98159232D01*
X172658258Y-98073390D02*
X172709551Y-98159232D01*
X176790449Y-98159232D02*
X176732709Y-98240877D01*
X172709551Y-98159232D02*
X172767291Y-98240877D01*
X176732709Y-98240877D02*
X176668864Y-98317842D01*
X172767291Y-98240877D02*
X172831136Y-98317842D01*
X176668864Y-98317842D02*
X176599292Y-98389672D01*
X172831136Y-98317842D02*
X172900708Y-98389672D01*
X176599292Y-98389672D02*
X176524405Y-98455942D01*
X172900708Y-98389672D02*
X172975595Y-98455942D01*
X176524405Y-98455942D02*
X176444646Y-98516260D01*
X172975595Y-98455942D02*
X173055354Y-98516260D01*
X176444646Y-98516260D02*
X176360487Y-98570269D01*
X173055354Y-98516260D02*
X173139513Y-98570269D01*
X176360487Y-98570269D02*
X176272426Y-98617649D01*
X173139513Y-98570269D02*
X173227574Y-98617649D01*
X176272426Y-98617649D02*
X176180984Y-98658120D01*
X173227574Y-98617649D02*
X173319016Y-98658120D01*
X176180984Y-98658120D02*
X176086702Y-98691442D01*
X173319016Y-98658120D02*
X173413298Y-98691442D01*
X176086702Y-98691442D02*
X175990138Y-98717418D01*
X173413298Y-98691442D02*
X173509862Y-98717418D01*
X175990138Y-98717418D02*
X175891863Y-98735895D01*
X173509862Y-98717418D02*
X173608137Y-98735895D01*
X175891863Y-98735895D02*
X175792458Y-98746763D01*
X173608137Y-98735895D02*
X173707542Y-98746763D01*
X175792458Y-98746763D02*
X175692512Y-98749958D01*
X173707542Y-98746763D02*
X173807488Y-98749958D01*
X173807488Y-98749958D02*
X175692512Y-98749958D01*
X172500000Y-85500000D02*
X172500000Y-84000000D01*
X172500000Y-90500000D02*
X172500000Y-92000000D01*
X177000000Y-90499998D02*
X177000000Y-97500000D01*
X177000000Y-90499998D02*
X176992313Y-90400294D01*
X172500000Y-90500000D02*
X172507687Y-90400296D01*
X176992313Y-90400294D02*
X176976985Y-90301476D01*
X172507687Y-90400296D02*
X172523015Y-90301478D01*
X176976985Y-90301476D02*
X176954107Y-90204129D01*
X172523015Y-90301478D02*
X172545893Y-90204131D01*
X176954107Y-90204129D02*
X176923814Y-90108829D01*
X172545893Y-90204131D02*
X172576186Y-90108831D01*
X176923814Y-90108829D02*
X176886285Y-90016139D01*
X172576186Y-90108831D02*
X172613715Y-90016141D01*
X176886285Y-90016139D02*
X176841742Y-89926608D01*
X172613715Y-90016141D02*
X172658258Y-89926610D01*
X176841742Y-89926608D02*
X176790449Y-89840766D01*
X172658258Y-89926610D02*
X172709551Y-89840768D01*
X176790449Y-89840766D02*
X176732709Y-89759121D01*
X172709551Y-89840768D02*
X172767291Y-89759123D01*
X176732709Y-89759121D02*
X176668864Y-89682156D01*
X172767291Y-89759123D02*
X172831136Y-89682158D01*
X176668864Y-89682156D02*
X176599292Y-89610326D01*
X172831136Y-89682158D02*
X172900708Y-89610328D01*
X176599292Y-89610326D02*
X176524405Y-89544056D01*
X172900708Y-89610328D02*
X172975595Y-89544058D01*
X176524405Y-89544056D02*
X176444646Y-89483738D01*
X172975595Y-89544058D02*
X173055354Y-89483740D01*
X176444646Y-89483738D02*
X176360487Y-89429729D01*
X173055354Y-89483740D02*
X173139513Y-89429731D01*
X176360487Y-89429729D02*
X176272426Y-89382349D01*
X173139513Y-89429731D02*
X173227574Y-89382351D01*
X176272426Y-89382349D02*
X176180984Y-89341878D01*
X173227574Y-89382351D02*
X173319016Y-89341880D01*
X176180984Y-89341878D02*
X176086702Y-89308556D01*
X173319016Y-89341880D02*
X173413298Y-89308558D01*
X176086702Y-89308556D02*
X175990138Y-89282580D01*
X173413298Y-89308558D02*
X173509862Y-89282582D01*
X175990138Y-89282580D02*
X175891863Y-89264103D01*
X173509862Y-89282582D02*
X173608137Y-89264105D01*
X175891863Y-89264103D02*
X175792458Y-89253235D01*
X173608137Y-89264105D02*
X173707542Y-89253237D01*
X175792458Y-89253235D02*
X175692512Y-89250040D01*
X173707542Y-89253237D02*
X173807488Y-89250042D01*
X173807488Y-89250042D02*
X175692512Y-89250040D01*
X177000000Y-85500000D02*
X176992313Y-85599704D01*
X172500000Y-85500000D02*
X172507687Y-85599704D01*
X176992313Y-85599704D02*
X176976985Y-85698522D01*
X172507687Y-85599704D02*
X172523015Y-85698522D01*
X176976985Y-85698522D02*
X176954107Y-85795869D01*
X172523015Y-85698522D02*
X172545893Y-85795869D01*
X176954107Y-85795869D02*
X176923814Y-85891169D01*
X172545893Y-85795869D02*
X172576186Y-85891169D01*
X176923814Y-85891169D02*
X176886285Y-85983859D01*
X172576186Y-85891169D02*
X172613715Y-85983859D01*
X176886285Y-85983859D02*
X176841742Y-86073390D01*
X172613715Y-85983859D02*
X172658258Y-86073390D01*
X176841742Y-86073390D02*
X176790449Y-86159232D01*
X172658258Y-86073390D02*
X172709551Y-86159232D01*
X176790449Y-86159232D02*
X176732709Y-86240877D01*
X172709551Y-86159232D02*
X172767291Y-86240877D01*
X176732709Y-86240877D02*
X176668864Y-86317842D01*
X172767291Y-86240877D02*
X172831136Y-86317842D01*
X176668864Y-86317842D02*
X176599292Y-86389672D01*
X172831136Y-86317842D02*
X172900708Y-86389672D01*
X176599292Y-86389672D02*
X176524405Y-86455942D01*
X172900708Y-86389672D02*
X172975595Y-86455942D01*
X176524405Y-86455942D02*
X176444646Y-86516260D01*
X172975595Y-86455942D02*
X173055354Y-86516260D01*
X176444646Y-86516260D02*
X176360487Y-86570269D01*
X173055354Y-86516260D02*
X173139513Y-86570269D01*
X176360487Y-86570269D02*
X176272426Y-86617649D01*
X173139513Y-86570269D02*
X173227574Y-86617649D01*
X176272426Y-86617649D02*
X176180984Y-86658120D01*
X173227574Y-86617649D02*
X173319016Y-86658120D01*
X176180984Y-86658120D02*
X176086702Y-86691442D01*
X173319016Y-86658120D02*
X173413298Y-86691442D01*
X176086702Y-86691442D02*
X175990138Y-86717418D01*
X173413298Y-86691442D02*
X173509862Y-86717418D01*
X175990138Y-86717418D02*
X175891863Y-86735895D01*
X173509862Y-86717418D02*
X173608137Y-86735895D01*
X175891863Y-86735895D02*
X175792458Y-86746763D01*
X173608137Y-86735895D02*
X173707542Y-86746763D01*
X175792458Y-86746763D02*
X175692512Y-86749958D01*
X173707542Y-86746763D02*
X173807488Y-86749958D01*
X173807488Y-86749958D02*
X175692512Y-86749958D01*
X172500000Y-73500000D02*
X172500000Y-72000000D01*
X172500000Y-78500000D02*
X172500000Y-80000000D01*
X177000000Y-78499998D02*
X177000000Y-85500000D01*
X177000000Y-73500000D02*
X177000000Y-68000000D01*
X177000000Y-78499998D02*
X176992313Y-78400294D01*
X172500000Y-78500000D02*
X172507687Y-78400296D01*
X176992313Y-78400294D02*
X176976985Y-78301476D01*
X172507687Y-78400296D02*
X172523015Y-78301478D01*
X176976985Y-78301476D02*
X176954107Y-78204129D01*
X172523015Y-78301478D02*
X172545893Y-78204131D01*
X176954107Y-78204129D02*
X176923814Y-78108829D01*
X172545893Y-78204131D02*
X172576186Y-78108831D01*
X176923814Y-78108829D02*
X176886285Y-78016139D01*
X172576186Y-78108831D02*
X172613715Y-78016141D01*
X176886285Y-78016139D02*
X176841742Y-77926608D01*
X172613715Y-78016141D02*
X172658258Y-77926610D01*
X176841742Y-77926608D02*
X176790449Y-77840766D01*
X172658258Y-77926610D02*
X172709551Y-77840768D01*
X176790449Y-77840766D02*
X176732709Y-77759121D01*
X172709551Y-77840768D02*
X172767291Y-77759123D01*
X176732709Y-77759121D02*
X176668864Y-77682156D01*
X172767291Y-77759123D02*
X172831136Y-77682158D01*
X176668864Y-77682156D02*
X176599292Y-77610326D01*
X172831136Y-77682158D02*
X172900708Y-77610328D01*
X176599292Y-77610326D02*
X176524405Y-77544056D01*
X172900708Y-77610328D02*
X172975595Y-77544058D01*
X176524405Y-77544056D02*
X176444646Y-77483738D01*
X172975595Y-77544058D02*
X173055354Y-77483740D01*
X176444646Y-77483738D02*
X176360487Y-77429729D01*
X173055354Y-77483740D02*
X173139513Y-77429731D01*
X176360487Y-77429729D02*
X176272426Y-77382349D01*
X173139513Y-77429731D02*
X173227574Y-77382351D01*
X176272426Y-77382349D02*
X176180984Y-77341878D01*
X173227574Y-77382351D02*
X173319016Y-77341880D01*
X176180984Y-77341878D02*
X176086702Y-77308556D01*
X173319016Y-77341880D02*
X173413298Y-77308558D01*
X176086702Y-77308556D02*
X175990138Y-77282580D01*
X173413298Y-77308558D02*
X173509862Y-77282582D01*
X175990138Y-77282580D02*
X175891863Y-77264103D01*
X173509862Y-77282582D02*
X173608137Y-77264105D01*
X175891863Y-77264103D02*
X175792458Y-77253235D01*
X173608137Y-77264105D02*
X173707542Y-77253237D01*
X175792458Y-77253235D02*
X175692512Y-77250040D01*
X173707542Y-77253237D02*
X173807488Y-77250042D01*
X173807488Y-77250042D02*
X175692512Y-77250040D01*
X177000000Y-73500000D02*
X176992313Y-73599704D01*
X172500000Y-73500000D02*
X172507687Y-73599704D01*
X176992313Y-73599704D02*
X176976985Y-73698522D01*
X172507687Y-73599704D02*
X172523015Y-73698522D01*
X176976985Y-73698522D02*
X176954107Y-73795869D01*
X172523015Y-73698522D02*
X172545893Y-73795869D01*
X176954107Y-73795869D02*
X176923814Y-73891169D01*
X172545893Y-73795869D02*
X172576186Y-73891169D01*
X176923814Y-73891169D02*
X176886285Y-73983859D01*
X172576186Y-73891169D02*
X172613715Y-73983859D01*
X176886285Y-73983859D02*
X176841742Y-74073390D01*
X172613715Y-73983859D02*
X172658258Y-74073390D01*
X176841742Y-74073390D02*
X176790449Y-74159232D01*
X172658258Y-74073390D02*
X172709551Y-74159232D01*
X176790449Y-74159232D02*
X176732709Y-74240877D01*
X172709551Y-74159232D02*
X172767291Y-74240877D01*
X176732709Y-74240877D02*
X176668864Y-74317842D01*
X172767291Y-74240877D02*
X172831136Y-74317842D01*
X176668864Y-74317842D02*
X176599292Y-74389672D01*
X172831136Y-74317842D02*
X172900708Y-74389672D01*
X176599292Y-74389672D02*
X176524405Y-74455942D01*
X172900708Y-74389672D02*
X172975595Y-74455942D01*
X176524405Y-74455942D02*
X176444646Y-74516260D01*
X172975595Y-74455942D02*
X173055354Y-74516260D01*
X176444646Y-74516260D02*
X176360487Y-74570269D01*
X173055354Y-74516260D02*
X173139513Y-74570269D01*
X176360487Y-74570269D02*
X176272426Y-74617649D01*
X173139513Y-74570269D02*
X173227574Y-74617649D01*
X176272426Y-74617649D02*
X176180984Y-74658120D01*
X173227574Y-74617649D02*
X173319016Y-74658120D01*
X176180984Y-74658120D02*
X176086702Y-74691442D01*
X173319016Y-74658120D02*
X173413298Y-74691442D01*
X176086702Y-74691442D02*
X175990138Y-74717418D01*
X173413298Y-74691442D02*
X173509862Y-74717418D01*
X175990138Y-74717418D02*
X175891863Y-74735895D01*
X173509862Y-74717418D02*
X173608137Y-74735895D01*
X175891863Y-74735895D02*
X175792458Y-74746763D01*
X173608137Y-74735895D02*
X173707542Y-74746763D01*
X175792458Y-74746763D02*
X175692512Y-74749958D01*
X173707542Y-74746763D02*
X173807488Y-74749958D01*
X173807488Y-74749958D02*
X175692512Y-74749958D01*
X143500000Y-109500000D02*
X143500000Y-108000000D01*
X143500000Y-114500000D02*
X143500000Y-116000000D01*
X147500000Y-109500000D02*
X147500000Y-108000000D01*
X147500000Y-114500000D02*
X147500000Y-116000000D01*
X147500000Y-114500000D02*
X147492313Y-114400296D01*
X143500000Y-114500000D02*
X143507687Y-114400296D01*
X147492313Y-114400296D02*
X147476985Y-114301478D01*
X143507687Y-114400296D02*
X143523015Y-114301478D01*
X147476985Y-114301478D02*
X147454107Y-114204131D01*
X143523015Y-114301478D02*
X143545893Y-114204131D01*
X147454107Y-114204131D02*
X147423814Y-114108831D01*
X143545893Y-114204131D02*
X143576186Y-114108831D01*
X147423814Y-114108831D02*
X147386285Y-114016141D01*
X143576186Y-114108831D02*
X143613715Y-114016141D01*
X147386285Y-114016141D02*
X147341742Y-113926610D01*
X143613715Y-114016141D02*
X143658258Y-113926610D01*
X147341742Y-113926610D02*
X147290449Y-113840768D01*
X143658258Y-113926610D02*
X143709551Y-113840768D01*
X147290449Y-113840768D02*
X147232709Y-113759123D01*
X143709551Y-113840768D02*
X143767291Y-113759123D01*
X147232709Y-113759123D02*
X147168864Y-113682158D01*
X143767291Y-113759123D02*
X143831136Y-113682158D01*
X147168864Y-113682158D02*
X147099292Y-113610328D01*
X143831136Y-113682158D02*
X143900708Y-113610328D01*
X147099292Y-113610328D02*
X147024405Y-113544058D01*
X143900708Y-113610328D02*
X143975595Y-113544058D01*
X147024405Y-113544058D02*
X146944646Y-113483740D01*
X143975595Y-113544058D02*
X144055354Y-113483740D01*
X146944646Y-113483740D02*
X146860487Y-113429731D01*
X144055354Y-113483740D02*
X144139513Y-113429731D01*
X146860487Y-113429731D02*
X146772426Y-113382351D01*
X144139513Y-113429731D02*
X144227574Y-113382351D01*
X146772426Y-113382351D02*
X146680984Y-113341880D01*
X144227574Y-113382351D02*
X144319016Y-113341880D01*
X146680984Y-113341880D02*
X146586702Y-113308558D01*
X144319016Y-113341880D02*
X144413298Y-113308558D01*
X146586702Y-113308558D02*
X146490138Y-113282582D01*
X144413298Y-113308558D02*
X144509862Y-113282582D01*
X146490138Y-113282582D02*
X146391863Y-113264105D01*
X144509862Y-113282582D02*
X144608137Y-113264105D01*
X146391863Y-113264105D02*
X146292458Y-113253237D01*
X144608137Y-113264105D02*
X144707542Y-113253237D01*
X146292458Y-113253237D02*
X146192512Y-113250042D01*
X144707542Y-113253237D02*
X144807488Y-113250042D01*
X144807488Y-113250042D02*
X146192512Y-113250042D01*
X147500000Y-109500000D02*
X147492313Y-109599704D01*
X143500000Y-109500000D02*
X143507687Y-109599704D01*
X147492313Y-109599704D02*
X147476985Y-109698522D01*
X143507687Y-109599704D02*
X143523015Y-109698522D01*
X147476985Y-109698522D02*
X147454107Y-109795869D01*
X143523015Y-109698522D02*
X143545893Y-109795869D01*
X147454107Y-109795869D02*
X147423814Y-109891169D01*
X143545893Y-109795869D02*
X143576186Y-109891169D01*
X147423814Y-109891169D02*
X147386285Y-109983859D01*
X143576186Y-109891169D02*
X143613715Y-109983859D01*
X147386285Y-109983859D02*
X147341742Y-110073390D01*
X143613715Y-109983859D02*
X143658258Y-110073390D01*
X147341742Y-110073390D02*
X147290449Y-110159232D01*
X143658258Y-110073390D02*
X143709551Y-110159232D01*
X147290449Y-110159232D02*
X147232709Y-110240877D01*
X143709551Y-110159232D02*
X143767291Y-110240877D01*
X147232709Y-110240877D02*
X147168864Y-110317842D01*
X143767291Y-110240877D02*
X143831136Y-110317842D01*
X147168864Y-110317842D02*
X147099292Y-110389672D01*
X143831136Y-110317842D02*
X143900708Y-110389672D01*
X147099292Y-110389672D02*
X147024405Y-110455942D01*
X143900708Y-110389672D02*
X143975595Y-110455942D01*
X147024405Y-110455942D02*
X146944646Y-110516260D01*
X143975595Y-110455942D02*
X144055354Y-110516260D01*
X146944646Y-110516260D02*
X146860487Y-110570269D01*
X144055354Y-110516260D02*
X144139513Y-110570269D01*
X146860487Y-110570269D02*
X146772426Y-110617649D01*
X144139513Y-110570269D02*
X144227574Y-110617649D01*
X146772426Y-110617649D02*
X146680984Y-110658120D01*
X144227574Y-110617649D02*
X144319016Y-110658120D01*
X146680984Y-110658120D02*
X146586702Y-110691442D01*
X144319016Y-110658120D02*
X144413298Y-110691442D01*
X146586702Y-110691442D02*
X146490138Y-110717418D01*
X144413298Y-110691442D02*
X144509862Y-110717418D01*
X146490138Y-110717418D02*
X146391863Y-110735895D01*
X144509862Y-110717418D02*
X144608137Y-110735895D01*
X146391863Y-110735895D02*
X146292458Y-110746763D01*
X144608137Y-110735895D02*
X144707542Y-110746763D01*
X146292458Y-110746763D02*
X146192512Y-110749958D01*
X144707542Y-110746763D02*
X144807488Y-110749958D01*
X144807488Y-110749958D02*
X146192512Y-110749958D01*
X158000000Y-109500000D02*
X158000000Y-108000000D01*
X158000000Y-114500000D02*
X158000000Y-116000000D01*
X162000000Y-109500000D02*
X162000000Y-108000000D01*
X162000000Y-114500000D02*
X162000000Y-116000000D01*
X162000000Y-114500000D02*
X161992313Y-114400296D01*
X158000000Y-114500000D02*
X158007687Y-114400296D01*
X161992313Y-114400296D02*
X161976985Y-114301478D01*
X158007687Y-114400296D02*
X158023015Y-114301478D01*
X161976985Y-114301478D02*
X161954107Y-114204131D01*
X158023015Y-114301478D02*
X158045893Y-114204131D01*
X161954107Y-114204131D02*
X161923814Y-114108831D01*
X158045893Y-114204131D02*
X158076186Y-114108831D01*
X161923814Y-114108831D02*
X161886285Y-114016141D01*
X158076186Y-114108831D02*
X158113715Y-114016141D01*
X161886285Y-114016141D02*
X161841742Y-113926610D01*
X158113715Y-114016141D02*
X158158258Y-113926610D01*
X161841742Y-113926610D02*
X161790449Y-113840768D01*
X158158258Y-113926610D02*
X158209551Y-113840768D01*
X161790449Y-113840768D02*
X161732709Y-113759123D01*
X158209551Y-113840768D02*
X158267291Y-113759123D01*
X161732709Y-113759123D02*
X161668864Y-113682158D01*
X158267291Y-113759123D02*
X158331136Y-113682158D01*
X161668864Y-113682158D02*
X161599292Y-113610328D01*
X158331136Y-113682158D02*
X158400708Y-113610328D01*
X161599292Y-113610328D02*
X161524405Y-113544058D01*
X158400708Y-113610328D02*
X158475595Y-113544058D01*
X161524405Y-113544058D02*
X161444646Y-113483740D01*
X158475595Y-113544058D02*
X158555354Y-113483740D01*
X161444646Y-113483740D02*
X161360487Y-113429731D01*
X158555354Y-113483740D02*
X158639513Y-113429731D01*
X161360487Y-113429731D02*
X161272426Y-113382351D01*
X158639513Y-113429731D02*
X158727574Y-113382351D01*
X161272426Y-113382351D02*
X161180984Y-113341880D01*
X158727574Y-113382351D02*
X158819016Y-113341880D01*
X161180984Y-113341880D02*
X161086702Y-113308558D01*
X158819016Y-113341880D02*
X158913298Y-113308558D01*
X161086702Y-113308558D02*
X160990138Y-113282582D01*
X158913298Y-113308558D02*
X159009862Y-113282582D01*
X160990138Y-113282582D02*
X160891863Y-113264105D01*
X159009862Y-113282582D02*
X159108137Y-113264105D01*
X160891863Y-113264105D02*
X160792458Y-113253237D01*
X159108137Y-113264105D02*
X159207542Y-113253237D01*
X160792458Y-113253237D02*
X160692512Y-113250042D01*
X159207542Y-113253237D02*
X159307488Y-113250042D01*
X159307488Y-113250042D02*
X160692512Y-113250042D01*
X162000000Y-109500000D02*
X161992313Y-109599704D01*
X158000000Y-109500000D02*
X158007687Y-109599704D01*
X161992313Y-109599704D02*
X161976985Y-109698522D01*
X158007687Y-109599704D02*
X158023015Y-109698522D01*
X161976985Y-109698522D02*
X161954107Y-109795869D01*
X158023015Y-109698522D02*
X158045893Y-109795869D01*
X161954107Y-109795869D02*
X161923814Y-109891169D01*
X158045893Y-109795869D02*
X158076186Y-109891169D01*
X161923814Y-109891169D02*
X161886285Y-109983859D01*
X158076186Y-109891169D02*
X158113715Y-109983859D01*
X161886285Y-109983859D02*
X161841742Y-110073390D01*
X158113715Y-109983859D02*
X158158258Y-110073390D01*
X161841742Y-110073390D02*
X161790449Y-110159232D01*
X158158258Y-110073390D02*
X158209551Y-110159232D01*
X161790449Y-110159232D02*
X161732709Y-110240877D01*
X158209551Y-110159232D02*
X158267291Y-110240877D01*
X161732709Y-110240877D02*
X161668864Y-110317842D01*
X158267291Y-110240877D02*
X158331136Y-110317842D01*
X161668864Y-110317842D02*
X161599292Y-110389672D01*
X158331136Y-110317842D02*
X158400708Y-110389672D01*
X161599292Y-110389672D02*
X161524405Y-110455942D01*
X158400708Y-110389672D02*
X158475595Y-110455942D01*
X161524405Y-110455942D02*
X161444646Y-110516260D01*
X158475595Y-110455942D02*
X158555354Y-110516260D01*
X161444646Y-110516260D02*
X161360487Y-110570269D01*
X158555354Y-110516260D02*
X158639513Y-110570269D01*
X161360487Y-110570269D02*
X161272426Y-110617649D01*
X158639513Y-110570269D02*
X158727574Y-110617649D01*
X161272426Y-110617649D02*
X161180984Y-110658120D01*
X158727574Y-110617649D02*
X158819016Y-110658120D01*
X161180984Y-110658120D02*
X161086702Y-110691442D01*
X158819016Y-110658120D02*
X158913298Y-110691442D01*
X161086702Y-110691442D02*
X160990138Y-110717418D01*
X158913298Y-110691442D02*
X159009862Y-110717418D01*
X160990138Y-110717418D02*
X160891863Y-110735895D01*
X159009862Y-110717418D02*
X159108137Y-110735895D01*
X160891863Y-110735895D02*
X160792458Y-110746763D01*
X159108137Y-110735895D02*
X159207542Y-110746763D01*
X160792458Y-110746763D02*
X160692512Y-110749958D01*
X159207542Y-110746763D02*
X159307488Y-110749958D01*
X159307488Y-110749958D02*
X160692512Y-110749958D01*
X158000000Y-97500000D02*
X158000000Y-96000000D01*
X158000000Y-102500000D02*
X158000000Y-104000000D01*
X162000000Y-97500000D02*
X162000000Y-96000000D01*
X162000000Y-102500000D02*
X162000000Y-104000000D01*
X162000000Y-102500000D02*
X161992313Y-102400296D01*
X158000000Y-102500000D02*
X158007687Y-102400296D01*
X161992313Y-102400296D02*
X161976985Y-102301478D01*
X158007687Y-102400296D02*
X158023015Y-102301478D01*
X161976985Y-102301478D02*
X161954107Y-102204131D01*
X158023015Y-102301478D02*
X158045893Y-102204131D01*
X161954107Y-102204131D02*
X161923814Y-102108831D01*
X158045893Y-102204131D02*
X158076186Y-102108831D01*
X161923814Y-102108831D02*
X161886285Y-102016141D01*
X158076186Y-102108831D02*
X158113715Y-102016141D01*
X161886285Y-102016141D02*
X161841742Y-101926610D01*
X158113715Y-102016141D02*
X158158258Y-101926610D01*
X161841742Y-101926610D02*
X161790449Y-101840768D01*
X158158258Y-101926610D02*
X158209551Y-101840768D01*
X161790449Y-101840768D02*
X161732709Y-101759123D01*
X158209551Y-101840768D02*
X158267291Y-101759123D01*
X161732709Y-101759123D02*
X161668864Y-101682158D01*
X158267291Y-101759123D02*
X158331136Y-101682158D01*
X161668864Y-101682158D02*
X161599292Y-101610328D01*
X158331136Y-101682158D02*
X158400708Y-101610328D01*
X161599292Y-101610328D02*
X161524405Y-101544058D01*
X158400708Y-101610328D02*
X158475595Y-101544058D01*
X161524405Y-101544058D02*
X161444646Y-101483740D01*
X158475595Y-101544058D02*
X158555354Y-101483740D01*
X161444646Y-101483740D02*
X161360487Y-101429731D01*
X158555354Y-101483740D02*
X158639513Y-101429731D01*
X161360487Y-101429731D02*
X161272426Y-101382351D01*
X158639513Y-101429731D02*
X158727574Y-101382351D01*
X161272426Y-101382351D02*
X161180984Y-101341880D01*
X158727574Y-101382351D02*
X158819016Y-101341880D01*
X161180984Y-101341880D02*
X161086702Y-101308558D01*
X158819016Y-101341880D02*
X158913298Y-101308558D01*
X161086702Y-101308558D02*
X160990138Y-101282582D01*
X158913298Y-101308558D02*
X159009862Y-101282582D01*
X160990138Y-101282582D02*
X160891863Y-101264105D01*
X159009862Y-101282582D02*
X159108137Y-101264105D01*
X160891863Y-101264105D02*
X160792458Y-101253237D01*
X159108137Y-101264105D02*
X159207542Y-101253237D01*
X160792458Y-101253237D02*
X160692512Y-101250042D01*
X159207542Y-101253237D02*
X159307488Y-101250042D01*
X159307488Y-101250042D02*
X160692512Y-101250042D01*
X162000000Y-97500000D02*
X161992313Y-97599704D01*
X158000000Y-97500000D02*
X158007687Y-97599704D01*
X161992313Y-97599704D02*
X161976985Y-97698522D01*
X158007687Y-97599704D02*
X158023015Y-97698522D01*
X161976985Y-97698522D02*
X161954107Y-97795869D01*
X158023015Y-97698522D02*
X158045893Y-97795869D01*
X161954107Y-97795869D02*
X161923814Y-97891169D01*
X158045893Y-97795869D02*
X158076186Y-97891169D01*
X161923814Y-97891169D02*
X161886285Y-97983859D01*
X158076186Y-97891169D02*
X158113715Y-97983859D01*
X161886285Y-97983859D02*
X161841742Y-98073390D01*
X158113715Y-97983859D02*
X158158258Y-98073390D01*
X161841742Y-98073390D02*
X161790449Y-98159232D01*
X158158258Y-98073390D02*
X158209551Y-98159232D01*
X161790449Y-98159232D02*
X161732709Y-98240877D01*
X158209551Y-98159232D02*
X158267291Y-98240877D01*
X161732709Y-98240877D02*
X161668864Y-98317842D01*
X158267291Y-98240877D02*
X158331136Y-98317842D01*
X161668864Y-98317842D02*
X161599292Y-98389672D01*
X158331136Y-98317842D02*
X158400708Y-98389672D01*
X161599292Y-98389672D02*
X161524405Y-98455942D01*
X158400708Y-98389672D02*
X158475595Y-98455942D01*
X161524405Y-98455942D02*
X161444646Y-98516260D01*
X158475595Y-98455942D02*
X158555354Y-98516260D01*
X161444646Y-98516260D02*
X161360487Y-98570269D01*
X158555354Y-98516260D02*
X158639513Y-98570269D01*
X161360487Y-98570269D02*
X161272426Y-98617649D01*
X158639513Y-98570269D02*
X158727574Y-98617649D01*
X161272426Y-98617649D02*
X161180984Y-98658120D01*
X158727574Y-98617649D02*
X158819016Y-98658120D01*
X161180984Y-98658120D02*
X161086702Y-98691442D01*
X158819016Y-98658120D02*
X158913298Y-98691442D01*
X161086702Y-98691442D02*
X160990138Y-98717418D01*
X158913298Y-98691442D02*
X159009862Y-98717418D01*
X160990138Y-98717418D02*
X160891863Y-98735895D01*
X159009862Y-98717418D02*
X159108137Y-98735895D01*
X160891863Y-98735895D02*
X160792458Y-98746763D01*
X159108137Y-98735895D02*
X159207542Y-98746763D01*
X160792458Y-98746763D02*
X160692512Y-98749958D01*
X159207542Y-98746763D02*
X159307488Y-98749958D01*
X159307488Y-98749958D02*
X160692512Y-98749958D01*
X143500000Y-97500000D02*
X143500000Y-96000000D01*
X143500000Y-102500000D02*
X143500000Y-104000000D01*
X147500000Y-97500000D02*
X147500000Y-96000000D01*
X147500000Y-102500000D02*
X147500000Y-104000000D01*
X147500000Y-102500000D02*
X147492313Y-102400296D01*
X143500000Y-102500000D02*
X143507687Y-102400296D01*
X147492313Y-102400296D02*
X147476985Y-102301478D01*
X143507687Y-102400296D02*
X143523015Y-102301478D01*
X147476985Y-102301478D02*
X147454107Y-102204131D01*
X143523015Y-102301478D02*
X143545893Y-102204131D01*
X147454107Y-102204131D02*
X147423814Y-102108831D01*
X143545893Y-102204131D02*
X143576186Y-102108831D01*
X147423814Y-102108831D02*
X147386285Y-102016141D01*
X143576186Y-102108831D02*
X143613715Y-102016141D01*
X147386285Y-102016141D02*
X147341742Y-101926610D01*
X143613715Y-102016141D02*
X143658258Y-101926610D01*
X147341742Y-101926610D02*
X147290449Y-101840768D01*
X143658258Y-101926610D02*
X143709551Y-101840768D01*
X147290449Y-101840768D02*
X147232709Y-101759123D01*
X143709551Y-101840768D02*
X143767291Y-101759123D01*
X147232709Y-101759123D02*
X147168864Y-101682158D01*
X143767291Y-101759123D02*
X143831136Y-101682158D01*
X147168864Y-101682158D02*
X147099292Y-101610328D01*
X143831136Y-101682158D02*
X143900708Y-101610328D01*
X147099292Y-101610328D02*
X147024405Y-101544058D01*
X143900708Y-101610328D02*
X143975595Y-101544058D01*
X147024405Y-101544058D02*
X146944646Y-101483740D01*
X143975595Y-101544058D02*
X144055354Y-101483740D01*
X146944646Y-101483740D02*
X146860487Y-101429731D01*
X144055354Y-101483740D02*
X144139513Y-101429731D01*
X146860487Y-101429731D02*
X146772426Y-101382351D01*
X144139513Y-101429731D02*
X144227574Y-101382351D01*
X146772426Y-101382351D02*
X146680984Y-101341880D01*
X144227574Y-101382351D02*
X144319016Y-101341880D01*
X146680984Y-101341880D02*
X146586702Y-101308558D01*
X144319016Y-101341880D02*
X144413298Y-101308558D01*
X146586702Y-101308558D02*
X146490138Y-101282582D01*
X144413298Y-101308558D02*
X144509862Y-101282582D01*
X146490138Y-101282582D02*
X146391863Y-101264105D01*
X144509862Y-101282582D02*
X144608137Y-101264105D01*
X146391863Y-101264105D02*
X146292458Y-101253237D01*
X144608137Y-101264105D02*
X144707542Y-101253237D01*
X146292458Y-101253237D02*
X146192512Y-101250042D01*
X144707542Y-101253237D02*
X144807488Y-101250042D01*
X144807488Y-101250042D02*
X146192512Y-101250042D01*
X147500000Y-97500000D02*
X147492313Y-97599704D01*
X143500000Y-97500000D02*
X143507687Y-97599704D01*
X147492313Y-97599704D02*
X147476985Y-97698522D01*
X143507687Y-97599704D02*
X143523015Y-97698522D01*
X147476985Y-97698522D02*
X147454107Y-97795869D01*
X143523015Y-97698522D02*
X143545893Y-97795869D01*
X147454107Y-97795869D02*
X147423814Y-97891169D01*
X143545893Y-97795869D02*
X143576186Y-97891169D01*
X147423814Y-97891169D02*
X147386285Y-97983859D01*
X143576186Y-97891169D02*
X143613715Y-97983859D01*
X147386285Y-97983859D02*
X147341742Y-98073390D01*
X143613715Y-97983859D02*
X143658258Y-98073390D01*
X147341742Y-98073390D02*
X147290449Y-98159232D01*
X143658258Y-98073390D02*
X143709551Y-98159232D01*
X147290449Y-98159232D02*
X147232709Y-98240877D01*
X143709551Y-98159232D02*
X143767291Y-98240877D01*
X147232709Y-98240877D02*
X147168864Y-98317842D01*
X143767291Y-98240877D02*
X143831136Y-98317842D01*
X147168864Y-98317842D02*
X147099292Y-98389672D01*
X143831136Y-98317842D02*
X143900708Y-98389672D01*
X147099292Y-98389672D02*
X147024405Y-98455942D01*
X143900708Y-98389672D02*
X143975595Y-98455942D01*
X147024405Y-98455942D02*
X146944646Y-98516260D01*
X143975595Y-98455942D02*
X144055354Y-98516260D01*
X146944646Y-98516260D02*
X146860487Y-98570269D01*
X144055354Y-98516260D02*
X144139513Y-98570269D01*
X146860487Y-98570269D02*
X146772426Y-98617649D01*
X144139513Y-98570269D02*
X144227574Y-98617649D01*
X146772426Y-98617649D02*
X146680984Y-98658120D01*
X144227574Y-98617649D02*
X144319016Y-98658120D01*
X146680984Y-98658120D02*
X146586702Y-98691442D01*
X144319016Y-98658120D02*
X144413298Y-98691442D01*
X146586702Y-98691442D02*
X146490138Y-98717418D01*
X144413298Y-98691442D02*
X144509862Y-98717418D01*
X146490138Y-98717418D02*
X146391863Y-98735895D01*
X144509862Y-98717418D02*
X144608137Y-98735895D01*
X146391863Y-98735895D02*
X146292458Y-98746763D01*
X144608137Y-98735895D02*
X144707542Y-98746763D01*
X146292458Y-98746763D02*
X146192512Y-98749958D01*
X144707542Y-98746763D02*
X144807488Y-98749958D01*
X144807488Y-98749958D02*
X146192512Y-98749958D01*
X143500000Y-85500000D02*
X143500000Y-84000000D01*
X143500000Y-90500000D02*
X143500000Y-92000000D01*
X147500000Y-85500000D02*
X147500000Y-84000000D01*
X147500000Y-90500000D02*
X147500000Y-92000000D01*
X147500000Y-90500000D02*
X147492313Y-90400296D01*
X143500000Y-90500000D02*
X143507687Y-90400296D01*
X147492313Y-90400296D02*
X147476985Y-90301478D01*
X143507687Y-90400296D02*
X143523015Y-90301478D01*
X147476985Y-90301478D02*
X147454107Y-90204131D01*
X143523015Y-90301478D02*
X143545893Y-90204131D01*
X147454107Y-90204131D02*
X147423814Y-90108831D01*
X143545893Y-90204131D02*
X143576186Y-90108831D01*
X147423814Y-90108831D02*
X147386285Y-90016141D01*
X143576186Y-90108831D02*
X143613715Y-90016141D01*
X147386285Y-90016141D02*
X147341742Y-89926610D01*
X143613715Y-90016141D02*
X143658258Y-89926610D01*
X147341742Y-89926610D02*
X147290449Y-89840768D01*
X143658258Y-89926610D02*
X143709551Y-89840768D01*
X147290449Y-89840768D02*
X147232709Y-89759123D01*
X143709551Y-89840768D02*
X143767291Y-89759123D01*
X147232709Y-89759123D02*
X147168864Y-89682158D01*
X143767291Y-89759123D02*
X143831136Y-89682158D01*
X147168864Y-89682158D02*
X147099292Y-89610328D01*
X143831136Y-89682158D02*
X143900708Y-89610328D01*
X147099292Y-89610328D02*
X147024405Y-89544058D01*
X143900708Y-89610328D02*
X143975595Y-89544058D01*
X147024405Y-89544058D02*
X146944646Y-89483740D01*
X143975595Y-89544058D02*
X144055354Y-89483740D01*
X146944646Y-89483740D02*
X146860487Y-89429731D01*
X144055354Y-89483740D02*
X144139513Y-89429731D01*
X146860487Y-89429731D02*
X146772426Y-89382351D01*
X144139513Y-89429731D02*
X144227574Y-89382351D01*
X146772426Y-89382351D02*
X146680984Y-89341880D01*
X144227574Y-89382351D02*
X144319016Y-89341880D01*
X146680984Y-89341880D02*
X146586702Y-89308558D01*
X144319016Y-89341880D02*
X144413298Y-89308558D01*
X146586702Y-89308558D02*
X146490138Y-89282582D01*
X144413298Y-89308558D02*
X144509862Y-89282582D01*
X146490138Y-89282582D02*
X146391863Y-89264105D01*
X144509862Y-89282582D02*
X144608137Y-89264105D01*
X146391863Y-89264105D02*
X146292458Y-89253237D01*
X144608137Y-89264105D02*
X144707542Y-89253237D01*
X146292458Y-89253237D02*
X146192512Y-89250042D01*
X144707542Y-89253237D02*
X144807488Y-89250042D01*
X144807488Y-89250042D02*
X146192512Y-89250042D01*
X147500000Y-85500000D02*
X147492313Y-85599704D01*
X143500000Y-85500000D02*
X143507687Y-85599704D01*
X147492313Y-85599704D02*
X147476985Y-85698522D01*
X143507687Y-85599704D02*
X143523015Y-85698522D01*
X147476985Y-85698522D02*
X147454107Y-85795869D01*
X143523015Y-85698522D02*
X143545893Y-85795869D01*
X147454107Y-85795869D02*
X147423814Y-85891169D01*
X143545893Y-85795869D02*
X143576186Y-85891169D01*
X147423814Y-85891169D02*
X147386285Y-85983859D01*
X143576186Y-85891169D02*
X143613715Y-85983859D01*
X147386285Y-85983859D02*
X147341742Y-86073390D01*
X143613715Y-85983859D02*
X143658258Y-86073390D01*
X147341742Y-86073390D02*
X147290449Y-86159232D01*
X143658258Y-86073390D02*
X143709551Y-86159232D01*
X147290449Y-86159232D02*
X147232709Y-86240877D01*
X143709551Y-86159232D02*
X143767291Y-86240877D01*
X147232709Y-86240877D02*
X147168864Y-86317842D01*
X143767291Y-86240877D02*
X143831136Y-86317842D01*
X147168864Y-86317842D02*
X147099292Y-86389672D01*
X143831136Y-86317842D02*
X143900708Y-86389672D01*
X147099292Y-86389672D02*
X147024405Y-86455942D01*
X143900708Y-86389672D02*
X143975595Y-86455942D01*
X147024405Y-86455942D02*
X146944646Y-86516260D01*
X143975595Y-86455942D02*
X144055354Y-86516260D01*
X146944646Y-86516260D02*
X146860487Y-86570269D01*
X144055354Y-86516260D02*
X144139513Y-86570269D01*
X146860487Y-86570269D02*
X146772426Y-86617649D01*
X144139513Y-86570269D02*
X144227574Y-86617649D01*
X146772426Y-86617649D02*
X146680984Y-86658120D01*
X144227574Y-86617649D02*
X144319016Y-86658120D01*
X146680984Y-86658120D02*
X146586702Y-86691442D01*
X144319016Y-86658120D02*
X144413298Y-86691442D01*
X146586702Y-86691442D02*
X146490138Y-86717418D01*
X144413298Y-86691442D02*
X144509862Y-86717418D01*
X146490138Y-86717418D02*
X146391863Y-86735895D01*
X144509862Y-86717418D02*
X144608137Y-86735895D01*
X146391863Y-86735895D02*
X146292458Y-86746763D01*
X144608137Y-86735895D02*
X144707542Y-86746763D01*
X146292458Y-86746763D02*
X146192512Y-86749958D01*
X144707542Y-86746763D02*
X144807488Y-86749958D01*
X144807488Y-86749958D02*
X146192512Y-86749958D01*
X162000000Y-85500000D02*
X162000000Y-84000000D01*
X162000000Y-90500000D02*
X162000000Y-92000000D01*
X158000000Y-85500000D02*
X158000000Y-84000000D01*
X158000000Y-90500000D02*
X158000000Y-92000000D01*
X158000000Y-85500000D02*
X158007687Y-85599704D01*
X162000000Y-85500000D02*
X161992313Y-85599704D01*
X158007687Y-85599704D02*
X158023015Y-85698522D01*
X161992313Y-85599704D02*
X161976985Y-85698522D01*
X158023015Y-85698522D02*
X158045893Y-85795869D01*
X161976985Y-85698522D02*
X161954107Y-85795869D01*
X158045893Y-85795869D02*
X158076186Y-85891169D01*
X161954107Y-85795869D02*
X161923814Y-85891169D01*
X158076186Y-85891169D02*
X158113715Y-85983859D01*
X161923814Y-85891169D02*
X161886285Y-85983859D01*
X158113715Y-85983859D02*
X158158258Y-86073390D01*
X161886285Y-85983859D02*
X161841742Y-86073390D01*
X158158258Y-86073390D02*
X158209551Y-86159232D01*
X161841742Y-86073390D02*
X161790449Y-86159232D01*
X158209551Y-86159232D02*
X158267291Y-86240877D01*
X161790449Y-86159232D02*
X161732709Y-86240877D01*
X158267291Y-86240877D02*
X158331136Y-86317842D01*
X161732709Y-86240877D02*
X161668864Y-86317842D01*
X158331136Y-86317842D02*
X158400708Y-86389672D01*
X161668864Y-86317842D02*
X161599292Y-86389672D01*
X158400708Y-86389672D02*
X158475595Y-86455942D01*
X161599292Y-86389672D02*
X161524405Y-86455942D01*
X158475595Y-86455942D02*
X158555354Y-86516260D01*
X161524405Y-86455942D02*
X161444646Y-86516260D01*
X158555354Y-86516260D02*
X158639513Y-86570269D01*
X161444646Y-86516260D02*
X161360487Y-86570269D01*
X158639513Y-86570269D02*
X158727574Y-86617649D01*
X161360487Y-86570269D02*
X161272426Y-86617649D01*
X158727574Y-86617649D02*
X158819016Y-86658120D01*
X161272426Y-86617649D02*
X161180984Y-86658120D01*
X158819016Y-86658120D02*
X158913298Y-86691442D01*
X161180984Y-86658120D02*
X161086702Y-86691442D01*
X158913298Y-86691442D02*
X159009862Y-86717418D01*
X161086702Y-86691442D02*
X160990138Y-86717418D01*
X159009862Y-86717418D02*
X159108137Y-86735895D01*
X160990138Y-86717418D02*
X160891863Y-86735895D01*
X159108137Y-86735895D02*
X159207542Y-86746763D01*
X160891863Y-86735895D02*
X160792458Y-86746763D01*
X159207542Y-86746763D02*
X159307488Y-86749958D01*
X160792458Y-86746763D02*
X160692512Y-86749958D01*
X160692512Y-86749958D02*
X159307488Y-86749958D01*
X158000000Y-90500000D02*
X158007687Y-90400296D01*
X162000000Y-90500000D02*
X161992313Y-90400296D01*
X158007687Y-90400296D02*
X158023015Y-90301478D01*
X161992313Y-90400296D02*
X161976985Y-90301478D01*
X158023015Y-90301478D02*
X158045893Y-90204131D01*
X161976985Y-90301478D02*
X161954107Y-90204131D01*
X158045893Y-90204131D02*
X158076186Y-90108831D01*
X161954107Y-90204131D02*
X161923814Y-90108831D01*
X158076186Y-90108831D02*
X158113715Y-90016141D01*
X161923814Y-90108831D02*
X161886285Y-90016141D01*
X158113715Y-90016141D02*
X158158258Y-89926610D01*
X161886285Y-90016141D02*
X161841742Y-89926610D01*
X158158258Y-89926610D02*
X158209551Y-89840768D01*
X161841742Y-89926610D02*
X161790449Y-89840768D01*
X158209551Y-89840768D02*
X158267291Y-89759123D01*
X161790449Y-89840768D02*
X161732709Y-89759123D01*
X158267291Y-89759123D02*
X158331136Y-89682158D01*
X161732709Y-89759123D02*
X161668864Y-89682158D01*
X158331136Y-89682158D02*
X158400708Y-89610328D01*
X161668864Y-89682158D02*
X161599292Y-89610328D01*
X158400708Y-89610328D02*
X158475595Y-89544058D01*
X161599292Y-89610328D02*
X161524405Y-89544058D01*
X158475595Y-89544058D02*
X158555354Y-89483740D01*
X161524405Y-89544058D02*
X161444646Y-89483740D01*
X158555354Y-89483740D02*
X158639513Y-89429731D01*
X161444646Y-89483740D02*
X161360487Y-89429731D01*
X158639513Y-89429731D02*
X158727574Y-89382351D01*
X161360487Y-89429731D02*
X161272426Y-89382351D01*
X158727574Y-89382351D02*
X158819016Y-89341880D01*
X161272426Y-89382351D02*
X161180984Y-89341880D01*
X158819016Y-89341880D02*
X158913298Y-89308558D01*
X161180984Y-89341880D02*
X161086702Y-89308558D01*
X158913298Y-89308558D02*
X159009862Y-89282582D01*
X161086702Y-89308558D02*
X160990138Y-89282582D01*
X159009862Y-89282582D02*
X159108137Y-89264105D01*
X160990138Y-89282582D02*
X160891863Y-89264105D01*
X159108137Y-89264105D02*
X159207542Y-89253237D01*
X160891863Y-89264105D02*
X160792458Y-89253237D01*
X159207542Y-89253237D02*
X159307488Y-89250042D01*
X160792458Y-89253237D02*
X160692512Y-89250042D01*
X160692512Y-89250042D02*
X159307488Y-89250042D01*
X158000000Y-73500000D02*
X158000000Y-72000000D01*
X158000000Y-78500000D02*
X158000000Y-80000000D01*
X162000000Y-73500000D02*
X162000000Y-72000000D01*
X162000000Y-78500000D02*
X162000000Y-80000000D01*
X162000000Y-78500000D02*
X161992313Y-78400296D01*
X158000000Y-78500000D02*
X158007687Y-78400296D01*
X161992313Y-78400296D02*
X161976985Y-78301478D01*
X158007687Y-78400296D02*
X158023015Y-78301478D01*
X161976985Y-78301478D02*
X161954107Y-78204131D01*
X158023015Y-78301478D02*
X158045893Y-78204131D01*
X161954107Y-78204131D02*
X161923814Y-78108831D01*
X158045893Y-78204131D02*
X158076186Y-78108831D01*
X161923814Y-78108831D02*
X161886285Y-78016141D01*
X158076186Y-78108831D02*
X158113715Y-78016141D01*
X161886285Y-78016141D02*
X161841742Y-77926610D01*
X158113715Y-78016141D02*
X158158258Y-77926610D01*
X161841742Y-77926610D02*
X161790449Y-77840768D01*
X158158258Y-77926610D02*
X158209551Y-77840768D01*
X161790449Y-77840768D02*
X161732709Y-77759123D01*
X158209551Y-77840768D02*
X158267291Y-77759123D01*
X161732709Y-77759123D02*
X161668864Y-77682158D01*
X158267291Y-77759123D02*
X158331136Y-77682158D01*
X161668864Y-77682158D02*
X161599292Y-77610328D01*
X158331136Y-77682158D02*
X158400708Y-77610328D01*
X161599292Y-77610328D02*
X161524405Y-77544058D01*
X158400708Y-77610328D02*
X158475595Y-77544058D01*
X161524405Y-77544058D02*
X161444646Y-77483740D01*
X158475595Y-77544058D02*
X158555354Y-77483740D01*
X161444646Y-77483740D02*
X161360487Y-77429731D01*
X158555354Y-77483740D02*
X158639513Y-77429731D01*
X161360487Y-77429731D02*
X161272426Y-77382351D01*
X158639513Y-77429731D02*
X158727574Y-77382351D01*
X161272426Y-77382351D02*
X161180984Y-77341880D01*
X158727574Y-77382351D02*
X158819016Y-77341880D01*
X161180984Y-77341880D02*
X161086702Y-77308558D01*
X158819016Y-77341880D02*
X158913298Y-77308558D01*
X161086702Y-77308558D02*
X160990138Y-77282582D01*
X158913298Y-77308558D02*
X159009862Y-77282582D01*
X160990138Y-77282582D02*
X160891863Y-77264105D01*
X159009862Y-77282582D02*
X159108137Y-77264105D01*
X160891863Y-77264105D02*
X160792458Y-77253237D01*
X159108137Y-77264105D02*
X159207542Y-77253237D01*
X160792458Y-77253237D02*
X160692512Y-77250042D01*
X159207542Y-77253237D02*
X159307488Y-77250042D01*
X159307488Y-77250042D02*
X160692512Y-77250042D01*
X162000000Y-73500000D02*
X161992313Y-73599704D01*
X158000000Y-73500000D02*
X158007687Y-73599704D01*
X161992313Y-73599704D02*
X161976985Y-73698522D01*
X158007687Y-73599704D02*
X158023015Y-73698522D01*
X161976985Y-73698522D02*
X161954107Y-73795869D01*
X158023015Y-73698522D02*
X158045893Y-73795869D01*
X161954107Y-73795869D02*
X161923814Y-73891169D01*
X158045893Y-73795869D02*
X158076186Y-73891169D01*
X161923814Y-73891169D02*
X161886285Y-73983859D01*
X158076186Y-73891169D02*
X158113715Y-73983859D01*
X161886285Y-73983859D02*
X161841742Y-74073390D01*
X158113715Y-73983859D02*
X158158258Y-74073390D01*
X161841742Y-74073390D02*
X161790449Y-74159232D01*
X158158258Y-74073390D02*
X158209551Y-74159232D01*
X161790449Y-74159232D02*
X161732709Y-74240877D01*
X158209551Y-74159232D02*
X158267291Y-74240877D01*
X161732709Y-74240877D02*
X161668864Y-74317842D01*
X158267291Y-74240877D02*
X158331136Y-74317842D01*
X161668864Y-74317842D02*
X161599292Y-74389672D01*
X158331136Y-74317842D02*
X158400708Y-74389672D01*
X161599292Y-74389672D02*
X161524405Y-74455942D01*
X158400708Y-74389672D02*
X158475595Y-74455942D01*
X161524405Y-74455942D02*
X161444646Y-74516260D01*
X158475595Y-74455942D02*
X158555354Y-74516260D01*
X161444646Y-74516260D02*
X161360487Y-74570269D01*
X158555354Y-74516260D02*
X158639513Y-74570269D01*
X161360487Y-74570269D02*
X161272426Y-74617649D01*
X158639513Y-74570269D02*
X158727574Y-74617649D01*
X161272426Y-74617649D02*
X161180984Y-74658120D01*
X158727574Y-74617649D02*
X158819016Y-74658120D01*
X161180984Y-74658120D02*
X161086702Y-74691442D01*
X158819016Y-74658120D02*
X158913298Y-74691442D01*
X161086702Y-74691442D02*
X160990138Y-74717418D01*
X158913298Y-74691442D02*
X159009862Y-74717418D01*
X160990138Y-74717418D02*
X160891863Y-74735895D01*
X159009862Y-74717418D02*
X159108137Y-74735895D01*
X160891863Y-74735895D02*
X160792458Y-74746763D01*
X159108137Y-74735895D02*
X159207542Y-74746763D01*
X160792458Y-74746763D02*
X160692512Y-74749958D01*
X159207542Y-74746763D02*
X159307488Y-74749958D01*
X159307488Y-74749958D02*
X160692512Y-74749958D01*
X143500000Y-73500000D02*
X143500000Y-72000000D01*
X143500000Y-78500000D02*
X143500000Y-80000000D01*
X147500000Y-73500000D02*
X147500000Y-72000000D01*
X147500000Y-78500000D02*
X147500000Y-80000000D01*
X147500000Y-78500000D02*
X147492313Y-78400296D01*
X143500000Y-78500000D02*
X143507687Y-78400296D01*
X147492313Y-78400296D02*
X147476985Y-78301478D01*
X143507687Y-78400296D02*
X143523015Y-78301478D01*
X147476985Y-78301478D02*
X147454107Y-78204131D01*
X143523015Y-78301478D02*
X143545893Y-78204131D01*
X147454107Y-78204131D02*
X147423814Y-78108831D01*
X143545893Y-78204131D02*
X143576186Y-78108831D01*
X147423814Y-78108831D02*
X147386285Y-78016141D01*
X143576186Y-78108831D02*
X143613715Y-78016141D01*
X147386285Y-78016141D02*
X147341742Y-77926610D01*
X143613715Y-78016141D02*
X143658258Y-77926610D01*
X147341742Y-77926610D02*
X147290449Y-77840768D01*
X143658258Y-77926610D02*
X143709551Y-77840768D01*
X147290449Y-77840768D02*
X147232709Y-77759123D01*
X143709551Y-77840768D02*
X143767291Y-77759123D01*
X147232709Y-77759123D02*
X147168864Y-77682158D01*
X143767291Y-77759123D02*
X143831136Y-77682158D01*
X147168864Y-77682158D02*
X147099292Y-77610328D01*
X143831136Y-77682158D02*
X143900708Y-77610328D01*
X147099292Y-77610328D02*
X147024405Y-77544058D01*
X143900708Y-77610328D02*
X143975595Y-77544058D01*
X147024405Y-77544058D02*
X146944646Y-77483740D01*
X143975595Y-77544058D02*
X144055354Y-77483740D01*
X146944646Y-77483740D02*
X146860487Y-77429731D01*
X144055354Y-77483740D02*
X144139513Y-77429731D01*
X146860487Y-77429731D02*
X146772426Y-77382351D01*
X144139513Y-77429731D02*
X144227574Y-77382351D01*
X146772426Y-77382351D02*
X146680984Y-77341880D01*
X144227574Y-77382351D02*
X144319016Y-77341880D01*
X146680984Y-77341880D02*
X146586702Y-77308558D01*
X144319016Y-77341880D02*
X144413298Y-77308558D01*
X146586702Y-77308558D02*
X146490138Y-77282582D01*
X144413298Y-77308558D02*
X144509862Y-77282582D01*
X146490138Y-77282582D02*
X146391863Y-77264105D01*
X144509862Y-77282582D02*
X144608137Y-77264105D01*
X146391863Y-77264105D02*
X146292458Y-77253237D01*
X144608137Y-77264105D02*
X144707542Y-77253237D01*
X146292458Y-77253237D02*
X146192512Y-77250042D01*
X144707542Y-77253237D02*
X144807488Y-77250042D01*
X144807488Y-77250042D02*
X146192512Y-77250042D01*
X147500000Y-73500000D02*
X147492313Y-73599704D01*
X143500000Y-73500000D02*
X143507687Y-73599704D01*
X147492313Y-73599704D02*
X147476985Y-73698522D01*
X143507687Y-73599704D02*
X143523015Y-73698522D01*
X147476985Y-73698522D02*
X147454107Y-73795869D01*
X143523015Y-73698522D02*
X143545893Y-73795869D01*
X147454107Y-73795869D02*
X147423814Y-73891169D01*
X143545893Y-73795869D02*
X143576186Y-73891169D01*
X147423814Y-73891169D02*
X147386285Y-73983859D01*
X143576186Y-73891169D02*
X143613715Y-73983859D01*
X147386285Y-73983859D02*
X147341742Y-74073390D01*
X143613715Y-73983859D02*
X143658258Y-74073390D01*
X147341742Y-74073390D02*
X147290449Y-74159232D01*
X143658258Y-74073390D02*
X143709551Y-74159232D01*
X147290449Y-74159232D02*
X147232709Y-74240877D01*
X143709551Y-74159232D02*
X143767291Y-74240877D01*
X147232709Y-74240877D02*
X147168864Y-74317842D01*
X143767291Y-74240877D02*
X143831136Y-74317842D01*
X147168864Y-74317842D02*
X147099292Y-74389672D01*
X143831136Y-74317842D02*
X143900708Y-74389672D01*
X147099292Y-74389672D02*
X147024405Y-74455942D01*
X143900708Y-74389672D02*
X143975595Y-74455942D01*
X147024405Y-74455942D02*
X146944646Y-74516260D01*
X143975595Y-74455942D02*
X144055354Y-74516260D01*
X146944646Y-74516260D02*
X146860487Y-74570269D01*
X144055354Y-74516260D02*
X144139513Y-74570269D01*
X146860487Y-74570269D02*
X146772426Y-74617649D01*
X144139513Y-74570269D02*
X144227574Y-74617649D01*
X146772426Y-74617649D02*
X146680984Y-74658120D01*
X144227574Y-74617649D02*
X144319016Y-74658120D01*
X146680984Y-74658120D02*
X146586702Y-74691442D01*
X144319016Y-74658120D02*
X144413298Y-74691442D01*
X146586702Y-74691442D02*
X146490138Y-74717418D01*
X144413298Y-74691442D02*
X144509862Y-74717418D01*
X146490138Y-74717418D02*
X146391863Y-74735895D01*
X144509862Y-74717418D02*
X144608137Y-74735895D01*
X146391863Y-74735895D02*
X146292458Y-74746763D01*
X144608137Y-74735895D02*
X144707542Y-74746763D01*
X146292458Y-74746763D02*
X146192512Y-74749958D01*
X144707542Y-74746763D02*
X144807488Y-74749958D01*
X144807488Y-74749958D02*
X146192512Y-74749958D01*
M02*
