M48
;DRILL file {KiCad 5.0.2-bee76a0~70~ubuntu18.04.1} date Wed 19 Feb 2020 12:34:21 PM CET
;FORMAT={-:-/ absolute / inch / decimal}
FMAT,2
INCH,TZ
T1C0.0118
%
G90
G05
T1
X6.7913Y-4.3169
X6.7913Y-4.3375
X6.7913Y-4.358
X6.7913Y-4.3786
X6.7913Y-4.3992
X6.7913Y-4.4197
X6.7913Y-4.4403
X6.7913Y-4.4608
X6.7913Y-4.4814
X6.7913Y-4.502
X5.6496Y-2.8996
X5.6496Y-2.9202
X5.6496Y-2.9407
X5.6496Y-2.9613
X5.6496Y-2.9818
X5.6496Y-3.0024
X5.6496Y-3.023
X5.6496Y-3.0435
X5.6496Y-3.0641
X5.6496Y-3.0846
X5.2362Y-4.3169
X5.2362Y-4.3375
X5.2362Y-4.358
X5.2362Y-4.3786
X5.2362Y-4.3992
X5.2362Y-4.4197
X5.2362Y-4.4403
X5.2362Y-4.4608
X5.2362Y-4.4814
X5.2362Y-4.502
X5.2362Y-3.372
X5.2362Y-3.3926
X5.2362Y-3.4132
X5.2362Y-3.4337
X5.2362Y-3.4543
X5.2362Y-3.4748
X5.2362Y-3.4954
X5.2362Y-3.516
X5.2362Y-3.5365
X5.2362Y-3.5571
X6.7913Y-3.372
X6.7913Y-3.3926
X6.7913Y-3.4132
X6.7913Y-3.4337
X6.7913Y-3.4543
X6.7913Y-3.4748
X6.7913Y-3.4954
X6.7913Y-3.516
X6.7913Y-3.5365
X6.7913Y-3.5571
X6.378Y-3.372
X6.378Y-3.3926
X6.378Y-3.4132
X6.378Y-3.4337
X6.378Y-3.4543
X6.378Y-3.4748
X6.378Y-3.4954
X6.378Y-3.516
X6.378Y-3.5365
X6.378Y-3.5571
X6.378Y-2.8996
X6.378Y-2.9202
X6.378Y-2.9407
X6.378Y-2.9613
X6.378Y-2.9818
X6.378Y-3.0024
X6.378Y-3.023
X6.378Y-3.0435
X6.378Y-3.0641
X6.378Y-3.0846
X5.6496Y-3.8445
X5.6496Y-3.865
X5.6496Y-3.8856
X5.6496Y-3.9062
X5.6496Y-3.9267
X5.6496Y-3.9473
X5.6496Y-3.9678
X5.6496Y-3.9884
X5.6496Y-4.009
X5.6496Y-4.0295
X6.9685Y-4.5669
X6.9882Y-4.5669
X7.0079Y-4.5669
X7.0276Y-4.5669
X7.0472Y-4.5669
X5.6496Y-4.3169
X5.6496Y-4.3375
X5.6496Y-4.358
X5.6496Y-4.3786
X5.6496Y-4.3992
X5.6496Y-4.4197
X5.6496Y-4.4403
X5.6496Y-4.4608
X5.6496Y-4.4814
X5.6496Y-4.502
X6.9685Y-2.8346
X6.9882Y-2.8346
X7.0079Y-2.8346
X7.0276Y-2.8346
X7.0472Y-2.8346
X6.2205Y-3.8445
X6.2205Y-3.865
X6.2205Y-3.8856
X6.2205Y-3.9062
X6.2205Y-3.9267
X6.2205Y-3.9473
X6.2205Y-3.9678
X6.2205Y-3.9884
X6.2205Y-4.009
X6.2205Y-4.0295
X5.8071Y-2.8996
X5.8071Y-2.9202
X5.8071Y-2.9407
X5.8071Y-2.9613
X5.8071Y-2.9818
X5.8071Y-3.0024
X5.8071Y-3.023
X5.8071Y-3.0435
X5.8071Y-3.0641
X5.8071Y-3.0846
X5.2362Y-2.8996
X5.2362Y-2.9202
X5.2362Y-2.9407
X5.2362Y-2.9613
X5.2362Y-2.9818
X5.2362Y-3.0024
X5.2362Y-3.023
X5.2362Y-3.0435
X5.2362Y-3.0641
X5.2362Y-3.0846
X5.8071Y-4.3169
X5.8071Y-4.3375
X5.8071Y-4.358
X5.8071Y-4.3786
X5.8071Y-4.3992
X5.8071Y-4.4197
X5.8071Y-4.4403
X5.8071Y-4.4608
X5.8071Y-4.4814
X5.8071Y-4.502
X6.2205Y-4.3169
X6.2205Y-4.3375
X6.2205Y-4.358
X6.2205Y-4.3786
X6.2205Y-4.3992
X6.2205Y-4.4197
X6.2205Y-4.4403
X6.2205Y-4.4608
X6.2205Y-4.4814
X6.2205Y-4.502
X5.2362Y-3.8445
X5.2362Y-3.865
X5.2362Y-3.8856
X5.2362Y-3.9062
X5.2362Y-3.9267
X5.2362Y-3.9473
X5.2362Y-3.9678
X5.2362Y-3.9884
X5.2362Y-4.009
X5.2362Y-4.0295
X5.8071Y-3.372
X5.8071Y-3.3926
X5.8071Y-3.4132
X5.8071Y-3.4337
X5.8071Y-3.4543
X5.8071Y-3.4748
X5.8071Y-3.4954
X5.8071Y-3.516
X5.8071Y-3.5365
X5.8071Y-3.5571
X6.7913Y-3.8445
X6.7913Y-3.865
X6.7913Y-3.8856
X6.7913Y-3.9062
X6.7913Y-3.9267
X6.7913Y-3.9473
X6.7913Y-3.9678
X6.7913Y-3.9884
X6.7913Y-4.009
X6.7913Y-4.0295
X5.Y-4.5669
X5.0197Y-4.5669
X5.0394Y-4.5669
X5.0591Y-4.5669
X5.0787Y-4.5669
X6.378Y-3.8445
X6.378Y-3.865
X6.378Y-3.8856
X6.378Y-3.9062
X6.378Y-3.9267
X6.378Y-3.9473
X6.378Y-3.9678
X6.378Y-3.9884
X6.378Y-4.009
X6.378Y-4.0295
X6.378Y-4.3169
X6.378Y-4.3375
X6.378Y-4.358
X6.378Y-4.3786
X6.378Y-4.3992
X6.378Y-4.4197
X6.378Y-4.4403
X6.378Y-4.4608
X6.378Y-4.4814
X6.378Y-4.502
X5.8071Y-3.8445
X5.8071Y-3.865
X5.8071Y-3.8856
X5.8071Y-3.9062
X5.8071Y-3.9267
X5.8071Y-3.9473
X5.8071Y-3.9678
X5.8071Y-3.9884
X5.8071Y-4.009
X5.8071Y-4.0295
X6.7913Y-2.8996
X6.7913Y-2.9202
X6.7913Y-2.9407
X6.7913Y-2.9613
X6.7913Y-2.9818
X6.7913Y-3.0024
X6.7913Y-3.023
X6.7913Y-3.0435
X6.7913Y-3.0641
X6.7913Y-3.0846
X5.6496Y-3.372
X5.6496Y-3.3926
X5.6496Y-3.4132
X5.6496Y-3.4337
X5.6496Y-3.4543
X5.6496Y-3.4748
X5.6496Y-3.4954
X5.6496Y-3.516
X5.6496Y-3.5365
X5.6496Y-3.5571
X5.Y-2.8346
X5.0197Y-2.8346
X5.0394Y-2.8346
X5.0591Y-2.8346
X5.0787Y-2.8346
X6.2205Y-3.372
X6.2205Y-3.3926
X6.2205Y-3.4132
X6.2205Y-3.4337
X6.2205Y-3.4543
X6.2205Y-3.4748
X6.2205Y-3.4954
X6.2205Y-3.516
X6.2205Y-3.5365
X6.2205Y-3.5571
X6.2205Y-2.8996
X6.2205Y-2.9202
X6.2205Y-2.9407
X6.2205Y-2.9613
X6.2205Y-2.9818
X6.2205Y-3.0024
X6.2205Y-3.023
X6.2205Y-3.0435
X6.2205Y-3.0641
X6.2205Y-3.0846
T0
M30
