M48
;DRILL file {KiCad 5.0.2-bee76a0~70~ubuntu18.04.1} date Wed 19 Feb 2020 12:34:21 PM CET
;FORMAT={-:-/ absolute / inch / decimal}
FMAT,2
INCH,TZ
T1C0.0157
%
G90
G05
T1
X5.2717Y-3.0531
X5.2717Y-3.5256
X5.2717Y-3.998
X5.2717Y-4.4705
X5.3819Y-2.9311
X5.3819Y-3.0531
X5.3819Y-3.4035
X5.3819Y-3.5256
X5.3819Y-3.876
X5.3819Y-3.998
X5.3819Y-4.3484
X5.3819Y-4.4705
X5.5354Y-3.0079
X5.5354Y-3.4803
X5.5354Y-3.9528
X5.5354Y-4.4252
X5.5512Y-2.9016
X5.5512Y-3.374
X5.5512Y-3.8465
X5.5512Y-4.3189
X5.5551Y-2.9646
X5.5551Y-3.0748
X5.5551Y-3.437
X5.5551Y-3.5472
X5.5551Y-3.9094
X5.5551Y-4.0197
X5.5551Y-4.3819
X5.5551Y-4.4921
X5.6152Y-2.9724
X5.6152Y-3.4449
X5.6152Y-3.9173
X5.6152Y-4.3898
X5.8425Y-3.0531
X5.8425Y-3.5256
X5.8425Y-3.998
X5.8425Y-4.4705
X5.9528Y-2.9311
X5.9528Y-3.0531
X5.9528Y-3.4035
X5.9528Y-3.5256
X5.9528Y-3.876
X5.9528Y-3.998
X5.9528Y-4.3484
X5.9528Y-4.4705
X6.1063Y-3.0079
X6.1063Y-3.4803
X6.1063Y-3.9528
X6.1063Y-4.4252
X6.122Y-2.9016
X6.122Y-3.374
X6.122Y-3.8465
X6.122Y-4.3189
X6.126Y-2.9646
X6.126Y-3.0748
X6.126Y-3.437
X6.126Y-3.5472
X6.126Y-3.9094
X6.126Y-4.0197
X6.126Y-4.3819
X6.126Y-4.4921
X6.186Y-2.9724
X6.186Y-3.4449
X6.186Y-3.9173
X6.186Y-4.3898
X6.4134Y-3.0531
X6.4134Y-3.5256
X6.4134Y-3.998
X6.4134Y-4.4705
X6.5236Y-2.9311
X6.5236Y-3.0531
X6.5236Y-3.4035
X6.5236Y-3.5256
X6.5236Y-3.876
X6.5236Y-3.998
X6.5236Y-4.3484
X6.5236Y-4.4705
X6.6772Y-3.0079
X6.6772Y-3.4803
X6.6772Y-3.9528
X6.6772Y-4.4252
X6.6929Y-2.9016
X6.6929Y-3.374
X6.6929Y-3.8465
X6.6929Y-4.3189
X6.6969Y-2.9646
X6.6969Y-3.0748
X6.6969Y-3.437
X6.6969Y-3.5472
X6.6969Y-3.9094
X6.6969Y-4.0197
X6.6969Y-4.3819
X6.6969Y-4.4921
X6.7569Y-2.9724
X6.7569Y-3.4449
X6.7569Y-3.9173
X6.7569Y-4.3898
T0
M30
