G04 #@! TF.GenerationSoftware,KiCad,Pcbnew,5.0.2-bee76a0~70~ubuntu18.04.1*
G04 #@! TF.CreationDate,2020-03-02T10:40:19+01:00*
G04 #@! TF.ProjectId,output.schmitt_trigger_adapter,6f757470-7574-42e7-9363-686d6974745f,rev?*
G04 #@! TF.SameCoordinates,Original*
G04 #@! TF.FileFunction,Copper,L2,Bot*
G04 #@! TF.FilePolarity,Positive*
%FSLAX46Y46*%
G04 Gerber Fmt 4.6, Leading zero omitted, Abs format (unit mm)*
G04 Created by KiCad (PCBNEW 5.0.2-bee76a0~70~ubuntu18.04.1) date Mon 02 Mar 2020 10:40:19 AM CET*
%MOMM*%
%LPD*%
G01*
G04 APERTURE LIST*
G04 #@! TA.AperFunction,Conductor*
%ADD10C,0.100000*%
G04 #@! TD*
G04 #@! TA.AperFunction,SMDPad,CuDef*
%ADD11C,0.590000*%
G04 #@! TD*
G04 #@! TA.AperFunction,SMDPad,CuDef*
%ADD12R,0.700000X2.000000*%
G04 #@! TD*
G04 #@! TA.AperFunction,SMDPad,CuDef*
%ADD13R,0.700000X0.400000*%
G04 #@! TD*
G04 #@! TA.AperFunction,ViaPad*
%ADD14C,0.800000*%
G04 #@! TD*
G04 #@! TA.AperFunction,Conductor*
%ADD15C,0.250000*%
G04 #@! TD*
G04 APERTURE END LIST*
D10*
G04 #@! TO.N,GND*
G04 #@! TO.C,R2*
G36*
X167686958Y-113320710D02*
X167701276Y-113322834D01*
X167715317Y-113326351D01*
X167728946Y-113331228D01*
X167742031Y-113337417D01*
X167754447Y-113344858D01*
X167766073Y-113353481D01*
X167776798Y-113363202D01*
X167786519Y-113373927D01*
X167795142Y-113385553D01*
X167802583Y-113397969D01*
X167808772Y-113411054D01*
X167813649Y-113424683D01*
X167817166Y-113438724D01*
X167819290Y-113453042D01*
X167820000Y-113467500D01*
X167820000Y-113762500D01*
X167819290Y-113776958D01*
X167817166Y-113791276D01*
X167813649Y-113805317D01*
X167808772Y-113818946D01*
X167802583Y-113832031D01*
X167795142Y-113844447D01*
X167786519Y-113856073D01*
X167776798Y-113866798D01*
X167766073Y-113876519D01*
X167754447Y-113885142D01*
X167742031Y-113892583D01*
X167728946Y-113898772D01*
X167715317Y-113903649D01*
X167701276Y-113907166D01*
X167686958Y-113909290D01*
X167672500Y-113910000D01*
X167327500Y-113910000D01*
X167313042Y-113909290D01*
X167298724Y-113907166D01*
X167284683Y-113903649D01*
X167271054Y-113898772D01*
X167257969Y-113892583D01*
X167245553Y-113885142D01*
X167233927Y-113876519D01*
X167223202Y-113866798D01*
X167213481Y-113856073D01*
X167204858Y-113844447D01*
X167197417Y-113832031D01*
X167191228Y-113818946D01*
X167186351Y-113805317D01*
X167182834Y-113791276D01*
X167180710Y-113776958D01*
X167180000Y-113762500D01*
X167180000Y-113467500D01*
X167180710Y-113453042D01*
X167182834Y-113438724D01*
X167186351Y-113424683D01*
X167191228Y-113411054D01*
X167197417Y-113397969D01*
X167204858Y-113385553D01*
X167213481Y-113373927D01*
X167223202Y-113363202D01*
X167233927Y-113353481D01*
X167245553Y-113344858D01*
X167257969Y-113337417D01*
X167271054Y-113331228D01*
X167284683Y-113326351D01*
X167298724Y-113322834D01*
X167313042Y-113320710D01*
X167327500Y-113320000D01*
X167672500Y-113320000D01*
X167686958Y-113320710D01*
X167686958Y-113320710D01*
G37*
D11*
G04 #@! TD*
G04 #@! TO.P,R2,1*
G04 #@! TO.N,GND*
X167500000Y-113615000D03*
D10*
G04 #@! TO.N,/E1*
G04 #@! TO.C,R2*
G36*
X167686958Y-114290710D02*
X167701276Y-114292834D01*
X167715317Y-114296351D01*
X167728946Y-114301228D01*
X167742031Y-114307417D01*
X167754447Y-114314858D01*
X167766073Y-114323481D01*
X167776798Y-114333202D01*
X167786519Y-114343927D01*
X167795142Y-114355553D01*
X167802583Y-114367969D01*
X167808772Y-114381054D01*
X167813649Y-114394683D01*
X167817166Y-114408724D01*
X167819290Y-114423042D01*
X167820000Y-114437500D01*
X167820000Y-114732500D01*
X167819290Y-114746958D01*
X167817166Y-114761276D01*
X167813649Y-114775317D01*
X167808772Y-114788946D01*
X167802583Y-114802031D01*
X167795142Y-114814447D01*
X167786519Y-114826073D01*
X167776798Y-114836798D01*
X167766073Y-114846519D01*
X167754447Y-114855142D01*
X167742031Y-114862583D01*
X167728946Y-114868772D01*
X167715317Y-114873649D01*
X167701276Y-114877166D01*
X167686958Y-114879290D01*
X167672500Y-114880000D01*
X167327500Y-114880000D01*
X167313042Y-114879290D01*
X167298724Y-114877166D01*
X167284683Y-114873649D01*
X167271054Y-114868772D01*
X167257969Y-114862583D01*
X167245553Y-114855142D01*
X167233927Y-114846519D01*
X167223202Y-114836798D01*
X167213481Y-114826073D01*
X167204858Y-114814447D01*
X167197417Y-114802031D01*
X167191228Y-114788946D01*
X167186351Y-114775317D01*
X167182834Y-114761276D01*
X167180710Y-114746958D01*
X167180000Y-114732500D01*
X167180000Y-114437500D01*
X167180710Y-114423042D01*
X167182834Y-114408724D01*
X167186351Y-114394683D01*
X167191228Y-114381054D01*
X167197417Y-114367969D01*
X167204858Y-114355553D01*
X167213481Y-114343927D01*
X167223202Y-114333202D01*
X167233927Y-114323481D01*
X167245553Y-114314858D01*
X167257969Y-114307417D01*
X167271054Y-114301228D01*
X167284683Y-114296351D01*
X167298724Y-114292834D01*
X167313042Y-114290710D01*
X167327500Y-114290000D01*
X167672500Y-114290000D01*
X167686958Y-114290710D01*
X167686958Y-114290710D01*
G37*
D11*
G04 #@! TD*
G04 #@! TO.P,R2,2*
G04 #@! TO.N,/E1*
X167500000Y-114585000D03*
D10*
G04 #@! TO.N,GND*
G04 #@! TO.C,R2*
G36*
X153186958Y-113320710D02*
X153201276Y-113322834D01*
X153215317Y-113326351D01*
X153228946Y-113331228D01*
X153242031Y-113337417D01*
X153254447Y-113344858D01*
X153266073Y-113353481D01*
X153276798Y-113363202D01*
X153286519Y-113373927D01*
X153295142Y-113385553D01*
X153302583Y-113397969D01*
X153308772Y-113411054D01*
X153313649Y-113424683D01*
X153317166Y-113438724D01*
X153319290Y-113453042D01*
X153320000Y-113467500D01*
X153320000Y-113762500D01*
X153319290Y-113776958D01*
X153317166Y-113791276D01*
X153313649Y-113805317D01*
X153308772Y-113818946D01*
X153302583Y-113832031D01*
X153295142Y-113844447D01*
X153286519Y-113856073D01*
X153276798Y-113866798D01*
X153266073Y-113876519D01*
X153254447Y-113885142D01*
X153242031Y-113892583D01*
X153228946Y-113898772D01*
X153215317Y-113903649D01*
X153201276Y-113907166D01*
X153186958Y-113909290D01*
X153172500Y-113910000D01*
X152827500Y-113910000D01*
X152813042Y-113909290D01*
X152798724Y-113907166D01*
X152784683Y-113903649D01*
X152771054Y-113898772D01*
X152757969Y-113892583D01*
X152745553Y-113885142D01*
X152733927Y-113876519D01*
X152723202Y-113866798D01*
X152713481Y-113856073D01*
X152704858Y-113844447D01*
X152697417Y-113832031D01*
X152691228Y-113818946D01*
X152686351Y-113805317D01*
X152682834Y-113791276D01*
X152680710Y-113776958D01*
X152680000Y-113762500D01*
X152680000Y-113467500D01*
X152680710Y-113453042D01*
X152682834Y-113438724D01*
X152686351Y-113424683D01*
X152691228Y-113411054D01*
X152697417Y-113397969D01*
X152704858Y-113385553D01*
X152713481Y-113373927D01*
X152723202Y-113363202D01*
X152733927Y-113353481D01*
X152745553Y-113344858D01*
X152757969Y-113337417D01*
X152771054Y-113331228D01*
X152784683Y-113326351D01*
X152798724Y-113322834D01*
X152813042Y-113320710D01*
X152827500Y-113320000D01*
X153172500Y-113320000D01*
X153186958Y-113320710D01*
X153186958Y-113320710D01*
G37*
D11*
G04 #@! TD*
G04 #@! TO.P,R2,1*
G04 #@! TO.N,GND*
X153000000Y-113615000D03*
D10*
G04 #@! TO.N,/E1*
G04 #@! TO.C,R2*
G36*
X153186958Y-114290710D02*
X153201276Y-114292834D01*
X153215317Y-114296351D01*
X153228946Y-114301228D01*
X153242031Y-114307417D01*
X153254447Y-114314858D01*
X153266073Y-114323481D01*
X153276798Y-114333202D01*
X153286519Y-114343927D01*
X153295142Y-114355553D01*
X153302583Y-114367969D01*
X153308772Y-114381054D01*
X153313649Y-114394683D01*
X153317166Y-114408724D01*
X153319290Y-114423042D01*
X153320000Y-114437500D01*
X153320000Y-114732500D01*
X153319290Y-114746958D01*
X153317166Y-114761276D01*
X153313649Y-114775317D01*
X153308772Y-114788946D01*
X153302583Y-114802031D01*
X153295142Y-114814447D01*
X153286519Y-114826073D01*
X153276798Y-114836798D01*
X153266073Y-114846519D01*
X153254447Y-114855142D01*
X153242031Y-114862583D01*
X153228946Y-114868772D01*
X153215317Y-114873649D01*
X153201276Y-114877166D01*
X153186958Y-114879290D01*
X153172500Y-114880000D01*
X152827500Y-114880000D01*
X152813042Y-114879290D01*
X152798724Y-114877166D01*
X152784683Y-114873649D01*
X152771054Y-114868772D01*
X152757969Y-114862583D01*
X152745553Y-114855142D01*
X152733927Y-114846519D01*
X152723202Y-114836798D01*
X152713481Y-114826073D01*
X152704858Y-114814447D01*
X152697417Y-114802031D01*
X152691228Y-114788946D01*
X152686351Y-114775317D01*
X152682834Y-114761276D01*
X152680710Y-114746958D01*
X152680000Y-114732500D01*
X152680000Y-114437500D01*
X152680710Y-114423042D01*
X152682834Y-114408724D01*
X152686351Y-114394683D01*
X152691228Y-114381054D01*
X152697417Y-114367969D01*
X152704858Y-114355553D01*
X152713481Y-114343927D01*
X152723202Y-114333202D01*
X152733927Y-114323481D01*
X152745553Y-114314858D01*
X152757969Y-114307417D01*
X152771054Y-114301228D01*
X152784683Y-114296351D01*
X152798724Y-114292834D01*
X152813042Y-114290710D01*
X152827500Y-114290000D01*
X153172500Y-114290000D01*
X153186958Y-114290710D01*
X153186958Y-114290710D01*
G37*
D11*
G04 #@! TD*
G04 #@! TO.P,R2,2*
G04 #@! TO.N,/E1*
X153000000Y-114585000D03*
D10*
G04 #@! TO.N,GND*
G04 #@! TO.C,R2*
G36*
X138686958Y-113320710D02*
X138701276Y-113322834D01*
X138715317Y-113326351D01*
X138728946Y-113331228D01*
X138742031Y-113337417D01*
X138754447Y-113344858D01*
X138766073Y-113353481D01*
X138776798Y-113363202D01*
X138786519Y-113373927D01*
X138795142Y-113385553D01*
X138802583Y-113397969D01*
X138808772Y-113411054D01*
X138813649Y-113424683D01*
X138817166Y-113438724D01*
X138819290Y-113453042D01*
X138820000Y-113467500D01*
X138820000Y-113762500D01*
X138819290Y-113776958D01*
X138817166Y-113791276D01*
X138813649Y-113805317D01*
X138808772Y-113818946D01*
X138802583Y-113832031D01*
X138795142Y-113844447D01*
X138786519Y-113856073D01*
X138776798Y-113866798D01*
X138766073Y-113876519D01*
X138754447Y-113885142D01*
X138742031Y-113892583D01*
X138728946Y-113898772D01*
X138715317Y-113903649D01*
X138701276Y-113907166D01*
X138686958Y-113909290D01*
X138672500Y-113910000D01*
X138327500Y-113910000D01*
X138313042Y-113909290D01*
X138298724Y-113907166D01*
X138284683Y-113903649D01*
X138271054Y-113898772D01*
X138257969Y-113892583D01*
X138245553Y-113885142D01*
X138233927Y-113876519D01*
X138223202Y-113866798D01*
X138213481Y-113856073D01*
X138204858Y-113844447D01*
X138197417Y-113832031D01*
X138191228Y-113818946D01*
X138186351Y-113805317D01*
X138182834Y-113791276D01*
X138180710Y-113776958D01*
X138180000Y-113762500D01*
X138180000Y-113467500D01*
X138180710Y-113453042D01*
X138182834Y-113438724D01*
X138186351Y-113424683D01*
X138191228Y-113411054D01*
X138197417Y-113397969D01*
X138204858Y-113385553D01*
X138213481Y-113373927D01*
X138223202Y-113363202D01*
X138233927Y-113353481D01*
X138245553Y-113344858D01*
X138257969Y-113337417D01*
X138271054Y-113331228D01*
X138284683Y-113326351D01*
X138298724Y-113322834D01*
X138313042Y-113320710D01*
X138327500Y-113320000D01*
X138672500Y-113320000D01*
X138686958Y-113320710D01*
X138686958Y-113320710D01*
G37*
D11*
G04 #@! TD*
G04 #@! TO.P,R2,1*
G04 #@! TO.N,GND*
X138500000Y-113615000D03*
D10*
G04 #@! TO.N,/E1*
G04 #@! TO.C,R2*
G36*
X138686958Y-114290710D02*
X138701276Y-114292834D01*
X138715317Y-114296351D01*
X138728946Y-114301228D01*
X138742031Y-114307417D01*
X138754447Y-114314858D01*
X138766073Y-114323481D01*
X138776798Y-114333202D01*
X138786519Y-114343927D01*
X138795142Y-114355553D01*
X138802583Y-114367969D01*
X138808772Y-114381054D01*
X138813649Y-114394683D01*
X138817166Y-114408724D01*
X138819290Y-114423042D01*
X138820000Y-114437500D01*
X138820000Y-114732500D01*
X138819290Y-114746958D01*
X138817166Y-114761276D01*
X138813649Y-114775317D01*
X138808772Y-114788946D01*
X138802583Y-114802031D01*
X138795142Y-114814447D01*
X138786519Y-114826073D01*
X138776798Y-114836798D01*
X138766073Y-114846519D01*
X138754447Y-114855142D01*
X138742031Y-114862583D01*
X138728946Y-114868772D01*
X138715317Y-114873649D01*
X138701276Y-114877166D01*
X138686958Y-114879290D01*
X138672500Y-114880000D01*
X138327500Y-114880000D01*
X138313042Y-114879290D01*
X138298724Y-114877166D01*
X138284683Y-114873649D01*
X138271054Y-114868772D01*
X138257969Y-114862583D01*
X138245553Y-114855142D01*
X138233927Y-114846519D01*
X138223202Y-114836798D01*
X138213481Y-114826073D01*
X138204858Y-114814447D01*
X138197417Y-114802031D01*
X138191228Y-114788946D01*
X138186351Y-114775317D01*
X138182834Y-114761276D01*
X138180710Y-114746958D01*
X138180000Y-114732500D01*
X138180000Y-114437500D01*
X138180710Y-114423042D01*
X138182834Y-114408724D01*
X138186351Y-114394683D01*
X138191228Y-114381054D01*
X138197417Y-114367969D01*
X138204858Y-114355553D01*
X138213481Y-114343927D01*
X138223202Y-114333202D01*
X138233927Y-114323481D01*
X138245553Y-114314858D01*
X138257969Y-114307417D01*
X138271054Y-114301228D01*
X138284683Y-114296351D01*
X138298724Y-114292834D01*
X138313042Y-114290710D01*
X138327500Y-114290000D01*
X138672500Y-114290000D01*
X138686958Y-114290710D01*
X138686958Y-114290710D01*
G37*
D11*
G04 #@! TD*
G04 #@! TO.P,R2,2*
G04 #@! TO.N,/E1*
X138500000Y-114585000D03*
D10*
G04 #@! TO.N,GND*
G04 #@! TO.C,R2*
G36*
X167686958Y-101320710D02*
X167701276Y-101322834D01*
X167715317Y-101326351D01*
X167728946Y-101331228D01*
X167742031Y-101337417D01*
X167754447Y-101344858D01*
X167766073Y-101353481D01*
X167776798Y-101363202D01*
X167786519Y-101373927D01*
X167795142Y-101385553D01*
X167802583Y-101397969D01*
X167808772Y-101411054D01*
X167813649Y-101424683D01*
X167817166Y-101438724D01*
X167819290Y-101453042D01*
X167820000Y-101467500D01*
X167820000Y-101762500D01*
X167819290Y-101776958D01*
X167817166Y-101791276D01*
X167813649Y-101805317D01*
X167808772Y-101818946D01*
X167802583Y-101832031D01*
X167795142Y-101844447D01*
X167786519Y-101856073D01*
X167776798Y-101866798D01*
X167766073Y-101876519D01*
X167754447Y-101885142D01*
X167742031Y-101892583D01*
X167728946Y-101898772D01*
X167715317Y-101903649D01*
X167701276Y-101907166D01*
X167686958Y-101909290D01*
X167672500Y-101910000D01*
X167327500Y-101910000D01*
X167313042Y-101909290D01*
X167298724Y-101907166D01*
X167284683Y-101903649D01*
X167271054Y-101898772D01*
X167257969Y-101892583D01*
X167245553Y-101885142D01*
X167233927Y-101876519D01*
X167223202Y-101866798D01*
X167213481Y-101856073D01*
X167204858Y-101844447D01*
X167197417Y-101832031D01*
X167191228Y-101818946D01*
X167186351Y-101805317D01*
X167182834Y-101791276D01*
X167180710Y-101776958D01*
X167180000Y-101762500D01*
X167180000Y-101467500D01*
X167180710Y-101453042D01*
X167182834Y-101438724D01*
X167186351Y-101424683D01*
X167191228Y-101411054D01*
X167197417Y-101397969D01*
X167204858Y-101385553D01*
X167213481Y-101373927D01*
X167223202Y-101363202D01*
X167233927Y-101353481D01*
X167245553Y-101344858D01*
X167257969Y-101337417D01*
X167271054Y-101331228D01*
X167284683Y-101326351D01*
X167298724Y-101322834D01*
X167313042Y-101320710D01*
X167327500Y-101320000D01*
X167672500Y-101320000D01*
X167686958Y-101320710D01*
X167686958Y-101320710D01*
G37*
D11*
G04 #@! TD*
G04 #@! TO.P,R2,1*
G04 #@! TO.N,GND*
X167500000Y-101615000D03*
D10*
G04 #@! TO.N,/E1*
G04 #@! TO.C,R2*
G36*
X167686958Y-102290710D02*
X167701276Y-102292834D01*
X167715317Y-102296351D01*
X167728946Y-102301228D01*
X167742031Y-102307417D01*
X167754447Y-102314858D01*
X167766073Y-102323481D01*
X167776798Y-102333202D01*
X167786519Y-102343927D01*
X167795142Y-102355553D01*
X167802583Y-102367969D01*
X167808772Y-102381054D01*
X167813649Y-102394683D01*
X167817166Y-102408724D01*
X167819290Y-102423042D01*
X167820000Y-102437500D01*
X167820000Y-102732500D01*
X167819290Y-102746958D01*
X167817166Y-102761276D01*
X167813649Y-102775317D01*
X167808772Y-102788946D01*
X167802583Y-102802031D01*
X167795142Y-102814447D01*
X167786519Y-102826073D01*
X167776798Y-102836798D01*
X167766073Y-102846519D01*
X167754447Y-102855142D01*
X167742031Y-102862583D01*
X167728946Y-102868772D01*
X167715317Y-102873649D01*
X167701276Y-102877166D01*
X167686958Y-102879290D01*
X167672500Y-102880000D01*
X167327500Y-102880000D01*
X167313042Y-102879290D01*
X167298724Y-102877166D01*
X167284683Y-102873649D01*
X167271054Y-102868772D01*
X167257969Y-102862583D01*
X167245553Y-102855142D01*
X167233927Y-102846519D01*
X167223202Y-102836798D01*
X167213481Y-102826073D01*
X167204858Y-102814447D01*
X167197417Y-102802031D01*
X167191228Y-102788946D01*
X167186351Y-102775317D01*
X167182834Y-102761276D01*
X167180710Y-102746958D01*
X167180000Y-102732500D01*
X167180000Y-102437500D01*
X167180710Y-102423042D01*
X167182834Y-102408724D01*
X167186351Y-102394683D01*
X167191228Y-102381054D01*
X167197417Y-102367969D01*
X167204858Y-102355553D01*
X167213481Y-102343927D01*
X167223202Y-102333202D01*
X167233927Y-102323481D01*
X167245553Y-102314858D01*
X167257969Y-102307417D01*
X167271054Y-102301228D01*
X167284683Y-102296351D01*
X167298724Y-102292834D01*
X167313042Y-102290710D01*
X167327500Y-102290000D01*
X167672500Y-102290000D01*
X167686958Y-102290710D01*
X167686958Y-102290710D01*
G37*
D11*
G04 #@! TD*
G04 #@! TO.P,R2,2*
G04 #@! TO.N,/E1*
X167500000Y-102585000D03*
D10*
G04 #@! TO.N,GND*
G04 #@! TO.C,R2*
G36*
X153186958Y-101320710D02*
X153201276Y-101322834D01*
X153215317Y-101326351D01*
X153228946Y-101331228D01*
X153242031Y-101337417D01*
X153254447Y-101344858D01*
X153266073Y-101353481D01*
X153276798Y-101363202D01*
X153286519Y-101373927D01*
X153295142Y-101385553D01*
X153302583Y-101397969D01*
X153308772Y-101411054D01*
X153313649Y-101424683D01*
X153317166Y-101438724D01*
X153319290Y-101453042D01*
X153320000Y-101467500D01*
X153320000Y-101762500D01*
X153319290Y-101776958D01*
X153317166Y-101791276D01*
X153313649Y-101805317D01*
X153308772Y-101818946D01*
X153302583Y-101832031D01*
X153295142Y-101844447D01*
X153286519Y-101856073D01*
X153276798Y-101866798D01*
X153266073Y-101876519D01*
X153254447Y-101885142D01*
X153242031Y-101892583D01*
X153228946Y-101898772D01*
X153215317Y-101903649D01*
X153201276Y-101907166D01*
X153186958Y-101909290D01*
X153172500Y-101910000D01*
X152827500Y-101910000D01*
X152813042Y-101909290D01*
X152798724Y-101907166D01*
X152784683Y-101903649D01*
X152771054Y-101898772D01*
X152757969Y-101892583D01*
X152745553Y-101885142D01*
X152733927Y-101876519D01*
X152723202Y-101866798D01*
X152713481Y-101856073D01*
X152704858Y-101844447D01*
X152697417Y-101832031D01*
X152691228Y-101818946D01*
X152686351Y-101805317D01*
X152682834Y-101791276D01*
X152680710Y-101776958D01*
X152680000Y-101762500D01*
X152680000Y-101467500D01*
X152680710Y-101453042D01*
X152682834Y-101438724D01*
X152686351Y-101424683D01*
X152691228Y-101411054D01*
X152697417Y-101397969D01*
X152704858Y-101385553D01*
X152713481Y-101373927D01*
X152723202Y-101363202D01*
X152733927Y-101353481D01*
X152745553Y-101344858D01*
X152757969Y-101337417D01*
X152771054Y-101331228D01*
X152784683Y-101326351D01*
X152798724Y-101322834D01*
X152813042Y-101320710D01*
X152827500Y-101320000D01*
X153172500Y-101320000D01*
X153186958Y-101320710D01*
X153186958Y-101320710D01*
G37*
D11*
G04 #@! TD*
G04 #@! TO.P,R2,1*
G04 #@! TO.N,GND*
X153000000Y-101615000D03*
D10*
G04 #@! TO.N,/E1*
G04 #@! TO.C,R2*
G36*
X153186958Y-102290710D02*
X153201276Y-102292834D01*
X153215317Y-102296351D01*
X153228946Y-102301228D01*
X153242031Y-102307417D01*
X153254447Y-102314858D01*
X153266073Y-102323481D01*
X153276798Y-102333202D01*
X153286519Y-102343927D01*
X153295142Y-102355553D01*
X153302583Y-102367969D01*
X153308772Y-102381054D01*
X153313649Y-102394683D01*
X153317166Y-102408724D01*
X153319290Y-102423042D01*
X153320000Y-102437500D01*
X153320000Y-102732500D01*
X153319290Y-102746958D01*
X153317166Y-102761276D01*
X153313649Y-102775317D01*
X153308772Y-102788946D01*
X153302583Y-102802031D01*
X153295142Y-102814447D01*
X153286519Y-102826073D01*
X153276798Y-102836798D01*
X153266073Y-102846519D01*
X153254447Y-102855142D01*
X153242031Y-102862583D01*
X153228946Y-102868772D01*
X153215317Y-102873649D01*
X153201276Y-102877166D01*
X153186958Y-102879290D01*
X153172500Y-102880000D01*
X152827500Y-102880000D01*
X152813042Y-102879290D01*
X152798724Y-102877166D01*
X152784683Y-102873649D01*
X152771054Y-102868772D01*
X152757969Y-102862583D01*
X152745553Y-102855142D01*
X152733927Y-102846519D01*
X152723202Y-102836798D01*
X152713481Y-102826073D01*
X152704858Y-102814447D01*
X152697417Y-102802031D01*
X152691228Y-102788946D01*
X152686351Y-102775317D01*
X152682834Y-102761276D01*
X152680710Y-102746958D01*
X152680000Y-102732500D01*
X152680000Y-102437500D01*
X152680710Y-102423042D01*
X152682834Y-102408724D01*
X152686351Y-102394683D01*
X152691228Y-102381054D01*
X152697417Y-102367969D01*
X152704858Y-102355553D01*
X152713481Y-102343927D01*
X152723202Y-102333202D01*
X152733927Y-102323481D01*
X152745553Y-102314858D01*
X152757969Y-102307417D01*
X152771054Y-102301228D01*
X152784683Y-102296351D01*
X152798724Y-102292834D01*
X152813042Y-102290710D01*
X152827500Y-102290000D01*
X153172500Y-102290000D01*
X153186958Y-102290710D01*
X153186958Y-102290710D01*
G37*
D11*
G04 #@! TD*
G04 #@! TO.P,R2,2*
G04 #@! TO.N,/E1*
X153000000Y-102585000D03*
D10*
G04 #@! TO.N,GND*
G04 #@! TO.C,R2*
G36*
X138686958Y-101320710D02*
X138701276Y-101322834D01*
X138715317Y-101326351D01*
X138728946Y-101331228D01*
X138742031Y-101337417D01*
X138754447Y-101344858D01*
X138766073Y-101353481D01*
X138776798Y-101363202D01*
X138786519Y-101373927D01*
X138795142Y-101385553D01*
X138802583Y-101397969D01*
X138808772Y-101411054D01*
X138813649Y-101424683D01*
X138817166Y-101438724D01*
X138819290Y-101453042D01*
X138820000Y-101467500D01*
X138820000Y-101762500D01*
X138819290Y-101776958D01*
X138817166Y-101791276D01*
X138813649Y-101805317D01*
X138808772Y-101818946D01*
X138802583Y-101832031D01*
X138795142Y-101844447D01*
X138786519Y-101856073D01*
X138776798Y-101866798D01*
X138766073Y-101876519D01*
X138754447Y-101885142D01*
X138742031Y-101892583D01*
X138728946Y-101898772D01*
X138715317Y-101903649D01*
X138701276Y-101907166D01*
X138686958Y-101909290D01*
X138672500Y-101910000D01*
X138327500Y-101910000D01*
X138313042Y-101909290D01*
X138298724Y-101907166D01*
X138284683Y-101903649D01*
X138271054Y-101898772D01*
X138257969Y-101892583D01*
X138245553Y-101885142D01*
X138233927Y-101876519D01*
X138223202Y-101866798D01*
X138213481Y-101856073D01*
X138204858Y-101844447D01*
X138197417Y-101832031D01*
X138191228Y-101818946D01*
X138186351Y-101805317D01*
X138182834Y-101791276D01*
X138180710Y-101776958D01*
X138180000Y-101762500D01*
X138180000Y-101467500D01*
X138180710Y-101453042D01*
X138182834Y-101438724D01*
X138186351Y-101424683D01*
X138191228Y-101411054D01*
X138197417Y-101397969D01*
X138204858Y-101385553D01*
X138213481Y-101373927D01*
X138223202Y-101363202D01*
X138233927Y-101353481D01*
X138245553Y-101344858D01*
X138257969Y-101337417D01*
X138271054Y-101331228D01*
X138284683Y-101326351D01*
X138298724Y-101322834D01*
X138313042Y-101320710D01*
X138327500Y-101320000D01*
X138672500Y-101320000D01*
X138686958Y-101320710D01*
X138686958Y-101320710D01*
G37*
D11*
G04 #@! TD*
G04 #@! TO.P,R2,1*
G04 #@! TO.N,GND*
X138500000Y-101615000D03*
D10*
G04 #@! TO.N,/E1*
G04 #@! TO.C,R2*
G36*
X138686958Y-102290710D02*
X138701276Y-102292834D01*
X138715317Y-102296351D01*
X138728946Y-102301228D01*
X138742031Y-102307417D01*
X138754447Y-102314858D01*
X138766073Y-102323481D01*
X138776798Y-102333202D01*
X138786519Y-102343927D01*
X138795142Y-102355553D01*
X138802583Y-102367969D01*
X138808772Y-102381054D01*
X138813649Y-102394683D01*
X138817166Y-102408724D01*
X138819290Y-102423042D01*
X138820000Y-102437500D01*
X138820000Y-102732500D01*
X138819290Y-102746958D01*
X138817166Y-102761276D01*
X138813649Y-102775317D01*
X138808772Y-102788946D01*
X138802583Y-102802031D01*
X138795142Y-102814447D01*
X138786519Y-102826073D01*
X138776798Y-102836798D01*
X138766073Y-102846519D01*
X138754447Y-102855142D01*
X138742031Y-102862583D01*
X138728946Y-102868772D01*
X138715317Y-102873649D01*
X138701276Y-102877166D01*
X138686958Y-102879290D01*
X138672500Y-102880000D01*
X138327500Y-102880000D01*
X138313042Y-102879290D01*
X138298724Y-102877166D01*
X138284683Y-102873649D01*
X138271054Y-102868772D01*
X138257969Y-102862583D01*
X138245553Y-102855142D01*
X138233927Y-102846519D01*
X138223202Y-102836798D01*
X138213481Y-102826073D01*
X138204858Y-102814447D01*
X138197417Y-102802031D01*
X138191228Y-102788946D01*
X138186351Y-102775317D01*
X138182834Y-102761276D01*
X138180710Y-102746958D01*
X138180000Y-102732500D01*
X138180000Y-102437500D01*
X138180710Y-102423042D01*
X138182834Y-102408724D01*
X138186351Y-102394683D01*
X138191228Y-102381054D01*
X138197417Y-102367969D01*
X138204858Y-102355553D01*
X138213481Y-102343927D01*
X138223202Y-102333202D01*
X138233927Y-102323481D01*
X138245553Y-102314858D01*
X138257969Y-102307417D01*
X138271054Y-102301228D01*
X138284683Y-102296351D01*
X138298724Y-102292834D01*
X138313042Y-102290710D01*
X138327500Y-102290000D01*
X138672500Y-102290000D01*
X138686958Y-102290710D01*
X138686958Y-102290710D01*
G37*
D11*
G04 #@! TD*
G04 #@! TO.P,R2,2*
G04 #@! TO.N,/E1*
X138500000Y-102585000D03*
D10*
G04 #@! TO.N,GND*
G04 #@! TO.C,R2*
G36*
X167686958Y-89320710D02*
X167701276Y-89322834D01*
X167715317Y-89326351D01*
X167728946Y-89331228D01*
X167742031Y-89337417D01*
X167754447Y-89344858D01*
X167766073Y-89353481D01*
X167776798Y-89363202D01*
X167786519Y-89373927D01*
X167795142Y-89385553D01*
X167802583Y-89397969D01*
X167808772Y-89411054D01*
X167813649Y-89424683D01*
X167817166Y-89438724D01*
X167819290Y-89453042D01*
X167820000Y-89467500D01*
X167820000Y-89762500D01*
X167819290Y-89776958D01*
X167817166Y-89791276D01*
X167813649Y-89805317D01*
X167808772Y-89818946D01*
X167802583Y-89832031D01*
X167795142Y-89844447D01*
X167786519Y-89856073D01*
X167776798Y-89866798D01*
X167766073Y-89876519D01*
X167754447Y-89885142D01*
X167742031Y-89892583D01*
X167728946Y-89898772D01*
X167715317Y-89903649D01*
X167701276Y-89907166D01*
X167686958Y-89909290D01*
X167672500Y-89910000D01*
X167327500Y-89910000D01*
X167313042Y-89909290D01*
X167298724Y-89907166D01*
X167284683Y-89903649D01*
X167271054Y-89898772D01*
X167257969Y-89892583D01*
X167245553Y-89885142D01*
X167233927Y-89876519D01*
X167223202Y-89866798D01*
X167213481Y-89856073D01*
X167204858Y-89844447D01*
X167197417Y-89832031D01*
X167191228Y-89818946D01*
X167186351Y-89805317D01*
X167182834Y-89791276D01*
X167180710Y-89776958D01*
X167180000Y-89762500D01*
X167180000Y-89467500D01*
X167180710Y-89453042D01*
X167182834Y-89438724D01*
X167186351Y-89424683D01*
X167191228Y-89411054D01*
X167197417Y-89397969D01*
X167204858Y-89385553D01*
X167213481Y-89373927D01*
X167223202Y-89363202D01*
X167233927Y-89353481D01*
X167245553Y-89344858D01*
X167257969Y-89337417D01*
X167271054Y-89331228D01*
X167284683Y-89326351D01*
X167298724Y-89322834D01*
X167313042Y-89320710D01*
X167327500Y-89320000D01*
X167672500Y-89320000D01*
X167686958Y-89320710D01*
X167686958Y-89320710D01*
G37*
D11*
G04 #@! TD*
G04 #@! TO.P,R2,1*
G04 #@! TO.N,GND*
X167500000Y-89615000D03*
D10*
G04 #@! TO.N,/E1*
G04 #@! TO.C,R2*
G36*
X167686958Y-90290710D02*
X167701276Y-90292834D01*
X167715317Y-90296351D01*
X167728946Y-90301228D01*
X167742031Y-90307417D01*
X167754447Y-90314858D01*
X167766073Y-90323481D01*
X167776798Y-90333202D01*
X167786519Y-90343927D01*
X167795142Y-90355553D01*
X167802583Y-90367969D01*
X167808772Y-90381054D01*
X167813649Y-90394683D01*
X167817166Y-90408724D01*
X167819290Y-90423042D01*
X167820000Y-90437500D01*
X167820000Y-90732500D01*
X167819290Y-90746958D01*
X167817166Y-90761276D01*
X167813649Y-90775317D01*
X167808772Y-90788946D01*
X167802583Y-90802031D01*
X167795142Y-90814447D01*
X167786519Y-90826073D01*
X167776798Y-90836798D01*
X167766073Y-90846519D01*
X167754447Y-90855142D01*
X167742031Y-90862583D01*
X167728946Y-90868772D01*
X167715317Y-90873649D01*
X167701276Y-90877166D01*
X167686958Y-90879290D01*
X167672500Y-90880000D01*
X167327500Y-90880000D01*
X167313042Y-90879290D01*
X167298724Y-90877166D01*
X167284683Y-90873649D01*
X167271054Y-90868772D01*
X167257969Y-90862583D01*
X167245553Y-90855142D01*
X167233927Y-90846519D01*
X167223202Y-90836798D01*
X167213481Y-90826073D01*
X167204858Y-90814447D01*
X167197417Y-90802031D01*
X167191228Y-90788946D01*
X167186351Y-90775317D01*
X167182834Y-90761276D01*
X167180710Y-90746958D01*
X167180000Y-90732500D01*
X167180000Y-90437500D01*
X167180710Y-90423042D01*
X167182834Y-90408724D01*
X167186351Y-90394683D01*
X167191228Y-90381054D01*
X167197417Y-90367969D01*
X167204858Y-90355553D01*
X167213481Y-90343927D01*
X167223202Y-90333202D01*
X167233927Y-90323481D01*
X167245553Y-90314858D01*
X167257969Y-90307417D01*
X167271054Y-90301228D01*
X167284683Y-90296351D01*
X167298724Y-90292834D01*
X167313042Y-90290710D01*
X167327500Y-90290000D01*
X167672500Y-90290000D01*
X167686958Y-90290710D01*
X167686958Y-90290710D01*
G37*
D11*
G04 #@! TD*
G04 #@! TO.P,R2,2*
G04 #@! TO.N,/E1*
X167500000Y-90585000D03*
D10*
G04 #@! TO.N,GND*
G04 #@! TO.C,R2*
G36*
X153186958Y-89320710D02*
X153201276Y-89322834D01*
X153215317Y-89326351D01*
X153228946Y-89331228D01*
X153242031Y-89337417D01*
X153254447Y-89344858D01*
X153266073Y-89353481D01*
X153276798Y-89363202D01*
X153286519Y-89373927D01*
X153295142Y-89385553D01*
X153302583Y-89397969D01*
X153308772Y-89411054D01*
X153313649Y-89424683D01*
X153317166Y-89438724D01*
X153319290Y-89453042D01*
X153320000Y-89467500D01*
X153320000Y-89762500D01*
X153319290Y-89776958D01*
X153317166Y-89791276D01*
X153313649Y-89805317D01*
X153308772Y-89818946D01*
X153302583Y-89832031D01*
X153295142Y-89844447D01*
X153286519Y-89856073D01*
X153276798Y-89866798D01*
X153266073Y-89876519D01*
X153254447Y-89885142D01*
X153242031Y-89892583D01*
X153228946Y-89898772D01*
X153215317Y-89903649D01*
X153201276Y-89907166D01*
X153186958Y-89909290D01*
X153172500Y-89910000D01*
X152827500Y-89910000D01*
X152813042Y-89909290D01*
X152798724Y-89907166D01*
X152784683Y-89903649D01*
X152771054Y-89898772D01*
X152757969Y-89892583D01*
X152745553Y-89885142D01*
X152733927Y-89876519D01*
X152723202Y-89866798D01*
X152713481Y-89856073D01*
X152704858Y-89844447D01*
X152697417Y-89832031D01*
X152691228Y-89818946D01*
X152686351Y-89805317D01*
X152682834Y-89791276D01*
X152680710Y-89776958D01*
X152680000Y-89762500D01*
X152680000Y-89467500D01*
X152680710Y-89453042D01*
X152682834Y-89438724D01*
X152686351Y-89424683D01*
X152691228Y-89411054D01*
X152697417Y-89397969D01*
X152704858Y-89385553D01*
X152713481Y-89373927D01*
X152723202Y-89363202D01*
X152733927Y-89353481D01*
X152745553Y-89344858D01*
X152757969Y-89337417D01*
X152771054Y-89331228D01*
X152784683Y-89326351D01*
X152798724Y-89322834D01*
X152813042Y-89320710D01*
X152827500Y-89320000D01*
X153172500Y-89320000D01*
X153186958Y-89320710D01*
X153186958Y-89320710D01*
G37*
D11*
G04 #@! TD*
G04 #@! TO.P,R2,1*
G04 #@! TO.N,GND*
X153000000Y-89615000D03*
D10*
G04 #@! TO.N,/E1*
G04 #@! TO.C,R2*
G36*
X153186958Y-90290710D02*
X153201276Y-90292834D01*
X153215317Y-90296351D01*
X153228946Y-90301228D01*
X153242031Y-90307417D01*
X153254447Y-90314858D01*
X153266073Y-90323481D01*
X153276798Y-90333202D01*
X153286519Y-90343927D01*
X153295142Y-90355553D01*
X153302583Y-90367969D01*
X153308772Y-90381054D01*
X153313649Y-90394683D01*
X153317166Y-90408724D01*
X153319290Y-90423042D01*
X153320000Y-90437500D01*
X153320000Y-90732500D01*
X153319290Y-90746958D01*
X153317166Y-90761276D01*
X153313649Y-90775317D01*
X153308772Y-90788946D01*
X153302583Y-90802031D01*
X153295142Y-90814447D01*
X153286519Y-90826073D01*
X153276798Y-90836798D01*
X153266073Y-90846519D01*
X153254447Y-90855142D01*
X153242031Y-90862583D01*
X153228946Y-90868772D01*
X153215317Y-90873649D01*
X153201276Y-90877166D01*
X153186958Y-90879290D01*
X153172500Y-90880000D01*
X152827500Y-90880000D01*
X152813042Y-90879290D01*
X152798724Y-90877166D01*
X152784683Y-90873649D01*
X152771054Y-90868772D01*
X152757969Y-90862583D01*
X152745553Y-90855142D01*
X152733927Y-90846519D01*
X152723202Y-90836798D01*
X152713481Y-90826073D01*
X152704858Y-90814447D01*
X152697417Y-90802031D01*
X152691228Y-90788946D01*
X152686351Y-90775317D01*
X152682834Y-90761276D01*
X152680710Y-90746958D01*
X152680000Y-90732500D01*
X152680000Y-90437500D01*
X152680710Y-90423042D01*
X152682834Y-90408724D01*
X152686351Y-90394683D01*
X152691228Y-90381054D01*
X152697417Y-90367969D01*
X152704858Y-90355553D01*
X152713481Y-90343927D01*
X152723202Y-90333202D01*
X152733927Y-90323481D01*
X152745553Y-90314858D01*
X152757969Y-90307417D01*
X152771054Y-90301228D01*
X152784683Y-90296351D01*
X152798724Y-90292834D01*
X152813042Y-90290710D01*
X152827500Y-90290000D01*
X153172500Y-90290000D01*
X153186958Y-90290710D01*
X153186958Y-90290710D01*
G37*
D11*
G04 #@! TD*
G04 #@! TO.P,R2,2*
G04 #@! TO.N,/E1*
X153000000Y-90585000D03*
D10*
G04 #@! TO.N,GND*
G04 #@! TO.C,R2*
G36*
X138686958Y-89320710D02*
X138701276Y-89322834D01*
X138715317Y-89326351D01*
X138728946Y-89331228D01*
X138742031Y-89337417D01*
X138754447Y-89344858D01*
X138766073Y-89353481D01*
X138776798Y-89363202D01*
X138786519Y-89373927D01*
X138795142Y-89385553D01*
X138802583Y-89397969D01*
X138808772Y-89411054D01*
X138813649Y-89424683D01*
X138817166Y-89438724D01*
X138819290Y-89453042D01*
X138820000Y-89467500D01*
X138820000Y-89762500D01*
X138819290Y-89776958D01*
X138817166Y-89791276D01*
X138813649Y-89805317D01*
X138808772Y-89818946D01*
X138802583Y-89832031D01*
X138795142Y-89844447D01*
X138786519Y-89856073D01*
X138776798Y-89866798D01*
X138766073Y-89876519D01*
X138754447Y-89885142D01*
X138742031Y-89892583D01*
X138728946Y-89898772D01*
X138715317Y-89903649D01*
X138701276Y-89907166D01*
X138686958Y-89909290D01*
X138672500Y-89910000D01*
X138327500Y-89910000D01*
X138313042Y-89909290D01*
X138298724Y-89907166D01*
X138284683Y-89903649D01*
X138271054Y-89898772D01*
X138257969Y-89892583D01*
X138245553Y-89885142D01*
X138233927Y-89876519D01*
X138223202Y-89866798D01*
X138213481Y-89856073D01*
X138204858Y-89844447D01*
X138197417Y-89832031D01*
X138191228Y-89818946D01*
X138186351Y-89805317D01*
X138182834Y-89791276D01*
X138180710Y-89776958D01*
X138180000Y-89762500D01*
X138180000Y-89467500D01*
X138180710Y-89453042D01*
X138182834Y-89438724D01*
X138186351Y-89424683D01*
X138191228Y-89411054D01*
X138197417Y-89397969D01*
X138204858Y-89385553D01*
X138213481Y-89373927D01*
X138223202Y-89363202D01*
X138233927Y-89353481D01*
X138245553Y-89344858D01*
X138257969Y-89337417D01*
X138271054Y-89331228D01*
X138284683Y-89326351D01*
X138298724Y-89322834D01*
X138313042Y-89320710D01*
X138327500Y-89320000D01*
X138672500Y-89320000D01*
X138686958Y-89320710D01*
X138686958Y-89320710D01*
G37*
D11*
G04 #@! TD*
G04 #@! TO.P,R2,1*
G04 #@! TO.N,GND*
X138500000Y-89615000D03*
D10*
G04 #@! TO.N,/E1*
G04 #@! TO.C,R2*
G36*
X138686958Y-90290710D02*
X138701276Y-90292834D01*
X138715317Y-90296351D01*
X138728946Y-90301228D01*
X138742031Y-90307417D01*
X138754447Y-90314858D01*
X138766073Y-90323481D01*
X138776798Y-90333202D01*
X138786519Y-90343927D01*
X138795142Y-90355553D01*
X138802583Y-90367969D01*
X138808772Y-90381054D01*
X138813649Y-90394683D01*
X138817166Y-90408724D01*
X138819290Y-90423042D01*
X138820000Y-90437500D01*
X138820000Y-90732500D01*
X138819290Y-90746958D01*
X138817166Y-90761276D01*
X138813649Y-90775317D01*
X138808772Y-90788946D01*
X138802583Y-90802031D01*
X138795142Y-90814447D01*
X138786519Y-90826073D01*
X138776798Y-90836798D01*
X138766073Y-90846519D01*
X138754447Y-90855142D01*
X138742031Y-90862583D01*
X138728946Y-90868772D01*
X138715317Y-90873649D01*
X138701276Y-90877166D01*
X138686958Y-90879290D01*
X138672500Y-90880000D01*
X138327500Y-90880000D01*
X138313042Y-90879290D01*
X138298724Y-90877166D01*
X138284683Y-90873649D01*
X138271054Y-90868772D01*
X138257969Y-90862583D01*
X138245553Y-90855142D01*
X138233927Y-90846519D01*
X138223202Y-90836798D01*
X138213481Y-90826073D01*
X138204858Y-90814447D01*
X138197417Y-90802031D01*
X138191228Y-90788946D01*
X138186351Y-90775317D01*
X138182834Y-90761276D01*
X138180710Y-90746958D01*
X138180000Y-90732500D01*
X138180000Y-90437500D01*
X138180710Y-90423042D01*
X138182834Y-90408724D01*
X138186351Y-90394683D01*
X138191228Y-90381054D01*
X138197417Y-90367969D01*
X138204858Y-90355553D01*
X138213481Y-90343927D01*
X138223202Y-90333202D01*
X138233927Y-90323481D01*
X138245553Y-90314858D01*
X138257969Y-90307417D01*
X138271054Y-90301228D01*
X138284683Y-90296351D01*
X138298724Y-90292834D01*
X138313042Y-90290710D01*
X138327500Y-90290000D01*
X138672500Y-90290000D01*
X138686958Y-90290710D01*
X138686958Y-90290710D01*
G37*
D11*
G04 #@! TD*
G04 #@! TO.P,R2,2*
G04 #@! TO.N,/E1*
X138500000Y-90585000D03*
D10*
G04 #@! TO.N,GND*
G04 #@! TO.C,R2*
G36*
X167686958Y-77320710D02*
X167701276Y-77322834D01*
X167715317Y-77326351D01*
X167728946Y-77331228D01*
X167742031Y-77337417D01*
X167754447Y-77344858D01*
X167766073Y-77353481D01*
X167776798Y-77363202D01*
X167786519Y-77373927D01*
X167795142Y-77385553D01*
X167802583Y-77397969D01*
X167808772Y-77411054D01*
X167813649Y-77424683D01*
X167817166Y-77438724D01*
X167819290Y-77453042D01*
X167820000Y-77467500D01*
X167820000Y-77762500D01*
X167819290Y-77776958D01*
X167817166Y-77791276D01*
X167813649Y-77805317D01*
X167808772Y-77818946D01*
X167802583Y-77832031D01*
X167795142Y-77844447D01*
X167786519Y-77856073D01*
X167776798Y-77866798D01*
X167766073Y-77876519D01*
X167754447Y-77885142D01*
X167742031Y-77892583D01*
X167728946Y-77898772D01*
X167715317Y-77903649D01*
X167701276Y-77907166D01*
X167686958Y-77909290D01*
X167672500Y-77910000D01*
X167327500Y-77910000D01*
X167313042Y-77909290D01*
X167298724Y-77907166D01*
X167284683Y-77903649D01*
X167271054Y-77898772D01*
X167257969Y-77892583D01*
X167245553Y-77885142D01*
X167233927Y-77876519D01*
X167223202Y-77866798D01*
X167213481Y-77856073D01*
X167204858Y-77844447D01*
X167197417Y-77832031D01*
X167191228Y-77818946D01*
X167186351Y-77805317D01*
X167182834Y-77791276D01*
X167180710Y-77776958D01*
X167180000Y-77762500D01*
X167180000Y-77467500D01*
X167180710Y-77453042D01*
X167182834Y-77438724D01*
X167186351Y-77424683D01*
X167191228Y-77411054D01*
X167197417Y-77397969D01*
X167204858Y-77385553D01*
X167213481Y-77373927D01*
X167223202Y-77363202D01*
X167233927Y-77353481D01*
X167245553Y-77344858D01*
X167257969Y-77337417D01*
X167271054Y-77331228D01*
X167284683Y-77326351D01*
X167298724Y-77322834D01*
X167313042Y-77320710D01*
X167327500Y-77320000D01*
X167672500Y-77320000D01*
X167686958Y-77320710D01*
X167686958Y-77320710D01*
G37*
D11*
G04 #@! TD*
G04 #@! TO.P,R2,1*
G04 #@! TO.N,GND*
X167500000Y-77615000D03*
D10*
G04 #@! TO.N,/E1*
G04 #@! TO.C,R2*
G36*
X167686958Y-78290710D02*
X167701276Y-78292834D01*
X167715317Y-78296351D01*
X167728946Y-78301228D01*
X167742031Y-78307417D01*
X167754447Y-78314858D01*
X167766073Y-78323481D01*
X167776798Y-78333202D01*
X167786519Y-78343927D01*
X167795142Y-78355553D01*
X167802583Y-78367969D01*
X167808772Y-78381054D01*
X167813649Y-78394683D01*
X167817166Y-78408724D01*
X167819290Y-78423042D01*
X167820000Y-78437500D01*
X167820000Y-78732500D01*
X167819290Y-78746958D01*
X167817166Y-78761276D01*
X167813649Y-78775317D01*
X167808772Y-78788946D01*
X167802583Y-78802031D01*
X167795142Y-78814447D01*
X167786519Y-78826073D01*
X167776798Y-78836798D01*
X167766073Y-78846519D01*
X167754447Y-78855142D01*
X167742031Y-78862583D01*
X167728946Y-78868772D01*
X167715317Y-78873649D01*
X167701276Y-78877166D01*
X167686958Y-78879290D01*
X167672500Y-78880000D01*
X167327500Y-78880000D01*
X167313042Y-78879290D01*
X167298724Y-78877166D01*
X167284683Y-78873649D01*
X167271054Y-78868772D01*
X167257969Y-78862583D01*
X167245553Y-78855142D01*
X167233927Y-78846519D01*
X167223202Y-78836798D01*
X167213481Y-78826073D01*
X167204858Y-78814447D01*
X167197417Y-78802031D01*
X167191228Y-78788946D01*
X167186351Y-78775317D01*
X167182834Y-78761276D01*
X167180710Y-78746958D01*
X167180000Y-78732500D01*
X167180000Y-78437500D01*
X167180710Y-78423042D01*
X167182834Y-78408724D01*
X167186351Y-78394683D01*
X167191228Y-78381054D01*
X167197417Y-78367969D01*
X167204858Y-78355553D01*
X167213481Y-78343927D01*
X167223202Y-78333202D01*
X167233927Y-78323481D01*
X167245553Y-78314858D01*
X167257969Y-78307417D01*
X167271054Y-78301228D01*
X167284683Y-78296351D01*
X167298724Y-78292834D01*
X167313042Y-78290710D01*
X167327500Y-78290000D01*
X167672500Y-78290000D01*
X167686958Y-78290710D01*
X167686958Y-78290710D01*
G37*
D11*
G04 #@! TD*
G04 #@! TO.P,R2,2*
G04 #@! TO.N,/E1*
X167500000Y-78585000D03*
D10*
G04 #@! TO.N,GND*
G04 #@! TO.C,R2*
G36*
X153186958Y-77320710D02*
X153201276Y-77322834D01*
X153215317Y-77326351D01*
X153228946Y-77331228D01*
X153242031Y-77337417D01*
X153254447Y-77344858D01*
X153266073Y-77353481D01*
X153276798Y-77363202D01*
X153286519Y-77373927D01*
X153295142Y-77385553D01*
X153302583Y-77397969D01*
X153308772Y-77411054D01*
X153313649Y-77424683D01*
X153317166Y-77438724D01*
X153319290Y-77453042D01*
X153320000Y-77467500D01*
X153320000Y-77762500D01*
X153319290Y-77776958D01*
X153317166Y-77791276D01*
X153313649Y-77805317D01*
X153308772Y-77818946D01*
X153302583Y-77832031D01*
X153295142Y-77844447D01*
X153286519Y-77856073D01*
X153276798Y-77866798D01*
X153266073Y-77876519D01*
X153254447Y-77885142D01*
X153242031Y-77892583D01*
X153228946Y-77898772D01*
X153215317Y-77903649D01*
X153201276Y-77907166D01*
X153186958Y-77909290D01*
X153172500Y-77910000D01*
X152827500Y-77910000D01*
X152813042Y-77909290D01*
X152798724Y-77907166D01*
X152784683Y-77903649D01*
X152771054Y-77898772D01*
X152757969Y-77892583D01*
X152745553Y-77885142D01*
X152733927Y-77876519D01*
X152723202Y-77866798D01*
X152713481Y-77856073D01*
X152704858Y-77844447D01*
X152697417Y-77832031D01*
X152691228Y-77818946D01*
X152686351Y-77805317D01*
X152682834Y-77791276D01*
X152680710Y-77776958D01*
X152680000Y-77762500D01*
X152680000Y-77467500D01*
X152680710Y-77453042D01*
X152682834Y-77438724D01*
X152686351Y-77424683D01*
X152691228Y-77411054D01*
X152697417Y-77397969D01*
X152704858Y-77385553D01*
X152713481Y-77373927D01*
X152723202Y-77363202D01*
X152733927Y-77353481D01*
X152745553Y-77344858D01*
X152757969Y-77337417D01*
X152771054Y-77331228D01*
X152784683Y-77326351D01*
X152798724Y-77322834D01*
X152813042Y-77320710D01*
X152827500Y-77320000D01*
X153172500Y-77320000D01*
X153186958Y-77320710D01*
X153186958Y-77320710D01*
G37*
D11*
G04 #@! TD*
G04 #@! TO.P,R2,1*
G04 #@! TO.N,GND*
X153000000Y-77615000D03*
D10*
G04 #@! TO.N,/E1*
G04 #@! TO.C,R2*
G36*
X153186958Y-78290710D02*
X153201276Y-78292834D01*
X153215317Y-78296351D01*
X153228946Y-78301228D01*
X153242031Y-78307417D01*
X153254447Y-78314858D01*
X153266073Y-78323481D01*
X153276798Y-78333202D01*
X153286519Y-78343927D01*
X153295142Y-78355553D01*
X153302583Y-78367969D01*
X153308772Y-78381054D01*
X153313649Y-78394683D01*
X153317166Y-78408724D01*
X153319290Y-78423042D01*
X153320000Y-78437500D01*
X153320000Y-78732500D01*
X153319290Y-78746958D01*
X153317166Y-78761276D01*
X153313649Y-78775317D01*
X153308772Y-78788946D01*
X153302583Y-78802031D01*
X153295142Y-78814447D01*
X153286519Y-78826073D01*
X153276798Y-78836798D01*
X153266073Y-78846519D01*
X153254447Y-78855142D01*
X153242031Y-78862583D01*
X153228946Y-78868772D01*
X153215317Y-78873649D01*
X153201276Y-78877166D01*
X153186958Y-78879290D01*
X153172500Y-78880000D01*
X152827500Y-78880000D01*
X152813042Y-78879290D01*
X152798724Y-78877166D01*
X152784683Y-78873649D01*
X152771054Y-78868772D01*
X152757969Y-78862583D01*
X152745553Y-78855142D01*
X152733927Y-78846519D01*
X152723202Y-78836798D01*
X152713481Y-78826073D01*
X152704858Y-78814447D01*
X152697417Y-78802031D01*
X152691228Y-78788946D01*
X152686351Y-78775317D01*
X152682834Y-78761276D01*
X152680710Y-78746958D01*
X152680000Y-78732500D01*
X152680000Y-78437500D01*
X152680710Y-78423042D01*
X152682834Y-78408724D01*
X152686351Y-78394683D01*
X152691228Y-78381054D01*
X152697417Y-78367969D01*
X152704858Y-78355553D01*
X152713481Y-78343927D01*
X152723202Y-78333202D01*
X152733927Y-78323481D01*
X152745553Y-78314858D01*
X152757969Y-78307417D01*
X152771054Y-78301228D01*
X152784683Y-78296351D01*
X152798724Y-78292834D01*
X152813042Y-78290710D01*
X152827500Y-78290000D01*
X153172500Y-78290000D01*
X153186958Y-78290710D01*
X153186958Y-78290710D01*
G37*
D11*
G04 #@! TD*
G04 #@! TO.P,R2,2*
G04 #@! TO.N,/E1*
X153000000Y-78585000D03*
D10*
G04 #@! TO.N,/E0*
G04 #@! TO.C,R1*
G36*
X167686958Y-109890710D02*
X167701276Y-109892834D01*
X167715317Y-109896351D01*
X167728946Y-109901228D01*
X167742031Y-109907417D01*
X167754447Y-109914858D01*
X167766073Y-109923481D01*
X167776798Y-109933202D01*
X167786519Y-109943927D01*
X167795142Y-109955553D01*
X167802583Y-109967969D01*
X167808772Y-109981054D01*
X167813649Y-109994683D01*
X167817166Y-110008724D01*
X167819290Y-110023042D01*
X167820000Y-110037500D01*
X167820000Y-110332500D01*
X167819290Y-110346958D01*
X167817166Y-110361276D01*
X167813649Y-110375317D01*
X167808772Y-110388946D01*
X167802583Y-110402031D01*
X167795142Y-110414447D01*
X167786519Y-110426073D01*
X167776798Y-110436798D01*
X167766073Y-110446519D01*
X167754447Y-110455142D01*
X167742031Y-110462583D01*
X167728946Y-110468772D01*
X167715317Y-110473649D01*
X167701276Y-110477166D01*
X167686958Y-110479290D01*
X167672500Y-110480000D01*
X167327500Y-110480000D01*
X167313042Y-110479290D01*
X167298724Y-110477166D01*
X167284683Y-110473649D01*
X167271054Y-110468772D01*
X167257969Y-110462583D01*
X167245553Y-110455142D01*
X167233927Y-110446519D01*
X167223202Y-110436798D01*
X167213481Y-110426073D01*
X167204858Y-110414447D01*
X167197417Y-110402031D01*
X167191228Y-110388946D01*
X167186351Y-110375317D01*
X167182834Y-110361276D01*
X167180710Y-110346958D01*
X167180000Y-110332500D01*
X167180000Y-110037500D01*
X167180710Y-110023042D01*
X167182834Y-110008724D01*
X167186351Y-109994683D01*
X167191228Y-109981054D01*
X167197417Y-109967969D01*
X167204858Y-109955553D01*
X167213481Y-109943927D01*
X167223202Y-109933202D01*
X167233927Y-109923481D01*
X167245553Y-109914858D01*
X167257969Y-109907417D01*
X167271054Y-109901228D01*
X167284683Y-109896351D01*
X167298724Y-109892834D01*
X167313042Y-109890710D01*
X167327500Y-109890000D01*
X167672500Y-109890000D01*
X167686958Y-109890710D01*
X167686958Y-109890710D01*
G37*
D11*
G04 #@! TD*
G04 #@! TO.P,R1,2*
G04 #@! TO.N,/E0*
X167500000Y-110185000D03*
D10*
G04 #@! TO.N,GND*
G04 #@! TO.C,R1*
G36*
X167686958Y-108920710D02*
X167701276Y-108922834D01*
X167715317Y-108926351D01*
X167728946Y-108931228D01*
X167742031Y-108937417D01*
X167754447Y-108944858D01*
X167766073Y-108953481D01*
X167776798Y-108963202D01*
X167786519Y-108973927D01*
X167795142Y-108985553D01*
X167802583Y-108997969D01*
X167808772Y-109011054D01*
X167813649Y-109024683D01*
X167817166Y-109038724D01*
X167819290Y-109053042D01*
X167820000Y-109067500D01*
X167820000Y-109362500D01*
X167819290Y-109376958D01*
X167817166Y-109391276D01*
X167813649Y-109405317D01*
X167808772Y-109418946D01*
X167802583Y-109432031D01*
X167795142Y-109444447D01*
X167786519Y-109456073D01*
X167776798Y-109466798D01*
X167766073Y-109476519D01*
X167754447Y-109485142D01*
X167742031Y-109492583D01*
X167728946Y-109498772D01*
X167715317Y-109503649D01*
X167701276Y-109507166D01*
X167686958Y-109509290D01*
X167672500Y-109510000D01*
X167327500Y-109510000D01*
X167313042Y-109509290D01*
X167298724Y-109507166D01*
X167284683Y-109503649D01*
X167271054Y-109498772D01*
X167257969Y-109492583D01*
X167245553Y-109485142D01*
X167233927Y-109476519D01*
X167223202Y-109466798D01*
X167213481Y-109456073D01*
X167204858Y-109444447D01*
X167197417Y-109432031D01*
X167191228Y-109418946D01*
X167186351Y-109405317D01*
X167182834Y-109391276D01*
X167180710Y-109376958D01*
X167180000Y-109362500D01*
X167180000Y-109067500D01*
X167180710Y-109053042D01*
X167182834Y-109038724D01*
X167186351Y-109024683D01*
X167191228Y-109011054D01*
X167197417Y-108997969D01*
X167204858Y-108985553D01*
X167213481Y-108973927D01*
X167223202Y-108963202D01*
X167233927Y-108953481D01*
X167245553Y-108944858D01*
X167257969Y-108937417D01*
X167271054Y-108931228D01*
X167284683Y-108926351D01*
X167298724Y-108922834D01*
X167313042Y-108920710D01*
X167327500Y-108920000D01*
X167672500Y-108920000D01*
X167686958Y-108920710D01*
X167686958Y-108920710D01*
G37*
D11*
G04 #@! TD*
G04 #@! TO.P,R1,1*
G04 #@! TO.N,GND*
X167500000Y-109215000D03*
D10*
G04 #@! TO.N,/E0*
G04 #@! TO.C,R1*
G36*
X153186958Y-109890710D02*
X153201276Y-109892834D01*
X153215317Y-109896351D01*
X153228946Y-109901228D01*
X153242031Y-109907417D01*
X153254447Y-109914858D01*
X153266073Y-109923481D01*
X153276798Y-109933202D01*
X153286519Y-109943927D01*
X153295142Y-109955553D01*
X153302583Y-109967969D01*
X153308772Y-109981054D01*
X153313649Y-109994683D01*
X153317166Y-110008724D01*
X153319290Y-110023042D01*
X153320000Y-110037500D01*
X153320000Y-110332500D01*
X153319290Y-110346958D01*
X153317166Y-110361276D01*
X153313649Y-110375317D01*
X153308772Y-110388946D01*
X153302583Y-110402031D01*
X153295142Y-110414447D01*
X153286519Y-110426073D01*
X153276798Y-110436798D01*
X153266073Y-110446519D01*
X153254447Y-110455142D01*
X153242031Y-110462583D01*
X153228946Y-110468772D01*
X153215317Y-110473649D01*
X153201276Y-110477166D01*
X153186958Y-110479290D01*
X153172500Y-110480000D01*
X152827500Y-110480000D01*
X152813042Y-110479290D01*
X152798724Y-110477166D01*
X152784683Y-110473649D01*
X152771054Y-110468772D01*
X152757969Y-110462583D01*
X152745553Y-110455142D01*
X152733927Y-110446519D01*
X152723202Y-110436798D01*
X152713481Y-110426073D01*
X152704858Y-110414447D01*
X152697417Y-110402031D01*
X152691228Y-110388946D01*
X152686351Y-110375317D01*
X152682834Y-110361276D01*
X152680710Y-110346958D01*
X152680000Y-110332500D01*
X152680000Y-110037500D01*
X152680710Y-110023042D01*
X152682834Y-110008724D01*
X152686351Y-109994683D01*
X152691228Y-109981054D01*
X152697417Y-109967969D01*
X152704858Y-109955553D01*
X152713481Y-109943927D01*
X152723202Y-109933202D01*
X152733927Y-109923481D01*
X152745553Y-109914858D01*
X152757969Y-109907417D01*
X152771054Y-109901228D01*
X152784683Y-109896351D01*
X152798724Y-109892834D01*
X152813042Y-109890710D01*
X152827500Y-109890000D01*
X153172500Y-109890000D01*
X153186958Y-109890710D01*
X153186958Y-109890710D01*
G37*
D11*
G04 #@! TD*
G04 #@! TO.P,R1,2*
G04 #@! TO.N,/E0*
X153000000Y-110185000D03*
D10*
G04 #@! TO.N,GND*
G04 #@! TO.C,R1*
G36*
X153186958Y-108920710D02*
X153201276Y-108922834D01*
X153215317Y-108926351D01*
X153228946Y-108931228D01*
X153242031Y-108937417D01*
X153254447Y-108944858D01*
X153266073Y-108953481D01*
X153276798Y-108963202D01*
X153286519Y-108973927D01*
X153295142Y-108985553D01*
X153302583Y-108997969D01*
X153308772Y-109011054D01*
X153313649Y-109024683D01*
X153317166Y-109038724D01*
X153319290Y-109053042D01*
X153320000Y-109067500D01*
X153320000Y-109362500D01*
X153319290Y-109376958D01*
X153317166Y-109391276D01*
X153313649Y-109405317D01*
X153308772Y-109418946D01*
X153302583Y-109432031D01*
X153295142Y-109444447D01*
X153286519Y-109456073D01*
X153276798Y-109466798D01*
X153266073Y-109476519D01*
X153254447Y-109485142D01*
X153242031Y-109492583D01*
X153228946Y-109498772D01*
X153215317Y-109503649D01*
X153201276Y-109507166D01*
X153186958Y-109509290D01*
X153172500Y-109510000D01*
X152827500Y-109510000D01*
X152813042Y-109509290D01*
X152798724Y-109507166D01*
X152784683Y-109503649D01*
X152771054Y-109498772D01*
X152757969Y-109492583D01*
X152745553Y-109485142D01*
X152733927Y-109476519D01*
X152723202Y-109466798D01*
X152713481Y-109456073D01*
X152704858Y-109444447D01*
X152697417Y-109432031D01*
X152691228Y-109418946D01*
X152686351Y-109405317D01*
X152682834Y-109391276D01*
X152680710Y-109376958D01*
X152680000Y-109362500D01*
X152680000Y-109067500D01*
X152680710Y-109053042D01*
X152682834Y-109038724D01*
X152686351Y-109024683D01*
X152691228Y-109011054D01*
X152697417Y-108997969D01*
X152704858Y-108985553D01*
X152713481Y-108973927D01*
X152723202Y-108963202D01*
X152733927Y-108953481D01*
X152745553Y-108944858D01*
X152757969Y-108937417D01*
X152771054Y-108931228D01*
X152784683Y-108926351D01*
X152798724Y-108922834D01*
X152813042Y-108920710D01*
X152827500Y-108920000D01*
X153172500Y-108920000D01*
X153186958Y-108920710D01*
X153186958Y-108920710D01*
G37*
D11*
G04 #@! TD*
G04 #@! TO.P,R1,1*
G04 #@! TO.N,GND*
X153000000Y-109215000D03*
D10*
G04 #@! TO.N,/E0*
G04 #@! TO.C,R1*
G36*
X138686958Y-109890710D02*
X138701276Y-109892834D01*
X138715317Y-109896351D01*
X138728946Y-109901228D01*
X138742031Y-109907417D01*
X138754447Y-109914858D01*
X138766073Y-109923481D01*
X138776798Y-109933202D01*
X138786519Y-109943927D01*
X138795142Y-109955553D01*
X138802583Y-109967969D01*
X138808772Y-109981054D01*
X138813649Y-109994683D01*
X138817166Y-110008724D01*
X138819290Y-110023042D01*
X138820000Y-110037500D01*
X138820000Y-110332500D01*
X138819290Y-110346958D01*
X138817166Y-110361276D01*
X138813649Y-110375317D01*
X138808772Y-110388946D01*
X138802583Y-110402031D01*
X138795142Y-110414447D01*
X138786519Y-110426073D01*
X138776798Y-110436798D01*
X138766073Y-110446519D01*
X138754447Y-110455142D01*
X138742031Y-110462583D01*
X138728946Y-110468772D01*
X138715317Y-110473649D01*
X138701276Y-110477166D01*
X138686958Y-110479290D01*
X138672500Y-110480000D01*
X138327500Y-110480000D01*
X138313042Y-110479290D01*
X138298724Y-110477166D01*
X138284683Y-110473649D01*
X138271054Y-110468772D01*
X138257969Y-110462583D01*
X138245553Y-110455142D01*
X138233927Y-110446519D01*
X138223202Y-110436798D01*
X138213481Y-110426073D01*
X138204858Y-110414447D01*
X138197417Y-110402031D01*
X138191228Y-110388946D01*
X138186351Y-110375317D01*
X138182834Y-110361276D01*
X138180710Y-110346958D01*
X138180000Y-110332500D01*
X138180000Y-110037500D01*
X138180710Y-110023042D01*
X138182834Y-110008724D01*
X138186351Y-109994683D01*
X138191228Y-109981054D01*
X138197417Y-109967969D01*
X138204858Y-109955553D01*
X138213481Y-109943927D01*
X138223202Y-109933202D01*
X138233927Y-109923481D01*
X138245553Y-109914858D01*
X138257969Y-109907417D01*
X138271054Y-109901228D01*
X138284683Y-109896351D01*
X138298724Y-109892834D01*
X138313042Y-109890710D01*
X138327500Y-109890000D01*
X138672500Y-109890000D01*
X138686958Y-109890710D01*
X138686958Y-109890710D01*
G37*
D11*
G04 #@! TD*
G04 #@! TO.P,R1,2*
G04 #@! TO.N,/E0*
X138500000Y-110185000D03*
D10*
G04 #@! TO.N,GND*
G04 #@! TO.C,R1*
G36*
X138686958Y-108920710D02*
X138701276Y-108922834D01*
X138715317Y-108926351D01*
X138728946Y-108931228D01*
X138742031Y-108937417D01*
X138754447Y-108944858D01*
X138766073Y-108953481D01*
X138776798Y-108963202D01*
X138786519Y-108973927D01*
X138795142Y-108985553D01*
X138802583Y-108997969D01*
X138808772Y-109011054D01*
X138813649Y-109024683D01*
X138817166Y-109038724D01*
X138819290Y-109053042D01*
X138820000Y-109067500D01*
X138820000Y-109362500D01*
X138819290Y-109376958D01*
X138817166Y-109391276D01*
X138813649Y-109405317D01*
X138808772Y-109418946D01*
X138802583Y-109432031D01*
X138795142Y-109444447D01*
X138786519Y-109456073D01*
X138776798Y-109466798D01*
X138766073Y-109476519D01*
X138754447Y-109485142D01*
X138742031Y-109492583D01*
X138728946Y-109498772D01*
X138715317Y-109503649D01*
X138701276Y-109507166D01*
X138686958Y-109509290D01*
X138672500Y-109510000D01*
X138327500Y-109510000D01*
X138313042Y-109509290D01*
X138298724Y-109507166D01*
X138284683Y-109503649D01*
X138271054Y-109498772D01*
X138257969Y-109492583D01*
X138245553Y-109485142D01*
X138233927Y-109476519D01*
X138223202Y-109466798D01*
X138213481Y-109456073D01*
X138204858Y-109444447D01*
X138197417Y-109432031D01*
X138191228Y-109418946D01*
X138186351Y-109405317D01*
X138182834Y-109391276D01*
X138180710Y-109376958D01*
X138180000Y-109362500D01*
X138180000Y-109067500D01*
X138180710Y-109053042D01*
X138182834Y-109038724D01*
X138186351Y-109024683D01*
X138191228Y-109011054D01*
X138197417Y-108997969D01*
X138204858Y-108985553D01*
X138213481Y-108973927D01*
X138223202Y-108963202D01*
X138233927Y-108953481D01*
X138245553Y-108944858D01*
X138257969Y-108937417D01*
X138271054Y-108931228D01*
X138284683Y-108926351D01*
X138298724Y-108922834D01*
X138313042Y-108920710D01*
X138327500Y-108920000D01*
X138672500Y-108920000D01*
X138686958Y-108920710D01*
X138686958Y-108920710D01*
G37*
D11*
G04 #@! TD*
G04 #@! TO.P,R1,1*
G04 #@! TO.N,GND*
X138500000Y-109215000D03*
D10*
G04 #@! TO.N,/E0*
G04 #@! TO.C,R1*
G36*
X167686958Y-97890710D02*
X167701276Y-97892834D01*
X167715317Y-97896351D01*
X167728946Y-97901228D01*
X167742031Y-97907417D01*
X167754447Y-97914858D01*
X167766073Y-97923481D01*
X167776798Y-97933202D01*
X167786519Y-97943927D01*
X167795142Y-97955553D01*
X167802583Y-97967969D01*
X167808772Y-97981054D01*
X167813649Y-97994683D01*
X167817166Y-98008724D01*
X167819290Y-98023042D01*
X167820000Y-98037500D01*
X167820000Y-98332500D01*
X167819290Y-98346958D01*
X167817166Y-98361276D01*
X167813649Y-98375317D01*
X167808772Y-98388946D01*
X167802583Y-98402031D01*
X167795142Y-98414447D01*
X167786519Y-98426073D01*
X167776798Y-98436798D01*
X167766073Y-98446519D01*
X167754447Y-98455142D01*
X167742031Y-98462583D01*
X167728946Y-98468772D01*
X167715317Y-98473649D01*
X167701276Y-98477166D01*
X167686958Y-98479290D01*
X167672500Y-98480000D01*
X167327500Y-98480000D01*
X167313042Y-98479290D01*
X167298724Y-98477166D01*
X167284683Y-98473649D01*
X167271054Y-98468772D01*
X167257969Y-98462583D01*
X167245553Y-98455142D01*
X167233927Y-98446519D01*
X167223202Y-98436798D01*
X167213481Y-98426073D01*
X167204858Y-98414447D01*
X167197417Y-98402031D01*
X167191228Y-98388946D01*
X167186351Y-98375317D01*
X167182834Y-98361276D01*
X167180710Y-98346958D01*
X167180000Y-98332500D01*
X167180000Y-98037500D01*
X167180710Y-98023042D01*
X167182834Y-98008724D01*
X167186351Y-97994683D01*
X167191228Y-97981054D01*
X167197417Y-97967969D01*
X167204858Y-97955553D01*
X167213481Y-97943927D01*
X167223202Y-97933202D01*
X167233927Y-97923481D01*
X167245553Y-97914858D01*
X167257969Y-97907417D01*
X167271054Y-97901228D01*
X167284683Y-97896351D01*
X167298724Y-97892834D01*
X167313042Y-97890710D01*
X167327500Y-97890000D01*
X167672500Y-97890000D01*
X167686958Y-97890710D01*
X167686958Y-97890710D01*
G37*
D11*
G04 #@! TD*
G04 #@! TO.P,R1,2*
G04 #@! TO.N,/E0*
X167500000Y-98185000D03*
D10*
G04 #@! TO.N,GND*
G04 #@! TO.C,R1*
G36*
X167686958Y-96920710D02*
X167701276Y-96922834D01*
X167715317Y-96926351D01*
X167728946Y-96931228D01*
X167742031Y-96937417D01*
X167754447Y-96944858D01*
X167766073Y-96953481D01*
X167776798Y-96963202D01*
X167786519Y-96973927D01*
X167795142Y-96985553D01*
X167802583Y-96997969D01*
X167808772Y-97011054D01*
X167813649Y-97024683D01*
X167817166Y-97038724D01*
X167819290Y-97053042D01*
X167820000Y-97067500D01*
X167820000Y-97362500D01*
X167819290Y-97376958D01*
X167817166Y-97391276D01*
X167813649Y-97405317D01*
X167808772Y-97418946D01*
X167802583Y-97432031D01*
X167795142Y-97444447D01*
X167786519Y-97456073D01*
X167776798Y-97466798D01*
X167766073Y-97476519D01*
X167754447Y-97485142D01*
X167742031Y-97492583D01*
X167728946Y-97498772D01*
X167715317Y-97503649D01*
X167701276Y-97507166D01*
X167686958Y-97509290D01*
X167672500Y-97510000D01*
X167327500Y-97510000D01*
X167313042Y-97509290D01*
X167298724Y-97507166D01*
X167284683Y-97503649D01*
X167271054Y-97498772D01*
X167257969Y-97492583D01*
X167245553Y-97485142D01*
X167233927Y-97476519D01*
X167223202Y-97466798D01*
X167213481Y-97456073D01*
X167204858Y-97444447D01*
X167197417Y-97432031D01*
X167191228Y-97418946D01*
X167186351Y-97405317D01*
X167182834Y-97391276D01*
X167180710Y-97376958D01*
X167180000Y-97362500D01*
X167180000Y-97067500D01*
X167180710Y-97053042D01*
X167182834Y-97038724D01*
X167186351Y-97024683D01*
X167191228Y-97011054D01*
X167197417Y-96997969D01*
X167204858Y-96985553D01*
X167213481Y-96973927D01*
X167223202Y-96963202D01*
X167233927Y-96953481D01*
X167245553Y-96944858D01*
X167257969Y-96937417D01*
X167271054Y-96931228D01*
X167284683Y-96926351D01*
X167298724Y-96922834D01*
X167313042Y-96920710D01*
X167327500Y-96920000D01*
X167672500Y-96920000D01*
X167686958Y-96920710D01*
X167686958Y-96920710D01*
G37*
D11*
G04 #@! TD*
G04 #@! TO.P,R1,1*
G04 #@! TO.N,GND*
X167500000Y-97215000D03*
D10*
G04 #@! TO.N,/E0*
G04 #@! TO.C,R1*
G36*
X153186958Y-97890710D02*
X153201276Y-97892834D01*
X153215317Y-97896351D01*
X153228946Y-97901228D01*
X153242031Y-97907417D01*
X153254447Y-97914858D01*
X153266073Y-97923481D01*
X153276798Y-97933202D01*
X153286519Y-97943927D01*
X153295142Y-97955553D01*
X153302583Y-97967969D01*
X153308772Y-97981054D01*
X153313649Y-97994683D01*
X153317166Y-98008724D01*
X153319290Y-98023042D01*
X153320000Y-98037500D01*
X153320000Y-98332500D01*
X153319290Y-98346958D01*
X153317166Y-98361276D01*
X153313649Y-98375317D01*
X153308772Y-98388946D01*
X153302583Y-98402031D01*
X153295142Y-98414447D01*
X153286519Y-98426073D01*
X153276798Y-98436798D01*
X153266073Y-98446519D01*
X153254447Y-98455142D01*
X153242031Y-98462583D01*
X153228946Y-98468772D01*
X153215317Y-98473649D01*
X153201276Y-98477166D01*
X153186958Y-98479290D01*
X153172500Y-98480000D01*
X152827500Y-98480000D01*
X152813042Y-98479290D01*
X152798724Y-98477166D01*
X152784683Y-98473649D01*
X152771054Y-98468772D01*
X152757969Y-98462583D01*
X152745553Y-98455142D01*
X152733927Y-98446519D01*
X152723202Y-98436798D01*
X152713481Y-98426073D01*
X152704858Y-98414447D01*
X152697417Y-98402031D01*
X152691228Y-98388946D01*
X152686351Y-98375317D01*
X152682834Y-98361276D01*
X152680710Y-98346958D01*
X152680000Y-98332500D01*
X152680000Y-98037500D01*
X152680710Y-98023042D01*
X152682834Y-98008724D01*
X152686351Y-97994683D01*
X152691228Y-97981054D01*
X152697417Y-97967969D01*
X152704858Y-97955553D01*
X152713481Y-97943927D01*
X152723202Y-97933202D01*
X152733927Y-97923481D01*
X152745553Y-97914858D01*
X152757969Y-97907417D01*
X152771054Y-97901228D01*
X152784683Y-97896351D01*
X152798724Y-97892834D01*
X152813042Y-97890710D01*
X152827500Y-97890000D01*
X153172500Y-97890000D01*
X153186958Y-97890710D01*
X153186958Y-97890710D01*
G37*
D11*
G04 #@! TD*
G04 #@! TO.P,R1,2*
G04 #@! TO.N,/E0*
X153000000Y-98185000D03*
D10*
G04 #@! TO.N,GND*
G04 #@! TO.C,R1*
G36*
X153186958Y-96920710D02*
X153201276Y-96922834D01*
X153215317Y-96926351D01*
X153228946Y-96931228D01*
X153242031Y-96937417D01*
X153254447Y-96944858D01*
X153266073Y-96953481D01*
X153276798Y-96963202D01*
X153286519Y-96973927D01*
X153295142Y-96985553D01*
X153302583Y-96997969D01*
X153308772Y-97011054D01*
X153313649Y-97024683D01*
X153317166Y-97038724D01*
X153319290Y-97053042D01*
X153320000Y-97067500D01*
X153320000Y-97362500D01*
X153319290Y-97376958D01*
X153317166Y-97391276D01*
X153313649Y-97405317D01*
X153308772Y-97418946D01*
X153302583Y-97432031D01*
X153295142Y-97444447D01*
X153286519Y-97456073D01*
X153276798Y-97466798D01*
X153266073Y-97476519D01*
X153254447Y-97485142D01*
X153242031Y-97492583D01*
X153228946Y-97498772D01*
X153215317Y-97503649D01*
X153201276Y-97507166D01*
X153186958Y-97509290D01*
X153172500Y-97510000D01*
X152827500Y-97510000D01*
X152813042Y-97509290D01*
X152798724Y-97507166D01*
X152784683Y-97503649D01*
X152771054Y-97498772D01*
X152757969Y-97492583D01*
X152745553Y-97485142D01*
X152733927Y-97476519D01*
X152723202Y-97466798D01*
X152713481Y-97456073D01*
X152704858Y-97444447D01*
X152697417Y-97432031D01*
X152691228Y-97418946D01*
X152686351Y-97405317D01*
X152682834Y-97391276D01*
X152680710Y-97376958D01*
X152680000Y-97362500D01*
X152680000Y-97067500D01*
X152680710Y-97053042D01*
X152682834Y-97038724D01*
X152686351Y-97024683D01*
X152691228Y-97011054D01*
X152697417Y-96997969D01*
X152704858Y-96985553D01*
X152713481Y-96973927D01*
X152723202Y-96963202D01*
X152733927Y-96953481D01*
X152745553Y-96944858D01*
X152757969Y-96937417D01*
X152771054Y-96931228D01*
X152784683Y-96926351D01*
X152798724Y-96922834D01*
X152813042Y-96920710D01*
X152827500Y-96920000D01*
X153172500Y-96920000D01*
X153186958Y-96920710D01*
X153186958Y-96920710D01*
G37*
D11*
G04 #@! TD*
G04 #@! TO.P,R1,1*
G04 #@! TO.N,GND*
X153000000Y-97215000D03*
D10*
G04 #@! TO.N,/E0*
G04 #@! TO.C,R1*
G36*
X138686958Y-97890710D02*
X138701276Y-97892834D01*
X138715317Y-97896351D01*
X138728946Y-97901228D01*
X138742031Y-97907417D01*
X138754447Y-97914858D01*
X138766073Y-97923481D01*
X138776798Y-97933202D01*
X138786519Y-97943927D01*
X138795142Y-97955553D01*
X138802583Y-97967969D01*
X138808772Y-97981054D01*
X138813649Y-97994683D01*
X138817166Y-98008724D01*
X138819290Y-98023042D01*
X138820000Y-98037500D01*
X138820000Y-98332500D01*
X138819290Y-98346958D01*
X138817166Y-98361276D01*
X138813649Y-98375317D01*
X138808772Y-98388946D01*
X138802583Y-98402031D01*
X138795142Y-98414447D01*
X138786519Y-98426073D01*
X138776798Y-98436798D01*
X138766073Y-98446519D01*
X138754447Y-98455142D01*
X138742031Y-98462583D01*
X138728946Y-98468772D01*
X138715317Y-98473649D01*
X138701276Y-98477166D01*
X138686958Y-98479290D01*
X138672500Y-98480000D01*
X138327500Y-98480000D01*
X138313042Y-98479290D01*
X138298724Y-98477166D01*
X138284683Y-98473649D01*
X138271054Y-98468772D01*
X138257969Y-98462583D01*
X138245553Y-98455142D01*
X138233927Y-98446519D01*
X138223202Y-98436798D01*
X138213481Y-98426073D01*
X138204858Y-98414447D01*
X138197417Y-98402031D01*
X138191228Y-98388946D01*
X138186351Y-98375317D01*
X138182834Y-98361276D01*
X138180710Y-98346958D01*
X138180000Y-98332500D01*
X138180000Y-98037500D01*
X138180710Y-98023042D01*
X138182834Y-98008724D01*
X138186351Y-97994683D01*
X138191228Y-97981054D01*
X138197417Y-97967969D01*
X138204858Y-97955553D01*
X138213481Y-97943927D01*
X138223202Y-97933202D01*
X138233927Y-97923481D01*
X138245553Y-97914858D01*
X138257969Y-97907417D01*
X138271054Y-97901228D01*
X138284683Y-97896351D01*
X138298724Y-97892834D01*
X138313042Y-97890710D01*
X138327500Y-97890000D01*
X138672500Y-97890000D01*
X138686958Y-97890710D01*
X138686958Y-97890710D01*
G37*
D11*
G04 #@! TD*
G04 #@! TO.P,R1,2*
G04 #@! TO.N,/E0*
X138500000Y-98185000D03*
D10*
G04 #@! TO.N,GND*
G04 #@! TO.C,R1*
G36*
X138686958Y-96920710D02*
X138701276Y-96922834D01*
X138715317Y-96926351D01*
X138728946Y-96931228D01*
X138742031Y-96937417D01*
X138754447Y-96944858D01*
X138766073Y-96953481D01*
X138776798Y-96963202D01*
X138786519Y-96973927D01*
X138795142Y-96985553D01*
X138802583Y-96997969D01*
X138808772Y-97011054D01*
X138813649Y-97024683D01*
X138817166Y-97038724D01*
X138819290Y-97053042D01*
X138820000Y-97067500D01*
X138820000Y-97362500D01*
X138819290Y-97376958D01*
X138817166Y-97391276D01*
X138813649Y-97405317D01*
X138808772Y-97418946D01*
X138802583Y-97432031D01*
X138795142Y-97444447D01*
X138786519Y-97456073D01*
X138776798Y-97466798D01*
X138766073Y-97476519D01*
X138754447Y-97485142D01*
X138742031Y-97492583D01*
X138728946Y-97498772D01*
X138715317Y-97503649D01*
X138701276Y-97507166D01*
X138686958Y-97509290D01*
X138672500Y-97510000D01*
X138327500Y-97510000D01*
X138313042Y-97509290D01*
X138298724Y-97507166D01*
X138284683Y-97503649D01*
X138271054Y-97498772D01*
X138257969Y-97492583D01*
X138245553Y-97485142D01*
X138233927Y-97476519D01*
X138223202Y-97466798D01*
X138213481Y-97456073D01*
X138204858Y-97444447D01*
X138197417Y-97432031D01*
X138191228Y-97418946D01*
X138186351Y-97405317D01*
X138182834Y-97391276D01*
X138180710Y-97376958D01*
X138180000Y-97362500D01*
X138180000Y-97067500D01*
X138180710Y-97053042D01*
X138182834Y-97038724D01*
X138186351Y-97024683D01*
X138191228Y-97011054D01*
X138197417Y-96997969D01*
X138204858Y-96985553D01*
X138213481Y-96973927D01*
X138223202Y-96963202D01*
X138233927Y-96953481D01*
X138245553Y-96944858D01*
X138257969Y-96937417D01*
X138271054Y-96931228D01*
X138284683Y-96926351D01*
X138298724Y-96922834D01*
X138313042Y-96920710D01*
X138327500Y-96920000D01*
X138672500Y-96920000D01*
X138686958Y-96920710D01*
X138686958Y-96920710D01*
G37*
D11*
G04 #@! TD*
G04 #@! TO.P,R1,1*
G04 #@! TO.N,GND*
X138500000Y-97215000D03*
D10*
G04 #@! TO.N,/E0*
G04 #@! TO.C,R1*
G36*
X167686958Y-85890710D02*
X167701276Y-85892834D01*
X167715317Y-85896351D01*
X167728946Y-85901228D01*
X167742031Y-85907417D01*
X167754447Y-85914858D01*
X167766073Y-85923481D01*
X167776798Y-85933202D01*
X167786519Y-85943927D01*
X167795142Y-85955553D01*
X167802583Y-85967969D01*
X167808772Y-85981054D01*
X167813649Y-85994683D01*
X167817166Y-86008724D01*
X167819290Y-86023042D01*
X167820000Y-86037500D01*
X167820000Y-86332500D01*
X167819290Y-86346958D01*
X167817166Y-86361276D01*
X167813649Y-86375317D01*
X167808772Y-86388946D01*
X167802583Y-86402031D01*
X167795142Y-86414447D01*
X167786519Y-86426073D01*
X167776798Y-86436798D01*
X167766073Y-86446519D01*
X167754447Y-86455142D01*
X167742031Y-86462583D01*
X167728946Y-86468772D01*
X167715317Y-86473649D01*
X167701276Y-86477166D01*
X167686958Y-86479290D01*
X167672500Y-86480000D01*
X167327500Y-86480000D01*
X167313042Y-86479290D01*
X167298724Y-86477166D01*
X167284683Y-86473649D01*
X167271054Y-86468772D01*
X167257969Y-86462583D01*
X167245553Y-86455142D01*
X167233927Y-86446519D01*
X167223202Y-86436798D01*
X167213481Y-86426073D01*
X167204858Y-86414447D01*
X167197417Y-86402031D01*
X167191228Y-86388946D01*
X167186351Y-86375317D01*
X167182834Y-86361276D01*
X167180710Y-86346958D01*
X167180000Y-86332500D01*
X167180000Y-86037500D01*
X167180710Y-86023042D01*
X167182834Y-86008724D01*
X167186351Y-85994683D01*
X167191228Y-85981054D01*
X167197417Y-85967969D01*
X167204858Y-85955553D01*
X167213481Y-85943927D01*
X167223202Y-85933202D01*
X167233927Y-85923481D01*
X167245553Y-85914858D01*
X167257969Y-85907417D01*
X167271054Y-85901228D01*
X167284683Y-85896351D01*
X167298724Y-85892834D01*
X167313042Y-85890710D01*
X167327500Y-85890000D01*
X167672500Y-85890000D01*
X167686958Y-85890710D01*
X167686958Y-85890710D01*
G37*
D11*
G04 #@! TD*
G04 #@! TO.P,R1,2*
G04 #@! TO.N,/E0*
X167500000Y-86185000D03*
D10*
G04 #@! TO.N,GND*
G04 #@! TO.C,R1*
G36*
X167686958Y-84920710D02*
X167701276Y-84922834D01*
X167715317Y-84926351D01*
X167728946Y-84931228D01*
X167742031Y-84937417D01*
X167754447Y-84944858D01*
X167766073Y-84953481D01*
X167776798Y-84963202D01*
X167786519Y-84973927D01*
X167795142Y-84985553D01*
X167802583Y-84997969D01*
X167808772Y-85011054D01*
X167813649Y-85024683D01*
X167817166Y-85038724D01*
X167819290Y-85053042D01*
X167820000Y-85067500D01*
X167820000Y-85362500D01*
X167819290Y-85376958D01*
X167817166Y-85391276D01*
X167813649Y-85405317D01*
X167808772Y-85418946D01*
X167802583Y-85432031D01*
X167795142Y-85444447D01*
X167786519Y-85456073D01*
X167776798Y-85466798D01*
X167766073Y-85476519D01*
X167754447Y-85485142D01*
X167742031Y-85492583D01*
X167728946Y-85498772D01*
X167715317Y-85503649D01*
X167701276Y-85507166D01*
X167686958Y-85509290D01*
X167672500Y-85510000D01*
X167327500Y-85510000D01*
X167313042Y-85509290D01*
X167298724Y-85507166D01*
X167284683Y-85503649D01*
X167271054Y-85498772D01*
X167257969Y-85492583D01*
X167245553Y-85485142D01*
X167233927Y-85476519D01*
X167223202Y-85466798D01*
X167213481Y-85456073D01*
X167204858Y-85444447D01*
X167197417Y-85432031D01*
X167191228Y-85418946D01*
X167186351Y-85405317D01*
X167182834Y-85391276D01*
X167180710Y-85376958D01*
X167180000Y-85362500D01*
X167180000Y-85067500D01*
X167180710Y-85053042D01*
X167182834Y-85038724D01*
X167186351Y-85024683D01*
X167191228Y-85011054D01*
X167197417Y-84997969D01*
X167204858Y-84985553D01*
X167213481Y-84973927D01*
X167223202Y-84963202D01*
X167233927Y-84953481D01*
X167245553Y-84944858D01*
X167257969Y-84937417D01*
X167271054Y-84931228D01*
X167284683Y-84926351D01*
X167298724Y-84922834D01*
X167313042Y-84920710D01*
X167327500Y-84920000D01*
X167672500Y-84920000D01*
X167686958Y-84920710D01*
X167686958Y-84920710D01*
G37*
D11*
G04 #@! TD*
G04 #@! TO.P,R1,1*
G04 #@! TO.N,GND*
X167500000Y-85215000D03*
D10*
G04 #@! TO.N,/E0*
G04 #@! TO.C,R1*
G36*
X153186958Y-85890710D02*
X153201276Y-85892834D01*
X153215317Y-85896351D01*
X153228946Y-85901228D01*
X153242031Y-85907417D01*
X153254447Y-85914858D01*
X153266073Y-85923481D01*
X153276798Y-85933202D01*
X153286519Y-85943927D01*
X153295142Y-85955553D01*
X153302583Y-85967969D01*
X153308772Y-85981054D01*
X153313649Y-85994683D01*
X153317166Y-86008724D01*
X153319290Y-86023042D01*
X153320000Y-86037500D01*
X153320000Y-86332500D01*
X153319290Y-86346958D01*
X153317166Y-86361276D01*
X153313649Y-86375317D01*
X153308772Y-86388946D01*
X153302583Y-86402031D01*
X153295142Y-86414447D01*
X153286519Y-86426073D01*
X153276798Y-86436798D01*
X153266073Y-86446519D01*
X153254447Y-86455142D01*
X153242031Y-86462583D01*
X153228946Y-86468772D01*
X153215317Y-86473649D01*
X153201276Y-86477166D01*
X153186958Y-86479290D01*
X153172500Y-86480000D01*
X152827500Y-86480000D01*
X152813042Y-86479290D01*
X152798724Y-86477166D01*
X152784683Y-86473649D01*
X152771054Y-86468772D01*
X152757969Y-86462583D01*
X152745553Y-86455142D01*
X152733927Y-86446519D01*
X152723202Y-86436798D01*
X152713481Y-86426073D01*
X152704858Y-86414447D01*
X152697417Y-86402031D01*
X152691228Y-86388946D01*
X152686351Y-86375317D01*
X152682834Y-86361276D01*
X152680710Y-86346958D01*
X152680000Y-86332500D01*
X152680000Y-86037500D01*
X152680710Y-86023042D01*
X152682834Y-86008724D01*
X152686351Y-85994683D01*
X152691228Y-85981054D01*
X152697417Y-85967969D01*
X152704858Y-85955553D01*
X152713481Y-85943927D01*
X152723202Y-85933202D01*
X152733927Y-85923481D01*
X152745553Y-85914858D01*
X152757969Y-85907417D01*
X152771054Y-85901228D01*
X152784683Y-85896351D01*
X152798724Y-85892834D01*
X152813042Y-85890710D01*
X152827500Y-85890000D01*
X153172500Y-85890000D01*
X153186958Y-85890710D01*
X153186958Y-85890710D01*
G37*
D11*
G04 #@! TD*
G04 #@! TO.P,R1,2*
G04 #@! TO.N,/E0*
X153000000Y-86185000D03*
D10*
G04 #@! TO.N,GND*
G04 #@! TO.C,R1*
G36*
X153186958Y-84920710D02*
X153201276Y-84922834D01*
X153215317Y-84926351D01*
X153228946Y-84931228D01*
X153242031Y-84937417D01*
X153254447Y-84944858D01*
X153266073Y-84953481D01*
X153276798Y-84963202D01*
X153286519Y-84973927D01*
X153295142Y-84985553D01*
X153302583Y-84997969D01*
X153308772Y-85011054D01*
X153313649Y-85024683D01*
X153317166Y-85038724D01*
X153319290Y-85053042D01*
X153320000Y-85067500D01*
X153320000Y-85362500D01*
X153319290Y-85376958D01*
X153317166Y-85391276D01*
X153313649Y-85405317D01*
X153308772Y-85418946D01*
X153302583Y-85432031D01*
X153295142Y-85444447D01*
X153286519Y-85456073D01*
X153276798Y-85466798D01*
X153266073Y-85476519D01*
X153254447Y-85485142D01*
X153242031Y-85492583D01*
X153228946Y-85498772D01*
X153215317Y-85503649D01*
X153201276Y-85507166D01*
X153186958Y-85509290D01*
X153172500Y-85510000D01*
X152827500Y-85510000D01*
X152813042Y-85509290D01*
X152798724Y-85507166D01*
X152784683Y-85503649D01*
X152771054Y-85498772D01*
X152757969Y-85492583D01*
X152745553Y-85485142D01*
X152733927Y-85476519D01*
X152723202Y-85466798D01*
X152713481Y-85456073D01*
X152704858Y-85444447D01*
X152697417Y-85432031D01*
X152691228Y-85418946D01*
X152686351Y-85405317D01*
X152682834Y-85391276D01*
X152680710Y-85376958D01*
X152680000Y-85362500D01*
X152680000Y-85067500D01*
X152680710Y-85053042D01*
X152682834Y-85038724D01*
X152686351Y-85024683D01*
X152691228Y-85011054D01*
X152697417Y-84997969D01*
X152704858Y-84985553D01*
X152713481Y-84973927D01*
X152723202Y-84963202D01*
X152733927Y-84953481D01*
X152745553Y-84944858D01*
X152757969Y-84937417D01*
X152771054Y-84931228D01*
X152784683Y-84926351D01*
X152798724Y-84922834D01*
X152813042Y-84920710D01*
X152827500Y-84920000D01*
X153172500Y-84920000D01*
X153186958Y-84920710D01*
X153186958Y-84920710D01*
G37*
D11*
G04 #@! TD*
G04 #@! TO.P,R1,1*
G04 #@! TO.N,GND*
X153000000Y-85215000D03*
D10*
G04 #@! TO.N,/E0*
G04 #@! TO.C,R1*
G36*
X138686958Y-85890710D02*
X138701276Y-85892834D01*
X138715317Y-85896351D01*
X138728946Y-85901228D01*
X138742031Y-85907417D01*
X138754447Y-85914858D01*
X138766073Y-85923481D01*
X138776798Y-85933202D01*
X138786519Y-85943927D01*
X138795142Y-85955553D01*
X138802583Y-85967969D01*
X138808772Y-85981054D01*
X138813649Y-85994683D01*
X138817166Y-86008724D01*
X138819290Y-86023042D01*
X138820000Y-86037500D01*
X138820000Y-86332500D01*
X138819290Y-86346958D01*
X138817166Y-86361276D01*
X138813649Y-86375317D01*
X138808772Y-86388946D01*
X138802583Y-86402031D01*
X138795142Y-86414447D01*
X138786519Y-86426073D01*
X138776798Y-86436798D01*
X138766073Y-86446519D01*
X138754447Y-86455142D01*
X138742031Y-86462583D01*
X138728946Y-86468772D01*
X138715317Y-86473649D01*
X138701276Y-86477166D01*
X138686958Y-86479290D01*
X138672500Y-86480000D01*
X138327500Y-86480000D01*
X138313042Y-86479290D01*
X138298724Y-86477166D01*
X138284683Y-86473649D01*
X138271054Y-86468772D01*
X138257969Y-86462583D01*
X138245553Y-86455142D01*
X138233927Y-86446519D01*
X138223202Y-86436798D01*
X138213481Y-86426073D01*
X138204858Y-86414447D01*
X138197417Y-86402031D01*
X138191228Y-86388946D01*
X138186351Y-86375317D01*
X138182834Y-86361276D01*
X138180710Y-86346958D01*
X138180000Y-86332500D01*
X138180000Y-86037500D01*
X138180710Y-86023042D01*
X138182834Y-86008724D01*
X138186351Y-85994683D01*
X138191228Y-85981054D01*
X138197417Y-85967969D01*
X138204858Y-85955553D01*
X138213481Y-85943927D01*
X138223202Y-85933202D01*
X138233927Y-85923481D01*
X138245553Y-85914858D01*
X138257969Y-85907417D01*
X138271054Y-85901228D01*
X138284683Y-85896351D01*
X138298724Y-85892834D01*
X138313042Y-85890710D01*
X138327500Y-85890000D01*
X138672500Y-85890000D01*
X138686958Y-85890710D01*
X138686958Y-85890710D01*
G37*
D11*
G04 #@! TD*
G04 #@! TO.P,R1,2*
G04 #@! TO.N,/E0*
X138500000Y-86185000D03*
D10*
G04 #@! TO.N,GND*
G04 #@! TO.C,R1*
G36*
X138686958Y-84920710D02*
X138701276Y-84922834D01*
X138715317Y-84926351D01*
X138728946Y-84931228D01*
X138742031Y-84937417D01*
X138754447Y-84944858D01*
X138766073Y-84953481D01*
X138776798Y-84963202D01*
X138786519Y-84973927D01*
X138795142Y-84985553D01*
X138802583Y-84997969D01*
X138808772Y-85011054D01*
X138813649Y-85024683D01*
X138817166Y-85038724D01*
X138819290Y-85053042D01*
X138820000Y-85067500D01*
X138820000Y-85362500D01*
X138819290Y-85376958D01*
X138817166Y-85391276D01*
X138813649Y-85405317D01*
X138808772Y-85418946D01*
X138802583Y-85432031D01*
X138795142Y-85444447D01*
X138786519Y-85456073D01*
X138776798Y-85466798D01*
X138766073Y-85476519D01*
X138754447Y-85485142D01*
X138742031Y-85492583D01*
X138728946Y-85498772D01*
X138715317Y-85503649D01*
X138701276Y-85507166D01*
X138686958Y-85509290D01*
X138672500Y-85510000D01*
X138327500Y-85510000D01*
X138313042Y-85509290D01*
X138298724Y-85507166D01*
X138284683Y-85503649D01*
X138271054Y-85498772D01*
X138257969Y-85492583D01*
X138245553Y-85485142D01*
X138233927Y-85476519D01*
X138223202Y-85466798D01*
X138213481Y-85456073D01*
X138204858Y-85444447D01*
X138197417Y-85432031D01*
X138191228Y-85418946D01*
X138186351Y-85405317D01*
X138182834Y-85391276D01*
X138180710Y-85376958D01*
X138180000Y-85362500D01*
X138180000Y-85067500D01*
X138180710Y-85053042D01*
X138182834Y-85038724D01*
X138186351Y-85024683D01*
X138191228Y-85011054D01*
X138197417Y-84997969D01*
X138204858Y-84985553D01*
X138213481Y-84973927D01*
X138223202Y-84963202D01*
X138233927Y-84953481D01*
X138245553Y-84944858D01*
X138257969Y-84937417D01*
X138271054Y-84931228D01*
X138284683Y-84926351D01*
X138298724Y-84922834D01*
X138313042Y-84920710D01*
X138327500Y-84920000D01*
X138672500Y-84920000D01*
X138686958Y-84920710D01*
X138686958Y-84920710D01*
G37*
D11*
G04 #@! TD*
G04 #@! TO.P,R1,1*
G04 #@! TO.N,GND*
X138500000Y-85215000D03*
D10*
G04 #@! TO.N,/E0*
G04 #@! TO.C,R1*
G36*
X167686958Y-73890710D02*
X167701276Y-73892834D01*
X167715317Y-73896351D01*
X167728946Y-73901228D01*
X167742031Y-73907417D01*
X167754447Y-73914858D01*
X167766073Y-73923481D01*
X167776798Y-73933202D01*
X167786519Y-73943927D01*
X167795142Y-73955553D01*
X167802583Y-73967969D01*
X167808772Y-73981054D01*
X167813649Y-73994683D01*
X167817166Y-74008724D01*
X167819290Y-74023042D01*
X167820000Y-74037500D01*
X167820000Y-74332500D01*
X167819290Y-74346958D01*
X167817166Y-74361276D01*
X167813649Y-74375317D01*
X167808772Y-74388946D01*
X167802583Y-74402031D01*
X167795142Y-74414447D01*
X167786519Y-74426073D01*
X167776798Y-74436798D01*
X167766073Y-74446519D01*
X167754447Y-74455142D01*
X167742031Y-74462583D01*
X167728946Y-74468772D01*
X167715317Y-74473649D01*
X167701276Y-74477166D01*
X167686958Y-74479290D01*
X167672500Y-74480000D01*
X167327500Y-74480000D01*
X167313042Y-74479290D01*
X167298724Y-74477166D01*
X167284683Y-74473649D01*
X167271054Y-74468772D01*
X167257969Y-74462583D01*
X167245553Y-74455142D01*
X167233927Y-74446519D01*
X167223202Y-74436798D01*
X167213481Y-74426073D01*
X167204858Y-74414447D01*
X167197417Y-74402031D01*
X167191228Y-74388946D01*
X167186351Y-74375317D01*
X167182834Y-74361276D01*
X167180710Y-74346958D01*
X167180000Y-74332500D01*
X167180000Y-74037500D01*
X167180710Y-74023042D01*
X167182834Y-74008724D01*
X167186351Y-73994683D01*
X167191228Y-73981054D01*
X167197417Y-73967969D01*
X167204858Y-73955553D01*
X167213481Y-73943927D01*
X167223202Y-73933202D01*
X167233927Y-73923481D01*
X167245553Y-73914858D01*
X167257969Y-73907417D01*
X167271054Y-73901228D01*
X167284683Y-73896351D01*
X167298724Y-73892834D01*
X167313042Y-73890710D01*
X167327500Y-73890000D01*
X167672500Y-73890000D01*
X167686958Y-73890710D01*
X167686958Y-73890710D01*
G37*
D11*
G04 #@! TD*
G04 #@! TO.P,R1,2*
G04 #@! TO.N,/E0*
X167500000Y-74185000D03*
D10*
G04 #@! TO.N,GND*
G04 #@! TO.C,R1*
G36*
X167686958Y-72920710D02*
X167701276Y-72922834D01*
X167715317Y-72926351D01*
X167728946Y-72931228D01*
X167742031Y-72937417D01*
X167754447Y-72944858D01*
X167766073Y-72953481D01*
X167776798Y-72963202D01*
X167786519Y-72973927D01*
X167795142Y-72985553D01*
X167802583Y-72997969D01*
X167808772Y-73011054D01*
X167813649Y-73024683D01*
X167817166Y-73038724D01*
X167819290Y-73053042D01*
X167820000Y-73067500D01*
X167820000Y-73362500D01*
X167819290Y-73376958D01*
X167817166Y-73391276D01*
X167813649Y-73405317D01*
X167808772Y-73418946D01*
X167802583Y-73432031D01*
X167795142Y-73444447D01*
X167786519Y-73456073D01*
X167776798Y-73466798D01*
X167766073Y-73476519D01*
X167754447Y-73485142D01*
X167742031Y-73492583D01*
X167728946Y-73498772D01*
X167715317Y-73503649D01*
X167701276Y-73507166D01*
X167686958Y-73509290D01*
X167672500Y-73510000D01*
X167327500Y-73510000D01*
X167313042Y-73509290D01*
X167298724Y-73507166D01*
X167284683Y-73503649D01*
X167271054Y-73498772D01*
X167257969Y-73492583D01*
X167245553Y-73485142D01*
X167233927Y-73476519D01*
X167223202Y-73466798D01*
X167213481Y-73456073D01*
X167204858Y-73444447D01*
X167197417Y-73432031D01*
X167191228Y-73418946D01*
X167186351Y-73405317D01*
X167182834Y-73391276D01*
X167180710Y-73376958D01*
X167180000Y-73362500D01*
X167180000Y-73067500D01*
X167180710Y-73053042D01*
X167182834Y-73038724D01*
X167186351Y-73024683D01*
X167191228Y-73011054D01*
X167197417Y-72997969D01*
X167204858Y-72985553D01*
X167213481Y-72973927D01*
X167223202Y-72963202D01*
X167233927Y-72953481D01*
X167245553Y-72944858D01*
X167257969Y-72937417D01*
X167271054Y-72931228D01*
X167284683Y-72926351D01*
X167298724Y-72922834D01*
X167313042Y-72920710D01*
X167327500Y-72920000D01*
X167672500Y-72920000D01*
X167686958Y-72920710D01*
X167686958Y-72920710D01*
G37*
D11*
G04 #@! TD*
G04 #@! TO.P,R1,1*
G04 #@! TO.N,GND*
X167500000Y-73215000D03*
D10*
G04 #@! TO.N,/E0*
G04 #@! TO.C,R1*
G36*
X153186958Y-73890710D02*
X153201276Y-73892834D01*
X153215317Y-73896351D01*
X153228946Y-73901228D01*
X153242031Y-73907417D01*
X153254447Y-73914858D01*
X153266073Y-73923481D01*
X153276798Y-73933202D01*
X153286519Y-73943927D01*
X153295142Y-73955553D01*
X153302583Y-73967969D01*
X153308772Y-73981054D01*
X153313649Y-73994683D01*
X153317166Y-74008724D01*
X153319290Y-74023042D01*
X153320000Y-74037500D01*
X153320000Y-74332500D01*
X153319290Y-74346958D01*
X153317166Y-74361276D01*
X153313649Y-74375317D01*
X153308772Y-74388946D01*
X153302583Y-74402031D01*
X153295142Y-74414447D01*
X153286519Y-74426073D01*
X153276798Y-74436798D01*
X153266073Y-74446519D01*
X153254447Y-74455142D01*
X153242031Y-74462583D01*
X153228946Y-74468772D01*
X153215317Y-74473649D01*
X153201276Y-74477166D01*
X153186958Y-74479290D01*
X153172500Y-74480000D01*
X152827500Y-74480000D01*
X152813042Y-74479290D01*
X152798724Y-74477166D01*
X152784683Y-74473649D01*
X152771054Y-74468772D01*
X152757969Y-74462583D01*
X152745553Y-74455142D01*
X152733927Y-74446519D01*
X152723202Y-74436798D01*
X152713481Y-74426073D01*
X152704858Y-74414447D01*
X152697417Y-74402031D01*
X152691228Y-74388946D01*
X152686351Y-74375317D01*
X152682834Y-74361276D01*
X152680710Y-74346958D01*
X152680000Y-74332500D01*
X152680000Y-74037500D01*
X152680710Y-74023042D01*
X152682834Y-74008724D01*
X152686351Y-73994683D01*
X152691228Y-73981054D01*
X152697417Y-73967969D01*
X152704858Y-73955553D01*
X152713481Y-73943927D01*
X152723202Y-73933202D01*
X152733927Y-73923481D01*
X152745553Y-73914858D01*
X152757969Y-73907417D01*
X152771054Y-73901228D01*
X152784683Y-73896351D01*
X152798724Y-73892834D01*
X152813042Y-73890710D01*
X152827500Y-73890000D01*
X153172500Y-73890000D01*
X153186958Y-73890710D01*
X153186958Y-73890710D01*
G37*
D11*
G04 #@! TD*
G04 #@! TO.P,R1,2*
G04 #@! TO.N,/E0*
X153000000Y-74185000D03*
D10*
G04 #@! TO.N,GND*
G04 #@! TO.C,R1*
G36*
X153186958Y-72920710D02*
X153201276Y-72922834D01*
X153215317Y-72926351D01*
X153228946Y-72931228D01*
X153242031Y-72937417D01*
X153254447Y-72944858D01*
X153266073Y-72953481D01*
X153276798Y-72963202D01*
X153286519Y-72973927D01*
X153295142Y-72985553D01*
X153302583Y-72997969D01*
X153308772Y-73011054D01*
X153313649Y-73024683D01*
X153317166Y-73038724D01*
X153319290Y-73053042D01*
X153320000Y-73067500D01*
X153320000Y-73362500D01*
X153319290Y-73376958D01*
X153317166Y-73391276D01*
X153313649Y-73405317D01*
X153308772Y-73418946D01*
X153302583Y-73432031D01*
X153295142Y-73444447D01*
X153286519Y-73456073D01*
X153276798Y-73466798D01*
X153266073Y-73476519D01*
X153254447Y-73485142D01*
X153242031Y-73492583D01*
X153228946Y-73498772D01*
X153215317Y-73503649D01*
X153201276Y-73507166D01*
X153186958Y-73509290D01*
X153172500Y-73510000D01*
X152827500Y-73510000D01*
X152813042Y-73509290D01*
X152798724Y-73507166D01*
X152784683Y-73503649D01*
X152771054Y-73498772D01*
X152757969Y-73492583D01*
X152745553Y-73485142D01*
X152733927Y-73476519D01*
X152723202Y-73466798D01*
X152713481Y-73456073D01*
X152704858Y-73444447D01*
X152697417Y-73432031D01*
X152691228Y-73418946D01*
X152686351Y-73405317D01*
X152682834Y-73391276D01*
X152680710Y-73376958D01*
X152680000Y-73362500D01*
X152680000Y-73067500D01*
X152680710Y-73053042D01*
X152682834Y-73038724D01*
X152686351Y-73024683D01*
X152691228Y-73011054D01*
X152697417Y-72997969D01*
X152704858Y-72985553D01*
X152713481Y-72973927D01*
X152723202Y-72963202D01*
X152733927Y-72953481D01*
X152745553Y-72944858D01*
X152757969Y-72937417D01*
X152771054Y-72931228D01*
X152784683Y-72926351D01*
X152798724Y-72922834D01*
X152813042Y-72920710D01*
X152827500Y-72920000D01*
X153172500Y-72920000D01*
X153186958Y-72920710D01*
X153186958Y-72920710D01*
G37*
D11*
G04 #@! TD*
G04 #@! TO.P,R1,1*
G04 #@! TO.N,GND*
X153000000Y-73215000D03*
D12*
G04 #@! TO.P,J2,5*
G04 #@! TO.N,Net-(J2-Pad5)*
X164300000Y-114050000D03*
G04 #@! TO.P,J2,6*
G04 #@! TO.N,GND*
X162900000Y-114050000D03*
G04 #@! TO.P,J2,4*
G04 #@! TO.N,/LED*
X165700000Y-114050000D03*
G04 #@! TO.P,J2,3*
G04 #@! TO.N,+3V3*
X165700000Y-109950000D03*
G04 #@! TO.P,J2,2*
G04 #@! TO.N,/E1*
X164300000Y-109950000D03*
G04 #@! TO.P,J2,1*
G04 #@! TO.N,/E0*
X162900000Y-109950000D03*
G04 #@! TD*
G04 #@! TO.P,J2,5*
G04 #@! TO.N,Net-(J2-Pad5)*
X149800000Y-114050000D03*
G04 #@! TO.P,J2,6*
G04 #@! TO.N,GND*
X148400000Y-114050000D03*
G04 #@! TO.P,J2,4*
G04 #@! TO.N,/LED*
X151200000Y-114050000D03*
G04 #@! TO.P,J2,3*
G04 #@! TO.N,+3V3*
X151200000Y-109950000D03*
G04 #@! TO.P,J2,2*
G04 #@! TO.N,/E1*
X149800000Y-109950000D03*
G04 #@! TO.P,J2,1*
G04 #@! TO.N,/E0*
X148400000Y-109950000D03*
G04 #@! TD*
G04 #@! TO.P,J2,5*
G04 #@! TO.N,Net-(J2-Pad5)*
X135300000Y-114050000D03*
G04 #@! TO.P,J2,6*
G04 #@! TO.N,GND*
X133900000Y-114050000D03*
G04 #@! TO.P,J2,4*
G04 #@! TO.N,/LED*
X136700000Y-114050000D03*
G04 #@! TO.P,J2,3*
G04 #@! TO.N,+3V3*
X136700000Y-109950000D03*
G04 #@! TO.P,J2,2*
G04 #@! TO.N,/E1*
X135300000Y-109950000D03*
G04 #@! TO.P,J2,1*
G04 #@! TO.N,/E0*
X133900000Y-109950000D03*
G04 #@! TD*
G04 #@! TO.P,J2,5*
G04 #@! TO.N,Net-(J2-Pad5)*
X164300000Y-102050000D03*
G04 #@! TO.P,J2,6*
G04 #@! TO.N,GND*
X162900000Y-102050000D03*
G04 #@! TO.P,J2,4*
G04 #@! TO.N,/LED*
X165700000Y-102050000D03*
G04 #@! TO.P,J2,3*
G04 #@! TO.N,+3V3*
X165700000Y-97950000D03*
G04 #@! TO.P,J2,2*
G04 #@! TO.N,/E1*
X164300000Y-97950000D03*
G04 #@! TO.P,J2,1*
G04 #@! TO.N,/E0*
X162900000Y-97950000D03*
G04 #@! TD*
G04 #@! TO.P,J2,5*
G04 #@! TO.N,Net-(J2-Pad5)*
X149800000Y-102050000D03*
G04 #@! TO.P,J2,6*
G04 #@! TO.N,GND*
X148400000Y-102050000D03*
G04 #@! TO.P,J2,4*
G04 #@! TO.N,/LED*
X151200000Y-102050000D03*
G04 #@! TO.P,J2,3*
G04 #@! TO.N,+3V3*
X151200000Y-97950000D03*
G04 #@! TO.P,J2,2*
G04 #@! TO.N,/E1*
X149800000Y-97950000D03*
G04 #@! TO.P,J2,1*
G04 #@! TO.N,/E0*
X148400000Y-97950000D03*
G04 #@! TD*
G04 #@! TO.P,J2,5*
G04 #@! TO.N,Net-(J2-Pad5)*
X135300000Y-102050000D03*
G04 #@! TO.P,J2,6*
G04 #@! TO.N,GND*
X133900000Y-102050000D03*
G04 #@! TO.P,J2,4*
G04 #@! TO.N,/LED*
X136700000Y-102050000D03*
G04 #@! TO.P,J2,3*
G04 #@! TO.N,+3V3*
X136700000Y-97950000D03*
G04 #@! TO.P,J2,2*
G04 #@! TO.N,/E1*
X135300000Y-97950000D03*
G04 #@! TO.P,J2,1*
G04 #@! TO.N,/E0*
X133900000Y-97950000D03*
G04 #@! TD*
G04 #@! TO.P,J2,5*
G04 #@! TO.N,Net-(J2-Pad5)*
X164300000Y-90050000D03*
G04 #@! TO.P,J2,6*
G04 #@! TO.N,GND*
X162900000Y-90050000D03*
G04 #@! TO.P,J2,4*
G04 #@! TO.N,/LED*
X165700000Y-90050000D03*
G04 #@! TO.P,J2,3*
G04 #@! TO.N,+3V3*
X165700000Y-85950000D03*
G04 #@! TO.P,J2,2*
G04 #@! TO.N,/E1*
X164300000Y-85950000D03*
G04 #@! TO.P,J2,1*
G04 #@! TO.N,/E0*
X162900000Y-85950000D03*
G04 #@! TD*
G04 #@! TO.P,J2,5*
G04 #@! TO.N,Net-(J2-Pad5)*
X149800000Y-90050000D03*
G04 #@! TO.P,J2,6*
G04 #@! TO.N,GND*
X148400000Y-90050000D03*
G04 #@! TO.P,J2,4*
G04 #@! TO.N,/LED*
X151200000Y-90050000D03*
G04 #@! TO.P,J2,3*
G04 #@! TO.N,+3V3*
X151200000Y-85950000D03*
G04 #@! TO.P,J2,2*
G04 #@! TO.N,/E1*
X149800000Y-85950000D03*
G04 #@! TO.P,J2,1*
G04 #@! TO.N,/E0*
X148400000Y-85950000D03*
G04 #@! TD*
G04 #@! TO.P,J2,5*
G04 #@! TO.N,Net-(J2-Pad5)*
X135300000Y-90050000D03*
G04 #@! TO.P,J2,6*
G04 #@! TO.N,GND*
X133900000Y-90050000D03*
G04 #@! TO.P,J2,4*
G04 #@! TO.N,/LED*
X136700000Y-90050000D03*
G04 #@! TO.P,J2,3*
G04 #@! TO.N,+3V3*
X136700000Y-85950000D03*
G04 #@! TO.P,J2,2*
G04 #@! TO.N,/E1*
X135300000Y-85950000D03*
G04 #@! TO.P,J2,1*
G04 #@! TO.N,/E0*
X133900000Y-85950000D03*
G04 #@! TD*
G04 #@! TO.P,J2,5*
G04 #@! TO.N,Net-(J2-Pad5)*
X164300000Y-78050000D03*
G04 #@! TO.P,J2,6*
G04 #@! TO.N,GND*
X162900000Y-78050000D03*
G04 #@! TO.P,J2,4*
G04 #@! TO.N,/LED*
X165700000Y-78050000D03*
G04 #@! TO.P,J2,3*
G04 #@! TO.N,+3V3*
X165700000Y-73950000D03*
G04 #@! TO.P,J2,2*
G04 #@! TO.N,/E1*
X164300000Y-73950000D03*
G04 #@! TO.P,J2,1*
G04 #@! TO.N,/E0*
X162900000Y-73950000D03*
G04 #@! TD*
G04 #@! TO.P,J2,5*
G04 #@! TO.N,Net-(J2-Pad5)*
X149800000Y-78050000D03*
G04 #@! TO.P,J2,6*
G04 #@! TO.N,GND*
X148400000Y-78050000D03*
G04 #@! TO.P,J2,4*
G04 #@! TO.N,/LED*
X151200000Y-78050000D03*
G04 #@! TO.P,J2,3*
G04 #@! TO.N,+3V3*
X151200000Y-73950000D03*
G04 #@! TO.P,J2,2*
G04 #@! TO.N,/E1*
X149800000Y-73950000D03*
G04 #@! TO.P,J2,1*
G04 #@! TO.N,/E0*
X148400000Y-73950000D03*
G04 #@! TD*
D13*
G04 #@! TO.P,J4,1*
G04 #@! TO.N,Net-(J4-Pad1)*
X169050000Y-114750000D03*
G04 #@! TO.P,J4,2*
G04 #@! TO.N,/E1*
X169050000Y-114100000D03*
G04 #@! TO.P,J4,3*
G04 #@! TO.N,GND*
X169050000Y-113450000D03*
G04 #@! TO.P,J4,4*
G04 #@! TO.N,/E1_filtered*
X170950000Y-113450000D03*
G04 #@! TO.P,J4,5*
G04 #@! TO.N,+3V3*
X170950000Y-114750000D03*
G04 #@! TD*
G04 #@! TO.P,J4,1*
G04 #@! TO.N,Net-(J4-Pad1)*
X154550000Y-114750000D03*
G04 #@! TO.P,J4,2*
G04 #@! TO.N,/E1*
X154550000Y-114100000D03*
G04 #@! TO.P,J4,3*
G04 #@! TO.N,GND*
X154550000Y-113450000D03*
G04 #@! TO.P,J4,4*
G04 #@! TO.N,/E1_filtered*
X156450000Y-113450000D03*
G04 #@! TO.P,J4,5*
G04 #@! TO.N,+3V3*
X156450000Y-114750000D03*
G04 #@! TD*
G04 #@! TO.P,J4,1*
G04 #@! TO.N,Net-(J4-Pad1)*
X140050000Y-114750000D03*
G04 #@! TO.P,J4,2*
G04 #@! TO.N,/E1*
X140050000Y-114100000D03*
G04 #@! TO.P,J4,3*
G04 #@! TO.N,GND*
X140050000Y-113450000D03*
G04 #@! TO.P,J4,4*
G04 #@! TO.N,/E1_filtered*
X141950000Y-113450000D03*
G04 #@! TO.P,J4,5*
G04 #@! TO.N,+3V3*
X141950000Y-114750000D03*
G04 #@! TD*
G04 #@! TO.P,J4,1*
G04 #@! TO.N,Net-(J4-Pad1)*
X169050000Y-102750000D03*
G04 #@! TO.P,J4,2*
G04 #@! TO.N,/E1*
X169050000Y-102100000D03*
G04 #@! TO.P,J4,3*
G04 #@! TO.N,GND*
X169050000Y-101450000D03*
G04 #@! TO.P,J4,4*
G04 #@! TO.N,/E1_filtered*
X170950000Y-101450000D03*
G04 #@! TO.P,J4,5*
G04 #@! TO.N,+3V3*
X170950000Y-102750000D03*
G04 #@! TD*
G04 #@! TO.P,J4,1*
G04 #@! TO.N,Net-(J4-Pad1)*
X154550000Y-102750000D03*
G04 #@! TO.P,J4,2*
G04 #@! TO.N,/E1*
X154550000Y-102100000D03*
G04 #@! TO.P,J4,3*
G04 #@! TO.N,GND*
X154550000Y-101450000D03*
G04 #@! TO.P,J4,4*
G04 #@! TO.N,/E1_filtered*
X156450000Y-101450000D03*
G04 #@! TO.P,J4,5*
G04 #@! TO.N,+3V3*
X156450000Y-102750000D03*
G04 #@! TD*
G04 #@! TO.P,J4,1*
G04 #@! TO.N,Net-(J4-Pad1)*
X140050000Y-102750000D03*
G04 #@! TO.P,J4,2*
G04 #@! TO.N,/E1*
X140050000Y-102100000D03*
G04 #@! TO.P,J4,3*
G04 #@! TO.N,GND*
X140050000Y-101450000D03*
G04 #@! TO.P,J4,4*
G04 #@! TO.N,/E1_filtered*
X141950000Y-101450000D03*
G04 #@! TO.P,J4,5*
G04 #@! TO.N,+3V3*
X141950000Y-102750000D03*
G04 #@! TD*
G04 #@! TO.P,J4,1*
G04 #@! TO.N,Net-(J4-Pad1)*
X169050000Y-90750000D03*
G04 #@! TO.P,J4,2*
G04 #@! TO.N,/E1*
X169050000Y-90100000D03*
G04 #@! TO.P,J4,3*
G04 #@! TO.N,GND*
X169050000Y-89450000D03*
G04 #@! TO.P,J4,4*
G04 #@! TO.N,/E1_filtered*
X170950000Y-89450000D03*
G04 #@! TO.P,J4,5*
G04 #@! TO.N,+3V3*
X170950000Y-90750000D03*
G04 #@! TD*
G04 #@! TO.P,J4,1*
G04 #@! TO.N,Net-(J4-Pad1)*
X154550000Y-90750000D03*
G04 #@! TO.P,J4,2*
G04 #@! TO.N,/E1*
X154550000Y-90100000D03*
G04 #@! TO.P,J4,3*
G04 #@! TO.N,GND*
X154550000Y-89450000D03*
G04 #@! TO.P,J4,4*
G04 #@! TO.N,/E1_filtered*
X156450000Y-89450000D03*
G04 #@! TO.P,J4,5*
G04 #@! TO.N,+3V3*
X156450000Y-90750000D03*
G04 #@! TD*
G04 #@! TO.P,J4,1*
G04 #@! TO.N,Net-(J4-Pad1)*
X140050000Y-90750000D03*
G04 #@! TO.P,J4,2*
G04 #@! TO.N,/E1*
X140050000Y-90100000D03*
G04 #@! TO.P,J4,3*
G04 #@! TO.N,GND*
X140050000Y-89450000D03*
G04 #@! TO.P,J4,4*
G04 #@! TO.N,/E1_filtered*
X141950000Y-89450000D03*
G04 #@! TO.P,J4,5*
G04 #@! TO.N,+3V3*
X141950000Y-90750000D03*
G04 #@! TD*
G04 #@! TO.P,J4,1*
G04 #@! TO.N,Net-(J4-Pad1)*
X169050000Y-78750000D03*
G04 #@! TO.P,J4,2*
G04 #@! TO.N,/E1*
X169050000Y-78100000D03*
G04 #@! TO.P,J4,3*
G04 #@! TO.N,GND*
X169050000Y-77450000D03*
G04 #@! TO.P,J4,4*
G04 #@! TO.N,/E1_filtered*
X170950000Y-77450000D03*
G04 #@! TO.P,J4,5*
G04 #@! TO.N,+3V3*
X170950000Y-78750000D03*
G04 #@! TD*
G04 #@! TO.P,J4,1*
G04 #@! TO.N,Net-(J4-Pad1)*
X154550000Y-78750000D03*
G04 #@! TO.P,J4,2*
G04 #@! TO.N,/E1*
X154550000Y-78100000D03*
G04 #@! TO.P,J4,3*
G04 #@! TO.N,GND*
X154550000Y-77450000D03*
G04 #@! TO.P,J4,4*
G04 #@! TO.N,/E1_filtered*
X156450000Y-77450000D03*
G04 #@! TO.P,J4,5*
G04 #@! TO.N,+3V3*
X156450000Y-78750000D03*
G04 #@! TD*
G04 #@! TO.P,J3,5*
G04 #@! TO.N,+3V3*
X170850000Y-110450000D03*
G04 #@! TO.P,J3,4*
G04 #@! TO.N,/E0_filtered*
X170850000Y-109150000D03*
G04 #@! TO.P,J3,3*
G04 #@! TO.N,GND*
X168950000Y-109150000D03*
G04 #@! TO.P,J3,2*
G04 #@! TO.N,/E0*
X168950000Y-109800000D03*
G04 #@! TO.P,J3,1*
G04 #@! TO.N,Net-(J3-Pad1)*
X168950000Y-110450000D03*
G04 #@! TD*
G04 #@! TO.P,J3,5*
G04 #@! TO.N,+3V3*
X156350000Y-110450000D03*
G04 #@! TO.P,J3,4*
G04 #@! TO.N,/E0_filtered*
X156350000Y-109150000D03*
G04 #@! TO.P,J3,3*
G04 #@! TO.N,GND*
X154450000Y-109150000D03*
G04 #@! TO.P,J3,2*
G04 #@! TO.N,/E0*
X154450000Y-109800000D03*
G04 #@! TO.P,J3,1*
G04 #@! TO.N,Net-(J3-Pad1)*
X154450000Y-110450000D03*
G04 #@! TD*
G04 #@! TO.P,J3,5*
G04 #@! TO.N,+3V3*
X141850000Y-110450000D03*
G04 #@! TO.P,J3,4*
G04 #@! TO.N,/E0_filtered*
X141850000Y-109150000D03*
G04 #@! TO.P,J3,3*
G04 #@! TO.N,GND*
X139950000Y-109150000D03*
G04 #@! TO.P,J3,2*
G04 #@! TO.N,/E0*
X139950000Y-109800000D03*
G04 #@! TO.P,J3,1*
G04 #@! TO.N,Net-(J3-Pad1)*
X139950000Y-110450000D03*
G04 #@! TD*
G04 #@! TO.P,J3,5*
G04 #@! TO.N,+3V3*
X170850000Y-98450000D03*
G04 #@! TO.P,J3,4*
G04 #@! TO.N,/E0_filtered*
X170850000Y-97150000D03*
G04 #@! TO.P,J3,3*
G04 #@! TO.N,GND*
X168950000Y-97150000D03*
G04 #@! TO.P,J3,2*
G04 #@! TO.N,/E0*
X168950000Y-97800000D03*
G04 #@! TO.P,J3,1*
G04 #@! TO.N,Net-(J3-Pad1)*
X168950000Y-98450000D03*
G04 #@! TD*
G04 #@! TO.P,J3,5*
G04 #@! TO.N,+3V3*
X156350000Y-98450000D03*
G04 #@! TO.P,J3,4*
G04 #@! TO.N,/E0_filtered*
X156350000Y-97150000D03*
G04 #@! TO.P,J3,3*
G04 #@! TO.N,GND*
X154450000Y-97150000D03*
G04 #@! TO.P,J3,2*
G04 #@! TO.N,/E0*
X154450000Y-97800000D03*
G04 #@! TO.P,J3,1*
G04 #@! TO.N,Net-(J3-Pad1)*
X154450000Y-98450000D03*
G04 #@! TD*
G04 #@! TO.P,J3,5*
G04 #@! TO.N,+3V3*
X141850000Y-98450000D03*
G04 #@! TO.P,J3,4*
G04 #@! TO.N,/E0_filtered*
X141850000Y-97150000D03*
G04 #@! TO.P,J3,3*
G04 #@! TO.N,GND*
X139950000Y-97150000D03*
G04 #@! TO.P,J3,2*
G04 #@! TO.N,/E0*
X139950000Y-97800000D03*
G04 #@! TO.P,J3,1*
G04 #@! TO.N,Net-(J3-Pad1)*
X139950000Y-98450000D03*
G04 #@! TD*
G04 #@! TO.P,J3,5*
G04 #@! TO.N,+3V3*
X170850000Y-86450000D03*
G04 #@! TO.P,J3,4*
G04 #@! TO.N,/E0_filtered*
X170850000Y-85150000D03*
G04 #@! TO.P,J3,3*
G04 #@! TO.N,GND*
X168950000Y-85150000D03*
G04 #@! TO.P,J3,2*
G04 #@! TO.N,/E0*
X168950000Y-85800000D03*
G04 #@! TO.P,J3,1*
G04 #@! TO.N,Net-(J3-Pad1)*
X168950000Y-86450000D03*
G04 #@! TD*
G04 #@! TO.P,J3,5*
G04 #@! TO.N,+3V3*
X156350000Y-86450000D03*
G04 #@! TO.P,J3,4*
G04 #@! TO.N,/E0_filtered*
X156350000Y-85150000D03*
G04 #@! TO.P,J3,3*
G04 #@! TO.N,GND*
X154450000Y-85150000D03*
G04 #@! TO.P,J3,2*
G04 #@! TO.N,/E0*
X154450000Y-85800000D03*
G04 #@! TO.P,J3,1*
G04 #@! TO.N,Net-(J3-Pad1)*
X154450000Y-86450000D03*
G04 #@! TD*
G04 #@! TO.P,J3,5*
G04 #@! TO.N,+3V3*
X141850000Y-86450000D03*
G04 #@! TO.P,J3,4*
G04 #@! TO.N,/E0_filtered*
X141850000Y-85150000D03*
G04 #@! TO.P,J3,3*
G04 #@! TO.N,GND*
X139950000Y-85150000D03*
G04 #@! TO.P,J3,2*
G04 #@! TO.N,/E0*
X139950000Y-85800000D03*
G04 #@! TO.P,J3,1*
G04 #@! TO.N,Net-(J3-Pad1)*
X139950000Y-86450000D03*
G04 #@! TD*
G04 #@! TO.P,J3,5*
G04 #@! TO.N,+3V3*
X170850000Y-74450000D03*
G04 #@! TO.P,J3,4*
G04 #@! TO.N,/E0_filtered*
X170850000Y-73150000D03*
G04 #@! TO.P,J3,3*
G04 #@! TO.N,GND*
X168950000Y-73150000D03*
G04 #@! TO.P,J3,2*
G04 #@! TO.N,/E0*
X168950000Y-73800000D03*
G04 #@! TO.P,J3,1*
G04 #@! TO.N,Net-(J3-Pad1)*
X168950000Y-74450000D03*
G04 #@! TD*
G04 #@! TO.P,J3,5*
G04 #@! TO.N,+3V3*
X156350000Y-74450000D03*
G04 #@! TO.P,J3,4*
G04 #@! TO.N,/E0_filtered*
X156350000Y-73150000D03*
G04 #@! TO.P,J3,3*
G04 #@! TO.N,GND*
X154450000Y-73150000D03*
G04 #@! TO.P,J3,2*
G04 #@! TO.N,/E0*
X154450000Y-73800000D03*
G04 #@! TO.P,J3,1*
G04 #@! TO.N,Net-(J3-Pad1)*
X154450000Y-74450000D03*
G04 #@! TD*
D12*
G04 #@! TO.P,J2,1*
G04 #@! TO.N,/E0*
X133900000Y-73950000D03*
G04 #@! TO.P,J2,2*
G04 #@! TO.N,/E1*
X135300000Y-73950000D03*
G04 #@! TO.P,J2,3*
G04 #@! TO.N,+3V3*
X136700000Y-73950000D03*
G04 #@! TO.P,J2,4*
G04 #@! TO.N,/LED*
X136700000Y-78050000D03*
G04 #@! TO.P,J2,6*
G04 #@! TO.N,GND*
X133900000Y-78050000D03*
G04 #@! TO.P,J2,5*
G04 #@! TO.N,Net-(J2-Pad5)*
X135300000Y-78050000D03*
G04 #@! TD*
D13*
G04 #@! TO.P,J3,1*
G04 #@! TO.N,Net-(J3-Pad1)*
X139950000Y-74450000D03*
G04 #@! TO.P,J3,2*
G04 #@! TO.N,/E0*
X139950000Y-73800000D03*
G04 #@! TO.P,J3,3*
G04 #@! TO.N,GND*
X139950000Y-73150000D03*
G04 #@! TO.P,J3,4*
G04 #@! TO.N,/E0_filtered*
X141850000Y-73150000D03*
G04 #@! TO.P,J3,5*
G04 #@! TO.N,+3V3*
X141850000Y-74450000D03*
G04 #@! TD*
G04 #@! TO.P,J4,5*
G04 #@! TO.N,+3V3*
X141950000Y-78750000D03*
G04 #@! TO.P,J4,4*
G04 #@! TO.N,/E1_filtered*
X141950000Y-77450000D03*
G04 #@! TO.P,J4,3*
G04 #@! TO.N,GND*
X140050000Y-77450000D03*
G04 #@! TO.P,J4,2*
G04 #@! TO.N,/E1*
X140050000Y-78100000D03*
G04 #@! TO.P,J4,1*
G04 #@! TO.N,Net-(J4-Pad1)*
X140050000Y-78750000D03*
G04 #@! TD*
D10*
G04 #@! TO.N,GND*
G04 #@! TO.C,R1*
G36*
X138686958Y-72920710D02*
X138701276Y-72922834D01*
X138715317Y-72926351D01*
X138728946Y-72931228D01*
X138742031Y-72937417D01*
X138754447Y-72944858D01*
X138766073Y-72953481D01*
X138776798Y-72963202D01*
X138786519Y-72973927D01*
X138795142Y-72985553D01*
X138802583Y-72997969D01*
X138808772Y-73011054D01*
X138813649Y-73024683D01*
X138817166Y-73038724D01*
X138819290Y-73053042D01*
X138820000Y-73067500D01*
X138820000Y-73362500D01*
X138819290Y-73376958D01*
X138817166Y-73391276D01*
X138813649Y-73405317D01*
X138808772Y-73418946D01*
X138802583Y-73432031D01*
X138795142Y-73444447D01*
X138786519Y-73456073D01*
X138776798Y-73466798D01*
X138766073Y-73476519D01*
X138754447Y-73485142D01*
X138742031Y-73492583D01*
X138728946Y-73498772D01*
X138715317Y-73503649D01*
X138701276Y-73507166D01*
X138686958Y-73509290D01*
X138672500Y-73510000D01*
X138327500Y-73510000D01*
X138313042Y-73509290D01*
X138298724Y-73507166D01*
X138284683Y-73503649D01*
X138271054Y-73498772D01*
X138257969Y-73492583D01*
X138245553Y-73485142D01*
X138233927Y-73476519D01*
X138223202Y-73466798D01*
X138213481Y-73456073D01*
X138204858Y-73444447D01*
X138197417Y-73432031D01*
X138191228Y-73418946D01*
X138186351Y-73405317D01*
X138182834Y-73391276D01*
X138180710Y-73376958D01*
X138180000Y-73362500D01*
X138180000Y-73067500D01*
X138180710Y-73053042D01*
X138182834Y-73038724D01*
X138186351Y-73024683D01*
X138191228Y-73011054D01*
X138197417Y-72997969D01*
X138204858Y-72985553D01*
X138213481Y-72973927D01*
X138223202Y-72963202D01*
X138233927Y-72953481D01*
X138245553Y-72944858D01*
X138257969Y-72937417D01*
X138271054Y-72931228D01*
X138284683Y-72926351D01*
X138298724Y-72922834D01*
X138313042Y-72920710D01*
X138327500Y-72920000D01*
X138672500Y-72920000D01*
X138686958Y-72920710D01*
X138686958Y-72920710D01*
G37*
D11*
G04 #@! TD*
G04 #@! TO.P,R1,1*
G04 #@! TO.N,GND*
X138500000Y-73215000D03*
D10*
G04 #@! TO.N,/E0*
G04 #@! TO.C,R1*
G36*
X138686958Y-73890710D02*
X138701276Y-73892834D01*
X138715317Y-73896351D01*
X138728946Y-73901228D01*
X138742031Y-73907417D01*
X138754447Y-73914858D01*
X138766073Y-73923481D01*
X138776798Y-73933202D01*
X138786519Y-73943927D01*
X138795142Y-73955553D01*
X138802583Y-73967969D01*
X138808772Y-73981054D01*
X138813649Y-73994683D01*
X138817166Y-74008724D01*
X138819290Y-74023042D01*
X138820000Y-74037500D01*
X138820000Y-74332500D01*
X138819290Y-74346958D01*
X138817166Y-74361276D01*
X138813649Y-74375317D01*
X138808772Y-74388946D01*
X138802583Y-74402031D01*
X138795142Y-74414447D01*
X138786519Y-74426073D01*
X138776798Y-74436798D01*
X138766073Y-74446519D01*
X138754447Y-74455142D01*
X138742031Y-74462583D01*
X138728946Y-74468772D01*
X138715317Y-74473649D01*
X138701276Y-74477166D01*
X138686958Y-74479290D01*
X138672500Y-74480000D01*
X138327500Y-74480000D01*
X138313042Y-74479290D01*
X138298724Y-74477166D01*
X138284683Y-74473649D01*
X138271054Y-74468772D01*
X138257969Y-74462583D01*
X138245553Y-74455142D01*
X138233927Y-74446519D01*
X138223202Y-74436798D01*
X138213481Y-74426073D01*
X138204858Y-74414447D01*
X138197417Y-74402031D01*
X138191228Y-74388946D01*
X138186351Y-74375317D01*
X138182834Y-74361276D01*
X138180710Y-74346958D01*
X138180000Y-74332500D01*
X138180000Y-74037500D01*
X138180710Y-74023042D01*
X138182834Y-74008724D01*
X138186351Y-73994683D01*
X138191228Y-73981054D01*
X138197417Y-73967969D01*
X138204858Y-73955553D01*
X138213481Y-73943927D01*
X138223202Y-73933202D01*
X138233927Y-73923481D01*
X138245553Y-73914858D01*
X138257969Y-73907417D01*
X138271054Y-73901228D01*
X138284683Y-73896351D01*
X138298724Y-73892834D01*
X138313042Y-73890710D01*
X138327500Y-73890000D01*
X138672500Y-73890000D01*
X138686958Y-73890710D01*
X138686958Y-73890710D01*
G37*
D11*
G04 #@! TD*
G04 #@! TO.P,R1,2*
G04 #@! TO.N,/E0*
X138500000Y-74185000D03*
D10*
G04 #@! TO.N,/E1*
G04 #@! TO.C,R2*
G36*
X138686958Y-78290710D02*
X138701276Y-78292834D01*
X138715317Y-78296351D01*
X138728946Y-78301228D01*
X138742031Y-78307417D01*
X138754447Y-78314858D01*
X138766073Y-78323481D01*
X138776798Y-78333202D01*
X138786519Y-78343927D01*
X138795142Y-78355553D01*
X138802583Y-78367969D01*
X138808772Y-78381054D01*
X138813649Y-78394683D01*
X138817166Y-78408724D01*
X138819290Y-78423042D01*
X138820000Y-78437500D01*
X138820000Y-78732500D01*
X138819290Y-78746958D01*
X138817166Y-78761276D01*
X138813649Y-78775317D01*
X138808772Y-78788946D01*
X138802583Y-78802031D01*
X138795142Y-78814447D01*
X138786519Y-78826073D01*
X138776798Y-78836798D01*
X138766073Y-78846519D01*
X138754447Y-78855142D01*
X138742031Y-78862583D01*
X138728946Y-78868772D01*
X138715317Y-78873649D01*
X138701276Y-78877166D01*
X138686958Y-78879290D01*
X138672500Y-78880000D01*
X138327500Y-78880000D01*
X138313042Y-78879290D01*
X138298724Y-78877166D01*
X138284683Y-78873649D01*
X138271054Y-78868772D01*
X138257969Y-78862583D01*
X138245553Y-78855142D01*
X138233927Y-78846519D01*
X138223202Y-78836798D01*
X138213481Y-78826073D01*
X138204858Y-78814447D01*
X138197417Y-78802031D01*
X138191228Y-78788946D01*
X138186351Y-78775317D01*
X138182834Y-78761276D01*
X138180710Y-78746958D01*
X138180000Y-78732500D01*
X138180000Y-78437500D01*
X138180710Y-78423042D01*
X138182834Y-78408724D01*
X138186351Y-78394683D01*
X138191228Y-78381054D01*
X138197417Y-78367969D01*
X138204858Y-78355553D01*
X138213481Y-78343927D01*
X138223202Y-78333202D01*
X138233927Y-78323481D01*
X138245553Y-78314858D01*
X138257969Y-78307417D01*
X138271054Y-78301228D01*
X138284683Y-78296351D01*
X138298724Y-78292834D01*
X138313042Y-78290710D01*
X138327500Y-78290000D01*
X138672500Y-78290000D01*
X138686958Y-78290710D01*
X138686958Y-78290710D01*
G37*
D11*
G04 #@! TD*
G04 #@! TO.P,R2,2*
G04 #@! TO.N,/E1*
X138500000Y-78585000D03*
D10*
G04 #@! TO.N,GND*
G04 #@! TO.C,R2*
G36*
X138686958Y-77320710D02*
X138701276Y-77322834D01*
X138715317Y-77326351D01*
X138728946Y-77331228D01*
X138742031Y-77337417D01*
X138754447Y-77344858D01*
X138766073Y-77353481D01*
X138776798Y-77363202D01*
X138786519Y-77373927D01*
X138795142Y-77385553D01*
X138802583Y-77397969D01*
X138808772Y-77411054D01*
X138813649Y-77424683D01*
X138817166Y-77438724D01*
X138819290Y-77453042D01*
X138820000Y-77467500D01*
X138820000Y-77762500D01*
X138819290Y-77776958D01*
X138817166Y-77791276D01*
X138813649Y-77805317D01*
X138808772Y-77818946D01*
X138802583Y-77832031D01*
X138795142Y-77844447D01*
X138786519Y-77856073D01*
X138776798Y-77866798D01*
X138766073Y-77876519D01*
X138754447Y-77885142D01*
X138742031Y-77892583D01*
X138728946Y-77898772D01*
X138715317Y-77903649D01*
X138701276Y-77907166D01*
X138686958Y-77909290D01*
X138672500Y-77910000D01*
X138327500Y-77910000D01*
X138313042Y-77909290D01*
X138298724Y-77907166D01*
X138284683Y-77903649D01*
X138271054Y-77898772D01*
X138257969Y-77892583D01*
X138245553Y-77885142D01*
X138233927Y-77876519D01*
X138223202Y-77866798D01*
X138213481Y-77856073D01*
X138204858Y-77844447D01*
X138197417Y-77832031D01*
X138191228Y-77818946D01*
X138186351Y-77805317D01*
X138182834Y-77791276D01*
X138180710Y-77776958D01*
X138180000Y-77762500D01*
X138180000Y-77467500D01*
X138180710Y-77453042D01*
X138182834Y-77438724D01*
X138186351Y-77424683D01*
X138191228Y-77411054D01*
X138197417Y-77397969D01*
X138204858Y-77385553D01*
X138213481Y-77373927D01*
X138223202Y-77363202D01*
X138233927Y-77353481D01*
X138245553Y-77344858D01*
X138257969Y-77337417D01*
X138271054Y-77331228D01*
X138284683Y-77326351D01*
X138298724Y-77322834D01*
X138313042Y-77320710D01*
X138327500Y-77320000D01*
X138672500Y-77320000D01*
X138686958Y-77320710D01*
X138686958Y-77320710D01*
G37*
D11*
G04 #@! TD*
G04 #@! TO.P,R2,1*
G04 #@! TO.N,GND*
X138500000Y-77615000D03*
D14*
G04 #@! TO.N,GND*
X133900000Y-77550000D03*
X142625000Y-75500000D03*
X140600000Y-76400000D03*
X148400000Y-77550000D03*
X162900000Y-77550000D03*
X133900000Y-89550000D03*
X148400000Y-89550000D03*
X162900000Y-89550000D03*
X133900000Y-101550000D03*
X148400000Y-101550000D03*
X162900000Y-101550000D03*
X133900000Y-113550000D03*
X148400000Y-113550000D03*
X162900000Y-113550000D03*
X157125000Y-75500000D03*
X171625000Y-75500000D03*
X142625000Y-87500000D03*
X157125000Y-87500000D03*
X171625000Y-87500000D03*
X142625000Y-99500000D03*
X157125000Y-99500000D03*
X171625000Y-99500000D03*
X142625000Y-111500000D03*
X157125000Y-111500000D03*
X171625000Y-111500000D03*
X155100000Y-76400000D03*
X169600000Y-76400000D03*
X140600000Y-88400000D03*
X155100000Y-88400000D03*
X169600000Y-88400000D03*
X140600000Y-100400000D03*
X155100000Y-100400000D03*
X169600000Y-100400000D03*
X140600000Y-112400000D03*
X155100000Y-112400000D03*
X169600000Y-112400000D03*
G04 #@! TO.N,/LED*
X136700000Y-77550000D03*
X151200000Y-77550000D03*
X165700000Y-77550000D03*
X136700000Y-89550000D03*
X151200000Y-89550000D03*
X165700000Y-89550000D03*
X136700000Y-101550000D03*
X151200000Y-101550000D03*
X165700000Y-101550000D03*
X136700000Y-113550000D03*
X151200000Y-113550000D03*
X165700000Y-113550000D03*
G04 #@! TO.N,+3V3*
X141100000Y-75300000D03*
X136700000Y-74450000D03*
X155600000Y-75300000D03*
X170100000Y-75300000D03*
X141100000Y-87300000D03*
X155600000Y-87300000D03*
X170100000Y-87300000D03*
X141100000Y-99300000D03*
X155600000Y-99300000D03*
X170100000Y-99300000D03*
X141100000Y-111300000D03*
X155600000Y-111300000D03*
X170100000Y-111300000D03*
X151200000Y-74450000D03*
X165700000Y-74450000D03*
X136700000Y-86450000D03*
X151200000Y-86450000D03*
X165700000Y-86450000D03*
X136700000Y-98450000D03*
X151200000Y-98450000D03*
X165700000Y-98450000D03*
X136700000Y-110450000D03*
X151200000Y-110450000D03*
X165700000Y-110450000D03*
G04 #@! TO.N,/E0_filtered*
X141000000Y-73700000D03*
X155500000Y-73700000D03*
X170000000Y-73700000D03*
X141000000Y-85700000D03*
X155500000Y-85700000D03*
X170000000Y-85700000D03*
X141000000Y-97700000D03*
X155500000Y-97700000D03*
X170000000Y-97700000D03*
X141000000Y-109700000D03*
X155500000Y-109700000D03*
X170000000Y-109700000D03*
G04 #@! TO.N,/E1_filtered*
X141100000Y-78100000D03*
X155600000Y-78100000D03*
X170100000Y-78100000D03*
X141100000Y-90100000D03*
X155600000Y-90100000D03*
X170100000Y-90100000D03*
X141100000Y-102100000D03*
X155600000Y-102100000D03*
X170100000Y-102100000D03*
X141100000Y-114100000D03*
X155600000Y-114100000D03*
X170100000Y-114100000D03*
G04 #@! TD*
D15*
G04 #@! TO.N,GND*
X142625000Y-72789998D02*
X142625000Y-75500000D01*
X142460001Y-72624999D02*
X142625000Y-72789998D01*
X140625001Y-72624999D02*
X142460001Y-72624999D01*
X139950000Y-73150000D02*
X140100000Y-73150000D01*
X140100000Y-73150000D02*
X140625001Y-72624999D01*
X140600000Y-76900000D02*
X140050000Y-77450000D01*
X140600000Y-76400000D02*
X140600000Y-76900000D01*
X138665000Y-77450000D02*
X138500000Y-77615000D01*
X140050000Y-77450000D02*
X138665000Y-77450000D01*
X139885000Y-73215000D02*
X139950000Y-73150000D01*
X138500000Y-73215000D02*
X139885000Y-73215000D01*
X153165000Y-77450000D02*
X153000000Y-77615000D01*
X167665000Y-77450000D02*
X167500000Y-77615000D01*
X138665000Y-89450000D02*
X138500000Y-89615000D01*
X153165000Y-89450000D02*
X153000000Y-89615000D01*
X167665000Y-89450000D02*
X167500000Y-89615000D01*
X138665000Y-101450000D02*
X138500000Y-101615000D01*
X153165000Y-101450000D02*
X153000000Y-101615000D01*
X167665000Y-101450000D02*
X167500000Y-101615000D01*
X138665000Y-113450000D02*
X138500000Y-113615000D01*
X153165000Y-113450000D02*
X153000000Y-113615000D01*
X167665000Y-113450000D02*
X167500000Y-113615000D01*
X154385000Y-73215000D02*
X154450000Y-73150000D01*
X168885000Y-73215000D02*
X168950000Y-73150000D01*
X139885000Y-85215000D02*
X139950000Y-85150000D01*
X154385000Y-85215000D02*
X154450000Y-85150000D01*
X168885000Y-85215000D02*
X168950000Y-85150000D01*
X139885000Y-97215000D02*
X139950000Y-97150000D01*
X154385000Y-97215000D02*
X154450000Y-97150000D01*
X168885000Y-97215000D02*
X168950000Y-97150000D01*
X139885000Y-109215000D02*
X139950000Y-109150000D01*
X154385000Y-109215000D02*
X154450000Y-109150000D01*
X168885000Y-109215000D02*
X168950000Y-109150000D01*
X157125000Y-72789998D02*
X157125000Y-75500000D01*
X171625000Y-72789998D02*
X171625000Y-75500000D01*
X142625000Y-84789998D02*
X142625000Y-87500000D01*
X157125000Y-84789998D02*
X157125000Y-87500000D01*
X171625000Y-84789998D02*
X171625000Y-87500000D01*
X142625000Y-96789998D02*
X142625000Y-99500000D01*
X157125000Y-96789998D02*
X157125000Y-99500000D01*
X171625000Y-96789998D02*
X171625000Y-99500000D01*
X142625000Y-108789998D02*
X142625000Y-111500000D01*
X157125000Y-108789998D02*
X157125000Y-111500000D01*
X171625000Y-108789998D02*
X171625000Y-111500000D01*
X156960001Y-72624999D02*
X157125000Y-72789998D01*
X171460001Y-72624999D02*
X171625000Y-72789998D01*
X142460001Y-84624999D02*
X142625000Y-84789998D01*
X156960001Y-84624999D02*
X157125000Y-84789998D01*
X171460001Y-84624999D02*
X171625000Y-84789998D01*
X142460001Y-96624999D02*
X142625000Y-96789998D01*
X156960001Y-96624999D02*
X157125000Y-96789998D01*
X171460001Y-96624999D02*
X171625000Y-96789998D01*
X142460001Y-108624999D02*
X142625000Y-108789998D01*
X156960001Y-108624999D02*
X157125000Y-108789998D01*
X171460001Y-108624999D02*
X171625000Y-108789998D01*
X155125001Y-72624999D02*
X156960001Y-72624999D01*
X169625001Y-72624999D02*
X171460001Y-72624999D01*
X140625001Y-84624999D02*
X142460001Y-84624999D01*
X155125001Y-84624999D02*
X156960001Y-84624999D01*
X169625001Y-84624999D02*
X171460001Y-84624999D01*
X140625001Y-96624999D02*
X142460001Y-96624999D01*
X155125001Y-96624999D02*
X156960001Y-96624999D01*
X169625001Y-96624999D02*
X171460001Y-96624999D01*
X140625001Y-108624999D02*
X142460001Y-108624999D01*
X155125001Y-108624999D02*
X156960001Y-108624999D01*
X169625001Y-108624999D02*
X171460001Y-108624999D01*
X154450000Y-73150000D02*
X154600000Y-73150000D01*
X168950000Y-73150000D02*
X169100000Y-73150000D01*
X139950000Y-85150000D02*
X140100000Y-85150000D01*
X154450000Y-85150000D02*
X154600000Y-85150000D01*
X168950000Y-85150000D02*
X169100000Y-85150000D01*
X139950000Y-97150000D02*
X140100000Y-97150000D01*
X154450000Y-97150000D02*
X154600000Y-97150000D01*
X168950000Y-97150000D02*
X169100000Y-97150000D01*
X139950000Y-109150000D02*
X140100000Y-109150000D01*
X154450000Y-109150000D02*
X154600000Y-109150000D01*
X168950000Y-109150000D02*
X169100000Y-109150000D01*
X154600000Y-73150000D02*
X155125001Y-72624999D01*
X169100000Y-73150000D02*
X169625001Y-72624999D01*
X140100000Y-85150000D02*
X140625001Y-84624999D01*
X154600000Y-85150000D02*
X155125001Y-84624999D01*
X169100000Y-85150000D02*
X169625001Y-84624999D01*
X140100000Y-97150000D02*
X140625001Y-96624999D01*
X154600000Y-97150000D02*
X155125001Y-96624999D01*
X169100000Y-97150000D02*
X169625001Y-96624999D01*
X140100000Y-109150000D02*
X140625001Y-108624999D01*
X154600000Y-109150000D02*
X155125001Y-108624999D01*
X169100000Y-109150000D02*
X169625001Y-108624999D01*
X155100000Y-76900000D02*
X154550000Y-77450000D01*
X169600000Y-76900000D02*
X169050000Y-77450000D01*
X140600000Y-88900000D02*
X140050000Y-89450000D01*
X155100000Y-88900000D02*
X154550000Y-89450000D01*
X169600000Y-88900000D02*
X169050000Y-89450000D01*
X140600000Y-100900000D02*
X140050000Y-101450000D01*
X155100000Y-100900000D02*
X154550000Y-101450000D01*
X169600000Y-100900000D02*
X169050000Y-101450000D01*
X140600000Y-112900000D02*
X140050000Y-113450000D01*
X155100000Y-112900000D02*
X154550000Y-113450000D01*
X169600000Y-112900000D02*
X169050000Y-113450000D01*
X155100000Y-76400000D02*
X155100000Y-76900000D01*
X169600000Y-76400000D02*
X169600000Y-76900000D01*
X140600000Y-88400000D02*
X140600000Y-88900000D01*
X155100000Y-88400000D02*
X155100000Y-88900000D01*
X169600000Y-88400000D02*
X169600000Y-88900000D01*
X140600000Y-100400000D02*
X140600000Y-100900000D01*
X155100000Y-100400000D02*
X155100000Y-100900000D01*
X169600000Y-100400000D02*
X169600000Y-100900000D01*
X140600000Y-112400000D02*
X140600000Y-112900000D01*
X155100000Y-112400000D02*
X155100000Y-112900000D01*
X169600000Y-112400000D02*
X169600000Y-112900000D01*
X154550000Y-77450000D02*
X153165000Y-77450000D01*
X169050000Y-77450000D02*
X167665000Y-77450000D01*
X140050000Y-89450000D02*
X138665000Y-89450000D01*
X154550000Y-89450000D02*
X153165000Y-89450000D01*
X169050000Y-89450000D02*
X167665000Y-89450000D01*
X140050000Y-101450000D02*
X138665000Y-101450000D01*
X154550000Y-101450000D02*
X153165000Y-101450000D01*
X169050000Y-101450000D02*
X167665000Y-101450000D01*
X140050000Y-113450000D02*
X138665000Y-113450000D01*
X154550000Y-113450000D02*
X153165000Y-113450000D01*
X169050000Y-113450000D02*
X167665000Y-113450000D01*
X153000000Y-73215000D02*
X154385000Y-73215000D01*
X167500000Y-73215000D02*
X168885000Y-73215000D01*
X138500000Y-85215000D02*
X139885000Y-85215000D01*
X153000000Y-85215000D02*
X154385000Y-85215000D01*
X167500000Y-85215000D02*
X168885000Y-85215000D01*
X138500000Y-97215000D02*
X139885000Y-97215000D01*
X153000000Y-97215000D02*
X154385000Y-97215000D01*
X167500000Y-97215000D02*
X168885000Y-97215000D01*
X138500000Y-109215000D02*
X139885000Y-109215000D01*
X153000000Y-109215000D02*
X154385000Y-109215000D01*
X167500000Y-109215000D02*
X168885000Y-109215000D01*
G04 #@! TO.N,+3V3*
X141100000Y-75200000D02*
X141850000Y-74450000D01*
X141100000Y-75300000D02*
X141100000Y-75200000D01*
X142625001Y-78224999D02*
X142100000Y-78750000D01*
X142625001Y-76825001D02*
X142625001Y-78224999D01*
X142100000Y-78750000D02*
X141950000Y-78750000D01*
X141100000Y-75300000D02*
X142625001Y-76825001D01*
X155600000Y-75200000D02*
X156350000Y-74450000D01*
X170100000Y-75200000D02*
X170850000Y-74450000D01*
X141100000Y-87200000D02*
X141850000Y-86450000D01*
X155600000Y-87200000D02*
X156350000Y-86450000D01*
X170100000Y-87200000D02*
X170850000Y-86450000D01*
X141100000Y-99200000D02*
X141850000Y-98450000D01*
X155600000Y-99200000D02*
X156350000Y-98450000D01*
X170100000Y-99200000D02*
X170850000Y-98450000D01*
X141100000Y-111200000D02*
X141850000Y-110450000D01*
X155600000Y-111200000D02*
X156350000Y-110450000D01*
X170100000Y-111200000D02*
X170850000Y-110450000D01*
X155600000Y-75300000D02*
X155600000Y-75200000D01*
X170100000Y-75300000D02*
X170100000Y-75200000D01*
X141100000Y-87300000D02*
X141100000Y-87200000D01*
X155600000Y-87300000D02*
X155600000Y-87200000D01*
X170100000Y-87300000D02*
X170100000Y-87200000D01*
X141100000Y-99300000D02*
X141100000Y-99200000D01*
X155600000Y-99300000D02*
X155600000Y-99200000D01*
X170100000Y-99300000D02*
X170100000Y-99200000D01*
X141100000Y-111300000D02*
X141100000Y-111200000D01*
X155600000Y-111300000D02*
X155600000Y-111200000D01*
X170100000Y-111300000D02*
X170100000Y-111200000D01*
X157125001Y-78224999D02*
X156600000Y-78750000D01*
X171625001Y-78224999D02*
X171100000Y-78750000D01*
X142625001Y-90224999D02*
X142100000Y-90750000D01*
X157125001Y-90224999D02*
X156600000Y-90750000D01*
X171625001Y-90224999D02*
X171100000Y-90750000D01*
X142625001Y-102224999D02*
X142100000Y-102750000D01*
X157125001Y-102224999D02*
X156600000Y-102750000D01*
X171625001Y-102224999D02*
X171100000Y-102750000D01*
X142625001Y-114224999D02*
X142100000Y-114750000D01*
X157125001Y-114224999D02*
X156600000Y-114750000D01*
X171625001Y-114224999D02*
X171100000Y-114750000D01*
X157125001Y-76825001D02*
X157125001Y-78224999D01*
X171625001Y-76825001D02*
X171625001Y-78224999D01*
X142625001Y-88825001D02*
X142625001Y-90224999D01*
X157125001Y-88825001D02*
X157125001Y-90224999D01*
X171625001Y-88825001D02*
X171625001Y-90224999D01*
X142625001Y-100825001D02*
X142625001Y-102224999D01*
X157125001Y-100825001D02*
X157125001Y-102224999D01*
X171625001Y-100825001D02*
X171625001Y-102224999D01*
X142625001Y-112825001D02*
X142625001Y-114224999D01*
X157125001Y-112825001D02*
X157125001Y-114224999D01*
X171625001Y-112825001D02*
X171625001Y-114224999D01*
X156600000Y-78750000D02*
X156450000Y-78750000D01*
X171100000Y-78750000D02*
X170950000Y-78750000D01*
X142100000Y-90750000D02*
X141950000Y-90750000D01*
X156600000Y-90750000D02*
X156450000Y-90750000D01*
X171100000Y-90750000D02*
X170950000Y-90750000D01*
X142100000Y-102750000D02*
X141950000Y-102750000D01*
X156600000Y-102750000D02*
X156450000Y-102750000D01*
X171100000Y-102750000D02*
X170950000Y-102750000D01*
X142100000Y-114750000D02*
X141950000Y-114750000D01*
X156600000Y-114750000D02*
X156450000Y-114750000D01*
X171100000Y-114750000D02*
X170950000Y-114750000D01*
X155600000Y-75300000D02*
X157125001Y-76825001D01*
X170100000Y-75300000D02*
X171625001Y-76825001D01*
X141100000Y-87300000D02*
X142625001Y-88825001D01*
X155600000Y-87300000D02*
X157125001Y-88825001D01*
X170100000Y-87300000D02*
X171625001Y-88825001D01*
X141100000Y-99300000D02*
X142625001Y-100825001D01*
X155600000Y-99300000D02*
X157125001Y-100825001D01*
X170100000Y-99300000D02*
X171625001Y-100825001D01*
X141100000Y-111300000D02*
X142625001Y-112825001D01*
X155600000Y-111300000D02*
X157125001Y-112825001D01*
X170100000Y-111300000D02*
X171625001Y-112825001D01*
G04 #@! TO.N,/E1*
X135300000Y-74450000D02*
X135335000Y-74450000D01*
X138080000Y-78585000D02*
X138500000Y-78585000D01*
X137700000Y-78205000D02*
X138080000Y-78585000D01*
X137700000Y-76850000D02*
X137700000Y-78205000D01*
X135300000Y-74450000D02*
X137700000Y-76850000D01*
X139405000Y-78100000D02*
X140050000Y-78100000D01*
X138500000Y-78585000D02*
X138920000Y-78585000D01*
X138920000Y-78585000D02*
X139405000Y-78100000D01*
X149800000Y-74450000D02*
X152200000Y-76850000D01*
X164300000Y-74450000D02*
X166700000Y-76850000D01*
X135300000Y-86450000D02*
X137700000Y-88850000D01*
X149800000Y-86450000D02*
X152200000Y-88850000D01*
X164300000Y-86450000D02*
X166700000Y-88850000D01*
X135300000Y-98450000D02*
X137700000Y-100850000D01*
X149800000Y-98450000D02*
X152200000Y-100850000D01*
X164300000Y-98450000D02*
X166700000Y-100850000D01*
X135300000Y-110450000D02*
X137700000Y-112850000D01*
X149800000Y-110450000D02*
X152200000Y-112850000D01*
X164300000Y-110450000D02*
X166700000Y-112850000D01*
X153000000Y-78585000D02*
X153420000Y-78585000D01*
X167500000Y-78585000D02*
X167920000Y-78585000D01*
X138500000Y-90585000D02*
X138920000Y-90585000D01*
X153000000Y-90585000D02*
X153420000Y-90585000D01*
X167500000Y-90585000D02*
X167920000Y-90585000D01*
X138500000Y-102585000D02*
X138920000Y-102585000D01*
X153000000Y-102585000D02*
X153420000Y-102585000D01*
X167500000Y-102585000D02*
X167920000Y-102585000D01*
X138500000Y-114585000D02*
X138920000Y-114585000D01*
X153000000Y-114585000D02*
X153420000Y-114585000D01*
X167500000Y-114585000D02*
X167920000Y-114585000D01*
X152580000Y-78585000D02*
X153000000Y-78585000D01*
X167080000Y-78585000D02*
X167500000Y-78585000D01*
X138080000Y-90585000D02*
X138500000Y-90585000D01*
X152580000Y-90585000D02*
X153000000Y-90585000D01*
X167080000Y-90585000D02*
X167500000Y-90585000D01*
X138080000Y-102585000D02*
X138500000Y-102585000D01*
X152580000Y-102585000D02*
X153000000Y-102585000D01*
X167080000Y-102585000D02*
X167500000Y-102585000D01*
X138080000Y-114585000D02*
X138500000Y-114585000D01*
X152580000Y-114585000D02*
X153000000Y-114585000D01*
X167080000Y-114585000D02*
X167500000Y-114585000D01*
X153905000Y-78100000D02*
X154550000Y-78100000D01*
X168405000Y-78100000D02*
X169050000Y-78100000D01*
X139405000Y-90100000D02*
X140050000Y-90100000D01*
X153905000Y-90100000D02*
X154550000Y-90100000D01*
X168405000Y-90100000D02*
X169050000Y-90100000D01*
X139405000Y-102100000D02*
X140050000Y-102100000D01*
X153905000Y-102100000D02*
X154550000Y-102100000D01*
X168405000Y-102100000D02*
X169050000Y-102100000D01*
X139405000Y-114100000D02*
X140050000Y-114100000D01*
X153905000Y-114100000D02*
X154550000Y-114100000D01*
X168405000Y-114100000D02*
X169050000Y-114100000D01*
X152200000Y-76850000D02*
X152200000Y-78205000D01*
X166700000Y-76850000D02*
X166700000Y-78205000D01*
X137700000Y-88850000D02*
X137700000Y-90205000D01*
X152200000Y-88850000D02*
X152200000Y-90205000D01*
X166700000Y-88850000D02*
X166700000Y-90205000D01*
X137700000Y-100850000D02*
X137700000Y-102205000D01*
X152200000Y-100850000D02*
X152200000Y-102205000D01*
X166700000Y-100850000D02*
X166700000Y-102205000D01*
X137700000Y-112850000D02*
X137700000Y-114205000D01*
X152200000Y-112850000D02*
X152200000Y-114205000D01*
X166700000Y-112850000D02*
X166700000Y-114205000D01*
X153420000Y-78585000D02*
X153905000Y-78100000D01*
X167920000Y-78585000D02*
X168405000Y-78100000D01*
X138920000Y-90585000D02*
X139405000Y-90100000D01*
X153420000Y-90585000D02*
X153905000Y-90100000D01*
X167920000Y-90585000D02*
X168405000Y-90100000D01*
X138920000Y-102585000D02*
X139405000Y-102100000D01*
X153420000Y-102585000D02*
X153905000Y-102100000D01*
X167920000Y-102585000D02*
X168405000Y-102100000D01*
X138920000Y-114585000D02*
X139405000Y-114100000D01*
X153420000Y-114585000D02*
X153905000Y-114100000D01*
X167920000Y-114585000D02*
X168405000Y-114100000D01*
X152200000Y-78205000D02*
X152580000Y-78585000D01*
X166700000Y-78205000D02*
X167080000Y-78585000D01*
X137700000Y-90205000D02*
X138080000Y-90585000D01*
X152200000Y-90205000D02*
X152580000Y-90585000D01*
X166700000Y-90205000D02*
X167080000Y-90585000D01*
X137700000Y-102205000D02*
X138080000Y-102585000D01*
X152200000Y-102205000D02*
X152580000Y-102585000D01*
X166700000Y-102205000D02*
X167080000Y-102585000D01*
X137700000Y-114205000D02*
X138080000Y-114585000D01*
X152200000Y-114205000D02*
X152580000Y-114585000D01*
X166700000Y-114205000D02*
X167080000Y-114585000D01*
X149800000Y-74450000D02*
X149835000Y-74450000D01*
X164300000Y-74450000D02*
X164335000Y-74450000D01*
X135300000Y-86450000D02*
X135335000Y-86450000D01*
X149800000Y-86450000D02*
X149835000Y-86450000D01*
X164300000Y-86450000D02*
X164335000Y-86450000D01*
X135300000Y-98450000D02*
X135335000Y-98450000D01*
X149800000Y-98450000D02*
X149835000Y-98450000D01*
X164300000Y-98450000D02*
X164335000Y-98450000D01*
X135300000Y-110450000D02*
X135335000Y-110450000D01*
X149800000Y-110450000D02*
X149835000Y-110450000D01*
X164300000Y-110450000D02*
X164335000Y-110450000D01*
G04 #@! TO.N,/E0*
X137310001Y-72624999D02*
X137600000Y-72914998D01*
X134689999Y-72624999D02*
X137310001Y-72624999D01*
X133900000Y-74450000D02*
X133900000Y-73414998D01*
X133900000Y-73414998D02*
X134689999Y-72624999D01*
X138080000Y-74185000D02*
X138500000Y-74185000D01*
X137600000Y-73705000D02*
X138080000Y-74185000D01*
X137600000Y-72914998D02*
X137600000Y-73705000D01*
X138885000Y-73800000D02*
X138500000Y-74185000D01*
X139950000Y-73800000D02*
X138885000Y-73800000D01*
X153385000Y-73800000D02*
X153000000Y-74185000D01*
X167885000Y-73800000D02*
X167500000Y-74185000D01*
X138885000Y-85800000D02*
X138500000Y-86185000D01*
X153385000Y-85800000D02*
X153000000Y-86185000D01*
X167885000Y-85800000D02*
X167500000Y-86185000D01*
X138885000Y-97800000D02*
X138500000Y-98185000D01*
X153385000Y-97800000D02*
X153000000Y-98185000D01*
X167885000Y-97800000D02*
X167500000Y-98185000D01*
X138885000Y-109800000D02*
X138500000Y-110185000D01*
X153385000Y-109800000D02*
X153000000Y-110185000D01*
X167885000Y-109800000D02*
X167500000Y-110185000D01*
X154450000Y-73800000D02*
X153385000Y-73800000D01*
X168950000Y-73800000D02*
X167885000Y-73800000D01*
X139950000Y-85800000D02*
X138885000Y-85800000D01*
X154450000Y-85800000D02*
X153385000Y-85800000D01*
X168950000Y-85800000D02*
X167885000Y-85800000D01*
X139950000Y-97800000D02*
X138885000Y-97800000D01*
X154450000Y-97800000D02*
X153385000Y-97800000D01*
X168950000Y-97800000D02*
X167885000Y-97800000D01*
X139950000Y-109800000D02*
X138885000Y-109800000D01*
X154450000Y-109800000D02*
X153385000Y-109800000D01*
X168950000Y-109800000D02*
X167885000Y-109800000D01*
X151810001Y-72624999D02*
X152100000Y-72914998D01*
X166310001Y-72624999D02*
X166600000Y-72914998D01*
X137310001Y-84624999D02*
X137600000Y-84914998D01*
X151810001Y-84624999D02*
X152100000Y-84914998D01*
X166310001Y-84624999D02*
X166600000Y-84914998D01*
X137310001Y-96624999D02*
X137600000Y-96914998D01*
X151810001Y-96624999D02*
X152100000Y-96914998D01*
X166310001Y-96624999D02*
X166600000Y-96914998D01*
X137310001Y-108624999D02*
X137600000Y-108914998D01*
X151810001Y-108624999D02*
X152100000Y-108914998D01*
X166310001Y-108624999D02*
X166600000Y-108914998D01*
X149189999Y-72624999D02*
X151810001Y-72624999D01*
X163689999Y-72624999D02*
X166310001Y-72624999D01*
X134689999Y-84624999D02*
X137310001Y-84624999D01*
X149189999Y-84624999D02*
X151810001Y-84624999D01*
X163689999Y-84624999D02*
X166310001Y-84624999D01*
X134689999Y-96624999D02*
X137310001Y-96624999D01*
X149189999Y-96624999D02*
X151810001Y-96624999D01*
X163689999Y-96624999D02*
X166310001Y-96624999D01*
X134689999Y-108624999D02*
X137310001Y-108624999D01*
X149189999Y-108624999D02*
X151810001Y-108624999D01*
X163689999Y-108624999D02*
X166310001Y-108624999D01*
X148400000Y-74450000D02*
X148400000Y-73414998D01*
X162900000Y-74450000D02*
X162900000Y-73414998D01*
X133900000Y-86450000D02*
X133900000Y-85414998D01*
X148400000Y-86450000D02*
X148400000Y-85414998D01*
X162900000Y-86450000D02*
X162900000Y-85414998D01*
X133900000Y-98450000D02*
X133900000Y-97414998D01*
X148400000Y-98450000D02*
X148400000Y-97414998D01*
X162900000Y-98450000D02*
X162900000Y-97414998D01*
X133900000Y-110450000D02*
X133900000Y-109414998D01*
X148400000Y-110450000D02*
X148400000Y-109414998D01*
X162900000Y-110450000D02*
X162900000Y-109414998D01*
X148400000Y-73414998D02*
X149189999Y-72624999D01*
X162900000Y-73414998D02*
X163689999Y-72624999D01*
X133900000Y-85414998D02*
X134689999Y-84624999D01*
X148400000Y-85414998D02*
X149189999Y-84624999D01*
X162900000Y-85414998D02*
X163689999Y-84624999D01*
X133900000Y-97414998D02*
X134689999Y-96624999D01*
X148400000Y-97414998D02*
X149189999Y-96624999D01*
X162900000Y-97414998D02*
X163689999Y-96624999D01*
X133900000Y-109414998D02*
X134689999Y-108624999D01*
X148400000Y-109414998D02*
X149189999Y-108624999D01*
X162900000Y-109414998D02*
X163689999Y-108624999D01*
X152580000Y-74185000D02*
X153000000Y-74185000D01*
X167080000Y-74185000D02*
X167500000Y-74185000D01*
X138080000Y-86185000D02*
X138500000Y-86185000D01*
X152580000Y-86185000D02*
X153000000Y-86185000D01*
X167080000Y-86185000D02*
X167500000Y-86185000D01*
X138080000Y-98185000D02*
X138500000Y-98185000D01*
X152580000Y-98185000D02*
X153000000Y-98185000D01*
X167080000Y-98185000D02*
X167500000Y-98185000D01*
X138080000Y-110185000D02*
X138500000Y-110185000D01*
X152580000Y-110185000D02*
X153000000Y-110185000D01*
X167080000Y-110185000D02*
X167500000Y-110185000D01*
X152100000Y-73705000D02*
X152580000Y-74185000D01*
X166600000Y-73705000D02*
X167080000Y-74185000D01*
X137600000Y-85705000D02*
X138080000Y-86185000D01*
X152100000Y-85705000D02*
X152580000Y-86185000D01*
X166600000Y-85705000D02*
X167080000Y-86185000D01*
X137600000Y-97705000D02*
X138080000Y-98185000D01*
X152100000Y-97705000D02*
X152580000Y-98185000D01*
X166600000Y-97705000D02*
X167080000Y-98185000D01*
X137600000Y-109705000D02*
X138080000Y-110185000D01*
X152100000Y-109705000D02*
X152580000Y-110185000D01*
X166600000Y-109705000D02*
X167080000Y-110185000D01*
X152100000Y-72914998D02*
X152100000Y-73705000D01*
X166600000Y-72914998D02*
X166600000Y-73705000D01*
X137600000Y-84914998D02*
X137600000Y-85705000D01*
X152100000Y-84914998D02*
X152100000Y-85705000D01*
X166600000Y-84914998D02*
X166600000Y-85705000D01*
X137600000Y-96914998D02*
X137600000Y-97705000D01*
X152100000Y-96914998D02*
X152100000Y-97705000D01*
X166600000Y-96914998D02*
X166600000Y-97705000D01*
X137600000Y-108914998D02*
X137600000Y-109705000D01*
X152100000Y-108914998D02*
X152100000Y-109705000D01*
X166600000Y-108914998D02*
X166600000Y-109705000D01*
G04 #@! TO.N,/E0_filtered*
X141850000Y-73150000D02*
X141550000Y-73150000D01*
X141550000Y-73150000D02*
X141000000Y-73700000D01*
X156350000Y-73150000D02*
X156050000Y-73150000D01*
X170850000Y-73150000D02*
X170550000Y-73150000D01*
X141850000Y-85150000D02*
X141550000Y-85150000D01*
X156350000Y-85150000D02*
X156050000Y-85150000D01*
X170850000Y-85150000D02*
X170550000Y-85150000D01*
X141850000Y-97150000D02*
X141550000Y-97150000D01*
X156350000Y-97150000D02*
X156050000Y-97150000D01*
X170850000Y-97150000D02*
X170550000Y-97150000D01*
X141850000Y-109150000D02*
X141550000Y-109150000D01*
X156350000Y-109150000D02*
X156050000Y-109150000D01*
X170850000Y-109150000D02*
X170550000Y-109150000D01*
X156050000Y-73150000D02*
X155500000Y-73700000D01*
X170550000Y-73150000D02*
X170000000Y-73700000D01*
X141550000Y-85150000D02*
X141000000Y-85700000D01*
X156050000Y-85150000D02*
X155500000Y-85700000D01*
X170550000Y-85150000D02*
X170000000Y-85700000D01*
X141550000Y-97150000D02*
X141000000Y-97700000D01*
X156050000Y-97150000D02*
X155500000Y-97700000D01*
X170550000Y-97150000D02*
X170000000Y-97700000D01*
X141550000Y-109150000D02*
X141000000Y-109700000D01*
X156050000Y-109150000D02*
X155500000Y-109700000D01*
X170550000Y-109150000D02*
X170000000Y-109700000D01*
G04 #@! TO.N,/E1_filtered*
X141950000Y-77450000D02*
X141750000Y-77450000D01*
X141750000Y-77450000D02*
X141100000Y-78100000D01*
X156450000Y-77450000D02*
X156250000Y-77450000D01*
X170950000Y-77450000D02*
X170750000Y-77450000D01*
X141950000Y-89450000D02*
X141750000Y-89450000D01*
X156450000Y-89450000D02*
X156250000Y-89450000D01*
X170950000Y-89450000D02*
X170750000Y-89450000D01*
X141950000Y-101450000D02*
X141750000Y-101450000D01*
X156450000Y-101450000D02*
X156250000Y-101450000D01*
X170950000Y-101450000D02*
X170750000Y-101450000D01*
X141950000Y-113450000D02*
X141750000Y-113450000D01*
X156450000Y-113450000D02*
X156250000Y-113450000D01*
X170950000Y-113450000D02*
X170750000Y-113450000D01*
X156250000Y-77450000D02*
X155600000Y-78100000D01*
X170750000Y-77450000D02*
X170100000Y-78100000D01*
X141750000Y-89450000D02*
X141100000Y-90100000D01*
X156250000Y-89450000D02*
X155600000Y-90100000D01*
X170750000Y-89450000D02*
X170100000Y-90100000D01*
X141750000Y-101450000D02*
X141100000Y-102100000D01*
X156250000Y-101450000D02*
X155600000Y-102100000D01*
X170750000Y-101450000D02*
X170100000Y-102100000D01*
X141750000Y-113450000D02*
X141100000Y-114100000D01*
X156250000Y-113450000D02*
X155600000Y-114100000D01*
X170750000Y-113450000D02*
X170100000Y-114100000D01*
G04 #@! TD*
M02*
