M48
;DRILL file {KiCad 5.0.2-bee76a0~70~ubuntu18.04.1} date Mon 02 Mar 2020 10:40:27 AM CET
;FORMAT={-:-/ absolute / inch / decimal}
FMAT,2
INCH,TZ
T1C0.0118
%
G90
G05
T1
X5.2362Y-3.372
X5.2362Y-3.3875
X5.2362Y-3.4029
X5.2362Y-3.4183
X5.2362Y-3.4337
X5.2362Y-3.4491
X5.2362Y-3.4646
X5.2362Y-3.48
X5.2362Y-3.4954
X5.2362Y-3.5108
X5.2362Y-3.5262
X5.2362Y-3.5417
X5.2362Y-3.5571
X6.7913Y-4.3169
X6.7913Y-4.3323
X6.7913Y-4.3478
X6.7913Y-4.3632
X6.7913Y-4.3786
X6.7913Y-4.394
X6.7913Y-4.4094
X6.7913Y-4.4249
X6.7913Y-4.4403
X6.7913Y-4.4557
X6.7913Y-4.4711
X6.7913Y-4.4865
X6.7913Y-4.502
X6.2205Y-2.8996
X6.2205Y-2.915
X6.2205Y-2.9304
X6.2205Y-2.9459
X6.2205Y-2.9613
X6.2205Y-2.9767
X6.2205Y-2.9921
X6.2205Y-3.0075
X6.2205Y-3.023
X6.2205Y-3.0384
X6.2205Y-3.0538
X6.2205Y-3.0692
X6.2205Y-3.0846
X5.6496Y-3.372
X5.6496Y-3.3875
X5.6496Y-3.4029
X5.6496Y-3.4183
X5.6496Y-3.4337
X5.6496Y-3.4491
X5.6496Y-3.4646
X5.6496Y-3.48
X5.6496Y-3.4954
X5.6496Y-3.5108
X5.6496Y-3.5262
X5.6496Y-3.5417
X5.6496Y-3.5571
X5.8071Y-3.372
X5.8071Y-3.3875
X5.8071Y-3.4029
X5.8071Y-3.4183
X5.8071Y-3.4337
X5.8071Y-3.4491
X5.8071Y-3.4646
X5.8071Y-3.48
X5.8071Y-3.4954
X5.8071Y-3.5108
X5.8071Y-3.5262
X5.8071Y-3.5417
X5.8071Y-3.5571
X5.8071Y-2.8996
X5.8071Y-2.915
X5.8071Y-2.9304
X5.8071Y-2.9459
X5.8071Y-2.9613
X5.8071Y-2.9767
X5.8071Y-2.9921
X5.8071Y-3.0075
X5.8071Y-3.023
X5.8071Y-3.0384
X5.8071Y-3.0538
X5.8071Y-3.0692
X5.8071Y-3.0846
X5.6496Y-3.8445
X5.6496Y-3.8599
X5.6496Y-3.8753
X5.6496Y-3.8907
X5.6496Y-3.9062
X5.6496Y-3.9216
X5.6496Y-3.937
X5.6496Y-3.9524
X5.6496Y-3.9678
X5.6496Y-3.9833
X5.6496Y-3.9987
X5.6496Y-4.0141
X5.6496Y-4.0295
X6.7913Y-3.8445
X6.7913Y-3.8599
X6.7913Y-3.8753
X6.7913Y-3.8907
X6.7913Y-3.9062
X6.7913Y-3.9216
X6.7913Y-3.937
X6.7913Y-3.9524
X6.7913Y-3.9678
X6.7913Y-3.9833
X6.7913Y-3.9987
X6.7913Y-4.0141
X6.7913Y-4.0295
X5.8071Y-4.3169
X5.8071Y-4.3323
X5.8071Y-4.3478
X5.8071Y-4.3632
X5.8071Y-4.3786
X5.8071Y-4.394
X5.8071Y-4.4094
X5.8071Y-4.4249
X5.8071Y-4.4403
X5.8071Y-4.4557
X5.8071Y-4.4711
X5.8071Y-4.4865
X5.8071Y-4.502
X5.2362Y-2.8996
X5.2362Y-2.915
X5.2362Y-2.9304
X5.2362Y-2.9459
X5.2362Y-2.9613
X5.2362Y-2.9767
X5.2362Y-2.9921
X5.2362Y-3.0075
X5.2362Y-3.023
X5.2362Y-3.0384
X5.2362Y-3.0538
X5.2362Y-3.0692
X5.2362Y-3.0846
X6.9685Y-4.5669
X6.9843Y-4.5669
X7.Y-4.5669
X7.0157Y-4.5669
X7.0315Y-4.5669
X7.0472Y-4.5669
X5.Y-4.5669
X5.0157Y-4.5669
X5.0315Y-4.5669
X5.0472Y-4.5669
X5.063Y-4.5669
X5.0787Y-4.5669
X6.7913Y-2.8996
X6.7913Y-2.915
X6.7913Y-2.9304
X6.7913Y-2.9459
X6.7913Y-2.9613
X6.7913Y-2.9767
X6.7913Y-2.9921
X6.7913Y-3.0075
X6.7913Y-3.023
X6.7913Y-3.0384
X6.7913Y-3.0538
X6.7913Y-3.0692
X6.7913Y-3.0846
X5.6496Y-4.3169
X5.6496Y-4.3323
X5.6496Y-4.3478
X5.6496Y-4.3632
X5.6496Y-4.3786
X5.6496Y-4.394
X5.6496Y-4.4094
X5.6496Y-4.4249
X5.6496Y-4.4403
X5.6496Y-4.4557
X5.6496Y-4.4711
X5.6496Y-4.4865
X5.6496Y-4.502
X6.2205Y-3.8445
X6.2205Y-3.8599
X6.2205Y-3.8753
X6.2205Y-3.8907
X6.2205Y-3.9062
X6.2205Y-3.9216
X6.2205Y-3.937
X6.2205Y-3.9524
X6.2205Y-3.9678
X6.2205Y-3.9833
X6.2205Y-3.9987
X6.2205Y-4.0141
X6.2205Y-4.0295
X6.378Y-4.3169
X6.378Y-4.3323
X6.378Y-4.3478
X6.378Y-4.3632
X6.378Y-4.3786
X6.378Y-4.394
X6.378Y-4.4094
X6.378Y-4.4249
X6.378Y-4.4403
X6.378Y-4.4557
X6.378Y-4.4711
X6.378Y-4.4865
X6.378Y-4.502
X5.6496Y-2.8996
X5.6496Y-2.915
X5.6496Y-2.9304
X5.6496Y-2.9459
X5.6496Y-2.9613
X5.6496Y-2.9767
X5.6496Y-2.9921
X5.6496Y-3.0075
X5.6496Y-3.023
X5.6496Y-3.0384
X5.6496Y-3.0538
X5.6496Y-3.0692
X5.6496Y-3.0846
X6.378Y-3.372
X6.378Y-3.3875
X6.378Y-3.4029
X6.378Y-3.4183
X6.378Y-3.4337
X6.378Y-3.4491
X6.378Y-3.4646
X6.378Y-3.48
X6.378Y-3.4954
X6.378Y-3.5108
X6.378Y-3.5262
X6.378Y-3.5417
X6.378Y-3.5571
X6.378Y-2.8996
X6.378Y-2.915
X6.378Y-2.9304
X6.378Y-2.9459
X6.378Y-2.9613
X6.378Y-2.9767
X6.378Y-2.9921
X6.378Y-3.0075
X6.378Y-3.023
X6.378Y-3.0384
X6.378Y-3.0538
X6.378Y-3.0692
X6.378Y-3.0846
X5.8071Y-3.8445
X5.8071Y-3.8599
X5.8071Y-3.8753
X5.8071Y-3.8907
X5.8071Y-3.9062
X5.8071Y-3.9216
X5.8071Y-3.937
X5.8071Y-3.9524
X5.8071Y-3.9678
X5.8071Y-3.9833
X5.8071Y-3.9987
X5.8071Y-4.0141
X5.8071Y-4.0295
X6.2205Y-4.3169
X6.2205Y-4.3323
X6.2205Y-4.3478
X6.2205Y-4.3632
X6.2205Y-4.3786
X6.2205Y-4.394
X6.2205Y-4.4094
X6.2205Y-4.4249
X6.2205Y-4.4403
X6.2205Y-4.4557
X6.2205Y-4.4711
X6.2205Y-4.4865
X6.2205Y-4.502
X6.378Y-3.8445
X6.378Y-3.8599
X6.378Y-3.8753
X6.378Y-3.8907
X6.378Y-3.9062
X6.378Y-3.9216
X6.378Y-3.937
X6.378Y-3.9524
X6.378Y-3.9678
X6.378Y-3.9833
X6.378Y-3.9987
X6.378Y-4.0141
X6.378Y-4.0295
X5.2362Y-4.3169
X5.2362Y-4.3323
X5.2362Y-4.3478
X5.2362Y-4.3632
X5.2362Y-4.3786
X5.2362Y-4.394
X5.2362Y-4.4094
X5.2362Y-4.4249
X5.2362Y-4.4403
X5.2362Y-4.4557
X5.2362Y-4.4711
X5.2362Y-4.4865
X5.2362Y-4.502
X5.2362Y-3.8445
X5.2362Y-3.8599
X5.2362Y-3.8753
X5.2362Y-3.8907
X5.2362Y-3.9062
X5.2362Y-3.9216
X5.2362Y-3.937
X5.2362Y-3.9524
X5.2362Y-3.9678
X5.2362Y-3.9833
X5.2362Y-3.9987
X5.2362Y-4.0141
X5.2362Y-4.0295
X5.Y-2.8346
X5.0157Y-2.8346
X5.0315Y-2.8346
X5.0472Y-2.8346
X5.063Y-2.8346
X5.0787Y-2.8346
X6.9685Y-2.8346
X6.9843Y-2.8346
X7.Y-2.8346
X7.0157Y-2.8346
X7.0315Y-2.8346
X7.0472Y-2.8346
X6.2205Y-3.372
X6.2205Y-3.3875
X6.2205Y-3.4029
X6.2205Y-3.4183
X6.2205Y-3.4337
X6.2205Y-3.4491
X6.2205Y-3.4646
X6.2205Y-3.48
X6.2205Y-3.4954
X6.2205Y-3.5108
X6.2205Y-3.5262
X6.2205Y-3.5417
X6.2205Y-3.5571
X6.7913Y-3.372
X6.7913Y-3.3875
X6.7913Y-3.4029
X6.7913Y-3.4183
X6.7913Y-3.4337
X6.7913Y-3.4491
X6.7913Y-3.4646
X6.7913Y-3.48
X6.7913Y-3.4954
X6.7913Y-3.5108
X6.7913Y-3.5262
X6.7913Y-3.5417
X6.7913Y-3.5571
T0
M30
