G04 #@! TF.GenerationSoftware,KiCad,Pcbnew,5.0.2-bee76a0~70~ubuntu18.04.1*
G04 #@! TF.CreationDate,2020-03-02T10:40:19+01:00*
G04 #@! TF.ProjectId,output.schmitt_trigger_adapter,6f757470-7574-42e7-9363-686d6974745f,rev?*
G04 #@! TF.SameCoordinates,Original*
G04 #@! TF.FileFunction,Paste,Top*
G04 #@! TF.FilePolarity,Positive*
%FSLAX46Y46*%
G04 Gerber Fmt 4.6, Leading zero omitted, Abs format (unit mm)*
G04 Created by KiCad (PCBNEW 5.0.2-bee76a0~70~ubuntu18.04.1) date Mon 02 Mar 2020 10:40:19 AM CET*
%MOMM*%
%LPD*%
G01*
G04 APERTURE LIST*
%ADD10R,0.700000X2.000000*%
G04 APERTURE END LIST*
D10*
G04 #@! TO.C,J1*
X165700000Y-109950000D03*
X164300000Y-109950000D03*
X162900000Y-109950000D03*
X162900000Y-114050000D03*
X165700000Y-114050000D03*
X164300000Y-114050000D03*
G04 #@! TD*
G04 #@! TO.C,J1*
X151200000Y-109950000D03*
X149800000Y-109950000D03*
X148400000Y-109950000D03*
X148400000Y-114050000D03*
X151200000Y-114050000D03*
X149800000Y-114050000D03*
G04 #@! TD*
G04 #@! TO.C,J1*
X136700000Y-109950000D03*
X135300000Y-109950000D03*
X133900000Y-109950000D03*
X133900000Y-114050000D03*
X136700000Y-114050000D03*
X135300000Y-114050000D03*
G04 #@! TD*
G04 #@! TO.C,J1*
X165700000Y-97950000D03*
X164300000Y-97950000D03*
X162900000Y-97950000D03*
X162900000Y-102050000D03*
X165700000Y-102050000D03*
X164300000Y-102050000D03*
G04 #@! TD*
G04 #@! TO.C,J1*
X151200000Y-97950000D03*
X149800000Y-97950000D03*
X148400000Y-97950000D03*
X148400000Y-102050000D03*
X151200000Y-102050000D03*
X149800000Y-102050000D03*
G04 #@! TD*
G04 #@! TO.C,J1*
X136700000Y-97950000D03*
X135300000Y-97950000D03*
X133900000Y-97950000D03*
X133900000Y-102050000D03*
X136700000Y-102050000D03*
X135300000Y-102050000D03*
G04 #@! TD*
G04 #@! TO.C,J1*
X165700000Y-85950000D03*
X164300000Y-85950000D03*
X162900000Y-85950000D03*
X162900000Y-90050000D03*
X165700000Y-90050000D03*
X164300000Y-90050000D03*
G04 #@! TD*
G04 #@! TO.C,J1*
X151200000Y-85950000D03*
X149800000Y-85950000D03*
X148400000Y-85950000D03*
X148400000Y-90050000D03*
X151200000Y-90050000D03*
X149800000Y-90050000D03*
G04 #@! TD*
G04 #@! TO.C,J1*
X136700000Y-85950000D03*
X135300000Y-85950000D03*
X133900000Y-85950000D03*
X133900000Y-90050000D03*
X136700000Y-90050000D03*
X135300000Y-90050000D03*
G04 #@! TD*
G04 #@! TO.C,J1*
X165700000Y-73950000D03*
X164300000Y-73950000D03*
X162900000Y-73950000D03*
X162900000Y-78050000D03*
X165700000Y-78050000D03*
X164300000Y-78050000D03*
G04 #@! TD*
G04 #@! TO.C,J1*
X151200000Y-73950000D03*
X149800000Y-73950000D03*
X148400000Y-73950000D03*
X148400000Y-78050000D03*
X151200000Y-78050000D03*
X149800000Y-78050000D03*
G04 #@! TD*
G04 #@! TO.C,J1*
X135300000Y-78050000D03*
X136700000Y-78050000D03*
X133900000Y-78050000D03*
X133900000Y-73950000D03*
X135300000Y-73950000D03*
X136700000Y-73950000D03*
G04 #@! TD*
M02*
