G04 #@! TF.GenerationSoftware,KiCad,Pcbnew,5.0.2-bee76a0~70~ubuntu18.04.1*
G04 #@! TF.CreationDate,2020-01-30T22:42:59+01:00*
G04 #@! TF.ProjectId,schmitt_trigger_adapter,7363686d-6974-4745-9f74-726967676572,rev?*
G04 #@! TF.SameCoordinates,Original*
G04 #@! TF.FileFunction,Copper,L2,Bot*
G04 #@! TF.FilePolarity,Positive*
%FSLAX46Y46*%
G04 Gerber Fmt 4.6, Leading zero omitted, Abs format (unit mm)*
G04 Created by KiCad (PCBNEW 5.0.2-bee76a0~70~ubuntu18.04.1) date Thu 30 Jan 2020 10:42:59 PM CET*
%MOMM*%
%LPD*%
G01*
G04 APERTURE LIST*
G04 #@! TA.AperFunction,SMDPad,CuDef*
%ADD10R,0.700000X2.000000*%
G04 #@! TD*
G04 #@! TA.AperFunction,SMDPad,CuDef*
%ADD11R,0.700000X0.400000*%
G04 #@! TD*
G04 #@! TA.AperFunction,Conductor*
%ADD12C,0.100000*%
G04 #@! TD*
G04 #@! TA.AperFunction,SMDPad,CuDef*
%ADD13C,0.590000*%
G04 #@! TD*
G04 #@! TA.AperFunction,ViaPad*
%ADD14C,0.410000*%
G04 #@! TD*
G04 #@! TA.AperFunction,ViaPad*
%ADD15C,0.800000*%
G04 #@! TD*
G04 #@! TA.AperFunction,Conductor*
%ADD16C,0.250000*%
G04 #@! TD*
G04 APERTURE END LIST*
D10*
G04 #@! TO.P,J2,5*
G04 #@! TO.N,Net-(J2-Pad5)*
X180300000Y-102050000D03*
G04 #@! TO.P,J2,6*
G04 #@! TO.N,GND*
X178900000Y-102050000D03*
G04 #@! TO.P,J2,4*
G04 #@! TO.N,/LED*
X181700000Y-102050000D03*
G04 #@! TO.P,J2,3*
G04 #@! TO.N,+3V3*
X181700000Y-97950000D03*
G04 #@! TO.P,J2,2*
G04 #@! TO.N,/E1*
X180300000Y-97950000D03*
G04 #@! TO.P,J2,1*
G04 #@! TO.N,/E0*
X178900000Y-97950000D03*
G04 #@! TD*
G04 #@! TO.P,J2,5*
G04 #@! TO.N,Net-(J2-Pad5)*
X165300000Y-102050000D03*
G04 #@! TO.P,J2,6*
G04 #@! TO.N,GND*
X163900000Y-102050000D03*
G04 #@! TO.P,J2,4*
G04 #@! TO.N,/LED*
X166700000Y-102050000D03*
G04 #@! TO.P,J2,3*
G04 #@! TO.N,+3V3*
X166700000Y-97950000D03*
G04 #@! TO.P,J2,2*
G04 #@! TO.N,/E1*
X165300000Y-97950000D03*
G04 #@! TO.P,J2,1*
G04 #@! TO.N,/E0*
X163900000Y-97950000D03*
G04 #@! TD*
G04 #@! TO.P,J2,5*
G04 #@! TO.N,Net-(J2-Pad5)*
X150300000Y-102050000D03*
G04 #@! TO.P,J2,6*
G04 #@! TO.N,GND*
X148900000Y-102050000D03*
G04 #@! TO.P,J2,4*
G04 #@! TO.N,/LED*
X151700000Y-102050000D03*
G04 #@! TO.P,J2,3*
G04 #@! TO.N,+3V3*
X151700000Y-97950000D03*
G04 #@! TO.P,J2,2*
G04 #@! TO.N,/E1*
X150300000Y-97950000D03*
G04 #@! TO.P,J2,1*
G04 #@! TO.N,/E0*
X148900000Y-97950000D03*
G04 #@! TD*
G04 #@! TO.P,J2,5*
G04 #@! TO.N,Net-(J2-Pad5)*
X135300000Y-102050000D03*
G04 #@! TO.P,J2,6*
G04 #@! TO.N,GND*
X133900000Y-102050000D03*
G04 #@! TO.P,J2,4*
G04 #@! TO.N,/LED*
X136700000Y-102050000D03*
G04 #@! TO.P,J2,3*
G04 #@! TO.N,+3V3*
X136700000Y-97950000D03*
G04 #@! TO.P,J2,2*
G04 #@! TO.N,/E1*
X135300000Y-97950000D03*
G04 #@! TO.P,J2,1*
G04 #@! TO.N,/E0*
X133900000Y-97950000D03*
G04 #@! TD*
G04 #@! TO.P,J2,5*
G04 #@! TO.N,Net-(J2-Pad5)*
X180300000Y-90050000D03*
G04 #@! TO.P,J2,6*
G04 #@! TO.N,GND*
X178900000Y-90050000D03*
G04 #@! TO.P,J2,4*
G04 #@! TO.N,/LED*
X181700000Y-90050000D03*
G04 #@! TO.P,J2,3*
G04 #@! TO.N,+3V3*
X181700000Y-85950000D03*
G04 #@! TO.P,J2,2*
G04 #@! TO.N,/E1*
X180300000Y-85950000D03*
G04 #@! TO.P,J2,1*
G04 #@! TO.N,/E0*
X178900000Y-85950000D03*
G04 #@! TD*
G04 #@! TO.P,J2,5*
G04 #@! TO.N,Net-(J2-Pad5)*
X165300000Y-90050000D03*
G04 #@! TO.P,J2,6*
G04 #@! TO.N,GND*
X163900000Y-90050000D03*
G04 #@! TO.P,J2,4*
G04 #@! TO.N,/LED*
X166700000Y-90050000D03*
G04 #@! TO.P,J2,3*
G04 #@! TO.N,+3V3*
X166700000Y-85950000D03*
G04 #@! TO.P,J2,2*
G04 #@! TO.N,/E1*
X165300000Y-85950000D03*
G04 #@! TO.P,J2,1*
G04 #@! TO.N,/E0*
X163900000Y-85950000D03*
G04 #@! TD*
G04 #@! TO.P,J2,5*
G04 #@! TO.N,Net-(J2-Pad5)*
X150300000Y-90050000D03*
G04 #@! TO.P,J2,6*
G04 #@! TO.N,GND*
X148900000Y-90050000D03*
G04 #@! TO.P,J2,4*
G04 #@! TO.N,/LED*
X151700000Y-90050000D03*
G04 #@! TO.P,J2,3*
G04 #@! TO.N,+3V3*
X151700000Y-85950000D03*
G04 #@! TO.P,J2,2*
G04 #@! TO.N,/E1*
X150300000Y-85950000D03*
G04 #@! TO.P,J2,1*
G04 #@! TO.N,/E0*
X148900000Y-85950000D03*
G04 #@! TD*
G04 #@! TO.P,J2,5*
G04 #@! TO.N,Net-(J2-Pad5)*
X135300000Y-90050000D03*
G04 #@! TO.P,J2,6*
G04 #@! TO.N,GND*
X133900000Y-90050000D03*
G04 #@! TO.P,J2,4*
G04 #@! TO.N,/LED*
X136700000Y-90050000D03*
G04 #@! TO.P,J2,3*
G04 #@! TO.N,+3V3*
X136700000Y-85950000D03*
G04 #@! TO.P,J2,2*
G04 #@! TO.N,/E1*
X135300000Y-85950000D03*
G04 #@! TO.P,J2,1*
G04 #@! TO.N,/E0*
X133900000Y-85950000D03*
G04 #@! TD*
G04 #@! TO.P,J2,5*
G04 #@! TO.N,Net-(J2-Pad5)*
X180300000Y-78050000D03*
G04 #@! TO.P,J2,6*
G04 #@! TO.N,GND*
X178900000Y-78050000D03*
G04 #@! TO.P,J2,4*
G04 #@! TO.N,/LED*
X181700000Y-78050000D03*
G04 #@! TO.P,J2,3*
G04 #@! TO.N,+3V3*
X181700000Y-73950000D03*
G04 #@! TO.P,J2,2*
G04 #@! TO.N,/E1*
X180300000Y-73950000D03*
G04 #@! TO.P,J2,1*
G04 #@! TO.N,/E0*
X178900000Y-73950000D03*
G04 #@! TD*
G04 #@! TO.P,J2,5*
G04 #@! TO.N,Net-(J2-Pad5)*
X165300000Y-78050000D03*
G04 #@! TO.P,J2,6*
G04 #@! TO.N,GND*
X163900000Y-78050000D03*
G04 #@! TO.P,J2,4*
G04 #@! TO.N,/LED*
X166700000Y-78050000D03*
G04 #@! TO.P,J2,3*
G04 #@! TO.N,+3V3*
X166700000Y-73950000D03*
G04 #@! TO.P,J2,2*
G04 #@! TO.N,/E1*
X165300000Y-73950000D03*
G04 #@! TO.P,J2,1*
G04 #@! TO.N,/E0*
X163900000Y-73950000D03*
G04 #@! TD*
G04 #@! TO.P,J2,5*
G04 #@! TO.N,Net-(J2-Pad5)*
X150300000Y-78050000D03*
G04 #@! TO.P,J2,6*
G04 #@! TO.N,GND*
X148900000Y-78050000D03*
G04 #@! TO.P,J2,4*
G04 #@! TO.N,/LED*
X151700000Y-78050000D03*
G04 #@! TO.P,J2,3*
G04 #@! TO.N,+3V3*
X151700000Y-73950000D03*
G04 #@! TO.P,J2,2*
G04 #@! TO.N,/E1*
X150300000Y-73950000D03*
G04 #@! TO.P,J2,1*
G04 #@! TO.N,/E0*
X148900000Y-73950000D03*
G04 #@! TD*
D11*
G04 #@! TO.P,J4,1*
G04 #@! TO.N,Net-(J4-Pad1)*
X185050000Y-102750000D03*
G04 #@! TO.P,J4,2*
G04 #@! TO.N,Net-(J4-Pad2)*
X185050000Y-102100000D03*
G04 #@! TO.P,J4,3*
G04 #@! TO.N,GND*
X185050000Y-101450000D03*
G04 #@! TO.P,J4,4*
G04 #@! TO.N,/E1_filtered*
X186950000Y-101450000D03*
G04 #@! TO.P,J4,5*
G04 #@! TO.N,+3V3*
X186950000Y-102750000D03*
G04 #@! TD*
G04 #@! TO.P,J4,1*
G04 #@! TO.N,Net-(J4-Pad1)*
X170050000Y-102750000D03*
G04 #@! TO.P,J4,2*
G04 #@! TO.N,Net-(J4-Pad2)*
X170050000Y-102100000D03*
G04 #@! TO.P,J4,3*
G04 #@! TO.N,GND*
X170050000Y-101450000D03*
G04 #@! TO.P,J4,4*
G04 #@! TO.N,/E1_filtered*
X171950000Y-101450000D03*
G04 #@! TO.P,J4,5*
G04 #@! TO.N,+3V3*
X171950000Y-102750000D03*
G04 #@! TD*
G04 #@! TO.P,J4,1*
G04 #@! TO.N,Net-(J4-Pad1)*
X155050000Y-102750000D03*
G04 #@! TO.P,J4,2*
G04 #@! TO.N,Net-(J4-Pad2)*
X155050000Y-102100000D03*
G04 #@! TO.P,J4,3*
G04 #@! TO.N,GND*
X155050000Y-101450000D03*
G04 #@! TO.P,J4,4*
G04 #@! TO.N,/E1_filtered*
X156950000Y-101450000D03*
G04 #@! TO.P,J4,5*
G04 #@! TO.N,+3V3*
X156950000Y-102750000D03*
G04 #@! TD*
G04 #@! TO.P,J4,1*
G04 #@! TO.N,Net-(J4-Pad1)*
X140050000Y-102750000D03*
G04 #@! TO.P,J4,2*
G04 #@! TO.N,Net-(J4-Pad2)*
X140050000Y-102100000D03*
G04 #@! TO.P,J4,3*
G04 #@! TO.N,GND*
X140050000Y-101450000D03*
G04 #@! TO.P,J4,4*
G04 #@! TO.N,/E1_filtered*
X141950000Y-101450000D03*
G04 #@! TO.P,J4,5*
G04 #@! TO.N,+3V3*
X141950000Y-102750000D03*
G04 #@! TD*
G04 #@! TO.P,J4,1*
G04 #@! TO.N,Net-(J4-Pad1)*
X185050000Y-90750000D03*
G04 #@! TO.P,J4,2*
G04 #@! TO.N,Net-(J4-Pad2)*
X185050000Y-90100000D03*
G04 #@! TO.P,J4,3*
G04 #@! TO.N,GND*
X185050000Y-89450000D03*
G04 #@! TO.P,J4,4*
G04 #@! TO.N,/E1_filtered*
X186950000Y-89450000D03*
G04 #@! TO.P,J4,5*
G04 #@! TO.N,+3V3*
X186950000Y-90750000D03*
G04 #@! TD*
G04 #@! TO.P,J4,1*
G04 #@! TO.N,Net-(J4-Pad1)*
X170050000Y-90750000D03*
G04 #@! TO.P,J4,2*
G04 #@! TO.N,Net-(J4-Pad2)*
X170050000Y-90100000D03*
G04 #@! TO.P,J4,3*
G04 #@! TO.N,GND*
X170050000Y-89450000D03*
G04 #@! TO.P,J4,4*
G04 #@! TO.N,/E1_filtered*
X171950000Y-89450000D03*
G04 #@! TO.P,J4,5*
G04 #@! TO.N,+3V3*
X171950000Y-90750000D03*
G04 #@! TD*
G04 #@! TO.P,J4,1*
G04 #@! TO.N,Net-(J4-Pad1)*
X155050000Y-90750000D03*
G04 #@! TO.P,J4,2*
G04 #@! TO.N,Net-(J4-Pad2)*
X155050000Y-90100000D03*
G04 #@! TO.P,J4,3*
G04 #@! TO.N,GND*
X155050000Y-89450000D03*
G04 #@! TO.P,J4,4*
G04 #@! TO.N,/E1_filtered*
X156950000Y-89450000D03*
G04 #@! TO.P,J4,5*
G04 #@! TO.N,+3V3*
X156950000Y-90750000D03*
G04 #@! TD*
G04 #@! TO.P,J4,1*
G04 #@! TO.N,Net-(J4-Pad1)*
X140050000Y-90750000D03*
G04 #@! TO.P,J4,2*
G04 #@! TO.N,Net-(J4-Pad2)*
X140050000Y-90100000D03*
G04 #@! TO.P,J4,3*
G04 #@! TO.N,GND*
X140050000Y-89450000D03*
G04 #@! TO.P,J4,4*
G04 #@! TO.N,/E1_filtered*
X141950000Y-89450000D03*
G04 #@! TO.P,J4,5*
G04 #@! TO.N,+3V3*
X141950000Y-90750000D03*
G04 #@! TD*
G04 #@! TO.P,J4,1*
G04 #@! TO.N,Net-(J4-Pad1)*
X185050000Y-78750000D03*
G04 #@! TO.P,J4,2*
G04 #@! TO.N,Net-(J4-Pad2)*
X185050000Y-78100000D03*
G04 #@! TO.P,J4,3*
G04 #@! TO.N,GND*
X185050000Y-77450000D03*
G04 #@! TO.P,J4,4*
G04 #@! TO.N,/E1_filtered*
X186950000Y-77450000D03*
G04 #@! TO.P,J4,5*
G04 #@! TO.N,+3V3*
X186950000Y-78750000D03*
G04 #@! TD*
G04 #@! TO.P,J4,1*
G04 #@! TO.N,Net-(J4-Pad1)*
X170050000Y-78750000D03*
G04 #@! TO.P,J4,2*
G04 #@! TO.N,Net-(J4-Pad2)*
X170050000Y-78100000D03*
G04 #@! TO.P,J4,3*
G04 #@! TO.N,GND*
X170050000Y-77450000D03*
G04 #@! TO.P,J4,4*
G04 #@! TO.N,/E1_filtered*
X171950000Y-77450000D03*
G04 #@! TO.P,J4,5*
G04 #@! TO.N,+3V3*
X171950000Y-78750000D03*
G04 #@! TD*
G04 #@! TO.P,J4,1*
G04 #@! TO.N,Net-(J4-Pad1)*
X155050000Y-78750000D03*
G04 #@! TO.P,J4,2*
G04 #@! TO.N,Net-(J4-Pad2)*
X155050000Y-78100000D03*
G04 #@! TO.P,J4,3*
G04 #@! TO.N,GND*
X155050000Y-77450000D03*
G04 #@! TO.P,J4,4*
G04 #@! TO.N,/E1_filtered*
X156950000Y-77450000D03*
G04 #@! TO.P,J4,5*
G04 #@! TO.N,+3V3*
X156950000Y-78750000D03*
G04 #@! TD*
D12*
G04 #@! TO.N,/E0*
G04 #@! TO.C,R1*
G36*
X183686958Y-97890710D02*
X183701276Y-97892834D01*
X183715317Y-97896351D01*
X183728946Y-97901228D01*
X183742031Y-97907417D01*
X183754447Y-97914858D01*
X183766073Y-97923481D01*
X183776798Y-97933202D01*
X183786519Y-97943927D01*
X183795142Y-97955553D01*
X183802583Y-97967969D01*
X183808772Y-97981054D01*
X183813649Y-97994683D01*
X183817166Y-98008724D01*
X183819290Y-98023042D01*
X183820000Y-98037500D01*
X183820000Y-98332500D01*
X183819290Y-98346958D01*
X183817166Y-98361276D01*
X183813649Y-98375317D01*
X183808772Y-98388946D01*
X183802583Y-98402031D01*
X183795142Y-98414447D01*
X183786519Y-98426073D01*
X183776798Y-98436798D01*
X183766073Y-98446519D01*
X183754447Y-98455142D01*
X183742031Y-98462583D01*
X183728946Y-98468772D01*
X183715317Y-98473649D01*
X183701276Y-98477166D01*
X183686958Y-98479290D01*
X183672500Y-98480000D01*
X183327500Y-98480000D01*
X183313042Y-98479290D01*
X183298724Y-98477166D01*
X183284683Y-98473649D01*
X183271054Y-98468772D01*
X183257969Y-98462583D01*
X183245553Y-98455142D01*
X183233927Y-98446519D01*
X183223202Y-98436798D01*
X183213481Y-98426073D01*
X183204858Y-98414447D01*
X183197417Y-98402031D01*
X183191228Y-98388946D01*
X183186351Y-98375317D01*
X183182834Y-98361276D01*
X183180710Y-98346958D01*
X183180000Y-98332500D01*
X183180000Y-98037500D01*
X183180710Y-98023042D01*
X183182834Y-98008724D01*
X183186351Y-97994683D01*
X183191228Y-97981054D01*
X183197417Y-97967969D01*
X183204858Y-97955553D01*
X183213481Y-97943927D01*
X183223202Y-97933202D01*
X183233927Y-97923481D01*
X183245553Y-97914858D01*
X183257969Y-97907417D01*
X183271054Y-97901228D01*
X183284683Y-97896351D01*
X183298724Y-97892834D01*
X183313042Y-97890710D01*
X183327500Y-97890000D01*
X183672500Y-97890000D01*
X183686958Y-97890710D01*
X183686958Y-97890710D01*
G37*
D13*
G04 #@! TD*
G04 #@! TO.P,R1,2*
G04 #@! TO.N,/E0*
X183500000Y-98185000D03*
D12*
G04 #@! TO.N,Net-(J3-Pad2)*
G04 #@! TO.C,R1*
G36*
X183686958Y-96920710D02*
X183701276Y-96922834D01*
X183715317Y-96926351D01*
X183728946Y-96931228D01*
X183742031Y-96937417D01*
X183754447Y-96944858D01*
X183766073Y-96953481D01*
X183776798Y-96963202D01*
X183786519Y-96973927D01*
X183795142Y-96985553D01*
X183802583Y-96997969D01*
X183808772Y-97011054D01*
X183813649Y-97024683D01*
X183817166Y-97038724D01*
X183819290Y-97053042D01*
X183820000Y-97067500D01*
X183820000Y-97362500D01*
X183819290Y-97376958D01*
X183817166Y-97391276D01*
X183813649Y-97405317D01*
X183808772Y-97418946D01*
X183802583Y-97432031D01*
X183795142Y-97444447D01*
X183786519Y-97456073D01*
X183776798Y-97466798D01*
X183766073Y-97476519D01*
X183754447Y-97485142D01*
X183742031Y-97492583D01*
X183728946Y-97498772D01*
X183715317Y-97503649D01*
X183701276Y-97507166D01*
X183686958Y-97509290D01*
X183672500Y-97510000D01*
X183327500Y-97510000D01*
X183313042Y-97509290D01*
X183298724Y-97507166D01*
X183284683Y-97503649D01*
X183271054Y-97498772D01*
X183257969Y-97492583D01*
X183245553Y-97485142D01*
X183233927Y-97476519D01*
X183223202Y-97466798D01*
X183213481Y-97456073D01*
X183204858Y-97444447D01*
X183197417Y-97432031D01*
X183191228Y-97418946D01*
X183186351Y-97405317D01*
X183182834Y-97391276D01*
X183180710Y-97376958D01*
X183180000Y-97362500D01*
X183180000Y-97067500D01*
X183180710Y-97053042D01*
X183182834Y-97038724D01*
X183186351Y-97024683D01*
X183191228Y-97011054D01*
X183197417Y-96997969D01*
X183204858Y-96985553D01*
X183213481Y-96973927D01*
X183223202Y-96963202D01*
X183233927Y-96953481D01*
X183245553Y-96944858D01*
X183257969Y-96937417D01*
X183271054Y-96931228D01*
X183284683Y-96926351D01*
X183298724Y-96922834D01*
X183313042Y-96920710D01*
X183327500Y-96920000D01*
X183672500Y-96920000D01*
X183686958Y-96920710D01*
X183686958Y-96920710D01*
G37*
D13*
G04 #@! TD*
G04 #@! TO.P,R1,1*
G04 #@! TO.N,Net-(J3-Pad2)*
X183500000Y-97215000D03*
D12*
G04 #@! TO.N,/E0*
G04 #@! TO.C,R1*
G36*
X168686958Y-97890710D02*
X168701276Y-97892834D01*
X168715317Y-97896351D01*
X168728946Y-97901228D01*
X168742031Y-97907417D01*
X168754447Y-97914858D01*
X168766073Y-97923481D01*
X168776798Y-97933202D01*
X168786519Y-97943927D01*
X168795142Y-97955553D01*
X168802583Y-97967969D01*
X168808772Y-97981054D01*
X168813649Y-97994683D01*
X168817166Y-98008724D01*
X168819290Y-98023042D01*
X168820000Y-98037500D01*
X168820000Y-98332500D01*
X168819290Y-98346958D01*
X168817166Y-98361276D01*
X168813649Y-98375317D01*
X168808772Y-98388946D01*
X168802583Y-98402031D01*
X168795142Y-98414447D01*
X168786519Y-98426073D01*
X168776798Y-98436798D01*
X168766073Y-98446519D01*
X168754447Y-98455142D01*
X168742031Y-98462583D01*
X168728946Y-98468772D01*
X168715317Y-98473649D01*
X168701276Y-98477166D01*
X168686958Y-98479290D01*
X168672500Y-98480000D01*
X168327500Y-98480000D01*
X168313042Y-98479290D01*
X168298724Y-98477166D01*
X168284683Y-98473649D01*
X168271054Y-98468772D01*
X168257969Y-98462583D01*
X168245553Y-98455142D01*
X168233927Y-98446519D01*
X168223202Y-98436798D01*
X168213481Y-98426073D01*
X168204858Y-98414447D01*
X168197417Y-98402031D01*
X168191228Y-98388946D01*
X168186351Y-98375317D01*
X168182834Y-98361276D01*
X168180710Y-98346958D01*
X168180000Y-98332500D01*
X168180000Y-98037500D01*
X168180710Y-98023042D01*
X168182834Y-98008724D01*
X168186351Y-97994683D01*
X168191228Y-97981054D01*
X168197417Y-97967969D01*
X168204858Y-97955553D01*
X168213481Y-97943927D01*
X168223202Y-97933202D01*
X168233927Y-97923481D01*
X168245553Y-97914858D01*
X168257969Y-97907417D01*
X168271054Y-97901228D01*
X168284683Y-97896351D01*
X168298724Y-97892834D01*
X168313042Y-97890710D01*
X168327500Y-97890000D01*
X168672500Y-97890000D01*
X168686958Y-97890710D01*
X168686958Y-97890710D01*
G37*
D13*
G04 #@! TD*
G04 #@! TO.P,R1,2*
G04 #@! TO.N,/E0*
X168500000Y-98185000D03*
D12*
G04 #@! TO.N,Net-(J3-Pad2)*
G04 #@! TO.C,R1*
G36*
X168686958Y-96920710D02*
X168701276Y-96922834D01*
X168715317Y-96926351D01*
X168728946Y-96931228D01*
X168742031Y-96937417D01*
X168754447Y-96944858D01*
X168766073Y-96953481D01*
X168776798Y-96963202D01*
X168786519Y-96973927D01*
X168795142Y-96985553D01*
X168802583Y-96997969D01*
X168808772Y-97011054D01*
X168813649Y-97024683D01*
X168817166Y-97038724D01*
X168819290Y-97053042D01*
X168820000Y-97067500D01*
X168820000Y-97362500D01*
X168819290Y-97376958D01*
X168817166Y-97391276D01*
X168813649Y-97405317D01*
X168808772Y-97418946D01*
X168802583Y-97432031D01*
X168795142Y-97444447D01*
X168786519Y-97456073D01*
X168776798Y-97466798D01*
X168766073Y-97476519D01*
X168754447Y-97485142D01*
X168742031Y-97492583D01*
X168728946Y-97498772D01*
X168715317Y-97503649D01*
X168701276Y-97507166D01*
X168686958Y-97509290D01*
X168672500Y-97510000D01*
X168327500Y-97510000D01*
X168313042Y-97509290D01*
X168298724Y-97507166D01*
X168284683Y-97503649D01*
X168271054Y-97498772D01*
X168257969Y-97492583D01*
X168245553Y-97485142D01*
X168233927Y-97476519D01*
X168223202Y-97466798D01*
X168213481Y-97456073D01*
X168204858Y-97444447D01*
X168197417Y-97432031D01*
X168191228Y-97418946D01*
X168186351Y-97405317D01*
X168182834Y-97391276D01*
X168180710Y-97376958D01*
X168180000Y-97362500D01*
X168180000Y-97067500D01*
X168180710Y-97053042D01*
X168182834Y-97038724D01*
X168186351Y-97024683D01*
X168191228Y-97011054D01*
X168197417Y-96997969D01*
X168204858Y-96985553D01*
X168213481Y-96973927D01*
X168223202Y-96963202D01*
X168233927Y-96953481D01*
X168245553Y-96944858D01*
X168257969Y-96937417D01*
X168271054Y-96931228D01*
X168284683Y-96926351D01*
X168298724Y-96922834D01*
X168313042Y-96920710D01*
X168327500Y-96920000D01*
X168672500Y-96920000D01*
X168686958Y-96920710D01*
X168686958Y-96920710D01*
G37*
D13*
G04 #@! TD*
G04 #@! TO.P,R1,1*
G04 #@! TO.N,Net-(J3-Pad2)*
X168500000Y-97215000D03*
D12*
G04 #@! TO.N,/E0*
G04 #@! TO.C,R1*
G36*
X153686958Y-97890710D02*
X153701276Y-97892834D01*
X153715317Y-97896351D01*
X153728946Y-97901228D01*
X153742031Y-97907417D01*
X153754447Y-97914858D01*
X153766073Y-97923481D01*
X153776798Y-97933202D01*
X153786519Y-97943927D01*
X153795142Y-97955553D01*
X153802583Y-97967969D01*
X153808772Y-97981054D01*
X153813649Y-97994683D01*
X153817166Y-98008724D01*
X153819290Y-98023042D01*
X153820000Y-98037500D01*
X153820000Y-98332500D01*
X153819290Y-98346958D01*
X153817166Y-98361276D01*
X153813649Y-98375317D01*
X153808772Y-98388946D01*
X153802583Y-98402031D01*
X153795142Y-98414447D01*
X153786519Y-98426073D01*
X153776798Y-98436798D01*
X153766073Y-98446519D01*
X153754447Y-98455142D01*
X153742031Y-98462583D01*
X153728946Y-98468772D01*
X153715317Y-98473649D01*
X153701276Y-98477166D01*
X153686958Y-98479290D01*
X153672500Y-98480000D01*
X153327500Y-98480000D01*
X153313042Y-98479290D01*
X153298724Y-98477166D01*
X153284683Y-98473649D01*
X153271054Y-98468772D01*
X153257969Y-98462583D01*
X153245553Y-98455142D01*
X153233927Y-98446519D01*
X153223202Y-98436798D01*
X153213481Y-98426073D01*
X153204858Y-98414447D01*
X153197417Y-98402031D01*
X153191228Y-98388946D01*
X153186351Y-98375317D01*
X153182834Y-98361276D01*
X153180710Y-98346958D01*
X153180000Y-98332500D01*
X153180000Y-98037500D01*
X153180710Y-98023042D01*
X153182834Y-98008724D01*
X153186351Y-97994683D01*
X153191228Y-97981054D01*
X153197417Y-97967969D01*
X153204858Y-97955553D01*
X153213481Y-97943927D01*
X153223202Y-97933202D01*
X153233927Y-97923481D01*
X153245553Y-97914858D01*
X153257969Y-97907417D01*
X153271054Y-97901228D01*
X153284683Y-97896351D01*
X153298724Y-97892834D01*
X153313042Y-97890710D01*
X153327500Y-97890000D01*
X153672500Y-97890000D01*
X153686958Y-97890710D01*
X153686958Y-97890710D01*
G37*
D13*
G04 #@! TD*
G04 #@! TO.P,R1,2*
G04 #@! TO.N,/E0*
X153500000Y-98185000D03*
D12*
G04 #@! TO.N,Net-(J3-Pad2)*
G04 #@! TO.C,R1*
G36*
X153686958Y-96920710D02*
X153701276Y-96922834D01*
X153715317Y-96926351D01*
X153728946Y-96931228D01*
X153742031Y-96937417D01*
X153754447Y-96944858D01*
X153766073Y-96953481D01*
X153776798Y-96963202D01*
X153786519Y-96973927D01*
X153795142Y-96985553D01*
X153802583Y-96997969D01*
X153808772Y-97011054D01*
X153813649Y-97024683D01*
X153817166Y-97038724D01*
X153819290Y-97053042D01*
X153820000Y-97067500D01*
X153820000Y-97362500D01*
X153819290Y-97376958D01*
X153817166Y-97391276D01*
X153813649Y-97405317D01*
X153808772Y-97418946D01*
X153802583Y-97432031D01*
X153795142Y-97444447D01*
X153786519Y-97456073D01*
X153776798Y-97466798D01*
X153766073Y-97476519D01*
X153754447Y-97485142D01*
X153742031Y-97492583D01*
X153728946Y-97498772D01*
X153715317Y-97503649D01*
X153701276Y-97507166D01*
X153686958Y-97509290D01*
X153672500Y-97510000D01*
X153327500Y-97510000D01*
X153313042Y-97509290D01*
X153298724Y-97507166D01*
X153284683Y-97503649D01*
X153271054Y-97498772D01*
X153257969Y-97492583D01*
X153245553Y-97485142D01*
X153233927Y-97476519D01*
X153223202Y-97466798D01*
X153213481Y-97456073D01*
X153204858Y-97444447D01*
X153197417Y-97432031D01*
X153191228Y-97418946D01*
X153186351Y-97405317D01*
X153182834Y-97391276D01*
X153180710Y-97376958D01*
X153180000Y-97362500D01*
X153180000Y-97067500D01*
X153180710Y-97053042D01*
X153182834Y-97038724D01*
X153186351Y-97024683D01*
X153191228Y-97011054D01*
X153197417Y-96997969D01*
X153204858Y-96985553D01*
X153213481Y-96973927D01*
X153223202Y-96963202D01*
X153233927Y-96953481D01*
X153245553Y-96944858D01*
X153257969Y-96937417D01*
X153271054Y-96931228D01*
X153284683Y-96926351D01*
X153298724Y-96922834D01*
X153313042Y-96920710D01*
X153327500Y-96920000D01*
X153672500Y-96920000D01*
X153686958Y-96920710D01*
X153686958Y-96920710D01*
G37*
D13*
G04 #@! TD*
G04 #@! TO.P,R1,1*
G04 #@! TO.N,Net-(J3-Pad2)*
X153500000Y-97215000D03*
D12*
G04 #@! TO.N,/E0*
G04 #@! TO.C,R1*
G36*
X138686958Y-97890710D02*
X138701276Y-97892834D01*
X138715317Y-97896351D01*
X138728946Y-97901228D01*
X138742031Y-97907417D01*
X138754447Y-97914858D01*
X138766073Y-97923481D01*
X138776798Y-97933202D01*
X138786519Y-97943927D01*
X138795142Y-97955553D01*
X138802583Y-97967969D01*
X138808772Y-97981054D01*
X138813649Y-97994683D01*
X138817166Y-98008724D01*
X138819290Y-98023042D01*
X138820000Y-98037500D01*
X138820000Y-98332500D01*
X138819290Y-98346958D01*
X138817166Y-98361276D01*
X138813649Y-98375317D01*
X138808772Y-98388946D01*
X138802583Y-98402031D01*
X138795142Y-98414447D01*
X138786519Y-98426073D01*
X138776798Y-98436798D01*
X138766073Y-98446519D01*
X138754447Y-98455142D01*
X138742031Y-98462583D01*
X138728946Y-98468772D01*
X138715317Y-98473649D01*
X138701276Y-98477166D01*
X138686958Y-98479290D01*
X138672500Y-98480000D01*
X138327500Y-98480000D01*
X138313042Y-98479290D01*
X138298724Y-98477166D01*
X138284683Y-98473649D01*
X138271054Y-98468772D01*
X138257969Y-98462583D01*
X138245553Y-98455142D01*
X138233927Y-98446519D01*
X138223202Y-98436798D01*
X138213481Y-98426073D01*
X138204858Y-98414447D01*
X138197417Y-98402031D01*
X138191228Y-98388946D01*
X138186351Y-98375317D01*
X138182834Y-98361276D01*
X138180710Y-98346958D01*
X138180000Y-98332500D01*
X138180000Y-98037500D01*
X138180710Y-98023042D01*
X138182834Y-98008724D01*
X138186351Y-97994683D01*
X138191228Y-97981054D01*
X138197417Y-97967969D01*
X138204858Y-97955553D01*
X138213481Y-97943927D01*
X138223202Y-97933202D01*
X138233927Y-97923481D01*
X138245553Y-97914858D01*
X138257969Y-97907417D01*
X138271054Y-97901228D01*
X138284683Y-97896351D01*
X138298724Y-97892834D01*
X138313042Y-97890710D01*
X138327500Y-97890000D01*
X138672500Y-97890000D01*
X138686958Y-97890710D01*
X138686958Y-97890710D01*
G37*
D13*
G04 #@! TD*
G04 #@! TO.P,R1,2*
G04 #@! TO.N,/E0*
X138500000Y-98185000D03*
D12*
G04 #@! TO.N,Net-(J3-Pad2)*
G04 #@! TO.C,R1*
G36*
X138686958Y-96920710D02*
X138701276Y-96922834D01*
X138715317Y-96926351D01*
X138728946Y-96931228D01*
X138742031Y-96937417D01*
X138754447Y-96944858D01*
X138766073Y-96953481D01*
X138776798Y-96963202D01*
X138786519Y-96973927D01*
X138795142Y-96985553D01*
X138802583Y-96997969D01*
X138808772Y-97011054D01*
X138813649Y-97024683D01*
X138817166Y-97038724D01*
X138819290Y-97053042D01*
X138820000Y-97067500D01*
X138820000Y-97362500D01*
X138819290Y-97376958D01*
X138817166Y-97391276D01*
X138813649Y-97405317D01*
X138808772Y-97418946D01*
X138802583Y-97432031D01*
X138795142Y-97444447D01*
X138786519Y-97456073D01*
X138776798Y-97466798D01*
X138766073Y-97476519D01*
X138754447Y-97485142D01*
X138742031Y-97492583D01*
X138728946Y-97498772D01*
X138715317Y-97503649D01*
X138701276Y-97507166D01*
X138686958Y-97509290D01*
X138672500Y-97510000D01*
X138327500Y-97510000D01*
X138313042Y-97509290D01*
X138298724Y-97507166D01*
X138284683Y-97503649D01*
X138271054Y-97498772D01*
X138257969Y-97492583D01*
X138245553Y-97485142D01*
X138233927Y-97476519D01*
X138223202Y-97466798D01*
X138213481Y-97456073D01*
X138204858Y-97444447D01*
X138197417Y-97432031D01*
X138191228Y-97418946D01*
X138186351Y-97405317D01*
X138182834Y-97391276D01*
X138180710Y-97376958D01*
X138180000Y-97362500D01*
X138180000Y-97067500D01*
X138180710Y-97053042D01*
X138182834Y-97038724D01*
X138186351Y-97024683D01*
X138191228Y-97011054D01*
X138197417Y-96997969D01*
X138204858Y-96985553D01*
X138213481Y-96973927D01*
X138223202Y-96963202D01*
X138233927Y-96953481D01*
X138245553Y-96944858D01*
X138257969Y-96937417D01*
X138271054Y-96931228D01*
X138284683Y-96926351D01*
X138298724Y-96922834D01*
X138313042Y-96920710D01*
X138327500Y-96920000D01*
X138672500Y-96920000D01*
X138686958Y-96920710D01*
X138686958Y-96920710D01*
G37*
D13*
G04 #@! TD*
G04 #@! TO.P,R1,1*
G04 #@! TO.N,Net-(J3-Pad2)*
X138500000Y-97215000D03*
D12*
G04 #@! TO.N,/E0*
G04 #@! TO.C,R1*
G36*
X183686958Y-85890710D02*
X183701276Y-85892834D01*
X183715317Y-85896351D01*
X183728946Y-85901228D01*
X183742031Y-85907417D01*
X183754447Y-85914858D01*
X183766073Y-85923481D01*
X183776798Y-85933202D01*
X183786519Y-85943927D01*
X183795142Y-85955553D01*
X183802583Y-85967969D01*
X183808772Y-85981054D01*
X183813649Y-85994683D01*
X183817166Y-86008724D01*
X183819290Y-86023042D01*
X183820000Y-86037500D01*
X183820000Y-86332500D01*
X183819290Y-86346958D01*
X183817166Y-86361276D01*
X183813649Y-86375317D01*
X183808772Y-86388946D01*
X183802583Y-86402031D01*
X183795142Y-86414447D01*
X183786519Y-86426073D01*
X183776798Y-86436798D01*
X183766073Y-86446519D01*
X183754447Y-86455142D01*
X183742031Y-86462583D01*
X183728946Y-86468772D01*
X183715317Y-86473649D01*
X183701276Y-86477166D01*
X183686958Y-86479290D01*
X183672500Y-86480000D01*
X183327500Y-86480000D01*
X183313042Y-86479290D01*
X183298724Y-86477166D01*
X183284683Y-86473649D01*
X183271054Y-86468772D01*
X183257969Y-86462583D01*
X183245553Y-86455142D01*
X183233927Y-86446519D01*
X183223202Y-86436798D01*
X183213481Y-86426073D01*
X183204858Y-86414447D01*
X183197417Y-86402031D01*
X183191228Y-86388946D01*
X183186351Y-86375317D01*
X183182834Y-86361276D01*
X183180710Y-86346958D01*
X183180000Y-86332500D01*
X183180000Y-86037500D01*
X183180710Y-86023042D01*
X183182834Y-86008724D01*
X183186351Y-85994683D01*
X183191228Y-85981054D01*
X183197417Y-85967969D01*
X183204858Y-85955553D01*
X183213481Y-85943927D01*
X183223202Y-85933202D01*
X183233927Y-85923481D01*
X183245553Y-85914858D01*
X183257969Y-85907417D01*
X183271054Y-85901228D01*
X183284683Y-85896351D01*
X183298724Y-85892834D01*
X183313042Y-85890710D01*
X183327500Y-85890000D01*
X183672500Y-85890000D01*
X183686958Y-85890710D01*
X183686958Y-85890710D01*
G37*
D13*
G04 #@! TD*
G04 #@! TO.P,R1,2*
G04 #@! TO.N,/E0*
X183500000Y-86185000D03*
D12*
G04 #@! TO.N,Net-(J3-Pad2)*
G04 #@! TO.C,R1*
G36*
X183686958Y-84920710D02*
X183701276Y-84922834D01*
X183715317Y-84926351D01*
X183728946Y-84931228D01*
X183742031Y-84937417D01*
X183754447Y-84944858D01*
X183766073Y-84953481D01*
X183776798Y-84963202D01*
X183786519Y-84973927D01*
X183795142Y-84985553D01*
X183802583Y-84997969D01*
X183808772Y-85011054D01*
X183813649Y-85024683D01*
X183817166Y-85038724D01*
X183819290Y-85053042D01*
X183820000Y-85067500D01*
X183820000Y-85362500D01*
X183819290Y-85376958D01*
X183817166Y-85391276D01*
X183813649Y-85405317D01*
X183808772Y-85418946D01*
X183802583Y-85432031D01*
X183795142Y-85444447D01*
X183786519Y-85456073D01*
X183776798Y-85466798D01*
X183766073Y-85476519D01*
X183754447Y-85485142D01*
X183742031Y-85492583D01*
X183728946Y-85498772D01*
X183715317Y-85503649D01*
X183701276Y-85507166D01*
X183686958Y-85509290D01*
X183672500Y-85510000D01*
X183327500Y-85510000D01*
X183313042Y-85509290D01*
X183298724Y-85507166D01*
X183284683Y-85503649D01*
X183271054Y-85498772D01*
X183257969Y-85492583D01*
X183245553Y-85485142D01*
X183233927Y-85476519D01*
X183223202Y-85466798D01*
X183213481Y-85456073D01*
X183204858Y-85444447D01*
X183197417Y-85432031D01*
X183191228Y-85418946D01*
X183186351Y-85405317D01*
X183182834Y-85391276D01*
X183180710Y-85376958D01*
X183180000Y-85362500D01*
X183180000Y-85067500D01*
X183180710Y-85053042D01*
X183182834Y-85038724D01*
X183186351Y-85024683D01*
X183191228Y-85011054D01*
X183197417Y-84997969D01*
X183204858Y-84985553D01*
X183213481Y-84973927D01*
X183223202Y-84963202D01*
X183233927Y-84953481D01*
X183245553Y-84944858D01*
X183257969Y-84937417D01*
X183271054Y-84931228D01*
X183284683Y-84926351D01*
X183298724Y-84922834D01*
X183313042Y-84920710D01*
X183327500Y-84920000D01*
X183672500Y-84920000D01*
X183686958Y-84920710D01*
X183686958Y-84920710D01*
G37*
D13*
G04 #@! TD*
G04 #@! TO.P,R1,1*
G04 #@! TO.N,Net-(J3-Pad2)*
X183500000Y-85215000D03*
D12*
G04 #@! TO.N,/E0*
G04 #@! TO.C,R1*
G36*
X168686958Y-85890710D02*
X168701276Y-85892834D01*
X168715317Y-85896351D01*
X168728946Y-85901228D01*
X168742031Y-85907417D01*
X168754447Y-85914858D01*
X168766073Y-85923481D01*
X168776798Y-85933202D01*
X168786519Y-85943927D01*
X168795142Y-85955553D01*
X168802583Y-85967969D01*
X168808772Y-85981054D01*
X168813649Y-85994683D01*
X168817166Y-86008724D01*
X168819290Y-86023042D01*
X168820000Y-86037500D01*
X168820000Y-86332500D01*
X168819290Y-86346958D01*
X168817166Y-86361276D01*
X168813649Y-86375317D01*
X168808772Y-86388946D01*
X168802583Y-86402031D01*
X168795142Y-86414447D01*
X168786519Y-86426073D01*
X168776798Y-86436798D01*
X168766073Y-86446519D01*
X168754447Y-86455142D01*
X168742031Y-86462583D01*
X168728946Y-86468772D01*
X168715317Y-86473649D01*
X168701276Y-86477166D01*
X168686958Y-86479290D01*
X168672500Y-86480000D01*
X168327500Y-86480000D01*
X168313042Y-86479290D01*
X168298724Y-86477166D01*
X168284683Y-86473649D01*
X168271054Y-86468772D01*
X168257969Y-86462583D01*
X168245553Y-86455142D01*
X168233927Y-86446519D01*
X168223202Y-86436798D01*
X168213481Y-86426073D01*
X168204858Y-86414447D01*
X168197417Y-86402031D01*
X168191228Y-86388946D01*
X168186351Y-86375317D01*
X168182834Y-86361276D01*
X168180710Y-86346958D01*
X168180000Y-86332500D01*
X168180000Y-86037500D01*
X168180710Y-86023042D01*
X168182834Y-86008724D01*
X168186351Y-85994683D01*
X168191228Y-85981054D01*
X168197417Y-85967969D01*
X168204858Y-85955553D01*
X168213481Y-85943927D01*
X168223202Y-85933202D01*
X168233927Y-85923481D01*
X168245553Y-85914858D01*
X168257969Y-85907417D01*
X168271054Y-85901228D01*
X168284683Y-85896351D01*
X168298724Y-85892834D01*
X168313042Y-85890710D01*
X168327500Y-85890000D01*
X168672500Y-85890000D01*
X168686958Y-85890710D01*
X168686958Y-85890710D01*
G37*
D13*
G04 #@! TD*
G04 #@! TO.P,R1,2*
G04 #@! TO.N,/E0*
X168500000Y-86185000D03*
D12*
G04 #@! TO.N,Net-(J3-Pad2)*
G04 #@! TO.C,R1*
G36*
X168686958Y-84920710D02*
X168701276Y-84922834D01*
X168715317Y-84926351D01*
X168728946Y-84931228D01*
X168742031Y-84937417D01*
X168754447Y-84944858D01*
X168766073Y-84953481D01*
X168776798Y-84963202D01*
X168786519Y-84973927D01*
X168795142Y-84985553D01*
X168802583Y-84997969D01*
X168808772Y-85011054D01*
X168813649Y-85024683D01*
X168817166Y-85038724D01*
X168819290Y-85053042D01*
X168820000Y-85067500D01*
X168820000Y-85362500D01*
X168819290Y-85376958D01*
X168817166Y-85391276D01*
X168813649Y-85405317D01*
X168808772Y-85418946D01*
X168802583Y-85432031D01*
X168795142Y-85444447D01*
X168786519Y-85456073D01*
X168776798Y-85466798D01*
X168766073Y-85476519D01*
X168754447Y-85485142D01*
X168742031Y-85492583D01*
X168728946Y-85498772D01*
X168715317Y-85503649D01*
X168701276Y-85507166D01*
X168686958Y-85509290D01*
X168672500Y-85510000D01*
X168327500Y-85510000D01*
X168313042Y-85509290D01*
X168298724Y-85507166D01*
X168284683Y-85503649D01*
X168271054Y-85498772D01*
X168257969Y-85492583D01*
X168245553Y-85485142D01*
X168233927Y-85476519D01*
X168223202Y-85466798D01*
X168213481Y-85456073D01*
X168204858Y-85444447D01*
X168197417Y-85432031D01*
X168191228Y-85418946D01*
X168186351Y-85405317D01*
X168182834Y-85391276D01*
X168180710Y-85376958D01*
X168180000Y-85362500D01*
X168180000Y-85067500D01*
X168180710Y-85053042D01*
X168182834Y-85038724D01*
X168186351Y-85024683D01*
X168191228Y-85011054D01*
X168197417Y-84997969D01*
X168204858Y-84985553D01*
X168213481Y-84973927D01*
X168223202Y-84963202D01*
X168233927Y-84953481D01*
X168245553Y-84944858D01*
X168257969Y-84937417D01*
X168271054Y-84931228D01*
X168284683Y-84926351D01*
X168298724Y-84922834D01*
X168313042Y-84920710D01*
X168327500Y-84920000D01*
X168672500Y-84920000D01*
X168686958Y-84920710D01*
X168686958Y-84920710D01*
G37*
D13*
G04 #@! TD*
G04 #@! TO.P,R1,1*
G04 #@! TO.N,Net-(J3-Pad2)*
X168500000Y-85215000D03*
D12*
G04 #@! TO.N,/E0*
G04 #@! TO.C,R1*
G36*
X153686958Y-85890710D02*
X153701276Y-85892834D01*
X153715317Y-85896351D01*
X153728946Y-85901228D01*
X153742031Y-85907417D01*
X153754447Y-85914858D01*
X153766073Y-85923481D01*
X153776798Y-85933202D01*
X153786519Y-85943927D01*
X153795142Y-85955553D01*
X153802583Y-85967969D01*
X153808772Y-85981054D01*
X153813649Y-85994683D01*
X153817166Y-86008724D01*
X153819290Y-86023042D01*
X153820000Y-86037500D01*
X153820000Y-86332500D01*
X153819290Y-86346958D01*
X153817166Y-86361276D01*
X153813649Y-86375317D01*
X153808772Y-86388946D01*
X153802583Y-86402031D01*
X153795142Y-86414447D01*
X153786519Y-86426073D01*
X153776798Y-86436798D01*
X153766073Y-86446519D01*
X153754447Y-86455142D01*
X153742031Y-86462583D01*
X153728946Y-86468772D01*
X153715317Y-86473649D01*
X153701276Y-86477166D01*
X153686958Y-86479290D01*
X153672500Y-86480000D01*
X153327500Y-86480000D01*
X153313042Y-86479290D01*
X153298724Y-86477166D01*
X153284683Y-86473649D01*
X153271054Y-86468772D01*
X153257969Y-86462583D01*
X153245553Y-86455142D01*
X153233927Y-86446519D01*
X153223202Y-86436798D01*
X153213481Y-86426073D01*
X153204858Y-86414447D01*
X153197417Y-86402031D01*
X153191228Y-86388946D01*
X153186351Y-86375317D01*
X153182834Y-86361276D01*
X153180710Y-86346958D01*
X153180000Y-86332500D01*
X153180000Y-86037500D01*
X153180710Y-86023042D01*
X153182834Y-86008724D01*
X153186351Y-85994683D01*
X153191228Y-85981054D01*
X153197417Y-85967969D01*
X153204858Y-85955553D01*
X153213481Y-85943927D01*
X153223202Y-85933202D01*
X153233927Y-85923481D01*
X153245553Y-85914858D01*
X153257969Y-85907417D01*
X153271054Y-85901228D01*
X153284683Y-85896351D01*
X153298724Y-85892834D01*
X153313042Y-85890710D01*
X153327500Y-85890000D01*
X153672500Y-85890000D01*
X153686958Y-85890710D01*
X153686958Y-85890710D01*
G37*
D13*
G04 #@! TD*
G04 #@! TO.P,R1,2*
G04 #@! TO.N,/E0*
X153500000Y-86185000D03*
D12*
G04 #@! TO.N,Net-(J3-Pad2)*
G04 #@! TO.C,R1*
G36*
X153686958Y-84920710D02*
X153701276Y-84922834D01*
X153715317Y-84926351D01*
X153728946Y-84931228D01*
X153742031Y-84937417D01*
X153754447Y-84944858D01*
X153766073Y-84953481D01*
X153776798Y-84963202D01*
X153786519Y-84973927D01*
X153795142Y-84985553D01*
X153802583Y-84997969D01*
X153808772Y-85011054D01*
X153813649Y-85024683D01*
X153817166Y-85038724D01*
X153819290Y-85053042D01*
X153820000Y-85067500D01*
X153820000Y-85362500D01*
X153819290Y-85376958D01*
X153817166Y-85391276D01*
X153813649Y-85405317D01*
X153808772Y-85418946D01*
X153802583Y-85432031D01*
X153795142Y-85444447D01*
X153786519Y-85456073D01*
X153776798Y-85466798D01*
X153766073Y-85476519D01*
X153754447Y-85485142D01*
X153742031Y-85492583D01*
X153728946Y-85498772D01*
X153715317Y-85503649D01*
X153701276Y-85507166D01*
X153686958Y-85509290D01*
X153672500Y-85510000D01*
X153327500Y-85510000D01*
X153313042Y-85509290D01*
X153298724Y-85507166D01*
X153284683Y-85503649D01*
X153271054Y-85498772D01*
X153257969Y-85492583D01*
X153245553Y-85485142D01*
X153233927Y-85476519D01*
X153223202Y-85466798D01*
X153213481Y-85456073D01*
X153204858Y-85444447D01*
X153197417Y-85432031D01*
X153191228Y-85418946D01*
X153186351Y-85405317D01*
X153182834Y-85391276D01*
X153180710Y-85376958D01*
X153180000Y-85362500D01*
X153180000Y-85067500D01*
X153180710Y-85053042D01*
X153182834Y-85038724D01*
X153186351Y-85024683D01*
X153191228Y-85011054D01*
X153197417Y-84997969D01*
X153204858Y-84985553D01*
X153213481Y-84973927D01*
X153223202Y-84963202D01*
X153233927Y-84953481D01*
X153245553Y-84944858D01*
X153257969Y-84937417D01*
X153271054Y-84931228D01*
X153284683Y-84926351D01*
X153298724Y-84922834D01*
X153313042Y-84920710D01*
X153327500Y-84920000D01*
X153672500Y-84920000D01*
X153686958Y-84920710D01*
X153686958Y-84920710D01*
G37*
D13*
G04 #@! TD*
G04 #@! TO.P,R1,1*
G04 #@! TO.N,Net-(J3-Pad2)*
X153500000Y-85215000D03*
D12*
G04 #@! TO.N,/E0*
G04 #@! TO.C,R1*
G36*
X138686958Y-85890710D02*
X138701276Y-85892834D01*
X138715317Y-85896351D01*
X138728946Y-85901228D01*
X138742031Y-85907417D01*
X138754447Y-85914858D01*
X138766073Y-85923481D01*
X138776798Y-85933202D01*
X138786519Y-85943927D01*
X138795142Y-85955553D01*
X138802583Y-85967969D01*
X138808772Y-85981054D01*
X138813649Y-85994683D01*
X138817166Y-86008724D01*
X138819290Y-86023042D01*
X138820000Y-86037500D01*
X138820000Y-86332500D01*
X138819290Y-86346958D01*
X138817166Y-86361276D01*
X138813649Y-86375317D01*
X138808772Y-86388946D01*
X138802583Y-86402031D01*
X138795142Y-86414447D01*
X138786519Y-86426073D01*
X138776798Y-86436798D01*
X138766073Y-86446519D01*
X138754447Y-86455142D01*
X138742031Y-86462583D01*
X138728946Y-86468772D01*
X138715317Y-86473649D01*
X138701276Y-86477166D01*
X138686958Y-86479290D01*
X138672500Y-86480000D01*
X138327500Y-86480000D01*
X138313042Y-86479290D01*
X138298724Y-86477166D01*
X138284683Y-86473649D01*
X138271054Y-86468772D01*
X138257969Y-86462583D01*
X138245553Y-86455142D01*
X138233927Y-86446519D01*
X138223202Y-86436798D01*
X138213481Y-86426073D01*
X138204858Y-86414447D01*
X138197417Y-86402031D01*
X138191228Y-86388946D01*
X138186351Y-86375317D01*
X138182834Y-86361276D01*
X138180710Y-86346958D01*
X138180000Y-86332500D01*
X138180000Y-86037500D01*
X138180710Y-86023042D01*
X138182834Y-86008724D01*
X138186351Y-85994683D01*
X138191228Y-85981054D01*
X138197417Y-85967969D01*
X138204858Y-85955553D01*
X138213481Y-85943927D01*
X138223202Y-85933202D01*
X138233927Y-85923481D01*
X138245553Y-85914858D01*
X138257969Y-85907417D01*
X138271054Y-85901228D01*
X138284683Y-85896351D01*
X138298724Y-85892834D01*
X138313042Y-85890710D01*
X138327500Y-85890000D01*
X138672500Y-85890000D01*
X138686958Y-85890710D01*
X138686958Y-85890710D01*
G37*
D13*
G04 #@! TD*
G04 #@! TO.P,R1,2*
G04 #@! TO.N,/E0*
X138500000Y-86185000D03*
D12*
G04 #@! TO.N,Net-(J3-Pad2)*
G04 #@! TO.C,R1*
G36*
X138686958Y-84920710D02*
X138701276Y-84922834D01*
X138715317Y-84926351D01*
X138728946Y-84931228D01*
X138742031Y-84937417D01*
X138754447Y-84944858D01*
X138766073Y-84953481D01*
X138776798Y-84963202D01*
X138786519Y-84973927D01*
X138795142Y-84985553D01*
X138802583Y-84997969D01*
X138808772Y-85011054D01*
X138813649Y-85024683D01*
X138817166Y-85038724D01*
X138819290Y-85053042D01*
X138820000Y-85067500D01*
X138820000Y-85362500D01*
X138819290Y-85376958D01*
X138817166Y-85391276D01*
X138813649Y-85405317D01*
X138808772Y-85418946D01*
X138802583Y-85432031D01*
X138795142Y-85444447D01*
X138786519Y-85456073D01*
X138776798Y-85466798D01*
X138766073Y-85476519D01*
X138754447Y-85485142D01*
X138742031Y-85492583D01*
X138728946Y-85498772D01*
X138715317Y-85503649D01*
X138701276Y-85507166D01*
X138686958Y-85509290D01*
X138672500Y-85510000D01*
X138327500Y-85510000D01*
X138313042Y-85509290D01*
X138298724Y-85507166D01*
X138284683Y-85503649D01*
X138271054Y-85498772D01*
X138257969Y-85492583D01*
X138245553Y-85485142D01*
X138233927Y-85476519D01*
X138223202Y-85466798D01*
X138213481Y-85456073D01*
X138204858Y-85444447D01*
X138197417Y-85432031D01*
X138191228Y-85418946D01*
X138186351Y-85405317D01*
X138182834Y-85391276D01*
X138180710Y-85376958D01*
X138180000Y-85362500D01*
X138180000Y-85067500D01*
X138180710Y-85053042D01*
X138182834Y-85038724D01*
X138186351Y-85024683D01*
X138191228Y-85011054D01*
X138197417Y-84997969D01*
X138204858Y-84985553D01*
X138213481Y-84973927D01*
X138223202Y-84963202D01*
X138233927Y-84953481D01*
X138245553Y-84944858D01*
X138257969Y-84937417D01*
X138271054Y-84931228D01*
X138284683Y-84926351D01*
X138298724Y-84922834D01*
X138313042Y-84920710D01*
X138327500Y-84920000D01*
X138672500Y-84920000D01*
X138686958Y-84920710D01*
X138686958Y-84920710D01*
G37*
D13*
G04 #@! TD*
G04 #@! TO.P,R1,1*
G04 #@! TO.N,Net-(J3-Pad2)*
X138500000Y-85215000D03*
D12*
G04 #@! TO.N,/E0*
G04 #@! TO.C,R1*
G36*
X183686958Y-73890710D02*
X183701276Y-73892834D01*
X183715317Y-73896351D01*
X183728946Y-73901228D01*
X183742031Y-73907417D01*
X183754447Y-73914858D01*
X183766073Y-73923481D01*
X183776798Y-73933202D01*
X183786519Y-73943927D01*
X183795142Y-73955553D01*
X183802583Y-73967969D01*
X183808772Y-73981054D01*
X183813649Y-73994683D01*
X183817166Y-74008724D01*
X183819290Y-74023042D01*
X183820000Y-74037500D01*
X183820000Y-74332500D01*
X183819290Y-74346958D01*
X183817166Y-74361276D01*
X183813649Y-74375317D01*
X183808772Y-74388946D01*
X183802583Y-74402031D01*
X183795142Y-74414447D01*
X183786519Y-74426073D01*
X183776798Y-74436798D01*
X183766073Y-74446519D01*
X183754447Y-74455142D01*
X183742031Y-74462583D01*
X183728946Y-74468772D01*
X183715317Y-74473649D01*
X183701276Y-74477166D01*
X183686958Y-74479290D01*
X183672500Y-74480000D01*
X183327500Y-74480000D01*
X183313042Y-74479290D01*
X183298724Y-74477166D01*
X183284683Y-74473649D01*
X183271054Y-74468772D01*
X183257969Y-74462583D01*
X183245553Y-74455142D01*
X183233927Y-74446519D01*
X183223202Y-74436798D01*
X183213481Y-74426073D01*
X183204858Y-74414447D01*
X183197417Y-74402031D01*
X183191228Y-74388946D01*
X183186351Y-74375317D01*
X183182834Y-74361276D01*
X183180710Y-74346958D01*
X183180000Y-74332500D01*
X183180000Y-74037500D01*
X183180710Y-74023042D01*
X183182834Y-74008724D01*
X183186351Y-73994683D01*
X183191228Y-73981054D01*
X183197417Y-73967969D01*
X183204858Y-73955553D01*
X183213481Y-73943927D01*
X183223202Y-73933202D01*
X183233927Y-73923481D01*
X183245553Y-73914858D01*
X183257969Y-73907417D01*
X183271054Y-73901228D01*
X183284683Y-73896351D01*
X183298724Y-73892834D01*
X183313042Y-73890710D01*
X183327500Y-73890000D01*
X183672500Y-73890000D01*
X183686958Y-73890710D01*
X183686958Y-73890710D01*
G37*
D13*
G04 #@! TD*
G04 #@! TO.P,R1,2*
G04 #@! TO.N,/E0*
X183500000Y-74185000D03*
D12*
G04 #@! TO.N,Net-(J3-Pad2)*
G04 #@! TO.C,R1*
G36*
X183686958Y-72920710D02*
X183701276Y-72922834D01*
X183715317Y-72926351D01*
X183728946Y-72931228D01*
X183742031Y-72937417D01*
X183754447Y-72944858D01*
X183766073Y-72953481D01*
X183776798Y-72963202D01*
X183786519Y-72973927D01*
X183795142Y-72985553D01*
X183802583Y-72997969D01*
X183808772Y-73011054D01*
X183813649Y-73024683D01*
X183817166Y-73038724D01*
X183819290Y-73053042D01*
X183820000Y-73067500D01*
X183820000Y-73362500D01*
X183819290Y-73376958D01*
X183817166Y-73391276D01*
X183813649Y-73405317D01*
X183808772Y-73418946D01*
X183802583Y-73432031D01*
X183795142Y-73444447D01*
X183786519Y-73456073D01*
X183776798Y-73466798D01*
X183766073Y-73476519D01*
X183754447Y-73485142D01*
X183742031Y-73492583D01*
X183728946Y-73498772D01*
X183715317Y-73503649D01*
X183701276Y-73507166D01*
X183686958Y-73509290D01*
X183672500Y-73510000D01*
X183327500Y-73510000D01*
X183313042Y-73509290D01*
X183298724Y-73507166D01*
X183284683Y-73503649D01*
X183271054Y-73498772D01*
X183257969Y-73492583D01*
X183245553Y-73485142D01*
X183233927Y-73476519D01*
X183223202Y-73466798D01*
X183213481Y-73456073D01*
X183204858Y-73444447D01*
X183197417Y-73432031D01*
X183191228Y-73418946D01*
X183186351Y-73405317D01*
X183182834Y-73391276D01*
X183180710Y-73376958D01*
X183180000Y-73362500D01*
X183180000Y-73067500D01*
X183180710Y-73053042D01*
X183182834Y-73038724D01*
X183186351Y-73024683D01*
X183191228Y-73011054D01*
X183197417Y-72997969D01*
X183204858Y-72985553D01*
X183213481Y-72973927D01*
X183223202Y-72963202D01*
X183233927Y-72953481D01*
X183245553Y-72944858D01*
X183257969Y-72937417D01*
X183271054Y-72931228D01*
X183284683Y-72926351D01*
X183298724Y-72922834D01*
X183313042Y-72920710D01*
X183327500Y-72920000D01*
X183672500Y-72920000D01*
X183686958Y-72920710D01*
X183686958Y-72920710D01*
G37*
D13*
G04 #@! TD*
G04 #@! TO.P,R1,1*
G04 #@! TO.N,Net-(J3-Pad2)*
X183500000Y-73215000D03*
D12*
G04 #@! TO.N,/E0*
G04 #@! TO.C,R1*
G36*
X168686958Y-73890710D02*
X168701276Y-73892834D01*
X168715317Y-73896351D01*
X168728946Y-73901228D01*
X168742031Y-73907417D01*
X168754447Y-73914858D01*
X168766073Y-73923481D01*
X168776798Y-73933202D01*
X168786519Y-73943927D01*
X168795142Y-73955553D01*
X168802583Y-73967969D01*
X168808772Y-73981054D01*
X168813649Y-73994683D01*
X168817166Y-74008724D01*
X168819290Y-74023042D01*
X168820000Y-74037500D01*
X168820000Y-74332500D01*
X168819290Y-74346958D01*
X168817166Y-74361276D01*
X168813649Y-74375317D01*
X168808772Y-74388946D01*
X168802583Y-74402031D01*
X168795142Y-74414447D01*
X168786519Y-74426073D01*
X168776798Y-74436798D01*
X168766073Y-74446519D01*
X168754447Y-74455142D01*
X168742031Y-74462583D01*
X168728946Y-74468772D01*
X168715317Y-74473649D01*
X168701276Y-74477166D01*
X168686958Y-74479290D01*
X168672500Y-74480000D01*
X168327500Y-74480000D01*
X168313042Y-74479290D01*
X168298724Y-74477166D01*
X168284683Y-74473649D01*
X168271054Y-74468772D01*
X168257969Y-74462583D01*
X168245553Y-74455142D01*
X168233927Y-74446519D01*
X168223202Y-74436798D01*
X168213481Y-74426073D01*
X168204858Y-74414447D01*
X168197417Y-74402031D01*
X168191228Y-74388946D01*
X168186351Y-74375317D01*
X168182834Y-74361276D01*
X168180710Y-74346958D01*
X168180000Y-74332500D01*
X168180000Y-74037500D01*
X168180710Y-74023042D01*
X168182834Y-74008724D01*
X168186351Y-73994683D01*
X168191228Y-73981054D01*
X168197417Y-73967969D01*
X168204858Y-73955553D01*
X168213481Y-73943927D01*
X168223202Y-73933202D01*
X168233927Y-73923481D01*
X168245553Y-73914858D01*
X168257969Y-73907417D01*
X168271054Y-73901228D01*
X168284683Y-73896351D01*
X168298724Y-73892834D01*
X168313042Y-73890710D01*
X168327500Y-73890000D01*
X168672500Y-73890000D01*
X168686958Y-73890710D01*
X168686958Y-73890710D01*
G37*
D13*
G04 #@! TD*
G04 #@! TO.P,R1,2*
G04 #@! TO.N,/E0*
X168500000Y-74185000D03*
D12*
G04 #@! TO.N,Net-(J3-Pad2)*
G04 #@! TO.C,R1*
G36*
X168686958Y-72920710D02*
X168701276Y-72922834D01*
X168715317Y-72926351D01*
X168728946Y-72931228D01*
X168742031Y-72937417D01*
X168754447Y-72944858D01*
X168766073Y-72953481D01*
X168776798Y-72963202D01*
X168786519Y-72973927D01*
X168795142Y-72985553D01*
X168802583Y-72997969D01*
X168808772Y-73011054D01*
X168813649Y-73024683D01*
X168817166Y-73038724D01*
X168819290Y-73053042D01*
X168820000Y-73067500D01*
X168820000Y-73362500D01*
X168819290Y-73376958D01*
X168817166Y-73391276D01*
X168813649Y-73405317D01*
X168808772Y-73418946D01*
X168802583Y-73432031D01*
X168795142Y-73444447D01*
X168786519Y-73456073D01*
X168776798Y-73466798D01*
X168766073Y-73476519D01*
X168754447Y-73485142D01*
X168742031Y-73492583D01*
X168728946Y-73498772D01*
X168715317Y-73503649D01*
X168701276Y-73507166D01*
X168686958Y-73509290D01*
X168672500Y-73510000D01*
X168327500Y-73510000D01*
X168313042Y-73509290D01*
X168298724Y-73507166D01*
X168284683Y-73503649D01*
X168271054Y-73498772D01*
X168257969Y-73492583D01*
X168245553Y-73485142D01*
X168233927Y-73476519D01*
X168223202Y-73466798D01*
X168213481Y-73456073D01*
X168204858Y-73444447D01*
X168197417Y-73432031D01*
X168191228Y-73418946D01*
X168186351Y-73405317D01*
X168182834Y-73391276D01*
X168180710Y-73376958D01*
X168180000Y-73362500D01*
X168180000Y-73067500D01*
X168180710Y-73053042D01*
X168182834Y-73038724D01*
X168186351Y-73024683D01*
X168191228Y-73011054D01*
X168197417Y-72997969D01*
X168204858Y-72985553D01*
X168213481Y-72973927D01*
X168223202Y-72963202D01*
X168233927Y-72953481D01*
X168245553Y-72944858D01*
X168257969Y-72937417D01*
X168271054Y-72931228D01*
X168284683Y-72926351D01*
X168298724Y-72922834D01*
X168313042Y-72920710D01*
X168327500Y-72920000D01*
X168672500Y-72920000D01*
X168686958Y-72920710D01*
X168686958Y-72920710D01*
G37*
D13*
G04 #@! TD*
G04 #@! TO.P,R1,1*
G04 #@! TO.N,Net-(J3-Pad2)*
X168500000Y-73215000D03*
D12*
G04 #@! TO.N,/E0*
G04 #@! TO.C,R1*
G36*
X153686958Y-73890710D02*
X153701276Y-73892834D01*
X153715317Y-73896351D01*
X153728946Y-73901228D01*
X153742031Y-73907417D01*
X153754447Y-73914858D01*
X153766073Y-73923481D01*
X153776798Y-73933202D01*
X153786519Y-73943927D01*
X153795142Y-73955553D01*
X153802583Y-73967969D01*
X153808772Y-73981054D01*
X153813649Y-73994683D01*
X153817166Y-74008724D01*
X153819290Y-74023042D01*
X153820000Y-74037500D01*
X153820000Y-74332500D01*
X153819290Y-74346958D01*
X153817166Y-74361276D01*
X153813649Y-74375317D01*
X153808772Y-74388946D01*
X153802583Y-74402031D01*
X153795142Y-74414447D01*
X153786519Y-74426073D01*
X153776798Y-74436798D01*
X153766073Y-74446519D01*
X153754447Y-74455142D01*
X153742031Y-74462583D01*
X153728946Y-74468772D01*
X153715317Y-74473649D01*
X153701276Y-74477166D01*
X153686958Y-74479290D01*
X153672500Y-74480000D01*
X153327500Y-74480000D01*
X153313042Y-74479290D01*
X153298724Y-74477166D01*
X153284683Y-74473649D01*
X153271054Y-74468772D01*
X153257969Y-74462583D01*
X153245553Y-74455142D01*
X153233927Y-74446519D01*
X153223202Y-74436798D01*
X153213481Y-74426073D01*
X153204858Y-74414447D01*
X153197417Y-74402031D01*
X153191228Y-74388946D01*
X153186351Y-74375317D01*
X153182834Y-74361276D01*
X153180710Y-74346958D01*
X153180000Y-74332500D01*
X153180000Y-74037500D01*
X153180710Y-74023042D01*
X153182834Y-74008724D01*
X153186351Y-73994683D01*
X153191228Y-73981054D01*
X153197417Y-73967969D01*
X153204858Y-73955553D01*
X153213481Y-73943927D01*
X153223202Y-73933202D01*
X153233927Y-73923481D01*
X153245553Y-73914858D01*
X153257969Y-73907417D01*
X153271054Y-73901228D01*
X153284683Y-73896351D01*
X153298724Y-73892834D01*
X153313042Y-73890710D01*
X153327500Y-73890000D01*
X153672500Y-73890000D01*
X153686958Y-73890710D01*
X153686958Y-73890710D01*
G37*
D13*
G04 #@! TD*
G04 #@! TO.P,R1,2*
G04 #@! TO.N,/E0*
X153500000Y-74185000D03*
D12*
G04 #@! TO.N,Net-(J3-Pad2)*
G04 #@! TO.C,R1*
G36*
X153686958Y-72920710D02*
X153701276Y-72922834D01*
X153715317Y-72926351D01*
X153728946Y-72931228D01*
X153742031Y-72937417D01*
X153754447Y-72944858D01*
X153766073Y-72953481D01*
X153776798Y-72963202D01*
X153786519Y-72973927D01*
X153795142Y-72985553D01*
X153802583Y-72997969D01*
X153808772Y-73011054D01*
X153813649Y-73024683D01*
X153817166Y-73038724D01*
X153819290Y-73053042D01*
X153820000Y-73067500D01*
X153820000Y-73362500D01*
X153819290Y-73376958D01*
X153817166Y-73391276D01*
X153813649Y-73405317D01*
X153808772Y-73418946D01*
X153802583Y-73432031D01*
X153795142Y-73444447D01*
X153786519Y-73456073D01*
X153776798Y-73466798D01*
X153766073Y-73476519D01*
X153754447Y-73485142D01*
X153742031Y-73492583D01*
X153728946Y-73498772D01*
X153715317Y-73503649D01*
X153701276Y-73507166D01*
X153686958Y-73509290D01*
X153672500Y-73510000D01*
X153327500Y-73510000D01*
X153313042Y-73509290D01*
X153298724Y-73507166D01*
X153284683Y-73503649D01*
X153271054Y-73498772D01*
X153257969Y-73492583D01*
X153245553Y-73485142D01*
X153233927Y-73476519D01*
X153223202Y-73466798D01*
X153213481Y-73456073D01*
X153204858Y-73444447D01*
X153197417Y-73432031D01*
X153191228Y-73418946D01*
X153186351Y-73405317D01*
X153182834Y-73391276D01*
X153180710Y-73376958D01*
X153180000Y-73362500D01*
X153180000Y-73067500D01*
X153180710Y-73053042D01*
X153182834Y-73038724D01*
X153186351Y-73024683D01*
X153191228Y-73011054D01*
X153197417Y-72997969D01*
X153204858Y-72985553D01*
X153213481Y-72973927D01*
X153223202Y-72963202D01*
X153233927Y-72953481D01*
X153245553Y-72944858D01*
X153257969Y-72937417D01*
X153271054Y-72931228D01*
X153284683Y-72926351D01*
X153298724Y-72922834D01*
X153313042Y-72920710D01*
X153327500Y-72920000D01*
X153672500Y-72920000D01*
X153686958Y-72920710D01*
X153686958Y-72920710D01*
G37*
D13*
G04 #@! TD*
G04 #@! TO.P,R1,1*
G04 #@! TO.N,Net-(J3-Pad2)*
X153500000Y-73215000D03*
D12*
G04 #@! TO.N,Net-(J4-Pad2)*
G04 #@! TO.C,R2*
G36*
X183686958Y-102290710D02*
X183701276Y-102292834D01*
X183715317Y-102296351D01*
X183728946Y-102301228D01*
X183742031Y-102307417D01*
X183754447Y-102314858D01*
X183766073Y-102323481D01*
X183776798Y-102333202D01*
X183786519Y-102343927D01*
X183795142Y-102355553D01*
X183802583Y-102367969D01*
X183808772Y-102381054D01*
X183813649Y-102394683D01*
X183817166Y-102408724D01*
X183819290Y-102423042D01*
X183820000Y-102437500D01*
X183820000Y-102732500D01*
X183819290Y-102746958D01*
X183817166Y-102761276D01*
X183813649Y-102775317D01*
X183808772Y-102788946D01*
X183802583Y-102802031D01*
X183795142Y-102814447D01*
X183786519Y-102826073D01*
X183776798Y-102836798D01*
X183766073Y-102846519D01*
X183754447Y-102855142D01*
X183742031Y-102862583D01*
X183728946Y-102868772D01*
X183715317Y-102873649D01*
X183701276Y-102877166D01*
X183686958Y-102879290D01*
X183672500Y-102880000D01*
X183327500Y-102880000D01*
X183313042Y-102879290D01*
X183298724Y-102877166D01*
X183284683Y-102873649D01*
X183271054Y-102868772D01*
X183257969Y-102862583D01*
X183245553Y-102855142D01*
X183233927Y-102846519D01*
X183223202Y-102836798D01*
X183213481Y-102826073D01*
X183204858Y-102814447D01*
X183197417Y-102802031D01*
X183191228Y-102788946D01*
X183186351Y-102775317D01*
X183182834Y-102761276D01*
X183180710Y-102746958D01*
X183180000Y-102732500D01*
X183180000Y-102437500D01*
X183180710Y-102423042D01*
X183182834Y-102408724D01*
X183186351Y-102394683D01*
X183191228Y-102381054D01*
X183197417Y-102367969D01*
X183204858Y-102355553D01*
X183213481Y-102343927D01*
X183223202Y-102333202D01*
X183233927Y-102323481D01*
X183245553Y-102314858D01*
X183257969Y-102307417D01*
X183271054Y-102301228D01*
X183284683Y-102296351D01*
X183298724Y-102292834D01*
X183313042Y-102290710D01*
X183327500Y-102290000D01*
X183672500Y-102290000D01*
X183686958Y-102290710D01*
X183686958Y-102290710D01*
G37*
D13*
G04 #@! TD*
G04 #@! TO.P,R2,1*
G04 #@! TO.N,Net-(J4-Pad2)*
X183500000Y-102585000D03*
D12*
G04 #@! TO.N,/E1*
G04 #@! TO.C,R2*
G36*
X183686958Y-101320710D02*
X183701276Y-101322834D01*
X183715317Y-101326351D01*
X183728946Y-101331228D01*
X183742031Y-101337417D01*
X183754447Y-101344858D01*
X183766073Y-101353481D01*
X183776798Y-101363202D01*
X183786519Y-101373927D01*
X183795142Y-101385553D01*
X183802583Y-101397969D01*
X183808772Y-101411054D01*
X183813649Y-101424683D01*
X183817166Y-101438724D01*
X183819290Y-101453042D01*
X183820000Y-101467500D01*
X183820000Y-101762500D01*
X183819290Y-101776958D01*
X183817166Y-101791276D01*
X183813649Y-101805317D01*
X183808772Y-101818946D01*
X183802583Y-101832031D01*
X183795142Y-101844447D01*
X183786519Y-101856073D01*
X183776798Y-101866798D01*
X183766073Y-101876519D01*
X183754447Y-101885142D01*
X183742031Y-101892583D01*
X183728946Y-101898772D01*
X183715317Y-101903649D01*
X183701276Y-101907166D01*
X183686958Y-101909290D01*
X183672500Y-101910000D01*
X183327500Y-101910000D01*
X183313042Y-101909290D01*
X183298724Y-101907166D01*
X183284683Y-101903649D01*
X183271054Y-101898772D01*
X183257969Y-101892583D01*
X183245553Y-101885142D01*
X183233927Y-101876519D01*
X183223202Y-101866798D01*
X183213481Y-101856073D01*
X183204858Y-101844447D01*
X183197417Y-101832031D01*
X183191228Y-101818946D01*
X183186351Y-101805317D01*
X183182834Y-101791276D01*
X183180710Y-101776958D01*
X183180000Y-101762500D01*
X183180000Y-101467500D01*
X183180710Y-101453042D01*
X183182834Y-101438724D01*
X183186351Y-101424683D01*
X183191228Y-101411054D01*
X183197417Y-101397969D01*
X183204858Y-101385553D01*
X183213481Y-101373927D01*
X183223202Y-101363202D01*
X183233927Y-101353481D01*
X183245553Y-101344858D01*
X183257969Y-101337417D01*
X183271054Y-101331228D01*
X183284683Y-101326351D01*
X183298724Y-101322834D01*
X183313042Y-101320710D01*
X183327500Y-101320000D01*
X183672500Y-101320000D01*
X183686958Y-101320710D01*
X183686958Y-101320710D01*
G37*
D13*
G04 #@! TD*
G04 #@! TO.P,R2,2*
G04 #@! TO.N,/E1*
X183500000Y-101615000D03*
D12*
G04 #@! TO.N,Net-(J4-Pad2)*
G04 #@! TO.C,R2*
G36*
X168686958Y-102290710D02*
X168701276Y-102292834D01*
X168715317Y-102296351D01*
X168728946Y-102301228D01*
X168742031Y-102307417D01*
X168754447Y-102314858D01*
X168766073Y-102323481D01*
X168776798Y-102333202D01*
X168786519Y-102343927D01*
X168795142Y-102355553D01*
X168802583Y-102367969D01*
X168808772Y-102381054D01*
X168813649Y-102394683D01*
X168817166Y-102408724D01*
X168819290Y-102423042D01*
X168820000Y-102437500D01*
X168820000Y-102732500D01*
X168819290Y-102746958D01*
X168817166Y-102761276D01*
X168813649Y-102775317D01*
X168808772Y-102788946D01*
X168802583Y-102802031D01*
X168795142Y-102814447D01*
X168786519Y-102826073D01*
X168776798Y-102836798D01*
X168766073Y-102846519D01*
X168754447Y-102855142D01*
X168742031Y-102862583D01*
X168728946Y-102868772D01*
X168715317Y-102873649D01*
X168701276Y-102877166D01*
X168686958Y-102879290D01*
X168672500Y-102880000D01*
X168327500Y-102880000D01*
X168313042Y-102879290D01*
X168298724Y-102877166D01*
X168284683Y-102873649D01*
X168271054Y-102868772D01*
X168257969Y-102862583D01*
X168245553Y-102855142D01*
X168233927Y-102846519D01*
X168223202Y-102836798D01*
X168213481Y-102826073D01*
X168204858Y-102814447D01*
X168197417Y-102802031D01*
X168191228Y-102788946D01*
X168186351Y-102775317D01*
X168182834Y-102761276D01*
X168180710Y-102746958D01*
X168180000Y-102732500D01*
X168180000Y-102437500D01*
X168180710Y-102423042D01*
X168182834Y-102408724D01*
X168186351Y-102394683D01*
X168191228Y-102381054D01*
X168197417Y-102367969D01*
X168204858Y-102355553D01*
X168213481Y-102343927D01*
X168223202Y-102333202D01*
X168233927Y-102323481D01*
X168245553Y-102314858D01*
X168257969Y-102307417D01*
X168271054Y-102301228D01*
X168284683Y-102296351D01*
X168298724Y-102292834D01*
X168313042Y-102290710D01*
X168327500Y-102290000D01*
X168672500Y-102290000D01*
X168686958Y-102290710D01*
X168686958Y-102290710D01*
G37*
D13*
G04 #@! TD*
G04 #@! TO.P,R2,1*
G04 #@! TO.N,Net-(J4-Pad2)*
X168500000Y-102585000D03*
D12*
G04 #@! TO.N,/E1*
G04 #@! TO.C,R2*
G36*
X168686958Y-101320710D02*
X168701276Y-101322834D01*
X168715317Y-101326351D01*
X168728946Y-101331228D01*
X168742031Y-101337417D01*
X168754447Y-101344858D01*
X168766073Y-101353481D01*
X168776798Y-101363202D01*
X168786519Y-101373927D01*
X168795142Y-101385553D01*
X168802583Y-101397969D01*
X168808772Y-101411054D01*
X168813649Y-101424683D01*
X168817166Y-101438724D01*
X168819290Y-101453042D01*
X168820000Y-101467500D01*
X168820000Y-101762500D01*
X168819290Y-101776958D01*
X168817166Y-101791276D01*
X168813649Y-101805317D01*
X168808772Y-101818946D01*
X168802583Y-101832031D01*
X168795142Y-101844447D01*
X168786519Y-101856073D01*
X168776798Y-101866798D01*
X168766073Y-101876519D01*
X168754447Y-101885142D01*
X168742031Y-101892583D01*
X168728946Y-101898772D01*
X168715317Y-101903649D01*
X168701276Y-101907166D01*
X168686958Y-101909290D01*
X168672500Y-101910000D01*
X168327500Y-101910000D01*
X168313042Y-101909290D01*
X168298724Y-101907166D01*
X168284683Y-101903649D01*
X168271054Y-101898772D01*
X168257969Y-101892583D01*
X168245553Y-101885142D01*
X168233927Y-101876519D01*
X168223202Y-101866798D01*
X168213481Y-101856073D01*
X168204858Y-101844447D01*
X168197417Y-101832031D01*
X168191228Y-101818946D01*
X168186351Y-101805317D01*
X168182834Y-101791276D01*
X168180710Y-101776958D01*
X168180000Y-101762500D01*
X168180000Y-101467500D01*
X168180710Y-101453042D01*
X168182834Y-101438724D01*
X168186351Y-101424683D01*
X168191228Y-101411054D01*
X168197417Y-101397969D01*
X168204858Y-101385553D01*
X168213481Y-101373927D01*
X168223202Y-101363202D01*
X168233927Y-101353481D01*
X168245553Y-101344858D01*
X168257969Y-101337417D01*
X168271054Y-101331228D01*
X168284683Y-101326351D01*
X168298724Y-101322834D01*
X168313042Y-101320710D01*
X168327500Y-101320000D01*
X168672500Y-101320000D01*
X168686958Y-101320710D01*
X168686958Y-101320710D01*
G37*
D13*
G04 #@! TD*
G04 #@! TO.P,R2,2*
G04 #@! TO.N,/E1*
X168500000Y-101615000D03*
D12*
G04 #@! TO.N,Net-(J4-Pad2)*
G04 #@! TO.C,R2*
G36*
X153686958Y-102290710D02*
X153701276Y-102292834D01*
X153715317Y-102296351D01*
X153728946Y-102301228D01*
X153742031Y-102307417D01*
X153754447Y-102314858D01*
X153766073Y-102323481D01*
X153776798Y-102333202D01*
X153786519Y-102343927D01*
X153795142Y-102355553D01*
X153802583Y-102367969D01*
X153808772Y-102381054D01*
X153813649Y-102394683D01*
X153817166Y-102408724D01*
X153819290Y-102423042D01*
X153820000Y-102437500D01*
X153820000Y-102732500D01*
X153819290Y-102746958D01*
X153817166Y-102761276D01*
X153813649Y-102775317D01*
X153808772Y-102788946D01*
X153802583Y-102802031D01*
X153795142Y-102814447D01*
X153786519Y-102826073D01*
X153776798Y-102836798D01*
X153766073Y-102846519D01*
X153754447Y-102855142D01*
X153742031Y-102862583D01*
X153728946Y-102868772D01*
X153715317Y-102873649D01*
X153701276Y-102877166D01*
X153686958Y-102879290D01*
X153672500Y-102880000D01*
X153327500Y-102880000D01*
X153313042Y-102879290D01*
X153298724Y-102877166D01*
X153284683Y-102873649D01*
X153271054Y-102868772D01*
X153257969Y-102862583D01*
X153245553Y-102855142D01*
X153233927Y-102846519D01*
X153223202Y-102836798D01*
X153213481Y-102826073D01*
X153204858Y-102814447D01*
X153197417Y-102802031D01*
X153191228Y-102788946D01*
X153186351Y-102775317D01*
X153182834Y-102761276D01*
X153180710Y-102746958D01*
X153180000Y-102732500D01*
X153180000Y-102437500D01*
X153180710Y-102423042D01*
X153182834Y-102408724D01*
X153186351Y-102394683D01*
X153191228Y-102381054D01*
X153197417Y-102367969D01*
X153204858Y-102355553D01*
X153213481Y-102343927D01*
X153223202Y-102333202D01*
X153233927Y-102323481D01*
X153245553Y-102314858D01*
X153257969Y-102307417D01*
X153271054Y-102301228D01*
X153284683Y-102296351D01*
X153298724Y-102292834D01*
X153313042Y-102290710D01*
X153327500Y-102290000D01*
X153672500Y-102290000D01*
X153686958Y-102290710D01*
X153686958Y-102290710D01*
G37*
D13*
G04 #@! TD*
G04 #@! TO.P,R2,1*
G04 #@! TO.N,Net-(J4-Pad2)*
X153500000Y-102585000D03*
D12*
G04 #@! TO.N,/E1*
G04 #@! TO.C,R2*
G36*
X153686958Y-101320710D02*
X153701276Y-101322834D01*
X153715317Y-101326351D01*
X153728946Y-101331228D01*
X153742031Y-101337417D01*
X153754447Y-101344858D01*
X153766073Y-101353481D01*
X153776798Y-101363202D01*
X153786519Y-101373927D01*
X153795142Y-101385553D01*
X153802583Y-101397969D01*
X153808772Y-101411054D01*
X153813649Y-101424683D01*
X153817166Y-101438724D01*
X153819290Y-101453042D01*
X153820000Y-101467500D01*
X153820000Y-101762500D01*
X153819290Y-101776958D01*
X153817166Y-101791276D01*
X153813649Y-101805317D01*
X153808772Y-101818946D01*
X153802583Y-101832031D01*
X153795142Y-101844447D01*
X153786519Y-101856073D01*
X153776798Y-101866798D01*
X153766073Y-101876519D01*
X153754447Y-101885142D01*
X153742031Y-101892583D01*
X153728946Y-101898772D01*
X153715317Y-101903649D01*
X153701276Y-101907166D01*
X153686958Y-101909290D01*
X153672500Y-101910000D01*
X153327500Y-101910000D01*
X153313042Y-101909290D01*
X153298724Y-101907166D01*
X153284683Y-101903649D01*
X153271054Y-101898772D01*
X153257969Y-101892583D01*
X153245553Y-101885142D01*
X153233927Y-101876519D01*
X153223202Y-101866798D01*
X153213481Y-101856073D01*
X153204858Y-101844447D01*
X153197417Y-101832031D01*
X153191228Y-101818946D01*
X153186351Y-101805317D01*
X153182834Y-101791276D01*
X153180710Y-101776958D01*
X153180000Y-101762500D01*
X153180000Y-101467500D01*
X153180710Y-101453042D01*
X153182834Y-101438724D01*
X153186351Y-101424683D01*
X153191228Y-101411054D01*
X153197417Y-101397969D01*
X153204858Y-101385553D01*
X153213481Y-101373927D01*
X153223202Y-101363202D01*
X153233927Y-101353481D01*
X153245553Y-101344858D01*
X153257969Y-101337417D01*
X153271054Y-101331228D01*
X153284683Y-101326351D01*
X153298724Y-101322834D01*
X153313042Y-101320710D01*
X153327500Y-101320000D01*
X153672500Y-101320000D01*
X153686958Y-101320710D01*
X153686958Y-101320710D01*
G37*
D13*
G04 #@! TD*
G04 #@! TO.P,R2,2*
G04 #@! TO.N,/E1*
X153500000Y-101615000D03*
D12*
G04 #@! TO.N,Net-(J4-Pad2)*
G04 #@! TO.C,R2*
G36*
X138686958Y-102290710D02*
X138701276Y-102292834D01*
X138715317Y-102296351D01*
X138728946Y-102301228D01*
X138742031Y-102307417D01*
X138754447Y-102314858D01*
X138766073Y-102323481D01*
X138776798Y-102333202D01*
X138786519Y-102343927D01*
X138795142Y-102355553D01*
X138802583Y-102367969D01*
X138808772Y-102381054D01*
X138813649Y-102394683D01*
X138817166Y-102408724D01*
X138819290Y-102423042D01*
X138820000Y-102437500D01*
X138820000Y-102732500D01*
X138819290Y-102746958D01*
X138817166Y-102761276D01*
X138813649Y-102775317D01*
X138808772Y-102788946D01*
X138802583Y-102802031D01*
X138795142Y-102814447D01*
X138786519Y-102826073D01*
X138776798Y-102836798D01*
X138766073Y-102846519D01*
X138754447Y-102855142D01*
X138742031Y-102862583D01*
X138728946Y-102868772D01*
X138715317Y-102873649D01*
X138701276Y-102877166D01*
X138686958Y-102879290D01*
X138672500Y-102880000D01*
X138327500Y-102880000D01*
X138313042Y-102879290D01*
X138298724Y-102877166D01*
X138284683Y-102873649D01*
X138271054Y-102868772D01*
X138257969Y-102862583D01*
X138245553Y-102855142D01*
X138233927Y-102846519D01*
X138223202Y-102836798D01*
X138213481Y-102826073D01*
X138204858Y-102814447D01*
X138197417Y-102802031D01*
X138191228Y-102788946D01*
X138186351Y-102775317D01*
X138182834Y-102761276D01*
X138180710Y-102746958D01*
X138180000Y-102732500D01*
X138180000Y-102437500D01*
X138180710Y-102423042D01*
X138182834Y-102408724D01*
X138186351Y-102394683D01*
X138191228Y-102381054D01*
X138197417Y-102367969D01*
X138204858Y-102355553D01*
X138213481Y-102343927D01*
X138223202Y-102333202D01*
X138233927Y-102323481D01*
X138245553Y-102314858D01*
X138257969Y-102307417D01*
X138271054Y-102301228D01*
X138284683Y-102296351D01*
X138298724Y-102292834D01*
X138313042Y-102290710D01*
X138327500Y-102290000D01*
X138672500Y-102290000D01*
X138686958Y-102290710D01*
X138686958Y-102290710D01*
G37*
D13*
G04 #@! TD*
G04 #@! TO.P,R2,1*
G04 #@! TO.N,Net-(J4-Pad2)*
X138500000Y-102585000D03*
D12*
G04 #@! TO.N,/E1*
G04 #@! TO.C,R2*
G36*
X138686958Y-101320710D02*
X138701276Y-101322834D01*
X138715317Y-101326351D01*
X138728946Y-101331228D01*
X138742031Y-101337417D01*
X138754447Y-101344858D01*
X138766073Y-101353481D01*
X138776798Y-101363202D01*
X138786519Y-101373927D01*
X138795142Y-101385553D01*
X138802583Y-101397969D01*
X138808772Y-101411054D01*
X138813649Y-101424683D01*
X138817166Y-101438724D01*
X138819290Y-101453042D01*
X138820000Y-101467500D01*
X138820000Y-101762500D01*
X138819290Y-101776958D01*
X138817166Y-101791276D01*
X138813649Y-101805317D01*
X138808772Y-101818946D01*
X138802583Y-101832031D01*
X138795142Y-101844447D01*
X138786519Y-101856073D01*
X138776798Y-101866798D01*
X138766073Y-101876519D01*
X138754447Y-101885142D01*
X138742031Y-101892583D01*
X138728946Y-101898772D01*
X138715317Y-101903649D01*
X138701276Y-101907166D01*
X138686958Y-101909290D01*
X138672500Y-101910000D01*
X138327500Y-101910000D01*
X138313042Y-101909290D01*
X138298724Y-101907166D01*
X138284683Y-101903649D01*
X138271054Y-101898772D01*
X138257969Y-101892583D01*
X138245553Y-101885142D01*
X138233927Y-101876519D01*
X138223202Y-101866798D01*
X138213481Y-101856073D01*
X138204858Y-101844447D01*
X138197417Y-101832031D01*
X138191228Y-101818946D01*
X138186351Y-101805317D01*
X138182834Y-101791276D01*
X138180710Y-101776958D01*
X138180000Y-101762500D01*
X138180000Y-101467500D01*
X138180710Y-101453042D01*
X138182834Y-101438724D01*
X138186351Y-101424683D01*
X138191228Y-101411054D01*
X138197417Y-101397969D01*
X138204858Y-101385553D01*
X138213481Y-101373927D01*
X138223202Y-101363202D01*
X138233927Y-101353481D01*
X138245553Y-101344858D01*
X138257969Y-101337417D01*
X138271054Y-101331228D01*
X138284683Y-101326351D01*
X138298724Y-101322834D01*
X138313042Y-101320710D01*
X138327500Y-101320000D01*
X138672500Y-101320000D01*
X138686958Y-101320710D01*
X138686958Y-101320710D01*
G37*
D13*
G04 #@! TD*
G04 #@! TO.P,R2,2*
G04 #@! TO.N,/E1*
X138500000Y-101615000D03*
D12*
G04 #@! TO.N,Net-(J4-Pad2)*
G04 #@! TO.C,R2*
G36*
X183686958Y-90290710D02*
X183701276Y-90292834D01*
X183715317Y-90296351D01*
X183728946Y-90301228D01*
X183742031Y-90307417D01*
X183754447Y-90314858D01*
X183766073Y-90323481D01*
X183776798Y-90333202D01*
X183786519Y-90343927D01*
X183795142Y-90355553D01*
X183802583Y-90367969D01*
X183808772Y-90381054D01*
X183813649Y-90394683D01*
X183817166Y-90408724D01*
X183819290Y-90423042D01*
X183820000Y-90437500D01*
X183820000Y-90732500D01*
X183819290Y-90746958D01*
X183817166Y-90761276D01*
X183813649Y-90775317D01*
X183808772Y-90788946D01*
X183802583Y-90802031D01*
X183795142Y-90814447D01*
X183786519Y-90826073D01*
X183776798Y-90836798D01*
X183766073Y-90846519D01*
X183754447Y-90855142D01*
X183742031Y-90862583D01*
X183728946Y-90868772D01*
X183715317Y-90873649D01*
X183701276Y-90877166D01*
X183686958Y-90879290D01*
X183672500Y-90880000D01*
X183327500Y-90880000D01*
X183313042Y-90879290D01*
X183298724Y-90877166D01*
X183284683Y-90873649D01*
X183271054Y-90868772D01*
X183257969Y-90862583D01*
X183245553Y-90855142D01*
X183233927Y-90846519D01*
X183223202Y-90836798D01*
X183213481Y-90826073D01*
X183204858Y-90814447D01*
X183197417Y-90802031D01*
X183191228Y-90788946D01*
X183186351Y-90775317D01*
X183182834Y-90761276D01*
X183180710Y-90746958D01*
X183180000Y-90732500D01*
X183180000Y-90437500D01*
X183180710Y-90423042D01*
X183182834Y-90408724D01*
X183186351Y-90394683D01*
X183191228Y-90381054D01*
X183197417Y-90367969D01*
X183204858Y-90355553D01*
X183213481Y-90343927D01*
X183223202Y-90333202D01*
X183233927Y-90323481D01*
X183245553Y-90314858D01*
X183257969Y-90307417D01*
X183271054Y-90301228D01*
X183284683Y-90296351D01*
X183298724Y-90292834D01*
X183313042Y-90290710D01*
X183327500Y-90290000D01*
X183672500Y-90290000D01*
X183686958Y-90290710D01*
X183686958Y-90290710D01*
G37*
D13*
G04 #@! TD*
G04 #@! TO.P,R2,1*
G04 #@! TO.N,Net-(J4-Pad2)*
X183500000Y-90585000D03*
D12*
G04 #@! TO.N,/E1*
G04 #@! TO.C,R2*
G36*
X183686958Y-89320710D02*
X183701276Y-89322834D01*
X183715317Y-89326351D01*
X183728946Y-89331228D01*
X183742031Y-89337417D01*
X183754447Y-89344858D01*
X183766073Y-89353481D01*
X183776798Y-89363202D01*
X183786519Y-89373927D01*
X183795142Y-89385553D01*
X183802583Y-89397969D01*
X183808772Y-89411054D01*
X183813649Y-89424683D01*
X183817166Y-89438724D01*
X183819290Y-89453042D01*
X183820000Y-89467500D01*
X183820000Y-89762500D01*
X183819290Y-89776958D01*
X183817166Y-89791276D01*
X183813649Y-89805317D01*
X183808772Y-89818946D01*
X183802583Y-89832031D01*
X183795142Y-89844447D01*
X183786519Y-89856073D01*
X183776798Y-89866798D01*
X183766073Y-89876519D01*
X183754447Y-89885142D01*
X183742031Y-89892583D01*
X183728946Y-89898772D01*
X183715317Y-89903649D01*
X183701276Y-89907166D01*
X183686958Y-89909290D01*
X183672500Y-89910000D01*
X183327500Y-89910000D01*
X183313042Y-89909290D01*
X183298724Y-89907166D01*
X183284683Y-89903649D01*
X183271054Y-89898772D01*
X183257969Y-89892583D01*
X183245553Y-89885142D01*
X183233927Y-89876519D01*
X183223202Y-89866798D01*
X183213481Y-89856073D01*
X183204858Y-89844447D01*
X183197417Y-89832031D01*
X183191228Y-89818946D01*
X183186351Y-89805317D01*
X183182834Y-89791276D01*
X183180710Y-89776958D01*
X183180000Y-89762500D01*
X183180000Y-89467500D01*
X183180710Y-89453042D01*
X183182834Y-89438724D01*
X183186351Y-89424683D01*
X183191228Y-89411054D01*
X183197417Y-89397969D01*
X183204858Y-89385553D01*
X183213481Y-89373927D01*
X183223202Y-89363202D01*
X183233927Y-89353481D01*
X183245553Y-89344858D01*
X183257969Y-89337417D01*
X183271054Y-89331228D01*
X183284683Y-89326351D01*
X183298724Y-89322834D01*
X183313042Y-89320710D01*
X183327500Y-89320000D01*
X183672500Y-89320000D01*
X183686958Y-89320710D01*
X183686958Y-89320710D01*
G37*
D13*
G04 #@! TD*
G04 #@! TO.P,R2,2*
G04 #@! TO.N,/E1*
X183500000Y-89615000D03*
D12*
G04 #@! TO.N,Net-(J4-Pad2)*
G04 #@! TO.C,R2*
G36*
X168686958Y-90290710D02*
X168701276Y-90292834D01*
X168715317Y-90296351D01*
X168728946Y-90301228D01*
X168742031Y-90307417D01*
X168754447Y-90314858D01*
X168766073Y-90323481D01*
X168776798Y-90333202D01*
X168786519Y-90343927D01*
X168795142Y-90355553D01*
X168802583Y-90367969D01*
X168808772Y-90381054D01*
X168813649Y-90394683D01*
X168817166Y-90408724D01*
X168819290Y-90423042D01*
X168820000Y-90437500D01*
X168820000Y-90732500D01*
X168819290Y-90746958D01*
X168817166Y-90761276D01*
X168813649Y-90775317D01*
X168808772Y-90788946D01*
X168802583Y-90802031D01*
X168795142Y-90814447D01*
X168786519Y-90826073D01*
X168776798Y-90836798D01*
X168766073Y-90846519D01*
X168754447Y-90855142D01*
X168742031Y-90862583D01*
X168728946Y-90868772D01*
X168715317Y-90873649D01*
X168701276Y-90877166D01*
X168686958Y-90879290D01*
X168672500Y-90880000D01*
X168327500Y-90880000D01*
X168313042Y-90879290D01*
X168298724Y-90877166D01*
X168284683Y-90873649D01*
X168271054Y-90868772D01*
X168257969Y-90862583D01*
X168245553Y-90855142D01*
X168233927Y-90846519D01*
X168223202Y-90836798D01*
X168213481Y-90826073D01*
X168204858Y-90814447D01*
X168197417Y-90802031D01*
X168191228Y-90788946D01*
X168186351Y-90775317D01*
X168182834Y-90761276D01*
X168180710Y-90746958D01*
X168180000Y-90732500D01*
X168180000Y-90437500D01*
X168180710Y-90423042D01*
X168182834Y-90408724D01*
X168186351Y-90394683D01*
X168191228Y-90381054D01*
X168197417Y-90367969D01*
X168204858Y-90355553D01*
X168213481Y-90343927D01*
X168223202Y-90333202D01*
X168233927Y-90323481D01*
X168245553Y-90314858D01*
X168257969Y-90307417D01*
X168271054Y-90301228D01*
X168284683Y-90296351D01*
X168298724Y-90292834D01*
X168313042Y-90290710D01*
X168327500Y-90290000D01*
X168672500Y-90290000D01*
X168686958Y-90290710D01*
X168686958Y-90290710D01*
G37*
D13*
G04 #@! TD*
G04 #@! TO.P,R2,1*
G04 #@! TO.N,Net-(J4-Pad2)*
X168500000Y-90585000D03*
D12*
G04 #@! TO.N,/E1*
G04 #@! TO.C,R2*
G36*
X168686958Y-89320710D02*
X168701276Y-89322834D01*
X168715317Y-89326351D01*
X168728946Y-89331228D01*
X168742031Y-89337417D01*
X168754447Y-89344858D01*
X168766073Y-89353481D01*
X168776798Y-89363202D01*
X168786519Y-89373927D01*
X168795142Y-89385553D01*
X168802583Y-89397969D01*
X168808772Y-89411054D01*
X168813649Y-89424683D01*
X168817166Y-89438724D01*
X168819290Y-89453042D01*
X168820000Y-89467500D01*
X168820000Y-89762500D01*
X168819290Y-89776958D01*
X168817166Y-89791276D01*
X168813649Y-89805317D01*
X168808772Y-89818946D01*
X168802583Y-89832031D01*
X168795142Y-89844447D01*
X168786519Y-89856073D01*
X168776798Y-89866798D01*
X168766073Y-89876519D01*
X168754447Y-89885142D01*
X168742031Y-89892583D01*
X168728946Y-89898772D01*
X168715317Y-89903649D01*
X168701276Y-89907166D01*
X168686958Y-89909290D01*
X168672500Y-89910000D01*
X168327500Y-89910000D01*
X168313042Y-89909290D01*
X168298724Y-89907166D01*
X168284683Y-89903649D01*
X168271054Y-89898772D01*
X168257969Y-89892583D01*
X168245553Y-89885142D01*
X168233927Y-89876519D01*
X168223202Y-89866798D01*
X168213481Y-89856073D01*
X168204858Y-89844447D01*
X168197417Y-89832031D01*
X168191228Y-89818946D01*
X168186351Y-89805317D01*
X168182834Y-89791276D01*
X168180710Y-89776958D01*
X168180000Y-89762500D01*
X168180000Y-89467500D01*
X168180710Y-89453042D01*
X168182834Y-89438724D01*
X168186351Y-89424683D01*
X168191228Y-89411054D01*
X168197417Y-89397969D01*
X168204858Y-89385553D01*
X168213481Y-89373927D01*
X168223202Y-89363202D01*
X168233927Y-89353481D01*
X168245553Y-89344858D01*
X168257969Y-89337417D01*
X168271054Y-89331228D01*
X168284683Y-89326351D01*
X168298724Y-89322834D01*
X168313042Y-89320710D01*
X168327500Y-89320000D01*
X168672500Y-89320000D01*
X168686958Y-89320710D01*
X168686958Y-89320710D01*
G37*
D13*
G04 #@! TD*
G04 #@! TO.P,R2,2*
G04 #@! TO.N,/E1*
X168500000Y-89615000D03*
D12*
G04 #@! TO.N,Net-(J4-Pad2)*
G04 #@! TO.C,R2*
G36*
X153686958Y-90290710D02*
X153701276Y-90292834D01*
X153715317Y-90296351D01*
X153728946Y-90301228D01*
X153742031Y-90307417D01*
X153754447Y-90314858D01*
X153766073Y-90323481D01*
X153776798Y-90333202D01*
X153786519Y-90343927D01*
X153795142Y-90355553D01*
X153802583Y-90367969D01*
X153808772Y-90381054D01*
X153813649Y-90394683D01*
X153817166Y-90408724D01*
X153819290Y-90423042D01*
X153820000Y-90437500D01*
X153820000Y-90732500D01*
X153819290Y-90746958D01*
X153817166Y-90761276D01*
X153813649Y-90775317D01*
X153808772Y-90788946D01*
X153802583Y-90802031D01*
X153795142Y-90814447D01*
X153786519Y-90826073D01*
X153776798Y-90836798D01*
X153766073Y-90846519D01*
X153754447Y-90855142D01*
X153742031Y-90862583D01*
X153728946Y-90868772D01*
X153715317Y-90873649D01*
X153701276Y-90877166D01*
X153686958Y-90879290D01*
X153672500Y-90880000D01*
X153327500Y-90880000D01*
X153313042Y-90879290D01*
X153298724Y-90877166D01*
X153284683Y-90873649D01*
X153271054Y-90868772D01*
X153257969Y-90862583D01*
X153245553Y-90855142D01*
X153233927Y-90846519D01*
X153223202Y-90836798D01*
X153213481Y-90826073D01*
X153204858Y-90814447D01*
X153197417Y-90802031D01*
X153191228Y-90788946D01*
X153186351Y-90775317D01*
X153182834Y-90761276D01*
X153180710Y-90746958D01*
X153180000Y-90732500D01*
X153180000Y-90437500D01*
X153180710Y-90423042D01*
X153182834Y-90408724D01*
X153186351Y-90394683D01*
X153191228Y-90381054D01*
X153197417Y-90367969D01*
X153204858Y-90355553D01*
X153213481Y-90343927D01*
X153223202Y-90333202D01*
X153233927Y-90323481D01*
X153245553Y-90314858D01*
X153257969Y-90307417D01*
X153271054Y-90301228D01*
X153284683Y-90296351D01*
X153298724Y-90292834D01*
X153313042Y-90290710D01*
X153327500Y-90290000D01*
X153672500Y-90290000D01*
X153686958Y-90290710D01*
X153686958Y-90290710D01*
G37*
D13*
G04 #@! TD*
G04 #@! TO.P,R2,1*
G04 #@! TO.N,Net-(J4-Pad2)*
X153500000Y-90585000D03*
D12*
G04 #@! TO.N,/E1*
G04 #@! TO.C,R2*
G36*
X153686958Y-89320710D02*
X153701276Y-89322834D01*
X153715317Y-89326351D01*
X153728946Y-89331228D01*
X153742031Y-89337417D01*
X153754447Y-89344858D01*
X153766073Y-89353481D01*
X153776798Y-89363202D01*
X153786519Y-89373927D01*
X153795142Y-89385553D01*
X153802583Y-89397969D01*
X153808772Y-89411054D01*
X153813649Y-89424683D01*
X153817166Y-89438724D01*
X153819290Y-89453042D01*
X153820000Y-89467500D01*
X153820000Y-89762500D01*
X153819290Y-89776958D01*
X153817166Y-89791276D01*
X153813649Y-89805317D01*
X153808772Y-89818946D01*
X153802583Y-89832031D01*
X153795142Y-89844447D01*
X153786519Y-89856073D01*
X153776798Y-89866798D01*
X153766073Y-89876519D01*
X153754447Y-89885142D01*
X153742031Y-89892583D01*
X153728946Y-89898772D01*
X153715317Y-89903649D01*
X153701276Y-89907166D01*
X153686958Y-89909290D01*
X153672500Y-89910000D01*
X153327500Y-89910000D01*
X153313042Y-89909290D01*
X153298724Y-89907166D01*
X153284683Y-89903649D01*
X153271054Y-89898772D01*
X153257969Y-89892583D01*
X153245553Y-89885142D01*
X153233927Y-89876519D01*
X153223202Y-89866798D01*
X153213481Y-89856073D01*
X153204858Y-89844447D01*
X153197417Y-89832031D01*
X153191228Y-89818946D01*
X153186351Y-89805317D01*
X153182834Y-89791276D01*
X153180710Y-89776958D01*
X153180000Y-89762500D01*
X153180000Y-89467500D01*
X153180710Y-89453042D01*
X153182834Y-89438724D01*
X153186351Y-89424683D01*
X153191228Y-89411054D01*
X153197417Y-89397969D01*
X153204858Y-89385553D01*
X153213481Y-89373927D01*
X153223202Y-89363202D01*
X153233927Y-89353481D01*
X153245553Y-89344858D01*
X153257969Y-89337417D01*
X153271054Y-89331228D01*
X153284683Y-89326351D01*
X153298724Y-89322834D01*
X153313042Y-89320710D01*
X153327500Y-89320000D01*
X153672500Y-89320000D01*
X153686958Y-89320710D01*
X153686958Y-89320710D01*
G37*
D13*
G04 #@! TD*
G04 #@! TO.P,R2,2*
G04 #@! TO.N,/E1*
X153500000Y-89615000D03*
D12*
G04 #@! TO.N,Net-(J4-Pad2)*
G04 #@! TO.C,R2*
G36*
X138686958Y-90290710D02*
X138701276Y-90292834D01*
X138715317Y-90296351D01*
X138728946Y-90301228D01*
X138742031Y-90307417D01*
X138754447Y-90314858D01*
X138766073Y-90323481D01*
X138776798Y-90333202D01*
X138786519Y-90343927D01*
X138795142Y-90355553D01*
X138802583Y-90367969D01*
X138808772Y-90381054D01*
X138813649Y-90394683D01*
X138817166Y-90408724D01*
X138819290Y-90423042D01*
X138820000Y-90437500D01*
X138820000Y-90732500D01*
X138819290Y-90746958D01*
X138817166Y-90761276D01*
X138813649Y-90775317D01*
X138808772Y-90788946D01*
X138802583Y-90802031D01*
X138795142Y-90814447D01*
X138786519Y-90826073D01*
X138776798Y-90836798D01*
X138766073Y-90846519D01*
X138754447Y-90855142D01*
X138742031Y-90862583D01*
X138728946Y-90868772D01*
X138715317Y-90873649D01*
X138701276Y-90877166D01*
X138686958Y-90879290D01*
X138672500Y-90880000D01*
X138327500Y-90880000D01*
X138313042Y-90879290D01*
X138298724Y-90877166D01*
X138284683Y-90873649D01*
X138271054Y-90868772D01*
X138257969Y-90862583D01*
X138245553Y-90855142D01*
X138233927Y-90846519D01*
X138223202Y-90836798D01*
X138213481Y-90826073D01*
X138204858Y-90814447D01*
X138197417Y-90802031D01*
X138191228Y-90788946D01*
X138186351Y-90775317D01*
X138182834Y-90761276D01*
X138180710Y-90746958D01*
X138180000Y-90732500D01*
X138180000Y-90437500D01*
X138180710Y-90423042D01*
X138182834Y-90408724D01*
X138186351Y-90394683D01*
X138191228Y-90381054D01*
X138197417Y-90367969D01*
X138204858Y-90355553D01*
X138213481Y-90343927D01*
X138223202Y-90333202D01*
X138233927Y-90323481D01*
X138245553Y-90314858D01*
X138257969Y-90307417D01*
X138271054Y-90301228D01*
X138284683Y-90296351D01*
X138298724Y-90292834D01*
X138313042Y-90290710D01*
X138327500Y-90290000D01*
X138672500Y-90290000D01*
X138686958Y-90290710D01*
X138686958Y-90290710D01*
G37*
D13*
G04 #@! TD*
G04 #@! TO.P,R2,1*
G04 #@! TO.N,Net-(J4-Pad2)*
X138500000Y-90585000D03*
D12*
G04 #@! TO.N,/E1*
G04 #@! TO.C,R2*
G36*
X138686958Y-89320710D02*
X138701276Y-89322834D01*
X138715317Y-89326351D01*
X138728946Y-89331228D01*
X138742031Y-89337417D01*
X138754447Y-89344858D01*
X138766073Y-89353481D01*
X138776798Y-89363202D01*
X138786519Y-89373927D01*
X138795142Y-89385553D01*
X138802583Y-89397969D01*
X138808772Y-89411054D01*
X138813649Y-89424683D01*
X138817166Y-89438724D01*
X138819290Y-89453042D01*
X138820000Y-89467500D01*
X138820000Y-89762500D01*
X138819290Y-89776958D01*
X138817166Y-89791276D01*
X138813649Y-89805317D01*
X138808772Y-89818946D01*
X138802583Y-89832031D01*
X138795142Y-89844447D01*
X138786519Y-89856073D01*
X138776798Y-89866798D01*
X138766073Y-89876519D01*
X138754447Y-89885142D01*
X138742031Y-89892583D01*
X138728946Y-89898772D01*
X138715317Y-89903649D01*
X138701276Y-89907166D01*
X138686958Y-89909290D01*
X138672500Y-89910000D01*
X138327500Y-89910000D01*
X138313042Y-89909290D01*
X138298724Y-89907166D01*
X138284683Y-89903649D01*
X138271054Y-89898772D01*
X138257969Y-89892583D01*
X138245553Y-89885142D01*
X138233927Y-89876519D01*
X138223202Y-89866798D01*
X138213481Y-89856073D01*
X138204858Y-89844447D01*
X138197417Y-89832031D01*
X138191228Y-89818946D01*
X138186351Y-89805317D01*
X138182834Y-89791276D01*
X138180710Y-89776958D01*
X138180000Y-89762500D01*
X138180000Y-89467500D01*
X138180710Y-89453042D01*
X138182834Y-89438724D01*
X138186351Y-89424683D01*
X138191228Y-89411054D01*
X138197417Y-89397969D01*
X138204858Y-89385553D01*
X138213481Y-89373927D01*
X138223202Y-89363202D01*
X138233927Y-89353481D01*
X138245553Y-89344858D01*
X138257969Y-89337417D01*
X138271054Y-89331228D01*
X138284683Y-89326351D01*
X138298724Y-89322834D01*
X138313042Y-89320710D01*
X138327500Y-89320000D01*
X138672500Y-89320000D01*
X138686958Y-89320710D01*
X138686958Y-89320710D01*
G37*
D13*
G04 #@! TD*
G04 #@! TO.P,R2,2*
G04 #@! TO.N,/E1*
X138500000Y-89615000D03*
D12*
G04 #@! TO.N,Net-(J4-Pad2)*
G04 #@! TO.C,R2*
G36*
X183686958Y-78290710D02*
X183701276Y-78292834D01*
X183715317Y-78296351D01*
X183728946Y-78301228D01*
X183742031Y-78307417D01*
X183754447Y-78314858D01*
X183766073Y-78323481D01*
X183776798Y-78333202D01*
X183786519Y-78343927D01*
X183795142Y-78355553D01*
X183802583Y-78367969D01*
X183808772Y-78381054D01*
X183813649Y-78394683D01*
X183817166Y-78408724D01*
X183819290Y-78423042D01*
X183820000Y-78437500D01*
X183820000Y-78732500D01*
X183819290Y-78746958D01*
X183817166Y-78761276D01*
X183813649Y-78775317D01*
X183808772Y-78788946D01*
X183802583Y-78802031D01*
X183795142Y-78814447D01*
X183786519Y-78826073D01*
X183776798Y-78836798D01*
X183766073Y-78846519D01*
X183754447Y-78855142D01*
X183742031Y-78862583D01*
X183728946Y-78868772D01*
X183715317Y-78873649D01*
X183701276Y-78877166D01*
X183686958Y-78879290D01*
X183672500Y-78880000D01*
X183327500Y-78880000D01*
X183313042Y-78879290D01*
X183298724Y-78877166D01*
X183284683Y-78873649D01*
X183271054Y-78868772D01*
X183257969Y-78862583D01*
X183245553Y-78855142D01*
X183233927Y-78846519D01*
X183223202Y-78836798D01*
X183213481Y-78826073D01*
X183204858Y-78814447D01*
X183197417Y-78802031D01*
X183191228Y-78788946D01*
X183186351Y-78775317D01*
X183182834Y-78761276D01*
X183180710Y-78746958D01*
X183180000Y-78732500D01*
X183180000Y-78437500D01*
X183180710Y-78423042D01*
X183182834Y-78408724D01*
X183186351Y-78394683D01*
X183191228Y-78381054D01*
X183197417Y-78367969D01*
X183204858Y-78355553D01*
X183213481Y-78343927D01*
X183223202Y-78333202D01*
X183233927Y-78323481D01*
X183245553Y-78314858D01*
X183257969Y-78307417D01*
X183271054Y-78301228D01*
X183284683Y-78296351D01*
X183298724Y-78292834D01*
X183313042Y-78290710D01*
X183327500Y-78290000D01*
X183672500Y-78290000D01*
X183686958Y-78290710D01*
X183686958Y-78290710D01*
G37*
D13*
G04 #@! TD*
G04 #@! TO.P,R2,1*
G04 #@! TO.N,Net-(J4-Pad2)*
X183500000Y-78585000D03*
D12*
G04 #@! TO.N,/E1*
G04 #@! TO.C,R2*
G36*
X183686958Y-77320710D02*
X183701276Y-77322834D01*
X183715317Y-77326351D01*
X183728946Y-77331228D01*
X183742031Y-77337417D01*
X183754447Y-77344858D01*
X183766073Y-77353481D01*
X183776798Y-77363202D01*
X183786519Y-77373927D01*
X183795142Y-77385553D01*
X183802583Y-77397969D01*
X183808772Y-77411054D01*
X183813649Y-77424683D01*
X183817166Y-77438724D01*
X183819290Y-77453042D01*
X183820000Y-77467500D01*
X183820000Y-77762500D01*
X183819290Y-77776958D01*
X183817166Y-77791276D01*
X183813649Y-77805317D01*
X183808772Y-77818946D01*
X183802583Y-77832031D01*
X183795142Y-77844447D01*
X183786519Y-77856073D01*
X183776798Y-77866798D01*
X183766073Y-77876519D01*
X183754447Y-77885142D01*
X183742031Y-77892583D01*
X183728946Y-77898772D01*
X183715317Y-77903649D01*
X183701276Y-77907166D01*
X183686958Y-77909290D01*
X183672500Y-77910000D01*
X183327500Y-77910000D01*
X183313042Y-77909290D01*
X183298724Y-77907166D01*
X183284683Y-77903649D01*
X183271054Y-77898772D01*
X183257969Y-77892583D01*
X183245553Y-77885142D01*
X183233927Y-77876519D01*
X183223202Y-77866798D01*
X183213481Y-77856073D01*
X183204858Y-77844447D01*
X183197417Y-77832031D01*
X183191228Y-77818946D01*
X183186351Y-77805317D01*
X183182834Y-77791276D01*
X183180710Y-77776958D01*
X183180000Y-77762500D01*
X183180000Y-77467500D01*
X183180710Y-77453042D01*
X183182834Y-77438724D01*
X183186351Y-77424683D01*
X183191228Y-77411054D01*
X183197417Y-77397969D01*
X183204858Y-77385553D01*
X183213481Y-77373927D01*
X183223202Y-77363202D01*
X183233927Y-77353481D01*
X183245553Y-77344858D01*
X183257969Y-77337417D01*
X183271054Y-77331228D01*
X183284683Y-77326351D01*
X183298724Y-77322834D01*
X183313042Y-77320710D01*
X183327500Y-77320000D01*
X183672500Y-77320000D01*
X183686958Y-77320710D01*
X183686958Y-77320710D01*
G37*
D13*
G04 #@! TD*
G04 #@! TO.P,R2,2*
G04 #@! TO.N,/E1*
X183500000Y-77615000D03*
D12*
G04 #@! TO.N,Net-(J4-Pad2)*
G04 #@! TO.C,R2*
G36*
X168686958Y-78290710D02*
X168701276Y-78292834D01*
X168715317Y-78296351D01*
X168728946Y-78301228D01*
X168742031Y-78307417D01*
X168754447Y-78314858D01*
X168766073Y-78323481D01*
X168776798Y-78333202D01*
X168786519Y-78343927D01*
X168795142Y-78355553D01*
X168802583Y-78367969D01*
X168808772Y-78381054D01*
X168813649Y-78394683D01*
X168817166Y-78408724D01*
X168819290Y-78423042D01*
X168820000Y-78437500D01*
X168820000Y-78732500D01*
X168819290Y-78746958D01*
X168817166Y-78761276D01*
X168813649Y-78775317D01*
X168808772Y-78788946D01*
X168802583Y-78802031D01*
X168795142Y-78814447D01*
X168786519Y-78826073D01*
X168776798Y-78836798D01*
X168766073Y-78846519D01*
X168754447Y-78855142D01*
X168742031Y-78862583D01*
X168728946Y-78868772D01*
X168715317Y-78873649D01*
X168701276Y-78877166D01*
X168686958Y-78879290D01*
X168672500Y-78880000D01*
X168327500Y-78880000D01*
X168313042Y-78879290D01*
X168298724Y-78877166D01*
X168284683Y-78873649D01*
X168271054Y-78868772D01*
X168257969Y-78862583D01*
X168245553Y-78855142D01*
X168233927Y-78846519D01*
X168223202Y-78836798D01*
X168213481Y-78826073D01*
X168204858Y-78814447D01*
X168197417Y-78802031D01*
X168191228Y-78788946D01*
X168186351Y-78775317D01*
X168182834Y-78761276D01*
X168180710Y-78746958D01*
X168180000Y-78732500D01*
X168180000Y-78437500D01*
X168180710Y-78423042D01*
X168182834Y-78408724D01*
X168186351Y-78394683D01*
X168191228Y-78381054D01*
X168197417Y-78367969D01*
X168204858Y-78355553D01*
X168213481Y-78343927D01*
X168223202Y-78333202D01*
X168233927Y-78323481D01*
X168245553Y-78314858D01*
X168257969Y-78307417D01*
X168271054Y-78301228D01*
X168284683Y-78296351D01*
X168298724Y-78292834D01*
X168313042Y-78290710D01*
X168327500Y-78290000D01*
X168672500Y-78290000D01*
X168686958Y-78290710D01*
X168686958Y-78290710D01*
G37*
D13*
G04 #@! TD*
G04 #@! TO.P,R2,1*
G04 #@! TO.N,Net-(J4-Pad2)*
X168500000Y-78585000D03*
D12*
G04 #@! TO.N,/E1*
G04 #@! TO.C,R2*
G36*
X168686958Y-77320710D02*
X168701276Y-77322834D01*
X168715317Y-77326351D01*
X168728946Y-77331228D01*
X168742031Y-77337417D01*
X168754447Y-77344858D01*
X168766073Y-77353481D01*
X168776798Y-77363202D01*
X168786519Y-77373927D01*
X168795142Y-77385553D01*
X168802583Y-77397969D01*
X168808772Y-77411054D01*
X168813649Y-77424683D01*
X168817166Y-77438724D01*
X168819290Y-77453042D01*
X168820000Y-77467500D01*
X168820000Y-77762500D01*
X168819290Y-77776958D01*
X168817166Y-77791276D01*
X168813649Y-77805317D01*
X168808772Y-77818946D01*
X168802583Y-77832031D01*
X168795142Y-77844447D01*
X168786519Y-77856073D01*
X168776798Y-77866798D01*
X168766073Y-77876519D01*
X168754447Y-77885142D01*
X168742031Y-77892583D01*
X168728946Y-77898772D01*
X168715317Y-77903649D01*
X168701276Y-77907166D01*
X168686958Y-77909290D01*
X168672500Y-77910000D01*
X168327500Y-77910000D01*
X168313042Y-77909290D01*
X168298724Y-77907166D01*
X168284683Y-77903649D01*
X168271054Y-77898772D01*
X168257969Y-77892583D01*
X168245553Y-77885142D01*
X168233927Y-77876519D01*
X168223202Y-77866798D01*
X168213481Y-77856073D01*
X168204858Y-77844447D01*
X168197417Y-77832031D01*
X168191228Y-77818946D01*
X168186351Y-77805317D01*
X168182834Y-77791276D01*
X168180710Y-77776958D01*
X168180000Y-77762500D01*
X168180000Y-77467500D01*
X168180710Y-77453042D01*
X168182834Y-77438724D01*
X168186351Y-77424683D01*
X168191228Y-77411054D01*
X168197417Y-77397969D01*
X168204858Y-77385553D01*
X168213481Y-77373927D01*
X168223202Y-77363202D01*
X168233927Y-77353481D01*
X168245553Y-77344858D01*
X168257969Y-77337417D01*
X168271054Y-77331228D01*
X168284683Y-77326351D01*
X168298724Y-77322834D01*
X168313042Y-77320710D01*
X168327500Y-77320000D01*
X168672500Y-77320000D01*
X168686958Y-77320710D01*
X168686958Y-77320710D01*
G37*
D13*
G04 #@! TD*
G04 #@! TO.P,R2,2*
G04 #@! TO.N,/E1*
X168500000Y-77615000D03*
D12*
G04 #@! TO.N,Net-(J4-Pad2)*
G04 #@! TO.C,R2*
G36*
X153686958Y-78290710D02*
X153701276Y-78292834D01*
X153715317Y-78296351D01*
X153728946Y-78301228D01*
X153742031Y-78307417D01*
X153754447Y-78314858D01*
X153766073Y-78323481D01*
X153776798Y-78333202D01*
X153786519Y-78343927D01*
X153795142Y-78355553D01*
X153802583Y-78367969D01*
X153808772Y-78381054D01*
X153813649Y-78394683D01*
X153817166Y-78408724D01*
X153819290Y-78423042D01*
X153820000Y-78437500D01*
X153820000Y-78732500D01*
X153819290Y-78746958D01*
X153817166Y-78761276D01*
X153813649Y-78775317D01*
X153808772Y-78788946D01*
X153802583Y-78802031D01*
X153795142Y-78814447D01*
X153786519Y-78826073D01*
X153776798Y-78836798D01*
X153766073Y-78846519D01*
X153754447Y-78855142D01*
X153742031Y-78862583D01*
X153728946Y-78868772D01*
X153715317Y-78873649D01*
X153701276Y-78877166D01*
X153686958Y-78879290D01*
X153672500Y-78880000D01*
X153327500Y-78880000D01*
X153313042Y-78879290D01*
X153298724Y-78877166D01*
X153284683Y-78873649D01*
X153271054Y-78868772D01*
X153257969Y-78862583D01*
X153245553Y-78855142D01*
X153233927Y-78846519D01*
X153223202Y-78836798D01*
X153213481Y-78826073D01*
X153204858Y-78814447D01*
X153197417Y-78802031D01*
X153191228Y-78788946D01*
X153186351Y-78775317D01*
X153182834Y-78761276D01*
X153180710Y-78746958D01*
X153180000Y-78732500D01*
X153180000Y-78437500D01*
X153180710Y-78423042D01*
X153182834Y-78408724D01*
X153186351Y-78394683D01*
X153191228Y-78381054D01*
X153197417Y-78367969D01*
X153204858Y-78355553D01*
X153213481Y-78343927D01*
X153223202Y-78333202D01*
X153233927Y-78323481D01*
X153245553Y-78314858D01*
X153257969Y-78307417D01*
X153271054Y-78301228D01*
X153284683Y-78296351D01*
X153298724Y-78292834D01*
X153313042Y-78290710D01*
X153327500Y-78290000D01*
X153672500Y-78290000D01*
X153686958Y-78290710D01*
X153686958Y-78290710D01*
G37*
D13*
G04 #@! TD*
G04 #@! TO.P,R2,1*
G04 #@! TO.N,Net-(J4-Pad2)*
X153500000Y-78585000D03*
D12*
G04 #@! TO.N,/E1*
G04 #@! TO.C,R2*
G36*
X153686958Y-77320710D02*
X153701276Y-77322834D01*
X153715317Y-77326351D01*
X153728946Y-77331228D01*
X153742031Y-77337417D01*
X153754447Y-77344858D01*
X153766073Y-77353481D01*
X153776798Y-77363202D01*
X153786519Y-77373927D01*
X153795142Y-77385553D01*
X153802583Y-77397969D01*
X153808772Y-77411054D01*
X153813649Y-77424683D01*
X153817166Y-77438724D01*
X153819290Y-77453042D01*
X153820000Y-77467500D01*
X153820000Y-77762500D01*
X153819290Y-77776958D01*
X153817166Y-77791276D01*
X153813649Y-77805317D01*
X153808772Y-77818946D01*
X153802583Y-77832031D01*
X153795142Y-77844447D01*
X153786519Y-77856073D01*
X153776798Y-77866798D01*
X153766073Y-77876519D01*
X153754447Y-77885142D01*
X153742031Y-77892583D01*
X153728946Y-77898772D01*
X153715317Y-77903649D01*
X153701276Y-77907166D01*
X153686958Y-77909290D01*
X153672500Y-77910000D01*
X153327500Y-77910000D01*
X153313042Y-77909290D01*
X153298724Y-77907166D01*
X153284683Y-77903649D01*
X153271054Y-77898772D01*
X153257969Y-77892583D01*
X153245553Y-77885142D01*
X153233927Y-77876519D01*
X153223202Y-77866798D01*
X153213481Y-77856073D01*
X153204858Y-77844447D01*
X153197417Y-77832031D01*
X153191228Y-77818946D01*
X153186351Y-77805317D01*
X153182834Y-77791276D01*
X153180710Y-77776958D01*
X153180000Y-77762500D01*
X153180000Y-77467500D01*
X153180710Y-77453042D01*
X153182834Y-77438724D01*
X153186351Y-77424683D01*
X153191228Y-77411054D01*
X153197417Y-77397969D01*
X153204858Y-77385553D01*
X153213481Y-77373927D01*
X153223202Y-77363202D01*
X153233927Y-77353481D01*
X153245553Y-77344858D01*
X153257969Y-77337417D01*
X153271054Y-77331228D01*
X153284683Y-77326351D01*
X153298724Y-77322834D01*
X153313042Y-77320710D01*
X153327500Y-77320000D01*
X153672500Y-77320000D01*
X153686958Y-77320710D01*
X153686958Y-77320710D01*
G37*
D13*
G04 #@! TD*
G04 #@! TO.P,R2,2*
G04 #@! TO.N,/E1*
X153500000Y-77615000D03*
D11*
G04 #@! TO.P,J3,5*
G04 #@! TO.N,+3V3*
X186850000Y-98450000D03*
G04 #@! TO.P,J3,4*
G04 #@! TO.N,/E0_filtered*
X186850000Y-97150000D03*
G04 #@! TO.P,J3,3*
G04 #@! TO.N,GND*
X184950000Y-97150000D03*
G04 #@! TO.P,J3,2*
G04 #@! TO.N,Net-(J3-Pad2)*
X184950000Y-97800000D03*
G04 #@! TO.P,J3,1*
G04 #@! TO.N,Net-(J3-Pad1)*
X184950000Y-98450000D03*
G04 #@! TD*
G04 #@! TO.P,J3,5*
G04 #@! TO.N,+3V3*
X171850000Y-98450000D03*
G04 #@! TO.P,J3,4*
G04 #@! TO.N,/E0_filtered*
X171850000Y-97150000D03*
G04 #@! TO.P,J3,3*
G04 #@! TO.N,GND*
X169950000Y-97150000D03*
G04 #@! TO.P,J3,2*
G04 #@! TO.N,Net-(J3-Pad2)*
X169950000Y-97800000D03*
G04 #@! TO.P,J3,1*
G04 #@! TO.N,Net-(J3-Pad1)*
X169950000Y-98450000D03*
G04 #@! TD*
G04 #@! TO.P,J3,5*
G04 #@! TO.N,+3V3*
X156850000Y-98450000D03*
G04 #@! TO.P,J3,4*
G04 #@! TO.N,/E0_filtered*
X156850000Y-97150000D03*
G04 #@! TO.P,J3,3*
G04 #@! TO.N,GND*
X154950000Y-97150000D03*
G04 #@! TO.P,J3,2*
G04 #@! TO.N,Net-(J3-Pad2)*
X154950000Y-97800000D03*
G04 #@! TO.P,J3,1*
G04 #@! TO.N,Net-(J3-Pad1)*
X154950000Y-98450000D03*
G04 #@! TD*
G04 #@! TO.P,J3,5*
G04 #@! TO.N,+3V3*
X141850000Y-98450000D03*
G04 #@! TO.P,J3,4*
G04 #@! TO.N,/E0_filtered*
X141850000Y-97150000D03*
G04 #@! TO.P,J3,3*
G04 #@! TO.N,GND*
X139950000Y-97150000D03*
G04 #@! TO.P,J3,2*
G04 #@! TO.N,Net-(J3-Pad2)*
X139950000Y-97800000D03*
G04 #@! TO.P,J3,1*
G04 #@! TO.N,Net-(J3-Pad1)*
X139950000Y-98450000D03*
G04 #@! TD*
G04 #@! TO.P,J3,5*
G04 #@! TO.N,+3V3*
X186850000Y-86450000D03*
G04 #@! TO.P,J3,4*
G04 #@! TO.N,/E0_filtered*
X186850000Y-85150000D03*
G04 #@! TO.P,J3,3*
G04 #@! TO.N,GND*
X184950000Y-85150000D03*
G04 #@! TO.P,J3,2*
G04 #@! TO.N,Net-(J3-Pad2)*
X184950000Y-85800000D03*
G04 #@! TO.P,J3,1*
G04 #@! TO.N,Net-(J3-Pad1)*
X184950000Y-86450000D03*
G04 #@! TD*
G04 #@! TO.P,J3,5*
G04 #@! TO.N,+3V3*
X171850000Y-86450000D03*
G04 #@! TO.P,J3,4*
G04 #@! TO.N,/E0_filtered*
X171850000Y-85150000D03*
G04 #@! TO.P,J3,3*
G04 #@! TO.N,GND*
X169950000Y-85150000D03*
G04 #@! TO.P,J3,2*
G04 #@! TO.N,Net-(J3-Pad2)*
X169950000Y-85800000D03*
G04 #@! TO.P,J3,1*
G04 #@! TO.N,Net-(J3-Pad1)*
X169950000Y-86450000D03*
G04 #@! TD*
G04 #@! TO.P,J3,5*
G04 #@! TO.N,+3V3*
X156850000Y-86450000D03*
G04 #@! TO.P,J3,4*
G04 #@! TO.N,/E0_filtered*
X156850000Y-85150000D03*
G04 #@! TO.P,J3,3*
G04 #@! TO.N,GND*
X154950000Y-85150000D03*
G04 #@! TO.P,J3,2*
G04 #@! TO.N,Net-(J3-Pad2)*
X154950000Y-85800000D03*
G04 #@! TO.P,J3,1*
G04 #@! TO.N,Net-(J3-Pad1)*
X154950000Y-86450000D03*
G04 #@! TD*
G04 #@! TO.P,J3,5*
G04 #@! TO.N,+3V3*
X141850000Y-86450000D03*
G04 #@! TO.P,J3,4*
G04 #@! TO.N,/E0_filtered*
X141850000Y-85150000D03*
G04 #@! TO.P,J3,3*
G04 #@! TO.N,GND*
X139950000Y-85150000D03*
G04 #@! TO.P,J3,2*
G04 #@! TO.N,Net-(J3-Pad2)*
X139950000Y-85800000D03*
G04 #@! TO.P,J3,1*
G04 #@! TO.N,Net-(J3-Pad1)*
X139950000Y-86450000D03*
G04 #@! TD*
G04 #@! TO.P,J3,5*
G04 #@! TO.N,+3V3*
X186850000Y-74450000D03*
G04 #@! TO.P,J3,4*
G04 #@! TO.N,/E0_filtered*
X186850000Y-73150000D03*
G04 #@! TO.P,J3,3*
G04 #@! TO.N,GND*
X184950000Y-73150000D03*
G04 #@! TO.P,J3,2*
G04 #@! TO.N,Net-(J3-Pad2)*
X184950000Y-73800000D03*
G04 #@! TO.P,J3,1*
G04 #@! TO.N,Net-(J3-Pad1)*
X184950000Y-74450000D03*
G04 #@! TD*
G04 #@! TO.P,J3,5*
G04 #@! TO.N,+3V3*
X171850000Y-74450000D03*
G04 #@! TO.P,J3,4*
G04 #@! TO.N,/E0_filtered*
X171850000Y-73150000D03*
G04 #@! TO.P,J3,3*
G04 #@! TO.N,GND*
X169950000Y-73150000D03*
G04 #@! TO.P,J3,2*
G04 #@! TO.N,Net-(J3-Pad2)*
X169950000Y-73800000D03*
G04 #@! TO.P,J3,1*
G04 #@! TO.N,Net-(J3-Pad1)*
X169950000Y-74450000D03*
G04 #@! TD*
G04 #@! TO.P,J3,5*
G04 #@! TO.N,+3V3*
X156850000Y-74450000D03*
G04 #@! TO.P,J3,4*
G04 #@! TO.N,/E0_filtered*
X156850000Y-73150000D03*
G04 #@! TO.P,J3,3*
G04 #@! TO.N,GND*
X154950000Y-73150000D03*
G04 #@! TO.P,J3,2*
G04 #@! TO.N,Net-(J3-Pad2)*
X154950000Y-73800000D03*
G04 #@! TO.P,J3,1*
G04 #@! TO.N,Net-(J3-Pad1)*
X154950000Y-74450000D03*
G04 #@! TD*
D10*
G04 #@! TO.P,J2,1*
G04 #@! TO.N,/E0*
X133900000Y-73950000D03*
G04 #@! TO.P,J2,2*
G04 #@! TO.N,/E1*
X135300000Y-73950000D03*
G04 #@! TO.P,J2,3*
G04 #@! TO.N,+3V3*
X136700000Y-73950000D03*
G04 #@! TO.P,J2,4*
G04 #@! TO.N,/LED*
X136700000Y-78050000D03*
G04 #@! TO.P,J2,6*
G04 #@! TO.N,GND*
X133900000Y-78050000D03*
G04 #@! TO.P,J2,5*
G04 #@! TO.N,Net-(J2-Pad5)*
X135300000Y-78050000D03*
G04 #@! TD*
D11*
G04 #@! TO.P,J3,1*
G04 #@! TO.N,Net-(J3-Pad1)*
X139950000Y-74450000D03*
G04 #@! TO.P,J3,2*
G04 #@! TO.N,Net-(J3-Pad2)*
X139950000Y-73800000D03*
G04 #@! TO.P,J3,3*
G04 #@! TO.N,GND*
X139950000Y-73150000D03*
G04 #@! TO.P,J3,4*
G04 #@! TO.N,/E0_filtered*
X141850000Y-73150000D03*
G04 #@! TO.P,J3,5*
G04 #@! TO.N,+3V3*
X141850000Y-74450000D03*
G04 #@! TD*
G04 #@! TO.P,J4,5*
G04 #@! TO.N,+3V3*
X141950000Y-78750000D03*
G04 #@! TO.P,J4,4*
G04 #@! TO.N,/E1_filtered*
X141950000Y-77450000D03*
G04 #@! TO.P,J4,3*
G04 #@! TO.N,GND*
X140050000Y-77450000D03*
G04 #@! TO.P,J4,2*
G04 #@! TO.N,Net-(J4-Pad2)*
X140050000Y-78100000D03*
G04 #@! TO.P,J4,1*
G04 #@! TO.N,Net-(J4-Pad1)*
X140050000Y-78750000D03*
G04 #@! TD*
D12*
G04 #@! TO.N,Net-(J3-Pad2)*
G04 #@! TO.C,R1*
G36*
X138686958Y-72920710D02*
X138701276Y-72922834D01*
X138715317Y-72926351D01*
X138728946Y-72931228D01*
X138742031Y-72937417D01*
X138754447Y-72944858D01*
X138766073Y-72953481D01*
X138776798Y-72963202D01*
X138786519Y-72973927D01*
X138795142Y-72985553D01*
X138802583Y-72997969D01*
X138808772Y-73011054D01*
X138813649Y-73024683D01*
X138817166Y-73038724D01*
X138819290Y-73053042D01*
X138820000Y-73067500D01*
X138820000Y-73362500D01*
X138819290Y-73376958D01*
X138817166Y-73391276D01*
X138813649Y-73405317D01*
X138808772Y-73418946D01*
X138802583Y-73432031D01*
X138795142Y-73444447D01*
X138786519Y-73456073D01*
X138776798Y-73466798D01*
X138766073Y-73476519D01*
X138754447Y-73485142D01*
X138742031Y-73492583D01*
X138728946Y-73498772D01*
X138715317Y-73503649D01*
X138701276Y-73507166D01*
X138686958Y-73509290D01*
X138672500Y-73510000D01*
X138327500Y-73510000D01*
X138313042Y-73509290D01*
X138298724Y-73507166D01*
X138284683Y-73503649D01*
X138271054Y-73498772D01*
X138257969Y-73492583D01*
X138245553Y-73485142D01*
X138233927Y-73476519D01*
X138223202Y-73466798D01*
X138213481Y-73456073D01*
X138204858Y-73444447D01*
X138197417Y-73432031D01*
X138191228Y-73418946D01*
X138186351Y-73405317D01*
X138182834Y-73391276D01*
X138180710Y-73376958D01*
X138180000Y-73362500D01*
X138180000Y-73067500D01*
X138180710Y-73053042D01*
X138182834Y-73038724D01*
X138186351Y-73024683D01*
X138191228Y-73011054D01*
X138197417Y-72997969D01*
X138204858Y-72985553D01*
X138213481Y-72973927D01*
X138223202Y-72963202D01*
X138233927Y-72953481D01*
X138245553Y-72944858D01*
X138257969Y-72937417D01*
X138271054Y-72931228D01*
X138284683Y-72926351D01*
X138298724Y-72922834D01*
X138313042Y-72920710D01*
X138327500Y-72920000D01*
X138672500Y-72920000D01*
X138686958Y-72920710D01*
X138686958Y-72920710D01*
G37*
D13*
G04 #@! TD*
G04 #@! TO.P,R1,1*
G04 #@! TO.N,Net-(J3-Pad2)*
X138500000Y-73215000D03*
D12*
G04 #@! TO.N,/E0*
G04 #@! TO.C,R1*
G36*
X138686958Y-73890710D02*
X138701276Y-73892834D01*
X138715317Y-73896351D01*
X138728946Y-73901228D01*
X138742031Y-73907417D01*
X138754447Y-73914858D01*
X138766073Y-73923481D01*
X138776798Y-73933202D01*
X138786519Y-73943927D01*
X138795142Y-73955553D01*
X138802583Y-73967969D01*
X138808772Y-73981054D01*
X138813649Y-73994683D01*
X138817166Y-74008724D01*
X138819290Y-74023042D01*
X138820000Y-74037500D01*
X138820000Y-74332500D01*
X138819290Y-74346958D01*
X138817166Y-74361276D01*
X138813649Y-74375317D01*
X138808772Y-74388946D01*
X138802583Y-74402031D01*
X138795142Y-74414447D01*
X138786519Y-74426073D01*
X138776798Y-74436798D01*
X138766073Y-74446519D01*
X138754447Y-74455142D01*
X138742031Y-74462583D01*
X138728946Y-74468772D01*
X138715317Y-74473649D01*
X138701276Y-74477166D01*
X138686958Y-74479290D01*
X138672500Y-74480000D01*
X138327500Y-74480000D01*
X138313042Y-74479290D01*
X138298724Y-74477166D01*
X138284683Y-74473649D01*
X138271054Y-74468772D01*
X138257969Y-74462583D01*
X138245553Y-74455142D01*
X138233927Y-74446519D01*
X138223202Y-74436798D01*
X138213481Y-74426073D01*
X138204858Y-74414447D01*
X138197417Y-74402031D01*
X138191228Y-74388946D01*
X138186351Y-74375317D01*
X138182834Y-74361276D01*
X138180710Y-74346958D01*
X138180000Y-74332500D01*
X138180000Y-74037500D01*
X138180710Y-74023042D01*
X138182834Y-74008724D01*
X138186351Y-73994683D01*
X138191228Y-73981054D01*
X138197417Y-73967969D01*
X138204858Y-73955553D01*
X138213481Y-73943927D01*
X138223202Y-73933202D01*
X138233927Y-73923481D01*
X138245553Y-73914858D01*
X138257969Y-73907417D01*
X138271054Y-73901228D01*
X138284683Y-73896351D01*
X138298724Y-73892834D01*
X138313042Y-73890710D01*
X138327500Y-73890000D01*
X138672500Y-73890000D01*
X138686958Y-73890710D01*
X138686958Y-73890710D01*
G37*
D13*
G04 #@! TD*
G04 #@! TO.P,R1,2*
G04 #@! TO.N,/E0*
X138500000Y-74185000D03*
D12*
G04 #@! TO.N,/E1*
G04 #@! TO.C,R2*
G36*
X138686958Y-77320710D02*
X138701276Y-77322834D01*
X138715317Y-77326351D01*
X138728946Y-77331228D01*
X138742031Y-77337417D01*
X138754447Y-77344858D01*
X138766073Y-77353481D01*
X138776798Y-77363202D01*
X138786519Y-77373927D01*
X138795142Y-77385553D01*
X138802583Y-77397969D01*
X138808772Y-77411054D01*
X138813649Y-77424683D01*
X138817166Y-77438724D01*
X138819290Y-77453042D01*
X138820000Y-77467500D01*
X138820000Y-77762500D01*
X138819290Y-77776958D01*
X138817166Y-77791276D01*
X138813649Y-77805317D01*
X138808772Y-77818946D01*
X138802583Y-77832031D01*
X138795142Y-77844447D01*
X138786519Y-77856073D01*
X138776798Y-77866798D01*
X138766073Y-77876519D01*
X138754447Y-77885142D01*
X138742031Y-77892583D01*
X138728946Y-77898772D01*
X138715317Y-77903649D01*
X138701276Y-77907166D01*
X138686958Y-77909290D01*
X138672500Y-77910000D01*
X138327500Y-77910000D01*
X138313042Y-77909290D01*
X138298724Y-77907166D01*
X138284683Y-77903649D01*
X138271054Y-77898772D01*
X138257969Y-77892583D01*
X138245553Y-77885142D01*
X138233927Y-77876519D01*
X138223202Y-77866798D01*
X138213481Y-77856073D01*
X138204858Y-77844447D01*
X138197417Y-77832031D01*
X138191228Y-77818946D01*
X138186351Y-77805317D01*
X138182834Y-77791276D01*
X138180710Y-77776958D01*
X138180000Y-77762500D01*
X138180000Y-77467500D01*
X138180710Y-77453042D01*
X138182834Y-77438724D01*
X138186351Y-77424683D01*
X138191228Y-77411054D01*
X138197417Y-77397969D01*
X138204858Y-77385553D01*
X138213481Y-77373927D01*
X138223202Y-77363202D01*
X138233927Y-77353481D01*
X138245553Y-77344858D01*
X138257969Y-77337417D01*
X138271054Y-77331228D01*
X138284683Y-77326351D01*
X138298724Y-77322834D01*
X138313042Y-77320710D01*
X138327500Y-77320000D01*
X138672500Y-77320000D01*
X138686958Y-77320710D01*
X138686958Y-77320710D01*
G37*
D13*
G04 #@! TD*
G04 #@! TO.P,R2,2*
G04 #@! TO.N,/E1*
X138500000Y-77615000D03*
D12*
G04 #@! TO.N,Net-(J4-Pad2)*
G04 #@! TO.C,R2*
G36*
X138686958Y-78290710D02*
X138701276Y-78292834D01*
X138715317Y-78296351D01*
X138728946Y-78301228D01*
X138742031Y-78307417D01*
X138754447Y-78314858D01*
X138766073Y-78323481D01*
X138776798Y-78333202D01*
X138786519Y-78343927D01*
X138795142Y-78355553D01*
X138802583Y-78367969D01*
X138808772Y-78381054D01*
X138813649Y-78394683D01*
X138817166Y-78408724D01*
X138819290Y-78423042D01*
X138820000Y-78437500D01*
X138820000Y-78732500D01*
X138819290Y-78746958D01*
X138817166Y-78761276D01*
X138813649Y-78775317D01*
X138808772Y-78788946D01*
X138802583Y-78802031D01*
X138795142Y-78814447D01*
X138786519Y-78826073D01*
X138776798Y-78836798D01*
X138766073Y-78846519D01*
X138754447Y-78855142D01*
X138742031Y-78862583D01*
X138728946Y-78868772D01*
X138715317Y-78873649D01*
X138701276Y-78877166D01*
X138686958Y-78879290D01*
X138672500Y-78880000D01*
X138327500Y-78880000D01*
X138313042Y-78879290D01*
X138298724Y-78877166D01*
X138284683Y-78873649D01*
X138271054Y-78868772D01*
X138257969Y-78862583D01*
X138245553Y-78855142D01*
X138233927Y-78846519D01*
X138223202Y-78836798D01*
X138213481Y-78826073D01*
X138204858Y-78814447D01*
X138197417Y-78802031D01*
X138191228Y-78788946D01*
X138186351Y-78775317D01*
X138182834Y-78761276D01*
X138180710Y-78746958D01*
X138180000Y-78732500D01*
X138180000Y-78437500D01*
X138180710Y-78423042D01*
X138182834Y-78408724D01*
X138186351Y-78394683D01*
X138191228Y-78381054D01*
X138197417Y-78367969D01*
X138204858Y-78355553D01*
X138213481Y-78343927D01*
X138223202Y-78333202D01*
X138233927Y-78323481D01*
X138245553Y-78314858D01*
X138257969Y-78307417D01*
X138271054Y-78301228D01*
X138284683Y-78296351D01*
X138298724Y-78292834D01*
X138313042Y-78290710D01*
X138327500Y-78290000D01*
X138672500Y-78290000D01*
X138686958Y-78290710D01*
X138686958Y-78290710D01*
G37*
D13*
G04 #@! TD*
G04 #@! TO.P,R2,1*
G04 #@! TO.N,Net-(J4-Pad2)*
X138500000Y-78585000D03*
D14*
G04 #@! TO.N,*
X143600000Y-74700000D03*
X143600000Y-74700000D03*
X143600000Y-74700000D03*
X143600000Y-75200000D03*
X143600000Y-75700000D03*
X143600000Y-76200000D03*
X143600000Y-76700000D03*
X147900000Y-76700000D03*
X147900000Y-74700000D03*
X147900000Y-75200000D03*
X147900000Y-76200000D03*
X147900000Y-75700000D03*
X147900000Y-74700000D03*
X147900000Y-74700000D03*
X138206586Y-80057817D03*
X136706586Y-80057817D03*
X136706586Y-80057817D03*
X138706586Y-80057817D03*
X137206586Y-80057817D03*
X136706586Y-80057817D03*
X137706586Y-80057817D03*
X136706586Y-83857817D03*
X137206586Y-83857817D03*
X136706586Y-83857817D03*
X138706586Y-83857817D03*
X138206586Y-83857817D03*
X137706586Y-83857817D03*
X136706586Y-83857817D03*
X153706586Y-83857817D03*
X168706586Y-83857817D03*
X183706586Y-83857817D03*
X138706586Y-95857817D03*
X153706586Y-95857817D03*
X168706586Y-95857817D03*
X183706586Y-95857817D03*
X158600000Y-76700000D03*
X173600000Y-76700000D03*
X143600000Y-88700000D03*
X158600000Y-88700000D03*
X173600000Y-88700000D03*
X143600000Y-100700000D03*
X158600000Y-100700000D03*
X173600000Y-100700000D03*
X153206586Y-83857817D03*
X168206586Y-83857817D03*
X183206586Y-83857817D03*
X138206586Y-95857817D03*
X153206586Y-95857817D03*
X168206586Y-95857817D03*
X183206586Y-95857817D03*
X162900000Y-76200000D03*
X177900000Y-76200000D03*
X147900000Y-88200000D03*
X162900000Y-88200000D03*
X177900000Y-88200000D03*
X147900000Y-100200000D03*
X162900000Y-100200000D03*
X177900000Y-100200000D03*
X151706586Y-80057817D03*
X166706586Y-80057817D03*
X181706586Y-80057817D03*
X136706586Y-92057817D03*
X151706586Y-92057817D03*
X166706586Y-92057817D03*
X181706586Y-92057817D03*
X162900000Y-74700000D03*
X177900000Y-74700000D03*
X147900000Y-86700000D03*
X162900000Y-86700000D03*
X177900000Y-86700000D03*
X147900000Y-98700000D03*
X162900000Y-98700000D03*
X177900000Y-98700000D03*
X152706586Y-83857817D03*
X167706586Y-83857817D03*
X182706586Y-83857817D03*
X137706586Y-95857817D03*
X152706586Y-95857817D03*
X167706586Y-95857817D03*
X182706586Y-95857817D03*
X152206586Y-80057817D03*
X167206586Y-80057817D03*
X182206586Y-80057817D03*
X137206586Y-92057817D03*
X152206586Y-92057817D03*
X167206586Y-92057817D03*
X182206586Y-92057817D03*
X162900000Y-74700000D03*
X177900000Y-74700000D03*
X147900000Y-86700000D03*
X162900000Y-86700000D03*
X177900000Y-86700000D03*
X147900000Y-98700000D03*
X162900000Y-98700000D03*
X177900000Y-98700000D03*
X151706586Y-80057817D03*
X166706586Y-80057817D03*
X181706586Y-80057817D03*
X136706586Y-92057817D03*
X151706586Y-92057817D03*
X166706586Y-92057817D03*
X181706586Y-92057817D03*
X153706586Y-80057817D03*
X168706586Y-80057817D03*
X183706586Y-80057817D03*
X138706586Y-92057817D03*
X153706586Y-92057817D03*
X168706586Y-92057817D03*
X183706586Y-92057817D03*
X158600000Y-74700000D03*
X173600000Y-74700000D03*
X143600000Y-86700000D03*
X158600000Y-86700000D03*
X173600000Y-86700000D03*
X143600000Y-98700000D03*
X158600000Y-98700000D03*
X173600000Y-98700000D03*
X151706586Y-83857817D03*
X166706586Y-83857817D03*
X181706586Y-83857817D03*
X136706586Y-95857817D03*
X151706586Y-95857817D03*
X166706586Y-95857817D03*
X181706586Y-95857817D03*
X153206586Y-80057817D03*
X168206586Y-80057817D03*
X183206586Y-80057817D03*
X138206586Y-92057817D03*
X153206586Y-92057817D03*
X168206586Y-92057817D03*
X183206586Y-92057817D03*
X151706586Y-83857817D03*
X166706586Y-83857817D03*
X181706586Y-83857817D03*
X136706586Y-95857817D03*
X151706586Y-95857817D03*
X166706586Y-95857817D03*
X181706586Y-95857817D03*
X162900000Y-76700000D03*
X177900000Y-76700000D03*
X147900000Y-88700000D03*
X162900000Y-88700000D03*
X177900000Y-88700000D03*
X147900000Y-100700000D03*
X162900000Y-100700000D03*
X177900000Y-100700000D03*
X152706586Y-80057817D03*
X167706586Y-80057817D03*
X182706586Y-80057817D03*
X137706586Y-92057817D03*
X152706586Y-92057817D03*
X167706586Y-92057817D03*
X182706586Y-92057817D03*
X151706586Y-83857817D03*
X166706586Y-83857817D03*
X181706586Y-83857817D03*
X136706586Y-95857817D03*
X151706586Y-95857817D03*
X166706586Y-95857817D03*
X181706586Y-95857817D03*
X158600000Y-75200000D03*
X173600000Y-75200000D03*
X143600000Y-87200000D03*
X158600000Y-87200000D03*
X173600000Y-87200000D03*
X143600000Y-99200000D03*
X158600000Y-99200000D03*
X173600000Y-99200000D03*
X152206586Y-83857817D03*
X167206586Y-83857817D03*
X182206586Y-83857817D03*
X137206586Y-95857817D03*
X152206586Y-95857817D03*
X167206586Y-95857817D03*
X182206586Y-95857817D03*
X158600000Y-76200000D03*
X173600000Y-76200000D03*
X143600000Y-88200000D03*
X158600000Y-88200000D03*
X173600000Y-88200000D03*
X143600000Y-100200000D03*
X158600000Y-100200000D03*
X173600000Y-100200000D03*
X158600000Y-75700000D03*
X173600000Y-75700000D03*
X143600000Y-87700000D03*
X158600000Y-87700000D03*
X173600000Y-87700000D03*
X143600000Y-99700000D03*
X158600000Y-99700000D03*
X173600000Y-99700000D03*
X162900000Y-75200000D03*
X177900000Y-75200000D03*
X147900000Y-87200000D03*
X162900000Y-87200000D03*
X177900000Y-87200000D03*
X147900000Y-99200000D03*
X162900000Y-99200000D03*
X177900000Y-99200000D03*
X158600000Y-74700000D03*
X173600000Y-74700000D03*
X143600000Y-86700000D03*
X158600000Y-86700000D03*
X173600000Y-86700000D03*
X143600000Y-98700000D03*
X158600000Y-98700000D03*
X173600000Y-98700000D03*
X162900000Y-74700000D03*
X177900000Y-74700000D03*
X147900000Y-86700000D03*
X162900000Y-86700000D03*
X177900000Y-86700000D03*
X147900000Y-98700000D03*
X162900000Y-98700000D03*
X177900000Y-98700000D03*
X151706586Y-80057817D03*
X166706586Y-80057817D03*
X181706586Y-80057817D03*
X136706586Y-92057817D03*
X151706586Y-92057817D03*
X166706586Y-92057817D03*
X181706586Y-92057817D03*
X162900000Y-75700000D03*
X177900000Y-75700000D03*
X147900000Y-87700000D03*
X162900000Y-87700000D03*
X177900000Y-87700000D03*
X147900000Y-99700000D03*
X162900000Y-99700000D03*
X177900000Y-99700000D03*
X158600000Y-74700000D03*
X173600000Y-74700000D03*
X143600000Y-86700000D03*
X158600000Y-86700000D03*
X173600000Y-86700000D03*
X143600000Y-98700000D03*
X158600000Y-98700000D03*
X173600000Y-98700000D03*
D15*
G04 #@! TO.N,GND*
X133900000Y-77550000D03*
X142625000Y-75500000D03*
X140600000Y-76400000D03*
X157625000Y-75500000D03*
X172625000Y-75500000D03*
X187625000Y-75500000D03*
X142625000Y-87500000D03*
X157625000Y-87500000D03*
X172625000Y-87500000D03*
X187625000Y-87500000D03*
X142625000Y-99500000D03*
X157625000Y-99500000D03*
X172625000Y-99500000D03*
X187625000Y-99500000D03*
X148900000Y-77550000D03*
X163900000Y-77550000D03*
X178900000Y-77550000D03*
X133900000Y-89550000D03*
X148900000Y-89550000D03*
X163900000Y-89550000D03*
X178900000Y-89550000D03*
X133900000Y-101550000D03*
X148900000Y-101550000D03*
X163900000Y-101550000D03*
X178900000Y-101550000D03*
X155600000Y-76400000D03*
X170600000Y-76400000D03*
X185600000Y-76400000D03*
X140600000Y-88400000D03*
X155600000Y-88400000D03*
X170600000Y-88400000D03*
X185600000Y-88400000D03*
X140600000Y-100400000D03*
X155600000Y-100400000D03*
X170600000Y-100400000D03*
X185600000Y-100400000D03*
G04 #@! TO.N,/LED*
X136700000Y-77550000D03*
X151700000Y-77550000D03*
X166700000Y-77550000D03*
X181700000Y-77550000D03*
X136700000Y-89550000D03*
X151700000Y-89550000D03*
X166700000Y-89550000D03*
X181700000Y-89550000D03*
X136700000Y-101550000D03*
X151700000Y-101550000D03*
X166700000Y-101550000D03*
X181700000Y-101550000D03*
G04 #@! TO.N,+3V3*
X141100000Y-75300000D03*
X136700000Y-74450000D03*
X156100000Y-75300000D03*
X171100000Y-75300000D03*
X186100000Y-75300000D03*
X141100000Y-87300000D03*
X156100000Y-87300000D03*
X171100000Y-87300000D03*
X186100000Y-87300000D03*
X141100000Y-99300000D03*
X156100000Y-99300000D03*
X171100000Y-99300000D03*
X186100000Y-99300000D03*
X151700000Y-74450000D03*
X166700000Y-74450000D03*
X181700000Y-74450000D03*
X136700000Y-86450000D03*
X151700000Y-86450000D03*
X166700000Y-86450000D03*
X181700000Y-86450000D03*
X136700000Y-98450000D03*
X151700000Y-98450000D03*
X166700000Y-98450000D03*
X181700000Y-98450000D03*
G04 #@! TO.N,/E0_filtered*
X141000000Y-73700000D03*
X156000000Y-73700000D03*
X171000000Y-73700000D03*
X186000000Y-73700000D03*
X141000000Y-85700000D03*
X156000000Y-85700000D03*
X171000000Y-85700000D03*
X186000000Y-85700000D03*
X141000000Y-97700000D03*
X156000000Y-97700000D03*
X171000000Y-97700000D03*
X186000000Y-97700000D03*
G04 #@! TO.N,/E1_filtered*
X141100000Y-78100000D03*
X156100000Y-78100000D03*
X171100000Y-78100000D03*
X186100000Y-78100000D03*
X141100000Y-90100000D03*
X156100000Y-90100000D03*
X171100000Y-90100000D03*
X186100000Y-90100000D03*
X141100000Y-102100000D03*
X156100000Y-102100000D03*
X171100000Y-102100000D03*
X186100000Y-102100000D03*
G04 #@! TD*
D16*
G04 #@! TO.N,GND*
X142625000Y-72789998D02*
X142625000Y-75500000D01*
X142460001Y-72624999D02*
X142625000Y-72789998D01*
X140625001Y-72624999D02*
X142460001Y-72624999D01*
X139950000Y-73150000D02*
X140100000Y-73150000D01*
X140100000Y-73150000D02*
X140625001Y-72624999D01*
X140600000Y-76900000D02*
X140050000Y-77450000D01*
X140600000Y-76400000D02*
X140600000Y-76900000D01*
X157625000Y-72789998D02*
X157625000Y-75500000D01*
X172625000Y-72789998D02*
X172625000Y-75500000D01*
X187625000Y-72789998D02*
X187625000Y-75500000D01*
X142625000Y-84789998D02*
X142625000Y-87500000D01*
X157625000Y-84789998D02*
X157625000Y-87500000D01*
X172625000Y-84789998D02*
X172625000Y-87500000D01*
X187625000Y-84789998D02*
X187625000Y-87500000D01*
X142625000Y-96789998D02*
X142625000Y-99500000D01*
X157625000Y-96789998D02*
X157625000Y-99500000D01*
X172625000Y-96789998D02*
X172625000Y-99500000D01*
X187625000Y-96789998D02*
X187625000Y-99500000D01*
X155625001Y-72624999D02*
X157460001Y-72624999D01*
X170625001Y-72624999D02*
X172460001Y-72624999D01*
X185625001Y-72624999D02*
X187460001Y-72624999D01*
X140625001Y-84624999D02*
X142460001Y-84624999D01*
X155625001Y-84624999D02*
X157460001Y-84624999D01*
X170625001Y-84624999D02*
X172460001Y-84624999D01*
X185625001Y-84624999D02*
X187460001Y-84624999D01*
X140625001Y-96624999D02*
X142460001Y-96624999D01*
X155625001Y-96624999D02*
X157460001Y-96624999D01*
X170625001Y-96624999D02*
X172460001Y-96624999D01*
X185625001Y-96624999D02*
X187460001Y-96624999D01*
X157460001Y-72624999D02*
X157625000Y-72789998D01*
X172460001Y-72624999D02*
X172625000Y-72789998D01*
X187460001Y-72624999D02*
X187625000Y-72789998D01*
X142460001Y-84624999D02*
X142625000Y-84789998D01*
X157460001Y-84624999D02*
X157625000Y-84789998D01*
X172460001Y-84624999D02*
X172625000Y-84789998D01*
X187460001Y-84624999D02*
X187625000Y-84789998D01*
X142460001Y-96624999D02*
X142625000Y-96789998D01*
X157460001Y-96624999D02*
X157625000Y-96789998D01*
X172460001Y-96624999D02*
X172625000Y-96789998D01*
X187460001Y-96624999D02*
X187625000Y-96789998D01*
X155600000Y-76400000D02*
X155600000Y-76900000D01*
X170600000Y-76400000D02*
X170600000Y-76900000D01*
X185600000Y-76400000D02*
X185600000Y-76900000D01*
X140600000Y-88400000D02*
X140600000Y-88900000D01*
X155600000Y-88400000D02*
X155600000Y-88900000D01*
X170600000Y-88400000D02*
X170600000Y-88900000D01*
X185600000Y-88400000D02*
X185600000Y-88900000D01*
X140600000Y-100400000D02*
X140600000Y-100900000D01*
X155600000Y-100400000D02*
X155600000Y-100900000D01*
X170600000Y-100400000D02*
X170600000Y-100900000D01*
X185600000Y-100400000D02*
X185600000Y-100900000D01*
X155100000Y-73150000D02*
X155625001Y-72624999D01*
X170100000Y-73150000D02*
X170625001Y-72624999D01*
X185100000Y-73150000D02*
X185625001Y-72624999D01*
X140100000Y-85150000D02*
X140625001Y-84624999D01*
X155100000Y-85150000D02*
X155625001Y-84624999D01*
X170100000Y-85150000D02*
X170625001Y-84624999D01*
X185100000Y-85150000D02*
X185625001Y-84624999D01*
X140100000Y-97150000D02*
X140625001Y-96624999D01*
X155100000Y-97150000D02*
X155625001Y-96624999D01*
X170100000Y-97150000D02*
X170625001Y-96624999D01*
X185100000Y-97150000D02*
X185625001Y-96624999D01*
X154950000Y-73150000D02*
X155100000Y-73150000D01*
X169950000Y-73150000D02*
X170100000Y-73150000D01*
X184950000Y-73150000D02*
X185100000Y-73150000D01*
X139950000Y-85150000D02*
X140100000Y-85150000D01*
X154950000Y-85150000D02*
X155100000Y-85150000D01*
X169950000Y-85150000D02*
X170100000Y-85150000D01*
X184950000Y-85150000D02*
X185100000Y-85150000D01*
X139950000Y-97150000D02*
X140100000Y-97150000D01*
X154950000Y-97150000D02*
X155100000Y-97150000D01*
X169950000Y-97150000D02*
X170100000Y-97150000D01*
X184950000Y-97150000D02*
X185100000Y-97150000D01*
X155600000Y-76900000D02*
X155050000Y-77450000D01*
X170600000Y-76900000D02*
X170050000Y-77450000D01*
X185600000Y-76900000D02*
X185050000Y-77450000D01*
X140600000Y-88900000D02*
X140050000Y-89450000D01*
X155600000Y-88900000D02*
X155050000Y-89450000D01*
X170600000Y-88900000D02*
X170050000Y-89450000D01*
X185600000Y-88900000D02*
X185050000Y-89450000D01*
X140600000Y-100900000D02*
X140050000Y-101450000D01*
X155600000Y-100900000D02*
X155050000Y-101450000D01*
X170600000Y-100900000D02*
X170050000Y-101450000D01*
X185600000Y-100900000D02*
X185050000Y-101450000D01*
G04 #@! TO.N,+3V3*
X141100000Y-75200000D02*
X141850000Y-74450000D01*
X141100000Y-75300000D02*
X141100000Y-75200000D01*
X142625001Y-78224999D02*
X142100000Y-78750000D01*
X142625001Y-76825001D02*
X142625001Y-78224999D01*
X142100000Y-78750000D02*
X141950000Y-78750000D01*
X141100000Y-75300000D02*
X142625001Y-76825001D01*
X157100000Y-78750000D02*
X156950000Y-78750000D01*
X172100000Y-78750000D02*
X171950000Y-78750000D01*
X187100000Y-78750000D02*
X186950000Y-78750000D01*
X142100000Y-90750000D02*
X141950000Y-90750000D01*
X157100000Y-90750000D02*
X156950000Y-90750000D01*
X172100000Y-90750000D02*
X171950000Y-90750000D01*
X187100000Y-90750000D02*
X186950000Y-90750000D01*
X142100000Y-102750000D02*
X141950000Y-102750000D01*
X157100000Y-102750000D02*
X156950000Y-102750000D01*
X172100000Y-102750000D02*
X171950000Y-102750000D01*
X187100000Y-102750000D02*
X186950000Y-102750000D01*
X157625001Y-76825001D02*
X157625001Y-78224999D01*
X172625001Y-76825001D02*
X172625001Y-78224999D01*
X187625001Y-76825001D02*
X187625001Y-78224999D01*
X142625001Y-88825001D02*
X142625001Y-90224999D01*
X157625001Y-88825001D02*
X157625001Y-90224999D01*
X172625001Y-88825001D02*
X172625001Y-90224999D01*
X187625001Y-88825001D02*
X187625001Y-90224999D01*
X142625001Y-100825001D02*
X142625001Y-102224999D01*
X157625001Y-100825001D02*
X157625001Y-102224999D01*
X172625001Y-100825001D02*
X172625001Y-102224999D01*
X187625001Y-100825001D02*
X187625001Y-102224999D01*
X156100000Y-75300000D02*
X157625001Y-76825001D01*
X171100000Y-75300000D02*
X172625001Y-76825001D01*
X186100000Y-75300000D02*
X187625001Y-76825001D01*
X141100000Y-87300000D02*
X142625001Y-88825001D01*
X156100000Y-87300000D02*
X157625001Y-88825001D01*
X171100000Y-87300000D02*
X172625001Y-88825001D01*
X186100000Y-87300000D02*
X187625001Y-88825001D01*
X141100000Y-99300000D02*
X142625001Y-100825001D01*
X156100000Y-99300000D02*
X157625001Y-100825001D01*
X171100000Y-99300000D02*
X172625001Y-100825001D01*
X186100000Y-99300000D02*
X187625001Y-100825001D01*
X157625001Y-78224999D02*
X157100000Y-78750000D01*
X172625001Y-78224999D02*
X172100000Y-78750000D01*
X187625001Y-78224999D02*
X187100000Y-78750000D01*
X142625001Y-90224999D02*
X142100000Y-90750000D01*
X157625001Y-90224999D02*
X157100000Y-90750000D01*
X172625001Y-90224999D02*
X172100000Y-90750000D01*
X187625001Y-90224999D02*
X187100000Y-90750000D01*
X142625001Y-102224999D02*
X142100000Y-102750000D01*
X157625001Y-102224999D02*
X157100000Y-102750000D01*
X172625001Y-102224999D02*
X172100000Y-102750000D01*
X187625001Y-102224999D02*
X187100000Y-102750000D01*
X156100000Y-75300000D02*
X156100000Y-75200000D01*
X171100000Y-75300000D02*
X171100000Y-75200000D01*
X186100000Y-75300000D02*
X186100000Y-75200000D01*
X141100000Y-87300000D02*
X141100000Y-87200000D01*
X156100000Y-87300000D02*
X156100000Y-87200000D01*
X171100000Y-87300000D02*
X171100000Y-87200000D01*
X186100000Y-87300000D02*
X186100000Y-87200000D01*
X141100000Y-99300000D02*
X141100000Y-99200000D01*
X156100000Y-99300000D02*
X156100000Y-99200000D01*
X171100000Y-99300000D02*
X171100000Y-99200000D01*
X186100000Y-99300000D02*
X186100000Y-99200000D01*
X156100000Y-75200000D02*
X156850000Y-74450000D01*
X171100000Y-75200000D02*
X171850000Y-74450000D01*
X186100000Y-75200000D02*
X186850000Y-74450000D01*
X141100000Y-87200000D02*
X141850000Y-86450000D01*
X156100000Y-87200000D02*
X156850000Y-86450000D01*
X171100000Y-87200000D02*
X171850000Y-86450000D01*
X186100000Y-87200000D02*
X186850000Y-86450000D01*
X141100000Y-99200000D02*
X141850000Y-98450000D01*
X156100000Y-99200000D02*
X156850000Y-98450000D01*
X171100000Y-99200000D02*
X171850000Y-98450000D01*
X186100000Y-99200000D02*
X186850000Y-98450000D01*
G04 #@! TO.N,/E1*
X135335000Y-74450000D02*
X138500000Y-77615000D01*
X135300000Y-74450000D02*
X135335000Y-74450000D01*
X150300000Y-74450000D02*
X150335000Y-74450000D01*
X165300000Y-74450000D02*
X165335000Y-74450000D01*
X180300000Y-74450000D02*
X180335000Y-74450000D01*
X135300000Y-86450000D02*
X135335000Y-86450000D01*
X150300000Y-86450000D02*
X150335000Y-86450000D01*
X165300000Y-86450000D02*
X165335000Y-86450000D01*
X180300000Y-86450000D02*
X180335000Y-86450000D01*
X135300000Y-98450000D02*
X135335000Y-98450000D01*
X150300000Y-98450000D02*
X150335000Y-98450000D01*
X165300000Y-98450000D02*
X165335000Y-98450000D01*
X180300000Y-98450000D02*
X180335000Y-98450000D01*
X150335000Y-74450000D02*
X153500000Y-77615000D01*
X165335000Y-74450000D02*
X168500000Y-77615000D01*
X180335000Y-74450000D02*
X183500000Y-77615000D01*
X135335000Y-86450000D02*
X138500000Y-89615000D01*
X150335000Y-86450000D02*
X153500000Y-89615000D01*
X165335000Y-86450000D02*
X168500000Y-89615000D01*
X180335000Y-86450000D02*
X183500000Y-89615000D01*
X135335000Y-98450000D02*
X138500000Y-101615000D01*
X150335000Y-98450000D02*
X153500000Y-101615000D01*
X165335000Y-98450000D02*
X168500000Y-101615000D01*
X180335000Y-98450000D02*
X183500000Y-101615000D01*
G04 #@! TO.N,/E0*
X137310001Y-72624999D02*
X137600000Y-72914998D01*
X134689999Y-72624999D02*
X137310001Y-72624999D01*
X133900000Y-74450000D02*
X133900000Y-73414998D01*
X133900000Y-73414998D02*
X134689999Y-72624999D01*
X138080000Y-74185000D02*
X138500000Y-74185000D01*
X137600000Y-73705000D02*
X138080000Y-74185000D01*
X137600000Y-72914998D02*
X137600000Y-73705000D01*
X149689999Y-72624999D02*
X152310001Y-72624999D01*
X164689999Y-72624999D02*
X167310001Y-72624999D01*
X179689999Y-72624999D02*
X182310001Y-72624999D01*
X134689999Y-84624999D02*
X137310001Y-84624999D01*
X149689999Y-84624999D02*
X152310001Y-84624999D01*
X164689999Y-84624999D02*
X167310001Y-84624999D01*
X179689999Y-84624999D02*
X182310001Y-84624999D01*
X134689999Y-96624999D02*
X137310001Y-96624999D01*
X149689999Y-96624999D02*
X152310001Y-96624999D01*
X164689999Y-96624999D02*
X167310001Y-96624999D01*
X179689999Y-96624999D02*
X182310001Y-96624999D01*
X152310001Y-72624999D02*
X152600000Y-72914998D01*
X167310001Y-72624999D02*
X167600000Y-72914998D01*
X182310001Y-72624999D02*
X182600000Y-72914998D01*
X137310001Y-84624999D02*
X137600000Y-84914998D01*
X152310001Y-84624999D02*
X152600000Y-84914998D01*
X167310001Y-84624999D02*
X167600000Y-84914998D01*
X182310001Y-84624999D02*
X182600000Y-84914998D01*
X137310001Y-96624999D02*
X137600000Y-96914998D01*
X152310001Y-96624999D02*
X152600000Y-96914998D01*
X167310001Y-96624999D02*
X167600000Y-96914998D01*
X182310001Y-96624999D02*
X182600000Y-96914998D01*
X148900000Y-73414998D02*
X149689999Y-72624999D01*
X163900000Y-73414998D02*
X164689999Y-72624999D01*
X178900000Y-73414998D02*
X179689999Y-72624999D01*
X133900000Y-85414998D02*
X134689999Y-84624999D01*
X148900000Y-85414998D02*
X149689999Y-84624999D01*
X163900000Y-85414998D02*
X164689999Y-84624999D01*
X178900000Y-85414998D02*
X179689999Y-84624999D01*
X133900000Y-97414998D02*
X134689999Y-96624999D01*
X148900000Y-97414998D02*
X149689999Y-96624999D01*
X163900000Y-97414998D02*
X164689999Y-96624999D01*
X178900000Y-97414998D02*
X179689999Y-96624999D01*
X152600000Y-72914998D02*
X152600000Y-73705000D01*
X167600000Y-72914998D02*
X167600000Y-73705000D01*
X182600000Y-72914998D02*
X182600000Y-73705000D01*
X137600000Y-84914998D02*
X137600000Y-85705000D01*
X152600000Y-84914998D02*
X152600000Y-85705000D01*
X167600000Y-84914998D02*
X167600000Y-85705000D01*
X182600000Y-84914998D02*
X182600000Y-85705000D01*
X137600000Y-96914998D02*
X137600000Y-97705000D01*
X152600000Y-96914998D02*
X152600000Y-97705000D01*
X167600000Y-96914998D02*
X167600000Y-97705000D01*
X182600000Y-96914998D02*
X182600000Y-97705000D01*
X152600000Y-73705000D02*
X153080000Y-74185000D01*
X167600000Y-73705000D02*
X168080000Y-74185000D01*
X182600000Y-73705000D02*
X183080000Y-74185000D01*
X137600000Y-85705000D02*
X138080000Y-86185000D01*
X152600000Y-85705000D02*
X153080000Y-86185000D01*
X167600000Y-85705000D02*
X168080000Y-86185000D01*
X182600000Y-85705000D02*
X183080000Y-86185000D01*
X137600000Y-97705000D02*
X138080000Y-98185000D01*
X152600000Y-97705000D02*
X153080000Y-98185000D01*
X167600000Y-97705000D02*
X168080000Y-98185000D01*
X182600000Y-97705000D02*
X183080000Y-98185000D01*
X153080000Y-74185000D02*
X153500000Y-74185000D01*
X168080000Y-74185000D02*
X168500000Y-74185000D01*
X183080000Y-74185000D02*
X183500000Y-74185000D01*
X138080000Y-86185000D02*
X138500000Y-86185000D01*
X153080000Y-86185000D02*
X153500000Y-86185000D01*
X168080000Y-86185000D02*
X168500000Y-86185000D01*
X183080000Y-86185000D02*
X183500000Y-86185000D01*
X138080000Y-98185000D02*
X138500000Y-98185000D01*
X153080000Y-98185000D02*
X153500000Y-98185000D01*
X168080000Y-98185000D02*
X168500000Y-98185000D01*
X183080000Y-98185000D02*
X183500000Y-98185000D01*
X148900000Y-74450000D02*
X148900000Y-73414998D01*
X163900000Y-74450000D02*
X163900000Y-73414998D01*
X178900000Y-74450000D02*
X178900000Y-73414998D01*
X133900000Y-86450000D02*
X133900000Y-85414998D01*
X148900000Y-86450000D02*
X148900000Y-85414998D01*
X163900000Y-86450000D02*
X163900000Y-85414998D01*
X178900000Y-86450000D02*
X178900000Y-85414998D01*
X133900000Y-98450000D02*
X133900000Y-97414998D01*
X148900000Y-98450000D02*
X148900000Y-97414998D01*
X163900000Y-98450000D02*
X163900000Y-97414998D01*
X178900000Y-98450000D02*
X178900000Y-97414998D01*
G04 #@! TO.N,/E0_filtered*
X141850000Y-73150000D02*
X141550000Y-73150000D01*
X141550000Y-73150000D02*
X141000000Y-73700000D01*
X156550000Y-73150000D02*
X156000000Y-73700000D01*
X171550000Y-73150000D02*
X171000000Y-73700000D01*
X186550000Y-73150000D02*
X186000000Y-73700000D01*
X141550000Y-85150000D02*
X141000000Y-85700000D01*
X156550000Y-85150000D02*
X156000000Y-85700000D01*
X171550000Y-85150000D02*
X171000000Y-85700000D01*
X186550000Y-85150000D02*
X186000000Y-85700000D01*
X141550000Y-97150000D02*
X141000000Y-97700000D01*
X156550000Y-97150000D02*
X156000000Y-97700000D01*
X171550000Y-97150000D02*
X171000000Y-97700000D01*
X186550000Y-97150000D02*
X186000000Y-97700000D01*
X156850000Y-73150000D02*
X156550000Y-73150000D01*
X171850000Y-73150000D02*
X171550000Y-73150000D01*
X186850000Y-73150000D02*
X186550000Y-73150000D01*
X141850000Y-85150000D02*
X141550000Y-85150000D01*
X156850000Y-85150000D02*
X156550000Y-85150000D01*
X171850000Y-85150000D02*
X171550000Y-85150000D01*
X186850000Y-85150000D02*
X186550000Y-85150000D01*
X141850000Y-97150000D02*
X141550000Y-97150000D01*
X156850000Y-97150000D02*
X156550000Y-97150000D01*
X171850000Y-97150000D02*
X171550000Y-97150000D01*
X186850000Y-97150000D02*
X186550000Y-97150000D01*
G04 #@! TO.N,/E1_filtered*
X141950000Y-77450000D02*
X141750000Y-77450000D01*
X141750000Y-77450000D02*
X141100000Y-78100000D01*
X156750000Y-77450000D02*
X156100000Y-78100000D01*
X171750000Y-77450000D02*
X171100000Y-78100000D01*
X186750000Y-77450000D02*
X186100000Y-78100000D01*
X141750000Y-89450000D02*
X141100000Y-90100000D01*
X156750000Y-89450000D02*
X156100000Y-90100000D01*
X171750000Y-89450000D02*
X171100000Y-90100000D01*
X186750000Y-89450000D02*
X186100000Y-90100000D01*
X141750000Y-101450000D02*
X141100000Y-102100000D01*
X156750000Y-101450000D02*
X156100000Y-102100000D01*
X171750000Y-101450000D02*
X171100000Y-102100000D01*
X186750000Y-101450000D02*
X186100000Y-102100000D01*
X156950000Y-77450000D02*
X156750000Y-77450000D01*
X171950000Y-77450000D02*
X171750000Y-77450000D01*
X186950000Y-77450000D02*
X186750000Y-77450000D01*
X141950000Y-89450000D02*
X141750000Y-89450000D01*
X156950000Y-89450000D02*
X156750000Y-89450000D01*
X171950000Y-89450000D02*
X171750000Y-89450000D01*
X186950000Y-89450000D02*
X186750000Y-89450000D01*
X141950000Y-101450000D02*
X141750000Y-101450000D01*
X156950000Y-101450000D02*
X156750000Y-101450000D01*
X171950000Y-101450000D02*
X171750000Y-101450000D01*
X186950000Y-101450000D02*
X186750000Y-101450000D01*
G04 #@! TO.N,Net-(J3-Pad2)*
X138834168Y-73549168D02*
X138500000Y-73215000D01*
X139099168Y-73549168D02*
X138834168Y-73549168D01*
X139350000Y-73800000D02*
X139099168Y-73549168D01*
X139950000Y-73800000D02*
X139350000Y-73800000D01*
X154350000Y-73800000D02*
X154099168Y-73549168D01*
X169350000Y-73800000D02*
X169099168Y-73549168D01*
X184350000Y-73800000D02*
X184099168Y-73549168D01*
X139350000Y-85800000D02*
X139099168Y-85549168D01*
X154350000Y-85800000D02*
X154099168Y-85549168D01*
X169350000Y-85800000D02*
X169099168Y-85549168D01*
X184350000Y-85800000D02*
X184099168Y-85549168D01*
X139350000Y-97800000D02*
X139099168Y-97549168D01*
X154350000Y-97800000D02*
X154099168Y-97549168D01*
X169350000Y-97800000D02*
X169099168Y-97549168D01*
X184350000Y-97800000D02*
X184099168Y-97549168D01*
X153834168Y-73549168D02*
X153500000Y-73215000D01*
X168834168Y-73549168D02*
X168500000Y-73215000D01*
X183834168Y-73549168D02*
X183500000Y-73215000D01*
X138834168Y-85549168D02*
X138500000Y-85215000D01*
X153834168Y-85549168D02*
X153500000Y-85215000D01*
X168834168Y-85549168D02*
X168500000Y-85215000D01*
X183834168Y-85549168D02*
X183500000Y-85215000D01*
X138834168Y-97549168D02*
X138500000Y-97215000D01*
X153834168Y-97549168D02*
X153500000Y-97215000D01*
X168834168Y-97549168D02*
X168500000Y-97215000D01*
X183834168Y-97549168D02*
X183500000Y-97215000D01*
X154099168Y-73549168D02*
X153834168Y-73549168D01*
X169099168Y-73549168D02*
X168834168Y-73549168D01*
X184099168Y-73549168D02*
X183834168Y-73549168D01*
X139099168Y-85549168D02*
X138834168Y-85549168D01*
X154099168Y-85549168D02*
X153834168Y-85549168D01*
X169099168Y-85549168D02*
X168834168Y-85549168D01*
X184099168Y-85549168D02*
X183834168Y-85549168D01*
X139099168Y-97549168D02*
X138834168Y-97549168D01*
X154099168Y-97549168D02*
X153834168Y-97549168D01*
X169099168Y-97549168D02*
X168834168Y-97549168D01*
X184099168Y-97549168D02*
X183834168Y-97549168D01*
X154950000Y-73800000D02*
X154350000Y-73800000D01*
X169950000Y-73800000D02*
X169350000Y-73800000D01*
X184950000Y-73800000D02*
X184350000Y-73800000D01*
X139950000Y-85800000D02*
X139350000Y-85800000D01*
X154950000Y-85800000D02*
X154350000Y-85800000D01*
X169950000Y-85800000D02*
X169350000Y-85800000D01*
X184950000Y-85800000D02*
X184350000Y-85800000D01*
X139950000Y-97800000D02*
X139350000Y-97800000D01*
X154950000Y-97800000D02*
X154350000Y-97800000D01*
X169950000Y-97800000D02*
X169350000Y-97800000D01*
X184950000Y-97800000D02*
X184350000Y-97800000D01*
G04 #@! TO.N,Net-(J4-Pad2)*
X138920000Y-78585000D02*
X138500000Y-78585000D01*
X138965000Y-78585000D02*
X138920000Y-78585000D01*
X139450000Y-78100000D02*
X138965000Y-78585000D01*
X140050000Y-78100000D02*
X139450000Y-78100000D01*
X153920000Y-78585000D02*
X153500000Y-78585000D01*
X168920000Y-78585000D02*
X168500000Y-78585000D01*
X183920000Y-78585000D02*
X183500000Y-78585000D01*
X138920000Y-90585000D02*
X138500000Y-90585000D01*
X153920000Y-90585000D02*
X153500000Y-90585000D01*
X168920000Y-90585000D02*
X168500000Y-90585000D01*
X183920000Y-90585000D02*
X183500000Y-90585000D01*
X138920000Y-102585000D02*
X138500000Y-102585000D01*
X153920000Y-102585000D02*
X153500000Y-102585000D01*
X168920000Y-102585000D02*
X168500000Y-102585000D01*
X183920000Y-102585000D02*
X183500000Y-102585000D01*
X155050000Y-78100000D02*
X154450000Y-78100000D01*
X170050000Y-78100000D02*
X169450000Y-78100000D01*
X185050000Y-78100000D02*
X184450000Y-78100000D01*
X140050000Y-90100000D02*
X139450000Y-90100000D01*
X155050000Y-90100000D02*
X154450000Y-90100000D01*
X170050000Y-90100000D02*
X169450000Y-90100000D01*
X185050000Y-90100000D02*
X184450000Y-90100000D01*
X140050000Y-102100000D02*
X139450000Y-102100000D01*
X155050000Y-102100000D02*
X154450000Y-102100000D01*
X170050000Y-102100000D02*
X169450000Y-102100000D01*
X185050000Y-102100000D02*
X184450000Y-102100000D01*
X153965000Y-78585000D02*
X153920000Y-78585000D01*
X168965000Y-78585000D02*
X168920000Y-78585000D01*
X183965000Y-78585000D02*
X183920000Y-78585000D01*
X138965000Y-90585000D02*
X138920000Y-90585000D01*
X153965000Y-90585000D02*
X153920000Y-90585000D01*
X168965000Y-90585000D02*
X168920000Y-90585000D01*
X183965000Y-90585000D02*
X183920000Y-90585000D01*
X138965000Y-102585000D02*
X138920000Y-102585000D01*
X153965000Y-102585000D02*
X153920000Y-102585000D01*
X168965000Y-102585000D02*
X168920000Y-102585000D01*
X183965000Y-102585000D02*
X183920000Y-102585000D01*
X154450000Y-78100000D02*
X153965000Y-78585000D01*
X169450000Y-78100000D02*
X168965000Y-78585000D01*
X184450000Y-78100000D02*
X183965000Y-78585000D01*
X139450000Y-90100000D02*
X138965000Y-90585000D01*
X154450000Y-90100000D02*
X153965000Y-90585000D01*
X169450000Y-90100000D02*
X168965000Y-90585000D01*
X184450000Y-90100000D02*
X183965000Y-90585000D01*
X139450000Y-102100000D02*
X138965000Y-102585000D01*
X154450000Y-102100000D02*
X153965000Y-102585000D01*
X169450000Y-102100000D02*
X168965000Y-102585000D01*
X184450000Y-102100000D02*
X183965000Y-102585000D01*
G04 #@! TD*
M02*
