G04 #@! TF.GenerationSoftware,KiCad,Pcbnew,5.0.2-bee76a0~70~ubuntu18.04.1*
G04 #@! TF.CreationDate,2020-01-30T22:42:59+01:00*
G04 #@! TF.ProjectId,schmitt_trigger_adapter,7363686d-6974-4745-9f74-726967676572,rev?*
G04 #@! TF.SameCoordinates,Original*
G04 #@! TF.FileFunction,Copper,L1,Top*
G04 #@! TF.FilePolarity,Positive*
%FSLAX46Y46*%
G04 Gerber Fmt 4.6, Leading zero omitted, Abs format (unit mm)*
G04 Created by KiCad (PCBNEW 5.0.2-bee76a0~70~ubuntu18.04.1) date Thu 30 Jan 2020 10:42:59 PM CET*
%MOMM*%
%LPD*%
G01*
G04 APERTURE LIST*
G04 #@! TA.AperFunction,SMDPad,CuDef*
%ADD10R,0.700000X2.000000*%
G04 #@! TD*
G04 #@! TA.AperFunction,ViaPad*
%ADD11C,0.410000*%
G04 #@! TD*
G04 #@! TA.AperFunction,ViaPad*
%ADD12C,0.800000*%
G04 #@! TD*
G04 #@! TA.AperFunction,Conductor*
%ADD13C,0.250000*%
G04 #@! TD*
G04 APERTURE END LIST*
D10*
G04 #@! TO.P,J1,1*
G04 #@! TO.N,+3V3*
X181700000Y-97950000D03*
G04 #@! TO.P,J1,2*
G04 #@! TO.N,/E1_filtered*
X180300000Y-97950000D03*
G04 #@! TO.P,J1,3*
G04 #@! TO.N,/E0_filtered*
X178900000Y-97950000D03*
G04 #@! TO.P,J1,4*
G04 #@! TO.N,GND*
X178900000Y-102050000D03*
G04 #@! TO.P,J1,6*
G04 #@! TO.N,/LED*
X181700000Y-102050000D03*
G04 #@! TO.P,J1,5*
G04 #@! TO.N,Net-(J1-Pad5)*
X180300000Y-102050000D03*
G04 #@! TD*
G04 #@! TO.P,J1,1*
G04 #@! TO.N,+3V3*
X166700000Y-97950000D03*
G04 #@! TO.P,J1,2*
G04 #@! TO.N,/E1_filtered*
X165300000Y-97950000D03*
G04 #@! TO.P,J1,3*
G04 #@! TO.N,/E0_filtered*
X163900000Y-97950000D03*
G04 #@! TO.P,J1,4*
G04 #@! TO.N,GND*
X163900000Y-102050000D03*
G04 #@! TO.P,J1,6*
G04 #@! TO.N,/LED*
X166700000Y-102050000D03*
G04 #@! TO.P,J1,5*
G04 #@! TO.N,Net-(J1-Pad5)*
X165300000Y-102050000D03*
G04 #@! TD*
G04 #@! TO.P,J1,1*
G04 #@! TO.N,+3V3*
X151700000Y-97950000D03*
G04 #@! TO.P,J1,2*
G04 #@! TO.N,/E1_filtered*
X150300000Y-97950000D03*
G04 #@! TO.P,J1,3*
G04 #@! TO.N,/E0_filtered*
X148900000Y-97950000D03*
G04 #@! TO.P,J1,4*
G04 #@! TO.N,GND*
X148900000Y-102050000D03*
G04 #@! TO.P,J1,6*
G04 #@! TO.N,/LED*
X151700000Y-102050000D03*
G04 #@! TO.P,J1,5*
G04 #@! TO.N,Net-(J1-Pad5)*
X150300000Y-102050000D03*
G04 #@! TD*
G04 #@! TO.P,J1,1*
G04 #@! TO.N,+3V3*
X136700000Y-97950000D03*
G04 #@! TO.P,J1,2*
G04 #@! TO.N,/E1_filtered*
X135300000Y-97950000D03*
G04 #@! TO.P,J1,3*
G04 #@! TO.N,/E0_filtered*
X133900000Y-97950000D03*
G04 #@! TO.P,J1,4*
G04 #@! TO.N,GND*
X133900000Y-102050000D03*
G04 #@! TO.P,J1,6*
G04 #@! TO.N,/LED*
X136700000Y-102050000D03*
G04 #@! TO.P,J1,5*
G04 #@! TO.N,Net-(J1-Pad5)*
X135300000Y-102050000D03*
G04 #@! TD*
G04 #@! TO.P,J1,1*
G04 #@! TO.N,+3V3*
X181700000Y-85950000D03*
G04 #@! TO.P,J1,2*
G04 #@! TO.N,/E1_filtered*
X180300000Y-85950000D03*
G04 #@! TO.P,J1,3*
G04 #@! TO.N,/E0_filtered*
X178900000Y-85950000D03*
G04 #@! TO.P,J1,4*
G04 #@! TO.N,GND*
X178900000Y-90050000D03*
G04 #@! TO.P,J1,6*
G04 #@! TO.N,/LED*
X181700000Y-90050000D03*
G04 #@! TO.P,J1,5*
G04 #@! TO.N,Net-(J1-Pad5)*
X180300000Y-90050000D03*
G04 #@! TD*
G04 #@! TO.P,J1,1*
G04 #@! TO.N,+3V3*
X166700000Y-85950000D03*
G04 #@! TO.P,J1,2*
G04 #@! TO.N,/E1_filtered*
X165300000Y-85950000D03*
G04 #@! TO.P,J1,3*
G04 #@! TO.N,/E0_filtered*
X163900000Y-85950000D03*
G04 #@! TO.P,J1,4*
G04 #@! TO.N,GND*
X163900000Y-90050000D03*
G04 #@! TO.P,J1,6*
G04 #@! TO.N,/LED*
X166700000Y-90050000D03*
G04 #@! TO.P,J1,5*
G04 #@! TO.N,Net-(J1-Pad5)*
X165300000Y-90050000D03*
G04 #@! TD*
G04 #@! TO.P,J1,1*
G04 #@! TO.N,+3V3*
X151700000Y-85950000D03*
G04 #@! TO.P,J1,2*
G04 #@! TO.N,/E1_filtered*
X150300000Y-85950000D03*
G04 #@! TO.P,J1,3*
G04 #@! TO.N,/E0_filtered*
X148900000Y-85950000D03*
G04 #@! TO.P,J1,4*
G04 #@! TO.N,GND*
X148900000Y-90050000D03*
G04 #@! TO.P,J1,6*
G04 #@! TO.N,/LED*
X151700000Y-90050000D03*
G04 #@! TO.P,J1,5*
G04 #@! TO.N,Net-(J1-Pad5)*
X150300000Y-90050000D03*
G04 #@! TD*
G04 #@! TO.P,J1,1*
G04 #@! TO.N,+3V3*
X136700000Y-85950000D03*
G04 #@! TO.P,J1,2*
G04 #@! TO.N,/E1_filtered*
X135300000Y-85950000D03*
G04 #@! TO.P,J1,3*
G04 #@! TO.N,/E0_filtered*
X133900000Y-85950000D03*
G04 #@! TO.P,J1,4*
G04 #@! TO.N,GND*
X133900000Y-90050000D03*
G04 #@! TO.P,J1,6*
G04 #@! TO.N,/LED*
X136700000Y-90050000D03*
G04 #@! TO.P,J1,5*
G04 #@! TO.N,Net-(J1-Pad5)*
X135300000Y-90050000D03*
G04 #@! TD*
G04 #@! TO.P,J1,1*
G04 #@! TO.N,+3V3*
X181700000Y-73950000D03*
G04 #@! TO.P,J1,2*
G04 #@! TO.N,/E1_filtered*
X180300000Y-73950000D03*
G04 #@! TO.P,J1,3*
G04 #@! TO.N,/E0_filtered*
X178900000Y-73950000D03*
G04 #@! TO.P,J1,4*
G04 #@! TO.N,GND*
X178900000Y-78050000D03*
G04 #@! TO.P,J1,6*
G04 #@! TO.N,/LED*
X181700000Y-78050000D03*
G04 #@! TO.P,J1,5*
G04 #@! TO.N,Net-(J1-Pad5)*
X180300000Y-78050000D03*
G04 #@! TD*
G04 #@! TO.P,J1,1*
G04 #@! TO.N,+3V3*
X166700000Y-73950000D03*
G04 #@! TO.P,J1,2*
G04 #@! TO.N,/E1_filtered*
X165300000Y-73950000D03*
G04 #@! TO.P,J1,3*
G04 #@! TO.N,/E0_filtered*
X163900000Y-73950000D03*
G04 #@! TO.P,J1,4*
G04 #@! TO.N,GND*
X163900000Y-78050000D03*
G04 #@! TO.P,J1,6*
G04 #@! TO.N,/LED*
X166700000Y-78050000D03*
G04 #@! TO.P,J1,5*
G04 #@! TO.N,Net-(J1-Pad5)*
X165300000Y-78050000D03*
G04 #@! TD*
G04 #@! TO.P,J1,1*
G04 #@! TO.N,+3V3*
X151700000Y-73950000D03*
G04 #@! TO.P,J1,2*
G04 #@! TO.N,/E1_filtered*
X150300000Y-73950000D03*
G04 #@! TO.P,J1,3*
G04 #@! TO.N,/E0_filtered*
X148900000Y-73950000D03*
G04 #@! TO.P,J1,4*
G04 #@! TO.N,GND*
X148900000Y-78050000D03*
G04 #@! TO.P,J1,6*
G04 #@! TO.N,/LED*
X151700000Y-78050000D03*
G04 #@! TO.P,J1,5*
G04 #@! TO.N,Net-(J1-Pad5)*
X150300000Y-78050000D03*
G04 #@! TD*
G04 #@! TO.P,J1,5*
G04 #@! TO.N,Net-(J1-Pad5)*
X135300000Y-78050000D03*
G04 #@! TO.P,J1,6*
G04 #@! TO.N,/LED*
X136700000Y-78050000D03*
G04 #@! TO.P,J1,4*
G04 #@! TO.N,GND*
X133900000Y-78050000D03*
G04 #@! TO.P,J1,3*
G04 #@! TO.N,/E0_filtered*
X133900000Y-73950000D03*
G04 #@! TO.P,J1,2*
G04 #@! TO.N,/E1_filtered*
X135300000Y-73950000D03*
G04 #@! TO.P,J1,1*
G04 #@! TO.N,+3V3*
X136700000Y-73950000D03*
G04 #@! TD*
D11*
G04 #@! TO.N,*
X143600000Y-74700000D03*
X143600000Y-74700000D03*
X143600000Y-74700000D03*
X143600000Y-75200000D03*
X143600000Y-75700000D03*
X143600000Y-76200000D03*
X143600000Y-76700000D03*
X147900000Y-76700000D03*
X147900000Y-74700000D03*
X147900000Y-75200000D03*
X147900000Y-76200000D03*
X147900000Y-75700000D03*
X147900000Y-74700000D03*
X147900000Y-74700000D03*
X138206586Y-80057817D03*
X136706586Y-80057817D03*
X136706586Y-80057817D03*
X138706586Y-80057817D03*
X137206586Y-80057817D03*
X136706586Y-80057817D03*
X137706586Y-80057817D03*
X136706586Y-83857817D03*
X137206586Y-83857817D03*
X136706586Y-83857817D03*
X138706586Y-83857817D03*
X138206586Y-83857817D03*
X137706586Y-83857817D03*
X136706586Y-83857817D03*
X153706586Y-83857817D03*
X168706586Y-83857817D03*
X183706586Y-83857817D03*
X138706586Y-95857817D03*
X153706586Y-95857817D03*
X168706586Y-95857817D03*
X183706586Y-95857817D03*
X158600000Y-76700000D03*
X173600000Y-76700000D03*
X143600000Y-88700000D03*
X158600000Y-88700000D03*
X173600000Y-88700000D03*
X143600000Y-100700000D03*
X158600000Y-100700000D03*
X173600000Y-100700000D03*
X153206586Y-83857817D03*
X168206586Y-83857817D03*
X183206586Y-83857817D03*
X138206586Y-95857817D03*
X153206586Y-95857817D03*
X168206586Y-95857817D03*
X183206586Y-95857817D03*
X162900000Y-76200000D03*
X177900000Y-76200000D03*
X147900000Y-88200000D03*
X162900000Y-88200000D03*
X177900000Y-88200000D03*
X147900000Y-100200000D03*
X162900000Y-100200000D03*
X177900000Y-100200000D03*
X151706586Y-80057817D03*
X166706586Y-80057817D03*
X181706586Y-80057817D03*
X136706586Y-92057817D03*
X151706586Y-92057817D03*
X166706586Y-92057817D03*
X181706586Y-92057817D03*
X162900000Y-74700000D03*
X177900000Y-74700000D03*
X147900000Y-86700000D03*
X162900000Y-86700000D03*
X177900000Y-86700000D03*
X147900000Y-98700000D03*
X162900000Y-98700000D03*
X177900000Y-98700000D03*
X152706586Y-83857817D03*
X167706586Y-83857817D03*
X182706586Y-83857817D03*
X137706586Y-95857817D03*
X152706586Y-95857817D03*
X167706586Y-95857817D03*
X182706586Y-95857817D03*
X152206586Y-80057817D03*
X167206586Y-80057817D03*
X182206586Y-80057817D03*
X137206586Y-92057817D03*
X152206586Y-92057817D03*
X167206586Y-92057817D03*
X182206586Y-92057817D03*
X162900000Y-74700000D03*
X177900000Y-74700000D03*
X147900000Y-86700000D03*
X162900000Y-86700000D03*
X177900000Y-86700000D03*
X147900000Y-98700000D03*
X162900000Y-98700000D03*
X177900000Y-98700000D03*
X151706586Y-80057817D03*
X166706586Y-80057817D03*
X181706586Y-80057817D03*
X136706586Y-92057817D03*
X151706586Y-92057817D03*
X166706586Y-92057817D03*
X181706586Y-92057817D03*
X153706586Y-80057817D03*
X168706586Y-80057817D03*
X183706586Y-80057817D03*
X138706586Y-92057817D03*
X153706586Y-92057817D03*
X168706586Y-92057817D03*
X183706586Y-92057817D03*
X158600000Y-74700000D03*
X173600000Y-74700000D03*
X143600000Y-86700000D03*
X158600000Y-86700000D03*
X173600000Y-86700000D03*
X143600000Y-98700000D03*
X158600000Y-98700000D03*
X173600000Y-98700000D03*
X151706586Y-83857817D03*
X166706586Y-83857817D03*
X181706586Y-83857817D03*
X136706586Y-95857817D03*
X151706586Y-95857817D03*
X166706586Y-95857817D03*
X181706586Y-95857817D03*
X153206586Y-80057817D03*
X168206586Y-80057817D03*
X183206586Y-80057817D03*
X138206586Y-92057817D03*
X153206586Y-92057817D03*
X168206586Y-92057817D03*
X183206586Y-92057817D03*
X151706586Y-83857817D03*
X166706586Y-83857817D03*
X181706586Y-83857817D03*
X136706586Y-95857817D03*
X151706586Y-95857817D03*
X166706586Y-95857817D03*
X181706586Y-95857817D03*
X162900000Y-76700000D03*
X177900000Y-76700000D03*
X147900000Y-88700000D03*
X162900000Y-88700000D03*
X177900000Y-88700000D03*
X147900000Y-100700000D03*
X162900000Y-100700000D03*
X177900000Y-100700000D03*
X152706586Y-80057817D03*
X167706586Y-80057817D03*
X182706586Y-80057817D03*
X137706586Y-92057817D03*
X152706586Y-92057817D03*
X167706586Y-92057817D03*
X182706586Y-92057817D03*
X151706586Y-83857817D03*
X166706586Y-83857817D03*
X181706586Y-83857817D03*
X136706586Y-95857817D03*
X151706586Y-95857817D03*
X166706586Y-95857817D03*
X181706586Y-95857817D03*
X158600000Y-75200000D03*
X173600000Y-75200000D03*
X143600000Y-87200000D03*
X158600000Y-87200000D03*
X173600000Y-87200000D03*
X143600000Y-99200000D03*
X158600000Y-99200000D03*
X173600000Y-99200000D03*
X152206586Y-83857817D03*
X167206586Y-83857817D03*
X182206586Y-83857817D03*
X137206586Y-95857817D03*
X152206586Y-95857817D03*
X167206586Y-95857817D03*
X182206586Y-95857817D03*
X158600000Y-76200000D03*
X173600000Y-76200000D03*
X143600000Y-88200000D03*
X158600000Y-88200000D03*
X173600000Y-88200000D03*
X143600000Y-100200000D03*
X158600000Y-100200000D03*
X173600000Y-100200000D03*
X158600000Y-75700000D03*
X173600000Y-75700000D03*
X143600000Y-87700000D03*
X158600000Y-87700000D03*
X173600000Y-87700000D03*
X143600000Y-99700000D03*
X158600000Y-99700000D03*
X173600000Y-99700000D03*
X162900000Y-75200000D03*
X177900000Y-75200000D03*
X147900000Y-87200000D03*
X162900000Y-87200000D03*
X177900000Y-87200000D03*
X147900000Y-99200000D03*
X162900000Y-99200000D03*
X177900000Y-99200000D03*
X158600000Y-74700000D03*
X173600000Y-74700000D03*
X143600000Y-86700000D03*
X158600000Y-86700000D03*
X173600000Y-86700000D03*
X143600000Y-98700000D03*
X158600000Y-98700000D03*
X173600000Y-98700000D03*
X162900000Y-74700000D03*
X177900000Y-74700000D03*
X147900000Y-86700000D03*
X162900000Y-86700000D03*
X177900000Y-86700000D03*
X147900000Y-98700000D03*
X162900000Y-98700000D03*
X177900000Y-98700000D03*
X151706586Y-80057817D03*
X166706586Y-80057817D03*
X181706586Y-80057817D03*
X136706586Y-92057817D03*
X151706586Y-92057817D03*
X166706586Y-92057817D03*
X181706586Y-92057817D03*
X162900000Y-75700000D03*
X177900000Y-75700000D03*
X147900000Y-87700000D03*
X162900000Y-87700000D03*
X177900000Y-87700000D03*
X147900000Y-99700000D03*
X162900000Y-99700000D03*
X177900000Y-99700000D03*
X158600000Y-74700000D03*
X173600000Y-74700000D03*
X143600000Y-86700000D03*
X158600000Y-86700000D03*
X173600000Y-86700000D03*
X143600000Y-98700000D03*
X158600000Y-98700000D03*
X173600000Y-98700000D03*
D12*
G04 #@! TO.N,GND*
X133900000Y-77550000D03*
X142625000Y-75500000D03*
X140600000Y-76400000D03*
X157625000Y-75500000D03*
X172625000Y-75500000D03*
X187625000Y-75500000D03*
X142625000Y-87500000D03*
X157625000Y-87500000D03*
X172625000Y-87500000D03*
X187625000Y-87500000D03*
X142625000Y-99500000D03*
X157625000Y-99500000D03*
X172625000Y-99500000D03*
X187625000Y-99500000D03*
X148900000Y-77550000D03*
X163900000Y-77550000D03*
X178900000Y-77550000D03*
X133900000Y-89550000D03*
X148900000Y-89550000D03*
X163900000Y-89550000D03*
X178900000Y-89550000D03*
X133900000Y-101550000D03*
X148900000Y-101550000D03*
X163900000Y-101550000D03*
X178900000Y-101550000D03*
X155600000Y-76400000D03*
X170600000Y-76400000D03*
X185600000Y-76400000D03*
X140600000Y-88400000D03*
X155600000Y-88400000D03*
X170600000Y-88400000D03*
X185600000Y-88400000D03*
X140600000Y-100400000D03*
X155600000Y-100400000D03*
X170600000Y-100400000D03*
X185600000Y-100400000D03*
G04 #@! TO.N,/LED*
X136700000Y-77550000D03*
X151700000Y-77550000D03*
X166700000Y-77550000D03*
X181700000Y-77550000D03*
X136700000Y-89550000D03*
X151700000Y-89550000D03*
X166700000Y-89550000D03*
X181700000Y-89550000D03*
X136700000Y-101550000D03*
X151700000Y-101550000D03*
X166700000Y-101550000D03*
X181700000Y-101550000D03*
G04 #@! TO.N,+3V3*
X141100000Y-75300000D03*
X136700000Y-74450000D03*
X156100000Y-75300000D03*
X171100000Y-75300000D03*
X186100000Y-75300000D03*
X141100000Y-87300000D03*
X156100000Y-87300000D03*
X171100000Y-87300000D03*
X186100000Y-87300000D03*
X141100000Y-99300000D03*
X156100000Y-99300000D03*
X171100000Y-99300000D03*
X186100000Y-99300000D03*
X151700000Y-74450000D03*
X166700000Y-74450000D03*
X181700000Y-74450000D03*
X136700000Y-86450000D03*
X151700000Y-86450000D03*
X166700000Y-86450000D03*
X181700000Y-86450000D03*
X136700000Y-98450000D03*
X151700000Y-98450000D03*
X166700000Y-98450000D03*
X181700000Y-98450000D03*
G04 #@! TO.N,/E0_filtered*
X141000000Y-73700000D03*
X156000000Y-73700000D03*
X171000000Y-73700000D03*
X186000000Y-73700000D03*
X141000000Y-85700000D03*
X156000000Y-85700000D03*
X171000000Y-85700000D03*
X186000000Y-85700000D03*
X141000000Y-97700000D03*
X156000000Y-97700000D03*
X171000000Y-97700000D03*
X186000000Y-97700000D03*
G04 #@! TO.N,/E1_filtered*
X141100000Y-78100000D03*
X156100000Y-78100000D03*
X171100000Y-78100000D03*
X186100000Y-78100000D03*
X141100000Y-90100000D03*
X156100000Y-90100000D03*
X171100000Y-90100000D03*
X186100000Y-90100000D03*
X141100000Y-102100000D03*
X156100000Y-102100000D03*
X171100000Y-102100000D03*
X186100000Y-102100000D03*
G04 #@! TD*
D13*
G04 #@! TO.N,GND*
X142625000Y-75500000D02*
X141725000Y-76400000D01*
X141725000Y-76400000D02*
X140600000Y-76400000D01*
X133900000Y-78585002D02*
X133900000Y-77550000D01*
X134689999Y-79375001D02*
X133900000Y-78585002D01*
X141825001Y-78448001D02*
X140898001Y-79375001D01*
X141825001Y-77625001D02*
X141825001Y-78448001D01*
X140898001Y-79375001D02*
X134689999Y-79375001D01*
X140600000Y-76400000D02*
X141825001Y-77625001D01*
X156825001Y-78448001D02*
X155898001Y-79375001D01*
X171825001Y-78448001D02*
X170898001Y-79375001D01*
X186825001Y-78448001D02*
X185898001Y-79375001D01*
X141825001Y-90448001D02*
X140898001Y-91375001D01*
X156825001Y-90448001D02*
X155898001Y-91375001D01*
X171825001Y-90448001D02*
X170898001Y-91375001D01*
X186825001Y-90448001D02*
X185898001Y-91375001D01*
X141825001Y-102448001D02*
X140898001Y-103375001D01*
X156825001Y-102448001D02*
X155898001Y-103375001D01*
X171825001Y-102448001D02*
X170898001Y-103375001D01*
X186825001Y-102448001D02*
X185898001Y-103375001D01*
X155898001Y-79375001D02*
X149689999Y-79375001D01*
X170898001Y-79375001D02*
X164689999Y-79375001D01*
X185898001Y-79375001D02*
X179689999Y-79375001D01*
X140898001Y-91375001D02*
X134689999Y-91375001D01*
X155898001Y-91375001D02*
X149689999Y-91375001D01*
X170898001Y-91375001D02*
X164689999Y-91375001D01*
X185898001Y-91375001D02*
X179689999Y-91375001D01*
X140898001Y-103375001D02*
X134689999Y-103375001D01*
X155898001Y-103375001D02*
X149689999Y-103375001D01*
X170898001Y-103375001D02*
X164689999Y-103375001D01*
X185898001Y-103375001D02*
X179689999Y-103375001D01*
X148900000Y-78585002D02*
X148900000Y-77550000D01*
X163900000Y-78585002D02*
X163900000Y-77550000D01*
X178900000Y-78585002D02*
X178900000Y-77550000D01*
X133900000Y-90585002D02*
X133900000Y-89550000D01*
X148900000Y-90585002D02*
X148900000Y-89550000D01*
X163900000Y-90585002D02*
X163900000Y-89550000D01*
X178900000Y-90585002D02*
X178900000Y-89550000D01*
X133900000Y-102585002D02*
X133900000Y-101550000D01*
X148900000Y-102585002D02*
X148900000Y-101550000D01*
X163900000Y-102585002D02*
X163900000Y-101550000D01*
X178900000Y-102585002D02*
X178900000Y-101550000D01*
X149689999Y-79375001D02*
X148900000Y-78585002D01*
X164689999Y-79375001D02*
X163900000Y-78585002D01*
X179689999Y-79375001D02*
X178900000Y-78585002D01*
X134689999Y-91375001D02*
X133900000Y-90585002D01*
X149689999Y-91375001D02*
X148900000Y-90585002D01*
X164689999Y-91375001D02*
X163900000Y-90585002D01*
X179689999Y-91375001D02*
X178900000Y-90585002D01*
X134689999Y-103375001D02*
X133900000Y-102585002D01*
X149689999Y-103375001D02*
X148900000Y-102585002D01*
X164689999Y-103375001D02*
X163900000Y-102585002D01*
X179689999Y-103375001D02*
X178900000Y-102585002D01*
X156825001Y-77625001D02*
X156825001Y-78448001D01*
X171825001Y-77625001D02*
X171825001Y-78448001D01*
X186825001Y-77625001D02*
X186825001Y-78448001D01*
X141825001Y-89625001D02*
X141825001Y-90448001D01*
X156825001Y-89625001D02*
X156825001Y-90448001D01*
X171825001Y-89625001D02*
X171825001Y-90448001D01*
X186825001Y-89625001D02*
X186825001Y-90448001D01*
X141825001Y-101625001D02*
X141825001Y-102448001D01*
X156825001Y-101625001D02*
X156825001Y-102448001D01*
X171825001Y-101625001D02*
X171825001Y-102448001D01*
X186825001Y-101625001D02*
X186825001Y-102448001D01*
X155600000Y-76400000D02*
X156825001Y-77625001D01*
X170600000Y-76400000D02*
X171825001Y-77625001D01*
X185600000Y-76400000D02*
X186825001Y-77625001D01*
X140600000Y-88400000D02*
X141825001Y-89625001D01*
X155600000Y-88400000D02*
X156825001Y-89625001D01*
X170600000Y-88400000D02*
X171825001Y-89625001D01*
X185600000Y-88400000D02*
X186825001Y-89625001D01*
X140600000Y-100400000D02*
X141825001Y-101625001D01*
X155600000Y-100400000D02*
X156825001Y-101625001D01*
X170600000Y-100400000D02*
X171825001Y-101625001D01*
X185600000Y-100400000D02*
X186825001Y-101625001D01*
X156725000Y-76400000D02*
X155600000Y-76400000D01*
X171725000Y-76400000D02*
X170600000Y-76400000D01*
X186725000Y-76400000D02*
X185600000Y-76400000D01*
X141725000Y-88400000D02*
X140600000Y-88400000D01*
X156725000Y-88400000D02*
X155600000Y-88400000D01*
X171725000Y-88400000D02*
X170600000Y-88400000D01*
X186725000Y-88400000D02*
X185600000Y-88400000D01*
X141725000Y-100400000D02*
X140600000Y-100400000D01*
X156725000Y-100400000D02*
X155600000Y-100400000D01*
X171725000Y-100400000D02*
X170600000Y-100400000D01*
X186725000Y-100400000D02*
X185600000Y-100400000D01*
X157625000Y-75500000D02*
X156725000Y-76400000D01*
X172625000Y-75500000D02*
X171725000Y-76400000D01*
X187625000Y-75500000D02*
X186725000Y-76400000D01*
X142625000Y-87500000D02*
X141725000Y-88400000D01*
X157625000Y-87500000D02*
X156725000Y-88400000D01*
X172625000Y-87500000D02*
X171725000Y-88400000D01*
X187625000Y-87500000D02*
X186725000Y-88400000D01*
X142625000Y-99500000D02*
X141725000Y-100400000D01*
X157625000Y-99500000D02*
X156725000Y-100400000D01*
X172625000Y-99500000D02*
X171725000Y-100400000D01*
X187625000Y-99500000D02*
X186725000Y-100400000D01*
G04 #@! TO.N,+3V3*
X136700000Y-74450000D02*
X137150000Y-74450000D01*
X137150000Y-74450000D02*
X138000000Y-75300000D01*
X138000000Y-75300000D02*
X141100000Y-75300000D01*
X153000000Y-75300000D02*
X156100000Y-75300000D01*
X168000000Y-75300000D02*
X171100000Y-75300000D01*
X183000000Y-75300000D02*
X186100000Y-75300000D01*
X138000000Y-87300000D02*
X141100000Y-87300000D01*
X153000000Y-87300000D02*
X156100000Y-87300000D01*
X168000000Y-87300000D02*
X171100000Y-87300000D01*
X183000000Y-87300000D02*
X186100000Y-87300000D01*
X138000000Y-99300000D02*
X141100000Y-99300000D01*
X153000000Y-99300000D02*
X156100000Y-99300000D01*
X168000000Y-99300000D02*
X171100000Y-99300000D01*
X183000000Y-99300000D02*
X186100000Y-99300000D01*
X151700000Y-74450000D02*
X152150000Y-74450000D01*
X166700000Y-74450000D02*
X167150000Y-74450000D01*
X181700000Y-74450000D02*
X182150000Y-74450000D01*
X136700000Y-86450000D02*
X137150000Y-86450000D01*
X151700000Y-86450000D02*
X152150000Y-86450000D01*
X166700000Y-86450000D02*
X167150000Y-86450000D01*
X181700000Y-86450000D02*
X182150000Y-86450000D01*
X136700000Y-98450000D02*
X137150000Y-98450000D01*
X151700000Y-98450000D02*
X152150000Y-98450000D01*
X166700000Y-98450000D02*
X167150000Y-98450000D01*
X181700000Y-98450000D02*
X182150000Y-98450000D01*
X152150000Y-74450000D02*
X153000000Y-75300000D01*
X167150000Y-74450000D02*
X168000000Y-75300000D01*
X182150000Y-74450000D02*
X183000000Y-75300000D01*
X137150000Y-86450000D02*
X138000000Y-87300000D01*
X152150000Y-86450000D02*
X153000000Y-87300000D01*
X167150000Y-86450000D02*
X168000000Y-87300000D01*
X182150000Y-86450000D02*
X183000000Y-87300000D01*
X137150000Y-98450000D02*
X138000000Y-99300000D01*
X152150000Y-98450000D02*
X153000000Y-99300000D01*
X167150000Y-98450000D02*
X168000000Y-99300000D01*
X182150000Y-98450000D02*
X183000000Y-99300000D01*
G04 #@! TO.N,/E0_filtered*
X141000000Y-73700000D02*
X139800000Y-72500000D01*
X133900000Y-73414998D02*
X133900000Y-74450000D01*
X134814998Y-72500000D02*
X133900000Y-73414998D01*
X139800000Y-72500000D02*
X134814998Y-72500000D01*
X148900000Y-73414998D02*
X148900000Y-74450000D01*
X163900000Y-73414998D02*
X163900000Y-74450000D01*
X178900000Y-73414998D02*
X178900000Y-74450000D01*
X133900000Y-85414998D02*
X133900000Y-86450000D01*
X148900000Y-85414998D02*
X148900000Y-86450000D01*
X163900000Y-85414998D02*
X163900000Y-86450000D01*
X178900000Y-85414998D02*
X178900000Y-86450000D01*
X133900000Y-97414998D02*
X133900000Y-98450000D01*
X148900000Y-97414998D02*
X148900000Y-98450000D01*
X163900000Y-97414998D02*
X163900000Y-98450000D01*
X178900000Y-97414998D02*
X178900000Y-98450000D01*
X149814998Y-72500000D02*
X148900000Y-73414998D01*
X164814998Y-72500000D02*
X163900000Y-73414998D01*
X179814998Y-72500000D02*
X178900000Y-73414998D01*
X134814998Y-84500000D02*
X133900000Y-85414998D01*
X149814998Y-84500000D02*
X148900000Y-85414998D01*
X164814998Y-84500000D02*
X163900000Y-85414998D01*
X179814998Y-84500000D02*
X178900000Y-85414998D01*
X134814998Y-96500000D02*
X133900000Y-97414998D01*
X149814998Y-96500000D02*
X148900000Y-97414998D01*
X164814998Y-96500000D02*
X163900000Y-97414998D01*
X179814998Y-96500000D02*
X178900000Y-97414998D01*
X156000000Y-73700000D02*
X154800000Y-72500000D01*
X171000000Y-73700000D02*
X169800000Y-72500000D01*
X186000000Y-73700000D02*
X184800000Y-72500000D01*
X141000000Y-85700000D02*
X139800000Y-84500000D01*
X156000000Y-85700000D02*
X154800000Y-84500000D01*
X171000000Y-85700000D02*
X169800000Y-84500000D01*
X186000000Y-85700000D02*
X184800000Y-84500000D01*
X141000000Y-97700000D02*
X139800000Y-96500000D01*
X156000000Y-97700000D02*
X154800000Y-96500000D01*
X171000000Y-97700000D02*
X169800000Y-96500000D01*
X186000000Y-97700000D02*
X184800000Y-96500000D01*
X154800000Y-72500000D02*
X149814998Y-72500000D01*
X169800000Y-72500000D02*
X164814998Y-72500000D01*
X184800000Y-72500000D02*
X179814998Y-72500000D01*
X139800000Y-84500000D02*
X134814998Y-84500000D01*
X154800000Y-84500000D02*
X149814998Y-84500000D01*
X169800000Y-84500000D02*
X164814998Y-84500000D01*
X184800000Y-84500000D02*
X179814998Y-84500000D01*
X139800000Y-96500000D02*
X134814998Y-96500000D01*
X154800000Y-96500000D02*
X149814998Y-96500000D01*
X169800000Y-96500000D02*
X164814998Y-96500000D01*
X184800000Y-96500000D02*
X179814998Y-96500000D01*
G04 #@! TO.N,/E1_filtered*
X141100000Y-78100000D02*
X138900000Y-75900000D01*
X136750000Y-75900000D02*
X135300000Y-74450000D01*
X138900000Y-75900000D02*
X136750000Y-75900000D01*
X151750000Y-75900000D02*
X150300000Y-74450000D01*
X166750000Y-75900000D02*
X165300000Y-74450000D01*
X181750000Y-75900000D02*
X180300000Y-74450000D01*
X136750000Y-87900000D02*
X135300000Y-86450000D01*
X151750000Y-87900000D02*
X150300000Y-86450000D01*
X166750000Y-87900000D02*
X165300000Y-86450000D01*
X181750000Y-87900000D02*
X180300000Y-86450000D01*
X136750000Y-99900000D02*
X135300000Y-98450000D01*
X151750000Y-99900000D02*
X150300000Y-98450000D01*
X166750000Y-99900000D02*
X165300000Y-98450000D01*
X181750000Y-99900000D02*
X180300000Y-98450000D01*
X156100000Y-78100000D02*
X153900000Y-75900000D01*
X171100000Y-78100000D02*
X168900000Y-75900000D01*
X186100000Y-78100000D02*
X183900000Y-75900000D01*
X141100000Y-90100000D02*
X138900000Y-87900000D01*
X156100000Y-90100000D02*
X153900000Y-87900000D01*
X171100000Y-90100000D02*
X168900000Y-87900000D01*
X186100000Y-90100000D02*
X183900000Y-87900000D01*
X141100000Y-102100000D02*
X138900000Y-99900000D01*
X156100000Y-102100000D02*
X153900000Y-99900000D01*
X171100000Y-102100000D02*
X168900000Y-99900000D01*
X186100000Y-102100000D02*
X183900000Y-99900000D01*
X153900000Y-75900000D02*
X151750000Y-75900000D01*
X168900000Y-75900000D02*
X166750000Y-75900000D01*
X183900000Y-75900000D02*
X181750000Y-75900000D01*
X138900000Y-87900000D02*
X136750000Y-87900000D01*
X153900000Y-87900000D02*
X151750000Y-87900000D01*
X168900000Y-87900000D02*
X166750000Y-87900000D01*
X183900000Y-87900000D02*
X181750000Y-87900000D01*
X138900000Y-99900000D02*
X136750000Y-99900000D01*
X153900000Y-99900000D02*
X151750000Y-99900000D01*
X168900000Y-99900000D02*
X166750000Y-99900000D01*
X183900000Y-99900000D02*
X181750000Y-99900000D01*
G04 #@! TD*
M02*
