G04 #@! TF.GenerationSoftware,KiCad,Pcbnew,5.0.2-bee76a0~70~ubuntu18.04.1*
G04 #@! TF.CreationDate,2020-01-30T22:42:59+01:00*
G04 #@! TF.ProjectId,schmitt_trigger_adapter,7363686d-6974-4745-9f74-726967676572,rev?*
G04 #@! TF.SameCoordinates,Original*
G04 #@! TF.FileFunction,Paste,Top*
G04 #@! TF.FilePolarity,Positive*
%FSLAX46Y46*%
G04 Gerber Fmt 4.6, Leading zero omitted, Abs format (unit mm)*
G04 Created by KiCad (PCBNEW 5.0.2-bee76a0~70~ubuntu18.04.1) date Thu 30 Jan 2020 10:42:59 PM CET*
%MOMM*%
%LPD*%
G01*
G04 APERTURE LIST*
%ADD10R,0.700000X2.000000*%
G04 APERTURE END LIST*
D10*
G04 #@! TO.C,J1*
X181700000Y-97950000D03*
X180300000Y-97950000D03*
X178900000Y-97950000D03*
X178900000Y-102050000D03*
X181700000Y-102050000D03*
X180300000Y-102050000D03*
G04 #@! TD*
G04 #@! TO.C,J1*
X166700000Y-97950000D03*
X165300000Y-97950000D03*
X163900000Y-97950000D03*
X163900000Y-102050000D03*
X166700000Y-102050000D03*
X165300000Y-102050000D03*
G04 #@! TD*
G04 #@! TO.C,J1*
X151700000Y-97950000D03*
X150300000Y-97950000D03*
X148900000Y-97950000D03*
X148900000Y-102050000D03*
X151700000Y-102050000D03*
X150300000Y-102050000D03*
G04 #@! TD*
G04 #@! TO.C,J1*
X136700000Y-97950000D03*
X135300000Y-97950000D03*
X133900000Y-97950000D03*
X133900000Y-102050000D03*
X136700000Y-102050000D03*
X135300000Y-102050000D03*
G04 #@! TD*
G04 #@! TO.C,J1*
X181700000Y-85950000D03*
X180300000Y-85950000D03*
X178900000Y-85950000D03*
X178900000Y-90050000D03*
X181700000Y-90050000D03*
X180300000Y-90050000D03*
G04 #@! TD*
G04 #@! TO.C,J1*
X166700000Y-85950000D03*
X165300000Y-85950000D03*
X163900000Y-85950000D03*
X163900000Y-90050000D03*
X166700000Y-90050000D03*
X165300000Y-90050000D03*
G04 #@! TD*
G04 #@! TO.C,J1*
X151700000Y-85950000D03*
X150300000Y-85950000D03*
X148900000Y-85950000D03*
X148900000Y-90050000D03*
X151700000Y-90050000D03*
X150300000Y-90050000D03*
G04 #@! TD*
G04 #@! TO.C,J1*
X136700000Y-85950000D03*
X135300000Y-85950000D03*
X133900000Y-85950000D03*
X133900000Y-90050000D03*
X136700000Y-90050000D03*
X135300000Y-90050000D03*
G04 #@! TD*
G04 #@! TO.C,J1*
X181700000Y-73950000D03*
X180300000Y-73950000D03*
X178900000Y-73950000D03*
X178900000Y-78050000D03*
X181700000Y-78050000D03*
X180300000Y-78050000D03*
G04 #@! TD*
G04 #@! TO.C,J1*
X166700000Y-73950000D03*
X165300000Y-73950000D03*
X163900000Y-73950000D03*
X163900000Y-78050000D03*
X166700000Y-78050000D03*
X165300000Y-78050000D03*
G04 #@! TD*
G04 #@! TO.C,J1*
X151700000Y-73950000D03*
X150300000Y-73950000D03*
X148900000Y-73950000D03*
X148900000Y-78050000D03*
X151700000Y-78050000D03*
X150300000Y-78050000D03*
G04 #@! TD*
G04 #@! TO.C,J1*
X135300000Y-78050000D03*
X136700000Y-78050000D03*
X133900000Y-78050000D03*
X133900000Y-73950000D03*
X135300000Y-73950000D03*
X136700000Y-73950000D03*
G04 #@! TD*
M02*
