M48
;DRILL file {KiCad 5.0.2-bee76a0~70~ubuntu18.04.1} date Thu 30 Jan 2020 10:43:02 PM CET
;FORMAT={-:-/ absolute / inch / decimal}
FMAT,2
INCH,TZ
T1C0.0157
%
G90
G05
T1
X5.2717Y-3.0531
X5.2717Y-3.5256
X5.2717Y-3.998
X5.3819Y-2.9311
X5.3819Y-3.0531
X5.3819Y-3.4035
X5.3819Y-3.5256
X5.3819Y-3.876
X5.3819Y-3.998
X5.3821Y-3.1519
X5.3821Y-3.1519
X5.3821Y-3.1519
X5.3821Y-3.3015
X5.3821Y-3.3015
X5.3821Y-3.3015
X5.3821Y-3.6243
X5.3821Y-3.6243
X5.3821Y-3.6243
X5.3821Y-3.7739
X5.3821Y-3.7739
X5.3821Y-3.7739
X5.4018Y-3.1519
X5.4018Y-3.3015
X5.4018Y-3.6243
X5.4018Y-3.7739
X5.4215Y-3.1519
X5.4215Y-3.3015
X5.4215Y-3.6243
X5.4215Y-3.7739
X5.4412Y-3.1519
X5.4412Y-3.3015
X5.4412Y-3.6243
X5.4412Y-3.7739
X5.4609Y-3.1519
X5.4609Y-3.3015
X5.4609Y-3.6243
X5.4609Y-3.7739
X5.5354Y-3.0079
X5.5354Y-3.4803
X5.5354Y-3.9528
X5.5512Y-2.9016
X5.5512Y-3.374
X5.5512Y-3.8465
X5.5551Y-2.9646
X5.5551Y-3.0748
X5.5551Y-3.437
X5.5551Y-3.5472
X5.5551Y-3.9094
X5.5551Y-4.0197
X5.6152Y-2.9724
X5.6152Y-3.4449
X5.6152Y-3.9173
X5.6535Y-2.9409
X5.6535Y-2.9409
X5.6535Y-2.9409
X5.6535Y-2.9606
X5.6535Y-2.9803
X5.6535Y-3.
X5.6535Y-3.0197
X5.6535Y-3.4134
X5.6535Y-3.4134
X5.6535Y-3.4134
X5.6535Y-3.4331
X5.6535Y-3.4528
X5.6535Y-3.4724
X5.6535Y-3.4921
X5.6535Y-3.8858
X5.6535Y-3.8858
X5.6535Y-3.8858
X5.6535Y-3.9055
X5.6535Y-3.9252
X5.6535Y-3.9449
X5.6535Y-3.9646
X5.8228Y-2.9409
X5.8228Y-2.9409
X5.8228Y-2.9409
X5.8228Y-2.9606
X5.8228Y-2.9803
X5.8228Y-3.
X5.8228Y-3.0197
X5.8228Y-3.4134
X5.8228Y-3.4134
X5.8228Y-3.4134
X5.8228Y-3.4331
X5.8228Y-3.4528
X5.8228Y-3.4724
X5.8228Y-3.4921
X5.8228Y-3.8858
X5.8228Y-3.8858
X5.8228Y-3.8858
X5.8228Y-3.9055
X5.8228Y-3.9252
X5.8228Y-3.9449
X5.8228Y-3.9646
X5.8622Y-3.0531
X5.8622Y-3.5256
X5.8622Y-3.998
X5.9724Y-2.9311
X5.9724Y-3.0531
X5.9724Y-3.4035
X5.9724Y-3.5256
X5.9724Y-3.876
X5.9724Y-3.998
X5.9727Y-3.1519
X5.9727Y-3.1519
X5.9727Y-3.1519
X5.9727Y-3.3015
X5.9727Y-3.3015
X5.9727Y-3.3015
X5.9727Y-3.6243
X5.9727Y-3.6243
X5.9727Y-3.6243
X5.9727Y-3.7739
X5.9727Y-3.7739
X5.9727Y-3.7739
X5.9924Y-3.1519
X5.9924Y-3.3015
X5.9924Y-3.6243
X5.9924Y-3.7739
X6.0121Y-3.1519
X6.0121Y-3.3015
X6.0121Y-3.6243
X6.0121Y-3.7739
X6.0318Y-3.1519
X6.0318Y-3.3015
X6.0318Y-3.6243
X6.0318Y-3.7739
X6.0514Y-3.1519
X6.0514Y-3.3015
X6.0514Y-3.6243
X6.0514Y-3.7739
X6.126Y-3.0079
X6.126Y-3.4803
X6.126Y-3.9528
X6.1417Y-2.9016
X6.1417Y-3.374
X6.1417Y-3.8465
X6.1457Y-2.9646
X6.1457Y-3.0748
X6.1457Y-3.437
X6.1457Y-3.5472
X6.1457Y-3.9094
X6.1457Y-4.0197
X6.2057Y-2.9724
X6.2057Y-3.4449
X6.2057Y-3.9173
X6.2441Y-2.9409
X6.2441Y-2.9409
X6.2441Y-2.9409
X6.2441Y-2.9606
X6.2441Y-2.9803
X6.2441Y-3.
X6.2441Y-3.0197
X6.2441Y-3.4134
X6.2441Y-3.4134
X6.2441Y-3.4134
X6.2441Y-3.4331
X6.2441Y-3.4528
X6.2441Y-3.4724
X6.2441Y-3.4921
X6.2441Y-3.8858
X6.2441Y-3.8858
X6.2441Y-3.8858
X6.2441Y-3.9055
X6.2441Y-3.9252
X6.2441Y-3.9449
X6.2441Y-3.9646
X6.4134Y-2.9409
X6.4134Y-2.9409
X6.4134Y-2.9409
X6.4134Y-2.9606
X6.4134Y-2.9803
X6.4134Y-3.
X6.4134Y-3.0197
X6.4134Y-3.4134
X6.4134Y-3.4134
X6.4134Y-3.4134
X6.4134Y-3.4331
X6.4134Y-3.4528
X6.4134Y-3.4724
X6.4134Y-3.4921
X6.4134Y-3.8858
X6.4134Y-3.8858
X6.4134Y-3.8858
X6.4134Y-3.9055
X6.4134Y-3.9252
X6.4134Y-3.9449
X6.4134Y-3.9646
X6.4528Y-3.0531
X6.4528Y-3.5256
X6.4528Y-3.998
X6.563Y-2.9311
X6.563Y-3.0531
X6.563Y-3.4035
X6.563Y-3.5256
X6.563Y-3.876
X6.563Y-3.998
X6.5633Y-3.1519
X6.5633Y-3.1519
X6.5633Y-3.1519
X6.5633Y-3.3015
X6.5633Y-3.3015
X6.5633Y-3.3015
X6.5633Y-3.6243
X6.5633Y-3.6243
X6.5633Y-3.6243
X6.5633Y-3.7739
X6.5633Y-3.7739
X6.5633Y-3.7739
X6.5829Y-3.1519
X6.5829Y-3.3015
X6.5829Y-3.6243
X6.5829Y-3.7739
X6.6026Y-3.1519
X6.6026Y-3.3015
X6.6026Y-3.6243
X6.6026Y-3.7739
X6.6223Y-3.1519
X6.6223Y-3.3015
X6.6223Y-3.6243
X6.6223Y-3.7739
X6.642Y-3.1519
X6.642Y-3.3015
X6.642Y-3.6243
X6.642Y-3.7739
X6.7165Y-3.0079
X6.7165Y-3.4803
X6.7165Y-3.9528
X6.7323Y-2.9016
X6.7323Y-3.374
X6.7323Y-3.8465
X6.7362Y-2.9646
X6.7362Y-3.0748
X6.7362Y-3.437
X6.7362Y-3.5472
X6.7362Y-3.9094
X6.7362Y-4.0197
X6.7963Y-2.9724
X6.7963Y-3.4449
X6.7963Y-3.9173
X6.8346Y-2.9409
X6.8346Y-2.9409
X6.8346Y-2.9409
X6.8346Y-2.9606
X6.8346Y-2.9803
X6.8346Y-3.
X6.8346Y-3.0197
X6.8346Y-3.4134
X6.8346Y-3.4134
X6.8346Y-3.4134
X6.8346Y-3.4331
X6.8346Y-3.4528
X6.8346Y-3.4724
X6.8346Y-3.4921
X6.8346Y-3.8858
X6.8346Y-3.8858
X6.8346Y-3.8858
X6.8346Y-3.9055
X6.8346Y-3.9252
X6.8346Y-3.9449
X6.8346Y-3.9646
X7.0039Y-2.9409
X7.0039Y-2.9409
X7.0039Y-2.9409
X7.0039Y-2.9606
X7.0039Y-2.9803
X7.0039Y-3.
X7.0039Y-3.0197
X7.0039Y-3.4134
X7.0039Y-3.4134
X7.0039Y-3.4134
X7.0039Y-3.4331
X7.0039Y-3.4528
X7.0039Y-3.4724
X7.0039Y-3.4921
X7.0039Y-3.8858
X7.0039Y-3.8858
X7.0039Y-3.8858
X7.0039Y-3.9055
X7.0039Y-3.9252
X7.0039Y-3.9449
X7.0039Y-3.9646
X7.0433Y-3.0531
X7.0433Y-3.5256
X7.0433Y-3.998
X7.1535Y-2.9311
X7.1535Y-3.0531
X7.1535Y-3.4035
X7.1535Y-3.5256
X7.1535Y-3.876
X7.1535Y-3.998
X7.1538Y-3.1519
X7.1538Y-3.1519
X7.1538Y-3.1519
X7.1538Y-3.3015
X7.1538Y-3.3015
X7.1538Y-3.3015
X7.1538Y-3.6243
X7.1538Y-3.6243
X7.1538Y-3.6243
X7.1538Y-3.7739
X7.1538Y-3.7739
X7.1538Y-3.7739
X7.1735Y-3.1519
X7.1735Y-3.3015
X7.1735Y-3.6243
X7.1735Y-3.7739
X7.1932Y-3.1519
X7.1932Y-3.3015
X7.1932Y-3.6243
X7.1932Y-3.7739
X7.2129Y-3.1519
X7.2129Y-3.3015
X7.2129Y-3.6243
X7.2129Y-3.7739
X7.2325Y-3.1519
X7.2325Y-3.3015
X7.2325Y-3.6243
X7.2325Y-3.7739
X7.3071Y-3.0079
X7.3071Y-3.4803
X7.3071Y-3.9528
X7.3228Y-2.9016
X7.3228Y-3.374
X7.3228Y-3.8465
X7.3268Y-2.9646
X7.3268Y-3.0748
X7.3268Y-3.437
X7.3268Y-3.5472
X7.3268Y-3.9094
X7.3268Y-4.0197
X7.3868Y-2.9724
X7.3868Y-3.4449
X7.3868Y-3.9173
T0
M30
