G04 #@! TF.GenerationSoftware,KiCad,Pcbnew,5.0.2-bee76a0~70~ubuntu18.04.1*
G04 #@! TF.CreationDate,2020-01-30T22:42:59+01:00*
G04 #@! TF.ProjectId,schmitt_trigger_adapter,7363686d-6974-4745-9f74-726967676572,rev?*
G04 #@! TF.SameCoordinates,Original*
G04 #@! TF.FileFunction,Soldermask,Top*
G04 #@! TF.FilePolarity,Negative*
%FSLAX46Y46*%
G04 Gerber Fmt 4.6, Leading zero omitted, Abs format (unit mm)*
G04 Created by KiCad (PCBNEW 5.0.2-bee76a0~70~ubuntu18.04.1) date Thu 30 Jan 2020 10:42:59 PM CET*
%MOMM*%
%LPD*%
G01*
G04 APERTURE LIST*
%ADD10C,0.100000*%
G04 APERTURE END LIST*
D10*
G36*
X182101000Y-103101000D02*
X181299000Y-103101000D01*
X181299000Y-100999000D01*
X182101000Y-100999000D01*
X182101000Y-103101000D01*
X182101000Y-103101000D01*
G37*
G36*
X150701000Y-103101000D02*
X149899000Y-103101000D01*
X149899000Y-100999000D01*
X150701000Y-100999000D01*
X150701000Y-103101000D01*
X150701000Y-103101000D01*
G37*
G36*
X135701000Y-103101000D02*
X134899000Y-103101000D01*
X134899000Y-100999000D01*
X135701000Y-100999000D01*
X135701000Y-103101000D01*
X135701000Y-103101000D01*
G37*
G36*
X137101000Y-103101000D02*
X136299000Y-103101000D01*
X136299000Y-100999000D01*
X137101000Y-100999000D01*
X137101000Y-103101000D01*
X137101000Y-103101000D01*
G37*
G36*
X134301000Y-103101000D02*
X133499000Y-103101000D01*
X133499000Y-100999000D01*
X134301000Y-100999000D01*
X134301000Y-103101000D01*
X134301000Y-103101000D01*
G37*
G36*
X152101000Y-103101000D02*
X151299000Y-103101000D01*
X151299000Y-100999000D01*
X152101000Y-100999000D01*
X152101000Y-103101000D01*
X152101000Y-103101000D01*
G37*
G36*
X149301000Y-103101000D02*
X148499000Y-103101000D01*
X148499000Y-100999000D01*
X149301000Y-100999000D01*
X149301000Y-103101000D01*
X149301000Y-103101000D01*
G37*
G36*
X165701000Y-103101000D02*
X164899000Y-103101000D01*
X164899000Y-100999000D01*
X165701000Y-100999000D01*
X165701000Y-103101000D01*
X165701000Y-103101000D01*
G37*
G36*
X167101000Y-103101000D02*
X166299000Y-103101000D01*
X166299000Y-100999000D01*
X167101000Y-100999000D01*
X167101000Y-103101000D01*
X167101000Y-103101000D01*
G37*
G36*
X164301000Y-103101000D02*
X163499000Y-103101000D01*
X163499000Y-100999000D01*
X164301000Y-100999000D01*
X164301000Y-103101000D01*
X164301000Y-103101000D01*
G37*
G36*
X180701000Y-103101000D02*
X179899000Y-103101000D01*
X179899000Y-100999000D01*
X180701000Y-100999000D01*
X180701000Y-103101000D01*
X180701000Y-103101000D01*
G37*
G36*
X179301000Y-103101000D02*
X178499000Y-103101000D01*
X178499000Y-100999000D01*
X179301000Y-100999000D01*
X179301000Y-103101000D01*
X179301000Y-103101000D01*
G37*
G36*
X134301000Y-99001000D02*
X133499000Y-99001000D01*
X133499000Y-96899000D01*
X134301000Y-96899000D01*
X134301000Y-99001000D01*
X134301000Y-99001000D01*
G37*
G36*
X180701000Y-99001000D02*
X179899000Y-99001000D01*
X179899000Y-96899000D01*
X180701000Y-96899000D01*
X180701000Y-99001000D01*
X180701000Y-99001000D01*
G37*
G36*
X179301000Y-99001000D02*
X178499000Y-99001000D01*
X178499000Y-96899000D01*
X179301000Y-96899000D01*
X179301000Y-99001000D01*
X179301000Y-99001000D01*
G37*
G36*
X135701000Y-99001000D02*
X134899000Y-99001000D01*
X134899000Y-96899000D01*
X135701000Y-96899000D01*
X135701000Y-99001000D01*
X135701000Y-99001000D01*
G37*
G36*
X167101000Y-99001000D02*
X166299000Y-99001000D01*
X166299000Y-96899000D01*
X167101000Y-96899000D01*
X167101000Y-99001000D01*
X167101000Y-99001000D01*
G37*
G36*
X165701000Y-99001000D02*
X164899000Y-99001000D01*
X164899000Y-96899000D01*
X165701000Y-96899000D01*
X165701000Y-99001000D01*
X165701000Y-99001000D01*
G37*
G36*
X137101000Y-99001000D02*
X136299000Y-99001000D01*
X136299000Y-96899000D01*
X137101000Y-96899000D01*
X137101000Y-99001000D01*
X137101000Y-99001000D01*
G37*
G36*
X182101000Y-99001000D02*
X181299000Y-99001000D01*
X181299000Y-96899000D01*
X182101000Y-96899000D01*
X182101000Y-99001000D01*
X182101000Y-99001000D01*
G37*
G36*
X149301000Y-99001000D02*
X148499000Y-99001000D01*
X148499000Y-96899000D01*
X149301000Y-96899000D01*
X149301000Y-99001000D01*
X149301000Y-99001000D01*
G37*
G36*
X152101000Y-99001000D02*
X151299000Y-99001000D01*
X151299000Y-96899000D01*
X152101000Y-96899000D01*
X152101000Y-99001000D01*
X152101000Y-99001000D01*
G37*
G36*
X150701000Y-99001000D02*
X149899000Y-99001000D01*
X149899000Y-96899000D01*
X150701000Y-96899000D01*
X150701000Y-99001000D01*
X150701000Y-99001000D01*
G37*
G36*
X164301000Y-99001000D02*
X163499000Y-99001000D01*
X163499000Y-96899000D01*
X164301000Y-96899000D01*
X164301000Y-99001000D01*
X164301000Y-99001000D01*
G37*
G36*
X164301000Y-91101000D02*
X163499000Y-91101000D01*
X163499000Y-88999000D01*
X164301000Y-88999000D01*
X164301000Y-91101000D01*
X164301000Y-91101000D01*
G37*
G36*
X182101000Y-91101000D02*
X181299000Y-91101000D01*
X181299000Y-88999000D01*
X182101000Y-88999000D01*
X182101000Y-91101000D01*
X182101000Y-91101000D01*
G37*
G36*
X180701000Y-91101000D02*
X179899000Y-91101000D01*
X179899000Y-88999000D01*
X180701000Y-88999000D01*
X180701000Y-91101000D01*
X180701000Y-91101000D01*
G37*
G36*
X179301000Y-91101000D02*
X178499000Y-91101000D01*
X178499000Y-88999000D01*
X179301000Y-88999000D01*
X179301000Y-91101000D01*
X179301000Y-91101000D01*
G37*
G36*
X167101000Y-91101000D02*
X166299000Y-91101000D01*
X166299000Y-88999000D01*
X167101000Y-88999000D01*
X167101000Y-91101000D01*
X167101000Y-91101000D01*
G37*
G36*
X165701000Y-91101000D02*
X164899000Y-91101000D01*
X164899000Y-88999000D01*
X165701000Y-88999000D01*
X165701000Y-91101000D01*
X165701000Y-91101000D01*
G37*
G36*
X152101000Y-91101000D02*
X151299000Y-91101000D01*
X151299000Y-88999000D01*
X152101000Y-88999000D01*
X152101000Y-91101000D01*
X152101000Y-91101000D01*
G37*
G36*
X150701000Y-91101000D02*
X149899000Y-91101000D01*
X149899000Y-88999000D01*
X150701000Y-88999000D01*
X150701000Y-91101000D01*
X150701000Y-91101000D01*
G37*
G36*
X149301000Y-91101000D02*
X148499000Y-91101000D01*
X148499000Y-88999000D01*
X149301000Y-88999000D01*
X149301000Y-91101000D01*
X149301000Y-91101000D01*
G37*
G36*
X137101000Y-91101000D02*
X136299000Y-91101000D01*
X136299000Y-88999000D01*
X137101000Y-88999000D01*
X137101000Y-91101000D01*
X137101000Y-91101000D01*
G37*
G36*
X134301000Y-91101000D02*
X133499000Y-91101000D01*
X133499000Y-88999000D01*
X134301000Y-88999000D01*
X134301000Y-91101000D01*
X134301000Y-91101000D01*
G37*
G36*
X135701000Y-91101000D02*
X134899000Y-91101000D01*
X134899000Y-88999000D01*
X135701000Y-88999000D01*
X135701000Y-91101000D01*
X135701000Y-91101000D01*
G37*
G36*
X152101000Y-87001000D02*
X151299000Y-87001000D01*
X151299000Y-84899000D01*
X152101000Y-84899000D01*
X152101000Y-87001000D01*
X152101000Y-87001000D01*
G37*
G36*
X179301000Y-87001000D02*
X178499000Y-87001000D01*
X178499000Y-84899000D01*
X179301000Y-84899000D01*
X179301000Y-87001000D01*
X179301000Y-87001000D01*
G37*
G36*
X167101000Y-87001000D02*
X166299000Y-87001000D01*
X166299000Y-84899000D01*
X167101000Y-84899000D01*
X167101000Y-87001000D01*
X167101000Y-87001000D01*
G37*
G36*
X165701000Y-87001000D02*
X164899000Y-87001000D01*
X164899000Y-84899000D01*
X165701000Y-84899000D01*
X165701000Y-87001000D01*
X165701000Y-87001000D01*
G37*
G36*
X164301000Y-87001000D02*
X163499000Y-87001000D01*
X163499000Y-84899000D01*
X164301000Y-84899000D01*
X164301000Y-87001000D01*
X164301000Y-87001000D01*
G37*
G36*
X182101000Y-87001000D02*
X181299000Y-87001000D01*
X181299000Y-84899000D01*
X182101000Y-84899000D01*
X182101000Y-87001000D01*
X182101000Y-87001000D01*
G37*
G36*
X149301000Y-87001000D02*
X148499000Y-87001000D01*
X148499000Y-84899000D01*
X149301000Y-84899000D01*
X149301000Y-87001000D01*
X149301000Y-87001000D01*
G37*
G36*
X137101000Y-87001000D02*
X136299000Y-87001000D01*
X136299000Y-84899000D01*
X137101000Y-84899000D01*
X137101000Y-87001000D01*
X137101000Y-87001000D01*
G37*
G36*
X135701000Y-87001000D02*
X134899000Y-87001000D01*
X134899000Y-84899000D01*
X135701000Y-84899000D01*
X135701000Y-87001000D01*
X135701000Y-87001000D01*
G37*
G36*
X134301000Y-87001000D02*
X133499000Y-87001000D01*
X133499000Y-84899000D01*
X134301000Y-84899000D01*
X134301000Y-87001000D01*
X134301000Y-87001000D01*
G37*
G36*
X180701000Y-87001000D02*
X179899000Y-87001000D01*
X179899000Y-84899000D01*
X180701000Y-84899000D01*
X180701000Y-87001000D01*
X180701000Y-87001000D01*
G37*
G36*
X150701000Y-87001000D02*
X149899000Y-87001000D01*
X149899000Y-84899000D01*
X150701000Y-84899000D01*
X150701000Y-87001000D01*
X150701000Y-87001000D01*
G37*
G36*
X135701000Y-79101000D02*
X134899000Y-79101000D01*
X134899000Y-76999000D01*
X135701000Y-76999000D01*
X135701000Y-79101000D01*
X135701000Y-79101000D01*
G37*
G36*
X149301000Y-79101000D02*
X148499000Y-79101000D01*
X148499000Y-76999000D01*
X149301000Y-76999000D01*
X149301000Y-79101000D01*
X149301000Y-79101000D01*
G37*
G36*
X150701000Y-79101000D02*
X149899000Y-79101000D01*
X149899000Y-76999000D01*
X150701000Y-76999000D01*
X150701000Y-79101000D01*
X150701000Y-79101000D01*
G37*
G36*
X137101000Y-79101000D02*
X136299000Y-79101000D01*
X136299000Y-76999000D01*
X137101000Y-76999000D01*
X137101000Y-79101000D01*
X137101000Y-79101000D01*
G37*
G36*
X134301000Y-79101000D02*
X133499000Y-79101000D01*
X133499000Y-76999000D01*
X134301000Y-76999000D01*
X134301000Y-79101000D01*
X134301000Y-79101000D01*
G37*
G36*
X152101000Y-79101000D02*
X151299000Y-79101000D01*
X151299000Y-76999000D01*
X152101000Y-76999000D01*
X152101000Y-79101000D01*
X152101000Y-79101000D01*
G37*
G36*
X180701000Y-79101000D02*
X179899000Y-79101000D01*
X179899000Y-76999000D01*
X180701000Y-76999000D01*
X180701000Y-79101000D01*
X180701000Y-79101000D01*
G37*
G36*
X179301000Y-79101000D02*
X178499000Y-79101000D01*
X178499000Y-76999000D01*
X179301000Y-76999000D01*
X179301000Y-79101000D01*
X179301000Y-79101000D01*
G37*
G36*
X167101000Y-79101000D02*
X166299000Y-79101000D01*
X166299000Y-76999000D01*
X167101000Y-76999000D01*
X167101000Y-79101000D01*
X167101000Y-79101000D01*
G37*
G36*
X164301000Y-79101000D02*
X163499000Y-79101000D01*
X163499000Y-76999000D01*
X164301000Y-76999000D01*
X164301000Y-79101000D01*
X164301000Y-79101000D01*
G37*
G36*
X165701000Y-79101000D02*
X164899000Y-79101000D01*
X164899000Y-76999000D01*
X165701000Y-76999000D01*
X165701000Y-79101000D01*
X165701000Y-79101000D01*
G37*
G36*
X182101000Y-79101000D02*
X181299000Y-79101000D01*
X181299000Y-76999000D01*
X182101000Y-76999000D01*
X182101000Y-79101000D01*
X182101000Y-79101000D01*
G37*
G36*
X182101000Y-75001000D02*
X181299000Y-75001000D01*
X181299000Y-72899000D01*
X182101000Y-72899000D01*
X182101000Y-75001000D01*
X182101000Y-75001000D01*
G37*
G36*
X180701000Y-75001000D02*
X179899000Y-75001000D01*
X179899000Y-72899000D01*
X180701000Y-72899000D01*
X180701000Y-75001000D01*
X180701000Y-75001000D01*
G37*
G36*
X179301000Y-75001000D02*
X178499000Y-75001000D01*
X178499000Y-72899000D01*
X179301000Y-72899000D01*
X179301000Y-75001000D01*
X179301000Y-75001000D01*
G37*
G36*
X167101000Y-75001000D02*
X166299000Y-75001000D01*
X166299000Y-72899000D01*
X167101000Y-72899000D01*
X167101000Y-75001000D01*
X167101000Y-75001000D01*
G37*
G36*
X165701000Y-75001000D02*
X164899000Y-75001000D01*
X164899000Y-72899000D01*
X165701000Y-72899000D01*
X165701000Y-75001000D01*
X165701000Y-75001000D01*
G37*
G36*
X135701000Y-75001000D02*
X134899000Y-75001000D01*
X134899000Y-72899000D01*
X135701000Y-72899000D01*
X135701000Y-75001000D01*
X135701000Y-75001000D01*
G37*
G36*
X134301000Y-75001000D02*
X133499000Y-75001000D01*
X133499000Y-72899000D01*
X134301000Y-72899000D01*
X134301000Y-75001000D01*
X134301000Y-75001000D01*
G37*
G36*
X149301000Y-75001000D02*
X148499000Y-75001000D01*
X148499000Y-72899000D01*
X149301000Y-72899000D01*
X149301000Y-75001000D01*
X149301000Y-75001000D01*
G37*
G36*
X150701000Y-75001000D02*
X149899000Y-75001000D01*
X149899000Y-72899000D01*
X150701000Y-72899000D01*
X150701000Y-75001000D01*
X150701000Y-75001000D01*
G37*
G36*
X152101000Y-75001000D02*
X151299000Y-75001000D01*
X151299000Y-72899000D01*
X152101000Y-72899000D01*
X152101000Y-75001000D01*
X152101000Y-75001000D01*
G37*
G36*
X137101000Y-75001000D02*
X136299000Y-75001000D01*
X136299000Y-72899000D01*
X137101000Y-72899000D01*
X137101000Y-75001000D01*
X137101000Y-75001000D01*
G37*
G36*
X164301000Y-75001000D02*
X163499000Y-75001000D01*
X163499000Y-72899000D01*
X164301000Y-72899000D01*
X164301000Y-75001000D01*
X164301000Y-75001000D01*
G37*
M02*
