M48
;DRILL file {KiCad 5.0.2-bee76a0~70~ubuntu18.04.1} date Mo 13 Jan 2020 19:19:00 CET
;FORMAT={-:-/ absolute / inch / decimal}
FMAT,2
INCH,TZ
T1C0.0118
T2C0.0315
T3C0.0866
%
G90
G05
T1
X4.2311Y-5.128
X4.3098Y-5.2831
X4.3331Y-5.1547
X4.3583Y-5.0984
X4.3752Y-5.3209
X4.3811Y-5.1327
X4.3819Y-5.1965
X4.3819Y-5.2697
X4.5445Y-4.8283
X4.563Y-4.9685
X4.6969Y-4.9291
X4.7205Y-5.2165
X5.0512Y-4.8858
X5.185Y-5.4882
X5.1929Y-5.2677
T2
X4.803Y-4.8965
X4.853Y-4.7965
X4.903Y-4.8965
X4.953Y-4.7965
X5.3732Y-5.0726
X5.3732Y-5.1726
X5.4732Y-5.1226
X5.4732Y-5.2226
T3
X5.4528Y-5.4528
X4.2717Y-5.4528
X5.4528Y-4.8228
X4.2717Y-4.8228
T0
M30
