G04 #@! TF.GenerationSoftware,KiCad,Pcbnew,5.0.2-bee76a0~70~ubuntu18.04.1*
G04 #@! TF.CreationDate,2020-01-13T19:18:57+01:00*
G04 #@! TF.ProjectId,roboy_sno,726f626f-795f-4736-9e6f-2e6b69636164,rev?*
G04 #@! TF.SameCoordinates,Original*
G04 #@! TF.FileFunction,Copper,L1,Top*
G04 #@! TF.FilePolarity,Positive*
%FSLAX46Y46*%
G04 Gerber Fmt 4.6, Leading zero omitted, Abs format (unit mm)*
G04 Created by KiCad (PCBNEW 5.0.2-bee76a0~70~ubuntu18.04.1) date Mo 13 Jan 2020 19:18:57 CET*
%MOMM*%
%LPD*%
G01*
G04 APERTURE LIST*
G04 #@! TA.AperFunction,SMDPad,CuDef*
%ADD10R,1.485000X0.900000*%
G04 #@! TD*
G04 #@! TA.AperFunction,SMDPad,CuDef*
%ADD11R,4.000000X4.000000*%
G04 #@! TD*
G04 #@! TA.AperFunction,Conductor*
%ADD12C,0.100000*%
G04 #@! TD*
G04 #@! TA.AperFunction,SMDPad,CuDef*
%ADD13C,0.590000*%
G04 #@! TD*
G04 #@! TA.AperFunction,SMDPad,CuDef*
%ADD14R,0.630000X0.450000*%
G04 #@! TD*
G04 #@! TA.AperFunction,SMDPad,CuDef*
%ADD15R,1.700000X2.600000*%
G04 #@! TD*
G04 #@! TA.AperFunction,SMDPad,CuDef*
%ADD16R,1.000000X0.700000*%
G04 #@! TD*
G04 #@! TA.AperFunction,ComponentPad*
%ADD17C,4.400000*%
G04 #@! TD*
G04 #@! TA.AperFunction,ComponentPad*
%ADD18R,1.800000X1.800000*%
G04 #@! TD*
G04 #@! TA.AperFunction,ComponentPad*
%ADD19C,1.800000*%
G04 #@! TD*
G04 #@! TA.AperFunction,SMDPad,CuDef*
%ADD20R,0.700000X1.000000*%
G04 #@! TD*
G04 #@! TA.AperFunction,ViaPad*
%ADD21C,0.301000*%
G04 #@! TD*
G04 #@! TA.AperFunction,Conductor*
%ADD22C,0.304800*%
G04 #@! TD*
G04 #@! TA.AperFunction,Conductor*
%ADD23C,0.152400*%
G04 #@! TD*
G04 #@! TA.AperFunction,Conductor*
%ADD24C,0.300000*%
G04 #@! TD*
G04 #@! TA.AperFunction,Conductor*
%ADD25C,0.254000*%
G04 #@! TD*
G04 APERTURE END LIST*
D10*
G04 #@! TO.P,U2,1*
G04 #@! TO.N,+3V3*
X115407500Y-127610000D03*
G04 #@! TO.P,U2,2*
G04 #@! TO.N,Net-(C1-Pad2)*
X115407500Y-129110000D03*
G04 #@! TO.P,U2,3*
G04 #@! TO.N,E0*
X115407500Y-130610000D03*
G04 #@! TO.P,U2,4*
G04 #@! TO.N,Net-(U2-Pad4)*
X115407500Y-132110000D03*
G04 #@! TO.P,U2,5*
G04 #@! TO.N,E1*
X115407500Y-133610000D03*
G04 #@! TO.P,U2,6*
G04 #@! TO.N,Net-(R6-Pad1)*
X115407500Y-135110000D03*
G04 #@! TO.P,U2,7*
G04 #@! TO.N,Net-(R5-Pad2)*
X115407500Y-136610000D03*
G04 #@! TO.P,U2,8*
G04 #@! TO.N,Net-(SW2-Pad2)*
X115407500Y-138110000D03*
G04 #@! TO.P,U2,9*
G04 #@! TO.N,GND*
X115407500Y-139610000D03*
G04 #@! TO.P,U2,10*
G04 #@! TO.N,MOTOR_SENSE*
X133192500Y-139610000D03*
G04 #@! TO.P,U2,11*
G04 #@! TO.N,RXD*
X133192500Y-138110000D03*
G04 #@! TO.P,U2,12*
G04 #@! TO.N,TXD*
X133192500Y-136610000D03*
G04 #@! TO.P,U2,13*
G04 #@! TO.N,GND*
X133192500Y-135110000D03*
G04 #@! TO.P,U2,14*
G04 #@! TO.N,MOTOR*
X133192500Y-133610000D03*
G04 #@! TO.P,U2,15*
G04 #@! TO.N,Net-(SW1-Pad2)*
X133192500Y-132110000D03*
G04 #@! TO.P,U2,16*
G04 #@! TO.N,Net-(U2-Pad16)*
X133192500Y-130610000D03*
G04 #@! TO.P,U2,17*
G04 #@! TO.N,Net-(U2-Pad17)*
X133192500Y-129110000D03*
G04 #@! TO.P,U2,18*
G04 #@! TO.N,GND*
X133192500Y-127610000D03*
D11*
G04 #@! TO.P,U2,19*
G04 #@! TO.N,Net-(U2-Pad19)*
X125400000Y-134210000D03*
G04 #@! TD*
D12*
G04 #@! TO.N,Net-(C1-Pad2)*
G04 #@! TO.C,C1*
G36*
X118586958Y-124020710D02*
X118601276Y-124022834D01*
X118615317Y-124026351D01*
X118628946Y-124031228D01*
X118642031Y-124037417D01*
X118654447Y-124044858D01*
X118666073Y-124053481D01*
X118676798Y-124063202D01*
X118686519Y-124073927D01*
X118695142Y-124085553D01*
X118702583Y-124097969D01*
X118708772Y-124111054D01*
X118713649Y-124124683D01*
X118717166Y-124138724D01*
X118719290Y-124153042D01*
X118720000Y-124167500D01*
X118720000Y-124462500D01*
X118719290Y-124476958D01*
X118717166Y-124491276D01*
X118713649Y-124505317D01*
X118708772Y-124518946D01*
X118702583Y-124532031D01*
X118695142Y-124544447D01*
X118686519Y-124556073D01*
X118676798Y-124566798D01*
X118666073Y-124576519D01*
X118654447Y-124585142D01*
X118642031Y-124592583D01*
X118628946Y-124598772D01*
X118615317Y-124603649D01*
X118601276Y-124607166D01*
X118586958Y-124609290D01*
X118572500Y-124610000D01*
X118227500Y-124610000D01*
X118213042Y-124609290D01*
X118198724Y-124607166D01*
X118184683Y-124603649D01*
X118171054Y-124598772D01*
X118157969Y-124592583D01*
X118145553Y-124585142D01*
X118133927Y-124576519D01*
X118123202Y-124566798D01*
X118113481Y-124556073D01*
X118104858Y-124544447D01*
X118097417Y-124532031D01*
X118091228Y-124518946D01*
X118086351Y-124505317D01*
X118082834Y-124491276D01*
X118080710Y-124476958D01*
X118080000Y-124462500D01*
X118080000Y-124167500D01*
X118080710Y-124153042D01*
X118082834Y-124138724D01*
X118086351Y-124124683D01*
X118091228Y-124111054D01*
X118097417Y-124097969D01*
X118104858Y-124085553D01*
X118113481Y-124073927D01*
X118123202Y-124063202D01*
X118133927Y-124053481D01*
X118145553Y-124044858D01*
X118157969Y-124037417D01*
X118171054Y-124031228D01*
X118184683Y-124026351D01*
X118198724Y-124022834D01*
X118213042Y-124020710D01*
X118227500Y-124020000D01*
X118572500Y-124020000D01*
X118586958Y-124020710D01*
X118586958Y-124020710D01*
G37*
D13*
G04 #@! TD*
G04 #@! TO.P,C1,2*
G04 #@! TO.N,Net-(C1-Pad2)*
X118400000Y-124315000D03*
D12*
G04 #@! TO.N,GND*
G04 #@! TO.C,C1*
G36*
X118586958Y-124990710D02*
X118601276Y-124992834D01*
X118615317Y-124996351D01*
X118628946Y-125001228D01*
X118642031Y-125007417D01*
X118654447Y-125014858D01*
X118666073Y-125023481D01*
X118676798Y-125033202D01*
X118686519Y-125043927D01*
X118695142Y-125055553D01*
X118702583Y-125067969D01*
X118708772Y-125081054D01*
X118713649Y-125094683D01*
X118717166Y-125108724D01*
X118719290Y-125123042D01*
X118720000Y-125137500D01*
X118720000Y-125432500D01*
X118719290Y-125446958D01*
X118717166Y-125461276D01*
X118713649Y-125475317D01*
X118708772Y-125488946D01*
X118702583Y-125502031D01*
X118695142Y-125514447D01*
X118686519Y-125526073D01*
X118676798Y-125536798D01*
X118666073Y-125546519D01*
X118654447Y-125555142D01*
X118642031Y-125562583D01*
X118628946Y-125568772D01*
X118615317Y-125573649D01*
X118601276Y-125577166D01*
X118586958Y-125579290D01*
X118572500Y-125580000D01*
X118227500Y-125580000D01*
X118213042Y-125579290D01*
X118198724Y-125577166D01*
X118184683Y-125573649D01*
X118171054Y-125568772D01*
X118157969Y-125562583D01*
X118145553Y-125555142D01*
X118133927Y-125546519D01*
X118123202Y-125536798D01*
X118113481Y-125526073D01*
X118104858Y-125514447D01*
X118097417Y-125502031D01*
X118091228Y-125488946D01*
X118086351Y-125475317D01*
X118082834Y-125461276D01*
X118080710Y-125446958D01*
X118080000Y-125432500D01*
X118080000Y-125137500D01*
X118080710Y-125123042D01*
X118082834Y-125108724D01*
X118086351Y-125094683D01*
X118091228Y-125081054D01*
X118097417Y-125067969D01*
X118104858Y-125055553D01*
X118113481Y-125043927D01*
X118123202Y-125033202D01*
X118133927Y-125023481D01*
X118145553Y-125014858D01*
X118157969Y-125007417D01*
X118171054Y-125001228D01*
X118184683Y-124996351D01*
X118198724Y-124992834D01*
X118213042Y-124990710D01*
X118227500Y-124990000D01*
X118572500Y-124990000D01*
X118586958Y-124990710D01*
X118586958Y-124990710D01*
G37*
D13*
G04 #@! TD*
G04 #@! TO.P,C1,1*
G04 #@! TO.N,GND*
X118400000Y-125285000D03*
D12*
G04 #@! TO.N,GND*
G04 #@! TO.C,C2*
G36*
X131146958Y-122410710D02*
X131161276Y-122412834D01*
X131175317Y-122416351D01*
X131188946Y-122421228D01*
X131202031Y-122427417D01*
X131214447Y-122434858D01*
X131226073Y-122443481D01*
X131236798Y-122453202D01*
X131246519Y-122463927D01*
X131255142Y-122475553D01*
X131262583Y-122487969D01*
X131268772Y-122501054D01*
X131273649Y-122514683D01*
X131277166Y-122528724D01*
X131279290Y-122543042D01*
X131280000Y-122557500D01*
X131280000Y-122852500D01*
X131279290Y-122866958D01*
X131277166Y-122881276D01*
X131273649Y-122895317D01*
X131268772Y-122908946D01*
X131262583Y-122922031D01*
X131255142Y-122934447D01*
X131246519Y-122946073D01*
X131236798Y-122956798D01*
X131226073Y-122966519D01*
X131214447Y-122975142D01*
X131202031Y-122982583D01*
X131188946Y-122988772D01*
X131175317Y-122993649D01*
X131161276Y-122997166D01*
X131146958Y-122999290D01*
X131132500Y-123000000D01*
X130787500Y-123000000D01*
X130773042Y-122999290D01*
X130758724Y-122997166D01*
X130744683Y-122993649D01*
X130731054Y-122988772D01*
X130717969Y-122982583D01*
X130705553Y-122975142D01*
X130693927Y-122966519D01*
X130683202Y-122956798D01*
X130673481Y-122946073D01*
X130664858Y-122934447D01*
X130657417Y-122922031D01*
X130651228Y-122908946D01*
X130646351Y-122895317D01*
X130642834Y-122881276D01*
X130640710Y-122866958D01*
X130640000Y-122852500D01*
X130640000Y-122557500D01*
X130640710Y-122543042D01*
X130642834Y-122528724D01*
X130646351Y-122514683D01*
X130651228Y-122501054D01*
X130657417Y-122487969D01*
X130664858Y-122475553D01*
X130673481Y-122463927D01*
X130683202Y-122453202D01*
X130693927Y-122443481D01*
X130705553Y-122434858D01*
X130717969Y-122427417D01*
X130731054Y-122421228D01*
X130744683Y-122416351D01*
X130758724Y-122412834D01*
X130773042Y-122410710D01*
X130787500Y-122410000D01*
X131132500Y-122410000D01*
X131146958Y-122410710D01*
X131146958Y-122410710D01*
G37*
D13*
G04 #@! TD*
G04 #@! TO.P,C2,1*
G04 #@! TO.N,GND*
X130960000Y-122705000D03*
D12*
G04 #@! TO.N,+3V3*
G04 #@! TO.C,C2*
G36*
X131146958Y-121440710D02*
X131161276Y-121442834D01*
X131175317Y-121446351D01*
X131188946Y-121451228D01*
X131202031Y-121457417D01*
X131214447Y-121464858D01*
X131226073Y-121473481D01*
X131236798Y-121483202D01*
X131246519Y-121493927D01*
X131255142Y-121505553D01*
X131262583Y-121517969D01*
X131268772Y-121531054D01*
X131273649Y-121544683D01*
X131277166Y-121558724D01*
X131279290Y-121573042D01*
X131280000Y-121587500D01*
X131280000Y-121882500D01*
X131279290Y-121896958D01*
X131277166Y-121911276D01*
X131273649Y-121925317D01*
X131268772Y-121938946D01*
X131262583Y-121952031D01*
X131255142Y-121964447D01*
X131246519Y-121976073D01*
X131236798Y-121986798D01*
X131226073Y-121996519D01*
X131214447Y-122005142D01*
X131202031Y-122012583D01*
X131188946Y-122018772D01*
X131175317Y-122023649D01*
X131161276Y-122027166D01*
X131146958Y-122029290D01*
X131132500Y-122030000D01*
X130787500Y-122030000D01*
X130773042Y-122029290D01*
X130758724Y-122027166D01*
X130744683Y-122023649D01*
X130731054Y-122018772D01*
X130717969Y-122012583D01*
X130705553Y-122005142D01*
X130693927Y-121996519D01*
X130683202Y-121986798D01*
X130673481Y-121976073D01*
X130664858Y-121964447D01*
X130657417Y-121952031D01*
X130651228Y-121938946D01*
X130646351Y-121925317D01*
X130642834Y-121911276D01*
X130640710Y-121896958D01*
X130640000Y-121882500D01*
X130640000Y-121587500D01*
X130640710Y-121573042D01*
X130642834Y-121558724D01*
X130646351Y-121544683D01*
X130651228Y-121531054D01*
X130657417Y-121517969D01*
X130664858Y-121505553D01*
X130673481Y-121493927D01*
X130683202Y-121483202D01*
X130693927Y-121473481D01*
X130705553Y-121464858D01*
X130717969Y-121457417D01*
X130731054Y-121451228D01*
X130744683Y-121446351D01*
X130758724Y-121442834D01*
X130773042Y-121440710D01*
X130787500Y-121440000D01*
X131132500Y-121440000D01*
X131146958Y-121440710D01*
X131146958Y-121440710D01*
G37*
D13*
G04 #@! TD*
G04 #@! TO.P,C2,2*
G04 #@! TO.N,+3V3*
X130960000Y-121735000D03*
D12*
G04 #@! TO.N,GND*
G04 #@! TO.C,C3*
G36*
X131146958Y-123680710D02*
X131161276Y-123682834D01*
X131175317Y-123686351D01*
X131188946Y-123691228D01*
X131202031Y-123697417D01*
X131214447Y-123704858D01*
X131226073Y-123713481D01*
X131236798Y-123723202D01*
X131246519Y-123733927D01*
X131255142Y-123745553D01*
X131262583Y-123757969D01*
X131268772Y-123771054D01*
X131273649Y-123784683D01*
X131277166Y-123798724D01*
X131279290Y-123813042D01*
X131280000Y-123827500D01*
X131280000Y-124122500D01*
X131279290Y-124136958D01*
X131277166Y-124151276D01*
X131273649Y-124165317D01*
X131268772Y-124178946D01*
X131262583Y-124192031D01*
X131255142Y-124204447D01*
X131246519Y-124216073D01*
X131236798Y-124226798D01*
X131226073Y-124236519D01*
X131214447Y-124245142D01*
X131202031Y-124252583D01*
X131188946Y-124258772D01*
X131175317Y-124263649D01*
X131161276Y-124267166D01*
X131146958Y-124269290D01*
X131132500Y-124270000D01*
X130787500Y-124270000D01*
X130773042Y-124269290D01*
X130758724Y-124267166D01*
X130744683Y-124263649D01*
X130731054Y-124258772D01*
X130717969Y-124252583D01*
X130705553Y-124245142D01*
X130693927Y-124236519D01*
X130683202Y-124226798D01*
X130673481Y-124216073D01*
X130664858Y-124204447D01*
X130657417Y-124192031D01*
X130651228Y-124178946D01*
X130646351Y-124165317D01*
X130642834Y-124151276D01*
X130640710Y-124136958D01*
X130640000Y-124122500D01*
X130640000Y-123827500D01*
X130640710Y-123813042D01*
X130642834Y-123798724D01*
X130646351Y-123784683D01*
X130651228Y-123771054D01*
X130657417Y-123757969D01*
X130664858Y-123745553D01*
X130673481Y-123733927D01*
X130683202Y-123723202D01*
X130693927Y-123713481D01*
X130705553Y-123704858D01*
X130717969Y-123697417D01*
X130731054Y-123691228D01*
X130744683Y-123686351D01*
X130758724Y-123682834D01*
X130773042Y-123680710D01*
X130787500Y-123680000D01*
X131132500Y-123680000D01*
X131146958Y-123680710D01*
X131146958Y-123680710D01*
G37*
D13*
G04 #@! TD*
G04 #@! TO.P,C3,1*
G04 #@! TO.N,GND*
X130960000Y-123975000D03*
D12*
G04 #@! TO.N,+5V*
G04 #@! TO.C,C3*
G36*
X131146958Y-124650710D02*
X131161276Y-124652834D01*
X131175317Y-124656351D01*
X131188946Y-124661228D01*
X131202031Y-124667417D01*
X131214447Y-124674858D01*
X131226073Y-124683481D01*
X131236798Y-124693202D01*
X131246519Y-124703927D01*
X131255142Y-124715553D01*
X131262583Y-124727969D01*
X131268772Y-124741054D01*
X131273649Y-124754683D01*
X131277166Y-124768724D01*
X131279290Y-124783042D01*
X131280000Y-124797500D01*
X131280000Y-125092500D01*
X131279290Y-125106958D01*
X131277166Y-125121276D01*
X131273649Y-125135317D01*
X131268772Y-125148946D01*
X131262583Y-125162031D01*
X131255142Y-125174447D01*
X131246519Y-125186073D01*
X131236798Y-125196798D01*
X131226073Y-125206519D01*
X131214447Y-125215142D01*
X131202031Y-125222583D01*
X131188946Y-125228772D01*
X131175317Y-125233649D01*
X131161276Y-125237166D01*
X131146958Y-125239290D01*
X131132500Y-125240000D01*
X130787500Y-125240000D01*
X130773042Y-125239290D01*
X130758724Y-125237166D01*
X130744683Y-125233649D01*
X130731054Y-125228772D01*
X130717969Y-125222583D01*
X130705553Y-125215142D01*
X130693927Y-125206519D01*
X130683202Y-125196798D01*
X130673481Y-125186073D01*
X130664858Y-125174447D01*
X130657417Y-125162031D01*
X130651228Y-125148946D01*
X130646351Y-125135317D01*
X130642834Y-125121276D01*
X130640710Y-125106958D01*
X130640000Y-125092500D01*
X130640000Y-124797500D01*
X130640710Y-124783042D01*
X130642834Y-124768724D01*
X130646351Y-124754683D01*
X130651228Y-124741054D01*
X130657417Y-124727969D01*
X130664858Y-124715553D01*
X130673481Y-124703927D01*
X130683202Y-124693202D01*
X130693927Y-124683481D01*
X130705553Y-124674858D01*
X130717969Y-124667417D01*
X130731054Y-124661228D01*
X130744683Y-124656351D01*
X130758724Y-124652834D01*
X130773042Y-124650710D01*
X130787500Y-124650000D01*
X131132500Y-124650000D01*
X131146958Y-124650710D01*
X131146958Y-124650710D01*
G37*
D13*
G04 #@! TD*
G04 #@! TO.P,C3,2*
G04 #@! TO.N,+5V*
X130960000Y-124945000D03*
D12*
G04 #@! TO.N,+3V3*
G04 #@! TO.C,C4*
G36*
X115586958Y-124020710D02*
X115601276Y-124022834D01*
X115615317Y-124026351D01*
X115628946Y-124031228D01*
X115642031Y-124037417D01*
X115654447Y-124044858D01*
X115666073Y-124053481D01*
X115676798Y-124063202D01*
X115686519Y-124073927D01*
X115695142Y-124085553D01*
X115702583Y-124097969D01*
X115708772Y-124111054D01*
X115713649Y-124124683D01*
X115717166Y-124138724D01*
X115719290Y-124153042D01*
X115720000Y-124167500D01*
X115720000Y-124462500D01*
X115719290Y-124476958D01*
X115717166Y-124491276D01*
X115713649Y-124505317D01*
X115708772Y-124518946D01*
X115702583Y-124532031D01*
X115695142Y-124544447D01*
X115686519Y-124556073D01*
X115676798Y-124566798D01*
X115666073Y-124576519D01*
X115654447Y-124585142D01*
X115642031Y-124592583D01*
X115628946Y-124598772D01*
X115615317Y-124603649D01*
X115601276Y-124607166D01*
X115586958Y-124609290D01*
X115572500Y-124610000D01*
X115227500Y-124610000D01*
X115213042Y-124609290D01*
X115198724Y-124607166D01*
X115184683Y-124603649D01*
X115171054Y-124598772D01*
X115157969Y-124592583D01*
X115145553Y-124585142D01*
X115133927Y-124576519D01*
X115123202Y-124566798D01*
X115113481Y-124556073D01*
X115104858Y-124544447D01*
X115097417Y-124532031D01*
X115091228Y-124518946D01*
X115086351Y-124505317D01*
X115082834Y-124491276D01*
X115080710Y-124476958D01*
X115080000Y-124462500D01*
X115080000Y-124167500D01*
X115080710Y-124153042D01*
X115082834Y-124138724D01*
X115086351Y-124124683D01*
X115091228Y-124111054D01*
X115097417Y-124097969D01*
X115104858Y-124085553D01*
X115113481Y-124073927D01*
X115123202Y-124063202D01*
X115133927Y-124053481D01*
X115145553Y-124044858D01*
X115157969Y-124037417D01*
X115171054Y-124031228D01*
X115184683Y-124026351D01*
X115198724Y-124022834D01*
X115213042Y-124020710D01*
X115227500Y-124020000D01*
X115572500Y-124020000D01*
X115586958Y-124020710D01*
X115586958Y-124020710D01*
G37*
D13*
G04 #@! TD*
G04 #@! TO.P,C4,1*
G04 #@! TO.N,+3V3*
X115400000Y-124315000D03*
D12*
G04 #@! TO.N,GND*
G04 #@! TO.C,C4*
G36*
X115586958Y-124990710D02*
X115601276Y-124992834D01*
X115615317Y-124996351D01*
X115628946Y-125001228D01*
X115642031Y-125007417D01*
X115654447Y-125014858D01*
X115666073Y-125023481D01*
X115676798Y-125033202D01*
X115686519Y-125043927D01*
X115695142Y-125055553D01*
X115702583Y-125067969D01*
X115708772Y-125081054D01*
X115713649Y-125094683D01*
X115717166Y-125108724D01*
X115719290Y-125123042D01*
X115720000Y-125137500D01*
X115720000Y-125432500D01*
X115719290Y-125446958D01*
X115717166Y-125461276D01*
X115713649Y-125475317D01*
X115708772Y-125488946D01*
X115702583Y-125502031D01*
X115695142Y-125514447D01*
X115686519Y-125526073D01*
X115676798Y-125536798D01*
X115666073Y-125546519D01*
X115654447Y-125555142D01*
X115642031Y-125562583D01*
X115628946Y-125568772D01*
X115615317Y-125573649D01*
X115601276Y-125577166D01*
X115586958Y-125579290D01*
X115572500Y-125580000D01*
X115227500Y-125580000D01*
X115213042Y-125579290D01*
X115198724Y-125577166D01*
X115184683Y-125573649D01*
X115171054Y-125568772D01*
X115157969Y-125562583D01*
X115145553Y-125555142D01*
X115133927Y-125546519D01*
X115123202Y-125536798D01*
X115113481Y-125526073D01*
X115104858Y-125514447D01*
X115097417Y-125502031D01*
X115091228Y-125488946D01*
X115086351Y-125475317D01*
X115082834Y-125461276D01*
X115080710Y-125446958D01*
X115080000Y-125432500D01*
X115080000Y-125137500D01*
X115080710Y-125123042D01*
X115082834Y-125108724D01*
X115086351Y-125094683D01*
X115091228Y-125081054D01*
X115097417Y-125067969D01*
X115104858Y-125055553D01*
X115113481Y-125043927D01*
X115123202Y-125033202D01*
X115133927Y-125023481D01*
X115145553Y-125014858D01*
X115157969Y-125007417D01*
X115171054Y-125001228D01*
X115184683Y-124996351D01*
X115198724Y-124992834D01*
X115213042Y-124990710D01*
X115227500Y-124990000D01*
X115572500Y-124990000D01*
X115586958Y-124990710D01*
X115586958Y-124990710D01*
G37*
D13*
G04 #@! TD*
G04 #@! TO.P,C4,2*
G04 #@! TO.N,GND*
X115400000Y-125285000D03*
D12*
G04 #@! TO.N,+3V3*
G04 #@! TO.C,C5*
G36*
X114086958Y-124020710D02*
X114101276Y-124022834D01*
X114115317Y-124026351D01*
X114128946Y-124031228D01*
X114142031Y-124037417D01*
X114154447Y-124044858D01*
X114166073Y-124053481D01*
X114176798Y-124063202D01*
X114186519Y-124073927D01*
X114195142Y-124085553D01*
X114202583Y-124097969D01*
X114208772Y-124111054D01*
X114213649Y-124124683D01*
X114217166Y-124138724D01*
X114219290Y-124153042D01*
X114220000Y-124167500D01*
X114220000Y-124462500D01*
X114219290Y-124476958D01*
X114217166Y-124491276D01*
X114213649Y-124505317D01*
X114208772Y-124518946D01*
X114202583Y-124532031D01*
X114195142Y-124544447D01*
X114186519Y-124556073D01*
X114176798Y-124566798D01*
X114166073Y-124576519D01*
X114154447Y-124585142D01*
X114142031Y-124592583D01*
X114128946Y-124598772D01*
X114115317Y-124603649D01*
X114101276Y-124607166D01*
X114086958Y-124609290D01*
X114072500Y-124610000D01*
X113727500Y-124610000D01*
X113713042Y-124609290D01*
X113698724Y-124607166D01*
X113684683Y-124603649D01*
X113671054Y-124598772D01*
X113657969Y-124592583D01*
X113645553Y-124585142D01*
X113633927Y-124576519D01*
X113623202Y-124566798D01*
X113613481Y-124556073D01*
X113604858Y-124544447D01*
X113597417Y-124532031D01*
X113591228Y-124518946D01*
X113586351Y-124505317D01*
X113582834Y-124491276D01*
X113580710Y-124476958D01*
X113580000Y-124462500D01*
X113580000Y-124167500D01*
X113580710Y-124153042D01*
X113582834Y-124138724D01*
X113586351Y-124124683D01*
X113591228Y-124111054D01*
X113597417Y-124097969D01*
X113604858Y-124085553D01*
X113613481Y-124073927D01*
X113623202Y-124063202D01*
X113633927Y-124053481D01*
X113645553Y-124044858D01*
X113657969Y-124037417D01*
X113671054Y-124031228D01*
X113684683Y-124026351D01*
X113698724Y-124022834D01*
X113713042Y-124020710D01*
X113727500Y-124020000D01*
X114072500Y-124020000D01*
X114086958Y-124020710D01*
X114086958Y-124020710D01*
G37*
D13*
G04 #@! TD*
G04 #@! TO.P,C5,2*
G04 #@! TO.N,+3V3*
X113900000Y-124315000D03*
D12*
G04 #@! TO.N,GND*
G04 #@! TO.C,C5*
G36*
X114086958Y-124990710D02*
X114101276Y-124992834D01*
X114115317Y-124996351D01*
X114128946Y-125001228D01*
X114142031Y-125007417D01*
X114154447Y-125014858D01*
X114166073Y-125023481D01*
X114176798Y-125033202D01*
X114186519Y-125043927D01*
X114195142Y-125055553D01*
X114202583Y-125067969D01*
X114208772Y-125081054D01*
X114213649Y-125094683D01*
X114217166Y-125108724D01*
X114219290Y-125123042D01*
X114220000Y-125137500D01*
X114220000Y-125432500D01*
X114219290Y-125446958D01*
X114217166Y-125461276D01*
X114213649Y-125475317D01*
X114208772Y-125488946D01*
X114202583Y-125502031D01*
X114195142Y-125514447D01*
X114186519Y-125526073D01*
X114176798Y-125536798D01*
X114166073Y-125546519D01*
X114154447Y-125555142D01*
X114142031Y-125562583D01*
X114128946Y-125568772D01*
X114115317Y-125573649D01*
X114101276Y-125577166D01*
X114086958Y-125579290D01*
X114072500Y-125580000D01*
X113727500Y-125580000D01*
X113713042Y-125579290D01*
X113698724Y-125577166D01*
X113684683Y-125573649D01*
X113671054Y-125568772D01*
X113657969Y-125562583D01*
X113645553Y-125555142D01*
X113633927Y-125546519D01*
X113623202Y-125536798D01*
X113613481Y-125526073D01*
X113604858Y-125514447D01*
X113597417Y-125502031D01*
X113591228Y-125488946D01*
X113586351Y-125475317D01*
X113582834Y-125461276D01*
X113580710Y-125446958D01*
X113580000Y-125432500D01*
X113580000Y-125137500D01*
X113580710Y-125123042D01*
X113582834Y-125108724D01*
X113586351Y-125094683D01*
X113591228Y-125081054D01*
X113597417Y-125067969D01*
X113604858Y-125055553D01*
X113613481Y-125043927D01*
X113623202Y-125033202D01*
X113633927Y-125023481D01*
X113645553Y-125014858D01*
X113657969Y-125007417D01*
X113671054Y-125001228D01*
X113684683Y-124996351D01*
X113698724Y-124992834D01*
X113713042Y-124990710D01*
X113727500Y-124990000D01*
X114072500Y-124990000D01*
X114086958Y-124990710D01*
X114086958Y-124990710D01*
G37*
D13*
G04 #@! TD*
G04 #@! TO.P,C5,1*
G04 #@! TO.N,GND*
X113900000Y-125285000D03*
D12*
G04 #@! TO.N,+3V3*
G04 #@! TO.C,R10*
G36*
X117086958Y-124020710D02*
X117101276Y-124022834D01*
X117115317Y-124026351D01*
X117128946Y-124031228D01*
X117142031Y-124037417D01*
X117154447Y-124044858D01*
X117166073Y-124053481D01*
X117176798Y-124063202D01*
X117186519Y-124073927D01*
X117195142Y-124085553D01*
X117202583Y-124097969D01*
X117208772Y-124111054D01*
X117213649Y-124124683D01*
X117217166Y-124138724D01*
X117219290Y-124153042D01*
X117220000Y-124167500D01*
X117220000Y-124462500D01*
X117219290Y-124476958D01*
X117217166Y-124491276D01*
X117213649Y-124505317D01*
X117208772Y-124518946D01*
X117202583Y-124532031D01*
X117195142Y-124544447D01*
X117186519Y-124556073D01*
X117176798Y-124566798D01*
X117166073Y-124576519D01*
X117154447Y-124585142D01*
X117142031Y-124592583D01*
X117128946Y-124598772D01*
X117115317Y-124603649D01*
X117101276Y-124607166D01*
X117086958Y-124609290D01*
X117072500Y-124610000D01*
X116727500Y-124610000D01*
X116713042Y-124609290D01*
X116698724Y-124607166D01*
X116684683Y-124603649D01*
X116671054Y-124598772D01*
X116657969Y-124592583D01*
X116645553Y-124585142D01*
X116633927Y-124576519D01*
X116623202Y-124566798D01*
X116613481Y-124556073D01*
X116604858Y-124544447D01*
X116597417Y-124532031D01*
X116591228Y-124518946D01*
X116586351Y-124505317D01*
X116582834Y-124491276D01*
X116580710Y-124476958D01*
X116580000Y-124462500D01*
X116580000Y-124167500D01*
X116580710Y-124153042D01*
X116582834Y-124138724D01*
X116586351Y-124124683D01*
X116591228Y-124111054D01*
X116597417Y-124097969D01*
X116604858Y-124085553D01*
X116613481Y-124073927D01*
X116623202Y-124063202D01*
X116633927Y-124053481D01*
X116645553Y-124044858D01*
X116657969Y-124037417D01*
X116671054Y-124031228D01*
X116684683Y-124026351D01*
X116698724Y-124022834D01*
X116713042Y-124020710D01*
X116727500Y-124020000D01*
X117072500Y-124020000D01*
X117086958Y-124020710D01*
X117086958Y-124020710D01*
G37*
D13*
G04 #@! TD*
G04 #@! TO.P,R10,2*
G04 #@! TO.N,+3V3*
X116900000Y-124315000D03*
D12*
G04 #@! TO.N,Net-(C1-Pad2)*
G04 #@! TO.C,R10*
G36*
X117086958Y-124990710D02*
X117101276Y-124992834D01*
X117115317Y-124996351D01*
X117128946Y-125001228D01*
X117142031Y-125007417D01*
X117154447Y-125014858D01*
X117166073Y-125023481D01*
X117176798Y-125033202D01*
X117186519Y-125043927D01*
X117195142Y-125055553D01*
X117202583Y-125067969D01*
X117208772Y-125081054D01*
X117213649Y-125094683D01*
X117217166Y-125108724D01*
X117219290Y-125123042D01*
X117220000Y-125137500D01*
X117220000Y-125432500D01*
X117219290Y-125446958D01*
X117217166Y-125461276D01*
X117213649Y-125475317D01*
X117208772Y-125488946D01*
X117202583Y-125502031D01*
X117195142Y-125514447D01*
X117186519Y-125526073D01*
X117176798Y-125536798D01*
X117166073Y-125546519D01*
X117154447Y-125555142D01*
X117142031Y-125562583D01*
X117128946Y-125568772D01*
X117115317Y-125573649D01*
X117101276Y-125577166D01*
X117086958Y-125579290D01*
X117072500Y-125580000D01*
X116727500Y-125580000D01*
X116713042Y-125579290D01*
X116698724Y-125577166D01*
X116684683Y-125573649D01*
X116671054Y-125568772D01*
X116657969Y-125562583D01*
X116645553Y-125555142D01*
X116633927Y-125546519D01*
X116623202Y-125536798D01*
X116613481Y-125526073D01*
X116604858Y-125514447D01*
X116597417Y-125502031D01*
X116591228Y-125488946D01*
X116586351Y-125475317D01*
X116582834Y-125461276D01*
X116580710Y-125446958D01*
X116580000Y-125432500D01*
X116580000Y-125137500D01*
X116580710Y-125123042D01*
X116582834Y-125108724D01*
X116586351Y-125094683D01*
X116591228Y-125081054D01*
X116597417Y-125067969D01*
X116604858Y-125055553D01*
X116613481Y-125043927D01*
X116623202Y-125033202D01*
X116633927Y-125023481D01*
X116645553Y-125014858D01*
X116657969Y-125007417D01*
X116671054Y-125001228D01*
X116684683Y-124996351D01*
X116698724Y-124992834D01*
X116713042Y-124990710D01*
X116727500Y-124990000D01*
X117072500Y-124990000D01*
X117086958Y-124990710D01*
X117086958Y-124990710D01*
G37*
D13*
G04 #@! TD*
G04 #@! TO.P,R10,1*
G04 #@! TO.N,Net-(C1-Pad2)*
X116900000Y-125285000D03*
D14*
G04 #@! TO.P,U1,1*
G04 #@! TO.N,+3V3*
X132200000Y-122000000D03*
G04 #@! TO.P,U1,2*
X132200000Y-122950000D03*
G04 #@! TO.P,U1,3*
G04 #@! TO.N,GND*
X132200000Y-123900000D03*
G04 #@! TO.P,U1,4*
G04 #@! TO.N,Net-(U1-Pad4)*
X134880000Y-123900000D03*
G04 #@! TO.P,U1,5*
G04 #@! TO.N,+5V*
X134880000Y-122950000D03*
G04 #@! TO.P,U1,6*
X134880000Y-122000000D03*
D15*
G04 #@! TO.P,U1,7*
G04 #@! TO.N,N/C*
X133540000Y-122950000D03*
G04 #@! TD*
D16*
G04 #@! TO.P,SW2,2*
G04 #@! TO.N,Net-(SW2-Pad2)*
X118550000Y-120725000D03*
X114050000Y-120725000D03*
G04 #@! TO.P,SW2,1*
G04 #@! TO.N,GND*
X114050000Y-122875000D03*
X118550000Y-122875000D03*
G04 #@! TD*
D12*
G04 #@! TO.N,GND*
G04 #@! TO.C,R1*
G36*
X112226958Y-130270710D02*
X112241276Y-130272834D01*
X112255317Y-130276351D01*
X112268946Y-130281228D01*
X112282031Y-130287417D01*
X112294447Y-130294858D01*
X112306073Y-130303481D01*
X112316798Y-130313202D01*
X112326519Y-130323927D01*
X112335142Y-130335553D01*
X112342583Y-130347969D01*
X112348772Y-130361054D01*
X112353649Y-130374683D01*
X112357166Y-130388724D01*
X112359290Y-130403042D01*
X112360000Y-130417500D01*
X112360000Y-130762500D01*
X112359290Y-130776958D01*
X112357166Y-130791276D01*
X112353649Y-130805317D01*
X112348772Y-130818946D01*
X112342583Y-130832031D01*
X112335142Y-130844447D01*
X112326519Y-130856073D01*
X112316798Y-130866798D01*
X112306073Y-130876519D01*
X112294447Y-130885142D01*
X112282031Y-130892583D01*
X112268946Y-130898772D01*
X112255317Y-130903649D01*
X112241276Y-130907166D01*
X112226958Y-130909290D01*
X112212500Y-130910000D01*
X111917500Y-130910000D01*
X111903042Y-130909290D01*
X111888724Y-130907166D01*
X111874683Y-130903649D01*
X111861054Y-130898772D01*
X111847969Y-130892583D01*
X111835553Y-130885142D01*
X111823927Y-130876519D01*
X111813202Y-130866798D01*
X111803481Y-130856073D01*
X111794858Y-130844447D01*
X111787417Y-130832031D01*
X111781228Y-130818946D01*
X111776351Y-130805317D01*
X111772834Y-130791276D01*
X111770710Y-130776958D01*
X111770000Y-130762500D01*
X111770000Y-130417500D01*
X111770710Y-130403042D01*
X111772834Y-130388724D01*
X111776351Y-130374683D01*
X111781228Y-130361054D01*
X111787417Y-130347969D01*
X111794858Y-130335553D01*
X111803481Y-130323927D01*
X111813202Y-130313202D01*
X111823927Y-130303481D01*
X111835553Y-130294858D01*
X111847969Y-130287417D01*
X111861054Y-130281228D01*
X111874683Y-130276351D01*
X111888724Y-130272834D01*
X111903042Y-130270710D01*
X111917500Y-130270000D01*
X112212500Y-130270000D01*
X112226958Y-130270710D01*
X112226958Y-130270710D01*
G37*
D13*
G04 #@! TD*
G04 #@! TO.P,R1,2*
G04 #@! TO.N,GND*
X112065000Y-130590000D03*
D12*
G04 #@! TO.N,E0*
G04 #@! TO.C,R1*
G36*
X113196958Y-130270710D02*
X113211276Y-130272834D01*
X113225317Y-130276351D01*
X113238946Y-130281228D01*
X113252031Y-130287417D01*
X113264447Y-130294858D01*
X113276073Y-130303481D01*
X113286798Y-130313202D01*
X113296519Y-130323927D01*
X113305142Y-130335553D01*
X113312583Y-130347969D01*
X113318772Y-130361054D01*
X113323649Y-130374683D01*
X113327166Y-130388724D01*
X113329290Y-130403042D01*
X113330000Y-130417500D01*
X113330000Y-130762500D01*
X113329290Y-130776958D01*
X113327166Y-130791276D01*
X113323649Y-130805317D01*
X113318772Y-130818946D01*
X113312583Y-130832031D01*
X113305142Y-130844447D01*
X113296519Y-130856073D01*
X113286798Y-130866798D01*
X113276073Y-130876519D01*
X113264447Y-130885142D01*
X113252031Y-130892583D01*
X113238946Y-130898772D01*
X113225317Y-130903649D01*
X113211276Y-130907166D01*
X113196958Y-130909290D01*
X113182500Y-130910000D01*
X112887500Y-130910000D01*
X112873042Y-130909290D01*
X112858724Y-130907166D01*
X112844683Y-130903649D01*
X112831054Y-130898772D01*
X112817969Y-130892583D01*
X112805553Y-130885142D01*
X112793927Y-130876519D01*
X112783202Y-130866798D01*
X112773481Y-130856073D01*
X112764858Y-130844447D01*
X112757417Y-130832031D01*
X112751228Y-130818946D01*
X112746351Y-130805317D01*
X112742834Y-130791276D01*
X112740710Y-130776958D01*
X112740000Y-130762500D01*
X112740000Y-130417500D01*
X112740710Y-130403042D01*
X112742834Y-130388724D01*
X112746351Y-130374683D01*
X112751228Y-130361054D01*
X112757417Y-130347969D01*
X112764858Y-130335553D01*
X112773481Y-130323927D01*
X112783202Y-130313202D01*
X112793927Y-130303481D01*
X112805553Y-130294858D01*
X112817969Y-130287417D01*
X112831054Y-130281228D01*
X112844683Y-130276351D01*
X112858724Y-130272834D01*
X112873042Y-130270710D01*
X112887500Y-130270000D01*
X113182500Y-130270000D01*
X113196958Y-130270710D01*
X113196958Y-130270710D01*
G37*
D13*
G04 #@! TD*
G04 #@! TO.P,R1,1*
G04 #@! TO.N,E0*
X113035000Y-130590000D03*
D12*
G04 #@! TO.N,GND*
G04 #@! TO.C,R2*
G36*
X112216958Y-131800710D02*
X112231276Y-131802834D01*
X112245317Y-131806351D01*
X112258946Y-131811228D01*
X112272031Y-131817417D01*
X112284447Y-131824858D01*
X112296073Y-131833481D01*
X112306798Y-131843202D01*
X112316519Y-131853927D01*
X112325142Y-131865553D01*
X112332583Y-131877969D01*
X112338772Y-131891054D01*
X112343649Y-131904683D01*
X112347166Y-131918724D01*
X112349290Y-131933042D01*
X112350000Y-131947500D01*
X112350000Y-132292500D01*
X112349290Y-132306958D01*
X112347166Y-132321276D01*
X112343649Y-132335317D01*
X112338772Y-132348946D01*
X112332583Y-132362031D01*
X112325142Y-132374447D01*
X112316519Y-132386073D01*
X112306798Y-132396798D01*
X112296073Y-132406519D01*
X112284447Y-132415142D01*
X112272031Y-132422583D01*
X112258946Y-132428772D01*
X112245317Y-132433649D01*
X112231276Y-132437166D01*
X112216958Y-132439290D01*
X112202500Y-132440000D01*
X111907500Y-132440000D01*
X111893042Y-132439290D01*
X111878724Y-132437166D01*
X111864683Y-132433649D01*
X111851054Y-132428772D01*
X111837969Y-132422583D01*
X111825553Y-132415142D01*
X111813927Y-132406519D01*
X111803202Y-132396798D01*
X111793481Y-132386073D01*
X111784858Y-132374447D01*
X111777417Y-132362031D01*
X111771228Y-132348946D01*
X111766351Y-132335317D01*
X111762834Y-132321276D01*
X111760710Y-132306958D01*
X111760000Y-132292500D01*
X111760000Y-131947500D01*
X111760710Y-131933042D01*
X111762834Y-131918724D01*
X111766351Y-131904683D01*
X111771228Y-131891054D01*
X111777417Y-131877969D01*
X111784858Y-131865553D01*
X111793481Y-131853927D01*
X111803202Y-131843202D01*
X111813927Y-131833481D01*
X111825553Y-131824858D01*
X111837969Y-131817417D01*
X111851054Y-131811228D01*
X111864683Y-131806351D01*
X111878724Y-131802834D01*
X111893042Y-131800710D01*
X111907500Y-131800000D01*
X112202500Y-131800000D01*
X112216958Y-131800710D01*
X112216958Y-131800710D01*
G37*
D13*
G04 #@! TD*
G04 #@! TO.P,R2,1*
G04 #@! TO.N,GND*
X112055000Y-132120000D03*
D12*
G04 #@! TO.N,E1*
G04 #@! TO.C,R2*
G36*
X113186958Y-131800710D02*
X113201276Y-131802834D01*
X113215317Y-131806351D01*
X113228946Y-131811228D01*
X113242031Y-131817417D01*
X113254447Y-131824858D01*
X113266073Y-131833481D01*
X113276798Y-131843202D01*
X113286519Y-131853927D01*
X113295142Y-131865553D01*
X113302583Y-131877969D01*
X113308772Y-131891054D01*
X113313649Y-131904683D01*
X113317166Y-131918724D01*
X113319290Y-131933042D01*
X113320000Y-131947500D01*
X113320000Y-132292500D01*
X113319290Y-132306958D01*
X113317166Y-132321276D01*
X113313649Y-132335317D01*
X113308772Y-132348946D01*
X113302583Y-132362031D01*
X113295142Y-132374447D01*
X113286519Y-132386073D01*
X113276798Y-132396798D01*
X113266073Y-132406519D01*
X113254447Y-132415142D01*
X113242031Y-132422583D01*
X113228946Y-132428772D01*
X113215317Y-132433649D01*
X113201276Y-132437166D01*
X113186958Y-132439290D01*
X113172500Y-132440000D01*
X112877500Y-132440000D01*
X112863042Y-132439290D01*
X112848724Y-132437166D01*
X112834683Y-132433649D01*
X112821054Y-132428772D01*
X112807969Y-132422583D01*
X112795553Y-132415142D01*
X112783927Y-132406519D01*
X112773202Y-132396798D01*
X112763481Y-132386073D01*
X112754858Y-132374447D01*
X112747417Y-132362031D01*
X112741228Y-132348946D01*
X112736351Y-132335317D01*
X112732834Y-132321276D01*
X112730710Y-132306958D01*
X112730000Y-132292500D01*
X112730000Y-131947500D01*
X112730710Y-131933042D01*
X112732834Y-131918724D01*
X112736351Y-131904683D01*
X112741228Y-131891054D01*
X112747417Y-131877969D01*
X112754858Y-131865553D01*
X112763481Y-131853927D01*
X112773202Y-131843202D01*
X112783927Y-131833481D01*
X112795553Y-131824858D01*
X112807969Y-131817417D01*
X112821054Y-131811228D01*
X112834683Y-131806351D01*
X112848724Y-131802834D01*
X112863042Y-131800710D01*
X112877500Y-131800000D01*
X113172500Y-131800000D01*
X113186958Y-131800710D01*
X113186958Y-131800710D01*
G37*
D13*
G04 #@! TD*
G04 #@! TO.P,R2,2*
G04 #@! TO.N,E1*
X113025000Y-132120000D03*
D12*
G04 #@! TO.N,+3V3*
G04 #@! TO.C,R3*
G36*
X113216958Y-136540710D02*
X113231276Y-136542834D01*
X113245317Y-136546351D01*
X113258946Y-136551228D01*
X113272031Y-136557417D01*
X113284447Y-136564858D01*
X113296073Y-136573481D01*
X113306798Y-136583202D01*
X113316519Y-136593927D01*
X113325142Y-136605553D01*
X113332583Y-136617969D01*
X113338772Y-136631054D01*
X113343649Y-136644683D01*
X113347166Y-136658724D01*
X113349290Y-136673042D01*
X113350000Y-136687500D01*
X113350000Y-137032500D01*
X113349290Y-137046958D01*
X113347166Y-137061276D01*
X113343649Y-137075317D01*
X113338772Y-137088946D01*
X113332583Y-137102031D01*
X113325142Y-137114447D01*
X113316519Y-137126073D01*
X113306798Y-137136798D01*
X113296073Y-137146519D01*
X113284447Y-137155142D01*
X113272031Y-137162583D01*
X113258946Y-137168772D01*
X113245317Y-137173649D01*
X113231276Y-137177166D01*
X113216958Y-137179290D01*
X113202500Y-137180000D01*
X112907500Y-137180000D01*
X112893042Y-137179290D01*
X112878724Y-137177166D01*
X112864683Y-137173649D01*
X112851054Y-137168772D01*
X112837969Y-137162583D01*
X112825553Y-137155142D01*
X112813927Y-137146519D01*
X112803202Y-137136798D01*
X112793481Y-137126073D01*
X112784858Y-137114447D01*
X112777417Y-137102031D01*
X112771228Y-137088946D01*
X112766351Y-137075317D01*
X112762834Y-137061276D01*
X112760710Y-137046958D01*
X112760000Y-137032500D01*
X112760000Y-136687500D01*
X112760710Y-136673042D01*
X112762834Y-136658724D01*
X112766351Y-136644683D01*
X112771228Y-136631054D01*
X112777417Y-136617969D01*
X112784858Y-136605553D01*
X112793481Y-136593927D01*
X112803202Y-136583202D01*
X112813927Y-136573481D01*
X112825553Y-136564858D01*
X112837969Y-136557417D01*
X112851054Y-136551228D01*
X112864683Y-136546351D01*
X112878724Y-136542834D01*
X112893042Y-136540710D01*
X112907500Y-136540000D01*
X113202500Y-136540000D01*
X113216958Y-136540710D01*
X113216958Y-136540710D01*
G37*
D13*
G04 #@! TD*
G04 #@! TO.P,R3,1*
G04 #@! TO.N,+3V3*
X113055000Y-136860000D03*
D12*
G04 #@! TO.N,Net-(J4-Pad4)*
G04 #@! TO.C,R3*
G36*
X112246958Y-136540710D02*
X112261276Y-136542834D01*
X112275317Y-136546351D01*
X112288946Y-136551228D01*
X112302031Y-136557417D01*
X112314447Y-136564858D01*
X112326073Y-136573481D01*
X112336798Y-136583202D01*
X112346519Y-136593927D01*
X112355142Y-136605553D01*
X112362583Y-136617969D01*
X112368772Y-136631054D01*
X112373649Y-136644683D01*
X112377166Y-136658724D01*
X112379290Y-136673042D01*
X112380000Y-136687500D01*
X112380000Y-137032500D01*
X112379290Y-137046958D01*
X112377166Y-137061276D01*
X112373649Y-137075317D01*
X112368772Y-137088946D01*
X112362583Y-137102031D01*
X112355142Y-137114447D01*
X112346519Y-137126073D01*
X112336798Y-137136798D01*
X112326073Y-137146519D01*
X112314447Y-137155142D01*
X112302031Y-137162583D01*
X112288946Y-137168772D01*
X112275317Y-137173649D01*
X112261276Y-137177166D01*
X112246958Y-137179290D01*
X112232500Y-137180000D01*
X111937500Y-137180000D01*
X111923042Y-137179290D01*
X111908724Y-137177166D01*
X111894683Y-137173649D01*
X111881054Y-137168772D01*
X111867969Y-137162583D01*
X111855553Y-137155142D01*
X111843927Y-137146519D01*
X111833202Y-137136798D01*
X111823481Y-137126073D01*
X111814858Y-137114447D01*
X111807417Y-137102031D01*
X111801228Y-137088946D01*
X111796351Y-137075317D01*
X111792834Y-137061276D01*
X111790710Y-137046958D01*
X111790000Y-137032500D01*
X111790000Y-136687500D01*
X111790710Y-136673042D01*
X111792834Y-136658724D01*
X111796351Y-136644683D01*
X111801228Y-136631054D01*
X111807417Y-136617969D01*
X111814858Y-136605553D01*
X111823481Y-136593927D01*
X111833202Y-136583202D01*
X111843927Y-136573481D01*
X111855553Y-136564858D01*
X111867969Y-136557417D01*
X111881054Y-136551228D01*
X111894683Y-136546351D01*
X111908724Y-136542834D01*
X111923042Y-136540710D01*
X111937500Y-136540000D01*
X112232500Y-136540000D01*
X112246958Y-136540710D01*
X112246958Y-136540710D01*
G37*
D13*
G04 #@! TD*
G04 #@! TO.P,R3,2*
G04 #@! TO.N,Net-(J4-Pad4)*
X112085000Y-136860000D03*
D17*
G04 #@! TO.P,H1,1*
G04 #@! TO.N,GND*
X138500000Y-122500000D03*
G04 #@! TD*
G04 #@! TO.P,H2,1*
G04 #@! TO.N,GND*
X108500000Y-122500000D03*
G04 #@! TD*
D18*
G04 #@! TO.P,J3,1*
G04 #@! TO.N,GND*
X136480000Y-128845000D03*
D19*
G04 #@! TO.P,J3,2*
G04 #@! TO.N,+5V*
X139020000Y-130115000D03*
G04 #@! TO.P,J3,3*
G04 #@! TO.N,TXD*
X136480000Y-131385000D03*
G04 #@! TO.P,J3,4*
G04 #@! TO.N,RXD*
X139020000Y-132655000D03*
G04 #@! TD*
D18*
G04 #@! TO.P,J2,1*
G04 #@! TO.N,MOTOR_SENSE*
X121995000Y-124370000D03*
D19*
G04 #@! TO.P,J2,2*
G04 #@! TO.N,MOTOR*
X123265000Y-121830000D03*
G04 #@! TO.P,J2,3*
G04 #@! TO.N,+5V*
X124535000Y-124370000D03*
G04 #@! TO.P,J2,4*
G04 #@! TO.N,GND*
X125805000Y-121830000D03*
G04 #@! TD*
D17*
G04 #@! TO.P,H6,1*
G04 #@! TO.N,GND*
X108500000Y-138500000D03*
G04 #@! TD*
G04 #@! TO.P,H7,1*
G04 #@! TO.N,GND*
X138500000Y-138500000D03*
G04 #@! TD*
D12*
G04 #@! TO.N,Net-(D1-Pad1)*
G04 #@! TO.C,D1*
G36*
X129486958Y-121490710D02*
X129501276Y-121492834D01*
X129515317Y-121496351D01*
X129528946Y-121501228D01*
X129542031Y-121507417D01*
X129554447Y-121514858D01*
X129566073Y-121523481D01*
X129576798Y-121533202D01*
X129586519Y-121543927D01*
X129595142Y-121555553D01*
X129602583Y-121567969D01*
X129608772Y-121581054D01*
X129613649Y-121594683D01*
X129617166Y-121608724D01*
X129619290Y-121623042D01*
X129620000Y-121637500D01*
X129620000Y-121932500D01*
X129619290Y-121946958D01*
X129617166Y-121961276D01*
X129613649Y-121975317D01*
X129608772Y-121988946D01*
X129602583Y-122002031D01*
X129595142Y-122014447D01*
X129586519Y-122026073D01*
X129576798Y-122036798D01*
X129566073Y-122046519D01*
X129554447Y-122055142D01*
X129542031Y-122062583D01*
X129528946Y-122068772D01*
X129515317Y-122073649D01*
X129501276Y-122077166D01*
X129486958Y-122079290D01*
X129472500Y-122080000D01*
X129127500Y-122080000D01*
X129113042Y-122079290D01*
X129098724Y-122077166D01*
X129084683Y-122073649D01*
X129071054Y-122068772D01*
X129057969Y-122062583D01*
X129045553Y-122055142D01*
X129033927Y-122046519D01*
X129023202Y-122036798D01*
X129013481Y-122026073D01*
X129004858Y-122014447D01*
X128997417Y-122002031D01*
X128991228Y-121988946D01*
X128986351Y-121975317D01*
X128982834Y-121961276D01*
X128980710Y-121946958D01*
X128980000Y-121932500D01*
X128980000Y-121637500D01*
X128980710Y-121623042D01*
X128982834Y-121608724D01*
X128986351Y-121594683D01*
X128991228Y-121581054D01*
X128997417Y-121567969D01*
X129004858Y-121555553D01*
X129013481Y-121543927D01*
X129023202Y-121533202D01*
X129033927Y-121523481D01*
X129045553Y-121514858D01*
X129057969Y-121507417D01*
X129071054Y-121501228D01*
X129084683Y-121496351D01*
X129098724Y-121492834D01*
X129113042Y-121490710D01*
X129127500Y-121490000D01*
X129472500Y-121490000D01*
X129486958Y-121490710D01*
X129486958Y-121490710D01*
G37*
D13*
G04 #@! TD*
G04 #@! TO.P,D1,1*
G04 #@! TO.N,Net-(D1-Pad1)*
X129300000Y-121785000D03*
D12*
G04 #@! TO.N,+3V3*
G04 #@! TO.C,D1*
G36*
X129486958Y-120520710D02*
X129501276Y-120522834D01*
X129515317Y-120526351D01*
X129528946Y-120531228D01*
X129542031Y-120537417D01*
X129554447Y-120544858D01*
X129566073Y-120553481D01*
X129576798Y-120563202D01*
X129586519Y-120573927D01*
X129595142Y-120585553D01*
X129602583Y-120597969D01*
X129608772Y-120611054D01*
X129613649Y-120624683D01*
X129617166Y-120638724D01*
X129619290Y-120653042D01*
X129620000Y-120667500D01*
X129620000Y-120962500D01*
X129619290Y-120976958D01*
X129617166Y-120991276D01*
X129613649Y-121005317D01*
X129608772Y-121018946D01*
X129602583Y-121032031D01*
X129595142Y-121044447D01*
X129586519Y-121056073D01*
X129576798Y-121066798D01*
X129566073Y-121076519D01*
X129554447Y-121085142D01*
X129542031Y-121092583D01*
X129528946Y-121098772D01*
X129515317Y-121103649D01*
X129501276Y-121107166D01*
X129486958Y-121109290D01*
X129472500Y-121110000D01*
X129127500Y-121110000D01*
X129113042Y-121109290D01*
X129098724Y-121107166D01*
X129084683Y-121103649D01*
X129071054Y-121098772D01*
X129057969Y-121092583D01*
X129045553Y-121085142D01*
X129033927Y-121076519D01*
X129023202Y-121066798D01*
X129013481Y-121056073D01*
X129004858Y-121044447D01*
X128997417Y-121032031D01*
X128991228Y-121018946D01*
X128986351Y-121005317D01*
X128982834Y-120991276D01*
X128980710Y-120976958D01*
X128980000Y-120962500D01*
X128980000Y-120667500D01*
X128980710Y-120653042D01*
X128982834Y-120638724D01*
X128986351Y-120624683D01*
X128991228Y-120611054D01*
X128997417Y-120597969D01*
X129004858Y-120585553D01*
X129013481Y-120573927D01*
X129023202Y-120563202D01*
X129033927Y-120553481D01*
X129045553Y-120544858D01*
X129057969Y-120537417D01*
X129071054Y-120531228D01*
X129084683Y-120526351D01*
X129098724Y-120522834D01*
X129113042Y-120520710D01*
X129127500Y-120520000D01*
X129472500Y-120520000D01*
X129486958Y-120520710D01*
X129486958Y-120520710D01*
G37*
D13*
G04 #@! TD*
G04 #@! TO.P,D1,2*
G04 #@! TO.N,+3V3*
X129300000Y-120815000D03*
D12*
G04 #@! TO.N,GND*
G04 #@! TO.C,R4*
G36*
X129486958Y-123790710D02*
X129501276Y-123792834D01*
X129515317Y-123796351D01*
X129528946Y-123801228D01*
X129542031Y-123807417D01*
X129554447Y-123814858D01*
X129566073Y-123823481D01*
X129576798Y-123833202D01*
X129586519Y-123843927D01*
X129595142Y-123855553D01*
X129602583Y-123867969D01*
X129608772Y-123881054D01*
X129613649Y-123894683D01*
X129617166Y-123908724D01*
X129619290Y-123923042D01*
X129620000Y-123937500D01*
X129620000Y-124232500D01*
X129619290Y-124246958D01*
X129617166Y-124261276D01*
X129613649Y-124275317D01*
X129608772Y-124288946D01*
X129602583Y-124302031D01*
X129595142Y-124314447D01*
X129586519Y-124326073D01*
X129576798Y-124336798D01*
X129566073Y-124346519D01*
X129554447Y-124355142D01*
X129542031Y-124362583D01*
X129528946Y-124368772D01*
X129515317Y-124373649D01*
X129501276Y-124377166D01*
X129486958Y-124379290D01*
X129472500Y-124380000D01*
X129127500Y-124380000D01*
X129113042Y-124379290D01*
X129098724Y-124377166D01*
X129084683Y-124373649D01*
X129071054Y-124368772D01*
X129057969Y-124362583D01*
X129045553Y-124355142D01*
X129033927Y-124346519D01*
X129023202Y-124336798D01*
X129013481Y-124326073D01*
X129004858Y-124314447D01*
X128997417Y-124302031D01*
X128991228Y-124288946D01*
X128986351Y-124275317D01*
X128982834Y-124261276D01*
X128980710Y-124246958D01*
X128980000Y-124232500D01*
X128980000Y-123937500D01*
X128980710Y-123923042D01*
X128982834Y-123908724D01*
X128986351Y-123894683D01*
X128991228Y-123881054D01*
X128997417Y-123867969D01*
X129004858Y-123855553D01*
X129013481Y-123843927D01*
X129023202Y-123833202D01*
X129033927Y-123823481D01*
X129045553Y-123814858D01*
X129057969Y-123807417D01*
X129071054Y-123801228D01*
X129084683Y-123796351D01*
X129098724Y-123792834D01*
X129113042Y-123790710D01*
X129127500Y-123790000D01*
X129472500Y-123790000D01*
X129486958Y-123790710D01*
X129486958Y-123790710D01*
G37*
D13*
G04 #@! TD*
G04 #@! TO.P,R4,1*
G04 #@! TO.N,GND*
X129300000Y-124085000D03*
D12*
G04 #@! TO.N,Net-(D1-Pad1)*
G04 #@! TO.C,R4*
G36*
X129486958Y-122820710D02*
X129501276Y-122822834D01*
X129515317Y-122826351D01*
X129528946Y-122831228D01*
X129542031Y-122837417D01*
X129554447Y-122844858D01*
X129566073Y-122853481D01*
X129576798Y-122863202D01*
X129586519Y-122873927D01*
X129595142Y-122885553D01*
X129602583Y-122897969D01*
X129608772Y-122911054D01*
X129613649Y-122924683D01*
X129617166Y-122938724D01*
X129619290Y-122953042D01*
X129620000Y-122967500D01*
X129620000Y-123262500D01*
X129619290Y-123276958D01*
X129617166Y-123291276D01*
X129613649Y-123305317D01*
X129608772Y-123318946D01*
X129602583Y-123332031D01*
X129595142Y-123344447D01*
X129586519Y-123356073D01*
X129576798Y-123366798D01*
X129566073Y-123376519D01*
X129554447Y-123385142D01*
X129542031Y-123392583D01*
X129528946Y-123398772D01*
X129515317Y-123403649D01*
X129501276Y-123407166D01*
X129486958Y-123409290D01*
X129472500Y-123410000D01*
X129127500Y-123410000D01*
X129113042Y-123409290D01*
X129098724Y-123407166D01*
X129084683Y-123403649D01*
X129071054Y-123398772D01*
X129057969Y-123392583D01*
X129045553Y-123385142D01*
X129033927Y-123376519D01*
X129023202Y-123366798D01*
X129013481Y-123356073D01*
X129004858Y-123344447D01*
X128997417Y-123332031D01*
X128991228Y-123318946D01*
X128986351Y-123305317D01*
X128982834Y-123291276D01*
X128980710Y-123276958D01*
X128980000Y-123262500D01*
X128980000Y-122967500D01*
X128980710Y-122953042D01*
X128982834Y-122938724D01*
X128986351Y-122924683D01*
X128991228Y-122911054D01*
X128997417Y-122897969D01*
X129004858Y-122885553D01*
X129013481Y-122873927D01*
X129023202Y-122863202D01*
X129033927Y-122853481D01*
X129045553Y-122844858D01*
X129057969Y-122837417D01*
X129071054Y-122831228D01*
X129084683Y-122826351D01*
X129098724Y-122822834D01*
X129113042Y-122820710D01*
X129127500Y-122820000D01*
X129472500Y-122820000D01*
X129486958Y-122820710D01*
X129486958Y-122820710D01*
G37*
D13*
G04 #@! TD*
G04 #@! TO.P,R4,2*
G04 #@! TO.N,Net-(D1-Pad1)*
X129300000Y-123115000D03*
D12*
G04 #@! TO.N,+3V3*
G04 #@! TO.C,R5*
G36*
X112246958Y-134910710D02*
X112261276Y-134912834D01*
X112275317Y-134916351D01*
X112288946Y-134921228D01*
X112302031Y-134927417D01*
X112314447Y-134934858D01*
X112326073Y-134943481D01*
X112336798Y-134953202D01*
X112346519Y-134963927D01*
X112355142Y-134975553D01*
X112362583Y-134987969D01*
X112368772Y-135001054D01*
X112373649Y-135014683D01*
X112377166Y-135028724D01*
X112379290Y-135043042D01*
X112380000Y-135057500D01*
X112380000Y-135402500D01*
X112379290Y-135416958D01*
X112377166Y-135431276D01*
X112373649Y-135445317D01*
X112368772Y-135458946D01*
X112362583Y-135472031D01*
X112355142Y-135484447D01*
X112346519Y-135496073D01*
X112336798Y-135506798D01*
X112326073Y-135516519D01*
X112314447Y-135525142D01*
X112302031Y-135532583D01*
X112288946Y-135538772D01*
X112275317Y-135543649D01*
X112261276Y-135547166D01*
X112246958Y-135549290D01*
X112232500Y-135550000D01*
X111937500Y-135550000D01*
X111923042Y-135549290D01*
X111908724Y-135547166D01*
X111894683Y-135543649D01*
X111881054Y-135538772D01*
X111867969Y-135532583D01*
X111855553Y-135525142D01*
X111843927Y-135516519D01*
X111833202Y-135506798D01*
X111823481Y-135496073D01*
X111814858Y-135484447D01*
X111807417Y-135472031D01*
X111801228Y-135458946D01*
X111796351Y-135445317D01*
X111792834Y-135431276D01*
X111790710Y-135416958D01*
X111790000Y-135402500D01*
X111790000Y-135057500D01*
X111790710Y-135043042D01*
X111792834Y-135028724D01*
X111796351Y-135014683D01*
X111801228Y-135001054D01*
X111807417Y-134987969D01*
X111814858Y-134975553D01*
X111823481Y-134963927D01*
X111833202Y-134953202D01*
X111843927Y-134943481D01*
X111855553Y-134934858D01*
X111867969Y-134927417D01*
X111881054Y-134921228D01*
X111894683Y-134916351D01*
X111908724Y-134912834D01*
X111923042Y-134910710D01*
X111937500Y-134910000D01*
X112232500Y-134910000D01*
X112246958Y-134910710D01*
X112246958Y-134910710D01*
G37*
D13*
G04 #@! TD*
G04 #@! TO.P,R5,1*
G04 #@! TO.N,+3V3*
X112085000Y-135230000D03*
D12*
G04 #@! TO.N,Net-(R5-Pad2)*
G04 #@! TO.C,R5*
G36*
X113216958Y-134910710D02*
X113231276Y-134912834D01*
X113245317Y-134916351D01*
X113258946Y-134921228D01*
X113272031Y-134927417D01*
X113284447Y-134934858D01*
X113296073Y-134943481D01*
X113306798Y-134953202D01*
X113316519Y-134963927D01*
X113325142Y-134975553D01*
X113332583Y-134987969D01*
X113338772Y-135001054D01*
X113343649Y-135014683D01*
X113347166Y-135028724D01*
X113349290Y-135043042D01*
X113350000Y-135057500D01*
X113350000Y-135402500D01*
X113349290Y-135416958D01*
X113347166Y-135431276D01*
X113343649Y-135445317D01*
X113338772Y-135458946D01*
X113332583Y-135472031D01*
X113325142Y-135484447D01*
X113316519Y-135496073D01*
X113306798Y-135506798D01*
X113296073Y-135516519D01*
X113284447Y-135525142D01*
X113272031Y-135532583D01*
X113258946Y-135538772D01*
X113245317Y-135543649D01*
X113231276Y-135547166D01*
X113216958Y-135549290D01*
X113202500Y-135550000D01*
X112907500Y-135550000D01*
X112893042Y-135549290D01*
X112878724Y-135547166D01*
X112864683Y-135543649D01*
X112851054Y-135538772D01*
X112837969Y-135532583D01*
X112825553Y-135525142D01*
X112813927Y-135516519D01*
X112803202Y-135506798D01*
X112793481Y-135496073D01*
X112784858Y-135484447D01*
X112777417Y-135472031D01*
X112771228Y-135458946D01*
X112766351Y-135445317D01*
X112762834Y-135431276D01*
X112760710Y-135416958D01*
X112760000Y-135402500D01*
X112760000Y-135057500D01*
X112760710Y-135043042D01*
X112762834Y-135028724D01*
X112766351Y-135014683D01*
X112771228Y-135001054D01*
X112777417Y-134987969D01*
X112784858Y-134975553D01*
X112793481Y-134963927D01*
X112803202Y-134953202D01*
X112813927Y-134943481D01*
X112825553Y-134934858D01*
X112837969Y-134927417D01*
X112851054Y-134921228D01*
X112864683Y-134916351D01*
X112878724Y-134912834D01*
X112893042Y-134910710D01*
X112907500Y-134910000D01*
X113202500Y-134910000D01*
X113216958Y-134910710D01*
X113216958Y-134910710D01*
G37*
D13*
G04 #@! TD*
G04 #@! TO.P,R5,2*
G04 #@! TO.N,Net-(R5-Pad2)*
X113055000Y-135230000D03*
D12*
G04 #@! TO.N,GND*
G04 #@! TO.C,R6*
G36*
X112236958Y-133410710D02*
X112251276Y-133412834D01*
X112265317Y-133416351D01*
X112278946Y-133421228D01*
X112292031Y-133427417D01*
X112304447Y-133434858D01*
X112316073Y-133443481D01*
X112326798Y-133453202D01*
X112336519Y-133463927D01*
X112345142Y-133475553D01*
X112352583Y-133487969D01*
X112358772Y-133501054D01*
X112363649Y-133514683D01*
X112367166Y-133528724D01*
X112369290Y-133543042D01*
X112370000Y-133557500D01*
X112370000Y-133902500D01*
X112369290Y-133916958D01*
X112367166Y-133931276D01*
X112363649Y-133945317D01*
X112358772Y-133958946D01*
X112352583Y-133972031D01*
X112345142Y-133984447D01*
X112336519Y-133996073D01*
X112326798Y-134006798D01*
X112316073Y-134016519D01*
X112304447Y-134025142D01*
X112292031Y-134032583D01*
X112278946Y-134038772D01*
X112265317Y-134043649D01*
X112251276Y-134047166D01*
X112236958Y-134049290D01*
X112222500Y-134050000D01*
X111927500Y-134050000D01*
X111913042Y-134049290D01*
X111898724Y-134047166D01*
X111884683Y-134043649D01*
X111871054Y-134038772D01*
X111857969Y-134032583D01*
X111845553Y-134025142D01*
X111833927Y-134016519D01*
X111823202Y-134006798D01*
X111813481Y-133996073D01*
X111804858Y-133984447D01*
X111797417Y-133972031D01*
X111791228Y-133958946D01*
X111786351Y-133945317D01*
X111782834Y-133931276D01*
X111780710Y-133916958D01*
X111780000Y-133902500D01*
X111780000Y-133557500D01*
X111780710Y-133543042D01*
X111782834Y-133528724D01*
X111786351Y-133514683D01*
X111791228Y-133501054D01*
X111797417Y-133487969D01*
X111804858Y-133475553D01*
X111813481Y-133463927D01*
X111823202Y-133453202D01*
X111833927Y-133443481D01*
X111845553Y-133434858D01*
X111857969Y-133427417D01*
X111871054Y-133421228D01*
X111884683Y-133416351D01*
X111898724Y-133412834D01*
X111913042Y-133410710D01*
X111927500Y-133410000D01*
X112222500Y-133410000D01*
X112236958Y-133410710D01*
X112236958Y-133410710D01*
G37*
D13*
G04 #@! TD*
G04 #@! TO.P,R6,2*
G04 #@! TO.N,GND*
X112075000Y-133730000D03*
D12*
G04 #@! TO.N,Net-(R6-Pad1)*
G04 #@! TO.C,R6*
G36*
X113206958Y-133410710D02*
X113221276Y-133412834D01*
X113235317Y-133416351D01*
X113248946Y-133421228D01*
X113262031Y-133427417D01*
X113274447Y-133434858D01*
X113286073Y-133443481D01*
X113296798Y-133453202D01*
X113306519Y-133463927D01*
X113315142Y-133475553D01*
X113322583Y-133487969D01*
X113328772Y-133501054D01*
X113333649Y-133514683D01*
X113337166Y-133528724D01*
X113339290Y-133543042D01*
X113340000Y-133557500D01*
X113340000Y-133902500D01*
X113339290Y-133916958D01*
X113337166Y-133931276D01*
X113333649Y-133945317D01*
X113328772Y-133958946D01*
X113322583Y-133972031D01*
X113315142Y-133984447D01*
X113306519Y-133996073D01*
X113296798Y-134006798D01*
X113286073Y-134016519D01*
X113274447Y-134025142D01*
X113262031Y-134032583D01*
X113248946Y-134038772D01*
X113235317Y-134043649D01*
X113221276Y-134047166D01*
X113206958Y-134049290D01*
X113192500Y-134050000D01*
X112897500Y-134050000D01*
X112883042Y-134049290D01*
X112868724Y-134047166D01*
X112854683Y-134043649D01*
X112841054Y-134038772D01*
X112827969Y-134032583D01*
X112815553Y-134025142D01*
X112803927Y-134016519D01*
X112793202Y-134006798D01*
X112783481Y-133996073D01*
X112774858Y-133984447D01*
X112767417Y-133972031D01*
X112761228Y-133958946D01*
X112756351Y-133945317D01*
X112752834Y-133931276D01*
X112750710Y-133916958D01*
X112750000Y-133902500D01*
X112750000Y-133557500D01*
X112750710Y-133543042D01*
X112752834Y-133528724D01*
X112756351Y-133514683D01*
X112761228Y-133501054D01*
X112767417Y-133487969D01*
X112774858Y-133475553D01*
X112783481Y-133463927D01*
X112793202Y-133453202D01*
X112803927Y-133443481D01*
X112815553Y-133434858D01*
X112827969Y-133427417D01*
X112841054Y-133421228D01*
X112854683Y-133416351D01*
X112868724Y-133412834D01*
X112883042Y-133410710D01*
X112897500Y-133410000D01*
X113192500Y-133410000D01*
X113206958Y-133410710D01*
X113206958Y-133410710D01*
G37*
D13*
G04 #@! TD*
G04 #@! TO.P,R6,1*
G04 #@! TO.N,Net-(R6-Pad1)*
X113045000Y-133730000D03*
D20*
G04 #@! TO.P,SW1,1*
G04 #@! TO.N,GND*
X109035000Y-128240000D03*
X109035000Y-132740000D03*
G04 #@! TO.P,SW1,2*
G04 #@! TO.N,Net-(SW1-Pad2)*
X106885000Y-132740000D03*
X106885000Y-128240000D03*
G04 #@! TD*
D21*
G04 #@! TO.N,GND*
X115900000Y-126200000D03*
X119300000Y-125200000D03*
X128300000Y-124100000D03*
X111300000Y-131990000D03*
X111280000Y-130370000D03*
X111300000Y-133850000D03*
G04 #@! TO.N,MOTOR_SENSE*
X131700000Y-139400000D03*
G04 #@! TO.N,MOTOR*
X131900000Y-133800000D03*
G04 #@! TO.N,Net-(SW2-Pad2)*
X119900000Y-132500000D03*
X115430000Y-122640000D03*
G04 #@! TO.N,+3V3*
X110700000Y-129500000D03*
X111130000Y-135150000D03*
G04 #@! TO.N,Net-(J4-Pad4)*
X109470000Y-134190000D03*
G04 #@! TO.N,E1*
X110060000Y-130930000D03*
G04 #@! TO.N,E0*
X107470000Y-130250000D03*
G04 #@! TD*
D22*
G04 #@! TO.N,GND*
X113000000Y-124385000D02*
X113900000Y-125285000D01*
X113000000Y-123120200D02*
X113000000Y-124385000D01*
X113245200Y-122875000D02*
X113000000Y-123120200D01*
X114050000Y-122875000D02*
X113245200Y-122875000D01*
X132125000Y-123975000D02*
X132200000Y-123900000D01*
X130960000Y-123975000D02*
X132125000Y-123975000D01*
X130960000Y-122705000D02*
X130960000Y-123975000D01*
X108600000Y-138400000D02*
X108500000Y-138500000D01*
X118700000Y-122875000D02*
X119300000Y-123475000D01*
X118550000Y-122875000D02*
X118700000Y-122875000D01*
X119300000Y-123475000D02*
X119300000Y-125200000D01*
X119215000Y-125285000D02*
X118400000Y-125285000D01*
X119300000Y-125200000D02*
X119215000Y-125285000D01*
X115400000Y-125285000D02*
X115400000Y-125700000D01*
X115400000Y-125700000D02*
X115900000Y-126200000D01*
X129300000Y-124085000D02*
X128315000Y-124085000D01*
X128315000Y-124085000D02*
X128300000Y-124100000D01*
X112055000Y-132120000D02*
X111430000Y-132120000D01*
X111430000Y-132120000D02*
X111300000Y-131990000D01*
X112065000Y-130590000D02*
X111500000Y-130590000D01*
X111500000Y-130590000D02*
X111280000Y-130370000D01*
X111955000Y-133850000D02*
X112075000Y-133730000D01*
X111300000Y-133850000D02*
X111955000Y-133850000D01*
X110190000Y-132740000D02*
X111300000Y-133850000D01*
X109035000Y-132740000D02*
X110190000Y-132740000D01*
D23*
G04 #@! TO.N,TXD*
X134087400Y-136610000D02*
X133192500Y-136610000D01*
X136480000Y-134217400D02*
X134087400Y-136610000D01*
X136480000Y-131385000D02*
X136480000Y-134217400D01*
G04 #@! TO.N,RXD*
X134087400Y-138110000D02*
X133192500Y-138110000D01*
X138120001Y-134077399D02*
X134087400Y-138110000D01*
X138120001Y-133554999D02*
X138120001Y-134077399D01*
X139020000Y-132655000D02*
X138120001Y-133554999D01*
G04 #@! TO.N,Net-(C1-Pad2)*
X118670000Y-124315000D02*
X118685000Y-124300000D01*
X118350000Y-124315000D02*
X118670000Y-124315000D01*
X116302400Y-129110000D02*
X115407500Y-129110000D01*
X116900000Y-128512400D02*
X116302400Y-129110000D01*
X116900000Y-125285000D02*
X116900000Y-128512400D01*
X116900000Y-125285000D02*
X117315000Y-125285000D01*
X117680000Y-124920000D02*
X117680000Y-124400000D01*
X117315000Y-125285000D02*
X117680000Y-124920000D01*
X117795000Y-124315000D02*
X118400000Y-124315000D01*
X117690000Y-124420000D02*
X117795000Y-124315000D01*
G04 #@! TO.N,MOTOR_SENSE*
X131910000Y-139610000D02*
X132297600Y-139610000D01*
X132297600Y-139610000D02*
X133192500Y-139610000D01*
X131700000Y-139400000D02*
X131910000Y-139610000D01*
G04 #@! TO.N,MOTOR*
X133002500Y-133800000D02*
X133192500Y-133610000D01*
X131900000Y-133800000D02*
X133002500Y-133800000D01*
G04 #@! TO.N,Net-(SW2-Pad2)*
X118550000Y-120725000D02*
X114050000Y-120725000D01*
X119900000Y-134512400D02*
X119900000Y-132500000D01*
X115407500Y-138110000D02*
X116302400Y-138110000D01*
X116302400Y-138110000D02*
X119900000Y-134512400D01*
X114050000Y-121260000D02*
X114050000Y-120725000D01*
X115430000Y-122640000D02*
X114050000Y-121260000D01*
D24*
G04 #@! TO.N,+3V3*
X116850000Y-124315000D02*
X117170000Y-124315000D01*
D22*
X116850000Y-124315000D02*
X113650000Y-124315000D01*
X131935000Y-121735000D02*
X132200000Y-122000000D01*
X130960000Y-121735000D02*
X131935000Y-121735000D01*
X132200000Y-122000000D02*
X132200000Y-122950000D01*
X115400000Y-124020000D02*
X115400000Y-124315000D01*
X120851159Y-120625199D02*
X119540149Y-121936209D01*
X129245199Y-120625199D02*
X120851159Y-120625199D01*
X117483791Y-121936209D02*
X115400000Y-124020000D01*
X119540149Y-121936209D02*
X117483791Y-121936209D01*
X114650000Y-124745000D02*
X114650000Y-126150000D01*
X114220000Y-124315000D02*
X114650000Y-124745000D01*
X113900000Y-124315000D02*
X114220000Y-124315000D01*
X114702300Y-126150000D02*
X115407500Y-126855200D01*
X115407500Y-126855200D02*
X115407500Y-127610000D01*
X114650000Y-126150000D02*
X114702300Y-126150000D01*
X114360200Y-127610000D02*
X113600000Y-128370200D01*
X115407500Y-127610000D02*
X114360200Y-127610000D01*
X113600000Y-128370200D02*
X113600000Y-128900000D01*
X113600000Y-128900000D02*
X113000000Y-129500000D01*
X113000000Y-129500000D02*
X110700000Y-129500000D01*
X130960000Y-121735000D02*
X130960000Y-121160000D01*
X130615000Y-120815000D02*
X129300000Y-120815000D01*
X130960000Y-121160000D02*
X130615000Y-120815000D01*
X111735000Y-135150000D02*
X112125000Y-135540000D01*
X111130000Y-135150000D02*
X111735000Y-135150000D01*
X112085000Y-135230000D02*
X112085000Y-135715000D01*
X112085000Y-135715000D02*
X112460000Y-136090000D01*
X112460000Y-136090000D02*
X112860000Y-136090000D01*
X113055000Y-136285000D02*
X113055000Y-136860000D01*
X112860000Y-136090000D02*
X113055000Y-136285000D01*
G04 #@! TO.N,+5V*
X130960000Y-124945000D02*
X135455000Y-124945000D01*
X135455000Y-124945000D02*
X135900000Y-124500000D01*
X135900000Y-123420000D02*
X134880000Y-122400000D01*
X135900000Y-124500000D02*
X135900000Y-123420000D01*
X134880000Y-122000000D02*
X134880000Y-122400000D01*
X134880000Y-122400000D02*
X134880000Y-122950000D01*
X139020000Y-128842208D02*
X139020000Y-130115000D01*
X139385651Y-128476557D02*
X139020000Y-128842208D01*
X139385651Y-126914287D02*
X139385651Y-128476557D01*
X135900000Y-124500000D02*
X137654801Y-126254801D01*
X125110000Y-124945000D02*
X124535000Y-124370000D01*
X130960000Y-124945000D02*
X125110000Y-124945000D01*
X138724801Y-126254801D02*
X139380000Y-126910000D01*
X138726165Y-126254801D02*
X139380000Y-126910000D01*
X137654801Y-126254801D02*
X138724801Y-126254801D01*
X139380000Y-126910000D02*
X139385651Y-126914287D01*
D23*
G04 #@! TO.N,Net-(J4-Pad4)*
X109470000Y-134545000D02*
X109470000Y-134190000D01*
X111750832Y-136525832D02*
X111450832Y-136525832D01*
X111450832Y-136525832D02*
X109470000Y-134545000D01*
X112085000Y-136860000D02*
X111750832Y-136525832D01*
G04 #@! TO.N,E1*
X113420000Y-132120000D02*
X113025000Y-132120000D01*
X113625000Y-132120000D02*
X113420000Y-132120000D01*
X115115000Y-133610000D02*
X113625000Y-132120000D01*
X115407500Y-133610000D02*
X115115000Y-133610000D01*
X112235000Y-132910000D02*
X113025000Y-132120000D01*
X110060000Y-130930000D02*
X110210499Y-131080499D01*
X110990000Y-132910000D02*
X112235000Y-132910000D01*
X110510000Y-132430000D02*
X110990000Y-132910000D01*
X110210499Y-131080499D02*
X110210499Y-131100499D01*
X110210499Y-131100499D02*
X110510000Y-131400000D01*
X110510000Y-131400000D02*
X110510000Y-132430000D01*
G04 #@! TO.N,E0*
X107470000Y-130250000D02*
X110130000Y-130250000D01*
X110130000Y-130250000D02*
X111240000Y-131360000D01*
X111240000Y-131360000D02*
X112265000Y-131360000D01*
X113015000Y-130610000D02*
X115407500Y-130610000D01*
X112265000Y-131360000D02*
X113015000Y-130610000D01*
G04 #@! TO.N,Net-(D1-Pad1)*
X129300000Y-121785000D02*
X129300000Y-123115000D01*
G04 #@! TO.N,Net-(R5-Pad2)*
X114165000Y-136610000D02*
X115407500Y-136610000D01*
X113095000Y-135540000D02*
X114165000Y-136610000D01*
G04 #@! TO.N,Net-(R6-Pad1)*
X114105000Y-135110000D02*
X115407500Y-135110000D01*
X113045000Y-134050000D02*
X114105000Y-135110000D01*
X113045000Y-133730000D02*
X113045000Y-134050000D01*
G04 #@! TO.N,Net-(SW1-Pad2)*
X106885000Y-128892400D02*
X106885000Y-132740000D01*
X106885000Y-128240000D02*
X106885000Y-128892400D01*
X106885000Y-132890000D02*
X113550000Y-139555000D01*
X106885000Y-132740000D02*
X106885000Y-132890000D01*
X113550000Y-139555000D02*
X113550000Y-140110000D01*
X113550000Y-140110000D02*
X114050000Y-140610000D01*
X124400000Y-140610000D02*
X132900000Y-132110000D01*
X132900000Y-132110000D02*
X133192500Y-132110000D01*
X114050000Y-140610000D02*
X124400000Y-140610000D01*
G04 #@! TD*
D25*
G04 #@! TO.N,GND*
G36*
X119810432Y-123744189D02*
X120319496Y-123955050D01*
X120447560Y-123955050D01*
X120447560Y-125270000D01*
X120496843Y-125517765D01*
X120637191Y-125727809D01*
X120847235Y-125868157D01*
X121095000Y-125917440D01*
X122895000Y-125917440D01*
X123142765Y-125868157D01*
X123352809Y-125727809D01*
X123493157Y-125517765D01*
X123496275Y-125502092D01*
X123665493Y-125671310D01*
X124229670Y-125905000D01*
X124840330Y-125905000D01*
X125257023Y-125732400D01*
X130341818Y-125732400D01*
X130483290Y-125826929D01*
X130787500Y-125887440D01*
X131132500Y-125887440D01*
X131436710Y-125826929D01*
X131578182Y-125732400D01*
X135377449Y-125732400D01*
X135455000Y-125747826D01*
X135532551Y-125732400D01*
X135532552Y-125732400D01*
X135762228Y-125686715D01*
X135888675Y-125602226D01*
X137043187Y-126756739D01*
X137057220Y-126777741D01*
X136894950Y-127169496D01*
X136894950Y-127310000D01*
X136765750Y-127310000D01*
X136607000Y-127468750D01*
X136607000Y-128718000D01*
X137733983Y-128718000D01*
X138004496Y-128830050D01*
X138134133Y-128830050D01*
X137924217Y-129039967D01*
X137856250Y-128972000D01*
X136607000Y-128972000D01*
X136607000Y-128992000D01*
X136353000Y-128992000D01*
X136353000Y-128972000D01*
X135103750Y-128972000D01*
X134945000Y-129130750D01*
X134945000Y-129871310D01*
X135041673Y-130104699D01*
X135220302Y-130283327D01*
X135355044Y-130339139D01*
X135178690Y-130515493D01*
X134945000Y-131079670D01*
X134945000Y-131690330D01*
X135178690Y-132254507D01*
X135610493Y-132686310D01*
X135768800Y-132751883D01*
X135768801Y-133922810D01*
X134432931Y-135258681D01*
X134411250Y-135237000D01*
X133319500Y-135237000D01*
X133319500Y-135257000D01*
X133065500Y-135257000D01*
X133065500Y-135237000D01*
X131973750Y-135237000D01*
X131815000Y-135395750D01*
X131815000Y-135686310D01*
X131886869Y-135859816D01*
X131851843Y-135912235D01*
X131802560Y-136160000D01*
X131802560Y-137060000D01*
X131851843Y-137307765D01*
X131886746Y-137360000D01*
X131851843Y-137412235D01*
X131802560Y-137660000D01*
X131802560Y-138560000D01*
X131813401Y-138614500D01*
X131543754Y-138614500D01*
X131255050Y-138734085D01*
X131034085Y-138955050D01*
X130914500Y-139243754D01*
X130914500Y-139556246D01*
X131034085Y-139844950D01*
X131255050Y-140065915D01*
X131405412Y-140128197D01*
X131632504Y-140279936D01*
X131683100Y-140290000D01*
X125725788Y-140290000D01*
X131522101Y-134493688D01*
X131743754Y-134585500D01*
X131815000Y-134585500D01*
X131815000Y-134824250D01*
X131973750Y-134983000D01*
X133065500Y-134983000D01*
X133065500Y-134963000D01*
X133319500Y-134963000D01*
X133319500Y-134983000D01*
X134411250Y-134983000D01*
X134570000Y-134824250D01*
X134570000Y-134533690D01*
X134498131Y-134360184D01*
X134533157Y-134307765D01*
X134582440Y-134060000D01*
X134582440Y-133160000D01*
X134533157Y-132912235D01*
X134498254Y-132860000D01*
X134533157Y-132807765D01*
X134582440Y-132560000D01*
X134582440Y-131660000D01*
X134533157Y-131412235D01*
X134498254Y-131360000D01*
X134533157Y-131307765D01*
X134582440Y-131060000D01*
X134582440Y-130160000D01*
X134533157Y-129912235D01*
X134498254Y-129860000D01*
X134533157Y-129807765D01*
X134582440Y-129560000D01*
X134582440Y-128660000D01*
X134533157Y-128412235D01*
X134498131Y-128359816D01*
X134570000Y-128186310D01*
X134570000Y-127895750D01*
X134492940Y-127818690D01*
X134945000Y-127818690D01*
X134945000Y-128559250D01*
X135103750Y-128718000D01*
X136353000Y-128718000D01*
X136353000Y-127468750D01*
X136194250Y-127310000D01*
X135453691Y-127310000D01*
X135220302Y-127406673D01*
X135041673Y-127585301D01*
X134945000Y-127818690D01*
X134492940Y-127818690D01*
X134411250Y-127737000D01*
X133319500Y-127737000D01*
X133319500Y-127757000D01*
X133065500Y-127757000D01*
X133065500Y-127737000D01*
X131973750Y-127737000D01*
X131815000Y-127895750D01*
X131815000Y-128186310D01*
X131886869Y-128359816D01*
X131851843Y-128412235D01*
X131802560Y-128660000D01*
X131802560Y-129560000D01*
X131851843Y-129807765D01*
X131886746Y-129860000D01*
X131851843Y-129912235D01*
X131802560Y-130160000D01*
X131802560Y-131060000D01*
X131851843Y-131307765D01*
X131886746Y-131360000D01*
X131851843Y-131412235D01*
X131802560Y-131660000D01*
X131802560Y-132201651D01*
X128047440Y-135956772D01*
X128047440Y-132210000D01*
X127998157Y-131962235D01*
X127857809Y-131752191D01*
X127647765Y-131611843D01*
X127400000Y-131562560D01*
X123400000Y-131562560D01*
X123152235Y-131611843D01*
X122942191Y-131752191D01*
X122801843Y-131962235D01*
X122752560Y-132210000D01*
X122752560Y-136210000D01*
X122801843Y-136457765D01*
X122942191Y-136667809D01*
X123152235Y-136808157D01*
X123400000Y-136857440D01*
X127146772Y-136857440D01*
X124105412Y-139898800D01*
X116785000Y-139898800D01*
X116785000Y-139895750D01*
X116626250Y-139737000D01*
X115534500Y-139737000D01*
X115534500Y-139757000D01*
X115280500Y-139757000D01*
X115280500Y-139737000D01*
X115260500Y-139737000D01*
X115260500Y-139483000D01*
X115280500Y-139483000D01*
X115280500Y-139463000D01*
X115534500Y-139463000D01*
X115534500Y-139483000D01*
X116626250Y-139483000D01*
X116785000Y-139324250D01*
X116785000Y-139033690D01*
X116713131Y-138860184D01*
X116748157Y-138807765D01*
X116780332Y-138646008D01*
X116815146Y-138622746D01*
X116854824Y-138563364D01*
X120353369Y-135064820D01*
X120412745Y-135025146D01*
X120452420Y-134965769D01*
X120452424Y-134965765D01*
X120569935Y-134789897D01*
X120569936Y-134789896D01*
X120611200Y-134582446D01*
X120611200Y-134582442D01*
X120625132Y-134512400D01*
X120611200Y-134442358D01*
X120611200Y-132835622D01*
X120685500Y-132656246D01*
X120685500Y-132343754D01*
X120565915Y-132055050D01*
X120344950Y-131834085D01*
X120056246Y-131714500D01*
X119743754Y-131714500D01*
X119455050Y-131834085D01*
X119234085Y-132055050D01*
X119114500Y-132343754D01*
X119114500Y-132656246D01*
X119188801Y-132835624D01*
X119188800Y-134217811D01*
X116797440Y-136609172D01*
X116797440Y-136160000D01*
X116748157Y-135912235D01*
X116713254Y-135860000D01*
X116748157Y-135807765D01*
X116797440Y-135560000D01*
X116797440Y-134660000D01*
X116748157Y-134412235D01*
X116713254Y-134360000D01*
X116748157Y-134307765D01*
X116797440Y-134060000D01*
X116797440Y-133160000D01*
X116748157Y-132912235D01*
X116713254Y-132860000D01*
X116748157Y-132807765D01*
X116797440Y-132560000D01*
X116797440Y-131660000D01*
X116748157Y-131412235D01*
X116713254Y-131360000D01*
X116748157Y-131307765D01*
X116797440Y-131060000D01*
X116797440Y-130160000D01*
X116748157Y-129912235D01*
X116713254Y-129860000D01*
X116748157Y-129807765D01*
X116780332Y-129646008D01*
X116815146Y-129622746D01*
X116854824Y-129563364D01*
X117353366Y-129064822D01*
X117412746Y-129025146D01*
X117452422Y-128965767D01*
X117452424Y-128965765D01*
X117569935Y-128789898D01*
X117569935Y-128789897D01*
X117569936Y-128789896D01*
X117611200Y-128582446D01*
X117611200Y-128582443D01*
X117625132Y-128512401D01*
X117611200Y-128442359D01*
X117611200Y-127033690D01*
X131815000Y-127033690D01*
X131815000Y-127324250D01*
X131973750Y-127483000D01*
X133065500Y-127483000D01*
X133065500Y-126683750D01*
X133319500Y-126683750D01*
X133319500Y-127483000D01*
X134411250Y-127483000D01*
X134570000Y-127324250D01*
X134570000Y-127033690D01*
X134473327Y-126800301D01*
X134294698Y-126621673D01*
X134061309Y-126525000D01*
X133478250Y-126525000D01*
X133319500Y-126683750D01*
X133065500Y-126683750D01*
X132906750Y-126525000D01*
X132323691Y-126525000D01*
X132090302Y-126621673D01*
X131911673Y-126800301D01*
X131815000Y-127033690D01*
X117611200Y-127033690D01*
X117611200Y-126010247D01*
X117611812Y-126009838D01*
X117720301Y-126118327D01*
X117953690Y-126215000D01*
X118114250Y-126215000D01*
X118273000Y-126056250D01*
X118273000Y-125412000D01*
X118527000Y-125412000D01*
X118527000Y-126056250D01*
X118685750Y-126215000D01*
X118846310Y-126215000D01*
X119079699Y-126118327D01*
X119258327Y-125939698D01*
X119355000Y-125706309D01*
X119355000Y-125570750D01*
X119196250Y-125412000D01*
X118527000Y-125412000D01*
X118273000Y-125412000D01*
X118253000Y-125412000D01*
X118253000Y-125342570D01*
X118309882Y-125257440D01*
X118572500Y-125257440D01*
X118876710Y-125196929D01*
X118934971Y-125158000D01*
X119196250Y-125158000D01*
X119355000Y-124999250D01*
X119355000Y-124863691D01*
X119309492Y-124753825D01*
X119340170Y-124599594D01*
X119354935Y-124577497D01*
X119410132Y-124300001D01*
X119354935Y-124022504D01*
X119331674Y-123987691D01*
X119306929Y-123863290D01*
X119276892Y-123818337D01*
X119409698Y-123763327D01*
X119588327Y-123584699D01*
X119606667Y-123540424D01*
X119810432Y-123744189D01*
X119810432Y-123744189D01*
G37*
X119810432Y-123744189D02*
X120319496Y-123955050D01*
X120447560Y-123955050D01*
X120447560Y-125270000D01*
X120496843Y-125517765D01*
X120637191Y-125727809D01*
X120847235Y-125868157D01*
X121095000Y-125917440D01*
X122895000Y-125917440D01*
X123142765Y-125868157D01*
X123352809Y-125727809D01*
X123493157Y-125517765D01*
X123496275Y-125502092D01*
X123665493Y-125671310D01*
X124229670Y-125905000D01*
X124840330Y-125905000D01*
X125257023Y-125732400D01*
X130341818Y-125732400D01*
X130483290Y-125826929D01*
X130787500Y-125887440D01*
X131132500Y-125887440D01*
X131436710Y-125826929D01*
X131578182Y-125732400D01*
X135377449Y-125732400D01*
X135455000Y-125747826D01*
X135532551Y-125732400D01*
X135532552Y-125732400D01*
X135762228Y-125686715D01*
X135888675Y-125602226D01*
X137043187Y-126756739D01*
X137057220Y-126777741D01*
X136894950Y-127169496D01*
X136894950Y-127310000D01*
X136765750Y-127310000D01*
X136607000Y-127468750D01*
X136607000Y-128718000D01*
X137733983Y-128718000D01*
X138004496Y-128830050D01*
X138134133Y-128830050D01*
X137924217Y-129039967D01*
X137856250Y-128972000D01*
X136607000Y-128972000D01*
X136607000Y-128992000D01*
X136353000Y-128992000D01*
X136353000Y-128972000D01*
X135103750Y-128972000D01*
X134945000Y-129130750D01*
X134945000Y-129871310D01*
X135041673Y-130104699D01*
X135220302Y-130283327D01*
X135355044Y-130339139D01*
X135178690Y-130515493D01*
X134945000Y-131079670D01*
X134945000Y-131690330D01*
X135178690Y-132254507D01*
X135610493Y-132686310D01*
X135768800Y-132751883D01*
X135768801Y-133922810D01*
X134432931Y-135258681D01*
X134411250Y-135237000D01*
X133319500Y-135237000D01*
X133319500Y-135257000D01*
X133065500Y-135257000D01*
X133065500Y-135237000D01*
X131973750Y-135237000D01*
X131815000Y-135395750D01*
X131815000Y-135686310D01*
X131886869Y-135859816D01*
X131851843Y-135912235D01*
X131802560Y-136160000D01*
X131802560Y-137060000D01*
X131851843Y-137307765D01*
X131886746Y-137360000D01*
X131851843Y-137412235D01*
X131802560Y-137660000D01*
X131802560Y-138560000D01*
X131813401Y-138614500D01*
X131543754Y-138614500D01*
X131255050Y-138734085D01*
X131034085Y-138955050D01*
X130914500Y-139243754D01*
X130914500Y-139556246D01*
X131034085Y-139844950D01*
X131255050Y-140065915D01*
X131405412Y-140128197D01*
X131632504Y-140279936D01*
X131683100Y-140290000D01*
X125725788Y-140290000D01*
X131522101Y-134493688D01*
X131743754Y-134585500D01*
X131815000Y-134585500D01*
X131815000Y-134824250D01*
X131973750Y-134983000D01*
X133065500Y-134983000D01*
X133065500Y-134963000D01*
X133319500Y-134963000D01*
X133319500Y-134983000D01*
X134411250Y-134983000D01*
X134570000Y-134824250D01*
X134570000Y-134533690D01*
X134498131Y-134360184D01*
X134533157Y-134307765D01*
X134582440Y-134060000D01*
X134582440Y-133160000D01*
X134533157Y-132912235D01*
X134498254Y-132860000D01*
X134533157Y-132807765D01*
X134582440Y-132560000D01*
X134582440Y-131660000D01*
X134533157Y-131412235D01*
X134498254Y-131360000D01*
X134533157Y-131307765D01*
X134582440Y-131060000D01*
X134582440Y-130160000D01*
X134533157Y-129912235D01*
X134498254Y-129860000D01*
X134533157Y-129807765D01*
X134582440Y-129560000D01*
X134582440Y-128660000D01*
X134533157Y-128412235D01*
X134498131Y-128359816D01*
X134570000Y-128186310D01*
X134570000Y-127895750D01*
X134492940Y-127818690D01*
X134945000Y-127818690D01*
X134945000Y-128559250D01*
X135103750Y-128718000D01*
X136353000Y-128718000D01*
X136353000Y-127468750D01*
X136194250Y-127310000D01*
X135453691Y-127310000D01*
X135220302Y-127406673D01*
X135041673Y-127585301D01*
X134945000Y-127818690D01*
X134492940Y-127818690D01*
X134411250Y-127737000D01*
X133319500Y-127737000D01*
X133319500Y-127757000D01*
X133065500Y-127757000D01*
X133065500Y-127737000D01*
X131973750Y-127737000D01*
X131815000Y-127895750D01*
X131815000Y-128186310D01*
X131886869Y-128359816D01*
X131851843Y-128412235D01*
X131802560Y-128660000D01*
X131802560Y-129560000D01*
X131851843Y-129807765D01*
X131886746Y-129860000D01*
X131851843Y-129912235D01*
X131802560Y-130160000D01*
X131802560Y-131060000D01*
X131851843Y-131307765D01*
X131886746Y-131360000D01*
X131851843Y-131412235D01*
X131802560Y-131660000D01*
X131802560Y-132201651D01*
X128047440Y-135956772D01*
X128047440Y-132210000D01*
X127998157Y-131962235D01*
X127857809Y-131752191D01*
X127647765Y-131611843D01*
X127400000Y-131562560D01*
X123400000Y-131562560D01*
X123152235Y-131611843D01*
X122942191Y-131752191D01*
X122801843Y-131962235D01*
X122752560Y-132210000D01*
X122752560Y-136210000D01*
X122801843Y-136457765D01*
X122942191Y-136667809D01*
X123152235Y-136808157D01*
X123400000Y-136857440D01*
X127146772Y-136857440D01*
X124105412Y-139898800D01*
X116785000Y-139898800D01*
X116785000Y-139895750D01*
X116626250Y-139737000D01*
X115534500Y-139737000D01*
X115534500Y-139757000D01*
X115280500Y-139757000D01*
X115280500Y-139737000D01*
X115260500Y-139737000D01*
X115260500Y-139483000D01*
X115280500Y-139483000D01*
X115280500Y-139463000D01*
X115534500Y-139463000D01*
X115534500Y-139483000D01*
X116626250Y-139483000D01*
X116785000Y-139324250D01*
X116785000Y-139033690D01*
X116713131Y-138860184D01*
X116748157Y-138807765D01*
X116780332Y-138646008D01*
X116815146Y-138622746D01*
X116854824Y-138563364D01*
X120353369Y-135064820D01*
X120412745Y-135025146D01*
X120452420Y-134965769D01*
X120452424Y-134965765D01*
X120569935Y-134789897D01*
X120569936Y-134789896D01*
X120611200Y-134582446D01*
X120611200Y-134582442D01*
X120625132Y-134512400D01*
X120611200Y-134442358D01*
X120611200Y-132835622D01*
X120685500Y-132656246D01*
X120685500Y-132343754D01*
X120565915Y-132055050D01*
X120344950Y-131834085D01*
X120056246Y-131714500D01*
X119743754Y-131714500D01*
X119455050Y-131834085D01*
X119234085Y-132055050D01*
X119114500Y-132343754D01*
X119114500Y-132656246D01*
X119188801Y-132835624D01*
X119188800Y-134217811D01*
X116797440Y-136609172D01*
X116797440Y-136160000D01*
X116748157Y-135912235D01*
X116713254Y-135860000D01*
X116748157Y-135807765D01*
X116797440Y-135560000D01*
X116797440Y-134660000D01*
X116748157Y-134412235D01*
X116713254Y-134360000D01*
X116748157Y-134307765D01*
X116797440Y-134060000D01*
X116797440Y-133160000D01*
X116748157Y-132912235D01*
X116713254Y-132860000D01*
X116748157Y-132807765D01*
X116797440Y-132560000D01*
X116797440Y-131660000D01*
X116748157Y-131412235D01*
X116713254Y-131360000D01*
X116748157Y-131307765D01*
X116797440Y-131060000D01*
X116797440Y-130160000D01*
X116748157Y-129912235D01*
X116713254Y-129860000D01*
X116748157Y-129807765D01*
X116780332Y-129646008D01*
X116815146Y-129622746D01*
X116854824Y-129563364D01*
X117353366Y-129064822D01*
X117412746Y-129025146D01*
X117452422Y-128965767D01*
X117452424Y-128965765D01*
X117569935Y-128789898D01*
X117569935Y-128789897D01*
X117569936Y-128789896D01*
X117611200Y-128582446D01*
X117611200Y-128582443D01*
X117625132Y-128512401D01*
X117611200Y-128442359D01*
X117611200Y-127033690D01*
X131815000Y-127033690D01*
X131815000Y-127324250D01*
X131973750Y-127483000D01*
X133065500Y-127483000D01*
X133065500Y-126683750D01*
X133319500Y-126683750D01*
X133319500Y-127483000D01*
X134411250Y-127483000D01*
X134570000Y-127324250D01*
X134570000Y-127033690D01*
X134473327Y-126800301D01*
X134294698Y-126621673D01*
X134061309Y-126525000D01*
X133478250Y-126525000D01*
X133319500Y-126683750D01*
X133065500Y-126683750D01*
X132906750Y-126525000D01*
X132323691Y-126525000D01*
X132090302Y-126621673D01*
X131911673Y-126800301D01*
X131815000Y-127033690D01*
X117611200Y-127033690D01*
X117611200Y-126010247D01*
X117611812Y-126009838D01*
X117720301Y-126118327D01*
X117953690Y-126215000D01*
X118114250Y-126215000D01*
X118273000Y-126056250D01*
X118273000Y-125412000D01*
X118527000Y-125412000D01*
X118527000Y-126056250D01*
X118685750Y-126215000D01*
X118846310Y-126215000D01*
X119079699Y-126118327D01*
X119258327Y-125939698D01*
X119355000Y-125706309D01*
X119355000Y-125570750D01*
X119196250Y-125412000D01*
X118527000Y-125412000D01*
X118273000Y-125412000D01*
X118253000Y-125412000D01*
X118253000Y-125342570D01*
X118309882Y-125257440D01*
X118572500Y-125257440D01*
X118876710Y-125196929D01*
X118934971Y-125158000D01*
X119196250Y-125158000D01*
X119355000Y-124999250D01*
X119355000Y-124863691D01*
X119309492Y-124753825D01*
X119340170Y-124599594D01*
X119354935Y-124577497D01*
X119410132Y-124300001D01*
X119354935Y-124022504D01*
X119331674Y-123987691D01*
X119306929Y-123863290D01*
X119276892Y-123818337D01*
X119409698Y-123763327D01*
X119588327Y-123584699D01*
X119606667Y-123540424D01*
X119810432Y-123744189D01*
G36*
X108693748Y-138485858D02*
X108679605Y-138500000D01*
X108693748Y-138514143D01*
X108514143Y-138693748D01*
X108500000Y-138679605D01*
X108485858Y-138693748D01*
X108306253Y-138514143D01*
X108320395Y-138500000D01*
X108306253Y-138485858D01*
X108485858Y-138306253D01*
X108500000Y-138320395D01*
X108514143Y-138306253D01*
X108693748Y-138485858D01*
X108693748Y-138485858D01*
G37*
X108693748Y-138485858D02*
X108679605Y-138500000D01*
X108693748Y-138514143D01*
X108514143Y-138693748D01*
X108500000Y-138679605D01*
X108485858Y-138693748D01*
X108306253Y-138514143D01*
X108320395Y-138500000D01*
X108306253Y-138485858D01*
X108485858Y-138306253D01*
X108500000Y-138320395D01*
X108514143Y-138306253D01*
X108693748Y-138485858D01*
G36*
X138693748Y-138485858D02*
X138679605Y-138500000D01*
X138693748Y-138514143D01*
X138514143Y-138693748D01*
X138500000Y-138679605D01*
X138485858Y-138693748D01*
X138306253Y-138514143D01*
X138320395Y-138500000D01*
X138306253Y-138485858D01*
X138485858Y-138306253D01*
X138500000Y-138320395D01*
X138514143Y-138306253D01*
X138693748Y-138485858D01*
X138693748Y-138485858D01*
G37*
X138693748Y-138485858D02*
X138679605Y-138500000D01*
X138693748Y-138514143D01*
X138514143Y-138693748D01*
X138500000Y-138679605D01*
X138485858Y-138693748D01*
X138306253Y-138514143D01*
X138320395Y-138500000D01*
X138306253Y-138485858D01*
X138485858Y-138306253D01*
X138500000Y-138320395D01*
X138514143Y-138306253D01*
X138693748Y-138485858D01*
G36*
X109957576Y-132883364D02*
X109957579Y-132883367D01*
X109997255Y-132942746D01*
X110056634Y-132982422D01*
X110437576Y-133363364D01*
X110477254Y-133422746D01*
X110712504Y-133579936D01*
X110919954Y-133621200D01*
X110919958Y-133621200D01*
X110990000Y-133635132D01*
X111060042Y-133621200D01*
X112102560Y-133621200D01*
X112102560Y-133877000D01*
X111948000Y-133877000D01*
X111948000Y-133857000D01*
X111303750Y-133857000D01*
X111145000Y-134015750D01*
X111145000Y-134176310D01*
X111222164Y-134362600D01*
X111052448Y-134362600D01*
X111042896Y-134364500D01*
X110973754Y-134364500D01*
X110909876Y-134390959D01*
X110822772Y-134408285D01*
X110748928Y-134457626D01*
X110685050Y-134484085D01*
X110636160Y-134532975D01*
X110562316Y-134582316D01*
X110542605Y-134611816D01*
X110255500Y-134324712D01*
X110255500Y-134033754D01*
X110135915Y-133745050D01*
X109943020Y-133552155D01*
X110020000Y-133366309D01*
X110020000Y-133025750D01*
X109861252Y-132867002D01*
X109946643Y-132867002D01*
X109957576Y-132883364D01*
X109957576Y-132883364D01*
G37*
X109957576Y-132883364D02*
X109957579Y-132883367D01*
X109997255Y-132942746D01*
X110056634Y-132982422D01*
X110437576Y-133363364D01*
X110477254Y-133422746D01*
X110712504Y-133579936D01*
X110919954Y-133621200D01*
X110919958Y-133621200D01*
X110990000Y-133635132D01*
X111060042Y-133621200D01*
X112102560Y-133621200D01*
X112102560Y-133877000D01*
X111948000Y-133877000D01*
X111948000Y-133857000D01*
X111303750Y-133857000D01*
X111145000Y-134015750D01*
X111145000Y-134176310D01*
X111222164Y-134362600D01*
X111052448Y-134362600D01*
X111042896Y-134364500D01*
X110973754Y-134364500D01*
X110909876Y-134390959D01*
X110822772Y-134408285D01*
X110748928Y-134457626D01*
X110685050Y-134484085D01*
X110636160Y-134532975D01*
X110562316Y-134582316D01*
X110542605Y-134611816D01*
X110255500Y-134324712D01*
X110255500Y-134033754D01*
X110135915Y-133745050D01*
X109943020Y-133552155D01*
X110020000Y-133366309D01*
X110020000Y-133025750D01*
X109861252Y-132867002D01*
X109946643Y-132867002D01*
X109957576Y-132883364D01*
G36*
X109274500Y-131086246D02*
X109394085Y-131374950D01*
X109615050Y-131595915D01*
X109760285Y-131656073D01*
X109798800Y-131694588D01*
X109798800Y-131755775D01*
X109744699Y-131701673D01*
X109511310Y-131605000D01*
X109320750Y-131605000D01*
X109162000Y-131763750D01*
X109162000Y-132613000D01*
X109182000Y-132613000D01*
X109182000Y-132867000D01*
X109162000Y-132867000D01*
X109162000Y-132887000D01*
X108908000Y-132887000D01*
X108908000Y-132867000D01*
X108208750Y-132867000D01*
X108050000Y-133025750D01*
X108050000Y-133049212D01*
X107882440Y-132881652D01*
X107882440Y-132240000D01*
X107857316Y-132113691D01*
X108050000Y-132113691D01*
X108050000Y-132454250D01*
X108208750Y-132613000D01*
X108908000Y-132613000D01*
X108908000Y-131763750D01*
X108749250Y-131605000D01*
X108558690Y-131605000D01*
X108325301Y-131701673D01*
X108146673Y-131880302D01*
X108050000Y-132113691D01*
X107857316Y-132113691D01*
X107833157Y-131992235D01*
X107692809Y-131782191D01*
X107596200Y-131717638D01*
X107596200Y-131035500D01*
X107626246Y-131035500D01*
X107805622Y-130961200D01*
X109274500Y-130961200D01*
X109274500Y-131086246D01*
X109274500Y-131086246D01*
G37*
X109274500Y-131086246D02*
X109394085Y-131374950D01*
X109615050Y-131595915D01*
X109760285Y-131656073D01*
X109798800Y-131694588D01*
X109798800Y-131755775D01*
X109744699Y-131701673D01*
X109511310Y-131605000D01*
X109320750Y-131605000D01*
X109162000Y-131763750D01*
X109162000Y-132613000D01*
X109182000Y-132613000D01*
X109182000Y-132867000D01*
X109162000Y-132867000D01*
X109162000Y-132887000D01*
X108908000Y-132887000D01*
X108908000Y-132867000D01*
X108208750Y-132867000D01*
X108050000Y-133025750D01*
X108050000Y-133049212D01*
X107882440Y-132881652D01*
X107882440Y-132240000D01*
X107857316Y-132113691D01*
X108050000Y-132113691D01*
X108050000Y-132454250D01*
X108208750Y-132613000D01*
X108908000Y-132613000D01*
X108908000Y-131763750D01*
X108749250Y-131605000D01*
X108558690Y-131605000D01*
X108325301Y-131701673D01*
X108146673Y-131880302D01*
X108050000Y-132113691D01*
X107857316Y-132113691D01*
X107833157Y-131992235D01*
X107692809Y-131782191D01*
X107596200Y-131717638D01*
X107596200Y-131035500D01*
X107626246Y-131035500D01*
X107805622Y-130961200D01*
X109274500Y-130961200D01*
X109274500Y-131086246D01*
G36*
X111940412Y-132198800D02*
X111908000Y-132198800D01*
X111908000Y-132071200D01*
X112068012Y-132071200D01*
X111940412Y-132198800D01*
X111940412Y-132198800D01*
G37*
X111940412Y-132198800D02*
X111908000Y-132198800D01*
X111908000Y-132071200D01*
X112068012Y-132071200D01*
X111940412Y-132198800D01*
G36*
X112092560Y-130526652D02*
X111970412Y-130648800D01*
X111918000Y-130648800D01*
X111918000Y-130463000D01*
X111938000Y-130463000D01*
X111938000Y-130443000D01*
X112092560Y-130443000D01*
X112092560Y-130526652D01*
X112092560Y-130526652D01*
G37*
X112092560Y-130526652D02*
X111970412Y-130648800D01*
X111918000Y-130648800D01*
X111918000Y-130463000D01*
X111938000Y-130463000D01*
X111938000Y-130443000D01*
X112092560Y-130443000D01*
X112092560Y-130526652D01*
G36*
X112902560Y-121075000D02*
X112951843Y-121322765D01*
X113092191Y-121532809D01*
X113302235Y-121673157D01*
X113496534Y-121711805D01*
X113497576Y-121713364D01*
X113497578Y-121713366D01*
X113537254Y-121772745D01*
X113596634Y-121812422D01*
X113674212Y-121890000D01*
X113423691Y-121890000D01*
X113190302Y-121986673D01*
X113011673Y-122165301D01*
X112915000Y-122398690D01*
X112915000Y-122589250D01*
X113073750Y-122748000D01*
X113923000Y-122748000D01*
X113923000Y-122728000D01*
X114177000Y-122728000D01*
X114177000Y-122748000D01*
X114197000Y-122748000D01*
X114197000Y-123002000D01*
X114177000Y-123002000D01*
X114177000Y-123022000D01*
X113923000Y-123022000D01*
X113923000Y-123002000D01*
X113073750Y-123002000D01*
X112915000Y-123160750D01*
X112915000Y-123351310D01*
X113011673Y-123584699D01*
X113112110Y-123685136D01*
X112993071Y-123863290D01*
X112988089Y-123888337D01*
X112908285Y-124007772D01*
X112847174Y-124315000D01*
X112908285Y-124622228D01*
X112988089Y-124741663D01*
X112990508Y-124753825D01*
X112945000Y-124863691D01*
X112945000Y-124999250D01*
X113103750Y-125158000D01*
X113365029Y-125158000D01*
X113423290Y-125196929D01*
X113727500Y-125257440D01*
X113862600Y-125257440D01*
X113862600Y-125432000D01*
X113773000Y-125432000D01*
X113773000Y-125412000D01*
X113103750Y-125412000D01*
X112945000Y-125570750D01*
X112945000Y-125706309D01*
X113041673Y-125939698D01*
X113220301Y-126118327D01*
X113453690Y-126215000D01*
X113614250Y-126215000D01*
X113772998Y-126056252D01*
X113772998Y-126215000D01*
X113860103Y-126215000D01*
X113908285Y-126457228D01*
X114082316Y-126717684D01*
X114161490Y-126770586D01*
X114102837Y-126858366D01*
X114052972Y-126868285D01*
X113792516Y-127042316D01*
X113748586Y-127108062D01*
X113098065Y-127758584D01*
X113032316Y-127802516D01*
X112858285Y-128062973D01*
X112824086Y-128234904D01*
X112797174Y-128370200D01*
X112812600Y-128447751D01*
X112812600Y-128573848D01*
X112673849Y-128712600D01*
X110622448Y-128712600D01*
X110612896Y-128714500D01*
X110543754Y-128714500D01*
X110479876Y-128740959D01*
X110392772Y-128758285D01*
X110318928Y-128807626D01*
X110255050Y-128834085D01*
X110206160Y-128882975D01*
X110132316Y-128932316D01*
X110082975Y-129006160D01*
X110034085Y-129055050D01*
X110007626Y-129118928D01*
X109958285Y-129192772D01*
X109940959Y-129279876D01*
X109914500Y-129343754D01*
X109914500Y-129412896D01*
X109897174Y-129500000D01*
X109904892Y-129538800D01*
X107805622Y-129538800D01*
X107626246Y-129464500D01*
X107596200Y-129464500D01*
X107596200Y-129262362D01*
X107692809Y-129197809D01*
X107833157Y-128987765D01*
X107882440Y-128740000D01*
X107882440Y-128525750D01*
X108050000Y-128525750D01*
X108050000Y-128866309D01*
X108146673Y-129099698D01*
X108325301Y-129278327D01*
X108558690Y-129375000D01*
X108749250Y-129375000D01*
X108908000Y-129216250D01*
X108908000Y-128367000D01*
X109162000Y-128367000D01*
X109162000Y-129216250D01*
X109320750Y-129375000D01*
X109511310Y-129375000D01*
X109744699Y-129278327D01*
X109923327Y-129099698D01*
X110020000Y-128866309D01*
X110020000Y-128525750D01*
X109861250Y-128367000D01*
X109162000Y-128367000D01*
X108908000Y-128367000D01*
X108208750Y-128367000D01*
X108050000Y-128525750D01*
X107882440Y-128525750D01*
X107882440Y-127740000D01*
X107857316Y-127613691D01*
X108050000Y-127613691D01*
X108050000Y-127954250D01*
X108208750Y-128113000D01*
X108908000Y-128113000D01*
X108908000Y-127263750D01*
X109162000Y-127263750D01*
X109162000Y-128113000D01*
X109861250Y-128113000D01*
X110020000Y-127954250D01*
X110020000Y-127613691D01*
X109923327Y-127380302D01*
X109744699Y-127201673D01*
X109511310Y-127105000D01*
X109320750Y-127105000D01*
X109162000Y-127263750D01*
X108908000Y-127263750D01*
X108749250Y-127105000D01*
X108558690Y-127105000D01*
X108325301Y-127201673D01*
X108146673Y-127380302D01*
X108050000Y-127613691D01*
X107857316Y-127613691D01*
X107833157Y-127492235D01*
X107692809Y-127282191D01*
X107482765Y-127141843D01*
X107235000Y-127092560D01*
X106710000Y-127092560D01*
X106710000Y-124598878D01*
X106905368Y-124910888D01*
X107949360Y-125337609D01*
X109077181Y-125332330D01*
X110094632Y-124910888D01*
X110339777Y-124519382D01*
X108500000Y-122679605D01*
X108485858Y-122693748D01*
X108306253Y-122514143D01*
X108320395Y-122500000D01*
X108306253Y-122485858D01*
X108485858Y-122306253D01*
X108500000Y-122320395D01*
X108514143Y-122306253D01*
X108693748Y-122485858D01*
X108679605Y-122500000D01*
X110519382Y-124339777D01*
X110910888Y-124094632D01*
X111337609Y-123050640D01*
X111332330Y-121922819D01*
X110910888Y-120905368D01*
X110598878Y-120710000D01*
X112902560Y-120710000D01*
X112902560Y-121075000D01*
X112902560Y-121075000D01*
G37*
X112902560Y-121075000D02*
X112951843Y-121322765D01*
X113092191Y-121532809D01*
X113302235Y-121673157D01*
X113496534Y-121711805D01*
X113497576Y-121713364D01*
X113497578Y-121713366D01*
X113537254Y-121772745D01*
X113596634Y-121812422D01*
X113674212Y-121890000D01*
X113423691Y-121890000D01*
X113190302Y-121986673D01*
X113011673Y-122165301D01*
X112915000Y-122398690D01*
X112915000Y-122589250D01*
X113073750Y-122748000D01*
X113923000Y-122748000D01*
X113923000Y-122728000D01*
X114177000Y-122728000D01*
X114177000Y-122748000D01*
X114197000Y-122748000D01*
X114197000Y-123002000D01*
X114177000Y-123002000D01*
X114177000Y-123022000D01*
X113923000Y-123022000D01*
X113923000Y-123002000D01*
X113073750Y-123002000D01*
X112915000Y-123160750D01*
X112915000Y-123351310D01*
X113011673Y-123584699D01*
X113112110Y-123685136D01*
X112993071Y-123863290D01*
X112988089Y-123888337D01*
X112908285Y-124007772D01*
X112847174Y-124315000D01*
X112908285Y-124622228D01*
X112988089Y-124741663D01*
X112990508Y-124753825D01*
X112945000Y-124863691D01*
X112945000Y-124999250D01*
X113103750Y-125158000D01*
X113365029Y-125158000D01*
X113423290Y-125196929D01*
X113727500Y-125257440D01*
X113862600Y-125257440D01*
X113862600Y-125432000D01*
X113773000Y-125432000D01*
X113773000Y-125412000D01*
X113103750Y-125412000D01*
X112945000Y-125570750D01*
X112945000Y-125706309D01*
X113041673Y-125939698D01*
X113220301Y-126118327D01*
X113453690Y-126215000D01*
X113614250Y-126215000D01*
X113772998Y-126056252D01*
X113772998Y-126215000D01*
X113860103Y-126215000D01*
X113908285Y-126457228D01*
X114082316Y-126717684D01*
X114161490Y-126770586D01*
X114102837Y-126858366D01*
X114052972Y-126868285D01*
X113792516Y-127042316D01*
X113748586Y-127108062D01*
X113098065Y-127758584D01*
X113032316Y-127802516D01*
X112858285Y-128062973D01*
X112824086Y-128234904D01*
X112797174Y-128370200D01*
X112812600Y-128447751D01*
X112812600Y-128573848D01*
X112673849Y-128712600D01*
X110622448Y-128712600D01*
X110612896Y-128714500D01*
X110543754Y-128714500D01*
X110479876Y-128740959D01*
X110392772Y-128758285D01*
X110318928Y-128807626D01*
X110255050Y-128834085D01*
X110206160Y-128882975D01*
X110132316Y-128932316D01*
X110082975Y-129006160D01*
X110034085Y-129055050D01*
X110007626Y-129118928D01*
X109958285Y-129192772D01*
X109940959Y-129279876D01*
X109914500Y-129343754D01*
X109914500Y-129412896D01*
X109897174Y-129500000D01*
X109904892Y-129538800D01*
X107805622Y-129538800D01*
X107626246Y-129464500D01*
X107596200Y-129464500D01*
X107596200Y-129262362D01*
X107692809Y-129197809D01*
X107833157Y-128987765D01*
X107882440Y-128740000D01*
X107882440Y-128525750D01*
X108050000Y-128525750D01*
X108050000Y-128866309D01*
X108146673Y-129099698D01*
X108325301Y-129278327D01*
X108558690Y-129375000D01*
X108749250Y-129375000D01*
X108908000Y-129216250D01*
X108908000Y-128367000D01*
X109162000Y-128367000D01*
X109162000Y-129216250D01*
X109320750Y-129375000D01*
X109511310Y-129375000D01*
X109744699Y-129278327D01*
X109923327Y-129099698D01*
X110020000Y-128866309D01*
X110020000Y-128525750D01*
X109861250Y-128367000D01*
X109162000Y-128367000D01*
X108908000Y-128367000D01*
X108208750Y-128367000D01*
X108050000Y-128525750D01*
X107882440Y-128525750D01*
X107882440Y-127740000D01*
X107857316Y-127613691D01*
X108050000Y-127613691D01*
X108050000Y-127954250D01*
X108208750Y-128113000D01*
X108908000Y-128113000D01*
X108908000Y-127263750D01*
X109162000Y-127263750D01*
X109162000Y-128113000D01*
X109861250Y-128113000D01*
X110020000Y-127954250D01*
X110020000Y-127613691D01*
X109923327Y-127380302D01*
X109744699Y-127201673D01*
X109511310Y-127105000D01*
X109320750Y-127105000D01*
X109162000Y-127263750D01*
X108908000Y-127263750D01*
X108749250Y-127105000D01*
X108558690Y-127105000D01*
X108325301Y-127201673D01*
X108146673Y-127380302D01*
X108050000Y-127613691D01*
X107857316Y-127613691D01*
X107833157Y-127492235D01*
X107692809Y-127282191D01*
X107482765Y-127141843D01*
X107235000Y-127092560D01*
X106710000Y-127092560D01*
X106710000Y-124598878D01*
X106905368Y-124910888D01*
X107949360Y-125337609D01*
X109077181Y-125332330D01*
X110094632Y-124910888D01*
X110339777Y-124519382D01*
X108500000Y-122679605D01*
X108485858Y-122693748D01*
X108306253Y-122514143D01*
X108320395Y-122500000D01*
X108306253Y-122485858D01*
X108485858Y-122306253D01*
X108500000Y-122320395D01*
X108514143Y-122306253D01*
X108693748Y-122485858D01*
X108679605Y-122500000D01*
X110519382Y-124339777D01*
X110910888Y-124094632D01*
X111337609Y-123050640D01*
X111332330Y-121922819D01*
X110910888Y-120905368D01*
X110598878Y-120710000D01*
X112902560Y-120710000D01*
X112902560Y-121075000D01*
G36*
X116188800Y-126010247D02*
X116188800Y-126520278D01*
X116150000Y-126512560D01*
X116125553Y-126512560D01*
X115975184Y-126287516D01*
X115909438Y-126243586D01*
X115870735Y-126204883D01*
X116079699Y-126118327D01*
X116188188Y-126009838D01*
X116188800Y-126010247D01*
X116188800Y-126010247D01*
G37*
X116188800Y-126010247D02*
X116188800Y-126520278D01*
X116150000Y-126512560D01*
X116125553Y-126512560D01*
X115975184Y-126287516D01*
X115909438Y-126243586D01*
X115870735Y-126204883D01*
X116079699Y-126118327D01*
X116188188Y-126009838D01*
X116188800Y-126010247D01*
G36*
X115547000Y-125412000D02*
X115527000Y-125412000D01*
X115527000Y-125432000D01*
X115437400Y-125432000D01*
X115437400Y-125257440D01*
X115547000Y-125257440D01*
X115547000Y-125412000D01*
X115547000Y-125412000D01*
G37*
X115547000Y-125412000D02*
X115527000Y-125412000D01*
X115527000Y-125432000D01*
X115437400Y-125432000D01*
X115437400Y-125257440D01*
X115547000Y-125257440D01*
X115547000Y-125412000D01*
G36*
X128332560Y-121637500D02*
X128332560Y-121932500D01*
X128393071Y-122236710D01*
X128535587Y-122450000D01*
X128393071Y-122663290D01*
X128332560Y-122967500D01*
X128332560Y-123262500D01*
X128390508Y-123553825D01*
X128345000Y-123663691D01*
X128345000Y-123799250D01*
X128503750Y-123958000D01*
X128765029Y-123958000D01*
X128823290Y-123996929D01*
X129127500Y-124057440D01*
X129472500Y-124057440D01*
X129776710Y-123996929D01*
X129834971Y-123958000D01*
X130096250Y-123958000D01*
X130206250Y-123848000D01*
X130833000Y-123848000D01*
X130833000Y-122832000D01*
X130813000Y-122832000D01*
X130813000Y-122677440D01*
X131107000Y-122677440D01*
X131107000Y-122832000D01*
X131087000Y-122832000D01*
X131087000Y-123848000D01*
X131756250Y-123848000D01*
X131798930Y-123805320D01*
X131885000Y-123822440D01*
X132042560Y-123822440D01*
X132042560Y-124012500D01*
X131408750Y-124012500D01*
X131371208Y-124050042D01*
X131132500Y-124002560D01*
X130787500Y-124002560D01*
X130483290Y-124063071D01*
X130425029Y-124102000D01*
X130163750Y-124102000D01*
X130108150Y-124157600D01*
X126070000Y-124157600D01*
X126070000Y-124064670D01*
X125836310Y-123500493D01*
X125706313Y-123370496D01*
X126174460Y-123350839D01*
X126619148Y-123166643D01*
X126705554Y-122910159D01*
X125805000Y-122009605D01*
X125790858Y-122023748D01*
X125611253Y-121844143D01*
X125625395Y-121830000D01*
X125611253Y-121815858D01*
X125790858Y-121636253D01*
X125805000Y-121650395D01*
X125819143Y-121636253D01*
X125998748Y-121815858D01*
X125984605Y-121830000D01*
X126885159Y-122730554D01*
X127141643Y-122644148D01*
X127351458Y-122070664D01*
X127325839Y-121460540D01*
X127305981Y-121412599D01*
X128377295Y-121412599D01*
X128332560Y-121637500D01*
X128332560Y-121637500D01*
G37*
X128332560Y-121637500D02*
X128332560Y-121932500D01*
X128393071Y-122236710D01*
X128535587Y-122450000D01*
X128393071Y-122663290D01*
X128332560Y-122967500D01*
X128332560Y-123262500D01*
X128390508Y-123553825D01*
X128345000Y-123663691D01*
X128345000Y-123799250D01*
X128503750Y-123958000D01*
X128765029Y-123958000D01*
X128823290Y-123996929D01*
X129127500Y-124057440D01*
X129472500Y-124057440D01*
X129776710Y-123996929D01*
X129834971Y-123958000D01*
X130096250Y-123958000D01*
X130206250Y-123848000D01*
X130833000Y-123848000D01*
X130833000Y-122832000D01*
X130813000Y-122832000D01*
X130813000Y-122677440D01*
X131107000Y-122677440D01*
X131107000Y-122832000D01*
X131087000Y-122832000D01*
X131087000Y-123848000D01*
X131756250Y-123848000D01*
X131798930Y-123805320D01*
X131885000Y-123822440D01*
X132042560Y-123822440D01*
X132042560Y-124012500D01*
X131408750Y-124012500D01*
X131371208Y-124050042D01*
X131132500Y-124002560D01*
X130787500Y-124002560D01*
X130483290Y-124063071D01*
X130425029Y-124102000D01*
X130163750Y-124102000D01*
X130108150Y-124157600D01*
X126070000Y-124157600D01*
X126070000Y-124064670D01*
X125836310Y-123500493D01*
X125706313Y-123370496D01*
X126174460Y-123350839D01*
X126619148Y-123166643D01*
X126705554Y-122910159D01*
X125805000Y-122009605D01*
X125790858Y-122023748D01*
X125611253Y-121844143D01*
X125625395Y-121830000D01*
X125611253Y-121815858D01*
X125790858Y-121636253D01*
X125805000Y-121650395D01*
X125819143Y-121636253D01*
X125998748Y-121815858D01*
X125984605Y-121830000D01*
X126885159Y-122730554D01*
X127141643Y-122644148D01*
X127351458Y-122070664D01*
X127325839Y-121460540D01*
X127305981Y-121412599D01*
X128377295Y-121412599D01*
X128332560Y-121637500D01*
G36*
X118677000Y-122748000D02*
X118697000Y-122748000D01*
X118697000Y-123002000D01*
X118677000Y-123002000D01*
X118677000Y-123022000D01*
X118423000Y-123022000D01*
X118423000Y-123002000D01*
X118403000Y-123002000D01*
X118403000Y-122748000D01*
X118423000Y-122748000D01*
X118423000Y-122728000D01*
X118677000Y-122728000D01*
X118677000Y-122748000D01*
X118677000Y-122748000D01*
G37*
X118677000Y-122748000D02*
X118697000Y-122748000D01*
X118697000Y-123002000D01*
X118677000Y-123002000D01*
X118677000Y-123022000D01*
X118423000Y-123022000D01*
X118423000Y-123002000D01*
X118403000Y-123002000D01*
X118403000Y-122748000D01*
X118423000Y-122748000D01*
X118423000Y-122728000D01*
X118677000Y-122728000D01*
X118677000Y-122748000D01*
G36*
X138693748Y-122485858D02*
X138679605Y-122500000D01*
X138693748Y-122514143D01*
X138514143Y-122693748D01*
X138500000Y-122679605D01*
X138485858Y-122693748D01*
X138306253Y-122514143D01*
X138320395Y-122500000D01*
X138306253Y-122485858D01*
X138485858Y-122306253D01*
X138500000Y-122320395D01*
X138514143Y-122306253D01*
X138693748Y-122485858D01*
X138693748Y-122485858D01*
G37*
X138693748Y-122485858D02*
X138679605Y-122500000D01*
X138693748Y-122514143D01*
X138514143Y-122693748D01*
X138500000Y-122679605D01*
X138485858Y-122693748D01*
X138306253Y-122514143D01*
X138320395Y-122500000D01*
X138306253Y-122485858D01*
X138485858Y-122306253D01*
X138500000Y-122320395D01*
X138514143Y-122306253D01*
X138693748Y-122485858D01*
G04 #@! TD*
M02*
