G04 #@! TF.GenerationSoftware,KiCad,Pcbnew,5.0.2-bee76a0~70~ubuntu18.04.1*
G04 #@! TF.CreationDate,2020-01-13T19:18:57+01:00*
G04 #@! TF.ProjectId,roboy_sno,726f626f-795f-4736-9e6f-2e6b69636164,rev?*
G04 #@! TF.SameCoordinates,Original*
G04 #@! TF.FileFunction,Legend,Top*
G04 #@! TF.FilePolarity,Positive*
%FSLAX46Y46*%
G04 Gerber Fmt 4.6, Leading zero omitted, Abs format (unit mm)*
G04 Created by KiCad (PCBNEW 5.0.2-bee76a0~70~ubuntu18.04.1) date Mo 13 Jan 2020 19:18:57 CET*
%MOMM*%
%LPD*%
G01*
G04 APERTURE LIST*
%ADD10C,0.127000*%
%ADD11C,0.400000*%
%ADD12C,0.150000*%
%ADD13C,0.120000*%
%ADD14C,0.100000*%
%ADD15C,0.050000*%
G04 APERTURE END LIST*
D10*
G04 #@! TO.C,U2*
X115300000Y-140660000D02*
X133300000Y-140660000D01*
X115300000Y-126360000D02*
X115300000Y-126870000D01*
X133300000Y-126360000D02*
X133300000Y-126870000D01*
X115300000Y-126360000D02*
X133300000Y-126360000D01*
D11*
X114050000Y-127610000D02*
G75*
G03X114050000Y-127610000I-50000J0D01*
G01*
D12*
G04 #@! TO.C,U1*
X132515000Y-124600000D02*
X134565000Y-124600000D01*
X131810000Y-121300000D02*
X134565000Y-121300000D01*
G04 #@! TO.C,SW2*
X117615295Y-121800000D02*
G75*
G03X117615295Y-121800000I-1315295J0D01*
G01*
X118400000Y-120200000D02*
X118400000Y-123400000D01*
X114200000Y-123400000D02*
X114200000Y-120200000D01*
X118400000Y-120200000D02*
X114200000Y-120200000D01*
X118400000Y-123400000D02*
X114200000Y-123400000D01*
D13*
G04 #@! TO.C,J3*
X134950000Y-131385000D02*
X134950000Y-134500000D01*
X134950000Y-134500000D02*
X140550000Y-134500000D01*
X140550000Y-127000000D02*
X140550000Y-134500000D01*
X139020000Y-127000000D02*
X140550000Y-127000000D01*
X137750000Y-128245000D02*
X137750000Y-130115000D01*
X137750000Y-130115000D02*
X135880000Y-130115000D01*
X134950000Y-128845000D02*
X134950000Y-127000000D01*
X134950000Y-127000000D02*
X136480000Y-127000000D01*
G04 #@! TO.C,J2*
X124535000Y-125900000D02*
X127650000Y-125900000D01*
X127650000Y-125900000D02*
X127650000Y-120300000D01*
X120150000Y-120300000D02*
X127650000Y-120300000D01*
X120150000Y-121830000D02*
X120150000Y-120300000D01*
X121395000Y-123100000D02*
X123265000Y-123100000D01*
X123265000Y-123100000D02*
X123265000Y-124970000D01*
X121995000Y-125900000D02*
X120150000Y-125900000D01*
X120150000Y-125900000D02*
X120150000Y-124370000D01*
D14*
G04 #@! TO.C,D1*
X129350000Y-122390000D02*
G75*
G03X129350000Y-122390000I-50000J0D01*
G01*
D12*
G04 #@! TO.C,SW1*
X109560000Y-128390000D02*
X109560000Y-132590000D01*
X106360000Y-128390000D02*
X106360000Y-132590000D01*
X109560000Y-132590000D02*
X106360000Y-132590000D01*
X106360000Y-128390000D02*
X109560000Y-128390000D01*
X109275295Y-130490000D02*
G75*
G03X109275295Y-130490000I-1315295J0D01*
G01*
G04 #@! TO.C,U2*
D15*
X117760211Y-139848522D02*
X118093774Y-139848522D01*
X118236730Y-140372693D02*
X117760211Y-140372693D01*
X117760211Y-139372003D01*
X118236730Y-139372003D01*
X118617945Y-140325041D02*
X118760901Y-140372693D01*
X118999160Y-140372693D01*
X119094464Y-140325041D01*
X119142116Y-140277389D01*
X119189768Y-140182085D01*
X119189768Y-140086781D01*
X119142116Y-139991477D01*
X119094464Y-139943825D01*
X118999160Y-139896174D01*
X118808553Y-139848522D01*
X118713249Y-139800870D01*
X118665597Y-139753218D01*
X118617945Y-139657914D01*
X118617945Y-139562610D01*
X118665597Y-139467306D01*
X118713249Y-139419655D01*
X118808553Y-139372003D01*
X119046812Y-139372003D01*
X119189768Y-139419655D01*
X119618635Y-140372693D02*
X119618635Y-139372003D01*
X119999850Y-139372003D01*
X120095154Y-139419655D01*
X120142806Y-139467306D01*
X120190458Y-139562610D01*
X120190458Y-139705566D01*
X120142806Y-139800870D01*
X120095154Y-139848522D01*
X119999850Y-139896174D01*
X119618635Y-139896174D01*
X120619325Y-139991477D02*
X121381755Y-139991477D01*
X121762971Y-139372003D02*
X122001230Y-140372693D01*
X122191838Y-139657914D01*
X122382445Y-140372693D01*
X122620705Y-139372003D01*
X123573743Y-140372693D02*
X123240180Y-139896174D01*
X123001920Y-140372693D02*
X123001920Y-139372003D01*
X123383135Y-139372003D01*
X123478439Y-139419655D01*
X123526091Y-139467306D01*
X123573743Y-139562610D01*
X123573743Y-139705566D01*
X123526091Y-139800870D01*
X123478439Y-139848522D01*
X123383135Y-139896174D01*
X123001920Y-139896174D01*
X124193218Y-139372003D02*
X124383825Y-139372003D01*
X124479129Y-139419655D01*
X124574433Y-139514958D01*
X124622085Y-139705566D01*
X124622085Y-140039129D01*
X124574433Y-140229737D01*
X124479129Y-140325041D01*
X124383825Y-140372693D01*
X124193218Y-140372693D01*
X124097914Y-140325041D01*
X124002610Y-140229737D01*
X123954958Y-140039129D01*
X123954958Y-139705566D01*
X124002610Y-139514958D01*
X124097914Y-139419655D01*
X124193218Y-139372003D01*
X125241560Y-139372003D02*
X125432167Y-139372003D01*
X125527471Y-139419655D01*
X125622775Y-139514958D01*
X125670427Y-139705566D01*
X125670427Y-140039129D01*
X125622775Y-140229737D01*
X125527471Y-140325041D01*
X125432167Y-140372693D01*
X125241560Y-140372693D01*
X125146256Y-140325041D01*
X125050952Y-140229737D01*
X125003300Y-140039129D01*
X125003300Y-139705566D01*
X125050952Y-139514958D01*
X125146256Y-139419655D01*
X125241560Y-139372003D01*
X126099294Y-140372693D02*
X126099294Y-139372003D01*
X126432857Y-140086781D01*
X126766421Y-139372003D01*
X126766421Y-140372693D01*
X127242940Y-139991477D02*
X128005370Y-139991477D01*
X128672497Y-139372003D02*
X128767801Y-139372003D01*
X128863105Y-139419655D01*
X128910756Y-139467306D01*
X128958408Y-139562610D01*
X129006060Y-139753218D01*
X129006060Y-139991477D01*
X128958408Y-140182085D01*
X128910756Y-140277389D01*
X128863105Y-140325041D01*
X128767801Y-140372693D01*
X128672497Y-140372693D01*
X128577193Y-140325041D01*
X128529541Y-140277389D01*
X128481889Y-140182085D01*
X128434237Y-139991477D01*
X128434237Y-139753218D01*
X128481889Y-139562610D01*
X128529541Y-139467306D01*
X128577193Y-139419655D01*
X128672497Y-139372003D01*
X129387275Y-139467306D02*
X129434927Y-139419655D01*
X129530231Y-139372003D01*
X129768491Y-139372003D01*
X129863795Y-139419655D01*
X129911446Y-139467306D01*
X129959098Y-139562610D01*
X129959098Y-139657914D01*
X129911446Y-139800870D01*
X129339624Y-140372693D01*
X129959098Y-140372693D01*
X130387965Y-139372003D02*
X130387965Y-140182085D01*
X130435617Y-140277389D01*
X130483269Y-140325041D01*
X130578573Y-140372693D01*
X130769181Y-140372693D01*
X130864485Y-140325041D01*
X130912136Y-140277389D01*
X130959788Y-140182085D01*
X130959788Y-139372003D01*
G04 #@! TD*
M02*
